<?xml version="1.0" encoding="UTF-8"?>
<!-- Generator: visioncortex VTracer 0.6.3 -->
<svg version="1.1" xmlns="http://www.w3.org/2000/svg" width="500" height="500">
<path d="M0 0 C165 0 330 0 500 0 C500 165 500 330 500 500 C335 500 170 500 0 500 C0 335 0 170 0 0 Z " fill="#FEFEFE" transform="translate(0,0)"/>
<path d="M0 0 C2.5 2.17 4.83 4.43 7.13 6.8 C7.83 7.49 8.52 8.17 9.24 8.88 C32.45 33.13 35.24 70.16 38.73 101.74 C40.31 117.57 40.31 117.57 45.2 132.61 C45.5 133.29 45.8 133.96 46.11 134.66 C51.77 146.82 59.7 157.21 68.45 167.33 C84.37 185.71 98.31 205.6 99.13 230.8 C99.17 231.8 99.21 232.81 99.25 233.84 C99.59 250.07 96.95 267.06 89.2 281.49 C87.12 285.8 87.06 288.52 87.88 293.21 C88.08 294.45 88.28 295.68 88.49 296.95 C88.7 298.22 88.91 299.49 89.13 300.8 C89.49 303.22 89.83 305.64 90.17 308.06 C90.42 309.88 90.42 309.88 90.68 311.73 C92.42 324.42 93.95 336.98 94.13 349.8 C94.15 351.09 94.17 352.38 94.19 353.71 C94.68 387.5 94.68 387.5 92.13 402.8 C91.86 404.7 91.86 404.7 91.58 406.64 C89.5 419.08 84.95 432.46 76.13 441.8 C75.64 442.34 75.14 442.88 74.62 443.43 C63.16 454.48 45.44 456.27 30.28 456.08 C27.56 456.01 24.85 455.92 22.13 455.8 C21.33 455.77 20.53 455.74 19.7 455.7 C-11.19 454.2 -41.22 442.94 -69.61 431.39 C-70.73 430.94 -71.85 430.49 -73 430.02 C-73.99 429.62 -74.98 429.21 -76 428.8 C-78.95 427.77 -81.77 427.23 -84.87 426.8 C-85.65 427.82 -85.65 427.82 -86.45 428.86 C-100.09 446.11 -119.29 462.13 -141.87 464.8 C-160.51 466.28 -178.68 461.86 -193.24 449.55 C-208.68 434.68 -213.53 410.06 -214.03 389.35 C-214.05 387.8 -214.06 386.24 -214.07 384.68 C-214.08 383.41 -214.08 383.41 -214.09 382.12 C-214.11 379.39 -214.11 376.66 -214.12 373.93 C-214.12 372.99 -214.12 372.06 -214.12 371.1 C-214.12 355.46 -213.12 340.29 -210.87 324.8 C-210.66 323.24 -210.46 321.68 -210.26 320.11 C-209.01 310.4 -209.01 310.4 -208.35 307.55 C-207.14 301.94 -209.18 298.22 -211.46 293.23 C-213.05 289.35 -214.13 285.5 -215.12 281.43 C-215.28 280.76 -215.44 280.09 -215.61 279.41 C-221.73 253.55 -215.64 228.67 -202.07 206.21 C-194.62 194.39 -185.19 184.02 -175.24 174.27 C-154.23 153.61 -147.78 129.3 -147.52 100.38 C-147.35 84.86 -146.23 69.99 -142.87 54.8 C-142.72 54.08 -142.57 53.36 -142.42 52.61 C-139.54 38.74 -133.43 25.35 -123.87 14.8 C-123.24 14.07 -122.61 13.33 -121.96 12.58 C-93.06 -18.91 -34.12 -26.17 0 0 Z " fill="#0E7558" transform="translate(305.8671875,31.19921875)"/>
<path d="M0 0 C2.5 2.17 4.83 4.43 7.13 6.8 C7.83 7.49 8.52 8.17 9.24 8.88 C32.45 33.13 35.24 70.16 38.73 101.74 C40.31 117.57 40.31 117.57 45.2 132.61 C45.5 133.29 45.8 133.96 46.11 134.66 C51.77 146.82 59.7 157.21 68.45 167.33 C84.37 185.71 98.31 205.6 99.13 230.8 C99.17 231.8 99.21 232.81 99.25 233.84 C99.64 252.4 95.53 270.26 87.13 286.8 C86.47 286.8 85.81 286.8 85.13 286.8 C85.01 286.24 84.88 285.68 84.75 285.1 C79.21 256.9 79.21 256.9 61.34 235.79 C60.28 235.13 59.22 234.48 58.13 233.8 C57.29 233.28 57.29 233.28 56.44 232.74 C43.9 225.03 30.1 218.46 16.13 213.8 C15.89 214.63 15.64 215.45 15.38 216.3 C9.25 233.47 -3.59 245.17 -19.55 253.27 C-24.52 255.56 -28.35 256.27 -33.87 255.8 C-36.4 254.67 -38.53 253.33 -40.87 251.8 C-40.44 250.36 -40 248.92 -39.55 247.49 C-39.31 246.69 -39.07 245.89 -38.82 245.06 C-37.38 241.64 -35.44 240.17 -32.37 238.18 C-25.22 231.38 -25.77 219.06 -24.87 209.8 C-21.7 209.1 -18.8 208.68 -15.55 208.74 C-14.34 208.76 -13.12 208.78 -11.87 208.8 C-11.88 209.73 -11.89 210.65 -11.9 211.61 C-11.91 212.81 -11.92 214 -11.93 215.24 C-11.95 217.03 -11.95 217.03 -11.96 218.86 C-12.21 221.69 -12.21 221.69 -10.87 222.8 C-8.54 223.39 -8.54 223.39 -5.87 222.8 C-1.21 218.47 0.48 213.85 2.13 207.8 C1.47 207.8 0.81 207.8 0.13 207.8 C0.09 208.63 0.05 209.45 0.01 210.3 C-1.18 215.04 -3.79 218.09 -6.87 221.8 C-8.19 221.47 -9.51 221.14 -10.87 220.8 C-11.1 215.11 -10.32 211.63 -8.87 205.8 C-17.28 206.79 -17.28 206.79 -25.87 207.8 C-26.14 210.59 -26.4 213.37 -26.68 216.24 C-28.42 232.41 -28.42 232.41 -33.37 237.24 C-34.19 237.75 -35.02 238.27 -35.87 238.8 C-39.13 240.98 -39.61 241.93 -41.05 245.43 C-41.57 246.65 -41.57 246.65 -42.1 247.9 C-42.35 248.53 -42.61 249.16 -42.87 249.8 C-47.59 249.2 -51.69 247.82 -56.05 245.99 C-57.39 245.45 -58.72 244.9 -60.05 244.36 C-61.32 243.84 -62.59 243.32 -63.87 242.8 C-71 239.9 -77.15 238.25 -84.87 237.8 C-87.51 242.09 -90.15 246.38 -92.87 250.8 C-99.31 248.65 -102.83 246.14 -107.87 241.8 C-108.63 241.15 -109.38 240.5 -110.16 239.83 C-117.3 233.23 -124.53 223.7 -125.87 213.8 C-149.3 217.78 -173.73 224.26 -189.28 243.55 C-198.51 256.65 -200.55 275.4 -204.13 290.66 C-205.01 294.39 -205.93 298.09 -206.87 301.8 C-210.16 298.1 -211.43 293.93 -212.93 289.3 C-213.19 288.49 -213.46 287.68 -213.73 286.85 C-221.75 261.49 -218.11 236.61 -206.05 213.21 C-198.13 198.47 -187.15 185.93 -175.24 174.27 C-154.23 153.61 -147.78 129.3 -147.52 100.38 C-147.35 84.86 -146.23 69.99 -142.87 54.8 C-142.72 54.08 -142.57 53.36 -142.42 52.61 C-139.54 38.74 -133.43 25.35 -123.87 14.8 C-123.24 14.07 -122.61 13.33 -121.96 12.58 C-93.06 -18.91 -34.12 -26.17 0 0 Z " fill="#C35B52" transform="translate(305.8671875,31.19921875)"/>
<path d="M0 0 C0.99 0.49 0.99 0.49 2 1 C2.54 2.9 3 4.82 3.44 6.75 C9.12 27.44 24.79 54.92 44 66 C45.67 65.67 47.33 65.34 49 65 C51.7 66.78 53.55 68.09 55 71 C56.03 78.49 54.8 83.55 50.8 89.91 C48.73 92.31 46.85 93.62 44 95 C42.85 94.98 41.69 94.96 40.5 94.94 C36.87 95.6 36.87 95.6 35.69 98.34 C34.87 100.44 34.07 102.54 33.3 104.66 C27.49 119.56 16.38 128.65 2.18 135.32 C-0.19 136.3 -2.57 137.17 -5 138 C-6.07 138.41 -7.14 138.82 -8.25 139.25 C-22.29 142.06 -36.67 139.12 -49 132 C-49.7 131.65 -50.4 131.31 -51.12 130.95 C-64.97 123.93 -73.47 112.24 -79 98 C-79 97.01 -79 96.02 -79 95 C-80.02 95.22 -80.02 95.22 -81.06 95.44 C-85.78 94.74 -88.17 91.68 -91 88 C-93.99 82.82 -95.15 76.9 -94 71 C-92.64 68.12 -91.56 67.11 -89 65 C-85.94 65.06 -85.94 65.06 -83 66 C-72.03 69.29 -61.25 64.62 -51.55 59.53 C-28.33 45.64 -11.33 24.25 0 0 Z " fill="#FAA97A" transform="translate(270,56)"/>
<path d="M0 0 C0 1.65 0 3.3 0 5 C-5.18 6.54 -10.37 7.91 -15.68 8.91 C-16.5 9.07 -17.33 9.23 -18.18 9.4 C-19.82 9.71 -21.45 10.01 -23.1 10.29 C-28.81 11.39 -33.5 13.22 -38 17 C-39.8 19.48 -39.8 19.48 -40.69 22.31 C-41.08 23.38 -41.47 24.46 -41.88 25.56 C-43.42 30.3 -44.95 35.03 -46.4 39.8 C-48.61 47.06 -50.98 54.28 -53.31 61.5 C-53.77 62.93 -54.24 64.36 -54.7 65.79 C-55.8 69.19 -56.9 72.6 -58 76 C-55.86 75.2 -55.86 75.2 -55.21 73.23 C-54.96 72.46 -54.71 71.7 -54.45 70.91 C-54.17 70.05 -53.88 69.19 -53.59 68.31 C-53.29 67.38 -52.99 66.46 -52.69 65.5 C-52.38 64.55 -52.07 63.6 -51.75 62.62 C-49.86 56.82 -48.08 50.99 -46.38 45.12 C-45.78 43.09 -45.19 41.05 -44.59 39.01 C-44.19 37.65 -43.79 36.29 -43.4 34.93 C-38.77 19.16 -38.77 19.16 -33 15 C-30.1 13.45 -27.19 12.74 -24 12 C-23.32 11.83 -22.64 11.67 -21.95 11.5 C-19.59 10.92 -17.24 10.36 -14.88 9.81 C-14.11 9.63 -13.35 9.45 -12.56 9.27 C-7.93 8.24 -3.74 7.82 1 8 C1 7.34 1 6.68 1 6 C3.25 5.69 3.25 5.69 6 6 C8.17 8.52 8.17 8.52 10 11 C6.94 11.81 3.88 12.63 0.81 13.44 C-0.05 13.67 -0.92 13.9 -1.81 14.13 C-5.85 15.2 -9.88 16.26 -14 17 C-14 17.99 -14 18.98 -14 20 C-13.28 19.73 -12.55 19.47 -11.8 19.2 C-10.84 18.84 -9.87 18.49 -8.88 18.12 C-7.92 17.78 -6.97 17.43 -5.99 17.07 C-5 16.72 -4.02 16.36 -3 16 C-2.02 15.65 -1.05 15.29 -0.04 14.93 C5.3 13.3 12.74 11.36 17.95 13.98 C19.31 15.31 19.31 15.31 21 18 C21 18.66 21 19.32 21 20 C20.36 20.09 19.73 20.17 19.08 20.26 C16.18 20.65 13.28 21.04 10.38 21.44 C9.38 21.57 8.38 21.71 7.35 21.85 C2.55 22.5 -2.23 23.16 -7 24 C-7 24.66 -7 25.32 -7 26 C-5.9 25.8 -4.8 25.59 -3.67 25.38 C14.76 22 14.76 22 24 22 C27.29 25.29 27.17 27.01 28 32 C18.76 32.33 9.52 32.66 0 33 C0 33.66 0 34.32 0 35 C0.8 34.98 1.6 34.97 2.43 34.95 C6.06 34.89 9.69 34.85 13.31 34.81 C14.58 34.79 15.84 34.76 17.14 34.74 C18.35 34.73 19.56 34.72 20.8 34.71 C21.92 34.69 23.03 34.68 24.18 34.66 C27 35 27 35 28.87 36.36 C30.47 38.68 30.3 40.4 30.19 43.19 C30.15 44.54 30.15 44.54 30.11 45.92 C30.07 46.61 30.04 47.29 30 48 C28.68 48.33 27.36 48.66 26 49 C25.96 49.82 25.92 50.65 25.88 51.5 C24.69 56.24 22.08 59.29 19 63 C17.02 62.5 17.02 62.5 15 62 C14.76 56.31 15.54 52.83 17 47 C11.39 47.66 5.78 48.32 0 49 C-0.27 51.78 -0.54 54.57 -0.81 57.44 C-2.55 73.61 -2.55 73.61 -7.5 78.44 C-8.74 79.21 -8.74 79.21 -10 80 C-13.26 82.18 -13.74 83.13 -15.19 86.62 C-15.7 87.85 -15.7 87.85 -16.23 89.1 C-16.48 89.73 -16.74 90.35 -17 91 C-21.72 90.4 -25.83 89.02 -30.19 87.19 C-31.52 86.64 -32.85 86.1 -34.18 85.56 C-35.45 85.04 -36.73 84.52 -38 84 C-45.13 81.1 -51.29 79.45 -59 79 C-61.64 83.29 -64.28 87.58 -67 92 C-73.44 89.85 -76.96 87.34 -82 83 C-82.76 82.35 -83.52 81.7 -84.3 81.03 C-92.08 73.84 -98.46 64.62 -100 54 C-99.13 53.69 -98.27 53.39 -97.37 53.07 C-94.12 51.91 -90.87 50.75 -87.62 49.57 C-86.22 49.07 -84.82 48.57 -83.42 48.08 C-70.43 44.39 -70.43 44.39 -60.89 35.96 C-58.38 28.86 -58.45 21.32 -58.31 13.88 C-58.28 12.63 -58.24 11.39 -58.21 10.11 C-58.13 7.07 -58.06 4.04 -58 1 C-55.09 1.96 -52.22 2.91 -49.39 4.07 C-35.37 9.55 -20.99 7.68 -7 3 C-0.78 0 -0.78 0 0 0 Z " fill="#FBAA7A" transform="translate(280,190)"/>
<path d="M0 0 C1.83 0.03 1.83 0.03 3.69 0.06 C3.68 0.99 3.66 1.92 3.65 2.87 C3.64 4.07 3.63 5.27 3.62 6.5 C3.61 7.69 3.6 8.89 3.59 10.12 C3.35 12.95 3.35 12.95 4.69 14.06 C7.02 14.65 7.02 14.65 9.69 14.06 C13.91 9.94 16.21 5.38 18.69 0.06 C22.98 1.38 27.27 2.7 31.69 4.06 C28.89 18.04 18.92 29.69 7.69 38.06 C-0.46 43.15 -8.43 47.9 -18.31 47.06 C-20.85 45.93 -22.97 44.59 -25.31 43.06 C-24.89 41.62 -24.45 40.18 -24 38.75 C-23.76 37.95 -23.51 37.15 -23.26 36.32 C-21.82 32.9 -19.89 31.43 -16.81 29.44 C-9.66 22.65 -10.22 10.32 -9.31 1.06 C-6.15 0.36 -3.24 -0.05 0 0 Z " fill="#F9A97A" transform="translate(290.3125,239.9375)"/>
<path d="M0 0 C4.01 0.6 6.55 2.67 9.75 5.06 C10.73 5.8 11.72 6.53 12.73 7.29 C13.48 7.85 14.23 8.42 15 9 C12.92 17.14 10.36 25.09 7.66 33.05 C7.01 34.98 6.37 36.93 5.74 38.87 C5.43 39.83 5.43 39.83 5.11 40.81 C4.54 42.56 3.97 44.32 3.41 46.07 C1.93 50.38 0.13 54.54 -1.64 58.74 C-3.97 64.33 -6.17 69.98 -8.38 75.62 C-8.85 76.84 -9.33 78.05 -9.82 79.31 C-13.56 88.86 -17.29 98.43 -21 108 C-20.43 107.98 -19.85 107.96 -19.27 107.94 C-12.09 107.81 -5.21 108.59 1.88 109.62 C3.08 109.8 4.28 109.97 5.52 110.14 C15.7 111.65 25.71 113.77 35.67 116.33 C41.94 117.83 46.2 118.38 52.19 115.75 C54 115 54 115 57 115 C56.97 113.48 56.97 113.48 56.93 111.94 C57 108.14 57.43 104.71 58.1 100.98 C58.22 100.32 58.34 99.67 58.46 98.99 C58.84 96.87 59.23 94.75 59.62 92.62 C59.76 91.9 59.89 91.18 60.03 90.43 C62.52 76.83 65.55 63.4 69 50 C69.66 50 70.32 50 71 50 C70.4 56.06 69.51 61.9 68.22 67.85 C67.87 69.52 67.52 71.2 67.17 72.87 C66.62 75.46 66.07 78.04 65.51 80.62 C63.15 91.72 61.19 102.71 60 114 C61.15 113.92 62.31 113.83 63.5 113.75 C70.87 113.7 77.95 116.06 85 118 C85 118.66 85 119.32 85 120 C83.56 119.86 82.12 119.71 80.69 119.56 C79.49 119.44 79.49 119.44 78.26 119.32 C76 119 76 119 73 118 C70.38 117.9 67.8 117.86 65.19 117.88 C64.49 117.87 63.79 117.87 63.07 117.86 C58.94 117.87 55.05 118.2 51 119 C51 119.66 51 120.32 51 121 C51.57 121.03 52.14 121.06 52.73 121.09 C60.16 121.65 66.99 123.47 74.12 125.56 C75.27 125.89 76.42 126.22 77.6 126.56 C80.4 127.37 83.2 128.18 86 129 C86 129.99 86 130.98 86 132 C79.8 131.33 74.09 129.64 68.12 127.88 C39.7 119.7 6.69 110.46 -23 111 C-23.26 111.61 -23.52 112.21 -23.79 112.83 C-29.43 125.94 -35.29 138.9 -41.5 151.75 C-41.8 152.38 -42.11 153.01 -42.42 153.65 C-48.57 166.41 -48.57 166.41 -51 170 C-51.66 170 -52.32 170 -53 170 C-52.38 165.85 -50.98 162.69 -49.04 158.99 C-48.4 157.77 -47.77 156.54 -47.14 155.32 C-46.8 154.67 -46.46 154.02 -46.12 153.35 C-30.56 123.25 -17.83 91.72 -6 60 C-5.76 59.36 -5.52 58.71 -5.27 58.05 C-2.19 49.81 0.85 41.56 3.82 33.28 C4.57 31.19 5.33 29.1 6.09 27.01 C7.01 24.47 7.92 21.93 8.81 19.38 C9.07 18.66 9.33 17.95 9.6 17.22 C10.53 14.5 11.14 12.57 10.43 9.73 C8.64 7.57 6.77 6.33 4.38 4.88 C1.9 3.37 1.9 3.37 0 2 C0 1.34 0 0.68 0 0 Z " fill="#010D0A" transform="translate(275,287)"/>
<path d="M0 0 C2.75 1.79 4.01 2.97 5.69 5.75 C6.69 12.07 6.35 18.36 3.09 23.94 C-0.27 28.28 -4.58 31.6 -9.12 34.62 C-12.35 37.76 -13.19 41.47 -14.31 45.75 C-17.78 46.25 -17.78 46.25 -21.31 46.75 C-21.95 40.1 -21.26 36.3 -17.3 30.88 C-14.43 27.8 -11.17 25.63 -7.58 23.45 C-4.4 21.06 -2.61 18.55 -1.95 14.58 C-1.9 10.2 -1.9 10.2 -4.31 6.75 C-7.67 6.75 -10.23 6.81 -12.85 9.09 C-14.6 11.18 -16.09 13.31 -17.31 15.75 C-19.29 15.42 -21.27 15.09 -23.31 14.75 C-23.93 12.96 -23.93 12.96 -24.31 10.75 C-18.95 1.23 -10.85 -4.1 0 0 Z " fill="#F8C069" transform="translate(394.3125,106.25)"/>
<path d="M0 0 C4.08 2.08 6.35 3.75 8 8 C8.88 14.4 9.19 20.28 5.19 25.62 C4.16 26.78 3.1 27.91 2 29 C1.48 29.54 0.96 30.09 0.43 30.64 C-2.79 33.7 -6.83 34.16 -11.06 34.88 C-15.18 35.65 -17.51 36.43 -20 40 C-20.33 40.99 -20.66 41.98 -21 43 C-23.34 42.74 -25.68 42.41 -28 42 C-28.33 41.34 -28.66 40.68 -29 40 C-26.81 34.57 -23.28 30.82 -18.25 27.95 C-15.01 26.58 -11.73 26.15 -8.27 25.59 C-4.81 24.69 -3.12 22.8 -1 20 C0.17 16.48 0.2 13.69 0 10 C-0.66 9.34 -1.32 8.68 -2 8 C-6.8 8.27 -10.06 9.25 -14 12 C-15.32 10.68 -16.64 9.36 -18 8 C-16.79 4.25 -14.49 2.57 -11.06 0.77 C-7.35 -0.61 -3.88 -0.71 0 0 Z " fill="#F8C069" transform="translate(430,119)"/>
<path d="M0 0 C0.66 0 1.32 0 2 0 C0.68 3.56 -0.89 6.58 -2.98 9.75 C-3.58 10.65 -4.18 11.56 -4.8 12.5 C-5.44 13.47 -6.09 14.44 -6.75 15.44 C-8.12 17.52 -9.49 19.6 -10.85 21.68 C-11.55 22.73 -12.24 23.79 -12.95 24.87 C-22.35 39.23 -31.4 53.8 -40.4 68.4 C-42 70.99 -43.6 73.59 -45.21 76.18 C-50.91 85.36 -56.57 94.57 -62.19 103.81 C-63.91 106.65 -65.64 109.49 -67.37 112.32 C-68.43 114.07 -69.5 115.82 -70.56 117.57 C-71.95 119.86 -73.35 122.15 -74.75 124.44 C-75.16 125.11 -75.56 125.79 -75.98 126.48 C-76.93 128.02 -77.96 129.52 -79 131 C-79.66 131 -80.32 131 -81 131 C-80.34 126.81 -78.09 123.45 -75.94 119.88 C-75.51 119.16 -75.08 118.44 -74.64 117.7 C-69.7 109.41 -64.62 101.2 -59.53 93 C-58.24 90.91 -56.95 88.81 -55.67 86.71 C-54.69 85.11 -53.67 83.53 -52.6 81.99 C-49.31 77.07 -49.85 73.41 -50.88 67.88 C-51.02 66.99 -51.16 66.1 -51.31 65.19 C-52.91 55.7 -54.94 46.27 -57.02 36.86 C-58.26 31.14 -59.39 25.86 -59 20 C-58.34 20.33 -57.68 20.66 -57 21 C-56.25 23.33 -55.63 25.6 -55.07 27.97 C-54.82 29.04 -54.82 29.04 -54.55 30.13 C-52.65 38.18 -51.22 46.3 -49.81 54.44 C-49.42 56.67 -49.03 58.91 -48.64 61.15 C-48.29 63.13 -47.94 65.12 -47.6 67.11 C-47.3 69.88 -47.3 69.88 -46 71 C-45.64 70.41 -45.29 69.82 -44.92 69.21 C-36.54 55.29 -27.97 41.54 -19 28 C-18.63 27.44 -18.26 26.89 -17.88 26.31 C-15.01 21.98 -12.13 17.64 -9.25 13.31 C-8.85 12.7 -8.44 12.1 -8.02 11.47 C-6.88 9.75 -5.73 8.02 -4.58 6.3 C-3.58 4.8 -3.58 4.8 -2.56 3.27 C-1 1 -1 1 0 0 Z " fill="#010C09" transform="translate(211,282)"/>
<path d="M0 0 C-0.33 4.95 -0.66 9.9 -1 15 C3.13 14.4 3.13 14.4 5.12 11.31 C6.87 8.23 8.03 5.4 9 2 C9.66 2 10.32 2 11 2 C10.56 7.46 9.35 10.67 6 15 C5.53 15.62 5.05 16.24 4.56 16.88 C2.31 18.5 0.71 18.35 -2 18 C-4 16 -4 16 -4.23 13.47 C-4.22 12.49 -4.2 11.51 -4.19 10.5 C-4.18 9.52 -4.17 8.54 -4.17 7.53 C-4 5 -4 5 -3 3 C-9.44 3.5 -9.44 3.5 -16 4 C-16.04 5.12 -16.07 6.25 -16.11 7.4 C-16.89 26.5 -16.89 26.5 -21.46 31.64 C-25.25 35 -25.25 35 -28 35 C-28.2 35.63 -28.41 36.25 -28.62 36.9 C-28.89 37.72 -29.16 38.53 -29.44 39.38 C-29.7 40.19 -29.97 41 -30.25 41.84 C-31 44 -31 44 -32 46 C-32.66 46 -33.32 46 -34 46 C-33.45 41.41 -32.5 37.91 -30 34 C-28.86 33.19 -27.69 32.42 -26.5 31.69 C-22.92 29.26 -21.7 27.16 -20.55 23.02 C-19.65 18.06 -19.11 13.05 -18.65 8.03 C-18.09 2.09 -18.09 2.09 -17 1 C-11.28 0.08 -5.79 -0.09 0 0 Z " fill="#19110C" transform="translate(297,237)"/>
<path d="M0 0 C-0.33 0.66 -0.66 1.32 -1 2 C-3.59 2.71 -3.59 2.71 -7.01 3.37 C-8.86 3.74 -8.86 3.74 -10.75 4.11 C-13.35 4.62 -15.96 5.12 -18.57 5.61 C-19.81 5.86 -21.05 6.11 -22.32 6.37 C-23.46 6.58 -24.59 6.8 -25.76 7.03 C-32.12 8.94 -35.82 12.26 -39 18 C-40.33 21.45 -40.33 21.45 -41.38 25.19 C-41.8 26.61 -42.22 28.03 -42.65 29.45 C-42.98 30.56 -42.98 30.56 -43.31 31.7 C-44.73 36.45 -46.26 41.17 -47.76 45.89 C-49.01 49.82 -50.23 53.76 -51.39 57.73 C-51.61 58.47 -51.83 59.21 -52.05 59.97 C-52.47 61.38 -52.87 62.78 -53.26 64.19 C-53.82 66.07 -53.82 66.07 -55 69 C-56.49 69.5 -56.49 69.5 -58 70 C-55.95 61.25 -53.42 52.73 -50.62 44.19 C-50.23 42.96 -49.83 41.73 -49.42 40.47 C-48.63 38.06 -47.84 35.65 -47.05 33.24 C-46.17 30.52 -45.3 27.79 -44.44 25.06 C-44.02 23.75 -43.61 22.44 -43.19 21.12 C-42.68 19.52 -42.68 19.52 -42.17 17.88 C-39.59 11.52 -36.58 8.01 -30.46 5.17 C-20.99 1.97 -10.02 -0.45 0 0 Z " fill="#20160F" transform="translate(280,196)"/>
<path d="M0 0 C6.07 1.08 9.44 5.8 12.87 10.63 C22.74 25.87 29.39 42.87 25.49 61.42 C25.25 62.2 25.25 62.2 25 63 C24.34 63 23.68 63 23 63 C22.99 62.37 22.97 61.73 22.96 61.08 C22.37 38.47 19.63 21.69 3 5 C2.42 4.46 1.83 3.91 1.23 3.35 C0 2 0 2 0 0 Z " fill="#1D0D0C" transform="translate(298,50)"/>
<path d="M0 0 C-1.47 3.67 -3.36 5.19 -6.56 7.44 C-18.75 16.93 -25.99 31.83 -28 47 C-28.4 50.66 -28.73 54.32 -29 58 C-29.66 58 -30.32 58 -31 58 C-31.65 46.92 -30.67 38.29 -26 28 C-25.58 27.04 -25.15 26.09 -24.72 25.11 C-20.93 17.4 -9.66 0 0 0 Z " fill="#130808" transform="translate(213,50)"/>
<path d="M0 0 C-1.03 2.88 -1.77 3.87 -4.47 5.41 C-19.29 11.33 -35.17 14.06 -50.46 8.16 C-53.8 6.63 -56.9 4.97 -60 3 C-60 2.34 -60 1.68 -60 1 C-56.94 1.68 -54.2 2.71 -51.31 3.94 C-36.31 9.94 -22.79 9.08 -8 3 C-6.91 2.45 -5.81 1.9 -4.69 1.33 C-2 0 -2 0 0 0 Z " fill="#18100B" transform="translate(281,187)"/>
<path d="M0 0 C2.93 0.37 3.86 0.86 6 3 C5.98 5.16 5.98 5.16 5.62 7.62 C5.51 8.44 5.4 9.26 5.29 10.1 C5.19 10.73 5.1 11.35 5 12 C2.62 12.62 2.62 12.62 0 13 C-2 11 -2 11 -2.27 8.91 C-2.26 7.72 -2.26 7.72 -2.25 6.5 C-2.26 5.71 -2.26 4.91 -2.27 4.09 C-2 2 -2 2 0 0 Z " fill="#0C0805" transform="translate(271,117)"/>
<path d="M0 0 C1.88 0.75 1.88 0.75 2.88 1.75 C3.24 9.21 3.24 9.21 0.88 12.75 C-1.99 12.18 -2.99 11.89 -5.12 9.75 C-5.68 3.64 -5.68 3.64 -3.88 0.75 C-2.12 -0.25 -2.12 -0.25 0 0 Z " fill="#0B0705" transform="translate(231.125,117.25)"/>
<path d="M0 0 C0 1.65 0 3.3 0 5 C-3.66 6.04 -7.32 7.03 -11 8 C-11.82 8.22 -12.65 8.45 -13.5 8.68 C-20.46 10.35 -26.93 9.82 -34 9 C-34 8.67 -34 8.34 -34 8 C-32.91 7.9 -31.82 7.8 -30.7 7.7 C-20.75 6.72 -9.01 0 0 0 Z " fill="#D48F67" transform="translate(280,190)"/>
<path d="M0 0 C0.7 -0 1.39 -0.01 2.11 -0.01 C5.47 -0 8.54 0.08 11.75 1.12 C11.75 1.78 11.75 2.44 11.75 3.12 C2.51 3.12 -6.73 3.12 -16.25 3.12 C-16.25 2.47 -16.25 1.81 -16.25 1.12 C-10.83 0.22 -5.49 0.01 0 0 Z " fill="#251812" transform="translate(296.25,221.875)"/>
<path d="M0 0 C0.8 0.01 1.6 0.02 2.42 0.03 C3.03 0.04 3.63 0.05 4.25 0.06 C4.25 0.72 4.25 1.38 4.25 2.06 C2.91 2.3 2.91 2.3 1.54 2.54 C-5.5 3.9 -11.51 5.51 -17.76 9.07 C-19.75 10.06 -19.75 10.06 -22.75 10.06 C-22.75 9.4 -22.75 8.74 -22.75 8.06 C-20.5 6.91 -18.25 5.77 -16 4.62 C-15.05 4.14 -15.05 4.14 -14.08 3.64 C-9.11 1.13 -5.53 -0.08 0 0 Z " fill="#010B08" transform="translate(137.75,381.9375)"/>
<path d="M0 0 C4.8 0.42 7.8 2.57 11 6 C19 16.66 19 16.66 19 22 C16 21 16 21 14.89 18.96 C14.36 17.68 14.36 17.68 13.81 16.38 C10.68 9.73 6.01 6.01 0 2 C0 1.34 0 0.68 0 0 Z " fill="#010E0A" transform="translate(126,265)"/>
<path d="M0 0 C0.66 0 1.32 0 2 0 C1.49 4.22 -0.89 6.32 -3.75 9.31 C-6.73 12.49 -9.55 15.58 -12 19.19 C-12.66 20.12 -13.32 21.04 -14 22 C-14.66 22 -15.32 22 -16 22 C-15.43 17.99 -13.38 15.73 -10.81 12.69 C-10 11.73 -9.19 10.76 -8.36 9.77 C-7.58 8.86 -6.8 7.94 -6 7 C-5.39 6.25 -4.77 5.5 -4.14 4.73 C-2.81 3.11 -1.41 1.55 0 0 Z " fill="#130908" transform="translate(206,94)"/>
<path d="M0 0 C0 0.66 0 1.32 0 2 C-9.32 3.13 -18.64 4.23 -28 5 C-28 4.34 -28 3.68 -28 3 C-18.79 -0.45 -9.71 -0.12 0 0 Z " fill="#241811" transform="translate(301,211)"/>
<path d="M0 0 C-1.32 2.95 -2.7 4.88 -5.06 7.06 C-9.15 11 -12.59 15.37 -16.08 19.84 C-17.03 20.91 -17.03 20.91 -18 22 C-18.66 22 -19.32 22 -20 22 C-18.5 17.06 -15.61 14.07 -12.12 10.44 C-11.33 9.59 -11.33 9.59 -10.52 8.73 C-9.02 7.14 -7.51 5.57 -6 4 C-5.25 3.21 -4.51 2.41 -3.74 1.6 C-2 0 -2 0 0 0 Z " fill="#000705" transform="translate(376,286)"/>
<path d="M0 0 C-0.33 0.66 -0.66 1.32 -1 2 C-3.08 2.49 -3.08 2.49 -5.81 2.88 C-11.3 3.77 -16.34 5.33 -21.57 7.2 C-24 8 -24 8 -26 8 C-26 7.01 -26 6.02 -26 5 C-17.19 1.67 -9.58 -0.9 0 0 Z " fill="#1E140E" transform="translate(292,202)"/>
<path d="M0 0 C6.04 0.59 10.78 2.57 14.94 7.12 C16 9 16 9 16 11 C13.53 9.9 11.75 8.78 9.69 7 C6.44 4.58 3.91 3.92 0 3 C0 2.01 0 1.02 0 0 Z " fill="#19110C" transform="translate(237,155)"/>
<path d="M0 0 C4 1 4 1 6.25 4.19 C8.03 7.54 8.37 10.18 8 14 C6 13 4 12 2 11 C2 10.34 2 9.68 2 9 C2.99 9 3.98 9 5 9 C3.35 6.03 1.7 3.06 0 0 Z " fill="#160E0A" transform="translate(182,129)"/>
<path d="M0 0 C9.68 0.21 9.68 0.21 13.62 3.44 C16 6 16 6 16 8 C15.01 8 14.02 8 13 8 C13 7.34 13 6.68 13 6 C8.67 4.42 4.57 3.55 0 3 C0 2.01 0 1.02 0 0 Z " fill="#251912" transform="translate(272,92)"/>
<path d="M0 0 C2.62 0.38 2.62 0.38 5 1 C5.04 2.67 5.04 4.33 5 6 C4 7 4 7 1.44 7.06 C0.23 7.03 0.23 7.03 -1 7 C-1.62 4.62 -1.62 4.62 -2 2 C-1.34 1.34 -0.68 0.68 0 0 Z " fill="#F8C16C" transform="translate(391,172)"/>
<path d="M0 0 C2.62 0.38 2.62 0.38 5 1 C5.04 2.67 5.04 4.33 5 6 C4 7 4 7 1.44 7.06 C0.23 7.03 0.23 7.03 -1 7 C-1.62 4.62 -1.62 4.62 -2 2 C-1.34 1.34 -0.68 0.68 0 0 Z " fill="#F8C16D" transform="translate(372,162)"/>
<path d="M0 0 C-1.2 2.49 -2.45 4.68 -4 7 C-3.67 7.99 -3.34 8.98 -3 10 C-4.65 10.66 -6.3 11.32 -8 12 C-8.51 9.17 -8.34 7.51 -6.73 5.11 C-2.46 0 -2.46 0 0 0 Z " fill="#17100B" transform="translate(317,130)"/>
<path d="M0 0 C0 1.65 0 3.3 0 5 C-4.45 5.5 -4.45 5.5 -9 6 C-3.4 0 -3.4 0 0 0 Z " fill="#F7A678" transform="translate(280,190)"/>
<path d="M0 0 C0.66 0 1.32 0 2 0 C1.26 7.74 1.26 7.74 -2 11 C-2.66 11 -3.32 11 -4 11 C-3.71 10.3 -3.42 9.6 -3.12 8.88 C-1.98 5.95 -0.97 2.99 0 0 Z " fill="#1F140F" transform="translate(306,239)"/>
<path d="M0 0 C-0.33 0.99 -0.66 1.98 -1 3 C-2.85 3.73 -2.85 3.73 -5.06 4.19 C-5.8 4.35 -6.53 4.5 -7.29 4.67 C-8.13 4.83 -8.13 4.83 -9 5 C-9 4.01 -9 3.02 -9 2 C-5.56 -0.29 -4.01 -0.18 0 0 Z " fill="#1B0C0B" transform="translate(284,28)"/>
<path d="M0 0 C3.34 1.17 5.77 2.19 8 5 C8 5.66 8 6.32 8 7 C5.33 5.67 2.67 4.33 0 3 C0 2.01 0 1.02 0 0 Z " fill="#160A09" transform="translate(260,22)"/>
</svg>
