<?xml version="1.0" encoding="UTF-8"?>
<!-- Generator: visioncortex VTracer 0.6.3 -->
<svg version="1.1" xmlns="http://www.w3.org/2000/svg" width="216" height="233">
<path d="M0 0 C71.28 0 142.56 0 216 0 C216 76.89 216 153.78 216 233 C144.72 233 73.44 233 0 233 C0 156.11 0 79.22 0 0 Z " fill="#FDFDFD" transform="translate(0,0)"/>
<path d="M0 0 C71.28 0 142.56 0 216 0 C216 5.61 216 11.22 216 17 C144.72 17 73.44 17 0 17 C0 11.39 0 5.78 0 0 Z " fill="#111223" transform="translate(0,216)"/>
<path d="M0 0 C3.7 1.49 6.86 3.57 10.16 5.8 C11.66 6.79 13.16 7.78 14.66 8.77 C15.46 9.3 16.25 9.83 17.07 10.37 C21.55 13.34 26.08 16.25 30.6 19.17 C32.31 20.28 34.02 21.38 35.72 22.49 C36.81 23.2 36.81 23.2 37.92 23.91 C39.6 25.05 39.6 25.05 40.6 26.05 C40.67 28.91 40.69 31.75 40.66 34.61 C40.66 35.42 40.65 36.22 40.65 37.05 C40.63 39.05 40.62 41.05 40.6 43.05 C39.58 43.16 38.57 43.27 37.53 43.38 C36.18 43.54 34.82 43.7 33.47 43.86 C32.81 43.93 32.14 44 31.46 44.07 C26.23 44.71 22.24 46.16 17.96 49.22 C15.88 52.01 16.16 54.46 16.09 57.9 C16.07 58.56 16.05 59.23 16.03 59.91 C15.98 62.02 15.94 64.12 15.91 66.23 C15.88 67.67 15.84 69.1 15.81 70.53 C15.72 74.03 15.65 77.54 15.6 81.05 C11.97 81.05 8.34 81.05 4.6 81.05 C4.6 68.18 4.6 55.31 4.6 42.05 C-6.62 42.05 -17.84 42.05 -29.4 42.05 C-29.4 54.92 -29.4 67.79 -29.4 81.05 C-33.69 81.05 -37.98 81.05 -42.4 81.05 C-44.05 79.4 -43.61 77.45 -43.67 75.18 C-43.71 74.14 -43.74 73.1 -43.77 72.03 C-43.88 67.26 -43.97 62.49 -44.03 57.71 C-44.07 55.2 -44.13 52.68 -44.21 50.16 C-44.33 46.54 -44.38 42.92 -44.41 39.29 C-44.49 37.61 -44.49 37.61 -44.56 35.89 C-44.54 28.24 -44.54 28.24 -41.33 24.87 C-38.76 23.06 -36.17 21.53 -33.4 20.05 C-32.3 19.32 -31.2 18.59 -30.07 17.85 C-29.11 17.24 -28.15 16.63 -27.17 16 C-26.1 15.32 -25.03 14.64 -23.93 13.94 C-22.85 13.25 -21.77 12.57 -20.65 11.86 C-18.47 10.47 -16.29 9.08 -14.11 7.69 C-13.15 7.09 -12.2 6.48 -11.22 5.86 C-9.19 4.55 -7.18 3.2 -5.2 1.82 C-2.4 0.05 -2.4 0.05 0 0 Z " fill="#373948" transform="translate(103.40234375,52.953125)"/>
<path d="M0 0 C2.04 1.04 2.04 1.04 4.05 2.34 C4.8 2.82 5.56 3.3 6.33 3.8 C7.13 4.32 7.93 4.84 8.75 5.38 C9.58 5.91 10.42 6.45 11.27 7 C13.85 8.66 16.43 10.33 19 12 C21.32 13.49 23.63 14.98 25.95 16.47 C28.07 17.84 30.18 19.22 32.29 20.61 C34.52 22.07 36.73 23.4 39.06 24.7 C43.27 27.09 43.27 27.09 45 29 C45.71 32.14 45.57 34.85 45 38 C42.15 37.4 39.96 36.55 37.48 35.02 C36.46 34.4 36.46 34.4 35.41 33.76 C34.68 33.3 33.94 32.85 33.19 32.38 C32.42 31.9 31.64 31.43 30.85 30.94 C26.14 28.02 21.49 25.02 16.88 21.97 C15.85 21.29 14.82 20.61 13.76 19.91 C11.74 18.57 9.72 17.22 7.71 15.86 C6.78 15.25 5.85 14.63 4.89 13.99 C4.06 13.44 3.24 12.89 2.39 12.32 C-0.21 10.89 -2.04 10.18 -5 10 C-7.41 10.95 -7.41 10.95 -9.7 12.58 C-10.59 13.16 -11.48 13.74 -12.4 14.33 C-13.34 14.97 -14.28 15.6 -15.25 16.25 C-16.22 16.89 -17.19 17.52 -18.19 18.18 C-20.18 19.48 -22.16 20.79 -24.14 22.1 C-27.53 24.35 -30.95 26.57 -34.37 28.77 C-35.79 29.69 -37.21 30.61 -38.63 31.53 C-39.87 32.34 -41.11 33.14 -42.36 33.94 C-43.84 34.9 -45.31 35.88 -46.78 36.86 C-47.51 37.24 -48.24 37.61 -49 38 C-49.99 37.67 -50.98 37.34 -52 37 C-52.52 33.83 -52.8 32.04 -52 29 C-49.27 26.18 -45.96 24.42 -42.56 22.5 C-40.55 21.3 -38.55 20.1 -36.54 18.9 C-35.48 18.28 -34.42 17.65 -33.32 17.01 C-29.87 14.92 -26.5 12.74 -23.15 10.5 C-22.02 9.76 -20.89 9.01 -19.76 8.26 C-17.57 6.81 -15.39 5.36 -13.22 3.89 C-12.21 3.24 -11.21 2.58 -10.18 1.91 C-9.3 1.32 -8.42 0.74 -7.51 0.13 C-4.44 -1.25 -3.16 -1.08 0 0 Z " fill="#363848" transform="translate(106,38)"/>
<path d="M0 0 C7.92 0 15.84 0 24 0 C24 11.22 24 22.44 24 34 C16.08 34 8.16 34 0 34 C0 22.78 0 11.56 0 0 Z " fill="#383A49" transform="translate(79,100)"/>
<path d="M0 0 C0.56 0.47 1.13 0.94 1.71 1.43 C1.21 3.24 1.21 3.24 -0.29 5.43 C-6.29 8.2 -11.29 8.9 -17.85 8.8 C-19.07 8.82 -19.07 8.82 -20.31 8.84 C-25.7 8.81 -29.53 7.99 -34.29 5.43 C-35.73 3.24 -35.73 3.24 -36.29 1.43 C-27.86 -5.6 -9.12 -6.27 0 0 Z " fill="#373948" transform="translate(160.2890625,104.57421875)"/>
<path d="M0 0 C2.81 1.79 4.51 3.02 6 6 C6.42 9.06 6.49 11.95 6 15 C3.82 17.76 2.13 19.44 -1 21 C-5.08 21.38 -7.29 21.44 -10.81 19.25 C-14.34 15.62 -15 14.24 -15 9.06 C-14.44 5.62 -13.86 4.83 -11.44 2 C-6.96 -0.6 -5.11 -0.73 0 0 Z " fill="#F3F3F4" transform="translate(107,63)"/>
<path d="M0 0 C0.57 0.14 1.15 0.29 1.74 0.44 C8.08 1.82 14.22 2.22 20.69 2.25 C21.88 2.26 21.88 2.26 23.1 2.28 C28.38 2.25 32.93 1.46 38 0 C37.68 1.89 37.68 1.89 37 4 C31.28 7.41 25.98 7.43 19.44 7.31 C18.52 7.32 17.6 7.32 16.65 7.32 C10.27 7.27 5.42 6.61 0 3 C0 2.01 0 1.02 0 0 Z " fill="#3B3D4D" transform="translate(124,115)"/>
<path d="M0 0 C0.54 0.14 1.08 0.28 1.64 0.43 C7.32 1.82 12.6 2.32 18.44 2.25 C19.68 2.24 19.68 2.24 20.94 2.24 C26.84 2.15 32.27 1.5 38 0 C37.71 1.89 37.71 1.89 37 4 C30.85 7.11 25.3 7.49 18.5 7.44 C17.6 7.46 16.7 7.48 15.78 7.5 C9.45 7.49 5.45 6.22 0 3 C0 2.01 0 1.02 0 0 Z " fill="#363847" transform="translate(124,134)"/>
<path d="M0 0 C0.95 0.32 0.95 0.32 1.91 0.66 C12.61 3.99 23.23 4.09 34 1 C35.33 0.66 36.67 0.33 38 0 C37.64 2.37 37.39 3.65 35.57 5.27 C30.07 7.97 24.96 8.39 18.94 8.44 C17.8 8.45 17.8 8.45 16.65 8.47 C10.59 8.38 4.45 7.45 0 3 C0 2.01 0 1.02 0 0 Z " fill="#383A4A" transform="translate(124,124)"/>
<path d="M0 0 C0.66 0 1.32 0 2 0 C2.33 0.66 2.66 1.32 3 2 C3.66 1.34 4.32 0.68 5 0 C6.34 0.31 7.67 0.65 9 1 C10.34 0.69 11.67 0.35 13 0 C13.66 0.33 14.32 0.66 15 1 C17.04 0.91 19.09 0.76 21.12 0.56 C22.22 0.46 23.32 0.36 24.45 0.25 C25.29 0.17 26.13 0.09 27 0 C27 1.65 27 3.3 27 5 C25.02 5.33 23.04 5.66 21 6 C21.33 5.01 21.66 4.02 22 3 C21.34 2.67 20.68 2.34 20 2 C20 2.99 20 3.98 20 5 C17.69 5.33 15.38 5.66 13 6 C12.67 4.68 12.34 3.36 12 2 C11.34 2 10.68 2 10 2 C9.67 2.99 9.34 3.98 9 5 C8.01 5 7.02 5 6 5 C4.66 5.31 3.32 5.63 2 6 C1.34 4.02 0.68 2.04 0 0 Z " fill="#76767F" transform="translate(6,222)"/>
<path d="M0 0 C6.58 0.58 6.58 0.58 8 2 C8.45 7.22 8.45 7.22 6.88 9.94 C4.05 11.54 2.05 10.8 -1 10 C-2 9 -2 9 -2.19 5.56 C-2 2 -2 2 0 0 Z " fill="#393B4A" transform="translate(100,68)"/>
<path d="M0 0 C1.49 0.01 2.98 0.02 4.46 0.04 C5.22 0.04 5.98 0.04 6.76 0.05 C8.64 0.06 10.52 0.08 12.4 0.1 C12.4 1.09 12.4 2.08 12.4 3.1 C11.33 3.08 10.26 3.06 9.15 3.04 C5.67 2.95 5.67 2.95 3.46 3.6 C0.14 4.4 -3.2 4.16 -6.6 4.1 C-7.92 4.1 -9.24 4.1 -10.6 4.1 C-11.94 3.8 -13.28 3.48 -14.6 3.1 C-14.6 2.44 -14.6 1.78 -14.6 1.1 C-13.89 1.11 -13.18 1.12 -12.45 1.13 C-11.53 1.14 -10.61 1.15 -9.66 1.16 C-8.29 1.18 -8.29 1.18 -6.88 1.2 C-3.65 1.06 -3.72 0.1 0 0 Z " fill="#6D6D76" transform="translate(194.59765625,223.90234375)"/>
<path d="M0 0 C3.63 0 7.26 0 11 0 C10.34 0.66 9.68 1.32 9 2 C9.66 2.33 10.32 2.66 11 3 C10.67 4.32 10.34 5.64 10 7 C6.37 6.67 2.74 6.34 -1 6 C-0.01 5.34 0.98 4.68 2 4 C1.01 3.67 0.02 3.34 -1 3 C-0.67 2.01 -0.34 1.02 0 0 Z " fill="#888992" transform="translate(101,161)"/>
<path d="M0 0 C-0.26 1.89 -0.26 1.89 -1 4 C-2.74 5.05 -2.74 5.05 -4.88 5.75 C-5.57 5.99 -6.27 6.23 -6.99 6.48 C-9 7 -9 7 -12 7 C-12 6.34 -12 5.68 -12 5 C-11.01 5 -10.02 5 -9 5 C-9.33 4.01 -9.66 3.02 -10 2 C-8.71 1.66 -7.42 1.33 -6.12 1 C-5.41 0.81 -4.69 0.63 -3.95 0.44 C-2 0 -2 0 0 0 Z " fill="#3E3F4F" transform="translate(162,134)"/>
<path d="M0 0 C8.57 -0.14 8.57 -0.14 12 1 C12 1.66 12 2.32 12 3 C9.01 4.49 6.3 4.12 3 4 C2.01 3.67 1.02 3.34 0 3 C0 2.01 0 1.02 0 0 Z " fill="#63646E" transform="translate(156,224)"/>
<path d="M0 0 C1.06 1.88 1.06 1.88 2 4 C1.67 4.66 1.34 5.32 1 6 C-1.64 6 -4.28 6 -7 6 C-7.33 4.68 -7.66 3.36 -8 2 C-7.67 2.66 -7.34 3.32 -7 4 C-6.34 4 -5.68 4 -5 4 C-5 3.34 -5 2.68 -5 2 C-3.35 1.34 -1.7 0.68 0 0 Z " fill="#8D8D93" transform="translate(42,222)"/>
<path d="M0 0 C0.66 0 1.32 0 2 0 C2.99 2.97 3.98 5.94 5 9 C4.05 8.81 3.1 8.63 2.12 8.44 C-0.9 7.71 -0.9 7.71 -3 9 C-2.01 6.03 -1.02 3.06 0 0 Z " fill="#6A6C78" transform="translate(94,158)"/>
<path d="M0 0 C2.05 0.03 4.1 0.07 6.15 0.1 C4.67 2.08 4.67 2.08 3.15 4.1 C4.14 4.43 5.13 4.76 6.15 5.1 C3.51 5.1 0.87 5.1 -1.85 5.1 C-2.41 3.16 -2.41 3.16 -2.85 1.1 C-1.85 0.1 -1.85 0.1 0 0 Z " fill="#C3C3C3" transform="translate(127.84765625,177.90234375)"/>
<path d="M0 0 C1.32 0 2.64 0 4 0 C4 0.66 4 1.32 4 2 C5.14 1.5 5.14 1.5 6.31 1 C9 0 9 0 12 0 C11.67 0.99 11.34 1.98 11 3 C10.01 3 9.02 3 8 3 C8.33 3.66 8.66 4.32 9 5 C7.02 5 5.04 5 3 5 C3 3.68 3 2.36 3 1 C2.34 1 1.68 1 1 1 C0.67 2.32 0.34 3.64 0 5 C0 3.35 0 1.7 0 0 Z " fill="#C0C0C0" transform="translate(107,178)"/>
<path d="M0 0 C1.98 0 3.96 0 6 0 C6.33 1.32 6.66 2.64 7 4 C6.36 4.12 5.72 4.25 5.06 4.38 C4.04 4.68 4.04 4.68 3 5 C2.67 5.66 2.34 6.32 2 7 C2 5.68 2 4.36 2 3 C1.34 3 0.68 3 0 3 C0 2.01 0 1.02 0 0 Z " fill="#C7C7C7" transform="translate(65,178)"/>
<path d="M0 0 C1.98 0 3.96 0 6 0 C6 1.32 6 2.64 6 4 C6.66 4 7.32 4 8 4 C8.33 2.68 8.66 1.36 9 0 C9 1.65 9 3.3 9 5 C7.35 4.67 5.7 4.34 4 4 C4 3.34 4 2.68 4 2 C3.01 2.33 2.02 2.66 1 3 C1.66 3.66 2.32 4.32 3 5 C1.68 4.67 0.36 4.34 -1 4 C-0.67 2.68 -0.34 1.36 0 0 Z " fill="#BABABA" transform="translate(83,178)"/>
<path d="M0 0 C1.98 0 3.96 0 6 0 C6.33 1.65 6.66 3.3 7 5 C5.68 5 4.36 5 3 5 C3 3.68 3 2.36 3 1 C2.34 1 1.68 1 1 1 C0.67 2.32 0.34 3.64 0 5 C0 3.35 0 1.7 0 0 Z " fill="#B9B9BA" transform="translate(153,178)"/>
<path d="M0 0 C1.65 0.33 3.3 0.66 5 1 C5 1.99 5 2.98 5 4 C3.02 4.33 1.04 4.66 -1 5 C-0.67 3.35 -0.34 1.7 0 0 Z " fill="#7D7E88" transform="translate(115,161)"/>
<path d="M0 0 C1.98 0.5 1.98 0.5 4 1 C3.67 2.32 3.34 3.64 3 5 C1.68 4.67 0.36 4.34 -1 4 C-0.67 2.68 -0.34 1.36 0 0 Z " fill="#C8C8C8" transform="translate(136,178)"/>
<path d="M0 0 C1.98 0.5 1.98 0.5 4 1 C3.67 2.32 3.34 3.64 3 5 C1.68 4.67 0.36 4.34 -1 4 C-0.67 2.68 -0.34 1.36 0 0 Z " fill="#BEBEBE" transform="translate(102,178)"/>
</svg>
