<?xml version="1.0" encoding="UTF-8"?>
<!-- Generator: visioncortex VTracer 0.6.3 -->
<svg version="1.1" xmlns="http://www.w3.org/2000/svg" width="512" height="512">
<path d="M0 0 C1.1 0.22 2.2 0.44 3.33 0.67 C6.81 1.39 10.28 2.15 13.75 2.94 C14.82 3.18 15.89 3.42 16.99 3.67 C18.47 4.03 18.47 4.03 19.98 4.4 C20.86 4.61 21.73 4.82 22.63 5.04 C25.52 6.21 27.04 7.58 29 10 C29.25 13.25 29.25 13.25 29 16 C35.97 17.99 35.97 17.99 43 17 C44.49 16.01 44.49 16.01 46 15 C53.09 15.14 58.59 17.77 64.88 20.88 C65.88 21.37 66.89 21.86 67.93 22.36 C90.05 33.32 110.12 47.56 128.14 64.39 C130.12 66.19 132.08 67.91 134.15 69.6 C136.46 71.55 138.38 73.39 140.31 75.69 C142.87 78.7 145.5 81.61 148.19 84.5 C178.05 117.76 197.39 159.87 206.31 203.44 C206.46 204.16 206.61 204.88 206.76 205.62 C209.73 221.26 210.37 236.74 210.31 252.62 C210.31 253.64 210.31 254.66 210.31 255.71 C210.26 270.33 209.94 284.63 207 299 C206.81 300 206.61 300.99 206.41 302.02 C198.3 343.11 180.93 380.2 155 413 C154.19 414.04 153.38 415.08 152.54 416.14 C139.87 431.71 125.32 446.3 109 458 C107.65 458.99 106.31 459.98 104.96 460.97 C73.66 483.77 38.1 498.99 0 506 C-0.8 506.16 -1.6 506.32 -2.43 506.49 C-30.49 511.98 -64 511.75 -92 506 C-93.01 505.8 -94.03 505.6 -95.07 505.4 C-136.16 497.18 -173.1 479.74 -206 454 C-206.54 453.58 -207.08 453.16 -207.63 452.73 C-223.87 439.97 -238.94 424.78 -251 408 C-251.86 406.83 -252.73 405.66 -253.59 404.49 C-268.74 383.87 -280.82 361.26 -289 337 C-289.41 335.78 -289.41 335.78 -289.83 334.53 C-293.07 324.76 -295.6 314.88 -297.75 304.81 C-297.95 303.89 -298.15 302.96 -298.35 302.01 C-301.64 285.8 -302.38 269.87 -302.31 253.38 C-302.31 252.36 -302.31 251.34 -302.31 250.29 C-302.26 235.67 -301.94 221.37 -299 207 C-298.71 205.51 -298.71 205.51 -298.41 203.98 C-290.79 165.37 -275.07 129.22 -251 98 C-250.04 96.75 -250.04 96.75 -249.05 95.47 C-234.97 77.54 -218.62 60.25 -200 47 C-199.38 46.55 -198.76 46.11 -198.13 45.65 C-166.3 22.76 -130.61 7.09 -92 0 C-91.19 -0.16 -90.39 -0.32 -89.56 -0.49 C-61.43 -5.95 -28.07 -5.63 0 0 Z " fill="#FDDD57" transform="translate(302,3)"/>
<path d="M0 0 C2.43 0.02 4.87 0.02 7.3 0.02 C19.53 0.05 31.14 0.81 43.11 3.46 C44.11 3.67 45.11 3.89 46.14 4.11 C53.66 5.82 60.69 8.03 67.74 11.21 C67.74 11.87 67.74 12.53 67.74 13.21 C68.42 13.29 69.1 13.37 69.81 13.46 C73.5 14.4 76.46 16.16 79.68 18.14 C80.66 18.74 80.66 18.74 81.66 19.35 C91.94 25.72 101.46 32.61 110.28 40.9 C112.47 42.95 114.7 44.9 116.99 46.83 C125.19 54.01 125.19 54.01 127.74 58.21 C127.32 61.54 126.14 63.18 123.78 65.51 C123.16 66.13 122.54 66.75 121.9 67.39 C121.23 68.04 120.55 68.7 119.86 69.38 C119.17 70.06 118.49 70.74 117.78 71.45 C115.59 73.62 113.38 75.79 111.18 77.96 C109.69 79.43 108.2 80.91 106.71 82.38 C103.06 86 99.4 89.6 95.74 93.21 C91.91 91.47 90.45 89.67 88.11 86.14 C83.53 79.62 77.97 72.97 70.47 69.84 C67.08 66.57 67.29 65.39 67.11 60.79 C67.1 58.2 67.13 55.61 67.18 53.02 C67.35 42.83 67.26 35.13 60.06 27.4 C54.91 22.45 48.44 19.06 41.24 18.77 C34.01 19.13 27.33 21.61 21.74 26.21 C15.82 32.97 13.5 38.62 13.11 47.52 C13.08 48.26 13.04 49 13 49.76 C12.9 51.58 12.82 53.39 12.74 55.21 C9.44 55.21 6.14 55.21 2.74 55.21 C2.7 53.76 2.7 53.76 2.66 52.28 C2.23 42.42 1.65 33.59 -5.82 26.33 C-11.98 21.49 -19.94 18.28 -27.87 18.69 C-35.39 20.3 -42.25 24.21 -47.08 30.2 C-50.55 36.08 -51.73 40.91 -51.95 47.64 C-51.98 48.37 -52.02 49.11 -52.05 49.86 C-52.13 51.64 -52.2 53.42 -52.26 55.21 C-52.85 55.22 -53.44 55.23 -54.04 55.25 C-56.76 55.33 -59.48 55.42 -62.2 55.52 C-63.12 55.54 -64.05 55.56 -65 55.59 C-74.96 55.97 -82.06 58.05 -89.31 65.05 C-95.11 71.45 -95.93 77.13 -95.63 85.74 C-94.69 94.5 -91.52 100 -84.71 105.58 C-81.08 107.99 -77.47 109.23 -73.26 110.21 C-71.93 110.54 -70.59 110.87 -69.26 111.21 C-69.26 111.78 -69.26 112.35 -69.25 112.94 C-69.19 126.9 -69.12 140.85 -69.02 154.81 C-68.98 161.56 -68.94 168.3 -68.91 175.05 C-68.89 181.56 -68.85 188.07 -68.8 194.58 C-68.78 197.07 -68.77 199.55 -68.76 202.04 C-68.75 205.52 -68.72 208.99 -68.69 212.47 C-68.69 213.5 -68.7 214.54 -68.7 215.6 C-68.68 216.55 -68.67 217.5 -68.66 218.47 C-68.65 219.3 -68.65 220.12 -68.64 220.96 C-68.16 223.79 -67.25 225.16 -65.26 227.21 C-61.76 227.87 -61.76 227.87 -58.26 227.21 C-55.36 224.28 -54.88 222.12 -54.88 218.08 C-54.87 217.04 -54.86 216 -54.85 214.94 C-54.86 213.8 -54.87 212.67 -54.87 211.51 C-54.87 210.31 -54.86 209.12 -54.86 207.89 C-54.84 204.61 -54.85 201.34 -54.86 198.06 C-54.86 194.63 -54.86 191.21 -54.85 187.78 C-54.85 182.03 -54.85 176.27 -54.87 170.52 C-54.89 163.86 -54.88 157.21 -54.86 150.56 C-54.85 144.84 -54.85 139.13 -54.86 133.42 C-54.86 130 -54.86 126.59 -54.85 123.18 C-54.84 119.38 -54.86 115.58 -54.87 111.77 C-54.87 110.64 -54.86 109.51 -54.85 108.34 C-54.86 107.31 -54.87 106.27 -54.88 105.21 C-54.88 104.31 -54.88 103.41 -54.88 102.48 C-55.34 99.72 -56.01 98.83 -58.26 97.21 C-61.48 96.77 -61.48 96.77 -65.07 96.77 C-74.19 96.28 -74.19 96.28 -78.26 92.21 C-81.39 87.86 -81.63 84.45 -80.84 79.32 C-79.81 75.55 -77.8 73.21 -74.56 71.09 C-71.38 69.87 -68.6 69.95 -65.19 69.93 C-63.81 69.91 -62.42 69.89 -61.04 69.87 C-58.86 69.85 -56.69 69.83 -54.51 69.82 C-52.4 69.82 -50.3 69.78 -48.19 69.74 C-46.94 69.74 -45.68 69.73 -44.38 69.72 C-41.23 69.49 -41.23 69.49 -39.35 67.5 C-38.07 64.81 -37.88 62.94 -37.85 59.96 C-37.82 58.46 -37.82 58.46 -37.79 56.92 C-37.78 55.88 -37.77 54.84 -37.76 53.77 C-37.65 41.08 -37.65 41.08 -34.26 37.21 C-31.36 34.46 -29.36 33.77 -25.39 33.77 C-20.63 33.92 -17.83 34.9 -14.26 38.21 C-12.56 41.68 -12.01 44.52 -11.95 48.37 C-11.93 49.32 -11.9 50.28 -11.88 51.27 C-11.84 53.27 -11.81 55.28 -11.78 57.28 C-11.74 58.71 -11.74 58.71 -11.7 60.18 C-11.68 61.48 -11.68 61.48 -11.66 62.81 C-11.15 65.85 -10.57 67.14 -8.26 69.21 C-4.92 69.83 -4.92 69.83 -1.07 69.74 C-0.37 69.74 0.33 69.74 1.05 69.75 C2.52 69.75 4 69.74 5.47 69.73 C7.73 69.71 9.99 69.73 12.25 69.75 C13.68 69.75 15.12 69.74 16.55 69.74 C17.86 69.73 19.16 69.73 20.51 69.72 C23.76 69.5 23.76 69.5 25.66 67.5 C26.93 64.81 27.12 62.93 27.15 59.96 C27.18 58.46 27.18 58.46 27.21 56.92 C27.22 55.88 27.23 54.84 27.24 53.77 C27.35 41.21 27.35 41.21 30.74 37.21 C34.43 34.05 37.82 33.69 42.52 33.85 C45.97 34.41 48.12 35.97 50.74 38.21 C53.22 41.92 52.99 43.88 53.01 48.32 C53.03 49.75 53.05 51.17 53.08 52.6 C53.1 54.84 53.11 57.08 53.12 59.32 C53.13 61.49 53.16 63.66 53.2 65.82 C53.21 67.12 53.22 68.41 53.23 69.75 C53.82 73.74 54.94 75.36 57.74 78.21 C59.72 79.69 59.72 79.69 61.86 80.89 C74.98 89.4 83.99 102.41 88.11 117.46 C90.95 134.48 88.52 150.26 79.74 165.21 C78.94 166.24 78.94 166.24 78.12 167.3 C76.51 169.22 76.51 169.22 76.24 172.14 C77.02 176.91 79.96 178.71 83.54 181.72 C96.4 192.73 107.23 206.5 109.02 223.97 C109.14 226.85 109.16 229.7 109.11 232.58 C109.1 234.1 109.1 234.1 109.08 235.66 C108.69 253.3 102.13 269.17 89.53 281.65 C80.17 290.22 69.56 294.94 57.74 299.21 C55.41 300.16 55.41 300.16 53.74 303.21 C53.44 305.82 53.44 305.82 53.47 308.76 C53.45 309.85 53.43 310.94 53.4 312.06 C53.38 314.35 53.36 316.65 53.35 318.94 C53.12 329.58 53.12 329.58 48.74 334.21 C44.73 336.96 40.43 336.73 35.74 336.21 C32.39 334.9 31.13 333.79 29.14 330.82 C26.82 324.84 27.27 318.7 27.21 312.35 C27.19 311.35 27.17 310.35 27.15 309.32 C27.14 308.41 27.13 307.5 27.12 306.56 C26.89 304.2 26.89 304.2 25.66 302.41 C22.68 300.54 20.04 300.8 16.55 300.77 C15.85 300.77 15.15 300.76 14.43 300.76 C12.96 300.75 11.48 300.75 10.01 300.76 C7.75 300.77 5.49 300.74 3.23 300.71 C1.8 300.71 0.36 300.71 -1.07 300.71 C-3.03 300.71 -3.03 300.71 -5.03 300.7 C-8.28 300.91 -8.28 300.91 -10.18 302.92 C-11.42 305.54 -11.64 307.32 -11.67 310.2 C-11.69 311.15 -11.71 312.1 -11.73 313.08 C-11.74 314.07 -11.75 315.06 -11.76 316.08 C-11.87 328.07 -11.87 328.07 -15.26 333.21 C-19.02 336.63 -22.99 336.77 -27.89 336.63 C-31.58 335.97 -33.1 334.17 -35.26 331.21 C-37.18 328.01 -37.52 325.6 -37.57 321.89 C-37.59 320.88 -37.62 319.87 -37.64 318.82 C-37.68 316.7 -37.71 314.58 -37.74 312.45 C-37.78 310.93 -37.78 310.93 -37.82 309.39 C-37.84 308.01 -37.84 308.01 -37.86 306.59 C-38.11 304.2 -38.11 304.2 -39.36 302.41 C-42.25 300.58 -44.73 300.84 -48.12 300.83 C-49.5 300.82 -50.87 300.8 -52.25 300.78 C-54.41 300.77 -56.57 300.77 -58.73 300.77 C-60.82 300.77 -62.91 300.74 -65 300.71 C-66.25 300.71 -67.49 300.71 -68.78 300.7 C-72.9 300.11 -75.04 298.79 -78.26 296.21 C-81.39 291.86 -81.63 288.45 -80.84 283.32 C-79.81 279.55 -77.8 277.21 -74.56 275.1 C-70.4 273.48 -65.9 273.85 -61.47 273.74 C-58.24 273.53 -58.24 273.53 -56.58 271.48 C-55.06 268.86 -54.87 267.34 -54.86 264.33 C-54.86 263.41 -54.85 262.48 -54.85 261.54 C-54.86 260.58 -54.87 259.63 -54.89 258.64 C-54.87 257.68 -54.86 256.73 -54.85 255.74 C-54.85 254.82 -54.86 253.9 -54.86 252.95 C-54.87 251.69 -54.87 251.69 -54.87 250.41 C-55.35 247.7 -56.05 246.81 -58.26 245.21 C-62.84 244.63 -62.84 244.63 -66.94 246.37 C-68.74 248.87 -68.77 250.84 -68.95 253.89 C-69.01 254.89 -69.08 255.88 -69.15 256.91 C-69.2 258.04 -69.2 258.04 -69.26 259.21 C-70.35 259.46 -70.35 259.46 -71.46 259.72 C-77.61 261.2 -77.61 261.2 -83.07 264.27 C-86.67 266.45 -88.99 266.68 -93.14 267.14 C-101.03 268.1 -105.73 270.02 -110.7 276.27 C-113.47 281.48 -113.72 286.38 -113.26 292.21 C-112.63 293.89 -111.97 295.56 -111.26 297.21 C-111.7 300.59 -112.94 302.27 -115.31 304.66 C-115.93 305.28 -116.54 305.9 -117.18 306.53 C-117.82 307.17 -118.47 307.8 -119.14 308.46 C-119.77 309.11 -120.41 309.76 -121.07 310.42 C-121.69 311.04 -122.3 311.65 -122.94 312.28 C-123.5 312.85 -124.07 313.41 -124.65 313.98 C-126.26 315.21 -126.26 315.21 -129.26 315.21 C-131.92 312.88 -134.03 309.94 -136.26 307.21 C-137.17 306.13 -138.09 305.05 -139 303.97 C-173.1 263.14 -184.32 214.14 -181.06 161.98 C-180.54 156.61 -179.57 151.43 -178.26 146.21 C-178.05 145.36 -177.84 144.52 -177.63 143.65 C-169.81 112.97 -155.83 86.18 -135.26 62.21 C-134.42 61.22 -133.58 60.24 -132.71 59.23 C-128.22 54.1 -123.53 49.52 -118.26 45.21 C-117.76 44.78 -117.26 44.36 -116.74 43.92 C-94.36 24.98 -68.35 11.62 -39.95 4.39 C-39.18 4.2 -38.42 4 -37.64 3.8 C-25.11 0.79 -12.83 -0.1 0 0 Z " fill="#FCE792" transform="translate(252.260009765625,70.794189453125)"/>
<path d="M0 0 C2.16 0.77 4.32 1.5 6.49 2.24 C24.26 8.38 40.78 16.66 56 27.71 C56.55 28.12 57.11 28.52 57.68 28.93 C65.84 34.86 73.32 41.41 80.6 48.38 C81.79 49.52 82.99 50.64 84.2 51.76 C90.53 57.8 95.74 64.75 101 71.71 C101.43 72.28 101.86 72.84 102.3 73.43 C128.65 108.14 140.27 149.41 140.43 192.59 C140.44 193.44 140.45 194.29 140.45 195.17 C140.54 213.03 138.47 230.65 133 247.71 C132.57 249.04 132.57 249.04 132.15 250.39 C125.01 272.39 115.4 293.49 101 311.71 C100.33 312.58 99.67 313.45 98.99 314.35 C93.71 321.15 87.9 327.46 82 333.71 C81.27 334.5 80.54 335.28 79.78 336.09 C59.93 356.75 32.84 372.3 6 381.71 C4.78 382.15 3.56 382.59 2.3 383.04 C-8.86 386.87 -20.37 388.89 -32 390.71 C-33.08 390.89 -34.15 391.07 -35.25 391.25 C-39.51 391.78 -43.67 391.89 -47.95 391.92 C-48.81 391.92 -49.66 391.93 -50.54 391.93 C-52.34 391.94 -54.15 391.95 -55.95 391.95 C-58.64 391.96 -61.33 391.99 -64.01 392.03 C-95.14 392.22 -125.82 384.54 -153.21 369.69 C-154.94 368.75 -156.68 367.84 -158.43 366.92 C-175.07 357.9 -189.59 345.98 -203 332.71 C-203.59 332.14 -204.18 331.57 -204.79 330.98 C-208.61 327.24 -212.06 323.38 -215.32 319.15 C-215.79 318.54 -216.26 317.93 -216.74 317.3 C-217.7 316.05 -218.67 314.78 -219.63 313.52 C-220.88 311.88 -222.16 310.26 -223.44 308.64 C-242.33 283.86 -254.39 252.67 -258.68 221.95 C-258.92 220.31 -259.21 218.68 -259.53 217.06 C-260.16 212.64 -260.21 208.29 -260.24 203.84 C-260.25 202.88 -260.26 201.92 -260.27 200.93 C-260.28 198.89 -260.29 196.85 -260.3 194.82 C-260.31 192.78 -260.33 190.74 -260.36 188.7 C-260.64 169.33 -258.24 151.08 -252.32 132.59 C-251.98 131.51 -251.63 130.42 -251.28 129.31 C-238.83 90.98 -214.13 56.1 -181.74 32.01 C-180.06 30.75 -178.38 29.47 -176.71 28.19 C-154.21 11.26 -127.61 0.39 -100.19 -5.54 C-99.44 -5.7 -98.69 -5.86 -97.91 -6.03 C-66.88 -12.38 -29.8 -10.7 0 0 Z M-99 9.71 C-99.92 9.94 -100.84 10.18 -101.79 10.41 C-127.34 17.01 -151.19 27.25 -172 43.71 C-172.89 44.41 -173.78 45.1 -174.69 45.82 C-185.65 54.6 -195.35 63.62 -204 74.71 C-204.65 75.47 -205.29 76.22 -205.95 77 C-222.98 97.13 -234.35 122.64 -240.82 148.03 C-241.01 148.79 -241.21 149.55 -241.41 150.34 C-244.42 162.86 -245.31 175.15 -245.21 187.97 C-245.19 190.41 -245.19 192.84 -245.19 195.28 C-245.09 244.26 -224.55 285.31 -193 321.71 C-187.9 320.82 -185.25 317.51 -181.69 313.96 C-180.7 313.03 -180.7 313.03 -179.7 312.08 C-177.96 310.36 -176.39 308.73 -175 306.71 C-174.84 303.96 -174.84 303.96 -176 301.71 C-178.04 295.62 -177.54 289.41 -175.06 283.5 C-172.58 279.28 -168.48 276.55 -164 274.71 C-161.76 274.39 -159.51 274.13 -157.25 273.9 C-151.76 273.19 -148.31 272.14 -143.89 268.89 C-140.57 266.82 -136.83 266.31 -133 265.71 C-132.95 264.57 -132.95 264.57 -132.89 263.41 C-132.83 262.42 -132.76 261.43 -132.69 260.4 C-132.63 259.42 -132.58 258.43 -132.52 257.41 C-131.95 254.43 -131.47 253.44 -129 251.71 C-122.91 251.06 -122.91 251.06 -120.31 252.94 C-118.62 255.24 -118.62 256.62 -118.61 259.46 C-118.6 260.38 -118.6 261.3 -118.59 262.25 C-118.61 263.21 -118.62 264.16 -118.63 265.15 C-118.62 266.11 -118.61 267.06 -118.59 268.04 C-118.6 268.96 -118.6 269.89 -118.61 270.83 C-118.61 271.67 -118.61 272.51 -118.62 273.38 C-119.09 276.25 -119.99 277.63 -122 279.71 C-125.15 280.18 -125.15 280.18 -128.82 280.21 C-136.24 280.53 -136.24 280.53 -142 284.71 C-145.14 289.06 -145.38 292.47 -144.58 297.6 C-143.55 301.37 -141.54 303.71 -138.31 305.82 C-135.13 307.05 -132.34 306.99 -128.94 307.02 C-127.55 307.05 -126.17 307.07 -124.78 307.1 C-122.61 307.13 -120.43 307.15 -118.26 307.17 C-116.15 307.19 -114.04 307.23 -111.94 307.27 C-110.68 307.29 -109.42 307.3 -108.13 307.31 C-105 307.71 -105 307.71 -103.1 308.92 C-101.63 311.32 -101.62 313.02 -101.6 315.83 C-101.58 316.83 -101.55 317.83 -101.53 318.86 C-101.52 319.91 -101.51 320.95 -101.5 322.03 C-101.65 331.35 -101.65 331.35 -98 339.71 C-95.15 342.51 -93.09 343.15 -89.13 343.15 C-84.38 343 -81.57 342.02 -78 338.71 C-76.3 335.24 -75.75 332.4 -75.7 328.55 C-75.67 327.6 -75.65 326.64 -75.62 325.65 C-75.58 323.65 -75.55 321.64 -75.53 319.64 C-75.49 318.21 -75.49 318.21 -75.45 316.74 C-75.43 315.87 -75.42 315 -75.41 314.11 C-74.9 311.07 -74.31 309.78 -72 307.71 C-68.77 307.21 -68.77 307.21 -64.82 307.22 C-64.12 307.22 -63.42 307.21 -62.7 307.21 C-61.22 307.22 -59.75 307.23 -58.27 307.25 C-56.01 307.28 -53.76 307.27 -51.5 307.25 C-50.06 307.26 -48.63 307.27 -47.19 307.28 C-45.89 307.29 -44.58 307.3 -43.23 307.31 C-40 307.71 -40 307.71 -38.08 308.92 C-36.64 311.32 -36.62 313.03 -36.6 315.83 C-36.58 316.83 -36.55 317.83 -36.53 318.86 C-36.52 319.91 -36.51 320.95 -36.5 322.03 C-36.61 331.32 -36.61 331.32 -33 339.71 C-29.37 342.92 -25.9 343.23 -21.22 343.07 C-17.74 342.51 -15.62 341.01 -13 338.71 C-10.93 335.47 -10.74 332.81 -10.7 329 C-10.67 327.9 -10.65 326.8 -10.62 325.67 C-10.58 323.37 -10.55 321.06 -10.53 318.76 C-10.5 317.66 -10.47 316.56 -10.45 315.43 C-10.43 313.93 -10.43 313.93 -10.41 312.4 C-9.94 309.29 -9.18 307.95 -7 305.71 C-4.47 304.62 -2.05 303.7 0.56 302.84 C18.78 296.38 31.86 284.64 40.37 267.15 C46.82 253.3 47.84 233.88 42.87 219.4 C36.89 204.31 26.85 193.84 14.5 183.65 C13 181.71 13 181.71 12.37 179.03 C13.14 174.94 14.94 172.69 17.33 169.35 C25.79 155.95 27.01 139.16 24.31 123.83 C19.56 107.48 8.94 93.69 -5.38 84.46 C-8 82.71 -8 82.71 -10 79.71 C-10.26 76.52 -10.26 76.52 -10.28 72.6 C-10.3 71.17 -10.32 69.75 -10.34 68.32 C-10.36 66.08 -10.38 63.84 -10.39 61.6 C-10.39 59.43 -10.43 57.26 -10.47 55.1 C-10.47 53.8 -10.48 52.51 -10.49 51.17 C-11.08 47.18 -12.2 45.56 -15 42.71 C-19.1 40.03 -23.26 40.17 -28 40.71 C-32.28 42.48 -34.12 44.52 -36 48.71 C-36.56 53.6 -36.49 58.52 -36.53 63.43 C-36.56 64.93 -36.56 64.93 -36.6 66.47 C-36.61 67.38 -36.61 68.29 -36.62 69.23 C-37.1 72.33 -37.64 73.62 -40 75.71 C-43.23 76.23 -43.23 76.23 -47.19 76.25 C-48.24 76.25 -48.24 76.25 -49.31 76.26 C-50.79 76.26 -52.26 76.25 -53.74 76.24 C-56 76.21 -58.25 76.24 -60.51 76.26 C-61.95 76.26 -63.38 76.25 -64.82 76.25 C-66.78 76.24 -66.78 76.24 -68.77 76.23 C-72 75.71 -72 75.71 -73.93 73.99 C-75.16 71.38 -75.39 69.6 -75.41 66.72 C-75.44 65.29 -75.44 65.29 -75.48 63.83 C-75.49 62.85 -75.5 61.86 -75.5 60.84 C-75.47 51.84 -75.47 51.84 -79 43.71 C-82.77 40.29 -86.74 40.15 -91.63 40.29 C-95.29 40.94 -96.84 42.8 -99 45.71 C-101.2 49 -101.26 50.07 -101.31 53.9 C-101.34 54.91 -101.36 55.92 -101.39 56.96 C-101.42 59.08 -101.46 61.21 -101.48 63.33 C-101.51 64.34 -101.54 65.36 -101.56 66.4 C-101.58 67.32 -101.59 68.24 -101.6 69.2 C-102.1 72.3 -102.65 73.61 -105 75.71 C-108.1 76.2 -108.1 76.2 -111.87 76.18 C-112.54 76.19 -113.21 76.2 -113.9 76.2 C-116.76 76.23 -119.61 76.22 -122.47 76.2 C-124.56 76.2 -126.65 76.22 -128.74 76.25 C-129.99 76.24 -131.24 76.24 -132.53 76.23 C-136.65 76.8 -138.78 78.13 -142 80.71 C-145.14 85.06 -145.38 88.47 -144.58 93.6 C-143.55 97.37 -141.55 99.71 -138.31 101.82 C-134.14 103.44 -129.65 103.13 -125.22 103.27 C-122 103.71 -122 103.71 -120.33 104.93 C-118.57 107.3 -118.63 108.78 -118.62 111.72 C-118.61 112.75 -118.61 113.78 -118.6 114.85 C-118.6 115.98 -118.61 117.11 -118.62 118.28 C-118.61 119.48 -118.61 120.67 -118.6 121.9 C-118.59 125.17 -118.59 128.45 -118.6 131.72 C-118.61 135.15 -118.6 138.58 -118.6 142 C-118.59 147.76 -118.6 153.52 -118.61 159.27 C-118.63 165.93 -118.62 172.58 -118.61 179.23 C-118.59 184.94 -118.59 190.66 -118.6 196.37 C-118.6 199.78 -118.61 203.19 -118.6 206.6 C-118.59 210.41 -118.6 214.21 -118.62 218.02 C-118.61 219.15 -118.6 220.28 -118.6 221.44 C-118.61 222.48 -118.61 223.52 -118.62 224.58 C-118.62 225.48 -118.63 226.38 -118.63 227.31 C-119.09 230.24 -119.92 231.61 -122 233.71 C-125.5 234.21 -125.5 234.21 -129 233.71 C-131.75 230.9 -132.38 228.86 -132.4 224.98 C-132.42 224.03 -132.43 223.09 -132.44 222.11 C-132.44 221.08 -132.44 220.04 -132.44 218.98 C-132.45 217.89 -132.46 216.79 -132.47 215.67 C-132.5 212.05 -132.51 208.44 -132.52 204.82 C-132.53 202.32 -132.55 199.81 -132.57 197.31 C-132.61 191.39 -132.64 185.46 -132.67 179.54 C-132.7 172.14 -132.75 164.73 -132.8 157.33 C-132.88 144.13 -132.95 130.92 -133 117.71 C-133.75 117.53 -134.49 117.35 -135.25 117.16 C-136.24 116.91 -137.22 116.65 -138.23 116.39 C-139.2 116.15 -140.17 115.9 -141.16 115.65 C-148.85 113.11 -154.16 107.34 -157.75 100.28 C-160.03 93.6 -160.3 85.78 -158.16 79.06 C-154.65 72.13 -149.22 66.78 -141.93 64.06 C-136.63 62.4 -131.46 62.16 -125.94 62.03 C-124.98 61.99 -124.02 61.96 -123.03 61.92 C-120.69 61.84 -118.35 61.77 -116 61.71 C-115.99 60.67 -115.98 59.64 -115.96 58.57 C-115.7 49.11 -114.92 41.34 -108.43 33.92 C-103.26 29.06 -96.79 25.6 -89.63 25.21 C-81.33 25.66 -73.62 28.9 -67.66 34.69 C-61.24 42.53 -61.26 52.04 -61 61.71 C-57.7 61.71 -54.4 61.71 -51 61.71 C-50.99 60.67 -50.98 59.64 -50.96 58.57 C-50.7 49.14 -49.99 41.16 -43.33 33.88 C-38.64 29.61 -33.39 26.46 -27 25.71 C-26.38 25.63 -25.76 25.54 -25.11 25.45 C-17.79 24.87 -12.05 27.79 -6 31.71 C-1.2 35.93 2.75 41.41 3.24 47.91 C3.19 49.04 3.14 50.17 3.09 51.33 C1.85 65.07 1.85 65.07 6.41 77.27 C9.5 79.4 12.64 81.02 16 82.71 C21.37 87.77 25.88 93.6 30 99.71 C32.87 98.41 34.97 97 37.22 94.8 C37.82 94.21 38.43 93.62 39.05 93.02 C39.69 92.38 40.33 91.75 40.98 91.1 C41.65 90.44 42.31 89.79 42.99 89.12 C44.39 87.74 45.78 86.35 47.17 84.97 C49.31 82.84 51.46 80.74 53.61 78.63 C54.97 77.29 56.32 75.94 57.67 74.6 C58.32 73.97 58.97 73.34 59.64 72.69 C60.52 71.8 60.52 71.8 61.42 70.89 C62.2 70.11 62.2 70.11 63 69.32 C64.2 67.74 64.2 67.74 63.8 65.7 C62.47 62.42 60.02 60.06 57.62 57.53 C56.81 56.66 56.81 56.66 55.99 55.78 C51.04 50.59 45.66 46.11 40 41.71 C39.22 41.06 38.45 40.41 37.65 39.74 C30.29 33.57 22.22 28.63 14 23.71 C13.36 23.32 12.72 22.93 12.06 22.53 C8.3 20.26 8.3 20.26 4 19.71 C4 19.05 4 18.39 4 17.71 C-4.02 14.1 -12.06 11.83 -20.63 9.96 C-21.58 9.75 -22.53 9.54 -23.52 9.33 C-46.86 4.42 -75.81 3.81 -99 9.71 Z " fill="#F79D00" transform="translate(316.00439453125,64.2861328125)"/>
<path d="M0 0 C2.43 0.02 4.87 0.02 7.3 0.02 C19.53 0.05 31.14 0.81 43.11 3.46 C44.11 3.67 45.11 3.89 46.14 4.11 C53.66 5.82 60.69 8.03 67.74 11.21 C67.74 11.87 67.74 12.53 67.74 13.21 C68.42 13.29 69.1 13.37 69.81 13.46 C73.5 14.4 76.46 16.16 79.68 18.14 C80.66 18.74 80.66 18.74 81.66 19.35 C91.94 25.72 101.46 32.61 110.28 40.9 C112.47 42.95 114.7 44.9 116.99 46.83 C125.19 54.01 125.19 54.01 127.74 58.21 C127.32 61.54 126.14 63.18 123.78 65.51 C123.16 66.13 122.54 66.75 121.9 67.39 C121.23 68.04 120.55 68.7 119.86 69.38 C119.17 70.06 118.49 70.74 117.78 71.45 C115.59 73.62 113.38 75.79 111.18 77.96 C109.69 79.43 108.2 80.91 106.71 82.38 C103.06 86 99.4 89.6 95.74 93.21 C91.91 91.47 90.45 89.67 88.11 86.14 C83.53 79.62 77.97 72.97 70.47 69.84 C67.08 66.57 67.29 65.39 67.11 60.79 C67.1 58.2 67.13 55.61 67.18 53.02 C67.35 42.83 67.26 35.13 60.06 27.4 C54.91 22.45 48.44 19.06 41.24 18.77 C34.01 19.13 27.33 21.61 21.74 26.21 C15.82 32.97 13.5 38.62 13.11 47.52 C13.08 48.26 13.04 49 13 49.76 C12.9 51.58 12.82 53.39 12.74 55.21 C9.44 55.21 6.14 55.21 2.74 55.21 C2.7 53.76 2.7 53.76 2.66 52.28 C2.23 42.42 1.65 33.59 -5.82 26.33 C-11.98 21.49 -19.94 18.28 -27.87 18.69 C-35.39 20.3 -42.25 24.21 -47.08 30.2 C-50.55 36.08 -51.73 40.91 -51.95 47.64 C-51.98 48.37 -52.02 49.11 -52.05 49.86 C-52.13 51.64 -52.2 53.42 -52.26 55.21 C-52.85 55.22 -53.44 55.23 -54.04 55.25 C-56.76 55.33 -59.48 55.42 -62.2 55.52 C-63.12 55.54 -64.05 55.56 -65 55.59 C-74.96 55.97 -82.06 58.05 -89.31 65.05 C-95.11 71.45 -95.93 77.13 -95.63 85.74 C-94.69 94.5 -91.52 100 -84.71 105.58 C-81.08 107.99 -77.47 109.23 -73.26 110.21 C-71.93 110.54 -70.59 110.87 -69.26 111.21 C-69.26 111.78 -69.26 112.35 -69.25 112.94 C-69.19 126.9 -69.12 140.85 -69.02 154.81 C-68.98 161.56 -68.94 168.3 -68.91 175.05 C-68.89 181.56 -68.85 188.07 -68.8 194.58 C-68.78 197.07 -68.77 199.55 -68.76 202.04 C-68.75 205.52 -68.72 208.99 -68.69 212.47 C-68.69 213.5 -68.7 214.54 -68.7 215.6 C-68.68 216.55 -68.67 217.5 -68.66 218.47 C-68.65 219.3 -68.65 220.12 -68.64 220.96 C-68.16 223.8 -67.23 225.12 -65.26 227.21 C-63.28 228.2 -63.28 228.2 -61.26 229.21 C-61.59 233.83 -61.92 238.45 -62.26 243.21 C-61.6 243.54 -60.94 243.87 -60.26 244.21 C-61.39 244.49 -62.53 244.78 -63.7 245.08 C-64.87 245.45 -66.05 245.82 -67.26 246.21 C-68.54 248.77 -68.59 250.97 -68.82 253.83 C-68.91 254.83 -68.99 255.84 -69.08 256.87 C-69.14 257.64 -69.2 258.41 -69.26 259.21 C-70.35 259.46 -70.35 259.46 -71.46 259.72 C-77.61 261.2 -77.61 261.2 -83.07 264.27 C-86.67 266.45 -88.99 266.68 -93.14 267.14 C-101.03 268.1 -105.73 270.02 -110.7 276.27 C-113.47 281.48 -113.72 286.38 -113.26 292.21 C-112.63 293.89 -111.97 295.56 -111.26 297.21 C-111.7 300.59 -112.94 302.27 -115.31 304.66 C-115.93 305.28 -116.54 305.9 -117.18 306.53 C-117.82 307.17 -118.47 307.8 -119.14 308.46 C-119.77 309.11 -120.41 309.76 -121.07 310.42 C-121.69 311.04 -122.3 311.65 -122.94 312.28 C-123.5 312.85 -124.07 313.41 -124.65 313.98 C-126.26 315.21 -126.26 315.21 -129.26 315.21 C-131.92 312.88 -134.03 309.94 -136.26 307.21 C-137.17 306.13 -138.09 305.05 -139 303.97 C-173.1 263.14 -184.32 214.14 -181.06 161.98 C-180.54 156.61 -179.57 151.43 -178.26 146.21 C-178.05 145.36 -177.84 144.52 -177.63 143.65 C-169.81 112.97 -155.83 86.18 -135.26 62.21 C-134.42 61.22 -133.58 60.24 -132.71 59.23 C-128.22 54.1 -123.53 49.52 -118.26 45.21 C-117.76 44.78 -117.26 44.36 -116.74 43.92 C-94.36 24.98 -68.35 11.62 -39.95 4.39 C-39.18 4.2 -38.42 4 -37.64 3.8 C-25.11 0.79 -12.83 -0.1 0 0 Z " fill="#FEBC00" transform="translate(252.260009765625,70.794189453125)"/>
<path d="M0 0 C1.1 0.22 2.2 0.44 3.33 0.67 C6.81 1.39 10.28 2.15 13.75 2.94 C14.82 3.18 15.89 3.42 16.99 3.67 C18.47 4.03 18.47 4.03 19.98 4.4 C20.86 4.61 21.73 4.82 22.63 5.04 C25.51 6.21 27.03 7.61 29 10 C29.63 13.71 29.24 15.51 27.56 18.88 C24.37 21.52 22.67 21.62 18.63 21.34 C16.02 21 13.69 20.4 11.17 19.64 C-46 3.68 -109.43 14.09 -161 42 C-162.72 42.92 -162.72 42.92 -164.48 43.85 C-183.56 54.34 -200.27 68.06 -216 83 C-216.83 83.79 -217.66 84.57 -218.51 85.38 C-233.61 100.09 -245.44 117.86 -256 136 C-256.36 136.61 -256.72 137.22 -257.1 137.86 C-270.46 160.66 -279.02 186.93 -283 213 C-283.14 213.82 -283.27 214.64 -283.41 215.49 C-291.73 266.83 -282.86 320.29 -258 366 C-257.66 366.64 -257.32 367.28 -256.98 367.94 C-246.14 388.44 -231.91 406.22 -216 423 C-214.93 424.13 -214.93 424.13 -213.84 425.29 C-208.62 430.67 -202.88 435.35 -197 440 C-195.55 441.17 -195.55 441.17 -194.07 442.37 C-169.97 461.52 -142.43 475.2 -113 484 C-111.89 484.33 -111.89 484.33 -110.77 484.68 C-76.71 494.73 -40.91 495.12 -6 490 C-5.13 489.88 -4.26 489.75 -3.37 489.63 C52.41 481.31 106.32 448 141 404 C141.8 403 142.61 402 143.44 400.97 C159.79 380.45 172.17 356.65 181 332 C181.42 330.83 181.42 330.83 181.85 329.64 C186.33 317 189 304.25 191 291 C191.15 290.03 191.3 289.07 191.46 288.07 C196.65 253.97 194.92 219.12 185 186 C184.76 185.18 184.52 184.36 184.27 183.51 C174.33 150.09 157.05 120.04 134 94 C133.23 93.12 132.46 92.24 131.66 91.33 C123.14 81.69 114.18 72.88 104 65 C103.45 64.58 102.9 64.15 102.34 63.72 C87.56 52.36 71.81 43.03 55 35 C52.71 33.9 50.41 32.8 48.12 31.69 C47.18 31.24 46.23 30.79 45.26 30.32 C43 29 43 29 41 26 C40.56 22.56 40.56 22.56 41 19 C43 16.5 43 16.5 46 15 C53.1 15.21 58.57 17.76 64.88 20.88 C65.88 21.37 66.89 21.86 67.93 22.36 C90.05 33.32 110.12 47.56 128.14 64.39 C130.12 66.19 132.08 67.91 134.15 69.6 C136.46 71.55 138.38 73.39 140.31 75.69 C142.87 78.7 145.5 81.61 148.19 84.5 C178.05 117.76 197.39 159.87 206.31 203.44 C206.46 204.16 206.61 204.88 206.76 205.62 C209.73 221.26 210.37 236.74 210.31 252.62 C210.31 253.64 210.31 254.66 210.31 255.71 C210.26 270.33 209.94 284.63 207 299 C206.81 300 206.61 300.99 206.41 302.02 C198.3 343.11 180.93 380.2 155 413 C154.19 414.04 153.38 415.08 152.54 416.14 C139.87 431.71 125.32 446.3 109 458 C107.65 458.99 106.31 459.98 104.96 460.97 C73.66 483.77 38.1 498.99 0 506 C-0.8 506.16 -1.6 506.32 -2.43 506.49 C-30.49 511.98 -64 511.75 -92 506 C-93.01 505.8 -94.03 505.6 -95.07 505.4 C-136.16 497.18 -173.1 479.74 -206 454 C-206.54 453.58 -207.08 453.16 -207.63 452.73 C-223.87 439.97 -238.94 424.78 -251 408 C-251.86 406.83 -252.73 405.66 -253.59 404.49 C-268.74 383.87 -280.82 361.26 -289 337 C-289.41 335.78 -289.41 335.78 -289.83 334.53 C-293.07 324.76 -295.6 314.88 -297.75 304.81 C-297.95 303.89 -298.15 302.96 -298.35 302.01 C-301.64 285.8 -302.38 269.87 -302.31 253.38 C-302.31 252.36 -302.31 251.34 -302.31 250.29 C-302.26 235.67 -301.94 221.37 -299 207 C-298.71 205.51 -298.71 205.51 -298.41 203.98 C-290.79 165.37 -275.07 129.22 -251 98 C-250.04 96.75 -250.04 96.75 -249.05 95.47 C-234.97 77.54 -218.62 60.25 -200 47 C-199.38 46.55 -198.76 46.11 -198.13 45.65 C-166.3 22.76 -130.61 7.09 -92 0 C-91.19 -0.16 -90.39 -0.32 -89.56 -0.49 C-61.43 -5.95 -28.07 -5.63 0 0 Z " fill="#010100" transform="translate(302,3)"/>
<path d="M0 0 C2.16 0.77 4.32 1.5 6.49 2.24 C24.26 8.38 40.78 16.66 56 27.71 C56.55 28.12 57.11 28.52 57.68 28.93 C65.84 34.86 73.32 41.41 80.6 48.38 C81.79 49.52 82.99 50.64 84.2 51.76 C90.53 57.8 95.74 64.75 101 71.71 C101.43 72.28 101.86 72.84 102.3 73.43 C128.65 108.14 140.27 149.41 140.43 192.59 C140.44 193.44 140.45 194.29 140.45 195.17 C140.54 213.03 138.47 230.65 133 247.71 C132.57 249.04 132.57 249.04 132.15 250.39 C125.01 272.39 115.4 293.49 101 311.71 C100.33 312.58 99.67 313.45 98.99 314.35 C93.71 321.15 87.9 327.46 82 333.71 C81.27 334.5 80.54 335.28 79.78 336.09 C59.93 356.75 32.84 372.3 6 381.71 C4.78 382.15 3.56 382.59 2.3 383.04 C-8.86 386.87 -20.37 388.89 -32 390.71 C-33.08 390.89 -34.15 391.07 -35.25 391.25 C-39.51 391.78 -43.67 391.89 -47.95 391.92 C-48.81 391.92 -49.66 391.93 -50.54 391.93 C-52.34 391.94 -54.15 391.95 -55.95 391.95 C-58.64 391.96 -61.33 391.99 -64.01 392.03 C-95.14 392.22 -125.82 384.54 -153.21 369.69 C-154.94 368.75 -156.68 367.84 -158.43 366.92 C-175.07 357.9 -189.59 345.98 -203 332.71 C-203.59 332.14 -204.18 331.57 -204.79 330.98 C-208.61 327.24 -212.06 323.38 -215.32 319.15 C-215.79 318.54 -216.26 317.93 -216.74 317.3 C-217.7 316.05 -218.67 314.78 -219.63 313.52 C-220.88 311.88 -222.16 310.26 -223.44 308.64 C-242.33 283.86 -254.39 252.67 -258.68 221.95 C-258.92 220.31 -259.21 218.68 -259.53 217.06 C-260.16 212.64 -260.21 208.29 -260.24 203.84 C-260.25 202.88 -260.26 201.92 -260.27 200.93 C-260.28 198.89 -260.29 196.85 -260.3 194.82 C-260.31 192.78 -260.33 190.74 -260.36 188.7 C-260.64 169.33 -258.24 151.08 -252.32 132.59 C-251.98 131.51 -251.63 130.42 -251.28 129.31 C-238.83 90.98 -214.13 56.1 -181.74 32.01 C-180.06 30.75 -178.38 29.47 -176.71 28.19 C-154.21 11.26 -127.61 0.39 -100.19 -5.54 C-99.44 -5.7 -98.69 -5.86 -97.91 -6.03 C-66.88 -12.38 -29.8 -10.7 0 0 Z M-99 9.71 C-99.92 9.94 -100.84 10.18 -101.79 10.41 C-127.34 17.01 -151.19 27.25 -172 43.71 C-172.89 44.41 -173.78 45.1 -174.69 45.82 C-185.65 54.6 -195.35 63.62 -204 74.71 C-204.65 75.47 -205.29 76.22 -205.95 77 C-222.98 97.13 -234.35 122.64 -240.82 148.03 C-241.01 148.79 -241.21 149.55 -241.41 150.34 C-244.42 162.86 -245.31 175.15 -245.21 187.97 C-245.19 190.41 -245.19 192.84 -245.19 195.28 C-245.11 234.35 -232.35 272.87 -208 303.71 C-207.23 304.69 -206.46 305.68 -205.66 306.69 C-203.48 309.4 -201.26 312.06 -199 314.71 C-198.33 315.52 -197.65 316.32 -196.95 317.15 C-192.63 322.14 -188.06 326.49 -183 330.71 C-182.13 331.47 -181.26 332.23 -180.36 333.02 C-159.55 350.9 -135.66 363.31 -109.38 371.03 C-108.61 371.26 -107.83 371.49 -107.04 371.72 C-92.36 375.82 -77.69 377.27 -62.5 377.15 C-61.69 377.15 -60.87 377.15 -60.03 377.14 C-39.72 377.04 -20.16 374.72 -1 367.71 C0.83 367.1 0.83 367.1 2.71 366.48 C20.45 360.46 37.27 351.26 52 339.71 C52.88 339.04 53.76 338.36 54.68 337.67 C63.89 330.49 72.59 322.77 80 313.71 C80.9 312.65 81.8 311.58 82.7 310.51 C108.17 280.01 124.81 240.43 125.23 200.39 C125.24 199.62 125.25 198.85 125.26 198.05 C125.43 181.24 125.34 165.08 121 148.71 C120.68 147.48 120.68 147.48 120.36 146.21 C111 109.93 90.29 74.51 61 50.71 C60.01 49.89 59.03 49.07 58.02 48.23 C16 13.72 -45.34 -3.94 -99 9.71 Z " fill="#040300" transform="translate(316.00439453125,64.2861328125)"/>
<path d="M0 0 C5.96 4.03 10.22 8.85 12.59 15.72 C13.19 19.06 13.1 22.37 13.06 25.75 C13.06 26.45 13.05 27.14 13.05 27.86 C13.04 29.58 13.02 31.29 13 33 C16.3 33 19.6 33 23 33 C22.94 31.96 22.88 30.92 22.82 29.85 C22.48 21.23 22.52 14.15 28 7 C33.2 1.39 39.22 -3.1 47 -4 C47.94 -4.13 47.94 -4.13 48.89 -4.27 C56.22 -4.85 61.97 -1.96 68 2 C73.13 6.56 77.69 12.17 78.26 19.22 C78.19 20.92 78.19 20.92 78.12 22.65 C78.11 23.9 78.1 25.15 78.08 26.45 C78.03 29.06 77.94 31.67 77.82 34.28 C77.69 41.55 77.69 41.55 81.33 47.52 C84.14 49.53 87.01 51.27 90 53 C103.09 63.77 111.49 81.53 114 98 C115.59 116.6 112.53 132.4 104 149 C104.58 149.26 105.16 149.52 105.76 149.78 C118.96 156.97 128.26 175.67 132.45 189.61 C138.07 213.83 134.37 235.98 121.5 257 C111.04 272.45 96.7 283.1 79 289 C79 289.59 78.99 290.18 78.99 290.78 C78.95 293.5 78.88 296.22 78.81 298.94 C78.8 300.33 78.8 300.33 78.79 301.74 C78.54 309.7 76.21 315.21 71.08 321.27 C64.54 326.78 58.06 330.77 49.26 330.32 C40.15 329.02 33.42 324.93 27.39 318.07 C23.46 312.22 22.57 307.46 22.81 300.56 C22.83 299.83 22.84 299.1 22.85 298.35 C22.89 296.56 22.94 294.78 23 293 C19.7 293 16.4 293 13 293 C13.05 293.97 13.09 294.93 13.14 295.93 C13.42 305.97 12.83 314.14 5.81 321.88 C0.29 326.92 -6.77 329.67 -14.19 330.25 C-23.95 329.61 -31.21 325.35 -37.61 318.07 C-41.54 312.22 -42.43 307.46 -42.19 300.56 C-42.17 299.83 -42.16 299.1 -42.15 298.35 C-42.11 296.56 -42.06 294.78 -42 293 C-42.59 293.02 -43.18 293.03 -43.78 293.05 C-46.5 293.11 -49.22 293.15 -51.94 293.19 C-53.33 293.23 -53.33 293.23 -54.74 293.26 C-65.27 293.37 -72.21 290.87 -79.82 283.51 C-85.78 276.64 -86.75 269.25 -86.44 260.33 C-85.36 252.09 -80.63 246.87 -74.41 241.66 C-69.53 238.29 -64.89 237 -59 237 C-59.05 236.25 -59.09 235.5 -59.14 234.73 C-59.43 226.75 -59.43 226.75 -57.44 223.31 C-54.03 221.48 -51.81 221.46 -48 222 C-45.81 223.38 -45.81 223.38 -44 226 C-43.4 229.49 -43.44 232.91 -43.5 236.44 C-43.48 237.38 -43.47 238.32 -43.45 239.29 C-43.48 243.5 -43.66 246.34 -45.6 250.12 C-48.8 252.62 -50.85 252.57 -54.88 252.56 C-62.26 252.84 -62.26 252.84 -68 257 C-70.49 260.79 -70.21 264.49 -69.62 268.84 C-68.66 272.2 -66.7 273.9 -64 276 C-61.07 277.47 -58.43 277.15 -55.16 277.18 C-53.78 277.2 -52.39 277.22 -51 277.25 C-48.81 277.28 -46.62 277.31 -44.44 277.33 C-42.32 277.34 -40.21 277.38 -38.1 277.43 C-36.84 277.44 -35.57 277.45 -34.27 277.47 C-31 278 -31 278 -28.59 279.71 C-26.7 282.44 -26.49 283.91 -26.46 287.21 C-26.44 288.21 -26.41 289.21 -26.39 290.23 C-26.38 291.79 -26.38 291.79 -26.38 293.38 C-26.55 302.45 -26.55 302.45 -24 311 C-19.94 314.03 -14.83 313.5 -10 313 C-6.66 311.68 -5.45 310.93 -3.89 307.71 C-2.98 304.93 -2.75 302.79 -2.73 299.88 C-2.71 298.92 -2.69 297.97 -2.66 296.98 C-2.64 294.99 -2.62 293.01 -2.61 291.02 C-2.59 290.06 -2.56 289.11 -2.54 288.12 C-2.53 287.26 -2.52 286.4 -2.51 285.51 C-1.8 282.01 -0.63 280.41 2 278 C5.33 277.37 5.33 277.37 9.25 277.37 C9.95 277.37 10.64 277.37 11.36 277.36 C12.82 277.36 14.29 277.38 15.75 277.4 C17.99 277.44 20.23 277.42 22.47 277.4 C23.9 277.41 25.32 277.42 26.75 277.43 C28.69 277.45 28.69 277.45 30.67 277.47 C34 278 34 278 36.42 279.71 C38.3 282.44 38.51 283.92 38.54 287.21 C38.56 288.21 38.59 289.21 38.61 290.23 C38.62 291.79 38.62 291.79 38.62 293.38 C38.53 302.42 38.53 302.42 41 311 C45.1 313.73 50.24 313.56 55 313 C57.91 311.76 59.42 310.91 61.11 308.25 C62.2 305.49 62.26 303.28 62.27 300.32 C62.29 299.22 62.31 298.13 62.34 297.01 C62.36 294.71 62.38 292.42 62.39 290.13 C62.57 281.86 62.57 281.86 64.56 277.9 C67.68 275.47 70.91 274.25 74.62 273.06 C92.54 266.79 104.98 255.62 113.31 238.5 C119.83 224.64 120.85 205.19 115.88 190.69 C110.54 177.21 102.13 167.14 91 158 C86.24 153.95 86.24 153.95 85.31 150.25 C86.16 146.24 87.98 143.93 90.34 140.64 C98.79 127.24 100.01 110.44 97.32 95.12 C92.66 79.09 83.27 67.76 70 58 C64.22 53.45 64.22 53.45 63 51 C62.9 48.66 62.87 46.32 62.86 43.98 C62.84 42.55 62.82 41.12 62.8 39.69 C62.77 37.44 62.75 35.19 62.75 32.94 C62.75 30.76 62.71 28.59 62.67 26.42 C62.66 25.12 62.65 23.81 62.64 22.47 C61.85 18.17 60.35 16.72 57 14 C52.82 11.91 47.49 12.65 43.06 13.69 C40.31 15.44 39.99 16.93 39 20 C38.7 22.62 38.7 22.62 38.73 25.34 C38.71 26.34 38.69 27.34 38.66 28.37 C38.64 30.46 38.62 32.54 38.61 34.63 C38.59 35.63 38.56 36.63 38.54 37.66 C38.53 38.56 38.52 39.47 38.51 40.4 C37.81 43.96 36.68 45.56 34 48 C30.67 48.65 30.67 48.65 26.75 48.66 C26.05 48.67 25.36 48.67 24.64 48.68 C23.18 48.68 21.71 48.67 20.25 48.65 C18.01 48.63 15.77 48.65 13.53 48.68 C12.1 48.68 10.68 48.67 9.25 48.66 C7.96 48.66 6.66 48.65 5.33 48.65 C2 48 2 48 -0.42 45.78 C-2.1 42.83 -2.5 41.26 -2.5 37.91 C-2.53 36.49 -2.53 36.49 -2.56 35.03 C-2.56 34.05 -2.56 33.07 -2.56 32.06 C-2.41 23.06 -2.41 23.06 -6 15 C-8.92 12.89 -11.45 12.73 -15 12.75 C-15.85 12.74 -16.69 12.74 -17.56 12.73 C-20.26 13.03 -21.79 13.42 -24 15 C-25.73 18.54 -26.25 21.42 -26.27 25.34 C-26.29 26.34 -26.31 27.34 -26.34 28.37 C-26.36 30.46 -26.38 32.54 -26.39 34.63 C-26.41 35.63 -26.44 36.63 -26.46 37.66 C-26.47 39.01 -26.47 39.01 -26.49 40.4 C-27.19 43.95 -28.34 45.56 -31 48 C-34.2 48.6 -34.2 48.6 -37.96 48.57 C-38.63 48.57 -39.3 48.58 -39.99 48.58 C-42.12 48.6 -44.24 48.58 -46.38 48.56 C-48.5 48.55 -50.62 48.54 -52.74 48.55 C-54.67 48.57 -56.61 48.55 -58.54 48.53 C-62.65 49.09 -64.78 50.43 -68 53 C-70.49 56.79 -70.21 60.49 -69.62 64.84 C-68.66 68.2 -66.7 69.9 -64 72 C-60.22 73.89 -55.55 73.3 -51.38 73.43 C-47.42 74.1 -46.47 74.91 -44 78 C-43.5 80.4 -43.5 80.4 -43.49 83.12 C-43.48 84.15 -43.47 85.18 -43.46 86.25 C-43.47 87.38 -43.47 88.5 -43.48 89.67 C-43.48 90.86 -43.47 92.05 -43.46 93.28 C-43.45 96.55 -43.45 99.81 -43.46 103.08 C-43.47 106.5 -43.46 109.92 -43.46 113.34 C-43.45 119.09 -43.46 124.83 -43.48 130.58 C-43.5 137.22 -43.49 143.85 -43.47 150.49 C-43.45 156.2 -43.45 161.9 -43.46 167.6 C-43.47 171.01 -43.47 174.41 -43.45 177.81 C-43.44 181.61 -43.46 185.41 -43.48 189.2 C-43.47 190.33 -43.47 191.46 -43.46 192.62 C-43.54 200.19 -43.54 200.19 -45.81 204.2 C-48 206 -48 206 -51.5 206.62 C-55 206 -55 206 -57.19 204.14 C-59.86 199.52 -59.53 195.4 -59.45 190.15 C-59.45 189.06 -59.46 187.96 -59.46 186.84 C-59.45 183.23 -59.42 179.62 -59.39 176.01 C-59.38 173.51 -59.38 171 -59.37 168.5 C-59.36 162.59 -59.33 156.67 -59.29 150.76 C-59.24 143.36 -59.22 135.96 -59.2 128.57 C-59.15 115.38 -59.08 102.19 -59 89 C-59.62 88.94 -60.24 88.88 -60.88 88.82 C-61.69 88.74 -62.5 88.66 -63.34 88.57 C-64.14 88.49 -64.94 88.41 -65.77 88.33 C-72.27 87.36 -77.87 81.84 -81.78 76.82 C-86.66 69.52 -87.02 61.62 -86 53 C-83.78 45.81 -78.24 40.03 -72 36 C-65.36 32.93 -59.16 32.62 -51.94 32.81 C-50.98 32.83 -50.02 32.84 -49.03 32.85 C-46.68 32.89 -44.34 32.94 -42 33 C-42.06 31.96 -42.12 30.92 -42.18 29.85 C-42.56 20.02 -42.04 12.66 -35.2 4.98 C-24.54 -5.15 -13.06 -6.55 0 0 Z " fill="#030201" transform="translate(242,93)"/>
<path d="M0 0 C1.03 -0.01 1.03 -0.01 2.07 -0.02 C4.33 -0.03 6.58 0 8.83 0.04 C10.41 0.04 11.99 0.04 13.56 0.04 C16.87 0.05 20.18 0.07 23.49 0.11 C27.7 0.16 31.91 0.17 36.12 0.17 C39.39 0.17 42.65 0.19 45.91 0.21 C47.46 0.22 49.01 0.23 50.56 0.23 C65.63 0.27 79.1 1.94 90.3 12.99 C98.37 22.39 101.85 31.79 101.36 44.19 C100.16 56.37 94.71 66.21 85.31 74.04 C78.09 79.34 70.4 82.03 61.44 82.04 C60.7 82.04 59.97 82.05 59.21 82.06 C56.8 82.08 54.39 82.09 51.98 82.1 C50.29 82.11 48.61 82.12 46.93 82.13 C43.41 82.14 39.89 82.15 36.36 82.15 C31.86 82.16 27.35 82.2 22.84 82.24 C19.37 82.27 15.89 82.28 12.42 82.28 C10.76 82.29 9.1 82.3 7.43 82.32 C5.11 82.35 2.79 82.34 0.46 82.33 C-0.56 82.35 -0.56 82.35 -1.61 82.37 C-5.23 82.32 -6.95 81.75 -9.91 79.62 C-12.46 76.08 -12.62 74.17 -12.63 69.83 C-12.64 69.16 -12.65 68.48 -12.66 67.79 C-12.68 65.57 -12.67 63.36 -12.65 61.14 C-12.65 59.59 -12.66 58.04 -12.67 56.5 C-12.67 53.25 -12.66 50.01 -12.64 46.77 C-12.61 42.63 -12.63 38.49 -12.66 34.34 C-12.67 31.15 -12.67 27.95 -12.66 24.76 C-12.65 23.23 -12.66 21.7 -12.67 20.17 C-12.68 18.03 -12.66 15.9 -12.63 13.76 C-12.63 12.54 -12.63 11.33 -12.62 10.07 C-11.21 2.64 -7.28 -0.03 0 0 Z " fill="#040301" transform="translate(234.986572265625,263.271240234375)"/>
<path d="M0 0 C2.29 0.95 4.24 1.95 6.3 3.32 C7.38 4.04 7.38 4.04 8.49 4.78 C9.25 5.3 10.02 5.82 10.8 6.36 C11.6 6.9 12.39 7.44 13.21 8 C25.48 16.39 36.65 25.7 47.36 35.99 C48.26 36.84 49.16 37.7 50.08 38.58 C56 44.35 61.26 50.49 66.36 56.99 C67.14 57.95 67.92 58.91 68.73 59.9 C81.54 76.02 91.89 93.91 100.43 112.61 C100.74 113.28 101.05 113.94 101.37 114.62 C103.13 118.59 103.83 120.89 102.36 124.99 C100.44 127.47 98.24 129.63 95.99 131.82 C95.36 132.46 94.72 133.09 94.06 133.75 C92.72 135.09 91.36 136.42 90.01 137.75 C87.93 139.8 85.86 141.86 83.8 143.92 C82.49 145.22 81.18 146.52 79.87 147.82 C79.25 148.44 78.63 149.06 77.99 149.69 C73.6 153.99 73.6 153.99 71.36 153.99 C71.13 153.31 70.9 152.64 70.67 151.95 C66.26 139.16 61.84 126.61 55.32 114.73 C54.39 113.03 53.48 111.3 52.58 109.57 C43.59 92.97 31.71 78.27 18.36 64.99 C17.84 64.46 17.32 63.93 16.78 63.39 C2.95 49.64 -13.22 38.69 -30.64 29.99 C-28.99 25.85 -26 22.99 -22.93 19.87 C-22.37 19.3 -21.8 18.73 -21.22 18.13 C-20.04 16.93 -18.84 15.72 -17.65 14.52 C-15.83 12.68 -14.02 10.81 -12.22 8.95 C-11.06 7.77 -9.9 6.6 -8.74 5.44 C-7.94 4.59 -7.94 4.59 -7.12 3.73 C-3.32 -0.02 -3.32 -0.02 0 0 Z " fill="#FDE892" transform="translate(377.6357421875,48.013427734375)"/>
<path d="M0 0 C1.28 -0 2.55 -0 3.87 -0.01 C6.57 -0.01 9.27 0 11.97 0.03 C15.41 0.07 18.84 0.06 22.27 0.04 C25.58 0.03 28.88 0.05 32.19 0.06 C34.01 0.06 34.01 0.06 35.88 0.05 C46.88 0.2 56.97 2.71 64.99 10.63 C71.97 19.06 75.84 28.26 75.43 39.26 C74.09 49.5 69.71 57.81 61.99 64.63 C54.33 70.38 46.82 72.68 37.25 72.84 C36.15 72.86 35.04 72.88 33.9 72.9 C28.9 72.95 23.89 73 18.89 73.03 C16.25 73.06 13.61 73.09 10.97 73.14 C7.15 73.2 3.34 73.23 -0.48 73.25 C-1.66 73.28 -2.84 73.31 -4.06 73.33 C-9.05 73.32 -12.05 73.27 -16.25 70.45 C-19.47 65.32 -18.72 58.69 -18.67 52.88 C-18.68 51.53 -18.68 50.18 -18.69 48.83 C-18.69 46.02 -18.68 43.2 -18.66 40.39 C-18.63 36.79 -18.65 33.19 -18.68 29.59 C-18.7 26.81 -18.69 24.03 -18.68 21.25 C-18.67 19.28 -18.69 17.31 -18.7 15.34 C-18.64 10.41 -18.58 6.73 -16.28 2.32 C-11.01 -0.4 -5.85 -0.06 0 0 Z " fill="#040402" transform="translate(241.0078125,166.37109375)"/>
<path d="M0 0 C7.79 -0.06 15.58 -0.12 23.37 -0.16 C27 -0.17 30.63 -0.19 34.26 -0.23 C37.76 -0.26 41.26 -0.28 44.76 -0.28 C46.74 -0.29 48.71 -0.32 50.68 -0.34 C61.53 -0.34 69.09 1.14 77.05 8.77 C82.03 14.46 83.83 20.56 83.51 28.09 C82.23 35.39 78.85 42 73 46.62 C67.87 50.15 62.69 51.25 56.54 51.23 C55.27 51.23 54.01 51.23 52.71 51.23 C51.35 51.22 49.99 51.21 48.63 51.2 C47.23 51.19 45.83 51.19 44.42 51.19 C40.74 51.18 37.06 51.16 33.38 51.14 C29.62 51.12 25.86 51.11 22.1 51.1 C14.73 51.08 7.37 51.04 0 51 C0 34.17 0 17.34 0 0 Z " fill="#F9A200" transform="translate(238,279)"/>
<path d="M0 0 C0 0.66 0 1.32 0 2 C-1.89 3.28 -3.84 4.47 -5.81 5.62 C-20.91 14.64 -34.27 25.92 -47 38 C-47.53 38.51 -48.07 39.01 -48.62 39.53 C-56.92 47.44 -64.18 55.79 -71 65 C-71.43 65.57 -71.86 66.15 -72.3 66.74 C-78.81 75.48 -84.59 84.54 -90 94 C-90.66 95.12 -91.31 96.25 -91.99 97.4 C-104.75 120.14 -113.64 146.31 -118 172 C-118.13 172.73 -118.27 173.46 -118.41 174.22 C-123.15 200.85 -122.68 229.41 -118 256 C-117.84 256.94 -117.69 257.89 -117.53 258.86 C-113.94 280.19 -107.47 301.85 -97.25 320.99 C-95.87 323.63 -95 325.62 -94.98 328.62 C-96.35 331.82 -98.43 333.7 -101 336 C-110.85 318.7 -118.72 300.21 -124 281 C-124.31 279.91 -124.62 278.82 -124.94 277.7 C-127.46 268.59 -129.37 259.48 -130.75 250.12 C-130.86 249.4 -130.96 248.68 -131.07 247.93 C-139.99 185.97 -123.49 122.48 -86.39 72.17 C-73.77 55.46 -59.48 39.95 -43 27 C-42.04 26.22 -41.07 25.44 -40.08 24.64 C-9.08 0 -9.08 0 0 0 Z " fill="#EBC900" transform="translate(148,41)"/>
<path d="M0 0 C2.97 1.65 5.94 3.3 9 5 C11.71 5.96 11.71 5.96 14.06 6.31 C15.36 6.54 16.66 6.77 18 7 C18 7.57 18 8.15 18.01 8.74 C18.07 22.69 18.14 36.65 18.24 50.6 C18.28 57.35 18.32 64.1 18.35 70.85 C18.37 77.36 18.41 83.87 18.46 90.38 C18.48 92.86 18.49 95.35 18.5 97.84 C18.51 101.31 18.54 104.79 18.57 108.26 C18.57 109.81 18.57 109.81 18.56 111.39 C18.58 112.82 18.58 112.82 18.6 114.27 C18.61 115.09 18.61 115.91 18.62 116.76 C19.1 119.59 20.03 120.92 22 123 C23.32 123.66 24.64 124.32 26 125 C25.67 129.62 25.34 134.24 25 139 C25.66 139.33 26.32 139.66 27 140 C25.3 140.43 25.3 140.43 23.56 140.88 C22.39 141.25 21.21 141.62 20 142 C18.72 144.57 18.67 146.77 18.44 149.62 C18.31 151.13 18.31 151.13 18.18 152.66 C18.12 153.43 18.06 154.21 18 155 C17.29 155.17 16.57 155.34 15.84 155.52 C14.88 155.76 13.92 156 12.94 156.25 C12 156.48 11.06 156.71 10.09 156.95 C6.2 158.16 6.2 158.16 0 162 C0 108.54 0 55.08 0 0 Z " fill="#F48D00" transform="translate(165,175)"/>
<path d="M0 0 C6.55 -0.09 13.09 -0.17 19.64 -0.22 C21.87 -0.24 24.09 -0.27 26.32 -0.3 C29.52 -0.35 32.73 -0.37 35.94 -0.39 C36.92 -0.41 37.91 -0.43 38.93 -0.45 C46.16 -0.46 51.56 0.97 57.06 5.82 C57.74 6.68 57.74 6.68 58.44 7.56 C58.91 8.14 59.38 8.72 59.87 9.32 C63.3 14.43 62.38 21.13 62 27 C60.29 32.76 55.89 36.68 51 40 C45.53 42.38 40.42 42.26 34.57 42.2 C33.58 42.19 32.59 42.19 31.57 42.19 C28.42 42.18 25.27 42.15 22.12 42.12 C19.98 42.11 17.84 42.11 15.7 42.1 C10.47 42.08 5.23 42.04 0 42 C0 28.14 0 14.28 0 0 Z " fill="#FEBC00" transform="translate(238,182)"/>
<path d="M0 0 C3.91 1.8 6.45 4.34 9.38 7.44 C15.73 14 22.71 19.52 30 25 C28.36 29.2 25.27 31.99 22.12 35.08 C21.54 35.65 20.97 36.22 20.38 36.81 C18.55 38.63 16.71 40.44 14.88 42.25 C13.63 43.48 12.39 44.72 11.14 45.95 C8.1 48.97 5.05 51.99 2 55 C-3.53 51.01 -8.62 46.76 -13.56 42.06 C-14.18 41.48 -14.8 40.9 -15.44 40.3 C-19.71 36.28 -23.88 32.17 -28 28 C-18.67 18.67 -9.33 9.33 0 0 Z " fill="#FEDD4F" transform="translate(106,391)"/>
<path d="M0 0 C10.57 8.73 20.37 18.56 28 30 C18.76 39.24 9.52 48.48 0 58 C-3.46 56.85 -3.93 56.07 -6 53.19 C-12.27 44.86 -19.53 37.26 -27 30 C-25.4 26.01 -22.61 23.37 -19.59 20.43 C-19.06 19.91 -18.53 19.39 -17.99 18.85 C-16.31 17.18 -14.62 15.53 -12.94 13.88 C-11.25 12.21 -9.56 10.55 -7.87 8.88 C-6.83 7.85 -5.77 6.81 -4.72 5.78 C-2.02 3.15 -2.02 3.15 0 0 Z " fill="#FDDC4F" transform="translate(418,78)"/>
<path d="M0 0 C7.79 -0.06 15.58 -0.12 23.37 -0.16 C27 -0.17 30.63 -0.19 34.26 -0.23 C37.76 -0.26 41.26 -0.28 44.76 -0.28 C46.74 -0.29 48.71 -0.32 50.68 -0.34 C61.53 -0.34 69.09 1.14 77.05 8.77 C82.03 14.46 83.83 20.56 83.51 28.09 C82.23 35.39 78.85 42 73 46.62 C66.71 50.67 61.32 51.29 54 51 C54.39 50.54 54.77 50.08 55.17 49.6 C62.15 40.86 64.81 33.05 64.53 21.77 C63.69 15.79 61.25 11.03 58 6 C57.58 5.3 57.16 4.6 56.73 3.88 C55.14 1.79 55.14 1.79 52.59 1.48 C51.64 1.47 50.68 1.46 49.7 1.45 C48.62 1.43 47.54 1.41 46.43 1.39 C45.26 1.39 44.1 1.39 42.89 1.39 C41.1 1.37 41.1 1.37 39.28 1.34 C35.45 1.29 31.63 1.27 27.81 1.25 C25.22 1.22 22.64 1.19 20.05 1.16 C13.7 1.08 7.35 1.04 1 1 C1 17.5 1 34 1 51 C0.67 51 0.34 51 0 51 C0 34.17 0 17.34 0 0 Z " fill="#E48500" transform="translate(238,279)"/>
<path d="M0 0 C0.33 0 0.66 0 1 0 C1 13.53 1 27.06 1 41 C6.84 41 12.67 41 18.69 41 C20.52 41.02 22.36 41.04 24.24 41.06 C32.17 41.29 32.17 41.29 39.19 38.33 C40.53 36.23 41.3 34.38 42 32 C42.42 31.14 42.85 30.28 43.29 29.39 C45.38 22.39 44.9 14.97 41.69 8.44 C40.01 5.44 38.1 2.72 36 0 C43.21 -0.48 49.06 -0.46 55 4 C59.06 7.9 61.8 11.12 62.2 16.93 C62.38 29.5 62.38 29.5 57.23 34.84 C50.14 41.48 44.01 42.3 34.57 42.2 C33.58 42.19 32.59 42.19 31.57 42.19 C28.42 42.18 25.27 42.15 22.12 42.12 C19.98 42.11 17.84 42.11 15.7 42.1 C10.47 42.08 5.23 42.04 0 42 C0 28.14 0 14.28 0 0 Z " fill="#E58600" transform="translate(238,182)"/>
<path d="M0 0 C-0.41 0.6 -0.82 1.21 -1.24 1.83 C-1.78 2.63 -2.32 3.43 -2.88 4.25 C-3.41 5.04 -3.94 5.83 -4.49 6.64 C-8.76 13.32 -8.7 19.13 -8 27 C-6.47 32.99 -3.95 37.27 0 42 C-8.06 41.86 -14.87 41.68 -21 36 C-25.58 30.77 -27.33 26.26 -27.21 19.41 C-26.71 13.59 -24.96 9.52 -20.56 5.62 C-14.16 0.5 -8.09 -0.16 0 0 Z " fill="#F38D00" transform="translate(165,133)"/>
<path d="M0 0 C0.99 0.01 1.99 0.02 3.01 0.03 C4.15 0.04 4.15 0.04 5.31 0.06 C4.89 0.75 4.47 1.44 4.04 2.14 C3.49 3.05 2.94 3.95 2.38 4.88 C1.56 6.21 1.56 6.21 0.72 7.58 C-1.81 12.04 -1.98 16.25 -2.25 21.25 C-2.39 23.83 -2.54 26.41 -2.69 29.06 C-8.63 29.06 -14.57 29.06 -20.69 29.06 C-21.32 12.59 -21.32 12.59 -16.69 7.06 C-11.39 2.21 -7.27 -0.09 0 0 Z " fill="#F38D00" transform="translate(202.6875,96.9375)"/>
<path d="M0 0 C0.99 0.01 1.99 0.02 3.01 0.03 C4.15 0.04 4.15 0.04 5.31 0.06 C4.89 0.75 4.47 1.44 4.04 2.14 C3.49 3.05 2.94 3.95 2.38 4.88 C1.56 6.21 1.56 6.21 0.72 7.58 C-1.81 12.04 -1.98 16.24 -2.25 21.25 C-2.29 22 -2.34 22.75 -2.38 23.52 C-2.49 25.37 -2.59 27.22 -2.69 29.06 C-5.99 29.06 -9.29 29.06 -12.69 29.06 C-12.76 27.58 -12.76 27.58 -12.84 26.06 C-13.21 19.21 -13.67 12.67 -15.69 6.06 C-14.59 5.25 -13.48 4.43 -12.38 3.62 C-11.76 3.17 -11.15 2.72 -10.51 2.25 C-7.02 -0.03 -4.05 -0.05 0 0 Z " fill="#ED8900" transform="translate(267.6875,96.9375)"/>
<path d="M0 0 C3.49 1.46 5.37 3.32 7.81 6.19 C14.19 13.47 21.11 20.2 28 27 C27.34 28.32 26.68 29.64 26 31 C20.47 27.01 15.38 22.76 10.44 18.06 C9.82 17.48 9.2 16.9 8.56 16.3 C4.29 12.28 0.12 8.17 -4 4 C-2.68 2.68 -1.36 1.36 0 0 Z " fill="#E8C702" transform="translate(82,415)"/>
</svg>
