<?xml version="1.0" encoding="UTF-8"?>
<!-- Generator: visioncortex VTracer 0.6.3 -->
<svg version="1.1" xmlns="http://www.w3.org/2000/svg" width="500" height="500">
<path d="M0 0 C165 0 330 0 500 0 C500 165 500 330 500 500 C335 500 170 500 0 500 C0 335 0 170 0 0 Z " fill="#FEFEFE" transform="translate(0,0)"/>
<path d="M0 0 C2.09 1.6 4.04 3.25 6 5 C6.56 4.47 7.11 3.94 7.69 3.39 C12.5 -1.06 16.92 -4.52 23 -7 C23.91 -7.41 24.81 -7.83 25.75 -8.25 C36.08 -10.63 46.07 -8.89 55.29 -3.71 C62.37 1.19 68.22 8.18 70.57 16.55 C72.1 25.18 71.03 32.85 68 41 C69.18 41.37 70.35 41.74 71.56 42.12 C103.27 52.86 129.74 70.18 154 93 C154.71 93.65 155.42 94.31 156.15 94.98 C162.5 101.05 167.73 108.01 173 115 C173.65 115.86 173.65 115.86 174.32 116.74 C206.33 159.24 221.04 214.74 213.71 267.51 C213.62 268.15 213.53 268.78 213.44 269.43 C212.3 276.7 212.3 276.7 215.27 283.13 C216.24 284.15 217.24 285.14 218.25 286.12 C219.24 287.13 220.22 288.13 221.2 289.13 C221.68 289.61 222.15 290.09 222.64 290.58 C227.73 295.9 229.45 299.49 229.34 306.91 C228.72 310.72 226.69 313.31 224 316 C219.28 319.33 214.61 319.9 209 319 C206.12 317.89 203.69 316.56 201 315 C200.67 316.13 200.34 317.27 200 318.44 C195.55 331.63 188.75 343.64 181.13 355.23 C179.89 357.08 179.89 357.08 178.79 359.57 C177 362 177 362 174.42 362.62 C172.86 362.62 172.86 362.62 171.26 362.62 C170.05 362.63 168.85 362.64 167.61 362.65 C166.27 362.63 164.92 362.62 163.58 362.6 C162.16 362.6 160.74 362.61 159.32 362.61 C155.4 362.63 151.48 362.61 147.57 362.58 C143.35 362.56 139.13 362.57 134.91 362.57 C127.6 362.57 120.29 362.56 112.98 362.53 C102.4 362.49 91.83 362.47 81.26 362.47 C64.11 362.46 46.95 362.42 29.8 362.38 C13.14 362.33 -3.53 362.3 -20.19 362.27 C-21.73 362.27 -21.73 362.27 -23.3 362.27 C-28.45 362.26 -33.6 362.26 -38.76 362.25 C-81.5 362.2 -124.25 362.11 -167 362 C-167.54 361.05 -168.08 360.11 -168.63 359.13 C-169.35 357.87 -170.07 356.61 -170.79 355.35 C-171.31 354.42 -171.31 354.42 -171.85 353.47 C-173.98 349.74 -176.17 346.07 -178.44 342.44 C-183.55 333.76 -187.17 324.3 -191 315 C-191.79 315.42 -191.79 315.42 -192.59 315.86 C-197.95 318.66 -201.92 320.11 -208 319 C-212.82 316.64 -215.67 313.84 -218 309 C-218.78 304.11 -218.83 300.47 -216.36 296.09 C-213.26 292.03 -209.74 288.49 -206.07 284.94 C-205.55 284.41 -205.02 283.87 -204.48 283.32 C-203.77 282.61 -203.77 282.61 -203.04 281.89 C-200.49 277.25 -202.19 271.17 -202.98 266.17 C-204.23 257.53 -204.35 248.97 -204.31 240.25 C-204.31 239.46 -204.31 238.67 -204.31 237.85 C-204.26 226.8 -203.92 216.06 -201.5 205.23 C-200.94 202.75 -200.46 200.25 -199.97 197.75 C-191.98 158.4 -172.64 123.87 -145 95 C-144.53 94.5 -144.06 94.01 -143.58 93.49 C-120.93 69.62 -89.28 48.51 -57 41 C-57.31 40.46 -57.62 39.93 -57.94 39.38 C-61.41 31.62 -61.32 20.76 -58.56 12.81 C-53.66 2.31 -45.61 -3.84 -35 -8 C-22.4 -11.94 -10.34 -7.11 0 0 Z " fill="#F23F5E" transform="translate(234,62)"/>
<path d="M0 0 C1.01 0 2.02 0 3.06 0.01 C4.77 0.01 4.77 0.01 6.52 0.01 C7.76 0.01 9 0.02 10.28 0.02 C12.18 0.02 12.18 0.02 14.11 0.03 C17.48 0.03 20.84 0.04 24.21 0.05 C27.64 0.06 31.07 0.07 34.5 0.07 C41.24 0.08 47.98 0.1 54.72 0.12 C54.37 0.74 54.02 1.36 53.67 2 C53.22 2.81 52.76 3.62 52.3 4.45 C51.85 5.26 51.4 6.06 50.94 6.89 C49.68 9.18 48.52 11.48 47.47 13.87 C47.15 14.57 46.84 15.26 46.51 15.98 C42.87 25.78 43.68 37.6 47.72 47.12 C53.09 58.66 60.44 65.34 71.72 71.12 C76.92 72.98 81.57 73.48 87.03 73.43 C87.78 73.43 88.53 73.42 89.3 73.42 C98.73 73.21 105.56 70.6 113.49 65.52 C115.72 64.12 115.72 64.12 117.88 63.19 C120.22 61.83 120.64 60.57 121.72 58.12 C122.66 56.78 123.62 55.45 124.59 54.12 C130.97 44.53 132.98 34.53 131.72 23.12 C130.14 15.8 127.33 9.86 122.89 3.86 C121.72 2.12 121.72 2.12 121.72 0.12 C140.53 0.12 159.34 0.12 178.72 0.12 C181.46 10.42 183.2 17.67 183.15 27.81 C183.33 38.57 184.67 46.05 190.72 55.12 C192.58 63.83 192.91 72.79 193.27 81.66 C193.32 82.67 193.36 83.68 193.41 84.72 C193.51 87.19 193.62 89.65 193.72 92.12 C184.22 92.26 174.73 92.37 165.24 92.43 C160.83 92.46 156.42 92.5 152.01 92.57 C147.75 92.64 143.49 92.67 139.23 92.69 C137.61 92.7 135.99 92.72 134.37 92.75 C118.99 93.05 118.99 93.05 112.57 87.61 C105.65 82.06 95.9 82.88 87.53 82.81 C86.46 82.78 85.38 82.75 84.28 82.72 C75.69 82.65 67.41 83.63 60.95 89.73 C55.07 94.01 46.78 92.72 39.84 92.61 C38.2 92.6 36.55 92.59 34.9 92.59 C30.58 92.57 26.25 92.52 21.93 92.46 C17.51 92.41 13.1 92.39 8.68 92.36 C0.02 92.31 -8.63 92.23 -17.28 92.12 C-17.3 89.91 -17.3 87.7 -17.31 85.49 C-17.32 84.26 -17.32 83.03 -17.33 81.77 C-17.27 76.63 -16.81 71.59 -16.16 66.5 C-16.03 65.51 -15.91 64.52 -15.78 63.5 C-14.79 56.66 -13.21 51.35 -9.59 45.42 C-7 40.86 -7.25 36.53 -7.4 31.43 C-7.7 20.8 -6.46 11.27 -3.28 1.12 C-2.28 0.12 -2.28 0.12 0 0 Z " fill="#FEFEFE" transform="translate(151.28419494628906,210.87974548339844)"/>
<path d="M0 0 C2.89 1.29 4.72 2.58 6.81 4.94 C15.55 13.84 26.36 20.44 37.06 26.69 C37.95 27.22 38.85 27.75 39.77 28.29 C45.98 31.94 45.98 31.94 53 32 C55.73 30.97 58.25 29.66 60.81 28.25 C61.55 27.85 62.29 27.45 63.04 27.04 C75.44 20.14 86.62 11.87 96.78 1.98 C99 0 99 0 101 0 C102.73 2.49 104.32 4.97 105.88 7.56 C106.36 8.37 106.84 9.17 107.34 10 C138 61.64 138 61.64 138 81 C129.79 81.09 121.59 81.16 113.38 81.21 C109.57 81.23 105.76 81.26 101.95 81.3 C98.26 81.35 94.58 81.37 90.9 81.38 C89.5 81.39 88.1 81.4 86.7 81.42 C78.62 81.54 72.91 81.31 66 77 C60.54 75.05 55.55 74.58 49.81 74.56 C48.98 74.56 48.15 74.56 47.3 74.55 C40.38 74.69 32.16 75.84 27 81 C25.01 81.09 23.01 81.12 21.01 81.11 C19.73 81.11 18.45 81.11 17.13 81.11 C15.72 81.11 14.31 81.1 12.9 81.1 C11.47 81.1 10.04 81.09 8.6 81.09 C4.82 81.09 1.04 81.08 -2.74 81.07 C-6.59 81.06 -10.44 81.05 -14.3 81.05 C-21.87 81.04 -29.43 81.02 -37 81 C-36.47 76.77 -35.8 72.91 -34.32 68.91 C-33.97 67.97 -33.63 67.04 -33.27 66.07 C-32.89 65.08 -32.52 64.09 -32.12 63.06 C-31.73 62.01 -31.33 60.96 -30.92 59.88 C-22.88 39.11 -13.66 17.77 0 0 Z " fill="#FEFDFD" transform="translate(189,123)"/>
<path d="M0 0 C1.94 2.25 1.94 2.25 3 5 C1.71 9.48 -0.98 13.04 -3.62 16.81 C-8.45 23.88 -12.34 31.15 -15.99 38.88 C-17.03 41.06 -18.1 43.23 -19.18 45.39 C-26.75 60.75 -32.67 76.74 -38 93 C-41.19 93.12 -44.37 93.19 -47.56 93.25 C-48.46 93.28 -49.35 93.32 -50.28 93.35 C-56.55 93.44 -59.77 92.42 -65 89 C-70.21 86.74 -75.09 86.62 -80.69 86.62 C-81.57 86.63 -82.46 86.63 -83.37 86.63 C-91.55 86.77 -98.15 88.44 -105 93 C-108.36 93.2 -108.36 93.2 -112.19 93.12 C-113.46 93.11 -114.73 93.09 -116.04 93.07 C-117.02 93.05 -117.99 93.02 -119 93 C-106.26 67.61 -85.74 45.75 -63 29 C-62.15 28.37 -61.3 27.73 -60.43 27.08 C-16 -5.01 -16 -5.01 0 0 Z " fill="#FEFDFD" transform="translate(182,111)"/>
<path d="M0 0 C7.84 1.18 14.66 3.64 21.88 6.88 C22.96 7.36 24.05 7.84 25.17 8.34 C40.63 15.39 54.95 24.1 68 35 C68.87 35.72 68.87 35.72 69.76 36.45 C80.97 45.76 90.99 55.5 100 67 C100.75 67.96 101.51 68.92 102.29 69.91 C117 89.07 117 89.07 117 94 C102.66 94.72 102.66 94.72 96 90 C90.78 87.76 85.9 87.62 80.31 87.62 C79.43 87.63 78.54 87.63 77.63 87.63 C69.45 87.77 62.85 89.44 56 94 C53.92 94.23 53.92 94.23 51.55 94.2 C50.28 94.19 50.28 94.19 48.98 94.18 C48.1 94.16 47.22 94.14 46.31 94.12 C45.42 94.12 44.53 94.11 43.61 94.1 C41.4 94.07 39.2 94.04 37 94 C36.72 93.22 36.45 92.43 36.16 91.63 C26.15 63.35 15.23 34.64 -2.73 10.31 C-4 8 -4 8 -3.89 5.94 C-2.86 3.7 -1.5 1.95 0 0 Z " fill="#FEFDFD" transform="translate(298,110)"/>
<path d="M0 0 C2 0 2 0 3.3 1.29 C3.82 1.92 4.34 2.54 4.88 3.19 C8.21 7.11 11.64 10.91 15.12 14.69 C15.63 15.23 16.13 15.78 16.65 16.34 C23.18 24.22 23.18 24.22 32.11 28.34 C37.56 28.43 41.76 27.66 46 24 C47.7 22.02 49.23 19.96 50.76 17.86 C53.76 14.02 57.05 10.49 60.38 6.94 C61.01 6.26 61.64 5.58 62.29 4.88 C65.7 1.24 65.7 1.24 67 0 C67.33 0 67.66 0 68 0 C68 21.45 68 42.9 68 65 C45.56 65 23.12 65 0 65 C0 43.55 0 22.1 0 0 Z " fill="#FEFBFC" transform="translate(136,352)"/>
<path d="M0 0 C6.7 5.58 6.7 5.58 9.12 8.5 C12.42 12.35 15.78 16.13 19.19 19.88 C19.95 20.73 19.95 20.73 20.74 21.61 C24.17 25.36 26.52 27.6 31.55 28.41 C38.05 28.64 38.05 28.64 43.62 25.69 C47.23 22.04 50.39 17.97 53.58 13.97 C56.14 10.83 58.78 7.81 61.5 4.81 C62.34 3.89 63.17 2.97 64.03 2.02 C64.68 1.35 65.33 0.69 66 0 C66.33 0 66.66 0 67 0 C67 21.45 67 42.9 67 65 C44.89 65 22.78 65 0 65 C0 43.55 0 22.1 0 0 Z " fill="#FEFDFD" transform="translate(275,352)"/>
<path d="M0 0 C2.97 0 5.94 0 9 0 C8.61 0.52 8.23 1.04 7.83 1.58 C-0.7 13.64 -2.73 25.44 -1 40 C1.75 51.02 8.73 60.5 18 67 C29.41 73.05 42.27 75.76 55 71.99 C59.06 70.45 62.74 68.95 66.22 66.33 C68 65 68 65 70 65 C69.34 72.26 68.68 79.52 68 87 C58 84 58 84 55 83 C50.82 82.74 46.63 82.77 42.44 82.75 C41.29 82.73 40.15 82.71 38.97 82.69 C29.81 82.65 22.22 83.32 14.91 89.16 C8.54 93.7 0.89 92.64 -6.56 92.38 C-8.06 92.34 -9.56 92.32 -11.06 92.29 C-14.71 92.23 -18.36 92.12 -22 92 C-22.12 83.46 -22.11 75.09 -20.88 66.62 C-20.74 65.71 -20.61 64.79 -20.48 63.85 C-17.04 41.35 -10.73 20.12 0 0 Z " fill="#FEFBFC" transform="translate(59,211)"/>
<path d="M0 0 C2.97 0 5.94 0 9 0 C23.63 29.75 29.82 58.99 31 92 C26.47 92.15 21.93 92.26 17.4 92.33 C15.86 92.36 14.32 92.4 12.78 92.45 C-2.71 92.97 -2.71 92.97 -9.14 87.49 C-18.36 80.07 -35.89 82.19 -47 83 C-51.23 83.74 -55.14 85.11 -59 87 C-61.3 72.4 -61.3 72.4 -61 65 C-60.18 65.42 -60.18 65.42 -59.34 65.84 C-56.75 67.12 -54.13 68.35 -51.5 69.56 C-50.56 70 -49.62 70.43 -48.66 70.88 C-39.16 74.88 -26.52 74.39 -16.94 70.94 C-5.84 65.95 2.68 58.08 7.38 46.75 C11.41 36.02 11.77 23.17 7.29 12.55 C5.1 8.21 2.65 4.07 0 0 Z " fill="#FEFBFC" transform="translate(411,211)"/>
<path d="M0 0 C19.47 0 38.94 0 59 0 C57.22 3.56 56.08 5.11 53.31 7.75 C50.06 10.92 47.04 14.19 44.07 17.64 C39.49 22.86 34.72 27.91 30 33 C29.29 32.28 28.57 31.57 27.84 30.83 C26.01 29.01 24.19 27.2 22.35 25.39 C17.56 20.64 12.88 15.86 8.5 10.72 C7.09 9.1 5.61 7.61 4.06 6.12 C2 4 2 4 2 2 C1.34 2 0.68 2 0 2 C0 1.34 0 0.68 0 0 Z " fill="#FEF9FA" transform="translate(279,310)"/>
<path d="M0 0 C19.8 0 39.6 0 60 0 C53.3 8.94 53.3 8.94 49.06 13 C44.81 17.16 40.85 21.46 37 26 C35.85 27.33 34.71 28.67 33.56 30 C32.72 30.99 31.87 31.98 31 33 C24.55 27.87 19.15 21.87 13.63 15.79 C11.95 13.95 10.26 12.12 8.56 10.3 C8 9.71 7.45 9.11 6.88 8.5 C5.81 7.35 4.73 6.2 3.66 5.05 C0 1.11 0 1.11 0 0 Z " fill="#FEFAFB" transform="translate(140,310)"/>
<path d="M0 0 C0.33 0 0.66 0 1 0 C1 18.15 1 36.3 1 55 C-2.22 51.78 -3.92 48.53 -5.88 44.5 C-6.23 43.79 -6.58 43.07 -6.94 42.33 C-7.96 40.23 -8.98 38.11 -10 36 C-10.53 34.93 -11.05 33.85 -11.6 32.75 C-12.04 31.82 -12.48 30.89 -12.94 29.94 C-13.32 29.14 -13.7 28.35 -14.09 27.53 C-15.29 24.2 -15.95 21.56 -16 18 C-14.34 15.59 -12.95 13.92 -10.88 11.94 C-9.89 10.95 -8.91 9.96 -7.93 8.96 C-7.44 8.48 -6.96 8 -6.46 7.51 C-4.95 5.94 -3.57 4.31 -2.2 2.63 C-1.47 1.76 -0.75 0.89 0 0 Z " fill="#FEF2F4" transform="translate(65,351)"/>
<path d="M0 0 C2 0 2 0 3.45 1.43 C4.62 2.84 5.8 4.25 6.97 5.66 C8.98 8.05 8.98 8.05 11.31 10.22 C12.05 10.95 12.8 11.68 13.56 12.44 C14.62 13.43 14.62 13.43 15.69 14.43 C17.45 17.89 16.91 19.76 15.91 23.42 C14.17 28.38 11.89 33.05 9.56 37.75 C9.07 38.76 8.58 39.78 8.08 40.82 C5.88 45.33 3.71 49.78 1 54 C0.67 54 0.34 54 0 54 C0 36.18 0 18.36 0 0 Z " fill="#FEF7F8" transform="translate(413,352)"/>
<path d="M0 0 C8.25 0 16.5 0 25 0 C24 17.14 24 17.14 23 24 C19.76 22.92 19.21 22.35 17.12 19.81 C13.01 14.94 8.65 10.3 4.27 5.66 C0 1.11 0 1.11 0 0 Z " fill="#FEF5F6" transform="translate(417,310)"/>
<path d="M0 0 C7.92 0 15.84 0 24 0 C22.22 3.56 21.08 5.11 18.31 7.75 C14.91 11.06 11.78 14.49 8.74 18.14 C6.67 20.35 4.4 22.15 2 24 C1.66 21.69 1.33 19.38 1 17.06 C0.81 15.77 0.63 14.49 0.44 13.16 C-0.02 8.8 0 4.39 0 0 Z " fill="#FEF5F7" transform="translate(37,310)"/>
<path d="M0 0 C2.31 0 4.62 0 7 0 C6.67 2.64 6.34 5.28 6 8 C3.33 5.51 1.44 3.37 0 0 Z " fill="#FDEBEE" transform="translate(134,211)"/>
<path d="M0 0 C2.64 0 5.28 0 8 0 C5.52 3.47 5.52 3.47 3 7 C2.34 6.67 1.68 6.34 1 6 C0.38 2.94 0.38 2.94 0 0 Z " fill="#FEF1F3" transform="translate(337,211)"/>
</svg>
