<?xml version="1.0" encoding="UTF-8"?>
<!-- Generator: visioncortex VTracer 0.6.3 -->
<svg version="1.1" xmlns="http://www.w3.org/2000/svg" width="218" height="231">
<path d="M0 0 C71.94 0 143.88 0 218 0 C218 76.23 218 152.46 218 231 C146.06 231 74.12 231 0 231 C0 154.77 0 78.54 0 0 Z " fill="#FDFEFE" transform="translate(0,0)"/>
<path d="M0 0 C0.77 0.2 1.53 0.41 2.32 0.62 C3.41 23.78 3.41 23.78 3.51 33.93 C3.53 35.17 3.54 36.4 3.55 37.67 C3.32 40.62 3.32 40.62 1.32 43.62 C-1.54 43.05 -2.54 42.76 -4.68 40.62 C-5.74 29.83 -4.28 18.43 -3.68 7.62 C-4.67 7.62 -5.66 7.62 -6.68 7.62 C-6.66 8.88 -6.63 10.14 -6.61 11.43 C-6.61 14.91 -6.81 18.29 -7.18 21.75 C-8.96 33.69 -8.96 33.69 -6.34 44.91 C-4.57 46.77 -4.57 46.77 -1.68 48.62 C1.75 47.15 4.03 45.58 6.32 42.62 C6.65 39.79 6.75 37.38 6.64 34.56 C6.62 33.78 6.61 32.99 6.59 32.19 C6.5 27.92 6.28 23.65 6.02 19.39 C5.96 18.54 5.91 17.69 5.86 16.81 C5.75 15.18 5.64 13.54 5.51 11.9 C5.21 7.6 5.26 4.56 7.32 0.62 C14.57 0.96 21.05 2.34 26.32 7.62 C25.93 11.53 24.49 14.94 23 18.55 C22.55 19.68 22.1 20.8 21.63 21.96 C20.68 24.31 19.72 26.66 18.74 29.01 C15.26 37.17 15.26 37.17 16.32 45.62 C17.72 47.15 17.72 47.15 19.7 47.81 C20.41 48.11 21.12 48.4 21.85 48.71 C22.66 49.01 23.48 49.31 24.32 49.62 C25.31 49.99 26.29 50.37 27.3 50.75 C29.97 51.74 32.64 52.69 35.32 53.62 C35.32 55.27 35.32 56.92 35.32 58.62 C11.89 58.62 -11.54 58.62 -35.68 58.62 C-35.78 52.56 -35.88 46.49 -35.99 40.25 C-36.03 38.35 -36.08 36.46 -36.13 34.51 C-36.27 24.61 -36 16.48 -29 8.77 C-24.13 4.04 -17.88 0.85 -11.11 0.37 C-10.31 0.45 -9.5 0.54 -8.68 0.62 C-8.35 1.61 -8.02 2.6 -7.68 3.62 C-6.59 2.6 -6.59 2.6 -5.49 1.56 C-2.68 -0.38 -2.68 -0.38 0 0 Z " fill="#65656A" transform="translate(90.67578125,87.37890625)"/>
<path d="M0 0 C71.94 0 143.88 0 218 0 C218 3.96 218 7.92 218 12 C146.06 12 74.12 12 0 12 C0 8.04 0 4.08 0 0 Z " fill="#1174A7" transform="translate(0,219)"/>
<path d="M0 0 C3.92 0.92 7.12 2.17 10.75 3.88 C10.42 4.53 10.09 5.19 9.75 5.88 C7.44 5.22 5.13 4.56 2.75 3.88 C4.14 6.65 5.71 6.87 8.56 8 C9.87 8.53 9.87 8.53 11.21 9.07 C13.94 10.08 13.94 10.08 17.75 9.88 C17.75 10.86 17.75 11.86 17.75 12.88 C19.07 12.88 20.39 12.88 21.75 12.88 C21.75 12.22 21.75 11.56 21.75 10.88 C22.41 10.88 23.07 10.88 23.75 10.88 C23.42 12.86 23.09 14.84 22.75 16.88 C23.74 17.2 24.73 17.53 25.75 17.88 C25.2 22.71 24.2 26.82 22.39 31.33 C21.91 32.53 21.44 33.72 20.95 34.96 C20.44 36.2 19.94 37.44 19.44 38.69 C18.95 39.91 18.46 41.13 17.96 42.38 C16.57 45.88 15.16 49.38 13.75 52.88 C12.96 54.84 12.18 56.8 11.39 58.76 C11.07 59.56 10.75 60.36 10.43 61.19 C10.2 61.74 9.98 62.3 9.75 62.88 C2.7 62.37 -3.39 59.66 -9.88 57 C-10.99 56.55 -12.11 56.11 -13.27 55.64 C-18.17 53.66 -22.76 51.69 -27.25 48.88 C-26.67 43.3 -25.22 38.59 -23.16 33.39 C-22.86 32.6 -22.55 31.82 -22.24 31.01 C-21.6 29.36 -20.95 27.72 -20.3 26.08 C-19.31 23.56 -18.33 21.03 -17.35 18.51 C-16.73 16.9 -16.1 15.3 -15.47 13.7 C-15.18 12.94 -14.89 12.19 -14.59 11.41 C-12.48 6.11 -12.48 6.11 -10.25 3.88 C-9.61 3.73 -8.97 3.59 -8.31 3.44 C-6.14 3.06 -6.14 3.06 -4.94 1.25 C-3.25 -0.12 -3.25 -0.12 0 0 Z " fill="#65666A" transform="translate(137.25,81.125)"/>
<path d="M0 0 C4.07 2.78 6.45 6.51 7.76 11.2 C8.45 17.2 7.62 20.48 4.2 25.44 C1.79 28.39 -0.85 30.51 -4.24 32.2 C-9.8 32.71 -14.66 32.97 -19.74 30.52 C-24.77 25.86 -27.39 22.5 -27.68 15.64 C-27.62 9.08 -25.87 4.86 -21.24 0.2 C-14.01 -4.22 -7.2 -4.01 0 0 Z " fill="#65656A" transform="translate(100.2421875,48.796875)"/>
<path d="M0 0 C1.09 0.23 2.19 0.45 3.31 0.69 C2.32 1.18 2.32 1.18 1.31 1.69 C1.31 2.68 1.31 3.67 1.31 4.69 C-1 4.36 -3.31 4.03 -5.69 3.69 C-5.36 4.22 -5.03 4.76 -4.69 5.31 C-3.46 8.23 -3.55 10.56 -3.69 13.69 C-5.67 14.68 -5.67 14.68 -7.69 15.69 C-7.69 16.35 -7.69 17.01 -7.69 17.69 C-9.01 17.69 -10.33 17.69 -11.69 17.69 C-12.02 18.35 -12.35 19.01 -12.69 19.69 C-13.68 19.69 -14.67 19.69 -15.69 19.69 C-15.69 20.68 -15.69 21.67 -15.69 22.69 C-11.36 23.43 -7.03 24.08 -2.69 24.69 C-3.03 21.72 -3.03 21.72 -3.69 18.69 C-4.35 18.36 -5.01 18.03 -5.69 17.69 C-5.69 17.03 -5.69 16.37 -5.69 15.69 C-1.12 16.39 2.88 18 7.12 19.75 C7.82 20.03 8.51 20.31 9.22 20.6 C10.92 21.29 12.62 21.99 14.31 22.69 C14.31 23.35 14.31 24.01 14.31 24.69 C10.34 24.13 7.01 23.19 3.31 21.69 C2.32 21.69 1.33 21.69 0.31 21.69 C0.64 23.01 0.97 24.33 1.31 25.69 C2.63 26.02 3.95 26.35 5.31 26.69 C5.31 27.35 5.31 28.01 5.31 28.69 C7.29 28.69 9.27 28.69 11.31 28.69 C11.31 29.35 11.31 30.01 11.31 30.69 C11.97 31.02 12.63 31.35 13.31 31.69 C14.34 33 15.35 34.33 16.31 35.69 C15.32 36.18 15.32 36.18 14.31 36.69 C10.94 35.5 7.68 34.1 4.38 32.72 C1.32 31.35 1.32 31.35 -1.69 32.69 C3.26 34.67 8.21 36.65 13.31 38.69 C13.31 40.35 13.31 42.02 13.31 43.69 C12.65 43.69 11.99 43.69 11.31 43.69 C11.31 44.68 11.31 45.67 11.31 46.69 C4.25 44.7 -2.52 42.28 -9.31 39.5 C-10.68 38.95 -10.68 38.95 -12.07 38.38 C-14.28 37.49 -16.48 36.59 -18.69 35.69 C-18.69 36.35 -18.69 37.01 -18.69 37.69 C-20.67 37.69 -22.65 37.69 -24.69 37.69 C-21.74 29.16 -18.75 20.65 -15.44 12.25 C-14.96 11.03 -14.48 9.82 -13.98 8.57 C-12.69 5.69 -12.69 5.69 -10.69 3.69 C-10.05 3.54 -9.41 3.4 -8.75 3.25 C-6.58 2.87 -6.58 2.87 -5.38 1.06 C-3.69 -0.31 -3.69 -0.31 0 0 Z " fill="#69696D" transform="translate(137.6875,81.3125)"/>
<path d="M0 0 C0.77 0.2 1.53 0.41 2.32 0.62 C3.41 23.78 3.41 23.78 3.51 33.93 C3.53 35.17 3.54 36.4 3.55 37.67 C3.32 40.62 3.32 40.62 1.32 43.62 C-1.54 43.05 -2.54 42.76 -4.68 40.62 C-5.74 29.83 -4.28 18.43 -3.68 7.62 C-4.67 7.62 -5.66 7.62 -6.68 7.62 C-7.01 6.3 -7.34 4.98 -7.68 3.62 C-3.33 -0.47 -3.33 -0.47 0 0 Z " fill="#67686A" transform="translate(90.67578125,87.37890625)"/>
<path d="M0 0 C6.27 0 12.54 0 19 0 C19 1.98 19 3.96 19 6 C14 6.17 9 6.33 4 6.48 C2.31 6.54 0.61 6.59 -1.09 6.65 C-3.54 6.73 -5.99 6.81 -8.44 6.88 C-9.19 6.91 -9.94 6.93 -10.72 6.96 C-15.27 7.09 -19.49 6.73 -24 6 C-25.98 5.94 -27.96 5.91 -29.94 5.94 C-30.9 5.95 -31.85 5.96 -32.84 5.96 C-33.91 5.98 -33.91 5.98 -35 6 C-35 5.34 -35 4.68 -35 4 C-30.98 3.26 -27.1 2.84 -23.02 2.72 C-21.92 2.68 -20.82 2.64 -19.68 2.61 C-17.38 2.53 -15.07 2.46 -12.77 2.39 C-11.68 2.36 -10.58 2.32 -9.45 2.28 C-8.45 2.25 -7.46 2.22 -6.43 2.19 C-3.99 2.15 -3.99 2.15 -2 1 C-1.34 1.33 -0.68 1.66 0 2 C0 1.34 0 0.68 0 0 Z " fill="#1473A9" transform="translate(199,220)"/>
<path d="M0 0 C4.57 0.7 8.57 2.31 12.81 4.06 C13.51 4.34 14.2 4.63 14.91 4.92 C16.61 5.61 18.31 6.3 20 7 C20 7.66 20 8.32 20 9 C16.03 8.45 12.7 7.5 9 6 C8.01 6 7.02 6 6 6 C6.33 7.32 6.66 8.64 7 10 C8.32 10.33 9.64 10.66 11 11 C11 11.66 11 12.32 11 13 C12.98 13 14.96 13 17 13 C17 13.66 17 14.32 17 15 C17.66 15.33 18.32 15.66 19 16 C20.03 17.31 21.04 18.64 22 20 C20 21 20 21 17.22 20.15 C10.51 17.56 10.51 17.56 7.94 16.54 C5.95 15.75 3.95 14.99 1.94 14.22 C0.68 13.73 -0.58 13.23 -1.85 12.73 C-3 12.28 -4.16 11.83 -5.35 11.37 C-8 10 -8 10 -9 7 C-7.42 7.5 -7.42 7.5 -5.81 8 C-2.61 8.84 -0.26 9.2 3 9 C2.66 6.03 2.66 6.03 2 3 C1.34 2.67 0.68 2.34 0 2 C0 1.34 0 0.68 0 0 Z " fill="#6A6B70" transform="translate(132,97)"/>
<path d="M0 0 C1.81 1.12 1.81 1.12 3 3 C3.64 8.13 3.64 8.13 1.77 10.68 C-0.52 12.39 -1.86 12.31 -4.69 12.19 C-5.9 12.15 -5.9 12.15 -7.14 12.11 C-7.75 12.07 -8.37 12.04 -9 12 C-9.33 10.68 -9.66 9.36 -10 8 C-11.32 7.67 -12.64 7.34 -14 7 C-14.33 8.32 -14.66 9.64 -15 11 C-15 7.7 -15 4.4 -15 1 C-12.98 1.03 -10.96 1.07 -8.95 1.1 C-5.69 0.93 -3.48 -0.34 0 0 Z " fill="#A4A4A5" transform="translate(106,177)"/>
<path d="M0 0 C2.48 -0.03 4.96 -0.05 7.44 -0.06 C8.14 -0.07 8.85 -0.08 9.58 -0.09 C11.39 -0.1 13.19 -0.05 15 0 C16 1 16 1 16.1 3.07 C16.09 3.89 16.07 4.71 16.06 5.56 C16.05 6.39 16.04 7.22 16.04 8.07 C16.02 8.7 16.01 9.34 16 10 C15.67 8.68 15.34 7.36 15 6 C13.68 6 12.36 6 11 6 C11 7.65 11 9.3 11 11 C10.01 11 9.02 11 8 11 C8 9.35 8 7.7 8 6 C6.02 6.35 6.02 6.35 4 7 C3.67 7.66 3.34 8.32 3 9 C4.32 9 5.64 9 7 9 C7 9.66 7 10.32 7 11 C4.69 11 2.38 11 0 11 C0 7.37 0 3.74 0 0 Z " fill="#BEBEBF" transform="translate(121,178)"/>
<path d="M0 0 C1.09 0.23 2.19 0.45 3.31 0.69 C2.32 1.18 2.32 1.18 1.31 1.69 C1.31 2.68 1.31 3.67 1.31 4.69 C-1 4.36 -3.31 4.03 -5.69 3.69 C-5.36 4.22 -5.03 4.76 -4.69 5.31 C-3.46 8.23 -3.55 10.56 -3.69 13.69 C-6.33 14.02 -8.97 14.35 -11.69 14.69 C-12.02 13.7 -12.35 12.71 -12.69 11.69 C-13.35 11.36 -14.01 11.03 -14.69 10.69 C-12.34 5 -12.34 5 -9.19 3.5 C-7.95 3.1 -7.95 3.1 -6.69 2.69 C-6.23 2.13 -5.78 1.57 -5.31 1 C-3.69 -0.31 -3.69 -0.31 0 0 Z " fill="#838488" transform="translate(137.6875,81.3125)"/>
<path d="M0 0 C0.66 0 1.32 0 2 0 C2 0.99 2 1.98 2 3 C2.99 3 3.98 3 5 3 C5 4.32 5 5.64 5 7 C5.66 7.33 6.32 7.66 7 8 C6.67 6.35 6.34 4.7 6 3 C9.96 3 13.92 3 18 3 C18.33 3.99 18.66 4.98 19 6 C18.34 6 17.68 6 17 6 C17.33 6.99 17.66 7.98 18 9 C13.05 9 8.1 9 3 9 C2.67 8.01 2.34 7.02 2 6 C0.68 6 -0.64 6 -2 6 C-1.49 3.83 -1 2 0 0 Z " fill="#1A77AA" transform="translate(21,222)"/>
<path d="M0 0 C3.26 0.41 6.4 0.67 9.69 0.56 C9.69 1.55 9.69 2.54 9.69 3.56 C8.7 4.06 8.7 4.06 7.69 4.56 C7.69 5.22 7.69 5.88 7.69 6.56 C2.41 6.56 -2.87 6.56 -8.31 6.56 C-7.65 4.58 -6.99 2.6 -6.31 0.56 C-3.85 -0.67 -2.71 -0.37 0 0 Z " fill="#2C87B9" transform="translate(8.3125,224.4375)"/>
<path d="M0 0 C3.94 0.67 7.45 1.84 11.18 3.29 C12.33 3.73 13.49 4.18 14.68 4.64 C15.88 5.11 17.08 5.58 18.31 6.06 C19.53 6.53 20.75 7.01 22 7.49 C25 8.66 28 9.83 31 11 C31 11.99 31 12.98 31 14 C24 12.01 17.21 9.68 10.44 7 C9.54 6.66 8.64 6.31 7.71 5.96 C6.85 5.62 6 5.29 5.12 4.94 C4.35 4.64 3.58 4.34 2.79 4.03 C1 3 1 3 0 0 Z " fill="#E6E7EA" transform="translate(120,109)"/>
<path d="M0 0 C1.89 0.03 1.89 0.03 3.81 0.06 C3.48 0.72 3.15 1.38 2.81 2.06 C2.98 2.72 3.14 3.38 3.31 4.06 C3.81 6.06 3.81 6.06 2.81 8.06 C0.16 8.66 -2.48 8.8 -5.19 9.06 C-6.95 5.97 -7.19 4.83 -7.19 1.06 C-4.44 0.15 -2.83 -0.05 0 0 Z " fill="#8E8E92" transform="translate(90.1875,45.9375)"/>
<path d="M0 0 C7.28 0.27 13.7 1.12 20 5 C20.33 5.66 20.66 6.32 21 7 C20.34 7 19.68 7 19 7 C19 7.66 19 8.32 19 9 C17.68 9 16.36 9 15 9 C14.67 8.34 14.34 7.68 14 7 C13.15 6.88 12.31 6.75 11.44 6.62 C7.14 5.84 3.8 4.07 0 2 C0 1.34 0 0.68 0 0 Z " fill="#8B8A8E" transform="translate(140,85)"/>
<path d="M0 0 C6.24 1.07 11.9 3.55 17.75 5.88 C18.91 6.32 20.07 6.77 21.27 7.23 C22.37 7.67 23.47 8.1 24.61 8.55 C26.12 9.15 26.12 9.15 27.67 9.76 C30 11 30 11 31 14 C24 12.01 17.21 9.68 10.44 7 C9.54 6.66 8.64 6.31 7.71 5.96 C6.85 5.62 6 5.29 5.12 4.94 C4.35 4.64 3.58 4.34 2.79 4.03 C1 3 1 3 0 0 Z " fill="#E9EAED" transform="translate(118,114)"/>
<path d="M0 0 C7.07 1.98 13.84 4.41 20.62 7.19 C21.53 7.56 22.44 7.92 23.38 8.3 C25.59 9.2 27.79 10.1 30 11 C30 11.99 30 12.98 30 14 C26.14 12.56 22.28 11.11 18.42 9.66 C15.65 8.61 12.87 7.59 10.08 6.59 C8.92 6.17 7.76 5.75 6.56 5.31 C5.51 4.94 4.46 4.56 3.38 4.18 C2.59 3.79 1.81 3.4 1 3 C0.67 2.01 0.34 1.02 0 0 Z " fill="#EAEAED" transform="translate(123,104)"/>
<path d="M0 0 C0.33 0 0.66 0 1 0 C1.05 1.6 1.09 3.21 1.12 4.81 C1.15 5.71 1.17 6.6 1.2 7.52 C1 10 1 10 -1 13 C-3.87 12.43 -4.86 12.14 -7 10 C-7.12 6.88 -7.12 6.88 -7 4 C-6.03 3.53 -5.06 3.05 -4.06 2.56 C-1.2 1.3 -1.2 1.3 0 0 Z " fill="#68696B" transform="translate(93,118)"/>
<path d="M0 0 C1.08 0.37 1.08 0.37 2.19 0.75 C1.86 3.06 1.53 5.37 1.19 7.75 C-0.13 7.75 -1.45 7.75 -2.81 7.75 C-2.81 9.73 -2.81 11.71 -2.81 13.75 C-3.14 13.75 -3.47 13.75 -3.81 13.75 C-3.81 11.77 -3.81 9.79 -3.81 7.75 C-4.8 7.75 -5.79 7.75 -6.81 7.75 C-7.14 6.43 -7.47 5.11 -7.81 3.75 C-3.5 -0.31 -3.5 -0.31 0 0 Z " fill="#E7E7E8" transform="translate(90.8125,87.25)"/>
<path d="M0 0 C0.99 0.5 0.99 0.5 2 1 C1.67 1.99 1.34 2.98 1 4 C2.32 4 3.64 4 5 4 C4.67 2.68 4.34 1.36 4 0 C4.99 0.33 5.98 0.66 7 1 C7 3.97 7 6.94 7 10 C4.69 10.33 2.38 10.66 0 11 C0 7.37 0 3.74 0 0 Z " fill="#747476" transform="translate(81,178)"/>
<path d="M0 0 C0 0.66 0 1.32 0 2 C-9.24 2 -18.48 2 -28 2 C-27.67 1.34 -27.34 0.68 -27 0 C-18.46 -2.27 -8.69 -0.66 0 0 Z " fill="#7EB4E0" transform="translate(214,224)"/>
<path d="M0 0 C0.75 0 1.51 0.01 2.29 0.01 C4.15 0.03 6.01 0.04 7.88 0.06 C7.88 1.05 7.88 2.04 7.88 3.06 C1.94 3.06 -4 3.06 -10.12 3.06 C-10.12 2.4 -10.12 1.74 -10.12 1.06 C-6.94 -0.53 -3.5 -0.04 0 0 Z " fill="#66A3CF" transform="translate(174.125,222.9375)"/>
<path d="M0 0 C2 -0.04 4 -0.04 6 0 C7 1 7 1 7.1 3.07 C7.09 3.89 7.07 4.71 7.06 5.56 C7.05 6.39 7.04 7.22 7.04 8.07 C7.02 9.02 7.02 9.02 7 10 C6.67 8.68 6.34 7.36 6 6 C4.35 6 2.7 6 1 6 C0.67 7.32 0.34 8.64 0 10 C0 6.7 0 3.4 0 0 Z " fill="#606060" transform="translate(130,178)"/>
<path d="M0 0 C4.57 0.7 8.57 2.31 12.81 4.06 C13.51 4.34 14.2 4.63 14.91 4.92 C16.61 5.61 18.31 6.3 20 7 C20 7.66 20 8.32 20 9 C15.16 8.41 11.04 6.92 6.62 4.94 C5.98 4.66 5.34 4.37 4.68 4.08 C3.12 3.4 1.56 2.7 0 2 C0 1.34 0 0.68 0 0 Z " fill="#ECEDF0" transform="translate(132,97)"/>
<path d="M0 0 C0.66 0 1.32 0 2 0 C2 1.32 2 2.64 2 4 C2.66 4 3.32 4 4 4 C4.66 2.68 5.32 1.36 6 0 C6 0.99 6 1.98 6 3 C6.3 4.4 6.64 5.8 7 7.19 C7.33 8.45 7.66 9.7 8 11 C6 9.62 6 9.62 4 8 C4 7.34 4 6.68 4 6 C3.34 6 2.68 6 2 6 C2 7.65 2 9.3 2 11 C1.34 11 0.68 11 0 11 C0 7.37 0 3.74 0 0 Z " fill="#8D8D8E" transform="translate(111,178)"/>
<path d="M0 0 C2.47 0.5 2.47 0.5 5 1 C5 3.31 5 5.62 5 8 C3.35 8 1.7 8 0 8 C0 5.36 0 2.72 0 0 Z " fill="#F7F7F7" transform="translate(102,179)"/>
<path d="M0 0 C1.98 0 3.96 0 6 0 C4.62 2.5 4.62 2.5 3 5 C2.34 5 1.68 5 1 5 C0.67 5.99 0.34 6.98 0 8 C-0.66 8 -1.32 8 -2 8 C-2.33 8.99 -2.66 9.98 -3 11 C-4.32 10.34 -5.64 9.68 -7 9 C-6.03 8.44 -5.06 7.89 -4.06 7.31 C-0.81 5.32 -0.81 5.32 -0.12 2.25 C-0.08 1.51 -0.04 0.77 0 0 Z " fill="#78797F" transform="translate(130,126)"/>
<path d="M0 0 C2.97 0.33 5.94 0.66 9 1 C9.33 2.65 9.66 4.3 10 6 C10.99 6.33 11.98 6.66 13 7 C12.01 8.32 11.02 9.64 10 11 C9.67 10.01 9.34 9.02 9 8 C8.01 7.67 7.02 7.34 6 7 C6 5.68 6 4.36 6 3 C4.68 2.67 3.36 2.34 2 2 C1.67 2.66 1.34 3.32 1 4 C0.67 2.68 0.34 1.36 0 0 Z " fill="#EAEAEC" transform="translate(83,80)"/>
<path d="M0 0 C5.07 0.65 9.42 2.85 14 5 C14 5.66 14 6.32 14 7 C8.65 6.47 4.64 4.53 0 2 C0 1.34 0 0.68 0 0 Z " fill="#E9E9EC" transform="translate(140,85)"/>
<path d="M0 0 C1.68 0.29 3.34 0.62 5 1 C5 2.65 5 4.3 5 6 C3.35 6 1.7 6 0 6 C-0.38 4.34 -0.71 2.68 -1 1 C-0.67 0.67 -0.34 0.34 0 0 Z " fill="#6D6D6F" transform="translate(88,87)"/>
<path d="M0 0 C0.66 0 1.32 0 2 0 C2.33 3.63 2.66 7.26 3 11 C2.01 11.5 2.01 11.5 1 12 C1 11.01 1 10.02 1 9 C0.34 9 -0.32 9 -1 9 C-1.81 6.09 -2.22 4.54 -1.06 1.69 C-0.71 1.13 -0.36 0.57 0 0 Z " fill="#E1E1E3" transform="translate(89,178)"/>
<path d="M0 0 C2.31 0.33 4.62 0.66 7 1 C6.01 1.5 6.01 1.5 5 2 C5 2.99 5 3.98 5 5 C2.69 4.67 0.38 4.34 -2 4 C-1.34 2.68 -0.68 1.36 0 0 Z " fill="#929395" transform="translate(134,81)"/>
<path d="M0 0 C3.96 0 7.92 0 12 0 C12 0.66 12 1.32 12 2 C10.56 2.17 9.13 2.33 7.69 2.5 C6.89 2.59 6.09 2.69 5.26 2.78 C3 3 3 3 0 3 C0 2.01 0 1.02 0 0 Z " fill="#78C3E9" transform="translate(27,225)"/>
<path d="M0 0 C0.66 0 1.32 0 2 0 C2 0.99 2 1.98 2 3 C2.99 3 3.98 3 5 3 C5 3.66 5 4.32 5 5 C2.69 5.33 0.38 5.66 -2 6 C-1.49 3.83 -1 2 0 0 Z " fill="#6AB7DF" transform="translate(21,222)"/>
<path d="M0 0 C1.98 0 3.96 0 6 0 C5 2 5 2 4 3 C4.99 3.33 5.98 3.66 7 4 C4.69 4 2.38 4 0 4 C0 2.68 0 1.36 0 0 Z " fill="#3683AE" transform="translate(182,223)"/>
<path d="M0 0 C0.99 0.33 1.98 0.66 3 1 C2.01 1.49 2.01 1.49 1 2 C1.66 2.66 2.32 3.32 3 4 C3 5 3 6 3 7 C1.35 6.67 -0.3 6.34 -2 6 C-1.12 1.12 -1.12 1.12 0 0 Z " fill="#717276" transform="translate(87,47)"/>
<path d="M0 0 C2.64 0 5.28 0 8 0 C8 0.99 8 1.98 8 3 C5.36 3 2.72 3 0 3 C0 2.01 0 1.02 0 0 Z " fill="#6EB8DE" transform="translate(10,225)"/>
<path d="M0 0 C1.26 -0.04 2.52 -0.08 3.81 -0.12 C4.52 -0.15 5.23 -0.17 5.96 -0.2 C8 0 8 0 11 2 C11 2.66 11 3.32 11 4 C9.68 4 8.36 4 7 4 C7 3.01 7 2.02 7 1 C4.69 1 2.38 1 0 1 C0 0.67 0 0.34 0 0 Z " fill="#3D90C5" transform="translate(152,222)"/>
<path d="M0 0 C2.47 0.5 2.47 0.5 5 1 C5 1.99 5 2.98 5 4 C3.35 4 1.7 4 0 4 C0 2.68 0 1.36 0 0 Z " fill="#E5E5E7" transform="translate(82,183)"/>
<path d="M0 0 C1.65 0 3.3 0 5 0 C4.67 1.32 4.34 2.64 4 4 C2.68 4 1.36 4 0 4 C0 2.68 0 1.36 0 0 Z " fill="#E5E5E5" transform="translate(131,179)"/>
<path d="M0 0 C0.66 0 1.32 0 2 0 C1.65 3.24 1.44 4.62 -1.06 6.81 C-1.7 7.2 -2.34 7.6 -3 8 C-3.66 7.67 -4.32 7.34 -5 7 C-4.36 6.22 -3.72 5.43 -3.06 4.62 C-1.02 2.2 -1.02 2.2 0 0 Z " fill="#ECEBED" transform="translate(106,70)"/>
<path d="M0 0 C1.32 0 2.64 0 4 0 C4.33 1.65 4.66 3.3 5 5 C3.68 5 2.36 5 1 5 C0.67 3.35 0.34 1.7 0 0 Z " fill="#DFDFE0" transform="translate(81,177)"/>
<path d="M0 0 C0.99 0 1.98 0 3 0 C3 1.32 3 2.64 3 4 C2.34 4 1.68 4 1 4 C1 5.65 1 7.3 1 9 C0.67 9 0.34 9 0 9 C0 6.03 0 3.06 0 0 Z " fill="#7E7F84" transform="translate(98,120)"/>
</svg>
