<?xml version="1.0" encoding="UTF-8"?>
<!-- Generator: visioncortex VTracer 0.6.3 -->
<svg version="1.1" xmlns="http://www.w3.org/2000/svg" width="500" height="500">
<path d="M0 0 C165 0 330 0 500 0 C500 165 500 330 500 500 C335 500 170 500 0 500 C0 335 0 170 0 0 Z " fill="#FEFEFE" transform="translate(0,0)"/>
<path d="M0 0 C12.73 9.8 20.62 23.02 22.83 38.87 C23.94 50.82 23.27 60.78 18.47 71.78 C16.52 76.34 15.53 81.04 14.46 85.87 C9.65 106.31 -1.31 121.7 -19.17 132.87 C-21.52 133.61 -21.52 133.61 -23.17 133.87 C-23.17 132.88 -23.17 131.89 -23.17 130.87 C-25.15 131.53 -27.13 132.19 -29.17 132.87 C-26.82 135.59 -24.78 136.56 -21.37 137.63 C-20.42 137.94 -19.47 138.25 -18.49 138.57 C-16.97 139.06 -16.97 139.06 -15.42 139.55 C6.98 147.02 6.98 147.02 13.83 153.87 C13.98 155.81 13.98 155.81 13.84 158.22 C13.8 159.14 13.75 160.05 13.7 161 C13.61 162.51 13.61 162.51 13.52 164.05 C13.47 165.12 13.42 166.18 13.37 167.28 C13.1 173.25 12.74 179.2 12.29 185.16 C11.24 201.21 12.33 215.05 16.29 230.6 C20.84 248.8 18.77 266.3 15.83 284.62 C15.54 286.5 15.25 288.39 14.96 290.27 C14.27 294.8 13.56 299.34 12.83 303.87 C17.78 303.87 22.73 303.87 27.83 303.87 C27.67 302.36 27.5 300.86 27.33 299.3 C27.27 291.11 31.59 284.61 35.83 277.87 C38.75 274.94 41.97 275.37 45.89 275.18 C47.01 275.11 47.01 275.11 48.15 275.04 C50.04 274.93 51.94 274.89 53.83 274.87 C54.16 275.2 54.49 275.53 54.83 275.87 C56.35 276.14 57.87 276.38 59.39 276.62 C68.63 278.45 74.19 283.93 80.94 290.22 C84.74 293.7 88.7 296.92 92.71 300.15 C94.83 301.87 94.83 301.87 95.83 302.87 C97.85 302.94 99.87 302.95 101.89 302.93 C103.55 302.92 103.55 302.92 105.24 302.9 C106.1 302.89 106.95 302.88 107.83 302.87 C109.49 299.94 110.08 297.71 110.27 294.37 C110.6 290.71 111.15 288.55 113.83 285.87 C115.01 286.09 116.18 286.31 117.39 286.54 C121.9 287.1 124.75 286.04 128.89 284.12 C142.46 278.24 159.38 274.83 174.02 278.71 C182.12 282.36 187.92 289.25 191.17 297.45 C192.99 304.09 192.75 309.85 189.46 315.93 C188.04 318.22 186.75 319.95 184.83 321.87 C184.25 324.68 183.88 327.49 183.49 330.34 C182.83 332.87 182.83 332.87 179.83 334.87 C177.35 335.06 177.35 335.06 174.64 334.99 C173.74 334.97 172.84 334.96 171.91 334.94 C170.88 334.9 170.88 334.9 169.83 334.87 C169.83 333.22 169.83 331.57 169.83 329.87 C168.98 330.19 168.98 330.19 168.12 330.51 C165.57 331.47 163.01 332.42 160.46 333.37 C159.57 333.7 158.68 334.03 157.76 334.38 C156.91 334.69 156.06 335.01 155.18 335.34 C154.01 335.78 154.01 335.78 152.8 336.22 C150.83 336.87 150.83 336.87 148.83 336.87 C148.92 338.54 148.92 338.54 149.02 340.24 C148.96 341.44 148.9 342.63 148.83 343.87 C144.76 346.58 142.67 346.17 137.83 345.87 C135.83 343.87 135.83 343.87 134.83 338.87 C131.2 338.21 127.57 337.55 123.83 336.87 C123.5 337.86 123.17 338.85 122.83 339.87 C116.78 340.06 116.78 340.06 114.83 339.87 C112.34 337.37 112.38 336 111.89 332.55 C111.2 328.36 110.41 325.34 107.83 321.87 C105.44 317.09 106.83 311.21 106.83 305.87 C93.96 305.87 81.09 305.87 67.83 305.87 C67.5 306.86 67.17 307.85 66.83 308.87 C65.84 308.87 64.85 308.87 63.83 308.87 C63.5 308.21 63.17 307.55 62.83 306.87 C60.81 306.22 60.81 306.22 58.83 305.87 C58.69 306.63 58.54 307.39 58.39 308.18 C57.83 310.87 57.83 310.87 56.83 313.87 C57.64 314.21 57.64 314.21 58.46 314.56 C61.55 316.26 64.07 318.5 66.71 320.8 C71.33 324.78 76.02 328.63 80.83 332.37 C87.67 337.67 94.27 343.23 100.83 348.87 C100.5 350.52 100.17 352.17 99.83 353.87 C89.5 355.12 79.15 356.15 68.77 356.99 C67.74 357.08 66.72 357.17 65.66 357.26 C63.54 357.42 61.42 357.55 59.3 357.63 C55.75 357.8 55.75 357.8 52 358.64 C46.13 359.58 41.4 359.54 36.28 356.2 C29.87 351.03 24.25 345.06 18.66 339.04 C16.79 337.05 14.89 335.1 12.99 333.15 C9.06 329.13 5.16 325.08 1.33 320.97 C0.65 320.25 -0.03 319.53 -0.73 318.78 C-2.17 316.87 -2.17 316.87 -2.17 313.87 C7.73 313.21 17.63 312.55 27.83 311.87 C27.83 309.89 27.83 307.91 27.83 305.87 C2.09 305.87 -23.65 305.87 -50.17 305.87 C-47.17 316.97 -47.17 316.97 -43.17 321.87 C-42.48 325.62 -42.48 325.62 -42.17 328.87 C-45.54 327.68 -47.82 326.59 -50.17 323.87 C-53.69 325.16 -56.61 326.73 -59.73 328.8 C-73.88 337.34 -90.84 336.13 -106.38 332.32 C-107.42 332.07 -107.42 332.07 -108.48 331.8 C-114.91 330.29 -121.59 330.2 -128.17 329.87 C-126.56 324.88 -124.84 319.96 -122.96 315.07 C-120.29 308.08 -117.93 301.15 -116.17 293.87 C-117.08 293.78 -117.98 293.7 -118.92 293.62 C-122.58 293.11 -125.93 292.01 -129.43 290.82 C-130.51 290.46 -131.58 290.09 -132.69 289.72 C-133.51 289.44 -134.33 289.16 -135.17 288.87 C-135.6 282.84 -136.03 276.81 -136.45 270.78 C-136.59 268.74 -136.74 266.69 -136.89 264.65 C-139.2 232.4 -139.2 232.4 -134.67 222.12 C-134 220.57 -133.34 219.01 -132.7 217.45 C-132.41 216.78 -132.11 216.11 -131.81 215.43 C-129.85 207.62 -131.76 200 -133.54 192.33 C-133.9 190.71 -133.9 190.71 -134.27 189.07 C-135.04 185.64 -135.82 182.22 -136.61 178.8 C-137.38 175.38 -138.16 171.96 -138.93 168.53 C-139.41 166.41 -139.89 164.29 -140.38 162.17 C-141.61 156.74 -142.59 151.41 -143.17 145.87 C-127.28 137.21 -127.28 137.21 -118.92 133.8 C-109.68 129.96 -99.91 125.37 -94.17 116.87 C-95.1 117.36 -96.02 117.86 -96.98 118.37 C-100.17 119.87 -100.17 119.87 -103.17 119.87 C-107.64 114.29 -110.29 107.7 -112.17 100.87 C-112.58 101.3 -112.99 101.73 -113.41 102.18 C-113.95 102.74 -114.49 103.29 -115.04 103.87 C-115.58 104.42 -116.11 104.98 -116.66 105.55 C-118.17 106.87 -118.17 106.87 -120.17 106.87 C-128.73 81.48 -128.65 56.14 -117.12 31.73 C-106.67 11.34 -90.03 -4.8 -68.17 -12.13 C-44.82 -18.91 -19.8 -13.33 0 0 Z " fill="#E6E5E5" transform="translate(288.16796875,72.1328125)"/>
<path d="M0 0 C0.99 0 1.98 0 3 0 C5.68 12 8.35 24 11 36 C11.25 37.15 11.51 38.3 11.77 39.49 C12.35 42.14 12.93 44.79 13.5 47.44 C13.66 48.16 13.82 48.88 13.98 49.63 C14.73 53.16 15.06 56.4 15 60 C15.7 59.99 16.4 59.97 17.12 59.96 C26.31 59.8 35.5 59.65 44.69 59.5 C45.44 59.49 46.18 59.48 46.96 59.46 C71.89 59.07 96.81 58.91 121.75 58.94 C122.9 58.94 122.9 58.94 124.07 58.94 C133.38 58.95 142.69 58.97 152 59 C151.99 57.83 151.98 56.67 151.96 55.47 C151.89 44.37 152.25 33.38 153 22.31 C153.1 20.81 153.19 19.31 153.29 17.8 C153.52 14.2 153.76 10.6 154 7 C154.99 7.33 155.98 7.66 157 8 C156.96 8.85 156.96 8.85 156.92 9.71 C156.87 10.92 156.87 10.92 156.82 12.16 C156.78 13.08 156.74 14 156.69 14.95 C156.6 17.07 156.52 19.19 156.44 21.31 C156.22 27.32 155.92 33.3 155.46 39.3 C154.4 55.34 155.49 69.19 159.46 84.73 C164.01 102.93 161.94 120.43 159 138.75 C158.71 140.63 158.42 142.52 158.13 144.4 C157.44 148.94 156.72 153.47 156 158 C160.95 158 165.9 158 171 158 C170.84 156.49 170.67 154.99 170.5 153.44 C170.44 145.24 174.75 138.74 179 132 C181.92 129.08 185.14 129.5 189.06 129.31 C190.18 129.24 190.18 129.24 191.32 129.17 C193.21 129.07 195.11 129.03 197 129 C197.33 129.33 197.66 129.66 198 130 C199.52 130.27 201.04 130.52 202.56 130.75 C211.79 132.58 217.36 138.06 224.11 144.36 C227.91 147.83 231.87 151.05 235.88 154.29 C238 156 238 156 239 157 C241.02 157.07 243.04 157.08 245.06 157.06 C246.17 157.05 247.27 157.04 248.41 157.04 C249.26 157.02 250.12 157.01 251 157 C252.65 154.08 253.25 151.84 253.44 148.5 C253.76 144.84 254.32 142.68 257 140 C258.17 140.22 259.35 140.44 260.56 140.67 C265.06 141.23 267.92 140.18 272.06 138.25 C285.63 132.38 302.54 128.96 317.18 132.84 C325.29 136.5 331.09 143.38 334.34 151.58 C336.16 158.22 335.92 163.98 332.62 170.06 C331.21 172.36 329.91 174.09 328 176 C327.41 178.81 327.05 181.62 326.66 184.47 C326 187 326 187 323 189 C320.52 189.2 320.52 189.2 317.81 189.12 C316.91 189.11 316.01 189.09 315.08 189.07 C314.39 189.05 313.71 189.02 313 189 C313 187.35 313 185.7 313 184 C312.43 184.21 311.87 184.42 311.29 184.64 C308.73 185.6 306.18 186.55 303.62 187.5 C302.74 187.83 301.85 188.17 300.93 188.51 C299.65 188.99 299.65 188.99 298.35 189.47 C297.57 189.76 296.78 190.06 295.97 190.36 C294 191 294 191 292 191 C292.06 192.11 292.12 193.23 292.19 194.38 C292.09 196.17 292.09 196.17 292 198 C287.93 200.71 285.84 200.31 281 200 C279 198 279 198 278 193 C274.37 192.34 270.74 191.68 267 191 C266.67 191.99 266.34 192.98 266 194 C259.95 194.2 259.95 194.2 258 194 C255.51 191.51 255.55 190.13 255.06 186.69 C254.37 182.49 253.57 179.47 251 176 C248.61 171.22 250 165.34 250 160 C237.13 160 224.26 160 211 160 C210.67 160.99 210.34 161.98 210 163 C209.01 163 208.02 163 207 163 C206.67 162.34 206.34 161.68 206 161 C203.98 160.35 203.98 160.35 202 160 C201.86 160.76 201.71 161.53 201.56 162.31 C201 165 201 165 200 168 C200.54 168.23 201.08 168.46 201.63 168.69 C204.72 170.4 207.24 172.63 209.88 174.94 C214.49 178.91 219.18 182.76 224 186.5 C230.83 191.81 237.44 197.36 244 203 C243.67 204.65 243.34 206.3 243 208 C232.66 209.26 222.32 210.29 211.94 211.12 C210.91 211.21 209.89 211.3 208.83 211.39 C206.71 211.56 204.59 211.68 202.47 211.77 C198.92 211.93 198.92 211.93 195.16 212.77 C189.29 213.72 184.56 213.67 179.45 210.34 C173.04 205.16 167.42 199.19 161.83 193.17 C159.96 191.18 158.06 189.23 156.16 187.28 C152.23 183.26 148.33 179.21 144.49 175.1 C143.82 174.38 143.14 173.66 142.44 172.92 C141 171 141 171 141 168 C150.9 167.34 160.8 166.68 171 166 C171 164.02 171 162.04 171 160 C145.26 160 119.52 160 93 160 C96 171.1 96 171.1 100 176 C100.69 179.75 100.69 179.75 101 183 C97.62 181.81 95.35 180.72 93 178 C89.48 179.3 86.55 180.86 83.44 182.94 C69.29 191.47 52.32 190.27 36.79 186.46 C35.75 186.2 35.75 186.2 34.69 185.94 C28.26 184.43 21.57 184.33 15 184 C16.6 179.01 18.33 174.09 20.21 169.2 C22.88 162.22 25.24 155.28 27 148 C26.09 147.92 25.19 147.84 24.25 147.75 C20.58 147.24 17.23 146.15 13.73 144.95 C12.66 144.59 11.58 144.22 10.48 143.85 C9.66 143.57 8.84 143.29 8 143 C7.57 136.97 7.14 130.94 6.72 124.92 C6.57 122.87 6.43 120.82 6.28 118.78 C3.96 86.53 3.96 86.53 8.5 76.25 C9.17 74.7 9.83 73.14 10.47 71.58 C10.76 70.91 11.06 70.25 11.36 69.56 C13.32 61.75 11.41 54.13 9.63 46.46 C9.39 45.39 9.15 44.31 8.9 43.2 C8.13 39.78 7.35 36.36 6.56 32.94 C5.78 29.51 5.01 26.09 4.24 22.67 C3.76 20.54 3.28 18.42 2.79 16.3 C1.56 10.87 0.58 5.54 0 0 Z " fill="#F88A92" transform="translate(145,218)"/>
<path d="M0 0 C12.73 9.8 20.62 23.02 22.83 38.87 C23.94 50.82 23.27 60.78 18.47 71.78 C16.52 76.34 15.53 81.04 14.46 85.87 C9.65 106.31 -1.31 121.7 -19.17 132.87 C-21.52 133.61 -21.52 133.61 -23.17 133.87 C-23.17 132.88 -23.17 131.89 -23.17 130.87 C-23.87 131.23 -24.57 131.59 -25.29 131.96 C-26.24 132.43 -27.19 132.89 -28.17 133.37 C-29.1 133.83 -30.02 134.3 -30.98 134.77 C-39.82 137.81 -47.22 134.54 -55.29 130.8 C-63.44 126.74 -70.56 121.08 -77.17 114.87 C-73.14 114.87 -72.02 116.39 -68.92 118.93 C-62.23 124.21 -54.98 127.57 -47.17 130.87 C-46.27 131.25 -45.37 131.63 -44.44 132.03 C-37.57 134.57 -31.92 132.45 -25.46 129.63 C-14.4 124.38 -6.46 115.24 -2.17 103.87 C-4.15 103.93 -6.14 104 -8.12 104.06 C-10.17 103.87 -10.17 103.87 -13.17 101.87 C-16.27 101.7 -16.27 101.7 -19.67 101.87 C-25.83 102.09 -25.83 102.09 -29.17 99.87 C-29.17 99.21 -29.17 98.55 -29.17 97.87 C-27.68 98.36 -27.68 98.36 -26.17 98.87 C-21.02 99.27 -21.02 99.27 -16.17 97.87 C-15.7 95.53 -15.34 93.17 -15.04 90.8 C-14.88 89.51 -14.71 88.22 -14.54 86.89 C-14.35 85.4 -14.35 85.4 -14.17 83.87 C-14.94 83.73 -15.71 83.6 -16.5 83.46 C-17.51 83.29 -18.51 83.11 -19.54 82.93 C-21.04 82.67 -21.04 82.67 -22.57 82.4 C-25.17 81.87 -25.17 81.87 -27.17 80.87 C-27.23 81.55 -27.29 82.23 -27.36 82.93 C-28.99 88.84 -32.27 92.63 -37.48 95.8 C-42.08 98.11 -45.06 98.6 -50.17 97.87 C-57.38 95.35 -62.79 90.79 -66.17 83.87 C-67.9 78.31 -68.38 73.67 -68.17 67.87 C-69.25 67.79 -69.25 67.79 -70.36 67.72 C-76.4 67.25 -81.69 66.61 -87.17 63.87 C-93.15 63.19 -93.15 63.19 -98.11 66.24 C-101.34 70.36 -101.58 73.06 -101.5 78.2 C-100.82 83.59 -98.09 87.2 -94.05 90.7 C-92.13 92.16 -90.19 93.54 -88.17 94.87 C-88.74 102.15 -89.54 112.22 -94.88 117.59 C-97.69 119.25 -99.91 119.87 -103.17 119.87 C-107.64 114.29 -110.29 107.7 -112.17 100.87 C-112.58 101.3 -112.99 101.73 -113.41 102.18 C-113.95 102.74 -114.49 103.29 -115.04 103.87 C-115.58 104.42 -116.11 104.98 -116.66 105.55 C-118.17 106.87 -118.17 106.87 -120.17 106.87 C-128.73 81.48 -128.65 56.14 -117.12 31.73 C-106.67 11.34 -90.03 -4.8 -68.17 -12.13 C-44.82 -18.91 -19.8 -13.33 0 0 Z " fill="#832B19" transform="translate(288.16796875,72.1328125)"/>
<path d="M0 0 C3.33 1.11 3.74 1.65 5.68 4.4 C6.19 5.12 6.7 5.84 7.23 6.58 C7.77 7.36 8.31 8.13 8.88 8.94 C10.04 10.57 11.2 12.21 12.36 13.85 C13.26 15.12 13.26 15.12 14.17 16.41 C17.12 20.58 20.09 24.73 23.06 28.88 C23.87 30.01 23.87 30.01 24.69 31.16 C28.84 36.95 32.26 41.17 39 44 C41.73 44.26 44.21 44.38 46.93 44.34 C47.7 44.34 48.48 44.34 49.27 44.34 C51.8 44.34 54.33 44.32 56.87 44.29 C58.63 44.29 60.39 44.28 62.16 44.28 C66.78 44.27 71.41 44.24 76.03 44.21 C80.76 44.18 85.49 44.16 90.21 44.15 C99.47 44.11 108.74 44.06 118 44 C117.97 42.88 117.97 42.88 117.94 41.74 C117.93 40.76 117.91 39.78 117.9 38.77 C117.87 37.31 117.87 37.31 117.84 35.82 C118.08 31.56 119.69 28.54 121.88 24.94 C122.42 23.96 122.42 23.96 122.98 22.97 C124.47 20.37 125.87 18.13 128 16 C130.72 15.67 133.34 15.44 136.06 15.31 C136.81 15.27 137.55 15.22 138.32 15.17 C140.21 15.07 142.11 15.03 144 15 C144.33 15.33 144.66 15.66 145 16 C146.52 16.27 148.04 16.52 149.56 16.75 C158.79 18.58 164.36 24.06 171.11 30.36 C174.91 33.83 178.87 37.05 182.88 40.29 C185 42 185 42 186 43 C188.02 43.07 190.04 43.08 192.06 43.06 C193.72 43.05 193.72 43.05 195.41 43.04 C196.69 43.02 196.69 43.02 198 43 C199.65 40.08 200.25 37.84 200.44 34.5 C200.76 30.84 201.32 28.68 204 26 C205.17 26.22 206.35 26.44 207.56 26.67 C212.06 27.23 214.92 26.18 219.06 24.25 C232.63 18.38 249.54 14.96 264.18 18.84 C272.29 22.5 278.09 29.38 281.34 37.58 C283.16 44.22 282.92 49.98 279.62 56.06 C278.21 58.36 276.91 60.09 275 62 C274.41 64.81 274.05 67.62 273.66 70.47 C273 73 273 73 270 75 C267.52 75.2 267.52 75.2 264.81 75.12 C263.91 75.11 263.01 75.09 262.08 75.07 C261.39 75.05 260.71 75.02 260 75 C260 73.35 260 71.7 260 70 C259.43 70.21 258.87 70.42 258.29 70.64 C255.73 71.6 253.18 72.55 250.62 73.5 C249.74 73.83 248.85 74.17 247.93 74.51 C247.08 74.83 246.23 75.14 245.35 75.47 C244.57 75.76 243.78 76.06 242.97 76.36 C241 77 241 77 239 77 C239.09 78.67 239.09 78.67 239.19 80.38 C239.13 81.57 239.06 82.77 239 84 C234.93 86.71 232.84 86.31 228 86 C226 84 226 84 225 79 C221.37 78.34 217.74 77.68 214 77 C213.67 77.99 213.34 78.98 213 80 C206.95 80.2 206.95 80.2 205 80 C202.51 77.51 202.55 76.13 202.06 72.69 C201.37 68.49 200.57 65.47 198 62 C195.61 57.22 197 51.34 197 46 C184.13 46 171.26 46 158 46 C157.67 46.99 157.34 47.98 157 49 C156.01 49 155.02 49 154 49 C153.67 48.34 153.34 47.68 153 47 C150.98 46.35 150.98 46.35 149 46 C148.86 46.76 148.71 47.53 148.56 48.31 C148 51 148 51 147 54 C147.54 54.23 148.08 54.46 148.63 54.69 C151.72 56.4 154.24 58.63 156.88 60.94 C161.49 64.91 166.18 68.76 171 72.5 C177.83 77.81 184.44 83.36 191 89 C190.67 90.65 190.34 92.3 190 94 C179.66 95.26 169.32 96.29 158.94 97.12 C157.91 97.21 156.89 97.3 155.83 97.39 C153.71 97.56 151.59 97.68 149.47 97.77 C145.92 97.93 145.92 97.93 142.16 98.77 C136.29 99.72 131.56 99.67 126.45 96.34 C120.04 91.16 114.42 85.19 108.83 79.17 C106.96 77.18 105.06 75.23 103.16 73.28 C99.23 69.26 95.33 65.21 91.49 61.1 C90.82 60.38 90.14 59.66 89.44 58.92 C88 57 88 57 88 54 C97.9 53.34 107.8 52.68 118 52 C118 50.02 118 48.04 118 46 C92.26 46 66.52 46 40 46 C43 57.1 43 57.1 47 62 C47.69 65.75 47.69 65.75 48 69 C44.62 67.81 42.35 66.72 40 64 C36.48 65.3 33.55 66.86 30.44 68.94 C16.29 77.47 -0.68 76.27 -16.21 72.46 C-16.91 72.29 -17.6 72.11 -18.31 71.94 C-24.74 70.43 -31.43 70.33 -38 70 C-35.93 63.56 -33.6 57.23 -31.21 50.9 C-29.35 45.97 -27.61 41.02 -26 36 C-25.2 36.03 -25.2 36.03 -24.38 36.07 C-18.28 36.21 -12.45 35.61 -6.41 34.79 C1.36 33.76 9.17 33.37 17 33 C15.17 30.39 13.33 27.79 11.5 25.19 C10.96 24.42 10.41 23.64 9.85 22.85 C7.41 19.38 4.96 15.92 2.42 12.53 C1.35 11.09 1.35 11.09 0.25 9.62 C-0.38 8.79 -1.02 7.96 -1.67 7.1 C-3 5 -3 5 -3 2 C-2.01 1.34 -1.02 0.68 0 0 Z " fill="#F79176" transform="translate(198,332)"/>
<path d="M0 0 C2.45 3.67 3.14 7.3 4.06 11.55 C4.34 12.83 4.34 12.83 4.63 14.13 C5.24 16.85 5.84 19.58 6.44 22.31 C6.84 24.11 7.24 25.9 7.63 27.7 C8.41 31.19 9.18 34.68 9.94 38.18 C10.59 41.16 11.26 44.13 11.95 47.1 C14.71 59.14 14.46 66.29 9.49 77.54 C4.97 88.63 7.08 100.71 8 112.38 C8.74 122.28 9.31 132.07 9 142 C9.67 142.12 10.35 142.24 11.04 142.37 C14.52 143.11 17.9 144.07 21.31 145.06 C22.57 145.42 23.82 145.79 25.11 146.16 C26.07 146.44 27.02 146.71 28 147 C27.39 152.53 26.04 157.49 24.25 162.75 C23.99 163.54 23.72 164.32 23.45 165.13 C21.34 171.28 18.84 177.15 16 183 C20.95 183 25.9 183 31 183 C31 183.33 31 183.66 31 184 C29.86 184.05 28.71 184.1 27.54 184.15 C26.04 184.22 24.55 184.3 23.06 184.38 C21.93 184.42 21.93 184.42 20.78 184.47 C18.84 184.57 16.92 184.78 15 185 C14.67 185.66 14.34 186.32 14 187 C-9.25 187.43 -32.75 182.38 -54.69 174.94 C-55.68 174.61 -55.68 174.61 -56.7 174.27 C-62.08 172.32 -66.66 169.55 -69.38 164.38 C-70 162 -70 162 -70 159 C-81.39 158.5 -81.39 158.5 -93 158 C-93 157.67 -93 157.34 -93 157 C-85.74 157 -78.48 157 -71 157 C-71.08 153.76 -71.16 150.52 -71.25 147.19 C-71.38 114.75 -56.79 81.82 -43 53 C-42.42 51.76 -42.42 51.76 -41.83 50.5 C-35.59 37.22 -28.19 25.63 -18 15 C-17.34 14.29 -16.68 13.58 -16 12.85 C-11.17 7.78 -5.85 3.84 0 0 Z " fill="#E6E5E5" transform="translate(144,219)"/>
<path d="M0 0 C0.68 -0.01 1.36 -0.01 2.06 -0.02 C4 0.25 4 0.25 7 2.25 C9.73 2.86 12.43 3.4 15.19 3.88 C15.94 4.01 16.69 4.14 17.46 4.28 C19.3 4.61 21.15 4.93 23 5.25 C23.17 6.34 23.34 7.42 23.52 8.54 C23.76 9.98 24 11.43 24.25 12.88 C24.36 13.59 24.47 14.3 24.58 15.04 C25.44 19.97 27.01 23.14 30 27.25 C30 27.91 30 28.57 30 29.25 C31.32 29.94 32.66 30.6 34 31.25 C35.61 32.05 35.61 32.05 37.25 32.88 C42.59 34.83 46.3 35.3 51.55 33.25 C58.4 29.67 61.32 25.39 64 18.25 C65.6 18.56 67.21 18.87 68.81 19.19 C69.71 19.36 70.6 19.54 71.52 19.71 C74 20.25 74 20.25 77 21.25 C77.19 26.75 76.9 31.07 75 36.25 C71.87 37.81 68.42 37.65 65 37.25 C63.51 36.26 63.51 36.26 62 35.25 C62 35.91 62 36.57 62 37.25 C66.32 38.69 70.45 38.22 74.97 38.09 C78 38.25 78 38.25 81 40.25 C83.05 40.7 83.05 40.7 85.19 40.88 C86.45 41 87.7 41.12 89 41.25 C87.65 50.09 80.93 57.89 74 63.25 C66.25 67.92 58.26 72.21 49 71.25 C46.26 70.49 43.76 69.39 41.19 68.19 C40.5 67.87 39.8 67.56 39.09 67.23 C33.05 64.42 27.46 61.07 22 57.25 C21.27 56.74 20.53 56.23 19.77 55.7 C18.17 54.57 16.58 53.41 15 52.25 C24.79 61.72 39.32 72.36 53.5 72.62 C56.87 72.37 56.87 72.37 59.5 71.5 C63.01 71.15 65.11 72.56 68.13 74.24 C70.13 75.39 70.13 75.39 73 76.25 C70.34 88.54 65.39 97.84 55 105.25 C44.75 111 34.35 111.63 23.06 108.62 C4.51 102.78 -8.13 92.08 -19 76.25 C-19.63 75.38 -20.25 74.51 -20.9 73.62 C-22 71.25 -22 71.25 -21.55 69.15 C-18.79 65.77 -14.86 64.23 -11.04 62.23 C-4.16 57.75 -2.1 52.79 -0.19 45.12 C0.03 44.33 0.24 43.53 0.47 42.71 C1.44 39.01 2 36.12 2 32.25 C0.42 30.74 0.42 30.74 -1.69 29.5 C-6.79 25.87 -10.33 22.06 -11.44 15.73 C-11.7 10.1 -10.81 6.61 -7 2.25 C-4 0.25 -3.37 -0.03 0 0 Z " fill="#FD9579" transform="translate(197,134.75)"/>
<path d="M0 0 C22.23 10.66 32.24 40.1 41.81 60.93 C45.28 68.49 48.87 76.01 52.5 83.5 C57.54 93.91 62.46 104.38 67.31 114.88 C69.85 120.4 72.42 125.9 75.07 131.36 C75.55 132.34 76.02 133.32 76.51 134.32 C77.4 136.15 78.29 137.97 79.19 139.78 C79.77 140.98 79.77 140.98 80.37 142.2 C80.71 142.89 81.05 143.58 81.4 144.29 C81.6 144.85 81.8 145.42 82 146 C81.67 146.66 81.34 147.32 81 148 C78.87 146.19 76.75 144.38 74.62 142.56 C73.67 141.75 73.67 141.75 72.69 140.92 C68.92 137.69 65.25 134.39 61.62 131 C55.09 125.11 49.7 122.76 41 122 C40.67 121.67 40.34 121.34 40 121 C30.48 120.34 30.48 120.34 21.97 123.57 C20.69 125.67 19.84 127.69 19 130 C18.25 131.27 17.5 132.54 16.75 133.81 C14.33 138.7 14.27 143.62 14 149 C9.05 149 4.1 149 -1 149 C-0.49 141.22 0.29 133.62 1.51 125.92 C4.72 105.61 4.48 89.44 -0.06 69.49 C-3.61 53.64 -3.38 39.19 -2 23 C-1.82 20.65 -1.64 18.3 -1.46 15.95 C-1.04 10.63 -0.54 5.31 0 0 Z " fill="#E6E5E5" transform="translate(302,227)"/>
<path d="M0 0 C5.97 5.34 10.19 11.71 11.41 19.7 C11.78 26.61 10.04 31.42 6 37 C5.01 37.99 5.01 37.99 4 39 C3.41 41.81 3.05 44.62 2.66 47.47 C2 50 2 50 -1 52 C-3.48 52.2 -3.48 52.2 -6.19 52.12 C-7.09 52.11 -7.99 52.09 -8.92 52.07 C-9.61 52.05 -10.29 52.02 -11 52 C-11 50.35 -11 48.7 -11 47 C-11.85 47.32 -11.85 47.32 -12.71 47.64 C-15.27 48.6 -17.82 49.55 -20.38 50.5 C-21.26 50.83 -22.15 51.17 -23.07 51.51 C-23.92 51.83 -24.77 52.14 -25.65 52.47 C-26.43 52.76 -27.22 53.06 -28.03 53.36 C-30 54 -30 54 -32 54 C-31.94 55.11 -31.88 56.23 -31.81 57.38 C-31.91 59.17 -31.91 59.17 -32 61 C-36.07 63.71 -38.16 63.31 -43 63 C-45 61 -45 61 -46 56 C-49.63 55.34 -53.26 54.68 -57 54 C-57.33 54.99 -57.66 55.98 -58 57 C-64.05 57.2 -64.05 57.2 -66 57 C-68.49 54.51 -68.45 53.13 -68.94 49.69 C-69.63 45.49 -70.43 42.47 -73 39 C-75.39 34.22 -74 28.34 -74 23 C-86.87 23 -99.74 23 -113 23 C-113 22.67 -113 22.34 -113 22 C-99.8 22 -86.6 22 -73 22 C-71.2 16.64 -71.2 16.64 -70.56 11.38 C-70.23 7.77 -69.64 5.64 -67 3 C-65.83 3.22 -64.65 3.44 -63.44 3.67 C-58.94 4.23 -56.08 3.18 -51.94 1.25 C-37.5 -5 -13.62 -10.91 0 0 Z " fill="#FA9379" transform="translate(469,355)"/>
<path d="M0 0 C21.04 -2.86 21.04 -2.86 28.87 1.65 C33.94 5.79 38.04 10.68 42.11 15.78 C44.45 18.53 47.04 20.77 49.8 23.09 C53.92 26.67 57.73 30.58 61.58 34.45 C63.02 35.9 64.47 37.34 65.93 38.79 C66.84 39.7 67.75 40.61 68.69 41.55 C69.52 42.38 70.35 43.21 71.2 44.07 C73 46 73 46 73 47 C62.02 47.66 51.04 48.31 40.06 48.96 C34.96 49.26 29.86 49.56 24.75 49.86 C19.81 50.16 14.87 50.45 9.93 50.74 C8.07 50.85 6.2 50.96 4.33 51.07 C-0.89 51.39 -6.12 51.67 -11.34 51.89 C-13.18 51.97 -15.02 52.05 -16.86 52.14 C-19.72 52.27 -22.58 52.36 -25.44 52.44 C-26.31 52.48 -27.18 52.53 -28.08 52.57 C-32.52 52.64 -35.15 52.4 -38.45 49.27 C-40.3 47.13 -41.95 44.97 -43.24 42.45 C-43.58 41.81 -43.92 41.18 -44.27 40.52 C-44.62 39.87 -44.96 39.23 -45.31 38.56 C-46.08 37.27 -46.85 35.97 -47.63 34.69 C-53 25.67 -53 25.67 -53 24 C-51.74 23.98 -50.48 23.96 -49.19 23.94 C-48.48 23.93 -47.77 23.91 -47.04 23.9 C-45 24 -45 24 -42 25 C-27.53 25.93 -16.66 23.77 -4.81 15.45 C-2 14 -2 14 0.17 14.64 C0.78 15.09 1.38 15.54 2 16 C3.07 16.7 4.15 17.4 5.25 18.12 C6.16 18.74 7.06 19.36 8 20 C6.51 15.07 5.15 11.11 2 7 C1.3 4.68 0.63 2.34 0 0 Z " fill="#E6E5E5" transform="translate(238,381)"/>
<path d="M0 0 C4.02 -0.16 6.32 -0.2 9.91 1.74 C10.7 2.48 11.49 3.22 12.3 3.97 C13.21 4.79 14.12 5.61 15.06 6.46 C16.03 7.35 16.99 8.24 17.99 9.16 C20.16 11.04 22.35 12.88 24.55 14.72 C25.65 15.66 26.75 16.6 27.86 17.53 C31.35 20.48 34.91 23.33 38.49 26.17 C43.03 29.79 47.5 33.48 51.99 37.16 C51.66 38.81 51.33 40.46 50.99 42.16 C40.65 43.42 30.3 44.45 19.92 45.29 C18.9 45.37 17.87 45.46 16.82 45.55 C14.7 45.72 12.58 45.84 10.45 45.93 C6.9 46.09 6.9 46.09 3.15 46.93 C-2.72 47.88 -7.45 47.83 -12.56 44.5 C-18.97 39.32 -24.59 33.35 -30.19 27.33 C-32.05 25.34 -33.95 23.39 -35.86 21.44 C-39.78 17.42 -43.68 13.37 -47.52 9.27 C-48.2 8.54 -48.87 7.82 -49.57 7.08 C-51.01 5.16 -51.01 5.16 -51.01 2.16 C-40.23 1.33 -29.44 0.94 -18.64 0.6 C-17.6 0.57 -17.6 0.57 -16.53 0.53 C-13.21 0.43 -9.89 0.33 -6.56 0.25 C-4.37 0.2 -2.19 0.12 0 0 Z " fill="#5F1B19" transform="translate(337.013427734375,383.839111328125)"/>
<path d="M0 0 C8.65 1.37 17.22 3.01 25.79 4.79 C27.05 5.05 28.32 5.31 29.62 5.58 C32.28 6.12 34.93 6.67 37.58 7.22 C40.97 7.93 44.37 8.63 47.77 9.33 C51.03 10 54.28 10.67 57.54 11.35 C59.37 11.72 59.37 11.72 61.24 12.11 C62.36 12.34 63.48 12.58 64.64 12.82 C65.63 13.02 66.62 13.23 67.64 13.44 C70 14 70 14 72 15 C72.75 17.47 73.38 19.88 73.95 22.39 C74.12 23.14 74.29 23.88 74.47 24.65 C74.84 26.23 75.21 27.8 75.57 29.38 C76.12 31.79 76.69 34.2 77.25 36.61 C77.61 38.14 77.97 39.67 78.32 41.21 C78.49 41.93 78.66 42.65 78.83 43.39 C79.59 46.72 80 49.56 80 53 C73.42 53.38 67.51 51.94 61.12 50.44 C53.87 48.74 46.64 47.08 39.31 45.77 C36.29 45.23 33.28 44.66 30.28 44.09 C28.81 43.82 27.34 43.57 25.87 43.33 C14.27 41.43 14.27 41.43 11.29 38.08 C10.2 35.73 9.57 33.52 9 31 C8.48 29.51 7.95 28.02 7.4 26.54 C6.91 25.05 6.42 23.56 5.94 22.06 C5.68 21.28 5.43 20.5 5.16 19.7 C4.43 17.47 3.72 15.23 3 13 C2.65 11.92 2.31 10.83 1.95 9.72 C0 3.44 0 3.44 0 0 Z " fill="#F88B92" transform="translate(35,391)"/>
<path d="M0 0 C-1.56 1.11 -3.12 2.21 -4.69 3.31 C-5.56 3.93 -6.43 4.54 -7.32 5.18 C-14.4 10 -14.4 10 -17 10 C-17 10.66 -17 11.32 -17 12 C-2.23 9.96 10.75 7.15 24 0 C26.8 10.67 26.8 19.58 23 30 C15.65 30.43 9.1 28.82 2 27 C1.34 29.64 0.68 32.28 0 35 C-3.96 34.34 -7.92 33.68 -12 33 C-12 30.36 -12 27.72 -12 25 C-20.08 22.82 -28.25 21.04 -36.44 19.31 C-37.49 19.09 -38.55 18.86 -39.63 18.63 C-40.64 18.42 -41.65 18.21 -42.68 17.99 C-43.59 17.8 -44.49 17.61 -45.42 17.41 C-47.99 17 -50.4 16.93 -53 17 C-53 17.99 -53 18.98 -53 20 C-55.34 19.74 -57.68 19.41 -60 19 C-60.33 18.34 -60.66 17.68 -61 17 C-59.69 16.78 -59.69 16.78 -58.35 16.55 C-47.87 14.64 -38.09 11.55 -28.06 8 C-26.51 7.46 -24.96 6.92 -23.41 6.38 C-20.57 5.39 -17.72 4.4 -14.88 3.39 C-14.25 3.17 -13.61 2.95 -12.96 2.72 C-11.57 2.21 -10.2 1.68 -8.83 1.12 C-3.3 -1.1 -3.3 -1.1 0 0 Z " fill="#FA9378" transform="translate(274,119)"/>
<path d="M0 0 C8.46 1.35 16.86 2.92 25.25 4.62 C26.39 4.85 27.53 5.08 28.7 5.32 C31.47 5.88 34.23 6.44 37 7 C38.63 12.56 36.35 16.88 34 22 C31.3 26.49 27.97 29.25 23 31 C16.81 31.7 12 30.89 7 27 C1.71 20.65 -0.16 15.53 -0.06 7.31 C-0.06 6.61 -0.05 5.91 -0.05 5.19 C-0.04 3.46 -0.02 1.73 0 0 Z " fill="#F99176" transform="translate(223,137)"/>
<path d="M0 0 C2.19 0.52 4.37 1.03 6.62 1.56 C20.08 4.73 33.54 7.86 47 11 C47 11.66 47 12.32 47 13 C45.96 13.5 44.92 14.01 43.85 14.53 C39.99 16.4 36.13 18.28 32.27 20.15 C30.6 20.96 28.93 21.78 27.26 22.59 C24.85 23.75 22.45 24.92 20.05 26.09 C19.3 26.45 18.56 26.81 17.79 27.18 C16.74 27.69 16.74 27.69 15.67 28.21 C15.05 28.51 14.44 28.81 13.81 29.11 C12.5 29.75 11.22 30.45 9.96 31.17 C8 32 8 32 5 31 C5.66 31 6.32 31 7 31 C4.69 20.77 2.38 10.54 0 0 Z " fill="#E6E5E5" transform="translate(108,413)"/>
<path d="M0 0 C0.66 0 1.32 0 2 0 C3.15 6.96 3.58 13.97 4.06 21 C4.15 22.29 4.24 23.58 4.33 24.91 C4.91 33.63 5.27 42.27 5 51 C-1.67 49.33 -8.33 47.67 -15 46 C-14.39 41.67 -13.35 37.81 -11.86 33.71 C-11.21 31.93 -11.21 31.93 -10.55 30.11 C-9.88 28.26 -9.88 28.26 -9.19 26.38 C-6.01 17.62 -2.89 8.86 0 0 Z " fill="#FEFCFC" transform="translate(148,310)"/>
<path d="M0 0 C3.51 3.27 5.48 7.07 7.75 11.25 C8.17 11.99 8.6 12.73 9.04 13.49 C11.69 18.39 12.51 21.4 11 27 C10.67 27.66 10.34 28.32 10 29 C9.77 30.87 9.59 32.75 9.44 34.62 C9.29 36.4 9.15 38.17 9 40 C4.05 40 -0.9 40 -6 40 C-5.55 31.15 -4.4 22.55 -3 13.81 C-2.82 12.69 -2.64 11.57 -2.46 10.41 C-1.13 2.26 -1.13 2.26 0 0 Z " fill="#FEFCFC" transform="translate(307,336)"/>
<path d="M0 0 C2.23 0.31 4.46 0.62 6.69 0.94 C7.93 1.11 9.17 1.29 10.45 1.46 C13.32 1.9 16.16 2.4 19 3 C18.42 8.05 17.33 12.49 15.62 17.31 C15.2 18.53 14.78 19.74 14.35 20.99 C13 24 13 24 10 26 C3.68 26.45 3.68 26.45 0 24 C-0.34 21.57 -0.34 21.57 -0.29 18.55 C-0.28 17.48 -0.27 16.4 -0.26 15.29 C-0.24 14.17 -0.21 13.04 -0.19 11.88 C-0.17 10.74 -0.16 9.6 -0.15 8.43 C-0.11 5.62 -0.06 2.81 0 0 Z " fill="#F68F75" transform="translate(276,148)"/>
<path d="M0 0 C1.03 0.96 1.03 0.96 2.07 1.94 C2.77 2.58 3.47 3.22 4.19 3.88 C5.76 5.5 5.76 5.5 5.76 6.5 C-3.23 7.24 -12.23 7.92 -21.24 8.5 C-22.12 8.56 -23 8.62 -23.91 8.68 C-25.98 8.8 -28.04 8.87 -30.11 8.94 C-31.2 8.98 -32.29 9.02 -33.42 9.06 C-37.27 8.3 -38.8 6.5 -41.24 3.5 C-41.24 2.84 -41.24 2.18 -41.24 1.5 C-36.49 1.07 -31.74 0.65 -26.99 0.22 C-25.37 0.08 -23.76 -0.07 -22.14 -0.21 C-19.82 -0.42 -17.49 -0.63 -15.16 -0.84 C-14.09 -0.94 -14.09 -0.94 -12.99 -1.04 C-2.89 -1.93 -2.89 -1.93 0 0 Z " fill="#F48890" transform="translate(368.23828125,411.49609375)"/>
<path d="M0 0 C3.33 1.11 3.74 1.65 5.68 4.4 C6.19 5.12 6.7 5.84 7.23 6.58 C7.77 7.36 8.31 8.13 8.88 8.94 C10.03 10.57 11.19 12.21 12.35 13.84 C12.95 14.69 13.55 15.53 14.16 16.41 C17.71 21.41 21.34 26.37 24.95 31.34 C25.47 32.05 25.98 32.76 26.52 33.5 C26.97 34.13 27.43 34.76 27.9 35.41 C29 37 29 37 30 39 C20.83 36.32 16.2 32.76 11.06 24.94 C10.03 23.41 8.99 21.89 7.96 20.36 C7.46 19.62 6.96 18.88 6.44 18.11 C3.87 14.35 1.09 10.73 -1.67 7.1 C-3 5 -3 5 -3 2 C-2.01 1.34 -1.02 0.68 0 0 Z " fill="#611B19" transform="translate(198,332)"/>
<path d="M0 0 C2.97 1.39 4.7 2.7 7 5 C7.57 11.23 7.57 11.23 5.62 13.88 C1.63 16.64 -2.27 16.7 -7 16 C-10.71 14.22 -12.66 11.85 -14.19 8 C-14 5 -14 5 -12.12 2.12 C-7.98 -0.7 -4.88 -0.83 0 0 Z " fill="#F18B71" transform="translate(414,382)"/>
<path d="M0 0 C5.21 -0.05 10.43 -0.06 15.64 -0.02 C17.73 -0 19.82 -0.01 21.91 -0.02 C29.88 0.18 29.88 0.18 32.87 2.38 C35.92 6.24 36.7 10.17 37 15 C33.08 13.69 30.67 12.17 28 9 C28 8.34 28 7.68 28 7 C26.88 7.29 25.75 7.58 24.6 7.88 C9.84 11.57 9.84 11.57 2 11 C4.38 8.62 5.53 8.52 8.79 7.93 C9.73 7.76 10.67 7.58 11.64 7.4 C12.63 7.23 13.61 7.05 14.62 6.88 C16.11 6.6 16.11 6.6 17.63 6.32 C20.09 5.88 22.54 5.43 25 5 C24.67 4.34 24.34 3.68 24 3 C23.07 2.97 23.07 2.97 22.12 2.94 C19.31 2.84 16.5 2.74 13.69 2.62 C12.71 2.59 11.73 2.56 10.73 2.53 C9.79 2.49 8.85 2.45 7.89 2.41 C7.02 2.38 6.16 2.35 5.27 2.32 C3 2 3 2 0 0 Z " fill="#702924" transform="translate(209,386)"/>
<path d="M0 0 C7.29 0.65 14.27 2.04 21.41 3.65 C23.16 4.04 23.16 4.04 24.95 4.44 C28.65 5.27 32.36 6.1 36.06 6.94 C38.56 7.49 41.05 8.05 43.54 8.61 C63.12 12.99 63.12 12.99 71 15 C71 15.66 71 16.32 71 17 C64.74 16.39 58.71 15.42 52.57 14.07 C51.69 13.89 50.81 13.7 49.91 13.5 C47.13 12.9 44.34 12.29 41.56 11.69 C39.73 11.29 37.9 10.9 36.07 10.5 C31.59 9.53 27.11 8.56 22.63 7.58 C20.87 7.19 19.1 6.8 17.33 6.42 C14.81 5.87 12.3 5.32 9.78 4.77 C8.64 4.52 8.64 4.52 7.48 4.27 C2.23 3.11 2.23 3.11 0 2 C0 1.34 0 0.68 0 0 Z " fill="#782B2B" transform="translate(38,402)"/>
<path d="M0 0 C3.3 -0.68 4.81 -0.91 8 0 C11.09 2.54 13.74 5.29 16.43 8.23 C18.44 10.4 20.37 12.25 22.69 14.06 C23.45 14.7 24.21 15.34 25 16 C25 16.66 25 17.32 25 18 C21.7 18.68 20.19 18.91 17 18 C13.91 15.46 11.26 12.71 8.57 9.77 C6.56 7.6 4.63 5.75 2.31 3.94 C1.55 3.3 0.79 2.66 0 2 C0 1.34 0 0.68 0 0 Z " fill="#ED868D" transform="translate(297,390)"/>
<path d="M0 0 C2.97 1.39 4.7 2.7 7 5 C7.57 11.23 7.57 11.23 5.62 13.88 C1.63 16.64 -2.27 16.7 -7 16 C-10.71 14.22 -12.66 11.85 -14.19 8 C-14 5 -14 5 -12.12 2.12 C-7.98 -0.7 -4.88 -0.83 0 0 Z M-11 4 C-11.67 6.91 -11.67 6.91 -11 10 C-8.88 12.52 -7.3 13.8 -3.99 14.31 C-0.16 14.43 1.78 14.15 5 12 C5.67 9.09 5.67 9.09 5 6 C2.88 3.48 1.3 2.2 -2.01 1.69 C-5.84 1.57 -7.78 1.85 -11 4 Z " fill="#712722" transform="translate(414,382)"/>
<path d="M0 0 C1.16 3.48 0.77 4.34 -0.44 7.69 C-0.87 8.9 -0.87 8.9 -1.31 10.14 C-1.54 10.75 -1.76 11.37 -2 12 C3.95 11.87 3.95 11.87 8.5 8.44 C9 7.63 9.49 6.83 10 6 C9.67 7.65 9.34 9.3 9 11 C18.57 11.33 28.14 11.66 38 12 C38 12.33 38 12.66 38 13 C24.8 13 11.6 13 -2 13 C-2.33 13.66 -2.66 14.32 -3 15 C-4.01 10.21 -4.58 7.32 -2.06 3 C-1.38 2.01 -0.7 1.02 0 0 Z " fill="#823429" transform="translate(358,364)"/>
<path d="M0 0 C1.69 3.37 -0.31 6.72 -1.44 10.12 C-1.68 10.88 -1.92 11.63 -2.17 12.41 C-2.78 14.28 -3.39 16.14 -4 18 C-3.34 18 -2.68 18 -2 18 C-2 18.66 -2 19.32 -2 20 C-3.32 20 -4.64 20 -6 20 C-6.33 21.32 -6.66 22.64 -7 24 C-9.07 19.85 -6.33 14.21 -5 10 C-3.5 6.57 -1.83 3.27 0 0 Z " fill="#81362E" transform="translate(330,358)"/>
<path d="M0 0 C0.66 0 1.32 0 2 0 C1.62 6.83 -0.36 12.18 -4 18 C-4.66 18.33 -5.32 18.66 -6 19 C-4.12 12.62 -2.14 6.29 0 0 Z " fill="#87311F" transform="translate(295,152)"/>
<path d="M0 0 C1.13 0.12 2.27 0.25 3.44 0.38 C5.92 4.11 5.74 5.95 5.44 10.38 C4.44 13.81 4.44 13.81 3.44 16.38 C2.43 13.36 2.33 11.33 2.38 8.19 C2.38 7.29 2.39 6.39 2.4 5.46 C2.41 4.77 2.43 4.08 2.44 3.38 C-0.53 3.38 -3.5 3.38 -6.56 3.38 C-3.56 0.38 -3.56 0.38 0 0 Z " fill="#752A24" transform="translate(437.5625,364.625)"/>
<path d="M0 0 C2.97 0.5 2.97 0.5 6 1 C6.33 2.32 6.66 3.64 7 5 C4.19 5.62 4.19 5.62 1 6 C0.01 5.34 -0.98 4.68 -2 4 C-1.34 2.68 -0.68 1.36 0 0 Z " fill="#D97C81" transform="translate(322,395)"/>
<path d="M0 0 C2.97 0.5 2.97 0.5 6 1 C6.33 2.32 6.66 3.64 7 5 C4.19 5.62 4.19 5.62 1 6 C0.01 5.34 -0.98 4.68 -2 4 C-1.34 2.68 -0.68 1.36 0 0 Z " fill="#D97C81" transform="translate(327,387)"/>
<path d="M0 0 C1.65 0.33 3.3 0.66 5 1 C5.33 2.65 5.66 4.3 6 6 C2.7 6.33 -0.6 6.66 -4 7 C-2.68 4.69 -1.36 2.38 0 0 Z " fill="#F7EFEE" transform="translate(324,378)"/>
<path d="M0 0 C2.12 0.38 2.12 0.38 4 1 C4.12 3.38 4.12 3.38 4 6 C3.34 6.66 2.68 7.32 2 8 C-0.12 7.62 -0.12 7.62 -2 7 C-2.12 4.62 -2.12 4.62 -2 2 C-1.34 1.34 -0.68 0.68 0 0 Z " fill="#661F1B" transform="translate(241,149)"/>
<path d="M0 0 C2.38 -0.12 2.38 -0.12 5 0 C7 2 7 2 7 5 C4.69 5.62 4.69 5.62 2 6 C1.01 5.34 0.02 4.68 -1 4 C-0.67 2.68 -0.34 1.36 0 0 Z " fill="#E07F85" transform="translate(315,388)"/>
<path d="M0 0 C1.45 0.03 1.45 0.03 2.94 0.06 C3.6 1.38 4.26 2.7 4.94 4.06 C3.94 5.06 3.94 5.06 0.88 5.12 C-0.09 5.1 -1.06 5.08 -2.06 5.06 C-2.72 3.74 -3.38 2.42 -4.06 1.06 C-3.06 0.06 -3.06 0.06 0 0 Z " fill="#E68389" transform="translate(355.0625,400.9375)"/>
<path d="M0 0 C1.18 3.55 0.45 5.49 -0.53 9.01 C-1.11 11.11 -1.11 11.11 -0.94 13.75 C-1.02 16.67 -2.2 17.77 -4 20 C-4.52 12.31 -3.75 6.78 0 0 Z " fill="#782E27" transform="translate(350,361)"/>
<path d="M0 0 C2.31 0 4.62 0 7 0 C7.56 1.94 7.56 1.94 8 4 C7.67 4.33 7.34 4.66 7 5 C4.66 4.71 2.33 4.38 0 4 C0 2.68 0 1.36 0 0 Z " fill="#E68389" transform="translate(340,402)"/>
<path d="M0 0 C2.31 0 4.62 0 7 0 C7.56 1.94 7.56 1.94 8 4 C7.67 4.33 7.34 4.66 7 5 C4.66 4.71 2.33 4.38 0 4 C0 2.68 0 1.36 0 0 Z " fill="#E68389" transform="translate(344,394)"/>
<path d="M0 0 C1.01 0.08 2.02 0.17 3.06 0.25 C3.72 1.24 4.38 2.23 5.06 3.25 C3.06 5.25 3.06 5.25 0.44 5.38 C-0.35 5.33 -1.13 5.29 -1.94 5.25 C-2.6 3.93 -3.26 2.61 -3.94 1.25 C-2.94 0.25 -2.94 0.25 0 0 Z " fill="#E7838A" transform="translate(335.9375,394.75)"/>
<path d="M0 0 C1.01 0.08 2.02 0.17 3.06 0.25 C3.72 1.24 4.38 2.23 5.06 3.25 C3.06 5.25 3.06 5.25 0.44 5.38 C-0.35 5.33 -1.13 5.29 -1.94 5.25 C-2.6 3.93 -3.26 2.61 -3.94 1.25 C-2.94 0.25 -2.94 0.25 0 0 Z " fill="#E68289" transform="translate(340.9375,386.75)"/>
<path d="M0 0 C1 3 1 3 0.06 6.25 C-1.01 10.03 -1.16 13.1 -1 17 C-1.66 17 -2.32 17 -3 17 C-3.33 17.66 -3.66 18.32 -4 19 C-4.47 11.67 -3.1 6.63 0 0 Z " fill="#732923" transform="translate(340,360)"/>
<path d="M0 0 C1.45 0.03 1.45 0.03 2.94 0.06 C3.5 2 3.5 2 3.94 4.06 C2.94 5.06 2.94 5.06 0.38 5.12 C-0.83 5.09 -0.83 5.09 -2.06 5.06 C-2.72 3.74 -3.38 2.42 -4.06 1.06 C-3.06 0.06 -3.06 0.06 0 0 Z " fill="#EB858C" transform="translate(332.0625,402.9375)"/>
<path d="M0 0 C2.12 0.38 2.12 0.38 4 1 C3.67 2.65 3.34 4.3 3 6 C1.68 6.33 0.36 6.66 -1 7 C-1.62 4.62 -1.62 4.62 -2 2 C-1.34 1.34 -0.68 0.68 0 0 Z " fill="#722822" transform="translate(283,158)"/>
<path d="M0 0 C0.99 0 1.98 0 3 0 C3.66 1.65 4.32 3.3 5 5 C4 6 4 6 0.44 6.06 C-0.7 6.04 -1.83 6.02 -3 6 C-2.01 4.02 -1.02 2.04 0 0 Z " fill="#FCF9F8" transform="translate(337,378)"/>
<path d="M0 0 C2.07 3.1 2.24 3.73 2.2 7.23 C2.19 8.03 2.18 8.84 2.18 9.66 C2.16 10.5 2.14 11.33 2.12 12.19 C2.12 13.03 2.11 13.88 2.1 14.75 C2.07 16.83 2.04 18.92 2 21 C1.67 21 1.34 21 1 21 C1 15.72 1 10.44 1 5 C-0.32 4.67 -1.64 4.34 -3 4 C-2.34 3.67 -1.68 3.34 -1 3 C-0.67 2.01 -0.34 1.02 0 0 Z " fill="#A04C3F" transform="translate(274,151)"/>
<path d="M0 0 C-0.99 0.33 -1.98 0.66 -3 1 C-3 1.99 -3 2.98 -3 4 C-5.34 3.74 -7.68 3.41 -10 3 C-10.33 2.34 -10.66 1.68 -11 1 C-9.54 0.64 -8.08 0.29 -6.62 -0.06 C-5.41 -0.36 -5.41 -0.36 -4.16 -0.66 C-2 -1 -2 -1 0 0 Z " fill="#D37963" transform="translate(224,135)"/>
<path d="M0 0 C3.81 1.44 5.3 3.33 7 7 C6.67 7.99 6.34 8.98 6 10 C4.99 8.71 4 7.42 3 6.12 C2.44 5.41 1.89 4.69 1.31 3.95 C0 2 0 2 0 0 Z " fill="#7C332C" transform="translate(406,359)"/>
</svg>
