<?xml version="1.0" encoding="UTF-8"?>
<!-- Generator: visioncortex VTracer 0.6.3 -->
<svg version="1.1" xmlns="http://www.w3.org/2000/svg" width="217" height="232">
<path d="M0 0 C71.61 0 143.22 0 217 0 C217 76.56 217 153.12 217 232 C145.39 232 73.78 232 0 232 C0 155.44 0 78.88 0 0 Z " fill="#FDFDFD" transform="translate(0,0)"/>
<path d="M0 0 C3.68 1.32 4.49 3.21 6.43 6.57 C6.76 7.14 7.09 7.7 7.44 8.29 C8.52 10.16 9.57 12.05 10.62 13.94 C10.99 14.62 11.37 15.3 11.76 15.99 C18.62 28.37 18.62 28.37 18.62 30.94 C19.4 31.04 20.18 31.15 20.99 31.25 C23.62 31.94 23.62 31.94 25.62 34.94 C25.7 37.27 25.71 39.61 25.62 41.94 C27.1 42.44 27.1 42.44 28.62 42.94 C31.25 56.18 31.25 56.18 29.62 61.94 C26 64.35 23.29 64.27 19.12 64.25 C18.44 64.27 17.76 64.29 17.07 64.3 C14.29 64.31 12.12 64.22 9.67 62.85 C8.06 59.92 8.26 57.38 8.3 54.07 C8.31 52.85 8.31 51.64 8.32 50.39 C8.6 47.14 9.22 44.86 10.62 41.94 C11.28 41.94 11.94 41.94 12.62 41.94 C13.53 36.84 13.43 33.22 10.59 28.75 C9.77 27.69 8.93 26.63 8.08 25.58 C7.66 25.04 7.23 24.49 6.79 23.93 C5.74 22.59 4.68 21.26 3.62 19.94 C3.61 20.64 3.6 21.34 3.59 22.05 C3.51 28.62 3.43 35.18 3.33 41.74 C3.28 45.12 3.23 48.49 3.2 51.86 C3.15 55.74 3.09 59.62 3.03 63.5 C3.02 64.71 3.01 65.93 3 67.18 C2.98 68.3 2.96 69.42 2.94 70.57 C2.92 71.56 2.91 72.55 2.9 73.57 C2.62 75.94 2.62 75.94 0.62 77.94 C-1.88 78.19 -1.88 78.19 -4.38 77.94 C-6.99 75.33 -6.83 73.81 -7.2 70.16 C-7.32 69.01 -7.45 67.86 -7.58 66.67 C-7.7 65.46 -7.82 64.25 -7.95 63 C-8.19 60.62 -8.44 58.24 -8.7 55.85 C-8.81 54.79 -8.91 53.73 -9.03 52.64 C-9.31 49.85 -9.31 49.85 -10.38 46.94 C-10.46 47.77 -10.54 48.61 -10.63 49.46 C-10.93 52.56 -11.24 55.65 -11.55 58.74 C-11.76 60.73 -11.95 62.73 -12.14 64.72 C-12.33 66.61 -12.33 66.61 -12.53 68.52 C-12.65 69.68 -12.76 70.84 -12.88 72.03 C-13.38 74.94 -13.38 74.94 -15.38 77.94 C-17.88 78.25 -17.88 78.25 -20.38 77.94 C-22.99 75.34 -22.65 74.21 -22.7 70.57 C-22.72 69.45 -22.74 68.33 -22.76 67.18 C-22.77 65.96 -22.78 64.75 -22.8 63.5 C-22.82 62.26 -22.84 61.02 -22.86 59.74 C-22.91 56.44 -22.95 53.14 -22.98 49.84 C-23.02 46.48 -23.07 43.11 -23.12 39.75 C-23.22 33.15 -23.31 26.54 -23.38 19.94 C-24.51 21.69 -25.63 23.44 -26.76 25.19 C-27.38 26.17 -28.01 27.14 -28.66 28.14 C-31.76 33.18 -32.61 35.91 -32.38 41.94 C-30.9 42.44 -30.9 42.44 -29.38 42.94 C-26.75 54.64 -26.75 54.64 -27.38 59.94 C-28.93 62.11 -28.93 62.11 -31.38 63.94 C-34.95 64.4 -34.95 64.4 -38.95 64.32 C-39.95 64.31 -39.95 64.31 -40.98 64.31 C-44.64 64.25 -46.27 64.02 -49.38 61.94 C-49.66 59.23 -49.76 56.78 -49.7 54.07 C-49.7 53.35 -49.7 52.63 -49.71 51.88 C-49.67 48.1 -49.49 45.15 -47.38 41.94 C-46.72 41.94 -46.06 41.94 -45.38 41.94 C-45.47 40.87 -45.55 39.8 -45.63 38.69 C-45.38 34.94 -45.38 34.94 -43.57 32.57 C-41.38 30.94 -41.38 30.94 -38.38 29.94 C-36.91 27.75 -36.91 27.75 -35.61 25.02 C-35.09 24.02 -34.58 23.01 -34.05 21.97 C-33.52 20.91 -32.99 19.85 -32.45 18.75 C-25.39 4.75 -25.39 4.75 -22.38 0.94 C-18.23 0.25 -16.02 1.12 -12.38 2.94 C-8.03 3.41 -8.03 3.41 -4.32 1.38 C-2.38 -0.06 -2.38 -0.06 0 0 Z " fill="#1E2E3B" transform="translate(118.3828125,57.05859375)"/>
<path d="M0 0 C71.61 0 143.22 0 217 0 C217 4.62 217 9.24 217 14 C145.39 14 73.78 14 0 14 C0 9.38 0 4.76 0 0 Z " fill="#282E38" transform="translate(0,218)"/>
<path d="M0 0 C71.61 0 143.22 0 217 0 C217 2.64 217 5.28 217 8 C216.67 6.68 216.34 5.36 216 4 C206.43 4 196.86 4 187 4 C187 3.34 187 2.68 187 2 C143.11 2 99.22 2 54 2 C53.67 2.66 53.34 3.32 53 4 C53.99 4.33 54.98 4.66 56 5 C56 5.66 56 6.32 56 7 C55.01 7 54.02 7 53 7 C52.67 7.99 52.34 8.98 52 10 C51.85 9.1 51.85 9.1 51.69 8.19 C50.89 5.67 50.08 4.6 48 3 C47.01 3 46.02 3 45 3 C44.67 3.99 44.34 4.98 44 6 C41.94 6.69 41.94 6.69 40 7 C40 6.34 40 5.68 40 5 C39.01 5.33 38.02 5.66 37 6 C36.34 5.67 35.68 5.34 35 5 C34.44 5.23 33.89 5.45 33.31 5.69 C30.11 6.12 28.58 4.58 25.94 2.94 C22.48 1.27 19.78 1.56 16 2 C14.31 3.44 14.31 3.44 13 5 C10.31 5.19 10.31 5.19 8 5 C8 5.99 8 6.98 8 8 C10.48 8.99 10.48 8.99 13 10 C13.33 9.01 13.66 8.02 14 7 C14.66 7.66 15.32 8.32 16 9 C16.99 9.33 17.98 9.66 19 10 C19.33 9.01 19.66 8.02 20 7 C20 7.99 20 8.98 20 10 C20.66 10.33 21.32 10.66 22 11 C21.67 11.99 21.34 12.98 21 14 C14.07 14 7.14 14 0 14 C0 9.38 0 4.76 0 0 Z " fill="#23272F" transform="translate(0,218)"/>
<path d="M0 0 C2.19 1 2.19 1 4 2 C3.13 3.16 3.13 3.16 2.25 4.34 C-3.63 12.43 -3.63 12.43 -4 22 C-3.01 22.33 -2.02 22.66 -1 23 C1.64 34.7 1.64 34.7 1 40 C-0.55 42.17 -0.55 42.17 -3 44 C-6.57 44.46 -6.57 44.46 -10.56 44.38 C-11.57 44.37 -11.57 44.37 -12.6 44.37 C-16.25 44.31 -17.89 44.07 -21 42 C-21.28 39.29 -21.37 36.83 -21.31 34.12 C-21.32 33.4 -21.32 32.68 -21.32 31.94 C-21.28 28.15 -21.11 25.21 -19 22 C-18.34 22 -17.68 22 -17 22 C-17.12 20.39 -17.12 20.39 -17.25 18.75 C-17 15 -17 15 -15.19 12.62 C-13 11 -13 11 -10 10 C-8.61 7.94 -8.61 7.94 -7.44 5.5 C-4.64 0 -4.64 0 0 0 Z " fill="#1C2A35" transform="translate(90,77)"/>
<path d="M0 0 C4.18 0.07 6.99 1.44 10.52 3.6 C12.88 4.58 13.97 4.07 16.38 3.38 C18.05 4.03 19.71 4.69 21.38 5.38 C22.37 5.04 23.35 4.72 24.38 4.38 C24.38 3.38 24.38 2.4 24.38 1.38 C26.25 0.75 26.25 0.75 28.38 0.38 C29.03 1.03 29.7 1.69 30.38 2.38 C30.05 2.71 29.72 3.03 29.38 3.38 C30.37 4.03 31.35 4.69 32.38 5.38 C32.87 5.87 32.87 5.87 33.38 6.38 C34.37 6.71 35.35 7.03 36.38 7.38 C33.99 11.36 31.79 12.19 27.38 13.38 C24.31 13.6 24.31 13.6 21.1 13.57 C19.37 13.56 19.37 13.56 17.61 13.55 C16.42 13.53 15.23 13.52 14 13.5 C12.79 13.49 11.57 13.48 10.32 13.47 C7.34 13.45 4.36 13.42 1.38 13.38 C1.05 12.06 0.71 10.74 0.38 9.38 C-3.59 9.38 -7.54 9.38 -11.62 9.38 C-11.62 7.72 -11.62 6.07 -11.62 4.38 C-10.2 3.94 -10.2 3.94 -8.75 3.5 C-4.91 2.12 -4.17 0.43 0 0 Z " fill="#333841" transform="translate(19.625,218.625)"/>
<path d="M0 0 C2.5 1.88 3.62 3.24 5 6 C5.39 10.18 5.45 12.31 3.12 15.88 C0.44 18.56 -0.45 18.94 -4.25 19.38 C-9.13 18.89 -10.86 17.75 -14 14 C-14.8 10.82 -14.75 8.18 -14 5 C-10.51 -0.52 -6.1 -1.27 0 0 Z " fill="#202F3B" transform="translate(113,37)"/>
<path d="M0 0 C3.69 0.69 3.69 0.69 5 2 C5.33 2 5.66 2 6 2 C6.28 4.25 6.52 6.5 6.75 8.75 C6.89 10 7.03 11.26 7.17 12.55 C7 16 7 16 5.5 18.44 C2.1 20.56 -0.88 20.44 -4.75 20.25 C-5.45 20.23 -6.14 20.21 -6.86 20.2 C-8.58 20.15 -10.29 20.08 -12 20 C-10.68 18.68 -9.36 17.36 -8 16 C-7.67 16.33 -7.34 16.66 -7 17 C-6.34 16.67 -5.68 16.34 -5 16 C-4.01 16.33 -3.02 16.66 -2 17 C-2 16.34 -2 15.68 -2 15 C-2.76 15.06 -3.53 15.12 -4.31 15.19 C-7 15 -7 15 -8.81 13.88 C-10.55 11.13 -10.4 9.18 -10 6 C-7.86 2.68 -4.64 2.11 -1 1 C-0.67 0.67 -0.34 0.34 0 0 Z " fill="#253441" transform="translate(142,101)"/>
<path d="M0 0 C2.19 1 2.19 1 4 2 C2.77 4.01 1.51 6.01 0.25 8 C-0.45 9.11 -1.14 10.23 -1.86 11.38 C-2.57 12.24 -3.27 13.11 -4 14 C-5.32 14 -6.64 14 -8 14 C-7.01 14.66 -6.02 15.32 -5 16 C-4.81 19.12 -4.81 19.12 -5 22 C-8.63 22 -12.26 22 -16 22 C-16.34 18.3 -16.48 16.6 -14.12 13.62 C-12 12 -12 12 -10 12 C-9.6 10.67 -9.6 10.67 -9.19 9.31 C-5.85 0 -5.85 0 0 0 Z " fill="#273642" transform="translate(90,77)"/>
<path d="M0 0 C2.32 0.19 2.32 0.19 5 1 C6.58 3.21 6.58 3.21 7.81 5.94 C8.23 6.83 8.65 7.73 9.08 8.65 C10 11 10 11 10 13 C11.65 13.33 13.3 13.66 15 14 C16.04 17.38 16.08 20.48 16 24 C12.37 24 8.74 24 5 24 C4.8 21.46 4.61 18.92 4.41 16.38 C4.2 13.82 4.2 13.82 2 12 C2.38 8.88 2.38 8.88 3 6 C2.01 6 1.02 6 0 6 C0 5.34 0 4.68 0 4 C0.99 4 1.98 4 3 4 C3 3.34 3 2.68 3 2 C2.01 2 1.02 2 0 2 C0 1.34 0 0.68 0 0 Z " fill="#2A3740" transform="translate(127,75)"/>
<path d="M0 0 C2.47 0.99 2.47 0.99 5 2 C4.67 3.32 4.34 4.64 4 6 C5.09 5.77 6.19 5.55 7.31 5.31 C11 5 11 5 12.94 6.06 C14.49 8.9 14.46 10.82 14 14 C11.77 16.24 10.61 16.98 7.42 17.07 C6.1 16.88 6.1 16.88 4.75 16.69 C3.86 16.57 2.97 16.45 2.05 16.32 C1.37 16.22 0.7 16.11 0 16 C-1.96 10.47 -2.1 6.78 -1 1 C-0.67 0.67 -0.34 0.34 0 0 Z " fill="#273642" transform="translate(71,99)"/>
<path d="M0 0 C9.9 0 19.8 0 30 0 C30.33 3.3 30.66 6.6 31 10 C30.01 10 29.02 10 28 10 C28 9.34 28 8.68 28 8 C23.38 8 18.76 8 14 8 C14 7.67 14 7.34 14 7 C9.71 6.67 5.42 6.34 1 6 C1 5.34 1 4.68 1 4 C8.92 3.67 16.84 3.34 25 3 C16.64 2.39 8.39 1.82 0 2 C0 1.34 0 0.68 0 0 Z " fill="#404650" transform="translate(186,222)"/>
<path d="M0 0 C0.66 0.66 1.32 1.32 2 2 C1.62 5.63 1.62 5.63 1 9 C-1 9 -1 9 -2.62 7.5 C-3.08 7 -3.53 6.51 -4 6 C-4 6.99 -4 7.98 -4 9 C-7.63 9 -11.26 9 -15 9 C-15 6.03 -15 3.06 -15 0 C-9.66 -1 -5.36 -1 0 0 Z " fill="#ECF2F7" transform="translate(130,162)"/>
<path d="M0 0 C0.66 0 1.32 0 2 0 C2.33 2.31 2.66 4.62 3 7 C3.99 7.33 4.98 7.66 6 8 C6 5.36 6 2.72 6 0 C8.88 -0.19 8.88 -0.19 12 0 C12.66 0.99 13.32 1.98 14 3 C14.66 2.01 15.32 1.02 16 0 C16.66 0 17.32 0 18 0 C17.01 2.97 16.02 5.94 15 9 C11.92 9.29 11.92 9.29 8.85 9.59 C8.24 9.72 7.63 9.86 7 10 C6.67 10.66 6.34 11.32 6 12 C6 11.34 6 10.68 6 10 C5.2 9.86 4.39 9.71 3.56 9.56 C1 9 1 9 0 8 C-0.14 5.33 -0.04 2.68 0 0 Z " fill="#E4E8EC" transform="translate(95,162)"/>
<path d="M0 0 C1.81 1.12 1.81 1.12 3 3 C3.4 6.18 3.55 8.13 1.81 10.88 C-0.66 12.41 -2.15 12.43 -5 12 C-6.81 10.88 -6.81 10.88 -8 9 C-8.4 5.82 -8.55 3.87 -6.81 1.12 C-4.34 -0.41 -2.85 -0.43 0 0 Z " fill="#E4EDF1" transform="translate(140,104)"/>
<path d="M0 0 C2 2 2 2 2.12 5.12 C2.08 6.07 2.04 7.02 2 8 C-1.63 8 -5.26 8 -9 8 C-9.12 2.25 -9.12 2.25 -8 0 C-4.68 -1.11 -3.31 -0.93 0 0 Z " fill="#F8F8FB" transform="translate(141,91)"/>
<path d="M0 0 C3.75 1.13 4.64 0.42 8.12 -1.06 C11.44 -0.69 11.44 -0.69 14.12 -0.06 C14.12 1.59 14.12 3.24 14.12 4.94 C7.52 4.94 0.92 4.94 -5.88 4.94 C-5.88 3.29 -5.88 1.64 -5.88 -0.06 C-2.88 -1.06 -2.88 -1.06 0 0 Z " fill="#BFC6CD" transform="translate(13.875,223.0625)"/>
<path d="M0 0 C1.32 0 2.64 0 4 0 C4 0.66 4 1.32 4 2 C5.65 2.33 7.3 2.66 9 3 C9 4.98 9 6.96 9 9 C5.37 9 1.74 9 -2 9 C-2.25 3.38 -2.25 3.38 0 0 Z " fill="#E8EEF1" transform="translate(76,90)"/>
<path d="M0 0 C3.88 0.88 3.88 0.88 5 2 C5.31 4.88 5.31 4.88 5 8 C3.31 9.94 3.31 9.94 1 11 C-2.37 10.76 -3.59 10.41 -6 8 C-6.12 4.88 -6.12 4.88 -6 2 C-5.01 2 -4.02 2 -3 2 C-3 3.98 -3 5.96 -3 8 C-2.01 8 -1.02 8 0 8 C-0.19 7.24 -0.37 6.47 -0.56 5.69 C-1 3 -1 3 0 0 Z " fill="#E6EEF2" transform="translate(80,105)"/>
<path d="M0 0 C0.33 0 0.66 0 1 0 C3.3 15.74 3.3 15.74 3 23 C2.34 22.34 1.68 21.68 1 21 C0.01 21.66 -0.98 22.32 -2 23 C-1.86 20.1 -1.71 17.21 -1.56 14.31 C-1.52 13.5 -1.48 12.68 -1.44 11.84 C-1.23 7.8 -0.96 3.94 0 0 Z " fill="#DDE5E7" transform="translate(108,99)"/>
<path d="M0 0 C1.98 0 3.96 0 6 0 C6.7 3.15 7 5.73 7 9 C4.69 9 2.38 9 0 9 C0 6.03 0 3.06 0 0 Z " fill="#4E5860" transform="translate(86,162)"/>
<path d="M0 0 C2.88 -0.12 2.88 -0.12 6 0 C6.66 0.66 7.32 1.32 8 2 C7.62 5.62 7.62 5.62 7 9 C5 9 5 9 3.38 7.5 C2.92 7 2.47 6.51 2 6 C2 6.99 2 7.98 2 9 C1.34 9 0.68 9 0 9 C0 6.03 0 3.06 0 0 Z " fill="#474E55" transform="translate(124,162)"/>
<path d="M0 0 C-1 3 -1 3 -3 4 C-2.34 5.65 -1.68 7.3 -1 9 C-2.65 8.67 -4.3 8.34 -6 8 C-6 7.01 -6 6.02 -6 5 C-6.99 4.67 -7.98 4.34 -9 4 C-9.99 4.5 -9.99 4.5 -11 5 C-11 3.35 -11 1.7 -11 0 C-6.98 -0.84 -3.98 -1.05 0 0 Z " fill="#737A80" transform="translate(40,223)"/>
<path d="M0 0 C1.32 0.33 2.64 0.66 4 1 C3.67 1.99 3.34 2.98 3 4 C2.77 6.39 2.59 8.79 2.44 11.19 C2.35 12.46 2.27 13.73 2.18 15.04 C2.12 16.02 2.06 16.99 2 18 C1.34 18 0.68 18 0 18 C0 17.34 0 16.68 0 16 C-0.66 16 -1.32 16 -2 16 C-2.33 15.01 -2.66 14.02 -3 13 C-2.34 13 -1.68 13 -1 13 C-1.06 11.11 -1.06 11.11 -1.12 9.19 C-1.24 5.71 -1.06 5.09 1 2 C0.67 1.34 0.34 0.68 0 0 Z " fill="#E2E9EC" transform="translate(67,99)"/>
<path d="M0 0 C0.33 0 0.66 0 1 0 C1.48 6.3 1.48 6.3 -0.69 9.44 C-3.38 11.26 -4.81 11.35 -8 11 C-8.33 9.02 -8.66 7.04 -9 5 C-6.03 5.5 -6.03 5.5 -3 6 C-3 5.34 -3 4.68 -3 4 C-2.01 4 -1.02 4 0 4 C0 2.68 0 1.36 0 0 Z " fill="#27333D" transform="translate(90,110)"/>
<path d="M0 0 C1.32 0 2.64 0 4 0 C4.33 0.66 4.66 1.32 5 2 C7.13 2.47 7.13 2.47 9.56 2.62 C10.39 2.7 11.22 2.77 12.07 2.85 C12.7 2.9 13.34 2.95 14 3 C13.34 3.47 12.68 3.95 12 4.44 C11.01 5.21 11.01 5.21 10 6 C10 6.33 10 6.66 10 7 C7.69 7 5.38 7 3 7 C2.67 6.34 2.34 5.68 2 5 C1.01 4.34 0.02 3.68 -1 3 C-0.67 2.01 -0.34 1.02 0 0 Z " fill="#21282F" transform="translate(36,225)"/>
<path d="M0 0 C0.78 0.04 1.57 0.08 2.38 0.12 C2.38 3.12 2.38 6.12 2.38 9.12 C0.72 8.8 -0.93 8.47 -2.62 8.12 C-3.28 6.14 -3.94 4.17 -4.62 2.12 C-2.62 0.12 -2.62 0.12 0 0 Z " fill="#E0E5EA" transform="translate(137.625,103.875)"/>
<path d="M0 0 C0.33 0 0.66 0 1 0 C1 2.97 1 5.94 1 9 C2.98 9 4.96 9 7 9 C5.68 9.33 4.36 9.66 3 10 C3.33 11.32 3.66 12.64 4 14 C2.34 14.38 0.68 14.71 -1 15 C-2 14 -2 14 -2.06 11.44 C-2.04 10.63 -2.02 9.83 -2 9 C-1.34 9 -0.68 9 0 9 C0 6.03 0 3.06 0 0 Z " fill="#C9CBCD" transform="translate(85,162)"/>
<path d="M0 0 C1.67 -0.04 3.33 -0.04 5 0 C6 1 6 1 6.06 4.06 C6.04 5.03 6.02 6 6 7 C3.36 7 0.72 7 -2 7 C-1.34 6.67 -0.68 6.34 0 6 C0 4.02 0 2.04 0 0 Z " fill="#E4E4E4" transform="translate(34,170)"/>
<path d="M0 0 C0.33 0 0.66 0 1 0 C1.33 3.63 1.66 7.26 2 11 C8.93 11.5 8.93 11.5 16 12 C16 12.33 16 12.66 16 13 C8.08 13.5 8.08 13.5 0 14 C-0.66 12.02 -1.32 10.04 -2 8 C-1.67 7.67 -1.34 7.34 -1 7 C-0.63 4.67 -0.3 2.34 0 0 Z " fill="#F6F9FB" transform="translate(126,109)"/>
<path d="M0 0 C1.98 0 3.96 0 6 0 C6 2.64 6 5.28 6 8 C3.03 7.5 3.03 7.5 0 7 C0 4.69 0 2.38 0 0 Z " fill="#E3E3E3" transform="translate(155,192)"/>
<path d="M0 0 C1.98 0 3.96 0 6 0 C6 2.31 6 4.62 6 7 C4.02 7 2.04 7 0 7 C0 4.69 0 2.38 0 0 Z " fill="#E3E3E3" transform="translate(155,20)"/>
<path d="M0 0 C1.67 -0.04 3.33 -0.04 5 0 C6 1 6 1 6.06 4.06 C6.04 5.03 6.02 6 6 7 C4.02 7 2.04 7 0 7 C0 4.69 0 2.38 0 0 Z " fill="#E3E3E3" transform="translate(204,149)"/>
<path d="M0 0 C2.31 0 4.62 0 7 0 C7 1.98 7 3.96 7 6 C4.69 6 2.38 6 0 6 C0 4.02 0 2.04 0 0 Z " fill="#E4E4E4" transform="translate(9,21)"/>
<path d="M0 0 C0.66 0 1.32 0 2 0 C2.33 2.31 2.66 4.62 3 7 C3.99 7.33 4.98 7.66 6 8 C6 5.36 6 2.72 6 0 C6.66 0 7.32 0 8 0 C8.1 6.15 8.1 6.15 8 8 C7 9 7 9 4 9.12 C1 9 1 9 0 8 C-0.14 5.33 -0.04 2.68 0 0 Z " fill="#282E33" transform="translate(95,162)"/>
<path d="M0 0 C0.99 0.33 1.98 0.66 3 1 C3 1.66 3 2.32 3 3 C3.99 2.67 4.98 2.34 6 2 C6.66 2.33 7.32 2.66 8 3 C8.62 5.06 8.62 5.06 9 7 C6.21 8.03 5.13 8.05 2.25 7.06 C1.51 6.71 0.77 6.36 0 6 C0 4.02 0 2.04 0 0 Z " fill="#F3F7F8" transform="translate(126,168)"/>
<path d="M0 0 C1.65 0 3.3 0 5 0 C5.33 2.31 5.66 4.62 6 7 C4.02 7 2.04 7 0 7 C0 4.69 0 2.38 0 0 Z " fill="#E1E1E1" transform="translate(10,192)"/>
<path d="M0 0 C2.31 0 4.62 0 7 0 C7 0.66 7 1.32 7 2 C5.35 2 3.7 2 2 2 C2 2.66 2 3.32 2 4 C3.32 4.33 4.64 4.66 6 5 C4.68 5 3.36 5 2 5 C2 5.99 2 6.98 2 8 C3.65 8 5.3 8 7 8 C7 8.33 7 8.66 7 9 C4.69 9 2.38 9 0 9 C0 6.03 0 3.06 0 0 Z " fill="#21262F" transform="translate(115,162)"/>
<path d="M0 0 C1.98 0 3.96 0 6 0 C6 1.98 6 3.96 6 6 C4.02 6 2.04 6 0 6 C0 4.02 0 2.04 0 0 Z " fill="#E0E0E0" transform="translate(34,128)"/>
<path d="M0 0 C0.78 0.04 1.57 0.08 2.38 0.12 C1.39 0.62 1.39 0.62 0.38 1.12 C0.7 2.11 1.03 3.11 1.38 4.12 C1.38 6.28 0.93 8.05 0.38 10.12 C-0.61 9.8 -1.61 9.47 -2.62 9.12 C-2.62 7.14 -2.62 5.17 -2.62 3.12 C-3.28 2.8 -3.94 2.47 -4.62 2.12 C-2.62 0.12 -2.62 0.12 0 0 Z " fill="#848B91" transform="translate(79.625,103.875)"/>
<path d="M0 0 C0.33 0 0.66 0 1 0 C1 1.98 1 3.96 1 6 C0.01 6.5 0.01 6.5 -1 7 C-1.12 7.64 -1.25 8.28 -1.38 8.94 C-2 11 -2 11 -4.06 12.25 C-4.7 12.5 -5.34 12.75 -6 13 C-6.62 10.62 -6.62 10.62 -7 8 C-6.34 7.34 -5.68 6.68 -5 6 C-4.01 6 -3.02 6 -2 6 C-2 5.34 -2 4.68 -2 4 C-1.34 4 -0.68 4 0 4 C0 2.68 0 1.36 0 0 Z " fill="#DDE2E5" transform="translate(130,93)"/>
<path d="M0 0 C1.98 0 3.96 0 6 0 C6 1.98 6 3.96 6 6 C4.02 6 2.04 6 0 6 C0 4.02 0 2.04 0 0 Z " fill="#E0E0E0" transform="translate(10,64)"/>
<path d="M0 0 C1.98 0 3.96 0 6 0 C6 1.98 6 3.96 6 6 C4.02 6 2.04 6 0 6 C0 4.02 0 2.04 0 0 Z " fill="#DEDEDE" transform="translate(179,42)"/>
<path d="M0 0 C1.98 0 3.96 0 6 0 C6.04 1.67 6.04 3.33 6 5 C5 6 5 6 2.44 6.06 C1.23 6.03 1.23 6.03 0 6 C0 4.02 0 2.04 0 0 Z " fill="#E0E0E0" transform="translate(155,107)"/>
<path d="M0 0 C1.98 0 3.96 0 6 0 C6.04 1.67 6.04 3.33 6 5 C5 6 5 6 2.44 6.06 C1.23 6.03 1.23 6.03 0 6 C0 4.02 0 2.04 0 0 Z " fill="#E0E0E0" transform="translate(179,85)"/>
<path d="M0 0 C2.97 0.5 2.97 0.5 6 1 C6 2.65 6 4.3 6 6 C3.36 6 0.72 6 -2 6 C-1.34 4.02 -0.68 2.04 0 0 Z " fill="#A7AEB2" transform="translate(22,222)"/>
<path d="M0 0 C0 1.98 0 3.96 0 6 C-1.98 6 -3.96 6 -6 6 C-6 4.35 -6 2.7 -6 1 C-4 0 -4 0 0 0 Z " fill="#DFDFDF" transform="translate(64,63)"/>
<path d="M0 0 C0 0.66 0 1.32 0 2 C0.64 2.1 1.28 2.21 1.94 2.31 C2.62 2.54 3.3 2.77 4 3 C4.33 3.99 4.66 4.98 5 6 C4.67 6.66 4.34 7.32 4 8 C3.34 8 2.68 8 2 8 C1.67 6.68 1.34 5.36 1 4 C-2.3 3.34 -5.6 2.68 -9 2 C-9 1.67 -9 1.34 -9 1 C-5.94 0.46 -3.11 0 0 0 Z " fill="#DBE1E5" transform="translate(115,35)"/>
<path d="M0 0 C1.65 0 3.3 0 5 0 C5 1.98 5 3.96 5 6 C3.35 6 1.7 6 0 6 C0 4.02 0 2.04 0 0 Z " fill="#DEDEDE" transform="translate(107,192)"/>
<path d="M0 0 C0.33 1.65 0.66 3.3 1 5 C0.01 5 -0.98 5 -2 5 C-2 4.34 -2 3.68 -2 3 C-2.66 3 -3.32 3 -4 3 C-3.67 3.99 -3.34 4.98 -3 6 C-4.65 6 -6.3 6 -8 6 C-4.77 0 -4.77 0 0 0 Z " fill="#BBC1C7" transform="translate(47,222)"/>
<path d="M0 0 C2 2 2 2 2.12 5.12 C2.08 6.07 2.04 7.02 2 8 C1.01 7.67 0.02 7.34 -1 7 C-1.33 5.02 -1.66 3.04 -2 1 C-2.62 1.21 -3.24 1.41 -3.88 1.62 C-4.58 1.75 -5.28 1.87 -6 2 C-6.66 1.34 -7.32 0.68 -8 0 C-4.68 -1.11 -3.31 -0.93 0 0 Z " fill="#DFE1E6" transform="translate(141,91)"/>
<path d="M0 0 C1.98 0 3.96 0 6 0 C6 1.65 6 3.3 6 5 C4.35 5 2.7 5 1 5 C0.67 3.35 0.34 1.7 0 0 Z " fill="#E1E1E1" transform="translate(179,0)"/>
<path d="M0 0 C3 1 3 1 4 3 C4.66 2.01 5.32 1.02 6 0 C6.66 0 7.32 0 8 0 C7.01 2.97 6.02 5.94 5 9 C4.34 9 3.68 9 3 9 C2.01 6.03 1.02 3.06 0 0 Z " fill="#252B31" transform="translate(105,162)"/>
<path d="M0 0 C0.33 0 0.66 0 1 0 C1.33 4.29 1.66 8.58 2 13 C1.01 13 0.02 13 -1 13 C-1.08 8.48 -1.1 4.41 0 0 Z " fill="#B9C7D2" transform="translate(108,99)"/>
<path d="M0 0 C1.98 0 3.96 0 6 0 C5.67 1.32 5.34 2.64 5 4 C3.35 4 1.7 4 0 4 C0 2.68 0 1.36 0 0 Z " fill="#DDDDDD" transform="translate(83,0)"/>
<path d="M0 0 C3 2 3 2 4 4 C2.02 4.66 0.04 5.32 -2 6 C-2 5.34 -2 4.68 -2 4 C-2.99 4.33 -3.98 4.66 -5 5 C-5.66 4.34 -6.32 3.68 -7 3 C-4.69 3 -2.38 3 0 3 C0 2.01 0 1.02 0 0 Z " fill="#181F26" transform="translate(30,225)"/>
<path d="M0 0 C1.75 1.44 1.75 1.44 3 3 C2.34 3.66 1.68 4.32 1 5 C-1.62 4.62 -1.62 4.62 -4 4 C-4 3.01 -4 2.02 -4 1 C-2.19 0.31 -2.19 0.31 0 0 Z " fill="#C0C7CF" transform="translate(121,166)"/>
<path d="M0 0 C0.33 0 0.66 0 1 0 C1.33 3.63 1.66 7.26 2 11 C0.68 10.67 -0.64 10.34 -2 10 C-1.34 6.7 -0.68 3.4 0 0 Z " fill="#C7C9CB" transform="translate(126,109)"/>
<path d="M0 0 C0.33 0 0.66 0 1 0 C1.37 6.52 1.37 6.52 -0.5 8.94 C-1 9.29 -1.49 9.64 -2 10 C-2.33 8.02 -2.66 6.04 -3 4 C-2.01 4 -1.02 4 0 4 C0 2.68 0 1.36 0 0 Z " fill="#3C4B57" transform="translate(90,110)"/>
<path d="M0 0 C0.99 0.33 1.98 0.66 3 1 C3 3 3 5 3 7 C1.68 7 0.36 7 -1 7 C-0.67 6.34 -0.34 5.68 0 5 C-0.33 4.67 -0.66 4.34 -1 4 C-0.56 1.94 -0.56 1.94 0 0 Z " fill="#3C4147" transform="translate(137,106)"/>
<path d="M0 0 C3.88 2.62 3.88 2.62 5 6 C4.06 8.19 4.06 8.19 3 10 C2.88 9.36 2.75 8.72 2.62 8.06 C2.32 7.04 2.32 7.04 2 6 C1.34 5.67 0.68 5.34 0 5 C0 3.35 0 1.7 0 0 Z " fill="#D1D6DA" transform="translate(86,94)"/>
<path d="M0 0 C1.65 0 3.3 0 5 0 C5 1.65 5 3.3 5 5 C4.01 4.67 3.02 4.34 2 4 C1.01 4.5 1.01 4.5 0 5 C0 3.35 0 1.7 0 0 Z " fill="#C0C7CB" transform="translate(29,223)"/>
<path d="M0 0 C0.99 0.33 1.98 0.66 3 1 C3 1.66 3 2.32 3 3 C3.99 2.67 4.98 2.34 6 2 C6 2.66 6 3.32 6 4 C5.36 4.12 4.72 4.25 4.06 4.38 C3.04 4.68 3.04 4.68 2 5 C1.67 5.66 1.34 6.32 1 7 C-0.23 4.54 -0.07 2.72 0 0 Z " fill="#D5DADE" transform="translate(126,168)"/>
<path d="M0 0 C0.33 0.99 0.66 1.98 1 3 C1.99 3 2.98 3 4 3 C4 4.32 4 5.64 4 7 C2.68 6.67 1.36 6.34 0 6 C0 4.02 0 2.04 0 0 Z " fill="#DEE5E9" transform="translate(97,163)"/>
</svg>
