<?xml version="1.0" encoding="UTF-8"?>
<!-- Generator: visioncortex VTracer 0.6.3 -->
<svg version="1.1" xmlns="http://www.w3.org/2000/svg" width="500" height="500">
<path d="M0 0 C165 0 330 0 500 0 C500 165 500 330 500 500 C335 500 170 500 0 500 C0 335 0 170 0 0 Z " fill="#FEFEFE" transform="translate(0,0)"/>
<path d="M0 0 C1.21 0.01 1.21 0.01 2.45 0.02 C13.66 0.11 24.63 0.52 35.61 2.99 C37.7 3.45 39.8 3.85 41.91 4.25 C91.52 13.87 149.51 41.2 179.63 83.42 C186.36 93.59 190.57 103.44 192.62 115.44 C192.77 116.31 192.92 117.18 193.08 118.08 C198.64 152.99 197.33 190.5 192.62 225.44 C192.41 227.07 192.41 227.07 192.19 228.74 C189.14 250.95 184.84 273.19 177.62 294.44 C176.84 296.93 176.08 299.43 175.31 301.94 C174.99 303 174.66 304.06 174.32 305.16 C174.09 305.91 173.86 306.66 173.62 307.44 C173.3 307.44 172.96 307.44 172.62 307.44 C172.62 298.86 172.62 290.28 172.62 281.44 C149.86 281.44 127.08 281.44 103.62 281.44 C103.62 298.27 103.62 315.1 103.62 332.44 C108.25 332.11 112.87 331.78 117.62 331.44 C120.67 331.44 123.71 331.47 126.76 331.53 C127.78 331.55 128.8 331.57 129.85 331.59 C130.95 331.61 132.04 331.63 133.17 331.66 C134.86 331.69 134.86 331.69 136.59 331.72 C140.18 331.79 143.78 331.87 147.38 331.94 C149.81 331.99 152.25 332.03 154.69 332.08 C160.67 332.2 166.65 332.32 172.62 332.44 C172.62 332.77 172.62 333.1 172.62 333.44 C172.01 333.45 171.39 333.46 170.76 333.47 C164.35 333.58 157.94 333.69 151.54 333.81 C149.15 333.85 146.76 333.89 144.36 333.93 C140.93 333.99 137.49 334.06 134.05 334.12 C132.45 334.15 132.45 334.15 130.81 334.17 C129.81 334.19 128.81 334.21 127.78 334.23 C126.91 334.25 126.03 334.26 125.12 334.28 C122.55 334.44 120.14 334.87 117.62 335.44 C117.62 334.78 117.62 334.12 117.62 333.44 C113 333.44 108.38 333.44 103.62 333.44 C103.62 336.41 103.62 339.38 103.62 342.44 C121.12 342.44 138.61 342.44 156.62 342.44 C154.62 348.44 154.62 348.44 152.62 350.44 C150.52 350.68 150.52 350.68 147.9 350.66 C146.92 350.66 145.94 350.66 144.93 350.66 C143.87 350.65 142.8 350.64 141.71 350.63 C140.63 350.63 139.54 350.63 138.42 350.62 C134.95 350.61 131.47 350.59 128 350.56 C125.65 350.55 123.3 350.54 120.95 350.54 C115.17 350.51 109.4 350.48 103.62 350.44 C103.62 365.62 103.62 380.8 103.62 396.44 C98.92 398.79 95.73 400.06 90.75 401.12 C89.6 401.38 88.45 401.63 87.26 401.89 C85.95 402.16 85.95 402.16 84.62 402.44 C84.5 401.23 84.38 400.03 84.25 398.79 C82.59 384.52 78.88 371.27 74.59 357.58 C73.22 353.11 71.94 348.63 70.69 344.12 C70.49 343.42 70.29 342.72 70.08 341.99 C65.88 326.85 67.44 313.31 70.62 298.19 C77.18 266.85 70.75 243.17 54.64 215.74 C52.66 212.23 51.63 210.08 51.62 205.99 C52.89 201.49 54.55 197.25 56.38 192.94 C68.06 164.6 68.06 164.6 65.66 134.75 C61.46 125.34 54.08 120.12 44.69 116.44 C40.79 114.78 40.79 114.78 39.38 111.81 C39.13 110.7 38.88 109.58 38.62 108.44 C37.4 105.82 36.07 103.27 34.75 100.71 C32.65 96.47 32.21 93.14 32.62 88.44 C33.92 87.06 35.25 85.73 36.62 84.44 C36.96 81.77 36.96 81.77 36.62 79.44 C34.15 80.43 34.15 80.43 31.62 81.44 C31.29 80.78 30.97 80.12 30.62 79.44 C29.45 78.97 29.45 78.97 28.25 78.5 C25.67 77.45 24.42 76.52 22.62 74.44 C22.11 74.79 21.59 75.14 21.06 75.5 C17.49 76.87 15.28 76.48 11.62 75.44 C8.5 71.83 7.62 70.26 7.62 65.44 C6.97 65.44 6.31 65.44 5.62 65.44 C5.29 71.38 4.97 77.32 4.62 83.44 C5.94 83.77 7.26 84.1 8.62 84.44 C6.97 84.44 5.32 84.44 3.62 84.44 C3.91 87 4.2 89.56 4.5 92.12 C4.58 92.85 4.66 93.57 4.74 94.31 C5.55 101.5 5.55 101.5 9.62 107.25 C15.27 109.48 21.16 109.32 26.75 106.94 C27.7 106.44 28.65 105.95 29.62 105.44 C29.62 106.1 29.62 106.76 29.62 107.44 C26.72 109.46 24.11 110.79 20.62 111.44 C20.62 113.09 20.62 114.74 20.62 116.44 C19.77 116.53 19.77 116.53 18.9 116.62 C12.98 117.25 7.06 117.88 1.14 118.52 C-1.07 118.76 -3.28 118.99 -5.5 119.23 C-8.67 119.56 -11.85 119.9 -15.02 120.25 C-16.01 120.35 -17 120.45 -18.02 120.56 C-18.94 120.66 -19.86 120.76 -20.81 120.86 C-21.62 120.95 -22.43 121.04 -23.27 121.13 C-25.56 121.4 -25.56 121.4 -28.38 122.44 C-30.56 122 -30.56 122 -32.38 121.44 C-33.38 115.57 -34.37 109.7 -35.37 103.82 C-35.7 101.83 -36.04 99.83 -36.38 97.83 C-36.88 94.96 -37.36 92.09 -37.84 89.21 C-38 88.32 -38.15 87.44 -38.31 86.52 C-39.04 82.1 -39.56 77.93 -39.38 73.44 C-45.11 73.23 -49.98 73.17 -55.38 75.44 C-55.36 76.03 -55.35 76.63 -55.34 77.25 C-55.23 88.41 -55.85 99.54 -56.38 110.69 C-56.47 112.8 -56.57 114.91 -56.66 117.03 C-56.9 122.16 -57.14 127.3 -57.38 132.44 C-56.61 132.41 -55.85 132.37 -55.07 132.34 C-51.61 132.22 -48.15 132.14 -44.69 132.06 C-43.49 132.01 -42.29 131.96 -41.06 131.91 C-39.9 131.89 -38.74 131.87 -37.55 131.85 C-36.49 131.82 -35.42 131.79 -34.33 131.76 C-30.91 132.55 -29.44 133.87 -27.37 136.68 C-25.75 139.55 -25.32 142.29 -24.86 145.53 C-24.76 146.2 -24.66 146.87 -24.56 147.56 C-24.25 149.68 -23.97 151.81 -23.69 153.94 C-23.49 155.33 -23.29 156.73 -23.08 158.12 C-22.71 160.75 -22.34 163.38 -21.98 166.01 C-21.14 172.15 -20.25 178.29 -19.38 184.44 C-6.84 184.77 5.71 185.1 18.62 185.44 C18.62 186.1 18.62 186.76 18.62 187.44 C9.79 189.38 0.96 190.9 -8 192.12 C-8.95 192.26 -9.9 192.39 -10.87 192.52 C-22.32 194.05 -22.32 194.05 -25.19 192.38 C-25.77 191.92 -26.34 191.47 -26.94 191 C-32.04 187.53 -37.36 187.55 -43.38 187.44 C-40.91 190.08 -38.8 191.23 -35.38 192.44 C-35.38 192.77 -35.38 193.1 -35.38 193.44 C-42.31 193.77 -49.24 194.1 -56.38 194.44 C-54.31 195.41 -52.25 196.38 -50.12 197.38 C-48.96 197.92 -47.8 198.47 -46.61 199.03 C-42.46 200.84 -39.12 201.56 -34.61 201.64 C-33.67 201.66 -32.73 201.68 -31.76 201.7 C-30.75 201.72 -29.74 201.74 -28.7 201.75 C-27.15 201.79 -27.15 201.79 -25.56 201.82 C-22.25 201.88 -18.94 201.94 -15.62 202 C-13.38 202.04 -11.13 202.09 -8.89 202.13 C-3.38 202.24 2.12 202.34 7.62 202.44 C12.94 219.06 12.94 219.06 14.69 227.06 C15.8 232.01 17 236.89 18.44 241.75 C20.91 250.16 22.95 258.68 25.05 267.18 C26.81 274.25 28.67 281.26 30.73 288.25 C31.79 292.04 32.68 295.85 33.56 299.69 C34.9 305.51 36.37 311.26 38 317 C40.02 324.11 41.85 331.26 43.62 338.44 C45.36 345.47 47.15 352.47 49.12 359.44 C51.95 369.4 54.42 379.44 56.9 389.49 C58.13 394.47 59.38 399.46 60.62 404.44 C55.47 404.32 50.31 404.19 45.16 404.07 C43.41 404.02 41.66 403.98 39.92 403.94 C29.46 403.7 19.05 403.32 8.62 402.44 C8.3 403.43 7.97 404.43 7.63 405.45 C4.51 414.69 0.92 423.57 -3.21 432.4 C-7.32 441.22 -9.8 449.99 -12.38 459.44 C-24.25 459.44 -36.13 459.44 -48.38 459.44 C-42.2 451.71 -36.51 449.97 -27.17 447.56 C-24.32 446.73 -24.32 446.73 -23.25 444.65 C-22.34 442.34 -21.92 440.32 -21.6 437.85 C-21.48 436.95 -21.36 436.05 -21.23 435.12 C-21.11 434.16 -20.99 433.2 -20.87 432.2 C-20.74 431.21 -20.61 430.22 -20.47 429.19 C-20.06 426.03 -19.65 422.86 -19.25 419.69 C-18.97 417.54 -18.69 415.39 -18.41 413.24 C-17.72 407.97 -17.05 402.71 -16.38 397.44 C-16.97 397.38 -17.57 397.32 -18.19 397.25 C-18.99 397.17 -19.78 397.08 -20.6 397 C-21.78 396.87 -21.78 396.87 -22.98 396.75 C-26.8 396.25 -30.47 395.31 -34.19 394.31 C-34.99 394.1 -35.79 393.88 -36.62 393.66 C-42.93 391.93 -49.13 389.94 -55.31 387.81 C-56.16 387.52 -57 387.23 -57.88 386.94 C-61.89 385.51 -65.04 384.14 -68.38 381.44 C-70.58 380.53 -70.58 380.53 -72.88 379.88 C-75.88 378.96 -78.59 377.91 -81.38 376.44 C-81.38 375.78 -81.38 375.12 -81.38 374.44 C-82.28 374.36 -83.19 374.27 -84.12 374.19 C-87.91 373.31 -88.73 372.16 -91.38 369.44 C-93.71 368.43 -96.04 367.43 -98.38 366.44 C-99.03 365.45 -99.69 364.46 -100.38 363.44 C-101.86 362.69 -101.86 362.69 -103.38 361.94 C-106.38 360.44 -106.38 360.44 -108.38 357.44 C-110.04 356.43 -111.7 355.43 -113.38 354.44 C-130.78 339.29 -141.8 319.34 -149.5 297.88 C-150.05 296.34 -150.62 294.81 -151.21 293.29 C-159.79 270.7 -157.1 240.69 -152.38 217.44 C-152.14 216.27 -151.9 215.1 -151.66 213.9 C-133.32 125.39 -133.32 125.39 -118.38 110.44 C-116 110.35 -113.65 110.32 -111.28 110.34 C-110.21 110.34 -110.21 110.34 -109.13 110.34 C-106.86 110.35 -104.58 110.36 -102.31 110.38 C-100.78 110.38 -99.24 110.38 -97.7 110.39 C-93.93 110.4 -90.15 110.42 -86.38 110.44 C-86.41 109.35 -86.41 109.35 -86.44 108.25 C-86.64 101.38 -86.8 94.51 -86.89 87.64 C-86.94 84.11 -87.02 80.58 -87.13 77.05 C-87.99 49.86 -87.99 49.86 -81.69 42.41 C-78.93 39.65 -78.93 39.65 -76.38 37.44 C-75.32 36.25 -74.28 35.05 -73.27 33.82 C-70.65 31.02 -68.02 28.22 -65.38 25.44 C-64.68 24.68 -63.98 23.93 -63.25 23.16 C-45.96 5.07 -24.17 -0.38 0 0 Z " fill="#EE2F60" transform="translate(243.375,19.5625)"/>
<path d="M0 0 C0.66 0 1.32 0 2 0 C2.17 0.57 2.34 1.13 2.52 1.71 C2.76 2.45 3 3.18 3.25 3.94 C3.48 4.67 3.71 5.4 3.95 6.15 C4.84 8.17 4.84 8.17 6.91 8.71 C7.6 8.81 8.29 8.9 9 9 C10.03 9.23 11.06 9.45 12.12 9.69 C13.07 9.79 14.02 9.89 15 10 C15.66 9.34 16.32 8.68 17 8 C19.2 9.95 19.2 9.95 21.39 11.91 C23.09 13.28 23.09 13.28 26 13 C26.5 13.99 26.5 13.99 27 15 C28.32 14.34 29.64 13.68 31 13 C31.5 13.5 31.5 13.5 32 14 C31.81 17.44 31.81 17.44 31 21 C28.95 22.22 28.95 22.22 27 23 C28.01 30.08 29.73 38.73 35 44 C35.04 45.67 35.04 47.33 35 49 C35.73 49.12 36.47 49.24 37.22 49.36 C45.9 51.36 54 57.67 58.9 65 C65.63 77.22 63.7 92.37 60.07 105.31 C59 108.6 57.86 111.87 56.69 115.12 C56.31 116.21 55.93 117.3 55.54 118.43 C52.56 126.88 49.04 135 45 143 C42.69 142.67 40.38 142.34 38 142 C38 143.65 38 145.3 38 147 C40.31 147 42.62 147 45 147 C44.67 147.66 44.34 148.32 44 149 C38.39 149.33 32.78 149.66 27 150 C27.99 152.97 28.98 155.94 30 159 C26.65 155.65 26.11 153.51 25 149 C24.16 149.02 23.31 149.05 22.45 149.07 C21.35 149.09 20.25 149.11 19.12 149.12 C18.03 149.15 16.94 149.17 15.82 149.2 C13 149 13 149 11 147 C13.31 147 15.62 147 18 147 C18 145.35 18 143.7 18 142 C13.05 142 8.1 142 3 142 C2.5 139.52 2.5 139.52 2 137 C1.44 137.01 0.87 137.02 0.29 137.03 C-5.63 137.12 -11.55 137.18 -17.48 137.22 C-19.68 137.24 -21.89 137.27 -24.09 137.3 C-27.27 137.35 -30.46 137.37 -33.64 137.39 C-34.62 137.41 -35.59 137.43 -36.59 137.45 C-46.78 137.46 -55.12 133.69 -64 129 C-64 128.67 -64 128.34 -64 128 C-54.1 127.5 -54.1 127.5 -44 127 C-45.65 126.01 -47.3 125.02 -49 124 C-49 123.34 -49 122.68 -49 122 C-37.47 121.14 -37.47 121.14 -33 124.56 C-29.69 127.02 -27.7 127.22 -23.63 126.78 C-22.57 126.67 -21.51 126.55 -20.41 126.44 C-14.57 125.69 -8.76 124.84 -2.94 123.94 C-0.55 123.57 1.84 123.2 4.22 122.84 C5.26 122.68 6.3 122.52 7.37 122.35 C10 122 10 122 13 122 C13 121.34 13 120.68 13 120 C11.85 120.01 10.71 120.01 9.53 120.02 C5.29 120.03 1.06 120.05 -3.18 120.05 C-5.02 120.06 -6.85 120.07 -8.69 120.08 C-11.32 120.09 -13.96 120.09 -16.59 120.1 C-17.83 120.11 -17.83 120.11 -19.09 120.11 C-21.06 120.11 -23.03 120.06 -25 120 C-27.13 117.87 -26.9 113.51 -27.31 110.56 C-27.44 109.69 -27.57 108.82 -27.7 107.92 C-28.48 102.64 -29.23 97.35 -29.95 92.06 C-30.28 89.73 -30.61 87.4 -30.94 85.06 C-31.08 83.94 -31.23 82.82 -31.38 81.67 C-31.53 80.62 -31.68 79.56 -31.84 78.47 C-31.97 77.54 -32.09 76.6 -32.23 75.64 C-33.22 72.26 -34.45 70.43 -37 68 C-39.88 67.23 -39.88 67.23 -43.08 67.29 C-44.24 67.26 -45.4 67.23 -46.59 67.21 C-48.4 67.2 -48.4 67.2 -50.25 67.19 C-51.47 67.16 -52.69 67.14 -53.95 67.11 C-56.97 67.05 -59.98 67.02 -63 67 C-63.22 52.3 -63.14 37.62 -62.38 22.94 C-62.31 21.07 -62.31 21.07 -62.24 19.16 C-62.04 15.98 -61.81 13.07 -61 10 C-56.52 6.36 -52.51 6.63 -47 7 C-46.34 7.33 -45.68 7.66 -45 8 C-44.32 10.95 -43.76 13.84 -43.27 16.82 C-43.12 17.71 -42.97 18.6 -42.81 19.52 C-42.49 21.42 -42.17 23.31 -41.86 25.21 C-41.38 28.09 -40.89 30.98 -40.39 33.86 C-40.08 35.7 -39.77 37.54 -39.46 39.38 C-39.24 40.67 -39.24 40.67 -39.02 41.98 C-38.24 46.73 -37.85 51.19 -38 56 C-37.02 55.86 -36.04 55.71 -35.03 55.56 C-30.87 54.97 -26.71 54.49 -22.54 54.03 C-21.75 53.94 -20.96 53.85 -20.15 53.76 C-18.48 53.58 -16.82 53.4 -15.16 53.22 C-13.47 53.03 -11.79 52.84 -10.1 52.65 C-7.64 52.38 -5.19 52.11 -2.73 51.84 C-1.99 51.76 -1.24 51.67 -0.48 51.58 C4.7 51.03 9.78 50.93 15 51 C14.5 48.03 14.5 48.03 14 45 C15.09 44.69 16.19 44.38 17.31 44.06 C19.55 43.42 21.79 42.74 24 42 C21.09 41.77 21.09 41.77 19.12 42.98 C15.29 44.82 11.16 44.45 7 44 C3.98 42.61 2.33 41.33 0 39 C-2.27 32.61 -2.51 25.71 -2 19 C-1.5 18.5 -1.5 18.5 -1 18 C-0.94 14.6 -0.98 11.21 -1.04 7.81 C-1.1 2.2 -1.1 2.2 0 0 Z " fill="#F5C68F" transform="translate(249,85)"/>
<path d="M0 0 C0.66 0.33 1.32 0.66 2 1 C2.71 3.19 2.71 3.19 3.37 6.07 C3.73 7.65 3.73 7.65 4.11 9.26 C4.36 10.39 4.61 11.52 4.88 12.69 C5.41 15.01 5.95 17.33 6.5 19.65 C6.76 20.76 7.02 21.88 7.28 23.02 C8.08 26.32 8.97 29.57 9.94 32.81 C12.38 41.05 14.36 49.41 16.43 57.75 C18.18 64.82 20.05 71.82 22.11 78.81 C23.17 82.6 24.06 86.41 24.94 90.25 C26.27 96.07 27.74 101.82 29.38 107.56 C31.39 114.67 33.23 121.82 35 129 C36.74 136.03 38.52 143.03 40.5 150 C43.32 159.96 45.79 170 48.27 180.05 C49.5 185.04 50.75 190.02 52 195 C46.84 194.88 41.69 194.76 36.53 194.63 C34.79 194.58 33.04 194.54 31.29 194.5 C20.83 194.26 10.43 193.88 0 193 C-0.33 194 -0.66 194.99 -1 196.02 C-4.12 205.25 -7.7 214.13 -11.84 222.96 C-15.94 231.78 -18.42 240.55 -21 250 C-32.88 250 -44.76 250 -57 250 C-50.82 242.28 -45.13 240.53 -35.79 238.12 C-33 237.29 -33 237.29 -31.91 235.46 C-30.59 231.88 -30.18 228.22 -29.7 224.45 C-29.59 223.59 -29.48 222.73 -29.36 221.84 C-28.98 218.98 -28.62 216.11 -28.25 213.25 C-27.99 211.24 -27.72 209.23 -27.46 207.21 C-25.4 191.43 -23.45 175.63 -21.49 159.84 C-19.96 147.49 -18.35 135.16 -16.53 122.85 C-14.9 111.61 -13.52 100.34 -12.12 89.06 C-10.09 72.6 -8 56.14 -5.81 39.69 C-5.69 38.77 -5.57 37.86 -5.45 36.92 C-3.82 24.58 -2 12.29 0 0 Z " fill="#273C4D" transform="translate(252,229)"/>
<path d="M0 0 C4.62 0 9.24 0 14 0 C14 1.65 14 3.3 14 5 C12.35 5.33 10.7 5.66 9 6 C9.84 6.03 10.69 6.05 11.55 6.08 C13.2 6.16 13.2 6.16 14.88 6.25 C15.97 6.3 17.06 6.34 18.18 6.39 C21 7 21 7 22.38 9.05 C22.59 9.69 22.79 10.34 23 11 C22.67 9.68 22.34 8.36 22 7 C27.94 6.67 33.88 6.34 40 6 C38.02 5.67 36.04 5.34 34 5 C34 3.35 34 1.7 34 0 C37.12 -0.56 37.12 -0.56 41 0 C46.43 5.86 49.68 14.04 53.06 21.19 C53.59 22.29 54.11 23.39 54.65 24.53 C65.37 47.32 67.15 66.17 62 90.75 C56.19 118.79 62.48 140.1 71.12 167.04 C76.27 184.34 76.25 201.6 76.06 219.5 C76.03 222.72 76.01 225.93 75.99 229.15 C75.98 231.13 75.96 233.12 75.94 235.1 C75.93 236.46 75.93 236.46 75.92 237.84 C75.91 238.62 75.9 239.4 75.89 240.21 C76.04 244.15 76.56 248.08 77 252 C69.74 252 62.48 252 55 252 C55 245.4 55 245.4 57.56 242.75 C59.68 239.95 60.38 238.27 60.12 234.75 C58.92 227.23 56.71 219.86 54.69 212.52 C53.6 208.52 52.55 204.51 51.5 200.5 C51.08 198.92 50.67 197.33 50.25 195.75 C49.42 192.58 48.58 189.42 47.75 186.25 C47.54 185.47 47.34 184.68 47.13 183.88 C46.71 182.29 46.29 180.7 45.87 179.12 C44.84 175.21 43.82 171.3 42.79 167.39 C40.51 158.76 38.25 150.13 36 141.5 C35 137.67 34 133.83 33 130 C32.78 129.17 32.57 128.34 32.34 127.48 C30.18 119.21 27.99 110.95 25.72 102.71 C23.45 94.49 21.3 86.27 19.39 77.97 C18.1 72.34 16.64 66.77 15.13 61.2 C13.74 56.06 12.4 50.9 11.06 45.75 C9.37 39.24 7.67 32.73 5.95 26.23 C4.35 20.15 2.75 14.08 1.19 8 C0.95 7.09 0.72 6.19 0.48 5.25 C0 3 0 3 0 0 Z " fill="#AADCE9" transform="translate(253,227)"/>
<path d="M0 0 C0.67 -0.01 1.33 -0.02 2.02 -0.03 C4.21 -0.06 6.4 -0.06 8.6 -0.05 C10.13 -0.06 11.66 -0.07 13.19 -0.08 C16.39 -0.09 19.59 -0.09 22.8 -0.08 C26.9 -0.07 31 -0.1 35.1 -0.15 C38.26 -0.18 41.41 -0.18 44.57 -0.18 C46.08 -0.18 47.6 -0.19 49.11 -0.21 C60.71 -0.34 60.71 -0.34 64.3 1.68 C67.43 5.06 68.19 9.22 68.8 13.64 C68.9 14.31 69 14.98 69.1 15.67 C69.41 17.79 69.7 19.92 69.98 22.05 C70.18 23.45 70.38 24.84 70.58 26.24 C70.96 28.86 71.33 31.49 71.68 34.12 C72.53 40.27 73.41 46.41 74.29 52.55 C93.1 53.04 93.1 53.04 112.29 53.55 C112.29 54.21 112.29 54.87 112.29 55.55 C103.46 57.49 94.62 59.01 85.67 60.24 C84.24 60.43 84.24 60.43 82.79 60.63 C71.34 62.16 71.34 62.16 68.47 60.49 C67.9 60.04 67.32 59.58 66.73 59.11 C61.63 55.64 56.31 55.66 50.29 55.55 C52.76 58.19 54.87 59.35 58.29 60.55 C58.29 60.88 58.29 61.21 58.29 61.55 C50.8 61.64 43.31 61.71 35.81 61.76 C32.33 61.78 28.85 61.81 25.37 61.85 C21.37 61.9 17.37 61.92 13.37 61.94 C12.12 61.96 10.87 61.98 9.59 62 C7.85 62 7.85 62 6.07 62 C4.54 62.02 4.54 62.02 2.97 62.03 C-0.44 61.42 -1.59 60.24 -3.71 57.55 C-4.65 54.58 -4.65 54.58 -5.27 51.05 C-5.39 50.41 -5.5 49.77 -5.62 49.11 C-6.93 41.73 -7.99 34.3 -9.06 26.89 C-9.4 24.52 -9.78 22.21 -10.28 19.87 C-10.83 16.89 -10.95 14.02 -11.02 10.99 C-11.06 9.87 -11.1 8.76 -11.13 7.61 C-10.21 0.99 -6.05 0.05 0 0 Z " fill="#273C4C" transform="translate(149.708740234375,151.45068359375)"/>
<path d="M0 0 C22.77 0 45.54 0 69 0 C69 20.13 69 40.26 69 61 C46.23 61 23.46 61 0 61 C0 40.87 0 20.74 0 0 Z " fill="#AADEEA" transform="translate(347,370)"/>
<path d="M0 0 C20.13 0 40.26 0 61 0 C61 20.13 61 40.26 61 61 C40.87 61 20.74 61 0 61 C0 40.87 0 20.74 0 0 Z " fill="#E2C594" transform="translate(96,69)"/>
<path d="M0 0 C22.77 0 45.54 0 69 0 C69 16.83 69 33.66 69 51 C46 51 23 51 0 51 C0 34.17 0 17.34 0 0 Z " fill="#AADEEA" transform="translate(347,301)"/>
<path d="M0 0 C2.2 2.2 2.51 3.22 3.3 6.16 C3.53 7.03 3.76 7.89 4 8.78 C4.25 9.72 4.5 10.66 4.75 11.62 C5.01 12.6 5.27 13.58 5.54 14.58 C7.72 22.8 9.78 31.06 11.82 39.31 C13.29 45.24 14.83 51.13 16.5 57 C19.32 66.96 21.79 77 24.27 87.05 C25.5 92.04 26.75 97.02 28 102 C22.84 101.91 17.69 101.8 12.53 101.68 C10.79 101.64 9.04 101.61 7.29 101.58 C-3.3 101.38 -13.54 100.84 -24 99 C-23.75 98 -23.49 97 -23.23 95.98 C-19.47 80.54 -17.69 64.84 -16.55 49.01 C-15.34 32.57 -12.35 12.35 0 0 Z " fill="#ED2D60" transform="translate(276,322)"/>
<path d="M0 0 C0.68 2.95 1.24 5.84 1.73 8.82 C1.88 9.71 2.03 10.6 2.19 11.52 C2.51 13.42 2.83 15.31 3.14 17.21 C3.62 20.09 4.11 22.98 4.61 25.86 C4.92 27.7 5.23 29.54 5.54 31.38 C5.76 32.67 5.76 32.67 5.98 33.98 C6.76 38.73 7.15 43.19 7 48 C7.9 47.95 8.8 47.91 9.73 47.86 C13 49 13 49 14.23 50.97 C15.38 53.7 16.37 56.44 17.31 59.25 C17.66 60.21 18 61.16 18.36 62.14 C19.88 66.41 21.19 70.54 22 75 C22.87 75.13 23.74 75.27 24.63 75.4 C25.79 75.58 26.94 75.76 28.12 75.94 C29.83 76.2 29.83 76.2 31.57 76.46 C34.72 76.96 37.86 77.47 41 78 C41.09 77.38 41.17 76.77 41.26 76.13 C42.35 69.58 44.46 64.6 48 59 C48.33 59.66 48.66 60.32 49 61 C48.07 63.61 48.07 63.61 46.69 66.75 C40.05 81.88 41.79 96.03 44 112 C40.02 112.03 36.04 112.05 32.06 112.06 C30.36 112.08 30.36 112.08 28.62 112.09 C27.54 112.09 26.46 112.09 25.35 112.1 C23.85 112.11 23.85 112.11 22.32 112.11 C20 112 20 112 19 111 C18.52 108.19 18.09 105.39 17.69 102.56 C17.56 101.69 17.43 100.82 17.3 99.92 C16.52 94.64 15.77 89.35 15.05 84.06 C14.72 81.73 14.39 79.4 14.06 77.06 C13.92 75.94 13.77 74.82 13.62 73.67 C13.47 72.62 13.32 71.56 13.16 70.47 C12.97 69.07 12.97 69.07 12.77 67.64 C11.78 64.26 10.55 62.43 8 60 C5.12 59.23 5.12 59.23 1.92 59.29 C0.76 59.26 -0.4 59.23 -1.59 59.21 C-3.4 59.2 -3.4 59.2 -5.25 59.19 C-6.47 59.16 -7.69 59.14 -8.95 59.11 C-11.97 59.05 -14.98 59.02 -18 59 C-18.22 44.3 -18.14 29.62 -17.38 14.94 C-17.33 13.69 -17.29 12.44 -17.24 11.16 C-17.04 7.98 -16.81 5.07 -16 2 C-11.65 -1.54 -5.2 -2.6 0 0 Z " fill="#F1A88E" transform="translate(204,93)"/>
<path d="M0 0 C0.5 1.48 0.5 1.48 1 3 C1.63 2.9 2.25 2.81 2.9 2.71 C3.72 2.6 4.53 2.49 5.38 2.38 C6.59 2.2 6.59 2.2 7.84 2.02 C8.55 2.02 9.26 2.01 10 2 C12 4 12 4 12 8 C14.31 8.33 16.62 8.66 19 9 C19 11 19 13 19 15 C21.92 20.72 24.51 22.5 30.56 24.69 C31.68 25.04 32.79 25.4 33.94 25.76 C37.18 27.07 38.83 28.29 41 31 C41.87 36.34 39.84 41.06 38 46 C36.02 46.33 34.04 46.66 32 47 C32.04 48.11 32.08 49.23 32.12 50.38 C32 54 32 54 30 56 C26.38 56.12 26.38 56.12 23 56 C22.67 57.65 22.34 59.3 22 61 C20.68 60.67 19.36 60.34 18 60 C17.34 61.32 16.68 62.64 16 64 C12.13 62.54 11.03 60.75 9.31 57.06 C8.9 56.19 8.48 55.31 8.05 54.41 C6.16 50.06 5.58 46.75 6 42 C7.29 40.63 8.62 39.29 10 38 C10.33 35.33 10.33 35.33 10 33 C8.35 33.66 6.7 34.32 5 35 C4.67 34.34 4.34 33.68 4 33 C3.22 32.69 2.43 32.38 1.62 32.06 C-0.96 31.02 -2.2 30.08 -4 28 C-4.52 28.35 -5.03 28.7 -5.56 29.06 C-9.14 30.44 -11.34 30.04 -15 29 C-18.13 25.39 -19 23.82 -19 19 C-19.66 19 -20.32 19 -21 19 C-21.33 24.94 -21.66 30.88 -22 37 C-20.68 37.33 -19.36 37.66 -18 38 C-19.65 38 -21.3 38 -23 38 C-22.67 43.61 -22.34 49.22 -22 55 C-24 53 -26 51 -28 49 C-28.66 49.99 -29.32 50.98 -30 52 C-30.99 51.67 -31.98 51.34 -33 51 C-35.37 43.9 -33.88 37.77 -31.75 30.88 C-31.55 30.21 -31.34 29.54 -31.13 28.85 C-29.61 24.18 -27.55 20.19 -25 16 C-25.99 15.01 -26.98 14.02 -28 13 C-24.91 10.94 -24.29 10.76 -20.81 10.88 C-18.93 10.94 -18.93 10.94 -17 11 C-17.66 10.01 -18.32 9.02 -19 8 C-18.62 5.31 -18.62 5.31 -18 3 C-15.11 2.17 -13.11 2 -10 2 C-6.36 -0.43 -4.29 -0.16 0 0 Z " fill="#2A3C4C" transform="translate(270,66)"/>
<path d="M0 0 C15.51 0 31.02 0 47 0 C47 11.88 47 23.76 47 36 C31.49 36 15.98 36 0 36 C0 24.12 0 12.24 0 0 Z " fill="#AFDDE3" transform="translate(105,80)"/>
<path d="M0 0 C0.66 0 1.32 0 2 0 C2.26 0.85 2.26 0.85 2.52 1.71 C2.76 2.45 3 3.18 3.25 3.94 C3.48 4.67 3.71 5.4 3.95 6.15 C4.84 8.17 4.84 8.17 6.91 8.71 C7.6 8.81 8.29 8.9 9 9 C10.03 9.23 11.06 9.45 12.12 9.69 C13.07 9.79 14.02 9.89 15 10 C15.66 9.34 16.32 8.68 17 8 C19.2 9.95 19.2 9.95 21.39 11.91 C23.09 13.28 23.09 13.28 26 13 C26.33 13.66 26.66 14.32 27 15 C28.32 14.34 29.64 13.68 31 13 C31.5 13.5 31.5 13.5 32 14 C31.81 17.44 31.81 17.44 31 21 C28.95 22.22 28.95 22.22 27 23 C28.01 30.08 29.73 38.73 35 44 C35.04 45.67 35.04 47.33 35 49 C35.99 49.33 36.98 49.66 38 50 C37.34 50 36.68 50 36 50 C36.5 51.98 36.5 51.98 37 54 C22.4 62.04 22.4 62.04 15 61 C14.67 60.34 14.34 59.68 14 59 C17.3 59 20.6 59 24 59 C20.88 59 18.88 58.89 16 58 C14.19 56.19 14.62 53.39 14.44 50.94 C14.31 49.28 14.31 49.28 14.18 47.59 C14.09 46.31 14.09 46.31 14 45 C15.09 44.69 16.19 44.38 17.31 44.06 C19.55 43.42 21.79 42.74 24 42 C21.09 41.77 21.09 41.77 19.12 42.98 C15.29 44.82 11.16 44.45 7 44 C3.98 42.61 2.33 41.33 0 39 C-2.27 32.61 -2.51 25.71 -2 19 C-1.67 18.67 -1.34 18.34 -1 18 C-0.94 14.6 -0.98 11.21 -1.04 7.81 C-1.1 2.2 -1.1 2.2 0 0 Z " fill="#EAA48B" transform="translate(249,85)"/>
<path d="M0 0 C-21.45 0 -42.9 0 -65 0 C-65 11.22 -65 22.44 -65 34 C-62.36 32.68 -59.72 31.36 -57 30 C-56.01 30.33 -55.02 30.66 -54 31 C-55.27 31.67 -56.54 32.34 -57.81 33 C-58.52 33.37 -59.23 33.74 -59.96 34.12 C-62 35 -62 35 -65 35 C-65 40.94 -65 46.88 -65 53 C-50.81 52.67 -36.62 52.34 -22 52 C-27.94 46.56 -27.94 46.56 -34 41 C-36.69 38.33 -39.35 35.64 -41.97 32.9 C-44.46 30.35 -46.66 28.33 -50 27 C-48.21 26.28 -48.21 26.28 -46 26 C-44.05 27.67 -42.59 29.54 -40.98 31.53 C-39.04 33.28 -39.04 33.28 -36.25 32.95 C-31.69 31.62 -27.67 29.54 -23.48 27.35 C-20.75 26 -18.53 25 -15.45 24.98 C-11.97 26.43 -9.21 28.64 -6.31 31 C-2.36 34.3 -2.36 34.3 2 37 C2.33 25.78 2.66 14.56 3 3 C6 6 6 6 6.32 8.22 C6.29 9.52 6.29 9.52 6.25 10.84 C6.23 11.83 6.21 12.83 6.19 13.85 C6.15 14.89 6.11 15.94 6.07 17.01 C6.05 17.97 6.03 18.93 6.01 19.92 C5.92 23.51 5.8 27.1 5.69 30.69 C5.46 38.71 5.23 46.73 5 55 C-18.43 55 -41.86 55 -66 55 C-66 36.19 -66 17.38 -66 -2 C-57.84 -2.19 -49.69 -2.38 -41.54 -2.55 C-37.74 -2.62 -33.94 -2.7 -30.14 -2.8 C-26.49 -2.89 -22.83 -2.97 -19.17 -3.03 C-17.78 -3.06 -16.38 -3.09 -14.98 -3.13 C-13.03 -3.19 -11.08 -3.22 -9.12 -3.25 C-8.01 -3.27 -6.9 -3.3 -5.75 -3.32 C-3 -3 -3 -3 0 0 Z " fill="#EF3C63" transform="translate(403,82)"/>
<path d="M0 0 C0.5 0.99 0.5 0.99 1 2 C0.07 4.61 0.07 4.61 -1.31 7.75 C-7.95 22.88 -6.21 37.03 -4 53 C-7.98 53.03 -11.96 53.05 -15.94 53.06 C-17.64 53.08 -17.64 53.08 -19.38 53.09 C-20.46 53.09 -21.54 53.09 -22.65 53.1 C-24.15 53.11 -24.15 53.11 -25.68 53.11 C-28 53 -28 53 -29 52 C-29.51 49.08 -29.96 46.18 -30.38 43.25 C-30.57 41.93 -30.57 41.93 -30.76 40.58 C-31.18 37.72 -31.59 34.86 -32 32 C-32.29 30 -32.58 28 -32.86 26 C-33.58 21 -34.29 16 -35 11 C-33.35 11 -31.7 11 -30 11 C-29.67 12.32 -29.34 13.64 -29 15 C-28.01 14.67 -27.02 14.34 -26 14 C-26 14.66 -26 15.32 -26 16 C-25.13 16.13 -24.26 16.27 -23.37 16.4 C-21.64 16.67 -21.64 16.67 -19.88 16.94 C-18.17 17.2 -18.17 17.2 -16.43 17.46 C-13.28 17.96 -10.14 18.47 -7 19 C-6.91 18.38 -6.83 17.77 -6.74 17.13 C-5.65 10.58 -3.54 5.6 0 0 Z " fill="#EA2E5F" transform="translate(252,152)"/>
<path d="M0 0 C0.99 0 1.98 0 3 0 C4.32 7.92 5.64 15.84 7 24 C8.65 22.02 10.3 20.04 12 18 C12.66 18 13.32 18 14 18 C13.41 23.9 12.29 28.71 8 33 C7.36 35.07 7.36 35.07 7 37 C6.25 37.05 5.5 37.1 4.73 37.15 C3.75 37.22 2.76 37.3 1.75 37.38 C0.29 37.48 0.29 37.48 -1.2 37.59 C-3.9 37.98 -5.67 38.64 -8 40 C-12.15 30.35 -14.17 21.45 -15 11 C-12 12 -12 12 -10.81 14.06 C-10.54 14.7 -10.28 15.34 -10 16 C-10.33 14.93 -10.66 13.86 -11 12.75 C-12 9 -12 9 -12 5 C-9 6 -9 6 -8.05 7.85 C-7.37 9.9 -6.68 11.95 -6 14 C-6.33 9.71 -6.66 5.42 -7 1 C-6.01 1 -5.02 1 -4 1 C-3.01 3.97 -2.02 6.94 -1 10 C-0.67 6.7 -0.34 3.4 0 0 Z " fill="#F1A58C" transform="translate(196,54)"/>
<path d="M0 0 C4.62 0 9.24 0 14 0 C14 0.66 14 1.32 14 2 C14.72 1.67 15.44 1.35 16.18 1.01 C19.07 -0.03 21.1 -0.24 24.16 -0.23 C25.66 -0.23 25.66 -0.23 27.19 -0.23 C28.26 -0.22 29.33 -0.21 30.43 -0.2 C31.53 -0.19 32.63 -0.19 33.77 -0.19 C37.28 -0.18 40.8 -0.15 44.31 -0.12 C46.7 -0.11 49.08 -0.11 51.47 -0.1 C57.31 -0.08 63.16 -0.04 69 0 C69 2.64 69 5.28 69 8 C64.05 8 59.1 8 54 8 C53.67 8.66 53.34 9.32 53 10 C35.51 9.67 18.02 9.34 0 9 C0 6.03 0 3.06 0 0 Z " fill="#AAD2E0" transform="translate(347,353)"/>
<path d="M0 0 C23.43 0 46.86 0 71 0 C71 36.63 71 73.26 71 111 C47.57 111 24.14 111 0 111 C0 74.37 0 37.74 0 0 Z M1 2 C1 37.64 1 73.28 1 110 C23.44 110 45.88 110 69 110 C69 74.36 69 38.72 69 2 C46.56 2 24.12 2 1 2 Z " fill="#F59A80" transform="translate(337,144)"/>
<path d="M0 0 C-21.45 0 -42.9 0 -65 0 C-65 11.22 -65 22.44 -65 34 C-62.36 32.68 -59.72 31.36 -57 30 C-56.01 30.33 -55.02 30.66 -54 31 C-55.27 31.67 -56.54 32.34 -57.81 33 C-58.52 33.37 -59.23 33.74 -59.96 34.12 C-62 35 -62 35 -65 35 C-65 40.94 -65 46.88 -65 53 C-58.91 52.88 -52.83 52.76 -46.74 52.63 C-44.67 52.58 -42.59 52.54 -40.52 52.5 C-37.55 52.45 -34.58 52.38 -31.6 52.32 C-30.21 52.29 -30.21 52.29 -28.78 52.27 C-27.49 52.24 -27.49 52.24 -26.17 52.21 C-25.04 52.18 -25.04 52.18 -23.87 52.16 C-21.91 52.11 -21.91 52.11 -20 51 C-20 51.66 -20 52.32 -20 53 C-12.41 53 -4.82 53 3 53 C2.88 50.92 2.75 48.83 2.62 46.69 C2.52 44.93 2.52 44.93 2.41 43.14 C2.21 39.84 2.21 39.84 0 37 C0.66 37 1.32 37 2 37 C2.33 25.78 2.66 14.56 3 3 C6 6 6 6 6.32 8.22 C6.29 9.52 6.29 9.52 6.25 10.84 C6.23 11.83 6.21 12.83 6.19 13.85 C6.15 14.89 6.11 15.94 6.07 17.01 C6.05 17.97 6.03 18.93 6.01 19.92 C5.92 23.51 5.8 27.1 5.69 30.69 C5.46 38.71 5.23 46.73 5 55 C-18.43 55 -41.86 55 -66 55 C-66 36.19 -66 17.38 -66 -2 C-57.84 -2.19 -49.69 -2.38 -41.54 -2.55 C-37.74 -2.62 -33.94 -2.7 -30.14 -2.8 C-26.49 -2.89 -22.83 -2.97 -19.17 -3.03 C-17.78 -3.06 -16.38 -3.09 -14.98 -3.13 C-13.03 -3.19 -11.08 -3.22 -9.12 -3.25 C-8.01 -3.27 -6.9 -3.3 -5.75 -3.32 C-3 -3 -3 -3 0 0 Z " fill="#F48B7C" transform="translate(403,82)"/>
<path d="M0 0 C23.43 0 46.86 0 71 0 C71 18.48 71 36.96 71 56 C47.57 56 24.14 56 0 56 C0 37.52 0 19.04 0 0 Z M1 1 C1 18.82 1 36.64 1 55 C15.52 55 30.04 55 45 55 C40.2 49.36 40.2 49.36 35.12 44.06 C34.53 43.48 33.93 42.89 33.32 42.29 C32.88 41.86 32.45 41.44 32 41 C32.99 41.82 33.98 42.65 35 43.5 C35.66 44.04 36.32 44.58 37 45.13 C39 47 39 47 40.47 49.18 C42.52 52 43.87 53.36 47 55 C54.26 56.02 61.71 55.49 69 55 C70.13 46.55 70.13 46.55 67.44 38.96 C65.33 37.43 65.33 37.43 62 36 C65.25 38.26 65.25 38.26 69 39 C69 26.46 69 13.92 69 1 C46.56 1 24.12 1 1 1 Z " fill="#F7B387" transform="translate(126,245)"/>
<path d="M0 0 C23.43 0 46.86 0 71 0 C71 33.33 71 66.66 71 101 C69.02 100.01 69.02 100.01 67 99 C67.66 99 68.32 99 69 99 C69 66.66 69 34.32 69 1 C46.56 1 24.12 1 1 1 C1 20.8 1 40.6 1 61 C0.67 61 0.34 61 0 61 C0 40.87 0 20.74 0 0 Z " fill="#F48F7D" transform="translate(126,309)"/>
<path d="M0 0 C4.29 0 8.58 0 13 0 C14.76 5.53 15.34 10.03 16 16 C8.74 16 1.48 16 -6 16 C-6 9.27 -6 9.27 -3.56 6.31 C-1.75 4.06 -0.94 2.82 0 0 Z " fill="#314653" transform="translate(314,463)"/>
<path d="M0 0 C-0.86 15.86 -0.86 15.86 -3 23 C-6.45 25.3 -7.95 25.34 -12 25 C-12.66 24.34 -13.32 23.68 -14 23 C-13.67 21.68 -13.34 20.36 -13 19 C-10.03 19 -7.06 19 -4 19 C-3.34 13.39 -2.68 7.78 -2 2 C-7 2.65 -7 2.65 -11.99 3.32 C-16.02 3.83 -19.92 4.1 -24 4 C-24.04 4.62 -24.09 5.24 -24.14 5.88 C-24.35 8.69 -24.58 11.5 -24.81 14.31 C-24.88 15.29 -24.95 16.27 -25.03 17.27 C-25.11 18.21 -25.19 19.15 -25.27 20.11 C-25.34 20.98 -25.41 21.84 -25.48 22.73 C-26.09 25.4 -26.81 26.38 -29 28 C-33.08 28.42 -34.53 28.31 -38 26 C-37.34 24.68 -36.68 23.36 -36 22 C-33.36 22 -30.72 22 -28 22 C-27.87 20.88 -27.73 19.76 -27.6 18.61 C-27.42 17.13 -27.24 15.66 -27.06 14.19 C-26.93 13.08 -26.93 13.08 -26.8 11.95 C-26.42 8.83 -26 5.99 -25 3 C-21.77 2.49 -18.54 2 -15.31 1.5 C-13.94 1.29 -13.94 1.29 -12.55 1.07 C-11.22 0.86 -11.22 0.86 -9.86 0.66 C-9.05 0.53 -8.24 0.4 -7.4 0.28 C-4.91 -0.01 -2.5 -0.05 0 0 Z " fill="#577887" transform="translate(400,388)"/>
<path d="M0 0 C0.33 0 0.66 0 1 0 C1 18.48 1 36.96 1 56 C0.34 55.67 -0.32 55.34 -1 55 C-1.13 52.75 -1.18 50.5 -1.19 48.25 C-1.32 43.22 -1.32 43.22 -3.62 38.96 C-5.73 37.43 -5.73 37.43 -9 36 C-5.42 36 -3.95 37.09 -1 39 C-1.01 37.89 -1.01 36.78 -1.02 35.64 C-1.03 31.52 -1.05 27.41 -1.05 23.3 C-1.06 21.52 -1.07 19.74 -1.08 17.96 C-1.09 15.4 -1.09 12.85 -1.1 10.29 C-1.1 9.49 -1.11 8.69 -1.11 7.87 C-1.11 2.23 -1.11 2.23 0 0 Z " fill="#F48279" transform="translate(196,245)"/>
<path d="M0 0 C1.05 0.19 2.1 0.37 3.19 0.56 C6.6 0.95 8.73 0.77 12 0 C13 1 13 1 13.31 3.81 C13 7 13 7 11.31 9.44 C9 11 9 11 6.56 11.12 C2.76 9.46 1.31 7.47 -1 4 C-0.81 1.62 -0.81 1.62 0 0 Z " fill="#F0C78C" transform="translate(168,177)"/>
<path d="M0 0 C2.44 0.75 2.44 0.75 4.44 2.75 C4.8 5.6 4.84 7.14 3.25 9.56 C0.79 11.18 -0.67 11.18 -3.56 10.75 C-5.44 9.62 -5.44 9.62 -6.56 7.75 C-6.44 4.69 -6.44 4.69 -5.56 1.75 C-2.56 -0.25 -2.56 -0.25 0 0 Z " fill="#F2606E" transform="translate(159.5625,254.25)"/>
<path d="M0 0 C0.66 0.33 1.32 0.66 2 1 C2 2.32 2 3.64 2 5 C7.61 5 13.22 5 19 5 C19 3.35 19 1.7 19 0 C19.33 0 19.66 0 20 0 C20 1.65 20 3.3 20 5 C22.31 5 24.62 5 27 5 C26.67 5.66 26.34 6.32 26 7 C17.58 7.5 17.58 7.5 9 8 C9.99 10.97 10.98 13.94 12 17 C8.65 13.65 8.11 11.51 7 7 C6.16 7.02 5.31 7.05 4.45 7.07 C2.8 7.1 2.8 7.1 1.12 7.12 C0.03 7.15 -1.06 7.17 -2.18 7.2 C-5 7 -5 7 -7 5 C-4.69 5 -2.38 5 0 5 C0 3.35 0 1.7 0 0 Z " fill="#7C6F85" transform="translate(267,227)"/>
<path d="M0 0 C1.87 0.22 1.87 0.22 4 1 C5.19 2.98 5.19 2.98 6.14 5.55 C6.49 6.48 6.84 7.4 7.2 8.36 C7.54 9.33 7.89 10.31 8.25 11.31 C8.8 12.76 8.8 12.76 9.35 14.23 C10.9 18.43 12 21.47 12 26 C11.34 26 10.68 26 10 26 C8.13 22.05 6.28 18.09 4.44 14.12 C3.9 13 3.37 11.87 2.82 10.71 C2.32 9.63 1.82 8.55 1.31 7.45 C0.84 6.45 0.38 5.46 -0.1 4.43 C-0.4 3.63 -0.7 2.83 -1 2 C-0.67 1.34 -0.34 0.68 0 0 Z " fill="#C7A17C" transform="translate(213,141)"/>
<path d="M0 0 C3.12 0.25 3.12 0.25 5.06 1.38 C6.12 3.25 6.12 3.25 5.94 6.38 C5.67 7.32 5.4 8.27 5.12 9.25 C2.34 10.64 0.2 10.51 -2.88 10.25 C-4.88 7.25 -4.88 7.25 -4.56 4.12 C-3.65 0.32 -3.65 0.32 0 0 Z " fill="#F2606E" transform="translate(368.875,89.75)"/>
<path d="M0 0 C5.94 0 11.88 0 18 0 C18 1.65 18 3.3 18 5 C12.39 5 6.78 5 1 5 C0.67 3.35 0.34 1.7 0 0 Z " fill="#ABDFEB" transform="translate(268,227)"/>
<path d="M0 0 C0.99 0.33 1.98 0.66 3 1 C4.67 1.12 6.35 1.18 8.02 1.21 C9.55 1.24 9.55 1.24 11.12 1.27 C12.22 1.28 13.32 1.3 14.45 1.32 C16.14 1.35 16.14 1.35 17.87 1.38 C21.47 1.44 25.08 1.5 28.69 1.56 C31.13 1.61 33.57 1.65 36.02 1.69 C42.01 1.8 48.01 1.9 54 2 C54 2.33 54 2.66 54 3 C53.38 3.01 52.77 3.02 52.14 3.03 C45.73 3.14 39.32 3.25 32.91 3.37 C30.52 3.42 28.13 3.46 25.74 3.5 C22.3 3.56 18.86 3.62 15.43 3.68 C13.82 3.71 13.82 3.71 12.19 3.73 C11.19 3.75 10.19 3.77 9.16 3.79 C8.28 3.81 7.4 3.83 6.5 3.84 C3.92 4 1.52 4.44 -1 5 C-1 4.34 -1 3.68 -1 3 C-5.62 3 -10.24 3 -15 3 C-15 2.67 -15 2.34 -15 2 C-14 1.94 -13 1.88 -11.97 1.82 C-10.68 1.73 -9.39 1.65 -8.06 1.56 C-6.77 1.48 -5.49 1.4 -4.16 1.32 C-1.14 1.35 -1.14 1.35 0 0 Z " fill="#415E6D" transform="translate(362,350)"/>
<path d="M0 0 C2.64 0 5.28 0 8 0 C8.33 1.65 8.66 3.3 9 5 C6.23 6.39 4.07 6.19 1 6 C0.01 5.34 -0.98 4.68 -2 4 C-1.34 2.68 -0.68 1.36 0 0 Z " fill="#2C4454" transform="translate(364,410)"/>
<path d="M0 0 C7.75 -0.12 7.75 -0.12 10 1 C9.62 2.94 9.62 2.94 9 5 C6.24 6.38 4.05 6.19 1 6 C0.34 5.34 -0.32 4.68 -1 4 C-0.62 1.88 -0.62 1.88 0 0 Z " fill="#2B4453" transform="translate(387,407)"/>
<path d="M0 0 C0.57 0.36 1.15 0.73 1.74 1.11 C-12.86 9.14 -12.86 9.14 -20.26 8.11 C-20.59 7.45 -20.92 6.79 -21.26 6.11 C-17.96 6.11 -14.66 6.11 -11.26 6.11 C-10.93 5.12 -10.6 4.13 -10.26 3.11 C-8.55 1.87 -8.55 1.87 -6.45 0.79 C-5.76 0.43 -5.08 0.06 -4.37 -0.32 C-2.26 -0.89 -2.26 -0.89 0 0 Z " fill="#B48D74" transform="translate(284.26171875,137.89453125)"/>
<path d="M0 0 C2.12 0.94 2.12 0.94 4 2 C2.57 2.87 1.13 3.72 -0.31 4.56 C-1.51 5.28 -1.51 5.28 -2.74 6 C-5 7 -5 7 -8 6 C-6.02 5.34 -4.04 4.68 -2 4 C-2 3.01 -2 2.02 -2 1 C-1.34 0.67 -0.68 0.34 0 0 Z " fill="#9C796C" transform="translate(282,137)"/>
<path d="M0 0 C1.32 0 2.64 0 4 0 C3.67 1.65 3.34 3.3 3 5 C1.68 4.67 0.36 4.34 -1 4 C-0.67 2.68 -0.34 1.36 0 0 Z " fill="#E6C690" transform="translate(224,467)"/>
<path d="M0 0 C0.66 0.33 1.32 0.66 2 1 C0.51 3.47 0.51 3.47 -1 6 C-1.99 5.34 -2.98 4.68 -4 4 C-3.67 3.01 -3.34 2.02 -3 1 C-2.01 0.67 -1.02 0.34 0 0 Z " fill="#6C6076" transform="translate(287,249)"/>
</svg>
