<?xml version="1.0" encoding="UTF-8"?>
<!-- Generator: visioncortex VTracer 0.6.3 -->
<svg version="1.1" xmlns="http://www.w3.org/2000/svg" width="500" height="500">
<path d="M0 0 C165 0 330 0 500 0 C500 165 500 330 500 500 C335 500 170 500 0 500 C0 335 0 170 0 0 Z " fill="#FEFEFE" transform="translate(0,0)"/>
<path d="M0 0 C71.28 0 142.56 0 216 0 C216 73.26 216 146.52 216 222 C202.8 222.33 189.6 222.66 176 223 C166.37 228.13 166.37 228.13 162 237 C161.67 259.44 161.34 281.88 161 305 C107.87 305 54.74 305 0 305 C0 204.35 0 103.7 0 0 Z " fill="#F2405E" transform="translate(81,60)"/>
<path d="M0 0 C0.74 -0 1.47 -0.01 2.23 -0.01 C4.71 -0.02 7.19 -0.03 9.67 -0.03 C11.44 -0.04 13.22 -0.04 14.99 -0.05 C19.82 -0.07 24.64 -0.08 29.46 -0.09 C32.48 -0.09 35.49 -0.1 38.5 -0.1 C47.93 -0.12 57.36 -0.14 66.78 -0.15 C77.67 -0.15 88.55 -0.18 99.44 -0.22 C107.85 -0.25 116.26 -0.27 124.67 -0.27 C129.7 -0.27 134.72 -0.28 139.75 -0.31 C144.47 -0.33 149.2 -0.33 153.93 -0.32 C155.66 -0.32 157.39 -0.33 159.13 -0.34 C161.5 -0.36 163.87 -0.35 166.24 -0.34 C166.92 -0.35 167.6 -0.36 168.31 -0.37 C174.37 -0.29 177.72 2.34 182.15 6.17 C184.77 10.88 184.36 15.5 184.33 20.8 C184.33 21.98 184.34 23.16 184.35 24.38 C184.36 27.6 184.36 30.83 184.35 34.06 C184.34 37.44 184.34 40.83 184.35 44.21 C184.36 49.9 184.35 55.58 184.33 61.26 C184.31 67.82 184.31 74.38 184.34 80.94 C184.36 86.59 184.36 92.23 184.35 97.87 C184.34 101.24 184.34 104.6 184.35 107.97 C184.36 111.72 184.35 115.48 184.33 119.23 C184.33 120.34 184.34 121.45 184.35 122.59 C184.28 128.97 183.77 133.04 179.81 138.15 C175.75 141.24 172.24 141.58 167.3 141.53 C166.55 141.54 165.81 141.55 165.04 141.55 C162.54 141.57 160.04 141.56 157.54 141.55 C155.74 141.56 153.95 141.56 152.16 141.57 C147.29 141.59 142.42 141.59 137.55 141.58 C133.48 141.58 129.41 141.59 125.35 141.59 C115.76 141.61 106.17 141.6 96.57 141.59 C86.68 141.58 76.79 141.6 66.89 141.62 C58.39 141.64 49.9 141.65 41.4 141.65 C36.33 141.64 31.25 141.64 26.18 141.66 C21.41 141.68 16.64 141.67 11.87 141.65 C10.12 141.65 8.37 141.65 6.62 141.66 C4.22 141.68 1.83 141.67 -0.56 141.65 C-1.25 141.66 -1.94 141.67 -2.65 141.68 C-7.6 141.6 -10.36 140.2 -14.19 137.15 C-19.18 131.78 -18.76 126.39 -18.71 119.45 C-18.72 118.28 -18.72 117.11 -18.73 115.9 C-18.75 112.04 -18.74 108.17 -18.72 104.3 C-18.72 101.61 -18.73 98.92 -18.73 96.23 C-18.74 90.6 -18.73 84.96 -18.71 79.33 C-18.69 72.82 -18.7 66.31 -18.72 59.81 C-18.74 54.21 -18.74 48.62 -18.73 43.02 C-18.72 39.68 -18.73 36.34 -18.74 33.01 C-18.75 29.28 -18.73 25.56 -18.71 21.84 C-18.72 20.74 -18.73 19.64 -18.73 18.51 C-18.67 12.4 -18.28 8.79 -14.19 4.15 C-9.74 0.24 -5.71 -0 0 0 Z " fill="#F23F5E" transform="translate(266.1918487548828,287.8528289794922)"/>
<path d="M0 0 C4.43 3.45 7.56 7.2 9.02 12.68 C9.96 20.84 9.92 28.79 5.02 35.68 C0.2 41.02 -5.24 45.17 -12.58 45.96 C-21.42 46.26 -27.88 44.38 -34.44 38.36 C-40.26 32.01 -41.42 25.2 -41.31 16.85 C-40.54 9.47 -37.21 4.33 -31.54 -0.32 C-21.1 -7.62 -10.41 -6.95 0 0 Z " fill="#FEFCFC" transform="translate(431.9765625,375.3203125)"/>
<path d="M0 0 C1.34 -0.01 1.34 -0.01 2.71 -0.02 C3.68 -0.02 4.66 -0.02 5.66 -0.02 C6.65 -0.03 7.64 -0.03 8.67 -0.03 C10.77 -0.04 12.87 -0.04 14.98 -0.04 C18.21 -0.04 21.44 -0.06 24.66 -0.08 C26.7 -0.08 28.74 -0.08 30.78 -0.09 C32.24 -0.1 32.24 -0.1 33.73 -0.11 C34.62 -0.1 35.52 -0.1 36.45 -0.1 C37.24 -0.1 38.03 -0.1 38.85 -0.1 C40.79 0.15 40.79 0.15 42.79 2.15 C42.99 4.77 43.07 7.3 43.05 9.93 C43.06 11.08 43.06 11.08 43.06 12.26 C43.06 13.89 43.06 15.51 43.05 17.14 C43.04 19.64 43.05 22.13 43.06 24.63 C43.06 26.21 43.06 27.78 43.05 29.36 C43.06 30.11 43.06 30.86 43.07 31.63 C43.02 36.92 43.02 36.92 40.79 39.15 C38.85 39.39 38.85 39.39 36.45 39.39 C35.1 39.39 35.1 39.39 33.73 39.4 C32.27 39.39 32.27 39.39 30.78 39.38 C29.79 39.38 28.8 39.37 27.77 39.37 C25.67 39.37 23.57 39.36 21.47 39.35 C18.23 39.33 15 39.33 11.77 39.33 C9.74 39.33 7.7 39.32 5.66 39.31 C4.69 39.31 3.71 39.31 2.71 39.31 C1.82 39.3 0.92 39.3 0 39.29 C-0.79 39.29 -1.58 39.28 -2.4 39.28 C-4.21 39.15 -4.21 39.15 -5.21 38.15 C-5.31 35.42 -5.35 32.72 -5.35 29.99 C-5.35 29.17 -5.35 28.35 -5.35 27.51 C-5.35 25.78 -5.35 24.05 -5.34 22.32 C-5.34 19.66 -5.34 17 -5.35 14.34 C-5.35 12.66 -5.35 10.98 -5.35 9.3 C-5.35 8.5 -5.35 7.7 -5.35 6.87 C-5.32 0.03 -5.32 0.03 0 0 Z " fill="#FEF7F9" transform="translate(268.212646484375,375.854736328125)"/>
<path d="M0 0 C1.23 0 2.46 0 3.73 0.01 C4.75 0 4.75 0 5.8 0 C8.1 -0 10.4 0.01 12.7 0.02 C14.35 0.02 15.99 0.02 17.64 0.02 C22.12 0.02 26.59 0.03 31.07 0.04 C35.75 0.06 40.42 0.06 45.1 0.06 C53.95 0.07 62.81 0.08 71.67 0.1 C81.75 0.12 91.83 0.14 101.91 0.15 C122.66 0.17 143.4 0.2 164.15 0.25 C164.53 1.9 164.86 3.57 165.15 5.25 C164.15 6.25 164.15 6.25 161.41 6.37 C160.18 6.37 158.95 6.37 157.69 6.37 C157 6.37 156.32 6.37 155.62 6.37 C153.31 6.37 151.01 6.37 148.7 6.36 C147.06 6.36 145.41 6.36 143.77 6.36 C139.28 6.36 134.8 6.35 130.32 6.35 C125.64 6.34 120.97 6.34 116.29 6.34 C107.42 6.34 98.56 6.33 89.69 6.32 C79.61 6.31 69.52 6.3 59.43 6.3 C38.67 6.29 17.91 6.27 -2.85 6.25 C-3.51 4.93 -4.17 3.61 -4.85 2.25 C-2.85 0.25 -2.85 0.25 0 0 Z " fill="#FEFEFE" transform="translate(111.85419654846191,219.75390434265137)"/>
<path d="M0 0 C1.85 0 1.85 0 3.73 0 C4.41 0 5.09 0 5.8 0 C8.1 -0 10.41 0 12.71 0.01 C14.36 0.01 16 0.01 17.65 0.01 C22.13 0.01 26.61 0.01 31.09 0.02 C35.77 0.03 40.45 0.03 45.13 0.03 C53.99 0.03 62.86 0.04 71.72 0.05 C81.81 0.06 91.9 0.07 101.99 0.07 C122.75 0.08 143.51 0.1 164.27 0.12 C164.65 1.78 164.98 3.45 165.27 5.12 C164.27 6.12 164.27 6.12 161.54 6.25 C160.31 6.25 159.08 6.24 157.81 6.24 C157.13 6.24 156.44 6.25 155.74 6.25 C153.43 6.25 151.13 6.24 148.83 6.24 C147.18 6.24 145.53 6.24 143.89 6.24 C139.41 6.24 134.93 6.23 130.45 6.22 C125.77 6.22 121.09 6.22 116.41 6.22 C107.55 6.21 98.68 6.21 89.82 6.2 C79.73 6.18 69.64 6.18 59.55 6.17 C38.79 6.16 18.03 6.15 -2.73 6.12 C-3.11 4.47 -3.45 2.8 -3.73 1.12 C-2.73 0.12 -2.73 0.12 0 0 Z " fill="#FEF6F8" transform="translate(111.7311487197876,193.87695217132568)"/>
<path d="M0 0 C2.42 2.2 4.49 4.48 6.53 7.03 C9.39 9.31 11.28 9.55 14.9 9.34 C18.38 8.78 21.42 7.55 24.62 6.12 C29.04 4.24 33.42 2.45 38 1 C31.38 10.65 20.8 24.49 8.94 27.53 C3.66 28.06 0.58 26.32 -3.81 23.5 C-11.06 18.95 -16.79 18.92 -25.02 20.62 C-29.49 21.78 -33.73 23.24 -38 25 C-32.63 14.58 -13.06 -4.67 0 0 Z " fill="#FEFAFB" transform="translate(296,300)"/>
<path d="M0 0 C4.07 2.07 6.37 3.74 8 8 C8.46 12.61 8.37 17.24 8.38 21.88 C8.4 23.14 8.42 24.41 8.45 25.71 C8.49 37.48 8.49 37.48 4 42 C0.04 44.7 -4.37 44.83 -9 44 C-12.1 41.56 -13.82 39.27 -16 36 C-16.45 31.39 -16.32 26.76 -16.31 22.12 C-16.33 20.84 -16.34 19.56 -16.36 18.25 C-16.36 16.4 -16.36 16.4 -16.36 14.51 C-16.37 13.38 -16.37 12.25 -16.37 11.09 C-15.86 6.87 -14.17 4.31 -11.38 1.19 C-7.63 -0.68 -4.1 -0.65 0 0 Z " fill="#FEF7F9" transform="translate(170,93)"/>
<path d="M0 0 C55.44 0 110.88 0 168 0 C168.33 1.32 168.66 2.64 169 4 C168 5 168 5 165.25 5.12 C163.4 5.12 163.4 5.12 161.5 5.12 C160.81 5.12 160.13 5.12 159.42 5.12 C157.1 5.12 154.78 5.12 152.46 5.11 C150.81 5.11 149.15 5.11 147.5 5.11 C142.99 5.11 138.48 5.11 133.97 5.1 C129.27 5.1 124.56 5.09 119.86 5.09 C110.94 5.09 102.02 5.08 93.1 5.07 C82.95 5.06 72.8 5.06 62.65 5.05 C41.77 5.04 20.88 5.02 0 5 C0 3.35 0 1.7 0 0 Z " fill="#FEFEFE" transform="translate(108,168)"/>
<path d="M0 0 C0.88 0 1.75 0 2.65 0.01 C4.16 0 4.16 0 5.7 -0 C7.35 0.01 7.35 0.01 9.05 0.02 C10.79 0.02 10.79 0.02 12.56 0.02 C16.42 0.02 20.27 0.04 24.12 0.05 C26.79 0.05 29.45 0.06 32.12 0.06 C38.43 0.07 44.73 0.08 51.04 0.1 C58.22 0.12 65.4 0.14 72.58 0.15 C87.35 0.17 102.12 0.2 116.9 0.25 C117.28 1.9 117.61 3.57 117.9 5.25 C116.9 6.25 116.9 6.25 114.91 6.37 C113.6 6.37 113.6 6.37 112.26 6.37 C111.25 6.37 110.25 6.37 109.22 6.37 C108.11 6.37 107 6.36 105.86 6.36 C104.7 6.36 103.54 6.36 102.34 6.36 C98.48 6.36 94.62 6.35 90.77 6.34 C88.1 6.34 85.43 6.34 82.77 6.34 C76.45 6.34 70.14 6.33 63.82 6.32 C56.64 6.31 49.45 6.3 42.26 6.3 C27.47 6.29 12.68 6.27 -2.1 6.25 C-2.76 4.93 -3.42 3.61 -4.1 2.25 C-2.1 0.25 -2.1 0.25 0 0 Z " fill="#FEFEFE" transform="translate(111.10456275939941,298.75390434265137)"/>
<path d="M0 0 C1 -0 2 -0.01 3.03 -0.01 C4.14 -0.01 5.25 -0 6.39 -0 C7.55 -0 8.71 -0.01 9.9 -0.01 C13.76 -0.01 17.61 -0.01 21.46 -0.01 C24.13 -0.01 26.79 -0.01 29.46 -0.01 C35.05 -0.01 40.64 -0.01 46.23 -0 C52.71 0 59.18 0 65.65 -0.01 C71.2 -0.01 76.75 -0.01 82.3 -0.01 C85.62 -0.01 88.94 -0.01 92.26 -0.01 C95.95 -0.01 99.65 -0.01 103.35 -0 C104.45 -0 105.56 -0.01 106.7 -0.01 C108.21 -0 108.21 -0 109.74 0 C110.61 0 111.49 0 112.39 0 C114.37 0.13 114.37 0.13 115.37 1.13 C115.37 2.78 115.37 4.43 115.37 6.13 C75.44 6.13 35.51 6.13 -5.63 6.13 C-5.63 0 -5.63 0 0 0 Z " fill="#FEF6F7" transform="translate(113.6312255859375,245.87301635742188)"/>
<path d="M0 0 C2.36 0.14 2.36 0.14 5 1 C6.71 3.05 6.71 3.05 8.23 5.73 C9.06 7.18 9.06 7.18 9.91 8.66 C10.48 9.68 11.04 10.7 11.62 11.75 C12.2 12.75 12.77 13.76 13.36 14.79 C14.43 16.66 15.49 18.54 16.55 20.43 C17.99 22.98 19.49 25.49 21 28 C21.33 19.09 21.66 10.18 22 1 C23.65 0.67 25.3 0.34 27 0 C28 1 28 1 28.11 4.97 C28.11 6.74 28.11 8.51 28.1 10.29 C28.1 11.22 28.09 12.15 28.09 13.11 C28.09 16.09 28.08 19.08 28.06 22.06 C28.06 24.08 28.05 26.1 28.05 28.12 C28.04 33.08 28.02 38.04 28 43 C25.53 43.5 25.53 43.5 23 44 C18.75 37.8 14.85 31.46 11.12 24.94 C9.43 21.99 7.74 19.04 6 16 C5.67 24.91 5.34 33.82 5 43 C2.53 43.5 2.53 43.5 0 44 C-1.95 42.05 -1.13 39.1 -1.14 36.51 C-1.14 35.6 -1.13 34.69 -1.13 33.75 C-1.13 32.82 -1.13 31.89 -1.14 30.94 C-1.14 28.97 -1.13 27 -1.13 25.04 C-1.13 22.01 -1.13 18.99 -1.14 15.97 C-1.14 14.06 -1.13 12.16 -1.13 10.25 C-1.13 9.34 -1.14 8.43 -1.14 7.49 C-1.11 1.11 -1.11 1.11 0 0 Z " fill="#FEFBFC" transform="translate(223,93)"/>
<path d="M0 0 C1.31 0 1.31 0 2.66 0 C4.16 0 4.16 0 5.69 -0 C7.36 0 7.36 0 9.06 0.01 C10.22 0.01 11.38 0.01 12.57 0.01 C16.43 0.01 20.29 0.02 24.15 0.03 C26.81 0.03 29.48 0.03 32.15 0.03 C38.46 0.03 44.78 0.04 51.09 0.05 C58.28 0.06 65.47 0.07 72.65 0.07 C87.44 0.08 102.23 0.1 117.02 0.12 C117.4 1.78 117.73 3.45 118.02 5.12 C117.02 6.12 117.02 6.12 115.02 6.25 C114.14 6.25 113.25 6.24 112.34 6.24 C111.33 6.24 110.32 6.25 109.28 6.25 C107.6 6.24 107.6 6.24 105.89 6.24 C104.72 6.24 103.55 6.24 102.34 6.24 C99.12 6.24 95.9 6.23 92.69 6.22 C89.33 6.22 85.96 6.22 82.6 6.22 C76.24 6.21 69.87 6.21 63.5 6.2 C56.25 6.18 49.01 6.18 41.76 6.17 C26.84 6.16 11.93 6.15 -2.98 6.12 C-3.02 4.46 -3.02 2.79 -2.98 1.12 C-1.98 0.12 -1.98 0.12 0 0 Z " fill="#FEF6F7" transform="translate(110.9815149307251,324.8769521713257)"/>
<path d="M0 0 C39.6 0 79.2 0 120 0 C120.5 2.48 120.5 2.48 121 5 C119.38 6.62 117.61 6.13 115.37 6.13 C113.87 6.13 113.87 6.13 112.33 6.14 C111.23 6.13 110.12 6.13 108.98 6.13 C107.82 6.13 106.66 6.13 105.47 6.13 C101.61 6.14 97.76 6.14 93.91 6.13 C91.24 6.13 88.58 6.13 85.91 6.14 C80.32 6.14 74.73 6.14 69.14 6.13 C62.66 6.12 56.19 6.13 49.72 6.13 C44.17 6.14 38.62 6.14 33.07 6.13 C29.75 6.13 26.43 6.13 23.11 6.14 C19.42 6.14 15.72 6.13 12.02 6.13 C10.91 6.13 9.81 6.13 8.67 6.14 C7.66 6.13 6.66 6.13 5.63 6.13 C4.76 6.13 3.88 6.13 2.98 6.13 C1 6 1 6 0 5 C0 3.35 0 1.7 0 0 Z " fill="#FEF6F8" transform="translate(108,273)"/>
<path d="M0 0 C2.44 0.18 2.44 0.18 5 1 C6.2 2.8 6.2 2.8 7.02 5.2 C7.34 6.1 7.66 7.01 7.99 7.94 C8.32 8.95 8.66 9.96 9 11 C9.38 12.08 9.76 13.16 10.15 14.27 C11.38 17.78 12.57 21.29 13.75 24.81 C14.16 26.01 14.57 27.21 15 28.45 C15.58 30.19 15.58 30.19 16.17 31.96 C16.52 33 16.88 34.04 17.24 35.11 C17.97 37.89 18.15 40.15 18 43 C15.53 43.5 15.53 43.5 13 44 C11.06 39.1 9.88 35.31 9 30 C4.71 30 0.42 30 -4 30 C-4.45 31.94 -4.91 33.88 -5.38 35.88 C-6.75 41.75 -6.75 41.75 -9 44 C-11.62 43.62 -11.62 43.62 -14 43 C-12.46 34.86 -9.84 27.11 -7.2 19.28 C-6.43 16.98 -5.67 14.68 -4.9 12.38 C-4.41 10.92 -3.92 9.46 -3.43 8 C-3.2 7.31 -2.98 6.62 -2.74 5.91 C-1.12 1.12 -1.12 1.12 0 0 Z " fill="#FEF5F7" transform="translate(198,93)"/>
<path d="M0 0 C0.83 0.01 1.66 0.01 2.52 0.02 C3.39 0.02 4.27 0.01 5.17 0.01 C8.07 0.01 10.97 0.02 13.87 0.03 C15.88 0.03 17.89 0.03 19.9 0.03 C24.12 0.03 28.34 0.04 32.56 0.05 C37.97 0.07 43.38 0.07 48.8 0.07 C52.95 0.07 57.1 0.08 61.25 0.09 C63.25 0.09 65.25 0.09 67.24 0.09 C70.03 0.1 72.82 0.1 75.6 0.11 C76.44 0.11 77.27 0.11 78.12 0.11 C83.83 0.15 83.83 0.15 86.06 1.26 C85.73 2.91 85.4 4.56 85.06 6.26 C54.7 6.26 24.34 6.26 -6.94 6.26 C-7.27 4.94 -7.6 3.62 -7.94 2.26 C-5.34 -0.34 -3.54 0.02 0 0 Z " fill="#FEFDFE" transform="translate(309.9381408691406,358.74005126953125)"/>
<path d="M0 0 C23.43 0 46.86 0 71 0 C71.5 1.98 71.5 1.98 72 4 C70 6 70 6 67.19 6.25 C65.99 6.25 64.8 6.24 63.56 6.24 C62.57 6.25 62.57 6.25 61.56 6.25 C59.37 6.25 57.19 6.24 55 6.23 C53.48 6.23 51.97 6.23 50.45 6.23 C47.27 6.23 44.09 6.22 40.91 6.21 C36.82 6.19 32.74 6.18 28.66 6.19 C25.53 6.19 22.39 6.18 19.26 6.17 C17.75 6.17 16.25 6.17 14.74 6.17 C12.64 6.16 10.54 6.16 8.44 6.15 C7.24 6.14 6.04 6.14 4.81 6.13 C2 6 2 6 0 5 C0 3.35 0 1.7 0 0 Z " fill="#FEEFF1" transform="translate(355,341)"/>
<path d="M0 0 C3.54 0.54 3.54 0.54 5 2 C5.09 4.67 5.12 7.31 5.1 9.97 C5.1 10.77 5.09 11.57 5.09 12.39 C5.09 14.95 5.08 17.5 5.06 20.06 C5.06 21.79 5.05 23.52 5.05 25.25 C5.04 29.5 5.02 33.75 5 38 C5.57 37.99 6.13 37.98 6.71 37.97 C9.27 37.93 11.82 37.9 14.38 37.88 C15.26 37.86 16.15 37.84 17.07 37.82 C18.35 37.81 18.35 37.81 19.65 37.8 C20.83 37.79 20.83 37.79 22.03 37.77 C24 38 24 38 26 40 C25.62 42.12 25.62 42.12 25 44 C20.69 44.03 16.38 44.05 12.06 44.06 C10.83 44.07 9.6 44.08 8.33 44.09 C7.16 44.09 5.99 44.09 4.79 44.1 C3.16 44.11 3.16 44.11 1.5 44.11 C-1 44 -1 44 -2 43 C-2.11 39.99 -2.16 37.01 -2.17 34 C-2.17 33.1 -2.17 32.2 -2.18 31.26 C-2.18 29.35 -2.19 27.43 -2.19 25.52 C-2.19 22.58 -2.21 19.64 -2.22 16.7 C-2.23 14.84 -2.23 12.99 -2.23 11.13 C-2.24 10.25 -2.24 9.36 -2.25 8.45 C-2.23 2.23 -2.23 2.23 0 0 Z " fill="#FDEAED" transform="translate(125,93)"/>
<path d="M0 0 C3 0.44 3 0.44 4.66 1.6 C6.55 4.2 6.39 6.12 6.4 9.31 C6.4 10.46 6.41 11.61 6.41 12.8 C6.4 14 6.39 15.2 6.38 16.44 C6.39 17.64 6.4 18.84 6.41 20.08 C6.41 21.23 6.4 22.38 6.4 23.56 C6.4 24.62 6.39 25.67 6.39 26.76 C6 29.44 6 29.44 4.66 31.28 C2.04 33.11 0.1 32.89 -3 32.44 C-5.99 29.41 -6.38 27.12 -6.4 22.94 C-6.4 21.36 -6.4 21.36 -6.41 19.75 C-6.4 18.66 -6.39 17.56 -6.38 16.44 C-6.39 15.34 -6.4 14.25 -6.41 13.12 C-6.41 12.07 -6.4 11.02 -6.4 9.94 C-6.4 8.98 -6.39 8.02 -6.39 7.03 C-5.74 2.71 -4.38 0.64 0 0 Z " fill="#F24361" transform="translate(166,98.5625)"/>
<path d="M0 0 C1.22 0 1.22 0 2.47 0.01 C3.39 0.01 4.31 0.01 5.26 0.01 C6.26 0.01 7.26 0.02 8.29 0.02 C9.31 0.02 10.33 0.03 11.38 0.03 C14.65 0.03 17.93 0.05 21.2 0.06 C23.41 0.06 25.62 0.07 27.83 0.07 C33.26 0.08 38.7 0.1 44.13 0.12 C44.13 1.77 44.13 3.42 44.13 5.12 C28.95 5.12 13.77 5.12 -1.87 5.12 C-2.2 3.8 -2.53 2.48 -2.87 1.12 C-1.87 0.12 -1.87 0.12 0 0 Z " fill="#FEFEFE" transform="translate(290.86659240722656,340.87974548339844)"/>
<path d="M0 0 C-0.87 5.44 -4.95 8.21 -8.81 11.81 C-9.54 12.52 -10.26 13.22 -11.01 13.95 C-11.71 14.61 -12.42 15.28 -13.14 15.96 C-13.79 16.57 -14.43 17.17 -15.09 17.8 C-17 19 -17 19 -19.24 18.69 C-20.11 18.35 -20.11 18.35 -21 18 C-21.33 16.68 -21.66 15.36 -22 14 C-19.55 11.68 -17.09 9.37 -14.62 7.06 C-13.93 6.4 -13.23 5.74 -12.51 5.06 C-11.84 4.44 -11.17 3.81 -10.48 3.16 C-9.86 2.58 -9.24 2 -8.6 1.4 C-5.49 -1.32 -3.9 -0.92 0 0 Z " fill="#FEF4F5" transform="translate(109,67)"/>
<path d="M0 0 C4.29 0 8.58 0 13 0 C13 2.31 13 4.62 13 7 C8.71 7 4.42 7 0 7 C0 4.69 0 2.38 0 0 Z " fill="#F35772" transform="translate(280,392)"/>
<path d="M0 0 C8.25 0 16.5 0 25 0 C25 0.66 25 1.32 25 2 C20.95 4.7 17.82 4.37 13.06 4.38 C12.25 4.4 11.44 4.42 10.6 4.45 C9.82 4.45 9.03 4.46 8.22 4.46 C7.51 4.47 6.79 4.48 6.06 4.49 C4 4 4 4 0 0 Z " fill="#F34E6B" transform="translate(274,382)"/>
<path d="M0 0 C0.79 -0.01 1.57 -0.01 2.38 -0.02 C3.19 -0 4 0.02 4.84 0.03 C5.66 0.02 6.47 0 7.31 -0.02 C8.49 -0.01 8.49 -0.01 9.69 0 C10.4 0 11.11 0.01 11.85 0.01 C13.78 0.53 13.78 0.53 16.78 4.53 C8.53 4.53 0.28 4.53 -8.22 4.53 C-3.71 0.02 -3.71 0.02 0 0 Z " fill="#F34E6A" transform="translate(282.22265625,404.46875)"/>
<path d="M0 0 C0 6.27 0 12.54 0 19 C-5 15 -5 15 -5.63 12.34 C-5.45 4.62 -5.45 4.62 -3.06 1.31 C-1 0 -1 0 0 0 Z " fill="#F2405F" transform="translate(305,386)"/>
<path d="M0 0 C4 2 4 2 5 3 C5.15 4.79 5.22 6.58 5.25 8.38 C5.28 9.35 5.3 10.33 5.33 11.34 C5 14 5 14 3.61 15.85 C2 17 2 17 0 17 C0 11.39 0 5.78 0 0 Z " fill="#F24260" transform="translate(269,387)"/>
<path d="M0 0 C2.31 2.31 2.5 3.48 3.12 6.62 C3.29 7.44 3.46 8.26 3.63 9.1 C3.81 10.04 3.81 10.04 4 11 C1.69 11 -0.62 11 -3 11 C-2.53 6.94 -2.12 3.53 0 0 Z " fill="#F46079" transform="translate(200,106)"/>
</svg>
