<?xml version="1.0" encoding="UTF-8"?>
<!-- Generator: visioncortex VTracer 0.6.3 -->
<svg version="1.1" xmlns="http://www.w3.org/2000/svg" width="128" height="128">
<path d="M0 0 C1.25 -0.01 1.25 -0.01 2.53 -0.02 C5.29 -0.04 8.05 -0.03 10.81 -0.01 C12.73 -0.02 14.65 -0.02 16.56 -0.03 C20.58 -0.03 24.6 -0.02 28.62 -0 C33.77 0.02 38.93 0.01 44.08 -0.02 C48.04 -0.03 52 -0.03 55.96 -0.02 C57.86 -0.02 59.76 -0.02 61.66 -0.03 C64.32 -0.04 66.97 -0.02 69.62 0 C70.81 -0.01 70.81 -0.01 72.01 -0.02 C77.29 0.06 77.29 0.06 79.8 2.26 C80.92 4.77 81.19 6.46 81.2 9.21 C81.21 10.13 81.22 11.06 81.23 12.01 C81.22 13 81.22 13.99 81.21 15.01 C81.21 16.04 81.22 17.07 81.22 18.12 C81.22 20.29 81.22 22.46 81.2 24.63 C81.19 27.94 81.2 31.25 81.22 34.57 C81.22 36.67 81.22 38.78 81.21 40.89 C81.22 41.88 81.22 42.87 81.23 43.89 C81.14 52.78 81.14 52.78 77.81 56.52 C74.68 57.22 74.68 57.22 71.12 57.33 C69.04 57.39 66.96 57.45 64.81 57.52 C67.78 60.49 70.75 63.46 73.81 66.52 C74.47 64.54 75.13 62.56 75.81 60.52 C77.3 61.01 77.3 61.01 78.81 61.52 C78.81 66.14 78.81 70.76 78.81 75.52 C74.19 75.52 69.57 75.52 64.81 75.52 C64.81 74.2 64.81 72.88 64.81 71.52 C66.46 71.19 68.11 70.86 69.81 70.52 C62.45 60.79 62.45 60.79 51.5 56.43 C46.58 56.1 41.73 56.22 36.81 56.52 C37.31 61.47 37.31 61.47 37.81 66.52 C38.47 65.86 39.13 65.2 39.81 64.52 C42.44 64.89 42.44 64.89 44.81 65.52 C43.21 69.68 40.37 72.9 36.81 75.52 C34.38 75.83 34.38 75.83 31.81 74.52 C29.32 72.32 27.04 69.98 24.81 67.52 C25.31 66.03 25.31 66.03 25.81 64.52 C30.69 65.39 30.69 65.39 31.81 66.52 C32.31 61.57 32.31 61.57 32.81 56.52 C19.95 55.45 19.95 55.45 8.59 60.48 C5.35 63.58 2.53 66.95 -0.19 70.52 C1.79 71.18 3.77 71.84 5.81 72.52 C5.48 73.51 5.15 74.5 4.81 75.52 C0.19 75.52 -4.43 75.52 -9.19 75.52 C-9.19 70.9 -9.19 66.28 -9.19 61.52 C-7.87 61.52 -6.55 61.52 -5.19 61.52 C-4.86 63.17 -4.53 64.82 -4.19 66.52 C-1.22 63.55 1.75 60.58 4.81 57.52 C2.73 57.44 0.65 57.35 -1.5 57.27 C-7.7 57.02 -7.7 57.02 -9.86 54.78 C-11.39 52.18 -11.57 50.71 -11.58 47.72 C-11.59 46.77 -11.59 45.83 -11.6 44.85 C-11.6 43.83 -11.59 42.82 -11.59 41.77 C-11.59 40.72 -11.59 39.67 -11.59 38.58 C-11.6 36.37 -11.59 34.15 -11.58 31.93 C-11.56 28.53 -11.58 25.13 -11.6 21.74 C-11.6 19.58 -11.59 17.42 -11.59 15.27 C-11.59 14.25 -11.6 13.23 -11.6 12.19 C-11.59 11.24 -11.59 10.29 -11.58 9.31 C-11.57 8.48 -11.57 7.65 -11.57 6.79 C-10.42 -0.09 -6.09 -0.06 0 0 Z " fill="#A3D362" transform="translate(29.1875,1.482421875)"/>
<path d="M0 0 C17.82 0 35.64 0 54 0 C54.99 1.98 55.98 3.96 57 6 C58.65 6.66 60.3 7.32 62 8 C62 14.6 62 21.2 62 28 C60.02 28.99 58.04 29.98 56 31 C54.6 33.05 54.6 33.05 54 35 C46.36 35.13 38.73 35.21 31.09 35.27 C28.49 35.3 25.9 35.33 23.3 35.38 C19.57 35.44 15.84 35.47 12.11 35.49 C10.94 35.51 9.77 35.54 8.57 35.57 C6.95 35.57 6.95 35.57 5.3 35.57 C4.34 35.58 3.39 35.59 2.41 35.6 C0 35 0 35 -1.52 32.59 C-2.01 31.73 -2.5 30.88 -3 30 C-5.48 29.01 -5.48 29.01 -8 28 C-8 21.4 -8 14.8 -8 8 C-6.02 7.01 -4.04 6.02 -2 5 C-1.34 3.35 -0.68 1.7 0 0 Z " fill="#BFE28F" transform="translate(37,12)"/>
<path d="M0 0 C1.25 -0.01 1.25 -0.01 2.53 -0.02 C5.29 -0.04 8.05 -0.03 10.81 -0.01 C12.73 -0.02 14.65 -0.02 16.56 -0.03 C20.58 -0.03 24.6 -0.02 28.62 -0 C33.77 0.02 38.93 0.01 44.08 -0.02 C48.04 -0.03 52 -0.03 55.96 -0.02 C57.86 -0.02 59.76 -0.02 61.66 -0.03 C64.32 -0.04 66.97 -0.02 69.62 0 C70.81 -0.01 70.81 -0.01 72.01 -0.02 C77.29 0.06 77.29 0.06 79.8 2.26 C80.92 4.77 81.19 6.46 81.2 9.21 C81.21 10.13 81.22 11.06 81.23 12.01 C81.22 13 81.22 13.99 81.21 15.01 C81.21 16.04 81.22 17.07 81.22 18.12 C81.22 20.29 81.22 22.46 81.2 24.63 C81.19 27.94 81.2 31.25 81.22 34.57 C81.22 36.67 81.22 38.78 81.21 40.89 C81.22 41.88 81.22 42.87 81.23 43.89 C81.14 52.78 81.14 52.78 77.81 56.52 C74.68 57.22 74.68 57.22 71.12 57.33 C69.04 57.39 66.96 57.45 64.81 57.52 C67.78 60.49 70.75 63.46 73.81 66.52 C74.47 64.54 75.13 62.56 75.81 60.52 C77.3 61.01 77.3 61.01 78.81 61.52 C78.81 66.14 78.81 70.76 78.81 75.52 C74.19 75.52 69.57 75.52 64.81 75.52 C64.81 74.2 64.81 72.88 64.81 71.52 C66.46 71.19 68.11 70.86 69.81 70.52 C62.45 60.79 62.45 60.79 51.5 56.43 C46.58 56.1 41.73 56.22 36.81 56.52 C37.31 61.47 37.31 61.47 37.81 66.52 C38.47 65.86 39.13 65.2 39.81 64.52 C42.44 64.89 42.44 64.89 44.81 65.52 C43.21 69.68 40.37 72.9 36.81 75.52 C34.38 75.83 34.38 75.83 31.81 74.52 C29.32 72.32 27.04 69.98 24.81 67.52 C25.31 66.03 25.31 66.03 25.81 64.52 C30.69 65.39 30.69 65.39 31.81 66.52 C32.31 61.57 32.31 61.57 32.81 56.52 C19.95 55.45 19.95 55.45 8.59 60.48 C5.35 63.58 2.53 66.95 -0.19 70.52 C1.79 71.18 3.77 71.84 5.81 72.52 C5.48 73.51 5.15 74.5 4.81 75.52 C0.19 75.52 -4.43 75.52 -9.19 75.52 C-9.19 70.9 -9.19 66.28 -9.19 61.52 C-7.87 61.52 -6.55 61.52 -5.19 61.52 C-4.86 63.17 -4.53 64.82 -4.19 66.52 C-1.22 63.55 1.75 60.58 4.81 57.52 C2.73 57.44 0.65 57.35 -1.5 57.27 C-7.7 57.02 -7.7 57.02 -9.86 54.78 C-11.39 52.18 -11.57 50.71 -11.58 47.72 C-11.59 46.77 -11.59 45.83 -11.6 44.85 C-11.6 43.83 -11.59 42.82 -11.59 41.77 C-11.59 40.72 -11.59 39.67 -11.59 38.58 C-11.6 36.37 -11.59 34.15 -11.58 31.93 C-11.56 28.53 -11.58 25.13 -11.6 21.74 C-11.6 19.58 -11.59 17.42 -11.59 15.27 C-11.59 14.25 -11.6 13.23 -11.6 12.19 C-11.59 11.24 -11.59 10.29 -11.58 9.31 C-11.57 8.48 -11.57 7.65 -11.57 6.79 C-10.42 -0.09 -6.09 -0.06 0 0 Z M-7.19 4.52 C-7.21 12.25 -7.23 19.99 -7.25 27.96 C-7.26 30.4 -7.27 32.84 -7.28 35.36 C-7.28 37.29 -7.28 39.21 -7.29 41.14 C-7.29 42.15 -7.3 43.16 -7.3 44.2 C-7.3 45.15 -7.3 46.11 -7.3 47.09 C-7.3 47.92 -7.31 48.76 -7.31 49.61 C-7.4 51.53 -7.4 51.53 -6.19 52.52 C-3.64 52.62 -1.11 52.65 1.44 52.65 C2.24 52.65 3.03 52.65 3.86 52.65 C6.51 52.66 9.16 52.65 11.81 52.65 C13.65 52.65 15.48 52.65 17.32 52.65 C21.17 52.65 25.02 52.65 28.87 52.65 C33.81 52.64 38.76 52.65 43.71 52.65 C47.5 52.66 51.29 52.65 55.08 52.65 C56.9 52.65 58.73 52.65 60.55 52.65 C63.1 52.66 65.64 52.65 68.19 52.65 C69.33 52.65 69.33 52.65 70.5 52.65 C73.94 52.95 73.94 52.95 76.81 51.52 C76.91 50.04 76.93 48.57 76.93 47.09 C76.93 45.66 76.93 45.66 76.93 44.2 C76.92 43.19 76.92 42.18 76.91 41.14 C76.91 40.22 76.91 39.29 76.91 38.34 C76.9 34.88 76.89 31.42 76.88 27.96 C76.84 16.35 76.84 16.35 76.81 4.52 C49.09 4.52 21.37 4.52 -7.19 4.52 Z " fill="#020301" transform="translate(29.1875,1.482421875)"/>
<path d="M0 0 C2.69 2.17 3.47 3.45 4.25 6.81 C3.99 11.02 3.2 13.75 0.25 16.81 C-0.41 16.81 -1.07 16.81 -1.75 16.81 C-1.75 17.47 -1.75 18.13 -1.75 18.81 C-1.07 18.85 -0.39 18.89 0.31 18.94 C5.29 20.42 9.01 23.76 11.69 28.19 C12.5 31.97 12.62 34.92 12.25 38.81 C9.62 42.66 6.65 43.61 2.25 44.81 C-0.42 45.02 -2.96 45.15 -5.62 45.12 C-6.33 45.12 -7.04 45.12 -7.76 45.12 C-13.93 44.99 -19.23 44.33 -23.75 39.81 C-24.61 34.24 -23.95 29.51 -20.75 24.81 C-17.54 21.41 -14.52 19.23 -9.75 18.81 C-9.75 18.15 -9.75 17.49 -9.75 16.81 C-10.37 16.56 -10.99 16.32 -11.62 16.06 C-14.24 14.52 -14.88 13.72 -15.75 10.81 C-15.51 6.28 -15.02 3.08 -11.75 -0.19 C-7.43 -1.63 -4.22 -1.82 0 0 Z " fill="#050303" transform="translate(113.75,81.1875)"/>
<path d="M0 0 C3.16 1.36 4.61 2.35 6.38 5.31 C7.36 9.56 6.82 12.65 4.56 16.38 C4.05 16.91 3.53 17.45 3 18 C2.34 18 1.68 18 1 18 C1 18.66 1 19.32 1 20 C1.68 20.04 2.36 20.08 3.06 20.12 C8.02 21.6 11.72 24.94 14.44 29.31 C15.27 33.28 15.87 37 15 41 C8.58 46.84 1.14 46.34 -7.05 46.23 C-12.58 45.91 -16.97 45.03 -21 41 C-21.86 35.43 -21.2 30.7 -18 26 C-14.79 22.6 -11.77 20.42 -7 20 C-7 19.34 -7 18.68 -7 18 C-7.62 17.75 -8.24 17.5 -8.88 17.25 C-11.49 15.71 -12.13 14.91 -13 12 C-12.86 8 -12.62 5.76 -10.06 2.62 C-6.59 -0.11 -4.41 -0.35 0 0 Z " fill="#030304" transform="translate(67,80)"/>
<path d="M0 0 C2.62 2.62 2.62 2.62 4 6 C3.92 10.55 3.27 13.73 0 17 C-0.66 17 -1.32 17 -2 17 C-2 17.66 -2 18.32 -2 19 C-1.32 19.04 -0.64 19.08 0.06 19.12 C5.02 20.6 8.72 23.94 11.44 28.31 C12.27 32.28 12.87 36 12 40 C5.58 45.84 -1.86 45.34 -10.05 45.22 C-14.8 44.95 -17.84 44.25 -22 42 C-24.49 38.27 -24.52 35.32 -24 31 C-22.14 25.74 -19.47 23.13 -15 20 C-12.12 19.19 -12.12 19.19 -10 19 C-10 18.34 -10 17.68 -10 17 C-10.62 16.77 -11.24 16.55 -11.88 16.31 C-14.73 14.55 -15.19 13.23 -16 10 C-15.85 6.29 -15.46 4.55 -13.06 1.69 C-8.87 -1.74 -5.09 -1.45 0 0 Z " fill="#030404" transform="translate(26,81)"/>
<path d="M0 0 C4.84 2.04 7.59 4.7 10.11 9.29 C11.92 13.74 11.44 17.11 9.77 21.5 C7.15 25.65 4.69 28.8 -0.04 30.38 C-4.82 31.05 -9.18 31.44 -13.47 28.99 C-18.41 24.82 -20.63 21.5 -21.48 15.06 C-20.83 9.61 -18.61 5.56 -14.4 1.98 C-9.63 -1.07 -5.39 -1.65 0 0 Z " fill="#A6D663" transform="translate(69.04296875,14.625)"/>
<path d="M0 0 C19.8 0 39.6 0 60 0 C60.99 2.31 61.98 4.62 63 7 C64.65 7.33 66.3 7.66 68 8 C68 16.58 68 25.16 68 34 C66.02 34.66 64.04 35.32 62 36 C61.01 38.97 61.01 38.97 60 42 C40.2 42 20.4 42 0 42 C-1.48 38.53 -1.48 38.53 -3 35 C-4.65 34.67 -6.3 34.34 -8 34 C-8 25.42 -8 16.84 -8 8 C-6.02 7.34 -4.04 6.68 -2 6 C-1.34 4.02 -0.68 2.04 0 0 Z M3 3 C2.01 4.98 1.02 6.96 0 9 C-1.65 9.66 -3.3 10.32 -5 11 C-5 17.6 -5 24.2 -5 31 C-3.02 31.99 -1.04 32.98 1 34 C2.38 36.19 2.38 36.19 3 38 C10.64 38.13 18.27 38.21 25.91 38.27 C28.51 38.3 31.1 38.33 33.7 38.38 C37.43 38.44 41.16 38.47 44.89 38.49 C46.06 38.51 47.23 38.54 48.43 38.57 C49.51 38.57 50.59 38.57 51.7 38.57 C52.66 38.58 53.61 38.59 54.59 38.6 C57.24 38.24 57.24 38.24 58.52 35.59 C59.01 34.73 59.5 33.88 60 33 C61.65 32.34 63.3 31.68 65 31 C65 24.4 65 17.8 65 11 C63.02 10.01 61.04 9.02 59 8 C58.34 6.35 57.68 4.7 57 3 C39.18 3 21.36 3 3 3 Z " fill="#0B0E08" transform="translate(34,9)"/>
<path d="M0 0 C3.49 2.28 5.59 4.38 7.88 7.88 C8.19 11.75 8.19 11.75 7.88 14.88 C1.04 18.86 -5.41 18.53 -13.12 17.88 C-15.84 17.15 -17.69 16.3 -20.12 14.88 C-20.54 11.49 -20.76 8.91 -18.93 5.92 C-13.57 -0.49 -8.38 -3.02 0 0 Z " fill="#63CFEB" transform="translate(26.125,104.125)"/>
<path d="M0 0 C3.49 2.28 5.59 4.38 7.88 7.88 C8.19 11.75 8.19 11.75 7.88 14.88 C1.04 18.86 -5.41 18.53 -13.12 17.88 C-15.84 17.15 -17.69 16.3 -20.12 14.88 C-20.54 11.49 -20.76 8.91 -18.93 5.92 C-13.57 -0.49 -8.38 -3.02 0 0 Z " fill="#AFA0E9" transform="translate(70.125,104.125)"/>
<path d="M0 0 C3.68 2.37 6.3 4.49 7.28 8.91 C7.53 10.87 7.68 12.84 7.81 14.81 C0.98 18.79 -5.47 18.47 -13.19 17.81 C-15.9 17.08 -17.75 16.24 -20.19 14.81 C-20.6 11.43 -20.82 8.84 -18.99 5.86 C-13.62 -0.57 -8.38 -3.12 0 0 Z " fill="#F2697F" transform="translate(114.1875,104.1875)"/>
<path d="M0 0 C4.84 2.04 7.59 4.7 10.11 9.29 C11.92 13.74 11.44 17.11 9.77 21.5 C7.15 25.65 4.69 28.8 -0.04 30.38 C-4.82 31.05 -9.18 31.44 -13.47 28.99 C-18.41 24.82 -20.63 21.5 -21.48 15.06 C-20.83 9.61 -18.61 5.56 -14.4 1.98 C-9.63 -1.07 -5.39 -1.65 0 0 Z M-15.04 7.38 C-17.63 10.79 -17.4 14.21 -17.04 18.38 C-15.76 21.89 -14.67 23.85 -11.79 26.25 C-7.13 28.16 -3.51 27.88 1.21 26.25 C4.61 23.93 5.61 22.25 6.96 18.38 C7.5 14.07 7.25 11.94 5.27 8.06 C1.9 4.14 -0.42 3.55 -5.48 3 C-9.76 3.45 -11.77 4.63 -15.04 7.38 Z " fill="#10140B" transform="translate(69.04296875,14.625)"/>
<path d="M0 0 C-0.31 0.72 -0.62 1.44 -0.94 2.19 C-1.93 4.8 -2.53 7.25 -3 10 C-1.76 10.68 -1.76 10.68 -0.5 11.38 C0.33 11.91 1.15 12.45 2 13 C2 13.66 2 14.32 2 15 C0.35 14.67 -1.3 14.34 -3 14 C-2.51 14.78 -2.01 15.57 -1.5 16.38 C0 19 0 19 0 21 C0.66 21 1.32 21 2 21 C2 21.66 2 22.32 2 23 C-2.31 22.75 -4.5 22.42 -7.88 19.62 C-11.21 15.5 -11.44 12.2 -11 7 C-9.3 3.79 -7.92 1.64 -4.94 -0.44 C-3 -1 -3 -1 0 0 Z " fill="#A6D663" transform="translate(63,19)"/>
<path d="M0 0 C1.32 0 2.64 0 4 0 C4.66 1.65 5.32 3.3 6 5 C4.35 5 2.7 5 1 5 C1 5.66 1 6.32 1 7 C1.62 7.12 2.24 7.25 2.88 7.38 C5 8 5 8 7 10 C6.65 13.44 5.95 15.07 4 18 C1.13 17.43 0.14 17.14 -2 15 C-2 14.01 -2 13.02 -2 12 C-0.35 12.33 1.3 12.66 3 13 C3 12.34 3 11.68 3 11 C2.38 10.88 1.76 10.75 1.12 10.62 C-1 10 -1 10 -3 8 C-2.65 4.56 -1.95 2.93 0 0 Z " fill="#0C0F07" transform="translate(62,21)"/>
<path d="M0 0 C3.5 0.19 3.5 0.19 7 1 C9 4 9 4 8.75 6.56 C8 9 8 9 6 11 C2.87 11.33 0.82 11.48 -1.94 9.88 C-3 8 -3 8 -2.81 4.94 C-2 2 -2 2 0 0 Z " fill="#DEB998" transform="translate(61,84)"/>
<path d="M0 0 C6.58 0.58 6.58 0.58 8 2 C8.19 5.44 8.19 5.44 8 9 C6 11 6 11 3.06 11.31 C0 11 0 11 -1.94 9.88 C-3 8 -3 8 -2.81 4.94 C-2 2 -2 2 0 0 Z " fill="#E3BD9B" transform="translate(105,84)"/>
<path d="M0 0 C3.5 0.19 3.5 0.19 7 1 C9 4 9 4 8.75 6.56 C8 9 8 9 6 11 C3 11.25 3 11.25 0 11 C-2 9 -2 9 -2.25 5.5 C-2 2 -2 2 0 0 Z " fill="#E2BD9B" transform="translate(17,84)"/>
</svg>
