<svg width="32" height="24" viewBox="0 0 32 24" fill="none" xmlns="http://www.w3.org/2000/svg">
<g clip-path="url(#clip0_4_26568)">
<rect width="32" height="24" fill="white"/>
<path fill-rule="evenodd" clip-rule="evenodd" d="M0 0V24H32V0H0Z" fill="#FFB400"/>
<mask id="mask0_4_26568" style="mask-type:luminance" maskUnits="userSpaceOnUse" x="0" y="0" width="32" height="24">
<path fill-rule="evenodd" clip-rule="evenodd" d="M0 0V24H32V0H0Z" fill="white"/>
</mask>
<g mask="url(#mask0_4_26568)">
<path fill-rule="evenodd" clip-rule="evenodd" d="M0 0V6H32V0H0Z" fill="#C51918"/>
<path fill-rule="evenodd" clip-rule="evenodd" d="M0 18V24H32V18H0Z" fill="#C51918"/>
<rect x="5.008" y="10.272" width="1.12" height="5.824" fill="#F1F9FF"/>
<path fill-rule="evenodd" clip-rule="evenodd" d="M6.576 9.26416H4.56V9.82416H4.896V10.2722H6.24V9.82416H6.576V9.26416Z" fill="#C88A02"/>
<path fill-rule="evenodd" clip-rule="evenodd" d="M6.24 16.4321H6.576V16.9921H4.56V16.4321H4.896V15.9841H6.24V16.4321Z" fill="#C88A02"/>
<path fill-rule="evenodd" clip-rule="evenodd" d="M5.568 9.37604C5.81173 9.37604 5.8365 9.28427 5.9803 9.14719C6.09195 9.04075 6.352 8.90875 6.352 8.76004C6.352 8.41984 6.00099 8.14404 5.568 8.14404C5.13501 8.14404 4.784 8.41984 4.784 8.76004C4.784 8.92571 4.96308 9.03648 5.09848 9.14719C5.24114 9.26383 5.34585 9.37604 5.568 9.37604Z" fill="#AD1619"/>
<path fill-rule="evenodd" clip-rule="evenodd" d="M4.56 16.9919H6.576V17.8879C6.576 17.8879 6.324 17.7759 6.072 17.7759C5.82 17.7759 5.568 17.8879 5.568 17.8879C5.568 17.8879 5.316 17.7759 5.064 17.7759C4.812 17.7759 4.56 17.8879 4.56 17.8879V16.9919Z" fill="#005BBF"/>
<mask id="mask1_4_26568" style="mask-type:luminance" maskUnits="userSpaceOnUse" x="4" y="16" width="3" height="2">
<path fill-rule="evenodd" clip-rule="evenodd" d="M4.56 16.9919H6.576V17.8879C6.576 17.8879 6.324 17.7759 6.072 17.7759C5.82 17.7759 5.568 17.8879 5.568 17.8879C5.568 17.8879 5.316 17.7759 5.064 17.7759C4.812 17.7759 4.56 17.8879 4.56 17.8879V16.9919Z" fill="white"/>
</mask>
<g mask="url(#mask1_4_26568)">
<path d="M4.54177 17.7118L4.49776 17.6045C4.67934 17.5237 4.86157 17.4832 5.04407 17.4832C5.16198 17.4832 5.22355 17.4996 5.32822 17.5462C5.42016 17.5871 5.46782 17.5998 5.56837 17.5998C5.66892 17.5998 5.71658 17.5871 5.80852 17.5462C5.91319 17.4996 5.97477 17.4832 6.09267 17.4832C6.27517 17.4832 6.4574 17.5237 6.63898 17.6045L6.59498 17.7118C6.42702 17.6371 6.25971 17.5998 6.09267 17.5998C5.99212 17.5998 5.94447 17.6125 5.85252 17.6535C5.74785 17.7 5.68628 17.7165 5.56837 17.7165C5.45046 17.7165 5.38889 17.7 5.28422 17.6535C5.19228 17.6125 5.14462 17.5998 5.04407 17.5998C4.87703 17.5998 4.70972 17.6371 4.54177 17.7118Z" fill="white"/>
<path d="M4.54177 17.3759L4.49776 17.2686C4.67934 17.1878 4.86157 17.1472 5.04407 17.1472C5.16198 17.1472 5.22355 17.1637 5.32822 17.2102C5.42016 17.2512 5.46782 17.2639 5.56837 17.2639C5.66892 17.2639 5.71658 17.2512 5.80852 17.2102C5.91319 17.1637 5.97477 17.1472 6.09267 17.1472C6.27517 17.1472 6.4574 17.1878 6.63898 17.2686L6.59498 17.3759C6.42702 17.3011 6.25971 17.2639 6.09267 17.2639C5.99212 17.2639 5.94447 17.2766 5.85252 17.3175C5.74785 17.3641 5.68628 17.3806 5.56837 17.3806C5.45046 17.3806 5.38889 17.3641 5.28422 17.3175C5.19228 17.2766 5.14462 17.2639 5.04407 17.2639C4.87703 17.2639 4.70972 17.3011 4.54177 17.3759Z" fill="white"/>
</g>
<rect x="15.984" y="10.272" width="1.12" height="5.824" fill="#F1F9FF"/>
<path fill-rule="evenodd" clip-rule="evenodd" d="M17.552 9.26416H15.536V9.82416H15.872V10.2722H17.216V9.82416H17.552V9.26416Z" fill="#C88A02"/>
<path fill-rule="evenodd" clip-rule="evenodd" d="M17.216 16.4321H17.552V16.9921H15.536V16.4321H15.872V15.9841H17.216V16.4321Z" fill="#C88A02"/>
<path fill-rule="evenodd" clip-rule="evenodd" d="M16.544 9.37604C16.7877 9.37604 16.8125 9.28427 16.9563 9.14719C17.068 9.04075 17.328 8.90875 17.328 8.76004C17.328 8.41984 16.977 8.14404 16.544 8.14404C16.111 8.14404 15.76 8.41984 15.76 8.76004C15.76 8.92571 15.9391 9.03648 16.0745 9.14719C16.2171 9.26383 16.3219 9.37604 16.544 9.37604Z" fill="#AD1619"/>
<path fill-rule="evenodd" clip-rule="evenodd" d="M15.536 16.9919H17.552V17.8879C17.552 17.8879 17.3 17.7759 17.048 17.7759C16.796 17.7759 16.544 17.8879 16.544 17.8879C16.544 17.8879 16.292 17.7759 16.04 17.7759C15.788 17.7759 15.536 17.8879 15.536 17.8879V16.9919Z" fill="#005BBF"/>
<mask id="mask2_4_26568" style="mask-type:luminance" maskUnits="userSpaceOnUse" x="15" y="16" width="3" height="2">
<path fill-rule="evenodd" clip-rule="evenodd" d="M15.536 16.9919H17.552V17.8879C17.552 17.8879 17.3 17.7759 17.048 17.7759C16.796 17.7759 16.544 17.8879 16.544 17.8879C16.544 17.8879 16.292 17.7759 16.04 17.7759C15.788 17.7759 15.536 17.8879 15.536 17.8879V16.9919Z" fill="white"/>
</mask>
<g mask="url(#mask2_4_26568)">
<path d="M15.5178 17.7118L15.4738 17.6045C15.6553 17.5237 15.8376 17.4832 16.0201 17.4832C16.138 17.4832 16.1995 17.4996 16.3042 17.5462C16.3962 17.5871 16.4438 17.5998 16.5444 17.5998C16.6449 17.5998 16.6926 17.5871 16.7845 17.5462C16.8892 17.4996 16.9508 17.4832 17.0687 17.4832C17.2512 17.4832 17.4334 17.5237 17.615 17.6045L17.571 17.7118C17.403 17.6371 17.2357 17.5998 17.0687 17.5998C16.9681 17.5998 16.9205 17.6125 16.8285 17.6535C16.7238 17.7 16.6623 17.7165 16.5444 17.7165C16.4265 17.7165 16.3649 17.7 16.2602 17.6535C16.1683 17.6125 16.1206 17.5998 16.0201 17.5998C15.853 17.5998 15.6857 17.6371 15.5178 17.7118Z" fill="white"/>
<path d="M15.5178 17.3759L15.4738 17.2686C15.6553 17.1878 15.8376 17.1472 16.0201 17.1472C16.138 17.1472 16.1995 17.1637 16.3042 17.2102C16.3962 17.2512 16.4438 17.2639 16.5444 17.2639C16.6449 17.2639 16.6926 17.2512 16.7845 17.2102C16.8892 17.1637 16.9508 17.1472 17.0687 17.1472C17.2512 17.1472 17.4334 17.1878 17.615 17.2686L17.571 17.3759C17.403 17.3011 17.2357 17.2639 17.0687 17.2639C16.9681 17.2639 16.9205 17.2766 16.8285 17.3175C16.7238 17.3641 16.6623 17.3806 16.5444 17.3806C16.4265 17.3806 16.3649 17.3641 16.2602 17.3175C16.1683 17.2766 16.1206 17.2639 16.0201 17.2639C15.853 17.2639 15.6857 17.3011 15.5178 17.3759Z" fill="white"/>
</g>
<path fill-rule="evenodd" clip-rule="evenodd" d="M4.98796 15.6799C5.18988 15.4351 5.3028 15.2124 5.3028 14.9758C5.3028 14.8267 5.25842 14.6979 5.18066 14.5926L5.19379 14.5867C5.19259 14.5873 5.41531 14.4902 5.49286 14.453C5.63701 14.3839 5.76401 14.3107 5.88783 14.2206C5.96688 14.1631 6.0728 14.1005 6.23426 14.0138C6.26217 13.9988 6.33778 13.9587 6.38602 13.9331L6.42696 13.9114C6.50543 13.8695 6.56387 13.8374 6.61816 13.8059C6.78733 13.7078 6.89912 13.6267 6.98462 13.5182C7.18714 13.2614 7.14509 12.9133 6.8613 12.7201C6.72226 12.6254 6.53464 12.5711 6.25961 12.5284L6.20273 12.5196C6.10878 12.505 5.92825 12.4771 5.86625 12.4674C5.73464 12.4467 5.61721 12.4274 5.5125 12.4091C6.20106 12.2946 7.1843 12.3367 7.6168 12.56L8.02786 11.7638C7.14651 11.3088 5.13838 11.3553 4.38825 11.8718C3.83805 12.2508 3.91188 12.8235 4.48433 13.0702C4.72354 13.1732 5.03537 13.2416 5.61242 13.3343C5.51571 13.3904 5.43554 13.4417 5.36084 13.496C5.28508 13.5511 5.20392 13.5979 5.10547 13.6451C5.05839 13.6676 4.919 13.7288 4.85508 13.7569L4.85504 13.7569L4.85503 13.7569L4.82292 13.7711C4.35663 13.9831 4.13033 14.2764 4.19796 14.8059L4.23456 15.0925L4.30022 15.1126L4.98796 15.6799ZM4.41157 14.9392L4.41015 14.9433L4.41124 14.9404L4.41157 14.9392ZM16.7059 14.9758C16.7059 15.2124 16.8189 15.4351 17.0208 15.6799L17.7085 15.1126L17.7742 15.0925L17.8108 14.8059C17.8784 14.2764 17.6521 13.9831 17.1858 13.7711L17.1537 13.7569C17.0898 13.7289 16.9504 13.6676 16.9033 13.6451C16.8048 13.5979 16.7237 13.5511 16.6479 13.496C16.5732 13.4417 16.493 13.3904 16.3963 13.3343C16.9734 13.2416 17.2852 13.1732 17.5244 13.0702C18.0969 12.8235 18.1707 12.2508 17.6205 11.8718C16.8704 11.3553 14.8622 11.3088 13.9809 11.7638L14.392 12.56C14.8244 12.3367 15.8077 12.2946 16.4963 12.4091C16.3915 12.4274 16.2741 12.4467 16.1425 12.4674C16.0805 12.4771 15.9001 12.505 15.8061 12.5195L15.8058 12.5196L15.7491 12.5284C15.4741 12.5711 15.2865 12.6254 15.1474 12.7201C14.8637 12.9133 14.8216 13.2614 15.0241 13.5182C15.1096 13.6267 15.2214 13.7078 15.3906 13.8059C15.4449 13.8374 15.5033 13.8695 15.5818 13.9114L15.6226 13.933C15.6708 13.9586 15.7465 13.9988 15.7745 14.0138C15.9359 14.1005 16.0419 14.1631 16.1209 14.2206C16.2447 14.3107 16.3717 14.3839 16.5159 14.453C16.5934 14.4902 16.8162 14.5873 16.815 14.5867L16.8281 14.5926C16.7503 14.6979 16.7059 14.8267 16.7059 14.9758Z" fill="#AD1619"/>
<path d="M5.92335 12.4001L6.25394 12.4685V12.9613C5.90184 13.2422 5.008 13.7157 5.008 13.7157V12.4001H5.92335Z" fill="#F1F9FF"/>
<path d="M16.3146 12.4001L15.984 12.4685V12.9613C16.3361 13.2422 17.2299 13.7157 17.2299 13.7157V12.4001H16.3146Z" fill="#F1F9FF"/>
<path fill-rule="evenodd" clip-rule="evenodd" d="M14.776 7.20603V7.04204C14.1999 6.6286 13.5966 6.42187 12.9662 6.42187C12.3617 6.1544 11.75 6.05057 11.1308 6.1104C11.131 6.10849 11.131 6.10751 11.131 6.10751C10.2001 6.01642 9.26183 6.42187 9.26183 6.42187C8.31612 6.42187 7.452 7.04204 7.452 7.04204V7.20603L8.58163 8.34055C8.58163 8.34055 8.8996 9.43255 11.1264 9.1759V9.17867C11.1264 9.17867 12.6008 9.13843 12.7044 9.10397C12.7455 9.0903 12.7881 9.07786 12.8317 9.06514C13.1205 8.98083 13.4501 8.88458 13.6464 8.34055L14.776 7.20603ZM11.1264 6.16057C11.0943 6.53828 10.9107 8.81521 11.1264 9.16822V6.16057Z" fill="#AD1619"/>
<path fill-rule="evenodd" clip-rule="evenodd" d="M8.31369 8.14963L8.31444 8.14618L7.51973 7.39849L7.59648 7.31692L8.3422 8.01852L8.36128 7.93074C8.48328 7.95727 8.57245 7.96702 8.62443 7.9615V7.8093L8.78974 7.89876C8.87104 7.94276 8.98749 7.9546 9.14085 7.92964C9.25349 7.91131 9.3295 7.78049 9.35435 7.50173L9.40453 6.93896L9.57283 7.47831C9.64898 7.72237 9.76517 7.82996 9.93057 7.82996C10.0921 7.82996 10.157 7.77073 10.1642 7.62145L10.1845 7.19807L10.376 7.57623C10.445 7.71247 10.5401 7.77428 10.6754 7.77428C10.8688 7.77428 10.998 7.613 10.998 7.35996H11.0017H11.222H11.2257C11.2257 7.613 11.3549 7.77428 11.5484 7.77428C11.6836 7.77428 11.7787 7.71247 11.8477 7.57623L12.0392 7.19807L12.0595 7.62145C12.0667 7.77073 12.1316 7.82996 12.2932 7.82996C12.4586 7.82996 12.5747 7.72237 12.6509 7.47831L12.8192 6.93896L12.8694 7.50173C12.8942 7.78049 12.9702 7.91131 13.0829 7.92964C13.2362 7.9546 13.3527 7.94276 13.434 7.89876L13.5993 7.8093V7.9615C13.6513 7.96702 13.7404 7.95727 13.8624 7.93074L13.8979 8.09361L14.7234 7.31692L14.8001 7.39849L13.7728 8.36501C13.623 8.64103 13.5475 8.82322 13.5475 8.8989C13.5475 9.01436 13.2471 9.08289 12.6608 9.15328C12.2015 9.20843 11.6595 9.24544 11.2161 9.25097V9.25169L11.1599 9.25151L11.1037 9.25169V9.25097C10.6604 9.24544 10.1183 9.20843 9.65904 9.15328C9.07278 9.08289 8.77239 9.01436 8.77239 8.8989C8.77239 8.88459 8.76969 8.86646 8.76429 8.8446C8.70518 8.76932 8.66361 8.64616 8.63596 8.53506C8.61 8.48311 8.58036 8.42638 8.54703 8.36501L8.31943 8.15087L8.31369 8.14963ZM13.8191 8.16766C13.6357 8.20013 13.5033 8.19685 13.433 8.13963C13.3231 8.17162 13.1941 8.17469 13.0469 8.15073C12.8897 8.12515 12.7802 8.02056 12.7143 7.84706C12.6283 7.95665 12.5195 8.0243 12.3892 8.04617C13.1059 8.14781 13.608 8.29069 13.608 8.29069C13.608 8.29069 13.5956 8.39684 13.5655 8.52163C13.5974 8.4563 13.6351 8.38371 13.6787 8.30359L13.6896 8.28958L13.8191 8.16766ZM12.051 8.00359C11.9887 7.97262 11.9389 7.92772 11.9029 7.86983C11.8495 7.91703 11.7887 7.95154 11.7212 7.97283C11.8339 7.98145 11.9441 7.99187 12.051 8.00359ZM11.3258 7.95104C11.2386 7.91073 11.166 7.84616 11.1119 7.76343C11.0581 7.84558 10.9862 7.90981 10.8998 7.95018C10.951 7.94866 11.0024 7.94758 11.0542 7.947V7.9465L11.0991 7.94662L11.144 7.9465V7.947C11.205 7.94769 11.2656 7.94906 11.3258 7.95104ZM8.62217 8.28192L8.51774 8.18367C8.64309 8.1961 8.73587 8.18431 8.79074 8.13963C8.90067 8.17162 9.02961 8.17469 9.17683 8.15073C9.33406 8.12515 9.44356 8.02056 9.50945 7.84706C9.59298 7.95347 9.69794 8.02034 9.82324 8.04415C9.20529 8.13097 8.74425 8.2491 8.62217 8.28192ZM10.4977 7.97127C10.3892 7.97934 10.2829 7.98908 10.1796 8.00009C10.2387 7.96927 10.2862 7.92557 10.3208 7.86983C10.373 7.91589 10.4321 7.94987 10.4977 7.97127ZM13.253 8.9011C13.3315 8.93782 13.3944 8.90119 13.4441 8.83087C13.4398 8.85029 13.4371 8.86785 13.436 8.88357C13.4295 8.88788 13.4194 8.89305 13.4062 8.89861C13.3693 8.91412 13.3129 8.93064 13.2396 8.94736C13.0956 8.98023 12.8905 9.0129 12.6475 9.04208C12.1729 9.09907 11.6086 9.13656 11.1599 9.13951C10.7113 9.13656 10.147 9.09907 9.67239 9.04208C9.42936 9.0129 9.22429 8.98023 9.08023 8.94736C9.01879 8.93335 8.96926 8.91947 8.93312 8.90621C8.9371 8.9047 8.94112 8.903 8.94518 8.9011C9.18984 8.78661 10.8077 8.67918 11.0991 8.66064C11.3904 8.67918 13.0083 8.78661 13.253 8.9011ZM13.5609 8.8812L13.5601 8.88224L13.5609 8.88112L13.5615 8.88058L13.5609 8.8812Z" fill="#C88A02"/>
<path fill-rule="evenodd" clip-rule="evenodd" d="M11.1122 5.34705C11.2978 5.34705 11.4482 5.19662 11.4482 5.01105C11.4482 4.82548 11.2978 4.67505 11.1122 4.67505C10.9267 4.67505 10.7762 4.82548 10.7762 5.01105C10.7762 5.19662 10.9267 5.34705 11.1122 5.34705Z" fill="#005BBF"/>
<path fill-rule="evenodd" clip-rule="evenodd" d="M10.8937 6.99679C10.9008 7.03367 10.912 7.068 10.9262 7.09859C10.8828 7.08202 10.8313 7.07241 10.776 7.07241C10.6214 7.07241 10.496 7.14763 10.496 7.24041C10.496 7.3332 10.6214 7.40841 10.776 7.40841C10.9306 7.40841 11.056 7.3332 11.056 7.24041C11.056 7.3332 11.1814 7.40841 11.336 7.40841C11.4906 7.40841 11.616 7.3332 11.616 7.24041C11.616 7.14763 11.4906 7.07241 11.336 7.07241C11.2971 7.07241 11.26 7.07718 11.2263 7.08579C11.2344 7.03986 11.2341 6.9872 11.2235 6.93268C11.194 6.78088 11.0962 6.67217 11.0051 6.68988C10.9141 6.70758 10.8641 6.84499 10.8937 6.99679ZM11.056 7.24041L11.0559 7.23529L11.0561 7.23537L11.056 7.24041ZM9.24617 7.21059C9.23202 7.18 9.22082 7.14567 9.21366 7.10879C9.18415 6.95699 9.23406 6.81958 9.32514 6.80188C9.41622 6.78417 9.51398 6.89288 9.54348 7.04468C9.55408 7.0992 9.55443 7.15186 9.54631 7.19779C9.58 7.18918 9.61707 7.18441 9.656 7.18441C9.81063 7.18441 9.936 7.25963 9.936 7.35241C9.936 7.4452 9.81063 7.52041 9.656 7.52041C9.50136 7.52041 9.376 7.4452 9.376 7.35241L9.37612 7.34737L9.37587 7.34729L9.376 7.35241C9.376 7.4452 9.25063 7.52041 9.096 7.52041C8.94136 7.52041 8.816 7.4452 8.816 7.35241C8.816 7.25963 8.94136 7.18441 9.096 7.18441C9.15125 7.18441 9.20277 7.19402 9.24617 7.21059ZM12.7539 7.31297C12.741 7.40485 12.6064 7.46189 12.4533 7.44037C12.3001 7.41885 12.1865 7.32692 12.1994 7.23504C12.2123 7.14316 12.3469 7.08612 12.5 7.10764C12.5548 7.11533 12.6044 7.13201 12.6451 7.15447C12.6353 7.1222 12.629 7.08664 12.6271 7.04913C12.619 6.8947 12.6875 6.76557 12.7802 6.76072C12.8728 6.75586 12.9545 6.87711 12.9626 7.03154C12.9655 7.08701 12.9585 7.13921 12.9441 7.18356C12.9787 7.17972 13.016 7.18016 13.0546 7.18558C13.2077 7.2071 13.3214 7.29903 13.3085 7.39091C13.2956 7.48279 13.161 7.53983 13.0078 7.51831C12.8547 7.49678 12.741 7.40485 12.7539 7.31297ZM12.7539 7.31297L12.7545 7.30788L12.7548 7.308L12.7539 7.31297ZM13.8203 7.75723C13.9569 7.82983 14.1029 7.82227 14.1464 7.74034L14.1487 7.73576C14.1622 7.74999 14.1781 7.76036 14.1963 7.76591C14.285 7.79304 14.3936 7.69514 14.4388 7.54726C14.484 7.39938 14.4487 7.2575 14.36 7.23038C14.2713 7.20325 14.1627 7.30114 14.1175 7.44902C14.1065 7.48495 14.1003 7.52052 14.0984 7.55418C14.0679 7.51917 14.0269 7.4865 13.9781 7.46056C13.8415 7.38796 13.6955 7.39552 13.652 7.47744C13.6084 7.55936 13.6838 7.68463 13.8203 7.75723ZM8.32481 7.79154C8.18827 7.86414 8.04228 7.85658 7.99872 7.77465C7.99791 7.77314 7.99715 7.77161 7.99642 7.77007C7.98297 7.7843 7.96705 7.79466 7.94888 7.80022C7.86016 7.82734 7.75157 7.72945 7.70636 7.58157C7.66115 7.43369 7.69643 7.29181 7.78516 7.26469C7.87389 7.23756 7.98247 7.33545 8.02768 7.48333C8.03866 7.51926 8.0449 7.55483 8.04677 7.58849C8.0773 7.55347 8.11828 7.52081 8.16707 7.49487C8.30361 7.42227 8.44961 7.42983 8.49317 7.51175C8.53673 7.59367 8.46135 7.71894 8.32481 7.79154Z" fill="#C88A02"/>
<path fill-rule="evenodd" clip-rule="evenodd" d="M10.9868 4.07666H11.2202V4.22406H11.3726V4.4574H11.2202V4.92406H11.3726V5.1574H10.832V4.92406H10.9868V4.4574H10.832V4.22406H10.9868V4.07666Z" fill="#C88A02"/>
<rect x="10.944" y="5.34399" width="0.448" height="1.456" fill="#C88A02"/>
<path d="M9.14058 5.58785L9.13863 5.69984C8.14552 5.6825 7.57587 5.82742 7.43127 6.11627C7.28177 6.4149 7.30957 6.77792 7.51905 7.20915L7.4183 7.25809C7.1948 6.79799 7.16428 6.3994 7.33112 6.06614C7.50285 5.7231 8.10547 5.56978 9.14058 5.58785Z" fill="white"/>
<path d="M9.33273 6.58095L9.27531 6.67711C9.05904 6.54798 8.9508 6.3276 8.9508 6.0239C8.9508 5.58742 9.17564 5.33147 9.673 5.15631C9.99042 5.04452 10.424 5.09035 10.975 5.29013L10.9369 5.39542C10.4079 5.20364 9.99861 5.16038 9.7102 5.26195C9.25401 5.42261 9.0628 5.64028 9.0628 6.0239C9.0628 6.29041 9.1527 6.47346 9.33273 6.58095Z" fill="white"/>
<path d="M7.66015 7.03733L7.44881 7.11156C7.22953 6.48721 7.29215 6.0632 7.66684 5.88029C7.99701 5.71912 8.47819 5.65353 9.11279 5.67925L9.10372 5.90306C8.50288 5.87872 8.05588 5.93965 7.7651 6.08159C7.51886 6.20179 7.47381 6.50678 7.66015 7.03733Z" fill="#C88A02"/>
<path d="M10.1293 5.4386C9.61714 5.4386 9.40683 5.56333 9.28668 5.93162C9.21011 6.16632 9.28437 6.36664 9.52516 6.55362L9.38777 6.73054C9.07603 6.48846 8.96612 6.19198 9.07373 5.86215C9.22685 5.3928 9.52731 5.2146 10.1293 5.2146C10.5238 5.2146 10.8312 5.31826 11.0452 5.52922L11.0786 5.56212V6.64208H10.8546V5.65786C10.6874 5.51268 10.4474 5.4386 10.1293 5.4386Z" fill="#C88A02"/>
<path d="M13.049 5.69991L13.051 5.8119C14.0441 5.79456 14.6137 5.93948 14.7583 6.22833C14.9078 6.52696 14.88 6.88998 14.6705 7.32121L14.7713 7.37015C14.9948 6.91005 15.0253 6.51146 14.8585 6.1782C14.6867 5.83516 14.0841 5.68184 13.049 5.69991Z" fill="white"/>
<path d="M12.6983 6.60414L12.7557 6.7003C12.972 6.57117 13.0802 6.3508 13.0802 6.04709C13.0802 5.61061 12.8554 5.35466 12.358 5.1795C12.0406 5.06771 11.607 5.11355 11.056 5.31332L11.0942 5.41862C11.6231 5.22683 12.0324 5.18357 12.3208 5.28514C12.777 5.4458 12.9682 5.66347 12.9682 6.04709C12.9682 6.31361 12.8783 6.49665 12.6983 6.60414Z" fill="white"/>
<path d="M14.5992 7.14939L14.8106 7.22362C15.0299 6.59927 14.9672 6.17526 14.5925 5.99235C14.2624 5.83118 13.7812 5.76559 13.1466 5.79131L13.1557 6.01513C13.7565 5.99078 14.2035 6.05171 14.4943 6.19365C14.7405 6.31385 14.7856 6.61884 14.5992 7.14939Z" fill="#C88A02"/>
<path d="M12.1173 5.45593C12.6294 5.45593 12.8397 5.58067 12.9599 5.94895C13.0365 6.18366 12.9622 6.38397 12.7214 6.57096L12.8588 6.74788C13.1705 6.5058 13.2805 6.20931 13.1728 5.87948C13.0197 5.41013 12.7193 5.23193 12.1173 5.23193C11.7227 5.23193 11.4154 5.33559 11.2014 5.54655L11.168 5.57945V6.65942H11.392V5.67519C11.5591 5.53002 11.7992 5.45593 12.1173 5.45593Z" fill="#C88A02"/>
<path opacity="0.3" fill-rule="evenodd" clip-rule="evenodd" d="M7.472 9.26416H14.752V15.805C14.752 15.805 14.2112 18.0002 11.112 18.0002C8.01278 18.0002 7.472 15.7471 7.472 15.7471V9.26416Z" fill="#E1E5E8"/>
<mask id="mask3_4_26568" style="mask-type:luminance" maskUnits="userSpaceOnUse" x="7" y="9" width="8" height="10">
<path fill-rule="evenodd" clip-rule="evenodd" d="M7.472 9.26416H14.752V15.805C14.752 15.805 14.2112 18.0002 11.112 18.0002C8.01278 18.0002 7.472 15.7471 7.472 15.7471V9.26416Z" fill="white"/>
</mask>
<g mask="url(#mask3_4_26568)">
<rect x="7.472" y="13.2961" width="3.696" height="4.368" fill="#FFC034"/>
<rect x="7.92" y="13.5203" width="0.448" height="4.144" fill="#AD1619"/>
<rect x="9.488" y="13.5203" width="0.448" height="4.144" fill="#AD1619"/>
<rect x="8.704" y="13.5203" width="0.448" height="4.144" fill="#AD1619"/>
<rect x="10.272" y="13.5203" width="0.448" height="4.144" fill="#AD1619"/>
<rect x="7.472" y="9.1521" width="3.696" height="4.256" fill="#AD1619"/>
<rect x="11.056" y="13.1841" width="3.696" height="4.256" fill="#AD1619"/>
<rect x="11.056" y="9.26416" width="3.92" height="4.144" fill="#F1F9FF"/>
<path fill-rule="evenodd" clip-rule="evenodd" d="M9.04 9.6001H9.376V10.5293H9.6V10.0647H9.936V10.5293H10.272V11.11H9.936V12.1554H10.272V12.7361H8.256V12.1554H8.592V11.11H8.256V10.5293H8.48V10.0647H8.816V10.5293H9.04V9.6001Z" fill="#C88A02"/>
<path d="M12.9788 9.7951L13.2082 9.54956L13.6897 9.99939L13.4604 10.2449L12.9788 9.7951Z" fill="#C88A02"/>
<path fill-rule="evenodd" clip-rule="evenodd" d="M14.36 16.1403V13.6882H11.56V16.1198L11.5644 16.1387C11.7062 16.7427 12.1889 17.0482 12.96 17.0482C13.7304 17.0482 14.213 16.7506 14.3553 16.1597L14.36 16.1403ZM12.96 16.7122C12.3413 16.7122 12.0034 16.5038 11.896 16.0802V14.0242H14.024V16.0996C13.9169 16.5095 13.5789 16.7122 12.96 16.7122Z" fill="#FFC034"/>
<path fill-rule="evenodd" clip-rule="evenodd" d="M13.0756 13.8931H12.8423V15.0047L11.9224 14.0043L11.7576 14.1559L12.5894 15.0607H11.8357V15.3967H12.4147H12.6077L11.7576 16.3213L11.9224 16.4729L12.8423 15.4725V16.772H13.0756V15.5895L13.8879 16.4729L14.0528 16.3213L13.2026 15.3967H14.1516V15.0607H13.221L14.0528 14.1559L13.8879 14.0043L13.0756 14.8878V13.8931Z" fill="#FFC034"/>
<path fill-rule="evenodd" clip-rule="evenodd" d="M13.4827 17.4428C13.4827 17.4428 11.1105 17.6293 11.1105 16.0994C11.1105 16.0994 11.0879 17.4428 8.6109 17.4428V18.6506H13.4827V17.4428Z" fill="#F1F9FF"/>
<path fill-rule="evenodd" clip-rule="evenodd" d="M11.112 14.1921C11.5759 14.1921 11.952 13.791 11.952 13.2961C11.952 12.8013 11.5759 12.4001 11.112 12.4001C10.6481 12.4001 10.272 12.8013 10.272 13.2961C10.272 13.791 10.6481 14.1921 11.112 14.1921Z" fill="#005BBF" stroke="#AD1619" stroke-width="1.16667"/>
</g>
</g>
</g>
<defs>
<clipPath id="clip0_4_26568">
<rect width="32" height="24" fill="white"/>
</clipPath>
</defs>
</svg>
