<?xml version="1.0" encoding="UTF-8"?>
<!-- Generator: visioncortex VTracer 0.6.3 -->
<svg version="1.1" xmlns="http://www.w3.org/2000/svg" width="512" height="512">
<path d="M0 0 C1.02 0 2.04 0 3.08 0.01 C17.69 0.06 32.03 0.31 46.38 3.31 C47.35 3.51 48.32 3.71 49.33 3.91 C97.37 13.96 141.57 35.56 176.87 69.91 C178.94 71.84 181.17 73.55 183.38 75.31 C184.47 76.47 185.54 77.65 186.56 78.88 C188.53 81.19 190.5 83.45 192.59 85.64 C227.93 122.93 248.89 173.82 255.38 224.31 C255.46 224.98 255.55 225.65 255.64 226.33 C256.34 232.05 256.55 237.69 256.58 243.45 C256.59 244.39 256.59 245.34 256.6 246.31 C256.83 285.51 256.83 285.51 253.38 302.31 C253.08 303.83 253.08 303.83 252.77 305.38 C248.88 324.82 242.98 343.36 235.12 361.56 C234.81 362.31 234.49 363.05 234.16 363.82 C232.48 367.58 231.12 370.39 227.38 372.31 C223.63 372.5 223.63 372.5 220.38 372.31 C220.13 372.99 219.88 373.67 219.62 374.38 C218.61 376.76 217.54 378.7 216.19 380.88 C214.16 383.97 214.16 383.97 214.56 386.38 C214.83 387.01 215.1 387.65 215.38 388.31 C216.32 391.23 216.74 393.31 215.68 396.24 C212.19 402.92 207.4 408.81 202.7 414.66 C201.48 416.19 200.26 417.72 199.05 419.26 C185.23 436.26 169.28 451.69 151.38 464.31 C150.02 465.31 150.02 465.31 148.63 466.33 C116.67 489.54 78.38 504.58 39.38 510.31 C38.18 510.49 36.98 510.67 35.74 510.85 C23.92 512.48 12.17 512.67 0.25 512.62 C-0.74 512.62 -1.74 512.62 -2.76 512.62 C-17.23 512.57 -31.41 512.27 -45.62 509.31 C-46.6 509.11 -47.58 508.92 -48.58 508.71 C-95.68 498.86 -138.78 477.87 -173.91 444.82 C-175.83 443.05 -177.74 441.37 -179.76 439.72 C-182.08 437.77 -184 435.93 -185.94 433.62 C-188.49 430.62 -191.12 427.7 -193.81 424.81 C-223.22 392.07 -242.24 350.92 -251.38 308.12 C-251.57 307.2 -251.77 306.28 -251.98 305.32 C-255.24 289.24 -256.03 273.37 -256 257 C-256 255.99 -256 254.98 -256 253.94 C-255.96 237.43 -255.05 221.51 -251.62 205.31 C-251.41 204.27 -251.19 203.23 -250.96 202.16 C-236.53 136 -236.53 136 -217.62 122.31 C-216.41 122.31 -215.19 122.31 -213.94 122.31 C-210.59 122.05 -209.69 121.38 -207.29 118.91 C-205.19 116.1 -203.23 113.44 -201.62 110.31 C-201.95 109.32 -202.28 108.33 -202.62 107.31 C-203.23 103.41 -203.47 99.85 -201.53 96.32 C-199.99 94.37 -198.36 92.59 -196.62 90.81 C-196.03 90.17 -195.43 89.52 -194.82 88.86 C-193.64 87.57 -192.44 86.3 -191.24 85.04 C-189.19 82.85 -187.26 80.59 -185.31 78.31 C-182.36 75.01 -179.24 72.08 -175.85 69.23 C-174.23 67.84 -172.66 66.4 -171.12 64.93 C-158.09 52.51 -143.38 41.99 -127.62 33.31 C-126.78 32.85 -125.94 32.38 -125.08 31.9 C-111.66 24.5 -98.15 18.21 -83.62 13.31 C-82.4 12.9 -82.4 12.9 -81.16 12.48 C-71.38 9.24 -61.5 6.71 -51.44 4.56 C-50.51 4.36 -49.59 4.16 -48.64 3.96 C-32.43 0.67 -16.49 -0.06 0 0 Z " fill="#F0F9FD" transform="translate(255.625,-0.3125)"/>
<path d="M0 0 C1.02 0 2.04 0 3.08 0.01 C17.69 0.06 32.03 0.31 46.38 3.31 C47.35 3.51 48.32 3.71 49.33 3.91 C97.37 13.96 141.57 35.56 176.87 69.91 C178.94 71.84 181.17 73.55 183.38 75.31 C184.47 76.47 185.54 77.65 186.56 78.88 C188.53 81.19 190.5 83.45 192.59 85.64 C227.93 122.93 248.89 173.82 255.38 224.31 C255.46 224.98 255.55 225.65 255.64 226.33 C256.34 232.05 256.55 237.69 256.58 243.45 C256.59 244.39 256.59 245.34 256.6 246.31 C256.83 285.51 256.83 285.51 253.38 302.31 C253.08 303.83 253.08 303.83 252.77 305.38 C248.88 324.82 242.98 343.36 235.12 361.56 C234.81 362.31 234.49 363.05 234.16 363.82 C232.48 367.58 231.12 370.39 227.38 372.31 C223.63 372.5 223.63 372.5 220.38 372.31 C220.13 372.99 219.88 373.67 219.62 374.38 C218.61 376.76 217.54 378.7 216.19 380.88 C214.16 383.97 214.16 383.97 214.56 386.38 C214.83 387.01 215.1 387.65 215.38 388.31 C216.32 391.23 216.74 393.31 215.68 396.24 C212.19 402.92 207.4 408.81 202.7 414.66 C201.48 416.19 200.26 417.72 199.05 419.26 C185.23 436.26 169.28 451.69 151.38 464.31 C150.02 465.31 150.02 465.31 148.63 466.33 C116.67 489.54 78.38 504.58 39.38 510.31 C38.18 510.49 36.98 510.67 35.74 510.85 C23.92 512.48 12.17 512.67 0.25 512.62 C-0.74 512.62 -1.74 512.62 -2.76 512.62 C-17.23 512.57 -31.41 512.27 -45.62 509.31 C-46.6 509.11 -47.58 508.92 -48.58 508.71 C-95.68 498.86 -138.78 477.87 -173.91 444.82 C-175.83 443.05 -177.74 441.37 -179.76 439.72 C-182.08 437.77 -184 435.93 -185.94 433.62 C-188.49 430.62 -191.12 427.7 -193.81 424.81 C-223.22 392.07 -242.24 350.92 -251.38 308.12 C-251.57 307.2 -251.77 306.28 -251.98 305.32 C-255.24 289.24 -256.03 273.37 -256 257 C-256 255.99 -256 254.98 -256 253.94 C-255.96 237.43 -255.05 221.51 -251.62 205.31 C-251.41 204.27 -251.19 203.23 -250.96 202.16 C-236.53 136 -236.53 136 -217.62 122.31 C-216.41 122.31 -215.19 122.31 -213.94 122.31 C-210.59 122.05 -209.69 121.38 -207.29 118.91 C-205.19 116.1 -203.23 113.44 -201.62 110.31 C-201.95 109.32 -202.28 108.33 -202.62 107.31 C-203.23 103.41 -203.47 99.85 -201.53 96.32 C-199.99 94.37 -198.36 92.59 -196.62 90.81 C-196.03 90.17 -195.43 89.52 -194.82 88.86 C-193.64 87.57 -192.44 86.3 -191.24 85.04 C-189.19 82.85 -187.26 80.59 -185.31 78.31 C-182.36 75.01 -179.24 72.08 -175.85 69.23 C-174.23 67.84 -172.66 66.4 -171.12 64.93 C-158.09 52.51 -143.38 41.99 -127.62 33.31 C-126.78 32.85 -125.94 32.38 -125.08 31.9 C-111.66 24.5 -98.15 18.21 -83.62 13.31 C-82.4 12.9 -82.4 12.9 -81.16 12.48 C-71.38 9.24 -61.5 6.71 -51.44 4.56 C-50.51 4.36 -49.59 4.16 -48.64 3.96 C-32.43 0.67 -16.49 -0.06 0 0 Z M-135.62 96.31 C-136.44 97.02 -137.26 97.72 -138.1 98.45 C-149.5 108.52 -159.6 119.08 -168.62 131.31 C-169.41 132.37 -170.19 133.43 -171 134.53 C-202.78 179.09 -215.85 234.29 -207.66 288.45 C-202.31 320.22 -190.72 351.21 -171.62 377.31 C-171.22 377.87 -170.81 378.43 -170.4 379.01 C-164.78 386.71 -158.67 393.9 -152.08 400.79 C-151.1 401.82 -150.12 402.85 -149.15 403.89 C-136.64 417.2 -122.2 427.85 -106.62 437.31 C-105.59 437.96 -104.55 438.62 -103.49 439.29 C-87.67 448.87 -70.17 455.35 -52.35 460.06 C-51.2 460.36 -51.2 460.36 -50.03 460.68 C-48.3 461.13 -46.58 461.58 -44.85 462.01 C-43.95 462.26 -43.04 462.5 -42.11 462.75 C-41.28 462.96 -40.46 463.18 -39.61 463.4 C-37.63 464.31 -37.63 464.31 -36.25 467.88 C-35.71 469.01 -35.18 470.14 -34.62 471.31 C-30.69 472.64 -26.76 473.05 -22.62 473.31 C-21.71 473.37 -20.79 473.44 -19.85 473.5 C-18.75 473.41 -18.75 473.41 -17.62 473.31 C-15.82 470.94 -15.82 470.94 -14.62 468.31 C-12.91 466.59 -10.6 467.12 -8.25 467.07 C-7.13 467.04 -6.01 467 -4.85 466.97 C-3.64 466.94 -2.43 466.91 -1.19 466.88 C9.76 466.52 20.54 465.93 31.38 464.31 C32.54 464.15 32.54 464.15 33.73 463.97 C71.37 458.38 107.88 441.56 136.38 416.31 C137.59 415.26 137.59 415.26 138.83 414.19 C179.72 378.18 206.57 327.01 210.38 272.31 C211.33 248.07 210.16 223.72 203.38 200.31 C203.15 199.54 202.93 198.76 202.71 197.96 C187.23 144.83 150.41 99.44 102.38 72.31 C87.34 64.16 71.77 58.12 55.38 53.31 C54.62 53.09 53.87 52.87 53.09 52.64 C-11.92 34.02 -85 52.48 -135.62 96.31 Z " fill="#B0D6FA" transform="translate(255.625,-0.3125)"/>
<path d="M0 0 C0.69 -0.01 1.38 -0.01 2.09 -0.02 C12.34 -0.08 22.23 0.79 32.38 2.25 C33.9 2.44 35.43 2.63 36.96 2.82 C86.9 10.13 138.35 37.87 170.38 77.25 C171.35 78.4 172.32 79.55 173.29 80.7 C210.27 124.72 227.64 180.06 225.38 237.25 C225.34 238.26 225.3 239.28 225.26 240.32 C222.97 290.49 201.3 339.27 167.41 376.03 C165.57 378.04 163.81 380.1 162.06 382.19 C128.06 421.03 71.72 446.19 20.86 449.96 C14.06 450.36 7.25 450.57 0.44 450.69 C-0.78 450.72 -1.99 450.76 -3.25 450.79 C-12.81 450.84 -12.81 450.84 -15.91 447.91 C-18.01 444.65 -18.35 443.06 -17.62 439.25 C-15.54 436.58 -14.35 435.39 -10.98 434.74 C-9.98 434.73 -8.99 434.72 -7.96 434.71 C-6.85 434.69 -5.74 434.67 -4.59 434.65 C-3.4 434.64 -2.22 434.63 -1 434.62 C1.46 434.57 3.93 434.51 6.39 434.45 C8.19 434.41 8.19 434.41 10.03 434.36 C17.21 434.12 24.27 433.31 31.38 432.25 C32.54 432.08 32.54 432.08 33.73 431.91 C71.36 426.32 107.88 409.5 136.38 384.25 C137.61 383.18 137.61 383.18 138.86 382.09 C179.31 346.42 205.61 295.3 209.38 241.25 C210.33 217.01 209.16 192.66 202.38 169.25 C202.15 168.47 201.93 167.7 201.71 166.9 C186.34 114.13 150.09 69.2 102.38 42.25 C87.34 34.1 71.77 28.05 55.38 23.25 C54.62 23.03 53.87 22.8 53.09 22.58 C0.21 7.43 -56.03 17.6 -103.6 43.39 C-115.11 49.81 -125.67 57.63 -135.62 66.25 C-136.87 67.33 -136.87 67.33 -138.13 68.42 C-149.18 78.19 -158.87 88.42 -167.62 100.25 C-168.02 100.79 -168.42 101.33 -168.84 101.88 C-201.57 146.48 -214.92 202.73 -206.66 257.38 C-201.31 289.16 -189.72 320.15 -170.62 346.25 C-170.22 346.81 -169.81 347.37 -169.4 347.95 C-163.76 355.67 -157.64 362.86 -151.04 369.77 C-150.1 370.75 -149.17 371.74 -148.24 372.73 C-136.1 385.72 -121.78 396.04 -106.62 405.25 C-105.59 405.9 -104.55 406.55 -103.49 407.23 C-87.67 416.8 -70.17 423.29 -52.35 428 C-50.78 428.41 -49.2 428.83 -47.62 429.25 C-46.72 429.49 -45.81 429.72 -44.87 429.97 C-43.97 430.22 -43.08 430.47 -42.15 430.72 C-40.92 431.05 -40.92 431.05 -39.67 431.39 C-37.62 432.25 -37.62 432.25 -35.62 435.25 C-35.28 438.54 -35.2 440.51 -36.87 443.4 C-38.62 445.25 -38.62 445.25 -40.59 445.85 C-50.99 445.95 -60.83 442.43 -70.62 439.25 C-71.33 439.02 -72.04 438.79 -72.77 438.55 C-102.58 428.64 -129.19 412.09 -152.01 390.68 C-154.11 388.73 -156.23 386.88 -158.44 385.06 C-162.26 381.82 -165.39 378.08 -168.62 374.25 C-169.85 372.88 -169.85 372.88 -171.09 371.48 C-197.27 341.84 -215.11 303.18 -221.62 264.25 C-221.85 262.94 -221.85 262.94 -222.08 261.6 C-225.88 238.52 -226.72 213.37 -222.62 190.25 C-222.48 189.41 -222.33 188.58 -222.18 187.72 C-215.56 151.02 -200.75 116.53 -177.62 87.25 C-176.92 86.35 -176.21 85.45 -175.48 84.52 C-167.33 74.34 -158.67 64.59 -148.62 56.25 C-147.75 55.47 -146.88 54.69 -145.98 53.88 C-115.2 26.44 -75.17 8.85 -34.62 2.25 C-33.35 2.04 -32.08 1.83 -30.77 1.62 C-20.52 0.28 -10.32 0.04 0 0 Z " fill="#030404" transform="translate(255.625,30.75)"/>
<path d="M0 0 C5.04 1.53 6.64 4.55 9.18 9.03 C9.74 10.14 10.29 11.25 10.87 12.39 C11.18 13.01 11.49 13.63 11.82 14.27 C12.86 16.33 13.9 18.4 14.93 20.47 C15.68 21.96 16.43 23.45 17.18 24.93 C19.21 28.96 21.23 33 23.25 37.03 C24.52 39.55 25.78 42.08 27.05 44.6 C31.46 53.39 35.87 62.19 40.27 71 C44.38 79.2 48.49 87.39 52.62 95.59 C56.16 102.62 59.69 109.67 63.22 116.71 C65.32 120.92 67.43 125.13 69.55 129.33 C71.54 133.27 73.52 137.23 75.49 141.19 C76.21 142.64 76.94 144.09 77.67 145.53 C78.68 147.51 79.66 149.5 80.64 151.48 C81.2 152.59 81.75 153.7 82.32 154.84 C83.65 158.48 83.83 161.21 83.5 165.06 C80.69 169.15 76.47 170.62 72 172.38 C71.25 172.68 70.5 172.99 69.72 173.3 C67.25 174.3 64.77 175.29 62.29 176.27 C60.57 176.96 58.84 177.65 57.11 178.34 C53.5 179.79 49.88 181.23 46.26 182.66 C41.62 184.5 37 186.36 32.38 188.23 C28.82 189.66 25.25 191.08 21.68 192.5 C19.97 193.17 18.27 193.86 16.56 194.55 C14.18 195.51 11.79 196.46 9.39 197.39 C8.69 197.68 8 197.97 7.28 198.26 C-0.32 201.18 -6.11 199.09 -13.33 196.15 C-14.08 195.85 -14.83 195.56 -15.6 195.25 C-18.06 194.27 -20.51 193.28 -22.96 192.29 C-24.67 191.6 -26.38 190.92 -28.09 190.23 C-31.67 188.79 -35.24 187.35 -38.82 185.91 C-43.4 184.05 -47.99 182.22 -52.58 180.38 C-56.11 178.97 -59.64 177.55 -63.16 176.13 C-64.86 175.44 -66.55 174.77 -68.24 174.09 C-70.6 173.15 -72.96 172.19 -75.32 171.23 C-76.02 170.96 -76.72 170.68 -77.44 170.39 C-80.92 168.96 -82.36 168.27 -84.5 165.06 C-85.01 159.65 -84.02 156.22 -81.6 151.4 C-81.29 150.77 -80.98 150.14 -80.66 149.49 C-79.62 147.38 -78.56 145.29 -77.5 143.19 C-76.74 141.68 -75.99 140.17 -75.24 138.66 C-73.2 134.56 -71.14 130.47 -69.08 126.39 C-66.93 122.11 -64.79 117.82 -62.65 113.53 C-59.05 106.34 -55.44 99.15 -51.82 91.96 C-47.64 83.65 -43.48 75.33 -39.32 67.01 C-35.32 59.01 -31.31 51.01 -27.3 43.01 C-25.59 39.6 -23.89 36.2 -22.18 32.79 C-20.18 28.78 -18.16 24.78 -16.15 20.77 C-15.41 19.3 -14.67 17.83 -13.93 16.36 C-12.93 14.35 -11.92 12.35 -10.9 10.34 C-10.06 8.66 -10.06 8.66 -9.19 6.94 C-5.16 0.09 -5.16 0.09 0 0 Z " fill="#6253AF" transform="translate(256.5,92.9375)"/>
<path d="M0 0 C0 0.66 0 1.32 0 2 C0.66 2 1.32 2 2 2 C3.54 5.08 3.61 7.68 3 11 C1.29 15.03 -0.86 18.8 -3 22.62 C-11.18 37.78 -17.41 53.4 -22 70 C-22.32 71.1 -22.65 72.19 -22.98 73.32 C-29.69 97.58 -30.68 122.03 -30 147 C-29.98 148.54 -29.96 150.08 -29.94 151.62 C-29.35 169.08 -25.62 187.48 -20 204 C-19.56 205.32 -19.56 205.32 -19.11 206.66 C-9.52 235.11 3.32 260.47 22 284 C22.43 284.55 22.86 285.1 23.31 285.66 C34.88 300.25 48.29 313.81 63.35 324.79 C64.99 325.99 66.62 327.23 68.24 328.46 C119.03 366.62 183.94 380.53 246.26 371.77 C285.65 365.74 323.21 350.1 355 326 C355.65 325.51 356.3 325.03 356.97 324.53 C375.39 310.58 391.8 293.91 404.86 274.84 C405.58 273.8 405.58 273.8 406.32 272.74 C407.25 271.41 408.15 270.07 409.04 268.71 C411.36 265.35 412.64 264.1 416.65 263.02 C420.54 263 422.13 263.38 425 266 C426.28 268.99 426.42 270.86 425.29 273.93 C421.84 280.62 417.02 286.5 412.33 292.35 C411.1 293.88 409.89 295.41 408.68 296.95 C394.86 313.95 378.91 329.38 361 342 C359.64 343 359.64 343 358.26 344.02 C326.3 367.23 288 382.27 249 388 C247.8 388.18 246.6 388.35 245.37 388.54 C233.54 390.17 221.8 390.36 209.88 390.31 C208.88 390.31 207.89 390.31 206.86 390.31 C192.39 390.26 178.21 389.96 164 387 C163.02 386.8 162.05 386.6 161.04 386.4 C113.94 376.54 70.84 355.56 35.72 322.51 C33.8 320.73 31.88 319.06 29.86 317.41 C27.55 315.46 25.62 313.62 23.69 311.31 C21.13 308.3 18.5 305.39 15.81 302.5 C-13.59 269.75 -32.61 228.61 -41.75 185.81 C-41.95 184.89 -42.15 183.96 -42.35 183.01 C-45.62 166.93 -46.41 151.06 -46.38 134.69 C-46.37 133.68 -46.37 132.67 -46.37 131.63 C-46.33 115.12 -45.43 99.2 -42 83 C-41.78 81.96 -41.56 80.92 -41.33 79.84 C-23.67 -1.16 -23.67 -1.16 0 0 Z " fill="#010101" transform="translate(46,122)"/>
<path d="M0 0 C1.02 0 2.04 0 3.08 0.01 C17.69 0.06 32.03 0.31 46.38 3.31 C47.35 3.51 48.32 3.71 49.33 3.91 C97.37 13.96 141.57 35.56 176.87 69.91 C178.94 71.84 181.17 73.55 183.38 75.31 C184.47 76.47 185.54 77.65 186.56 78.88 C188.53 81.19 190.5 83.45 192.59 85.64 C227.93 122.93 248.89 173.82 255.38 224.31 C255.46 224.98 255.55 225.65 255.64 226.33 C256.34 232.05 256.55 237.69 256.58 243.45 C256.59 244.39 256.59 245.34 256.6 246.31 C256.83 285.51 256.83 285.51 253.38 302.31 C253.08 303.83 253.08 303.83 252.77 305.38 C248.88 324.82 242.98 343.36 235.12 361.56 C234.81 362.31 234.49 363.05 234.16 363.82 C232.47 367.59 231.08 370.31 227.38 372.31 C224.44 372.88 224.44 372.88 221.38 372.31 C218.44 369.69 218.44 369.69 216.38 366.31 C216.66 361.01 218.86 356.58 221 351.81 C233.93 322.03 240.58 290.48 240.69 258.06 C240.69 257.31 240.69 256.55 240.7 255.77 C240.7 234.51 238.79 212.67 232.38 192.31 C232.11 191.44 231.84 190.56 231.56 189.66 C221.39 156.68 206 126.52 183.38 100.31 C182.71 99.53 182.04 98.75 181.35 97.95 C170.91 86.07 159.81 74.97 147.08 65.57 C145.41 64.34 143.77 63.09 142.12 61.84 C91.19 23.61 25.7 9.82 -36.74 18.47 C-48.29 20.25 -59.47 22.87 -70.62 26.31 C-71.44 26.56 -72.26 26.8 -73.11 27.06 C-94.42 33.55 -115.34 43.56 -133.62 56.31 C-134.37 56.83 -135.12 57.35 -135.89 57.88 C-147.33 65.86 -157.69 74.53 -167.62 84.31 C-168.79 85.44 -169.96 86.57 -171.12 87.7 C-177.14 93.55 -182.67 99.53 -187.82 106.17 C-189.62 108.31 -189.62 108.31 -192.62 110.31 C-194.6 110.36 -194.6 110.36 -196.69 110.06 C-197.38 109.97 -198.07 109.89 -198.79 109.8 C-200.62 109.31 -200.62 109.31 -202.62 107.31 C-203.45 103.47 -203.44 99.8 -201.53 96.32 C-199.98 94.37 -198.36 92.59 -196.62 90.81 C-196.03 90.17 -195.43 89.52 -194.82 88.86 C-193.64 87.57 -192.44 86.3 -191.24 85.04 C-189.19 82.85 -187.26 80.59 -185.31 78.31 C-182.36 75.01 -179.24 72.08 -175.85 69.23 C-174.23 67.84 -172.66 66.4 -171.12 64.93 C-158.09 52.51 -143.38 41.99 -127.62 33.31 C-126.78 32.85 -125.94 32.38 -125.08 31.9 C-111.66 24.5 -98.15 18.21 -83.62 13.31 C-82.81 13.04 -81.99 12.76 -81.16 12.48 C-71.38 9.24 -61.5 6.71 -51.44 4.56 C-50.51 4.36 -49.59 4.16 -48.64 3.96 C-32.43 0.67 -16.49 -0.06 0 0 Z " fill="#010102" transform="translate(255.625,-0.3125)"/>
<path d="M0 0 C2.49 0.81 4.8 1.66 7.2 2.68 C8.24 3.1 8.24 3.1 9.3 3.54 C10.79 4.16 12.29 4.78 13.79 5.4 C16.15 6.39 18.52 7.37 20.9 8.34 C27.65 11.1 34.38 13.89 41.12 16.69 C45.24 18.4 49.37 20.09 53.51 21.78 C55.84 22.74 58.17 23.72 60.5 24.69 C61.93 25.28 63.37 25.87 64.8 26.45 C65.45 26.73 66.09 27 66.75 27.28 C73.65 30.05 78.41 28.01 85.01 25.32 C86.02 24.91 86.02 24.91 87.05 24.49 C88.51 23.9 89.96 23.3 91.41 22.71 C93.72 21.77 96.02 20.83 98.33 19.9 C104.88 17.25 111.43 14.58 117.97 11.91 C121.98 10.27 125.99 8.64 130.01 7.02 C131.54 6.4 133.06 5.78 134.59 5.15 C136.72 4.28 138.85 3.42 140.99 2.55 C142.2 2.06 143.41 1.57 144.66 1.06 C148.03 -0.01 150.5 -0.33 154 0 C156.38 1.56 156.38 1.56 158 4 C158.49 9.37 157.69 12.37 154.84 16.89 C154.16 18 153.47 19.11 152.77 20.25 C152.01 21.44 151.26 22.62 150.5 23.81 C149.72 25.06 148.94 26.31 148.17 27.56 C146.57 30.13 144.96 32.7 143.35 35.26 C139.86 40.81 136.43 46.41 133 52 C131.68 54.14 130.36 56.28 129.04 58.43 C124.79 65.33 120.58 72.26 116.38 79.19 C116.02 79.77 115.66 80.36 115.3 80.97 C113.54 83.87 111.78 86.77 110.02 89.67 C105.25 97.53 100.48 105.38 95.69 113.22 C93.93 116.12 92.17 119.04 90.42 121.95 C89.26 123.86 88.1 125.78 86.94 127.69 C86.15 129.01 86.15 129.01 85.35 130.35 C79.44 140.03 79.44 140.03 73.56 141.69 C66.24 139.72 61.68 128.78 58.12 122.69 C56.79 120.44 55.46 118.19 54.12 115.94 C53.78 115.36 53.44 114.79 53.09 114.19 C49.51 108.15 45.82 102.17 42.12 96.19 C36.54 87.15 31 78.09 25.5 69 C19.91 59.77 14.28 50.56 8.62 41.38 C7.97 40.3 7.31 39.23 6.63 38.13 C3.65 33.27 0.64 28.42 -2.45 23.62 C-2.97 22.8 -3.49 21.98 -4.02 21.14 C-4.97 19.65 -5.93 18.16 -6.9 16.69 C-9.66 12.33 -10.64 9.31 -10 4 C-7.16 -0.26 -4.91 -0.39 0 0 Z " fill="#020203" transform="translate(182,278)"/>
<path d="M0 0 C-0.57 0.22 -1.14 0.44 -1.73 0.67 C-35.03 13.6 -83.59 39.39 -99 74 C-98.26 74.08 -97.52 74.17 -96.75 74.25 C-93.32 75.18 -92.06 76.11 -90 79 C-89.53 82.3 -89.33 84.83 -91.02 87.8 C-92.46 89.69 -93.98 91.47 -95.56 93.25 C-96.67 94.56 -97.77 95.87 -98.87 97.18 C-99.41 97.82 -99.95 98.46 -100.5 99.12 C-103.24 102.55 -105.46 106.25 -107.7 110.02 C-109 112 -109 112 -111 113 C-115.37 113.24 -118.19 113.12 -122 111 C-123.29 113.9 -124.58 116.79 -125.88 119.69 C-126.24 120.5 -126.6 121.32 -126.98 122.16 C-128.73 126.08 -130.45 130 -132 134 C-131.24 134.08 -130.47 134.16 -129.69 134.25 C-127 135 -127 135 -125.12 136.62 C-122.35 142.48 -126.28 151.1 -127.94 157 C-128.2 157.96 -128.47 158.92 -128.74 159.91 C-129.25 161.77 -129.77 163.62 -130.3 165.48 C-130.73 167.04 -131.16 168.61 -131.57 170.18 C-132.81 174.79 -132.81 174.79 -134.81 176.94 C-137 178 -137 178 -142 178 C-142.33 185.59 -142.66 193.18 -143 201 C-141.02 201.66 -139.04 202.32 -137 203 C-134.8 206.3 -134.57 208 -134.15 211.88 C-134.02 213.05 -133.89 214.22 -133.76 215.42 C-133.63 216.64 -133.51 217.87 -133.38 219.12 C-133.17 220.92 -133.17 220.92 -132.97 222.76 C-132.28 229.19 -131.6 235.53 -132 242 C-134.38 244.56 -134.38 244.56 -137 246 C-137.66 246 -138.32 246 -139 246 C-138.85 246.62 -138.7 247.24 -138.54 247.88 C-137.86 250.69 -137.18 253.5 -136.5 256.31 C-136.26 257.29 -136.02 258.27 -135.78 259.27 C-135.55 260.21 -135.33 261.15 -135.09 262.11 C-134.88 262.98 -134.67 263.84 -134.46 264.73 C-134 267 -134 267 -134 270 C-133.34 269.67 -132.68 269.34 -132 269 C-126.21 268.44 -126.21 268.44 -124 269 C-120.17 272.81 -118.23 277.45 -116.06 282.31 C-113.95 286.97 -111.89 291.45 -109 295.69 C-106.83 299.28 -106.09 300.9 -107 305 C-109.55 308.1 -111.18 309.73 -115 311 C-107.47 323.32 -107.47 323.32 -99 335 C-98.55 333.89 -98.09 332.77 -97.62 331.62 C-96 328 -96 328 -94 326 C-91.02 325.32 -89.85 325.15 -87 326 C-83.34 328.66 -80.22 331.83 -77 335 C-75.26 336.59 -73.51 338.18 -71.75 339.75 C-70.93 340.5 -70.12 341.24 -69.27 342.01 C-67.37 343.68 -65.43 345.15 -63.38 346.62 C-61 349 -61 349 -60.38 352.56 C-61 356 -61 356 -62.56 358.44 C-65.96 360.62 -68 360.44 -72 360 C-74.42 358.4 -76.29 356.96 -78.38 355 C-78.93 354.5 -79.49 354.01 -80.06 353.5 C-81.18 352.49 -82.3 351.48 -83.41 350.46 C-85.68 348.38 -88 346.35 -90.31 344.31 C-91.54 343.21 -92.77 342.11 -94 341 C-89.67 347.15 -84.83 352.52 -79.5 357.81 C-78.7 358.6 -77.91 359.39 -77.09 360.21 C-70.44 366.72 -63.59 372.63 -56 378 C-55.32 378.48 -54.64 378.96 -53.94 379.46 C-39.55 389.53 -24.51 398.85 -8 405 C-8 405.66 -8 406.32 -8 407 C-6.35 407 -4.7 407 -3 407 C-2.67 407.66 -2.34 408.32 -2 409 C-18.92 406.1 -34.72 399.69 -50 392 C-50.63 391.68 -51.26 391.37 -51.91 391.04 C-70.53 381.6 -86.96 369.42 -102 355 C-102.8 354.24 -102.8 354.24 -103.61 353.47 C-111.9 345.57 -119.26 337.26 -126 328 C-126.41 327.44 -126.83 326.87 -127.25 326.29 C-160.43 280.45 -171.93 222.7 -163.32 167.28 C-156.05 125.08 -135.22 87.86 -106 57 C-105.12 56.07 -104.25 55.14 -103.34 54.18 C-96.43 47.04 -88.96 40.93 -81 35 C-80.15 34.36 -79.29 33.73 -78.41 33.07 C-61.86 21.13 -21.7 -6.43 0 0 Z " fill="#DCF2F9" transform="translate(212,52)"/>
<path d="M0 0 C5.04 1.53 6.64 4.55 9.18 9.03 C9.74 10.14 10.29 11.25 10.87 12.39 C11.18 13.01 11.49 13.63 11.82 14.27 C12.86 16.33 13.9 18.4 14.93 20.47 C15.68 21.96 16.43 23.45 17.18 24.93 C19.21 28.96 21.23 33 23.25 37.03 C24.52 39.55 25.78 42.08 27.05 44.6 C31.46 53.39 35.87 62.19 40.27 71 C44.38 79.2 48.49 87.39 52.62 95.59 C56.16 102.62 59.69 109.67 63.22 116.71 C65.32 120.92 67.43 125.13 69.55 129.33 C71.54 133.27 73.52 137.23 75.49 141.19 C76.21 142.64 76.94 144.09 77.67 145.53 C78.68 147.51 79.66 149.5 80.64 151.48 C81.2 152.59 81.75 153.7 82.32 154.84 C83.65 158.48 83.83 161.21 83.5 165.06 C80.69 169.15 76.47 170.62 72 172.38 C71.25 172.68 70.5 172.99 69.72 173.3 C67.25 174.3 64.77 175.29 62.29 176.27 C60.57 176.96 58.84 177.65 57.11 178.34 C53.5 179.79 49.88 181.23 46.26 182.66 C41.62 184.5 37 186.36 32.38 188.23 C28.82 189.66 25.25 191.08 21.68 192.5 C19.97 193.17 18.27 193.86 16.56 194.55 C14.18 195.51 11.79 196.46 9.39 197.39 C8.69 197.68 8 197.97 7.28 198.26 C-0.32 201.18 -6.11 199.09 -13.33 196.15 C-14.08 195.85 -14.83 195.56 -15.6 195.25 C-18.06 194.27 -20.51 193.28 -22.96 192.29 C-24.67 191.6 -26.38 190.92 -28.09 190.23 C-31.67 188.79 -35.24 187.35 -38.82 185.91 C-43.4 184.05 -47.99 182.22 -52.58 180.38 C-56.11 178.97 -59.64 177.55 -63.16 176.13 C-64.86 175.44 -66.55 174.77 -68.24 174.09 C-70.6 173.15 -72.96 172.19 -75.32 171.23 C-76.02 170.96 -76.72 170.68 -77.44 170.39 C-80.92 168.96 -82.36 168.27 -84.5 165.06 C-85.01 159.65 -84.02 156.22 -81.6 151.4 C-81.29 150.77 -80.98 150.14 -80.66 149.49 C-79.62 147.38 -78.56 145.29 -77.5 143.19 C-76.74 141.68 -75.99 140.17 -75.24 138.66 C-73.2 134.56 -71.14 130.47 -69.08 126.39 C-66.93 122.11 -64.79 117.82 -62.65 113.53 C-59.05 106.34 -55.44 99.15 -51.82 91.96 C-47.64 83.65 -43.48 75.33 -39.32 67.01 C-35.32 59.01 -31.31 51.01 -27.3 43.01 C-25.59 39.6 -23.89 36.2 -22.18 32.79 C-20.18 28.78 -18.16 24.78 -16.15 20.77 C-15.41 19.3 -14.67 17.83 -13.93 16.36 C-12.93 14.35 -11.92 12.35 -10.9 10.34 C-10.06 8.66 -10.06 8.66 -9.19 6.94 C-5.16 0.09 -5.16 0.09 0 0 Z M-1.5 25.06 C-10.01 41.94 -18.5 58.82 -26.98 75.7 C-30.91 83.55 -34.85 91.39 -38.8 99.22 C-42.25 106.05 -45.68 112.88 -49.11 119.71 C-50.92 123.33 -52.74 126.95 -54.57 130.56 C-56.29 133.96 -58 137.37 -59.7 140.78 C-60.32 142.03 -60.95 143.28 -61.59 144.53 C-62.46 146.23 -63.3 147.94 -64.15 149.65 C-64.63 150.6 -65.11 151.56 -65.61 152.54 C-66.58 155.29 -66.71 156.43 -65.5 159.06 C-62.95 160.62 -62.95 160.62 -59.7 161.83 C-59.09 162.07 -58.49 162.32 -57.87 162.57 C-55.86 163.38 -53.85 164.17 -51.83 164.96 C-50.43 165.51 -49.04 166.07 -47.64 166.63 C-44.71 167.8 -41.78 168.95 -38.84 170.1 C-35.08 171.57 -31.33 173.07 -27.58 174.57 C-24.7 175.73 -21.81 176.87 -18.92 178.01 C-17.53 178.55 -16.15 179.11 -14.77 179.66 C-12.84 180.44 -10.89 181.19 -8.95 181.94 C-7.85 182.38 -6.74 182.81 -5.61 183.26 C0.01 184.71 4.43 182.87 9.66 180.76 C10.85 180.28 12.05 179.81 13.28 179.32 C14.56 178.79 15.85 178.27 17.14 177.75 C18.47 177.22 19.8 176.68 21.14 176.15 C24.63 174.75 28.12 173.34 31.61 171.93 C34.46 170.77 37.32 169.63 40.18 168.48 C46.07 166.11 51.97 163.74 57.86 161.36 C58.9 160.94 59.95 160.52 61.02 160.09 C62.54 159.46 64.03 158.8 65.5 158.06 C64.92 154.56 64.01 151.71 62.42 148.54 C61.99 147.67 61.55 146.79 61.1 145.89 C60.62 144.94 60.14 144 59.65 143.02 C59.14 142.01 58.64 141 58.12 139.96 C56.45 136.62 54.77 133.29 53.09 129.95 C51.92 127.62 50.75 125.29 49.59 122.96 C46.82 117.43 44.05 111.91 41.28 106.4 C38.15 100.18 35.03 93.96 31.91 87.74 C27.03 78 22.15 68.26 17.26 58.53 C12.66 49.38 8.08 40.22 3.5 31.06 C2.5 29.06 1.5 27.06 0.5 25.06 C-0.16 25.06 -0.82 25.06 -1.5 25.06 Z " fill="#020202" transform="translate(256.5,92.9375)"/>
<path d="M0 0 C7.43 2.36 14.6 5.21 21.81 8.19 C24.21 9.17 26.6 10.14 29 11.12 C33.34 12.9 37.68 14.7 42 16.54 C42.9 16.91 43.81 17.29 44.74 17.68 C46.41 18.37 48.07 19.08 49.73 19.8 C50.48 20.11 51.22 20.42 51.99 20.73 C52.62 21 53.26 21.28 53.91 21.55 C58.62 22.56 63.21 20.69 67.55 18.96 C69.14 18.33 69.14 18.33 70.76 17.68 C71.89 17.23 73.02 16.78 74.18 16.31 C75.93 15.61 75.93 15.61 77.72 14.9 C80.81 13.67 83.89 12.43 86.98 11.2 C90.14 9.93 93.29 8.67 96.45 7.42 C102.64 4.95 108.82 2.48 115 0 C115 4.09 113.06 6.67 111 10.06 C110.56 10.8 110.12 11.54 109.66 12.3 C104.97 20.12 100.18 27.88 95.39 35.64 C90.69 43.25 86.02 50.88 81.39 58.53 C78.94 62.58 76.48 66.63 74.02 70.68 C72.68 72.87 71.35 75.07 70.02 77.27 C68.21 80.27 66.39 83.26 64.56 86.25 C64.02 87.14 63.49 88.04 62.93 88.96 C62.44 89.76 61.95 90.56 61.44 91.39 C61.02 92.09 60.59 92.79 60.15 93.52 C59.77 94.01 59.39 94.5 59 95 C58.34 95 57.68 95 57 95 C55.74 93.3 55.74 93.3 54.3 90.88 C53.76 89.98 53.22 89.08 52.66 88.15 C52.07 87.15 51.48 86.15 50.88 85.12 C49.6 83 48.32 80.87 47.04 78.74 C46.38 77.63 45.71 76.51 45.02 75.37 C41.79 69.99 38.49 64.65 35.19 59.31 C29.09 49.43 23.05 39.52 17.04 29.58 C12.34 21.82 7.61 14.07 2.69 6.44 C0 2.21 0 2.21 0 0 Z " fill="#6253AF" transform="translate(198,301)"/>
<path d="M0 0 C0.66 0 1.32 0 2 0 C3.98 3.04 5.78 6.16 7.56 9.31 C8.11 10.15 8.67 11 9.24 11.87 C11.2 15.48 12.64 18.79 11.45 22.92 C10.49 25.14 9.43 27.27 8.32 29.42 C7.91 30.24 7.5 31.06 7.08 31.91 C6.2 33.69 5.3 35.46 4.4 37.24 C3 40 1.62 42.78 0.25 45.55 C-2.75 51.62 -5.78 57.68 -8.82 63.73 C-9.92 65.95 -11.03 68.16 -12.14 70.38 C-15.02 76.14 -17.91 81.9 -20.8 87.66 C-23.75 93.57 -26.71 99.47 -29.67 105.38 C-35.44 116.92 -41.22 128.46 -47 140 C-48.44 139.53 -49.88 139.05 -51.32 138.57 C-52.53 138.18 -52.53 138.18 -53.75 137.77 C-56.26 136.91 -58.66 135.92 -61.06 134.81 C-62.19 134.3 -62.19 134.3 -63.35 133.77 C-63.89 133.52 -64.44 133.26 -65 133 C-64.39 129.12 -63.21 126.05 -61.45 122.54 C-60.91 121.46 -60.37 120.37 -59.81 119.25 C-59.21 118.06 -58.61 116.87 -58.01 115.68 C-57.38 114.42 -56.75 113.16 -56.12 111.9 C-54.41 108.48 -52.69 105.06 -50.98 101.65 C-49.18 98.07 -47.39 94.5 -45.6 90.92 C-42.21 84.16 -38.82 77.39 -35.42 70.63 C-31.56 62.93 -27.7 55.23 -23.84 47.52 C-15.9 31.68 -7.95 15.84 0 0 Z " fill="#524599" transform="translate(255,118)"/>
<path d="M0 0 C7 2.24 13.77 4.87 20.56 7.69 C21.57 8.1 22.58 8.52 23.62 8.95 C26.08 9.96 28.54 10.98 31 12 C30.01 12.5 30.01 12.5 29 13 C32.32 18.47 35.64 23.93 38.96 29.4 C39.54 30.36 39.54 30.36 40.13 31.34 C40.93 32.65 41.72 33.96 42.52 35.27 C44.99 39.34 47.46 43.41 49.93 47.49 C56.15 57.75 62.42 67.96 69 78 C67.71 80.27 66.42 82.54 65.12 84.81 C64.76 85.46 64.4 86.1 64.02 86.76 C62.42 89.57 60.79 92.31 59 95 C58.34 95 57.68 95 57 95 C55.74 93.3 55.74 93.3 54.3 90.88 C53.76 89.98 53.22 89.08 52.66 88.15 C52.07 87.15 51.48 86.15 50.88 85.12 C49.6 83 48.32 80.87 47.04 78.74 C46.38 77.63 45.71 76.51 45.02 75.37 C41.79 69.99 38.49 64.65 35.19 59.31 C29.09 49.43 23.05 39.52 17.04 29.58 C12.34 21.82 7.61 14.07 2.69 6.44 C0 2.21 0 2.21 0 0 Z " fill="#53459A" transform="translate(198,301)"/>
<path d="M0 0 C5.9 -0.14 5.9 -0.14 9.37 2.14 C11.24 5.08 11.24 5.08 11.3 8.71 C10.24 12.08 10.24 12.08 8.49 13.96 C1.89 17.26 -6.08 16.34 -13.26 16.39 C-14.58 16.42 -15.9 16.45 -17.26 16.48 C-18.53 16.49 -19.8 16.5 -21.1 16.51 C-22.26 16.52 -23.42 16.54 -24.61 16.55 C-28.43 15.98 -30.06 14.79 -32.76 12.08 C-33.82 9.14 -33.82 9.14 -33.76 6.08 C-32.13 3.43 -32.13 3.43 -29.76 1.08 C-26.97 0.42 -26.97 0.42 -23.78 0.37 C-22.61 0.35 -21.45 0.32 -20.25 0.29 C-19.04 0.28 -17.82 0.28 -16.57 0.27 C-15.38 0.24 -14.18 0.22 -12.95 0.19 C-10.62 0.15 -8.29 0.12 -5.96 0.1 C-3.97 0.09 -1.99 0.06 0 0 Z " fill="#070707" transform="translate(269.759765625,433.918212890625)"/>
<path d="M0 0 C4.7 4.56 6.41 9.17 8.19 15.38 C8.43 16.19 8.68 17 8.94 17.84 C13.72 33.75 13.72 33.75 12 40 C9.75 42.59 8.39 42.94 5 43.44 C1.09 42.87 0.39 42.16 -2 39 C-3.29 35.46 -4.17 31.84 -5.06 28.19 C-6.92 20.46 -6.92 20.46 -9.69 13.04 C-11.34 9.2 -11.07 6.99 -10 3 C-7.67 -1.01 -4.26 -0.66 0 0 Z " fill="#070707" transform="translate(433,181)"/>
<path d="M0 0 C4.92 1.58 8.48 6.12 12.08 9.67 C13.82 11.26 15.57 12.84 17.33 14.42 C18.15 15.16 18.96 15.91 19.8 16.68 C21.71 18.35 23.65 19.82 25.7 21.29 C28.08 23.67 28.08 23.67 28.7 27.23 C28.08 30.67 28.08 30.67 26.52 33.11 C23.12 35.28 21.07 35.1 17.08 34.67 C14.69 33.11 12.88 31.71 10.83 29.79 C10.28 29.3 9.72 28.81 9.16 28.3 C8.01 27.28 6.88 26.25 5.75 25.21 C4.14 23.72 2.51 22.27 0.86 20.82 C-6.57 14.19 -6.57 14.19 -8.92 10.67 C-8.74 7.31 -8.5 4.67 -6.8 1.73 C-4.54 0.45 -2.61 -0.12 0 0 Z " fill="#060606" transform="translate(122.921875,377.33203125)"/>
<path d="M0 0 C3.81 1.13 4.49 1.62 6.38 5 C7.38 13.28 6.32 21.92 5.5 30.19 C5.42 31 5.34 31.81 5.26 32.65 C4.45 40.08 4.45 40.08 2.38 43 C-1.12 45.33 -2.52 45.5 -6.62 45 C-8.83 43.59 -8.83 43.59 -10.62 41 C-11.01 37.72 -10.72 34.53 -10.44 31.25 C-10.3 29.36 -10.17 27.47 -10.04 25.58 C-9.96 24.64 -9.89 23.7 -9.81 22.74 C-9.64 20.22 -9.55 17.72 -9.5 15.2 C-9.48 14.48 -9.45 13.75 -9.43 13 C-9.38 11.05 -9.34 9.1 -9.3 7.15 C-8.62 4 -8.62 4 -6.3 1.57 C-3.62 0 -3.62 0 0 0 Z " fill="#050505" transform="translate(443.625,248)"/>
<path d="M0 0 C2.94 2.06 2.94 2.06 5 5 C5.38 8.44 5.38 8.44 4 12 C1.3 14.48 -1.84 16.16 -5 18 C-7.41 19.52 -9.8 21.07 -12.19 22.62 C-13.35 23.37 -14.51 24.11 -15.67 24.85 C-17.88 26.28 -20.05 27.75 -22.2 29.27 C-25 31 -25 31 -28.69 31 C-32 30 -32 30 -33.94 28.31 C-35.43 25.06 -35.77 23.56 -35 20 C-29.36 12.44 -18.85 7.84 -10.87 3.13 C-4.61 -0.65 -4.61 -0.65 0 0 Z " fill="#060606" transform="translate(171,84)"/>
<path d="M0 0 C1.94 1.12 1.94 1.12 3 3 C3.56 7.51 3.39 9.43 0.76 13.21 C-0.24 14.28 -1.27 15.34 -2.31 16.38 C-2.85 16.93 -3.39 17.49 -3.94 18.06 C-19.11 33.5 -19.11 33.5 -25.94 34.38 C-29 34 -29 34 -31.38 32.44 C-33.7 28.96 -33.62 27.14 -33 23 C-30.85 20.12 -28.22 17.89 -25.5 15.56 C-24.03 14.25 -22.56 12.94 -21.09 11.62 C-20.02 10.69 -20.02 10.69 -18.94 9.73 C-15.95 7.06 -13.17 4.2 -10.38 1.32 C-7.07 -1.84 -4.26 -0.9 0 0 Z " fill="#050506" transform="translate(398,375)"/>
<path d="M0 0 C3.19 0.44 3.19 0.44 6.12 2.5 C8.19 5.44 8.19 5.44 8 8.43 C7.09 13.51 5.64 18.47 4.25 23.44 C3.99 24.4 3.72 25.36 3.45 26.34 C2.93 28.2 2.41 30.06 1.89 31.92 C1.45 33.48 1.04 35.04 0.66 36.61 C-0.5 41.23 -0.5 41.23 -3.81 43.44 C-7.92 43.96 -9.95 44.08 -13.31 41.56 C-16.81 34.29 -13.11 24.99 -10.94 17.62 C-10.68 16.71 -10.42 15.8 -10.16 14.85 C-6.14 0.95 -6.14 0.95 0 0 Z " fill="#060606" transform="translate(79.8125,185.5625)"/>
<path d="M0 0 C2.44 2.19 2.44 2.19 4 5 C3.94 8.16 3.75 10.1 1.7 12.56 C-0.18 14.15 -1.86 15 -4.13 15.94 C-4.94 16.28 -5.75 16.61 -6.58 16.96 C-7.42 17.3 -8.26 17.65 -9.12 18 C-9.94 18.34 -10.76 18.69 -11.6 19.04 C-28.46 26.03 -28.46 26.03 -35 25 C-37.65 22.62 -38.76 20.95 -39.62 17.5 C-38.69 13.78 -36.06 12.07 -33 10 C-30.5 8.78 -27.94 7.88 -25.31 7 C-20.34 5.26 -15.6 3.4 -10.88 1.06 C-6.88 -0.79 -4.26 -1.87 0 0 Z " fill="#050606" transform="translate(343,416)"/>
<path d="M0 0 C3.82 3.83 5.77 8.45 7.94 13.31 C10.05 17.97 12.11 22.45 15 26.69 C17.17 30.28 17.91 31.9 17 36 C14.94 38.94 14.94 38.94 12 41 C8.56 41.38 8.56 41.38 5 40 C-1.43 33.45 -5.03 23.19 -9 15 C-9.4 14.27 -9.8 13.53 -10.21 12.77 C-11.68 9.46 -11.29 6.59 -11 3 C-8.97 -1.05 -4.01 -1.17 0 0 Z " fill="#050506" transform="translate(88,321)"/>
<path d="M0 0 C4.12 0.59 4.97 1.29 7.5 4.5 C8.23 7.29 8.23 7.29 8.55 10.48 C8.67 11.65 8.79 12.81 8.92 14.01 C9.03 15.22 9.14 16.44 9.25 17.69 C9.38 18.88 9.5 20.08 9.63 21.31 C11.43 39.31 11.43 39.31 8.44 43.12 C4.57 44.94 2.56 44.78 -1.5 43.5 C-5.13 39.11 -5.48 33.96 -6.19 28.5 C-6.31 27.57 -6.44 26.63 -6.56 25.67 C-8.56 9.86 -8.56 9.86 -7.5 4.5 C-5 1.3 -4.1 0.59 0 0 Z " fill="#050606" transform="translate(69.5,253.5)"/>
<path d="M0 0 C3.39 1.04 6.62 2.41 9.88 3.81 C11.58 4.53 13.29 5.24 14.99 5.96 C15.82 6.3 16.65 6.65 17.5 7.01 C20.68 8.27 23.92 9.31 27.19 10.3 C29 11 29 11 31 13 C31.66 19.82 31.66 19.82 29.56 23.56 C25.71 25.72 22.17 24.82 18 24 C14.38 22.92 10.89 21.58 7.38 20.19 C6.47 19.84 5.57 19.5 4.64 19.15 C-9.09 13.81 -9.09 13.81 -11 10 C-11.39 6.46 -11.42 4.64 -9.44 1.62 C-6.02 -0.65 -4.09 -0.35 0 0 Z " fill="#050505" transform="translate(181,418)"/>
<path d="M0 0 C11.09 2.22 19.76 18.76 25.75 27.75 C26.37 31.8 26.07 33.29 23.69 36.69 C20.75 38.75 20.75 38.75 17.47 38.88 C12.19 37.28 10.38 34.23 7.31 29.81 C6.19 28.25 5.06 26.7 3.93 25.14 C3.12 24.01 3.12 24.01 2.29 22.85 C-0.26 19.37 -3.1 16.15 -5.96 12.93 C-7.67 10.04 -7.59 8.05 -7.25 4.75 C-5.13 1.52 -3.76 0.87 0 0 Z " fill="#040405" transform="translate(393.25,122.25)"/>
<path d="M0 0 C2.9 2.33 3.88 3.29 4.5 7 C3.88 10.73 2.89 11.63 0 14 C-2.69 14.9 -2.69 14.9 -5.72 15.45 C-7.36 15.76 -7.36 15.76 -9.04 16.08 C-10.18 16.28 -11.32 16.48 -12.5 16.69 C-14.76 17.11 -17.02 17.53 -19.28 17.95 C-20.28 18.13 -21.28 18.31 -22.31 18.49 C-23.93 18.8 -25.54 19.14 -27.14 19.54 C-30.25 20.31 -32.82 20.34 -36 20 C-38.66 17.61 -39.78 15.98 -40.56 12.5 C-39.76 8.94 -37.93 7.02 -35 5 C-31.58 3.68 -28.09 2.92 -24.5 2.19 C-23.52 1.98 -22.54 1.77 -21.53 1.55 C-6.49 -1.49 -6.49 -1.49 0 0 Z " fill="#050505" transform="translate(237,64)"/>
<path d="M0 0 C2.38 1.56 2.38 1.56 4 4 C4.46 7.3 4.67 9.83 2.98 12.8 C1.54 14.69 0.02 16.47 -1.56 18.25 C-2.67 19.56 -3.77 20.87 -4.87 22.18 C-5.41 22.82 -5.95 23.46 -6.5 24.12 C-9.24 27.55 -11.46 31.25 -13.7 35.02 C-15 37 -15 37 -17 38 C-20.87 38.36 -23.15 38.57 -26.44 36.38 C-28.47 33.29 -28.35 31.65 -28 28 C-24.46 20.94 -19.03 14.61 -14.19 8.38 C-13.49 7.47 -13.49 7.47 -12.77 6.54 C-8.9 1.65 -6.44 -0.79 0 0 Z " fill="#040404" transform="translate(118,127)"/>
<path d="M0 0 C3.36 1.35 6.36 3.16 9.44 5.06 C10.69 5.82 10.69 5.82 11.96 6.59 C14.32 8.04 16.66 9.51 19 11 C20.07 11.66 21.13 12.33 22.23 13.01 C27.54 16.64 27.54 16.64 28.7 20.06 C29.01 23.77 28.22 25.74 25.88 28.56 C22.24 30.38 20.9 30.02 17 29 C14.68 27.69 12.56 26.38 10.38 24.88 C9.15 24.05 7.92 23.23 6.69 22.42 C6.08 22.01 5.46 21.6 4.83 21.18 C1.14 18.8 -2.72 16.72 -6.57 14.61 C-9.08 12.95 -10.49 11.59 -12 9 C-11.87 5.92 -11.46 3.81 -9.94 1.12 C-6.75 -0.73 -3.54 -0.54 0 0 Z " fill="#050505" transform="translate(343,82)"/>
<path d="M0 0 C0.79 0.05 1.57 0.11 2.38 0.16 C8.07 0.62 13.62 1.5 19.19 2.75 C20.25 2.98 20.25 2.98 21.33 3.21 C25.54 4.25 28.19 5.43 30.81 8.94 C31.38 12.44 31.38 12.44 30.81 15.94 C28.81 18.44 28.81 18.44 25.81 19.94 C23.11 19.7 20.49 19.35 17.81 18.94 C15.7 18.66 13.59 18.38 11.48 18.11 C9.18 17.78 6.87 17.45 4.56 17.12 C3.39 16.97 2.22 16.82 1.02 16.66 C-0.11 16.5 -1.23 16.34 -2.39 16.17 C-3.92 15.96 -3.92 15.96 -5.47 15.74 C-8.7 14.78 -10.08 13.53 -12.19 10.94 C-12.96 7.98 -12.59 6.07 -12.19 2.94 C-8.81 -0.95 -4.74 -0.36 0 0 Z " fill="#050505" transform="translate(278.1875,63.0625)"/>
<path d="M0 0 C2.38 1.56 2.38 1.56 4 4 C4.44 9.28 3.59 12.74 1.3 17.48 C0.73 18.67 0.16 19.85 -0.43 21.07 C-0.73 21.67 -1.03 22.28 -1.33 22.9 C-2.25 24.75 -3.14 26.61 -4.03 28.48 C-9.02 38.72 -9.02 38.72 -13 41 C-16.56 41.44 -16.56 41.44 -20 41 C-21.94 39.44 -21.94 39.44 -23 37 C-23.53 31.27 -22.18 27.64 -19.31 22.81 C-16.1 17.15 -13.45 11.52 -11.2 5.39 C-8.71 0.44 -5.38 -0.78 0 0 Z " fill="#040404" transform="translate(433,316)"/>
</svg>
