<?xml version="1.0" encoding="UTF-8"?>
<!-- Generator: visioncortex VTracer 0.6.3 -->
<svg version="1.1" xmlns="http://www.w3.org/2000/svg" width="512" height="512">
<path d="M0 0 C1.48 -0.01 1.48 -0.01 3 -0.03 C4.08 -0.03 5.17 -0.03 6.29 -0.03 C7.43 -0.04 8.57 -0.05 9.75 -0.06 C13.54 -0.08 17.33 -0.09 21.12 -0.1 C23.75 -0.11 26.38 -0.12 29.01 -0.12 C34.53 -0.14 40.04 -0.15 45.56 -0.15 C51.93 -0.16 58.31 -0.18 64.68 -0.23 C70.81 -0.27 76.94 -0.28 83.08 -0.28 C85.69 -0.28 88.29 -0.29 90.9 -0.32 C94.55 -0.34 98.19 -0.34 101.84 -0.33 C102.92 -0.34 104 -0.35 105.12 -0.37 C112.44 -0.3 112.44 -0.3 116.27 2.62 C117.22 3.94 117.22 3.94 118.19 5.27 C118.92 6.27 119.64 7.27 120.39 8.29 C121.13 9.41 121.87 10.53 122.6 11.66 C123.2 12.57 123.2 12.57 123.82 13.5 C125.12 15.46 126.4 17.43 127.69 19.4 C129.48 22.11 131.27 24.83 133.06 27.54 C133.5 28.21 133.94 28.88 134.39 29.56 C136.98 33.49 139.63 37.36 142.36 41.2 C143.27 42.47 143.27 42.47 144.19 43.78 C145.28 45.31 146.38 46.83 147.5 48.34 C150.83 53.03 152.28 56.45 152.19 62.27 C150.78 64.97 150.78 64.97 148.57 67.4 C147.74 68.33 146.92 69.25 146.07 70.21 C145.11 71.23 144.15 72.25 143.19 73.27 C142.11 74.45 141.03 75.63 139.94 76.81 C137.71 79.23 135.46 81.65 133.2 84.05 C130.35 87.09 127.59 90.2 124.87 93.35 C122.84 95.69 120.77 97.98 118.69 100.27 C115.44 103.88 112.22 107.52 109.03 111.19 C107.63 112.78 106.2 114.36 104.76 115.92 C103.93 116.82 103.11 117.72 102.26 118.65 C101.48 119.48 100.71 120.31 99.92 121.17 C97.98 123.08 97.98 123.08 98.19 125.27 C98.72 125.47 99.24 125.66 99.78 125.87 C141.17 141.49 169.29 167.71 189.27 207.06 C190.19 209.27 190.19 209.27 190.19 212.27 C191.17 211.74 192.16 211.21 193.17 210.66 C213.45 199.92 235.18 196.33 257.58 202.95 C267.97 206.76 276.95 211.81 285.19 219.27 C285.95 219.94 286.71 220.6 287.49 221.29 C301.01 233.88 309.85 251.81 310.53 270.35 C310.85 293.34 306.04 312.9 290.19 330.27 C289.68 330.88 289.16 331.49 288.63 332.12 C276.52 345.46 257.01 353.65 239.3 354.59 C217.29 355.3 199.81 349.63 182.19 336.27 C181.93 336.99 181.66 337.71 181.38 338.45 C168.85 368.13 137.31 390.79 108.48 402.77 C70.77 417.58 29.02 415.13 -7.74 399.15 C-22.83 392.34 -35.82 382.63 -47.81 371.27 C-48.69 370.45 -49.58 369.63 -50.49 368.79 C-59.79 359.88 -67.76 349.67 -73.81 338.27 C-73.81 337.61 -73.81 336.95 -73.81 336.27 C-74.75 336.94 -75.69 337.6 -76.67 338.29 C-95.93 351.63 -116.76 357.61 -140.22 353.62 C-148.89 351.82 -163.3 347.85 -168.81 340.27 C-169.14 338.15 -169.14 338.15 -169.18 335.84 C-169.45 332.02 -169.45 332.02 -171.99 329.15 C-172.92 328.53 -173.85 327.91 -174.81 327.27 C-175.95 326.1 -177.05 324.89 -178.12 323.65 C-178.63 323.06 -179.14 322.47 -179.67 321.86 C-180.81 320.27 -180.81 320.27 -180.81 318.27 C-181.86 318.52 -182.91 318.77 -183.99 319.02 C-187.81 319.27 -187.81 319.27 -190.35 317.66 C-199.94 308.35 -201.87 292.93 -202.21 280.21 C-202.43 259.14 -197.21 241.16 -182.81 225.27 C-182.11 224.49 -181.41 223.71 -180.69 222.91 C-175.34 217.24 -169.56 213.12 -162.81 209.27 C-162.03 208.81 -161.25 208.35 -160.45 207.87 C-144.01 198.8 -122.89 197.49 -104.81 201.77 C-96.71 204.31 -89.24 208.25 -81.81 212.27 C-81.72 211.61 -81.62 210.94 -81.53 210.25 C-80.61 206.47 -79 203.16 -77.24 199.71 C-76.71 198.66 -76.71 198.66 -76.17 197.59 C-71.81 189.13 -67.02 180.62 -59.81 174.27 C-56.35 173.92 -53.95 173.7 -50.81 175.27 C-50.57 174.7 -50.34 174.13 -50.1 173.54 C-48.52 170.77 -46.57 169.13 -44.18 167.02 C-40.93 164.04 -40.93 164.04 -39.36 160.09 C-39.49 158.15 -39.65 156.21 -39.81 154.27 C-37.02 149.91 -33.28 147.23 -28.99 144.46 C-28.33 144.03 -27.68 143.6 -27 143.16 C-15.17 135.54 -3.09 129.88 10.19 125.27 C10.41 123.2 10.41 123.2 8.91 121.83 C8.32 121.27 7.73 120.72 7.13 120.15 C3.94 117.04 0.99 113.81 -1.92 110.44 C-4.02 108.03 -6.16 105.65 -8.31 103.27 C-11.57 99.66 -14.79 96.01 -17.99 92.34 C-20.08 89.96 -22.19 87.62 -24.31 85.27 C-28.18 80.97 -32.04 76.67 -35.81 72.27 C-36.9 71.03 -36.9 71.03 -38.02 69.77 C-39.12 68.47 -39.12 68.47 -40.24 67.15 C-40.92 66.36 -41.6 65.58 -42.3 64.77 C-44.27 61.51 -44.28 60.06 -43.81 56.27 C-42.35 53.35 -40.49 50.75 -38.59 48.09 C-37.48 46.48 -36.38 44.87 -35.27 43.27 C-34.69 42.44 -34.12 41.62 -33.53 40.77 C-30.78 36.79 -28.14 32.75 -25.49 28.71 C-24.45 27.14 -23.41 25.57 -22.37 23.99 C-20.78 21.6 -19.2 19.21 -17.63 16.82 C-16.07 14.45 -14.5 12.08 -12.93 9.71 C-12.46 8.99 -11.98 8.27 -11.5 7.53 C-11.06 6.87 -10.62 6.2 -10.16 5.52 C-9.78 4.94 -9.39 4.36 -9 3.76 C-6.34 0.44 -4 0.02 0 0 Z " fill="#020202" transform="translate(201.80685424804688,49.72584533691406)"/>
<path d="M0 0 C2.43 2.22 2.43 2.22 4.88 5.06 C5.53 5.81 5.53 5.81 6.19 6.57 C7.47 8.04 8.74 9.52 10 11 C11.78 13.03 13.57 15.05 15.36 17.07 C16.52 18.44 17.65 19.84 18.74 21.27 C22.28 25.82 22.28 25.82 27.56 27.81 C34.08 26.27 37.12 21.94 41.19 16.94 C41.96 15.99 42.72 15.05 43.52 14.08 C44.8 12.49 46.07 10.9 47.32 9.29 C54.96 -0.55 54.96 -0.55 59.36 -1.52 C62.15 -1.05 64.41 -0.13 67 1 C68.21 1.41 69.41 1.81 70.66 2.23 C89.76 8.7 105.34 19.17 120 33 C120.75 33.68 121.5 34.37 122.27 35.07 C134.95 47.08 147.23 65.17 152 82 C151.77 85.99 149.24 88.47 146.81 91.5 C132.82 109.51 130.46 128.76 132 151 C133.43 160.95 137.44 169.69 142.55 178.27 C144.01 181.01 144.82 182.9 145 186 C141.99 194.09 136.18 201.2 131 208 C127.36 206.46 125.01 204.24 122.19 201.5 C112.98 193 102.45 186.12 91 181 C92.49 177.83 94.29 175.03 96.25 172.12 C108.8 152.61 112.52 128.78 108 106 C104.66 94.35 99.08 83.05 91 74 C90.43 73.28 89.86 72.56 89.28 71.82 C76.7 56.4 57.49 47.59 38 45 C14.01 42.84 -7.51 49.01 -26.1 64.45 C-40.84 77.44 -51.79 96.41 -53.24 116.26 C-54.08 138.22 -51.96 158.09 -37.75 175.8 C-36 178 -36 178 -36 180 C-36.92 180.46 -37.84 180.92 -38.79 181.4 C-52.27 188.29 -64.03 196.54 -75 207 C-78.42 203.87 -80.68 200.53 -83.06 196.56 C-83.73 195.45 -84.41 194.34 -85.1 193.19 C-86.04 191.61 -86.04 191.61 -87 190 C-87.62 189.12 -88.23 188.24 -88.87 187.34 C-90 185 -90 185 -89.43 183.15 C-88.96 182.44 -88.49 181.73 -88 181 C-80.31 166.51 -75.69 154.47 -75.56 137.88 C-75.55 136.79 -75.54 135.71 -75.53 134.59 C-75.65 124 -77.76 114.33 -82.69 104.94 C-83.2 103.93 -83.2 103.93 -83.72 102.9 C-86.5 97.61 -89.72 92.91 -93.43 88.23 C-95.02 85.97 -95.6 84.7 -96 82 C-95.49 80.07 -95.49 80.07 -94.59 78.06 C-94.27 77.32 -93.94 76.57 -93.6 75.81 C-93.24 75.02 -92.87 74.24 -92.5 73.44 C-92.13 72.63 -91.77 71.83 -91.39 71 C-88.05 63.81 -84.05 57.23 -79.42 50.8 C-76.91 47.16 -75.98 45.7 -76.12 41.12 C-76.86 38.12 -76.86 38.12 -78 36 C-76.3 34.02 -74.59 32.06 -72.85 30.12 C-70.86 27.9 -70.86 27.9 -68.75 24.94 C-66 23 -66 23 -63.77 23.27 C-62.46 23.54 -62.46 23.54 -61.12 23.81 C-53.86 24.85 -49.57 20.85 -44.01 16.84 C-34.62 10.05 -24.18 5.12 -13.25 1.38 C-12.5 1.11 -11.75 0.85 -10.98 0.59 C-7 -0.69 -3.93 -1.66 0 0 Z " fill="#FCF2C4" transform="translate(228,189)"/>
<path d="M0 0 C13.11 9.83 22.56 24.97 26 41 C26.37 45.03 26.38 49.02 26.31 53.06 C26.32 54.09 26.32 55.11 26.32 56.17 C26.21 72.15 21 85.54 11 98 C10.26 99.03 9.51 100.06 8.75 101.12 C1.44 108.76 -7.15 114.29 -17 118 C-18.46 118.59 -18.46 118.59 -19.95 119.19 C-35.55 124.82 -54.14 123.22 -69.13 116.44 C-87.67 107.43 -99.04 93.1 -106.42 74.08 C-111.11 57.19 -109.25 37.87 -101.17 22.52 C-92.12 7.01 -79.84 -3.64 -63 -10 C-62.22 -10.32 -61.45 -10.64 -60.64 -10.96 C-40.27 -18 -17.12 -12.07 0 0 Z " fill="#FDC5B6" transform="translate(297,261)"/>
<path d="M0 0 C11.92 9.01 20.97 22.42 24.18 37.12 C25.85 57.93 22.71 75.56 9.11 92.06 C-3.11 105.08 -19.61 111.72 -37.26 112.43 C-48.08 112.32 -58.25 109.26 -67.71 104.1 C-70.86 102.64 -73.42 102.64 -76.82 103.12 C-79.17 104 -79.17 104 -80.82 105.12 C-86.12 101.11 -89.89 96.45 -93.82 91.12 C-93.3 90.44 -92.79 89.76 -92.26 89.05 C-90.44 85.34 -90.62 82.94 -91.82 79.12 C-92.61 77.36 -93.42 75.61 -94.26 73.87 C-100.69 60.16 -100.83 43.9 -96.01 29.66 C-89.8 12.7 -77.04 0.04 -60.84 -7.59 C-40.36 -16.33 -18.2 -12.15 0 0 Z " fill="#F7CB58" transform="translate(113.8203125,276.8828125)"/>
<path d="M0 0 C12.99 10.12 23.62 24.34 26 41 C27.54 59.98 23.75 76.85 11.24 91.77 C0.31 104.08 -15.8 112.2 -32.35 113.2 C-49.43 113.42 -64.55 108.47 -77.69 97.29 C-89.58 85.5 -97.28 70.68 -97.47 53.84 C-97.46 52.78 -97.45 51.72 -97.44 50.62 C-97.43 49.52 -97.42 48.41 -97.41 47.27 C-97.25 39.56 -96.59 32.94 -93 26 C-92.5 25 -92 24.01 -91.49 22.98 C-82.84 6.98 -70.25 -2.92 -53.27 -8.97 C-34.71 -14.48 -15.96 -10.74 0 0 Z " fill="#95D87A" transform="translate(471,276)"/>
<path d="M0 0 C2.06 1.18 4.08 2.44 6.06 3.75 C24.28 15.34 45.75 19.37 67 14.81 C69.01 14.25 71.01 13.64 73 13 C74.12 12.67 75.25 12.34 76.4 12 C81.56 10.36 86.18 8.8 90.43 5.39 C93.9 2.63 96.79 0.54 101 -1 C107.03 -0.27 112.12 3.65 117 7 C118.16 7.73 119.32 8.46 120.48 9.18 C128.39 14.34 135.23 20.47 142 27 C125.18 49.11 94.92 60.25 68.45 64.58 C62.07 65.36 55.67 65.35 49.25 65.31 C48.54 65.31 47.84 65.31 47.11 65.31 C36.78 65.26 26.98 64.87 17 62 C15.79 61.66 14.57 61.32 13.32 60.97 C-8.14 54.37 -27.25 43.09 -43 27 C-38.38 15.48 -21.19 7.8 -11 2 C-9.94 1.38 -8.87 0.76 -7.77 0.12 C-4.5 -1.2 -3.29 -1.21 0 0 Z " fill="#25A5FC" transform="translate(206,381)"/>
<path d="M0 0 C18.61 -0.96 34.76 2.78 49.25 15.31 C61.78 27.21 69.82 41.81 70.4 59.24 C70.64 77.06 64.76 92.73 52.46 105.82 C41.97 116.33 26.22 123.71 11.23 124.1 C9.88 124.09 8.54 124.08 7.19 124.06 C6.49 124.06 5.8 124.05 5.09 124.05 C3.39 124.04 1.7 124.02 0 124 C0 123.34 0 122.68 0 122 C1.91 120.52 1.91 120.52 4.5 118.81 C19.28 108.68 29.47 94.77 33.69 77.12 C34.13 72.75 34.08 68.4 34 64 C27.86 69.34 22.21 74.76 17 81 C15.45 82.84 13.89 84.67 12.34 86.5 C11.25 87.78 10.17 89.06 9.09 90.34 C4.41 95.85 4.41 95.85 0.14 96.3 C-3.73 95.93 -4.69 95 -7.31 92.19 C-8.47 90.95 -8.47 90.95 -9.65 89.69 C-12.72 86.17 -15.67 82.57 -18.59 78.92 C-21.74 75.11 -25.07 71.49 -28.46 67.88 C-31.49 64.64 -32.9 63.11 -33.31 58.62 C-33 55 -33 55 -31.44 52.5 C-29 51 -29 51 -25.75 50.75 C-17.46 53.51 -12.34 61.86 -7.08 68.48 C-5.05 71.03 -5.05 71.03 -2.73 73.2 C-1 75 -1 75 -1 77 C7.84 68.26 16.3 59.16 24 49.4 C26 47 26 47 28.81 44.63 C31.36 42.14 31.36 42.14 31.02 38.61 C26.79 23.68 15.33 10.79 2.02 3.3 C1.35 2.87 0.69 2.44 0 2 C0 1.34 0 0.68 0 0 Z " fill="#7ECF5F" transform="translate(427,265)"/>
<path d="M0 0 C7.02 5.4 12.46 10.45 16.5 18.38 C13.86 18.38 11.22 18.38 8.5 18.38 C8.21 17.42 8.21 17.42 7.91 16.44 C7.52 15.2 7.52 15.2 7.12 13.94 C6.87 13.11 6.61 12.29 6.35 11.44 C5.69 9.2 5.69 9.2 3.5 8.38 C0.04 7.96 0.04 7.96 -3.5 8.38 C-6.75 11.19 -6.88 14.27 -7.5 18.38 C-8.38 18.47 -9.26 18.57 -10.17 18.67 C-11.33 18.82 -12.49 18.97 -13.69 19.12 C-14.84 19.26 -15.98 19.4 -17.17 19.55 C-22.07 20.77 -24.45 22.85 -27.29 26.98 C-28.95 31.63 -28.98 35.84 -28.94 40.75 C-28.96 41.66 -28.98 42.56 -29 43.5 C-28.99 49.41 -28.31 54.65 -24.5 59.38 C-20.36 62.65 -16.45 62.84 -11.36 62.89 C-10.59 62.9 -9.82 62.92 -9.02 62.94 C-6.58 63 -4.13 63.03 -1.69 63.06 C-0.02 63.1 1.64 63.13 3.3 63.17 C7.37 63.25 11.43 63.31 15.5 63.38 C15.5 68.32 15.5 73.27 15.5 78.38 C14.31 78.38 13.12 78.39 11.89 78.4 C7.47 78.44 3.05 78.51 -1.37 78.58 C-3.28 78.61 -5.2 78.63 -7.11 78.65 C-9.86 78.67 -12.61 78.71 -15.36 78.77 C-16.21 78.77 -17.07 78.77 -17.95 78.77 C-21.79 78.86 -23.87 78.93 -27.08 81.19 C-28.84 83.45 -28.84 83.45 -28.38 87 C-27.79 90.42 -27.79 90.42 -25.5 92.38 C-23.57 92.74 -23.57 92.74 -21.37 92.79 C-20.56 92.83 -19.76 92.87 -18.93 92.91 C-18.08 92.94 -17.24 92.97 -16.38 93 C-15.53 93.04 -14.68 93.08 -13.8 93.12 C-11.7 93.21 -9.6 93.29 -7.5 93.38 C-7.32 94.31 -7.32 94.31 -7.13 95.27 C-6.97 96.09 -6.8 96.91 -6.62 97.75 C-6.46 98.56 -6.3 99.37 -6.13 100.21 C-5.63 102.56 -5.63 102.56 -3.5 104.38 C1.09 104.85 1.09 104.85 5.31 103.31 C7.04 100.5 7.72 97.56 8.5 94.38 C11.14 94.38 13.78 94.38 16.5 94.38 C10.8 103.49 2.68 114.35 -8.23 117.05 C-16.4 117.46 -23.58 114.03 -30.63 110.23 C-33.61 108.87 -36.28 109.14 -39.5 109.38 C-41.85 110.26 -41.85 110.26 -43.5 111.38 C-48.8 107.37 -52.57 102.71 -56.5 97.38 C-55.98 96.69 -55.47 96.01 -54.94 95.31 C-53.12 91.6 -53.3 89.2 -54.5 85.38 C-55.29 83.61 -56.1 81.86 -56.94 80.12 C-63.37 66.41 -63.51 50.16 -58.69 35.92 C-52.43 18.83 -39.63 6.32 -23.36 -1.4 C-14.49 -5.2 -8.15 -5.73 0 0 Z " fill="#FBDD75" transform="translate(76.5,270.625)"/>
<path d="M0 0 C10.56 0 21.12 0 32 0 C35.12 10.87 35.12 10.87 36.46 15.61 C37.32 18.63 38.19 21.65 39.07 24.67 C39.33 25.6 39.6 26.54 39.88 27.5 C40.1 28.27 40.32 29.05 40.55 29.84 C41.06 32.28 41.08 34.52 41 37 C40.3 37.05 39.6 37.1 38.88 37.15 C37.97 37.22 37.06 37.3 36.12 37.38 C35.22 37.44 34.32 37.51 33.38 37.59 C30.82 37.8 30.82 37.8 29 40 C28.3 45.38 28.3 45.38 30.56 49.94 C33.68 51.3 36.63 51.68 40 52 C37.9 60.15 35.35 68.09 32.59 76.04 C32.17 77.24 31.76 78.44 31.33 79.67 C30.46 82.19 29.59 84.7 28.71 87.22 C27.59 90.44 26.47 93.67 25.36 96.89 C24.29 99.98 23.22 103.07 22.15 106.16 C21.75 107.32 21.35 108.48 20.93 109.67 C20.56 110.74 20.19 111.8 19.81 112.9 C19.48 113.84 19.16 114.78 18.82 115.75 C18 118 18 118 17 120 C16.34 120 15.68 120 15 120 C14 117.13 13 114.27 12 111.4 C11.69 110.51 11.38 109.62 11.06 108.7 C9.35 103.79 7.64 98.89 5.93 93.99 C1.59 81.54 1.59 81.54 -2.78 69.09 C-3.15 68.02 -3.53 66.95 -3.92 65.85 C-4.58 63.96 -5.25 62.06 -5.92 60.17 C-8 54.22 -8 54.22 -8 52 C-6.99 51.94 -6.99 51.94 -5.95 51.89 C-5.06 51.82 -4.17 51.76 -3.25 51.69 C-2.37 51.63 -1.49 51.57 -0.58 51.51 C2.41 50.92 3.86 50.15 6 48 C6.73 45.12 6.34 43.03 6 40 C2.6 37.73 0.83 37.63 -3.19 37.38 C-4.27 37.3 -5.36 37.23 -6.48 37.15 C-7.31 37.1 -8.14 37.05 -9 37 C-8.34 31.87 -7.38 26.9 -6.19 21.88 C-6.03 21.2 -5.88 20.53 -5.72 19.84 C-4.14 13.09 -2.06 6.68 0 0 Z " fill="#B0D7FA" transform="translate(240,65)"/>
<path d="M0 0 C3.5 0.56 3.5 0.56 5.94 2.06 C8.18 5.66 7.61 8.36 7.5 12.56 C8.75 12.52 10.01 12.47 11.3 12.42 C12.95 12.38 14.6 12.35 16.25 12.31 C17.49 12.26 17.49 12.26 18.75 12.21 C24.87 12.11 24.87 12.11 28.05 14.39 C30.03 17.36 30.08 19.06 29.5 22.56 C28.04 24.73 28.04 24.73 25.5 26.56 C22.45 27.12 19.45 27.03 16.36 26.95 C15.48 26.95 14.6 26.94 13.69 26.94 C10.87 26.91 8.06 26.86 5.25 26.81 C3.34 26.79 1.43 26.77 -0.48 26.76 C-5.15 26.71 -9.83 26.64 -14.5 26.56 C-14.5 31.84 -14.5 37.12 -14.5 42.56 C-10.81 42.49 -10.81 42.49 -7.05 42.42 C-4.66 42.39 -2.27 42.37 0.12 42.34 C1.78 42.32 3.44 42.3 5.09 42.26 C7.48 42.21 9.87 42.19 12.26 42.17 C13.36 42.14 13.36 42.14 14.48 42.11 C19.66 42.11 22.58 43.2 26.5 46.56 C29.22 50.1 29.88 52.67 29.9 57.09 C29.9 58.65 29.9 58.65 29.91 60.24 C29.9 61.32 29.89 62.39 29.88 63.5 C29.89 64.57 29.9 65.64 29.91 66.75 C29.89 72.4 29.79 76.74 26.5 81.56 C22.01 85.72 18.84 86.7 12.81 86.62 C11.82 86.62 10.82 86.61 9.8 86.6 C9.04 86.59 8.28 86.57 7.5 86.56 C7.58 87.8 7.66 89.04 7.75 90.31 C7.73 93.37 7.61 94.39 5.94 97.06 C2.52 99.16 0.43 99.19 -3.5 98.56 C-5.94 96.5 -5.94 96.5 -7.5 93.56 C-7.56 91.23 -7.57 88.89 -7.5 86.56 C-8.75 86.62 -10.01 86.68 -11.3 86.74 C-12.95 86.79 -14.6 86.83 -16.25 86.88 C-17.08 86.92 -17.9 86.96 -18.75 87 C-24.89 87.13 -24.89 87.13 -28.04 84.2 C-29.7 81.2 -30.25 79.91 -29.5 76.56 C-27.49 73.87 -25.89 71.87 -22.5 71.13 C-20.07 70.98 -17.69 71 -15.26 71.07 C-13.94 71.08 -13.94 71.08 -12.59 71.1 C-9.79 71.12 -6.99 71.19 -4.19 71.25 C-2.28 71.28 -0.38 71.3 1.53 71.32 C6.18 71.37 10.84 71.46 15.5 71.56 C15.5 66.61 15.5 61.66 15.5 56.56 C13.04 56.61 10.59 56.66 8.05 56.7 C5.66 56.73 3.27 56.76 0.88 56.78 C-0.78 56.8 -2.44 56.83 -4.09 56.86 C-6.48 56.91 -8.87 56.94 -11.26 56.95 C-12.36 56.98 -12.36 56.98 -13.48 57.02 C-18.65 57.02 -21.55 55.86 -25.5 52.56 C-29.96 47.1 -30.12 40.77 -30 34 C-30.02 33.09 -30.03 32.19 -30.05 31.25 C-30.01 25.16 -29.04 21.54 -25.5 16.56 C-21.2 12.57 -18.12 11.42 -12.31 11.5 C-11.41 11.51 -10.51 11.52 -9.58 11.53 C-8.89 11.54 -8.21 11.55 -7.5 11.56 C-7.62 10.23 -7.62 10.23 -7.75 8.88 C-7.34 3.41 -5.48 0.88 0 0 Z " fill="#030301" transform="translate(76.5,277.4375)"/>
<path d="M0 0 C2 1.62 2 1.62 3 4 C2.74 9.74 1.37 12.37 -2.62 16.44 C-3.54 17.39 -4.45 18.34 -5.39 19.32 C-6.25 20.2 -7.11 21.09 -8 22 C-9.14 23.26 -10.26 24.53 -11.38 25.81 C-11.92 26.44 -12.47 27.07 -13.04 27.72 C-14.6 29.54 -16.16 31.36 -17.71 33.18 C-23.55 40.04 -29.48 46.79 -35.62 53.38 C-37.21 55.12 -38.73 56.93 -40.19 58.78 C-42.46 61.56 -43.29 61.92 -46.86 62.3 C-50.73 61.93 -51.69 61 -54.31 58.19 C-55.08 57.36 -55.86 56.54 -56.65 55.69 C-59.72 52.17 -62.67 48.57 -65.59 44.92 C-68.74 41.11 -72.07 37.49 -75.46 33.88 C-78.49 30.64 -79.9 29.11 -80.31 24.62 C-80 21 -80 21 -78.44 18.5 C-76 17 -76 17 -72.75 16.75 C-64.46 19.51 -59.34 27.86 -54.08 34.48 C-52.05 37.03 -52.05 37.03 -49.73 39.2 C-48 41 -48 41 -48 43 C-39.28 34.38 -31.01 25.39 -23.34 15.82 C-20.51 12.41 -17.56 9.13 -14.56 5.88 C-13.78 5.02 -13.78 5.02 -12.98 4.15 C-8.41 -0.78 -6.7 -1.53 0 0 Z " fill="#020301" transform="translate(474,299)"/>
<path d="M0 0 C5.23 1.59 6.62 4.57 9.31 9.12 C11.92 12.62 14.39 14.71 18.5 16.06 C24.54 16.95 30.27 16.66 35.64 13.61 C39.44 10.44 41.89 6.21 44.5 2.06 C45.5 1.06 45.5 1.06 48.81 0.75 C52.5 1.06 52.5 1.06 54.94 2.62 C57.19 6.14 57.18 7.93 56.5 12.06 C51.71 21.78 44.44 27.31 34.5 31.06 C26.63 33.68 16.33 33.05 8.85 29.52 C1.95 25.23 -4.44 19.7 -7.5 12.06 C-8.21 8.07 -8.1 5.05 -5.94 1.5 C-3.5 0.06 -3.5 0.06 0 0 Z " fill="#040303" transform="translate(231.5,325.9375)"/>
<path d="M0 0 C15.57 7.33 28.59 16.03 41 28 C37.27 32.9 33.17 36.64 28.31 40.38 C27.74 40.82 27.17 41.26 26.58 41.71 C24.07 43.61 22.01 45 19 46 C18.33 44.98 17.67 43.97 16.98 42.92 C10.95 33.86 4.63 25.77 -3 18 C-3.79 17.19 -4.58 16.39 -5.4 15.55 C-7.25 13.69 -9.12 11.84 -11 10 C-11.66 9.34 -12.32 8.68 -13 8 C-12.15 7.51 -11.29 7.01 -10.41 6.5 C-9.31 5.86 -8.2 5.22 -7.06 4.56 C-5.96 3.92 -4.86 3.29 -3.72 2.63 C-1.17 1.25 -1.17 1.25 0 0 Z " fill="#0591F9" transform="translate(307,380)"/>
<path d="M0 0 C16.29 -2.63 16.29 -2.63 22.07 1.47 C26.74 6.3 29.95 12.14 33.25 17.94 C34.31 19.67 35.37 21.39 36.45 23.12 C44 35.38 44 35.38 44 37 C32.45 37 20.9 37 9 37 C6.69 30.08 4.65 23.28 2.81 16.25 C2.4 14.73 2.4 14.73 1.99 13.18 C1.73 12.19 1.47 11.21 1.21 10.2 C0.97 9.32 0.74 8.44 0.5 7.54 C-0.01 4.96 -0.09 2.62 0 0 Z " fill="#85C1F4" transform="translate(288,65)"/>
<path d="M0 0 C4.03 0.26 7.74 0.85 11.67 1.8 C11.16 7.38 10.35 12.64 8.85 18.05 C8.38 19.79 8.38 19.79 7.9 21.57 C6.22 27.33 4.43 33.07 2.67 38.8 C-8.88 38.8 -20.43 38.8 -32.33 38.8 C-30.02 35.17 -27.71 31.54 -25.33 27.8 C-24.08 25.56 -22.84 23.31 -21.63 21.04 C-10.01 0.43 -10.01 0.43 0 0 Z " fill="#ACD2F5" transform="translate(212.333251953125,63.196044921875)"/>
<path d="M0 0 C10.56 0 21.12 0 32 0 C29.93 3.45 28.53 5.72 25.89 8.49 C25.01 9.42 25.01 9.42 24.11 10.37 C23.5 11.01 22.88 11.65 22.25 12.31 C20.98 13.66 19.71 15 18.44 16.34 C17.84 16.98 17.24 17.62 16.62 18.27 C14.22 20.83 11.92 23.46 9.64 26.11 C7.62 28.44 5.56 30.72 3.5 33 C0.81 35.98 -1.86 38.97 -4.5 42 C-15.38 54.49 -15.38 54.49 -20 59 C-19.36 55.43 -18.44 52.11 -17.25 48.69 C-16.89 47.66 -16.54 46.62 -16.17 45.56 C-15.78 44.45 -15.4 43.35 -15 42.21 C-14.6 41.06 -14.21 39.92 -13.8 38.75 C-12.97 36.33 -12.13 33.93 -11.29 31.52 C-10 27.82 -8.72 24.12 -7.44 20.42 C-6.63 18.08 -5.81 15.73 -5 13.39 C-4.61 12.28 -4.23 11.17 -3.83 10.03 C-3.47 9 -3.12 7.98 -2.75 6.92 C-2.44 6.02 -2.12 5.11 -1.8 4.18 C-1 2 -1 2 0 0 Z " fill="#87C4F8" transform="translate(296,117)"/>
<path d="M0 0 C10.56 0 21.12 0 32 0 C34.05 5.71 36.09 11.41 38.13 17.12 C38.83 19.06 39.52 20.99 40.21 22.92 C42.49 29.28 44.76 35.63 47 42 C47.28 42.79 47.56 43.58 47.85 44.39 C48.59 46.51 49.32 48.63 50.05 50.75 C50.46 51.92 50.86 53.09 51.28 54.29 C52 57 52 57 51 59 C42.53 49.62 42.53 49.62 38.5 45 C35.86 41.97 33.19 38.98 30.5 36 C27.81 33.02 25.14 30.03 22.5 27 C19.9 24.02 17.27 21.06 14.62 18.12 C13.5 16.87 13.5 16.87 12.35 15.6 C10.73 13.81 9.1 12.02 7.46 10.25 C6.65 9.36 5.84 8.47 5 7.56 C4.26 6.76 3.51 5.96 2.75 5.13 C1 3 1 3 0 0 Z " fill="#AFD5F8" transform="translate(184,117)"/>
<path d="M0 0 C12.54 0 25.08 0 38 0 C40.91 7.77 41.27 12.11 41 20 C40.47 19.65 39.93 19.3 39.38 18.93 C31.4 14.28 23.82 14.22 14.88 14.19 C13.43 14.16 11.98 14.14 10.53 14.11 C7.02 14.05 3.51 14.02 0 14 C0 9.38 0 4.76 0 0 Z " fill="#FEE076" transform="translate(63,305)"/>
<path d="M0 0 C2.5 1.69 3.81 3.01 4.4 6.03 C4.58 8.51 4.59 10.95 4.56 13.44 C4.59 14.28 4.61 15.13 4.63 16 C4.62 20.47 4.45 22.42 1.65 26.06 C-1 28 -1 28 -4 28.62 C-8.15 27.76 -9.42 26.36 -12 23 C-12.7 19.79 -12.65 16.71 -12.56 13.44 C-12.57 12.59 -12.58 11.74 -12.6 10.86 C-12.52 4.69 -12.52 4.69 -10.09 1.47 C-6.3 -1.2 -4.53 -1.18 0 0 Z " fill="#000000" transform="translate(385,172)"/>
<path d="M0 0 C2.5 1.69 3.81 3.01 4.4 6.03 C4.58 8.51 4.59 10.95 4.56 13.44 C4.59 14.28 4.61 15.13 4.63 16 C4.62 20.47 4.45 22.42 1.65 26.06 C-1 28 -1 28 -4 28.62 C-8.15 27.76 -9.42 26.36 -12 23 C-12.7 19.79 -12.65 16.71 -12.56 13.44 C-12.57 12.59 -12.58 11.74 -12.6 10.86 C-12.52 4.69 -12.52 4.69 -10.09 1.47 C-6.3 -1.2 -4.53 -1.18 0 0 Z " fill="#000000" transform="translate(135,172)"/>
<path d="M0 0 C1.96 -0.04 1.96 -0.04 3.96 -0.08 C7.78 0.26 9.6 0.96 12.62 3.25 C14.59 5.84 14.64 7.04 14.44 10.31 C13.58 13.41 13.12 14.33 10.62 16.25 C7.18 16.88 3.69 16.71 0.19 16.69 C-0.77 16.71 -1.72 16.73 -2.71 16.75 C-9.66 16.74 -9.66 16.74 -13 14.44 C-15.03 11.2 -14.91 8.99 -14.38 5.25 C-10.4 0.04 -6.24 0.07 0 0 Z " fill="#000000" transform="translate(402.375,155.75)"/>
<path d="M0 0 C1.29 -0.02 2.57 -0.03 3.9 -0.05 C7.85 0.33 10.27 1.23 13.62 3.31 C15.05 6.17 14.94 8.15 14.62 11.31 C13.27 13.98 13.27 13.98 10.62 16.31 C7.09 17.02 3.65 16.92 0.06 16.81 C-0.9 16.82 -1.85 16.82 -2.84 16.82 C-9.85 16.72 -9.85 16.72 -12.12 14.96 C-14.03 12.45 -14.25 10.44 -14.38 7.31 C-13.19 4.56 -12.22 2.88 -9.72 1.19 C-6.43 -0.04 -3.5 0.01 0 0 Z " fill="#000000" transform="translate(109.375,155.6875)"/>
<path d="M0 0 C1.29 -0.02 2.57 -0.03 3.9 -0.05 C7.85 0.33 10.27 1.23 13.62 3.31 C15.17 6.4 14.92 8.91 14.62 12.31 C13.23 14.51 13.23 14.51 10.62 16.31 C7.28 16.88 4.01 16.82 0.62 16.75 C-0.73 16.76 -0.73 16.76 -2.11 16.77 C-9.75 16.7 -9.75 16.7 -13.38 13.31 C-14.54 9.74 -14.68 8.03 -13.19 4.56 C-9.48 -0.04 -5.72 0.02 0 0 Z " fill="#000000" transform="translate(359.375,155.6875)"/>
<path d="M0 0 C1.96 -0.04 1.96 -0.04 3.96 -0.08 C7.79 0.27 9.63 0.89 12.62 3.25 C14.3 6.6 14.85 8.35 13.94 12 C12.62 14.25 12.62 14.25 9.62 16.25 C6.33 16.7 3.01 16.62 -0.31 16.62 C-1.22 16.65 -2.13 16.67 -3.06 16.7 C-9.69 16.73 -9.69 16.73 -12.97 14.45 C-15.04 11.21 -14.91 9 -14.38 5.25 C-10.4 0.04 -6.24 0.07 0 0 Z " fill="#000000" transform="translate(152.375,155.75)"/>
<path d="M0 0 C0.66 -0.01 1.32 -0.03 2 -0.04 C5.29 1.05 6.27 2.65 8 5.62 C8.57 8.83 8.56 11.94 8.5 15.19 C8.52 16.04 8.53 16.89 8.55 17.76 C8.52 21.67 8.49 23.92 6.22 27.18 C3.9 28.69 2.73 29.19 0 29.19 C-0.66 29.21 -1.32 29.23 -2 29.25 C-5.29 28.22 -6.27 26.56 -8 23.62 C-8.57 20.61 -8.56 17.69 -8.5 14.62 C-8.52 13.83 -8.53 13.04 -8.55 12.22 C-8.52 8.26 -8.27 6.08 -6.22 2.6 C-3.89 0.53 -3.06 -0.06 0 0 Z " fill="#000000" transform="translate(381,128.375)"/>
<path d="M0 0 C0.66 -0.01 1.32 -0.03 2 -0.04 C5.27 1.05 6.27 2.68 8 5.62 C8.57 8.64 8.56 11.56 8.5 14.62 C8.52 15.42 8.53 16.21 8.55 17.03 C8.52 20.99 8.27 23.17 6.22 26.65 C3.88 28.73 3.07 29.29 0 29.19 C-0.66 29.19 -1.32 29.19 -2 29.19 C-5.09 28.32 -6.15 27.28 -8 24.62 C-8.59 21.47 -8.56 18.39 -8.5 15.19 C-8.52 14.34 -8.53 13.49 -8.55 12.62 C-8.52 8.53 -8.31 6.16 -6.22 2.57 C-3.89 0.53 -3.03 -0.06 0 0 Z " fill="#000000" transform="translate(131,128.375)"/>
<path d="M0 0 C3.86 0.63 5.34 1.71 8.06 4.5 C8.69 7.78 8.69 7.78 8.62 11.44 C8.63 13.25 8.63 13.25 8.63 15.09 C7.97 19.04 6.93 20.74 4.06 23.5 C0.56 24.12 0.56 24.12 -2.94 23.5 C-5.82 20.74 -6.85 19.06 -7.47 15.09 C-7.46 13.88 -7.45 12.68 -7.44 11.44 C-7.45 10.23 -7.46 9.02 -7.47 7.78 C-6.69 2.97 -4.82 0.82 0 0 Z " fill="#040303" transform="translate(233.9375,282.5)"/>
<path d="M0 0 C4.54 1.35 4.54 1.35 6.38 4 C6.67 6.58 6.79 8.86 6.75 11.44 C6.76 12.76 6.77 14.07 6.77 15.43 C6.37 19.07 6.06 20.56 3.38 23 C-2.1 23.78 -2.1 23.78 -4.62 23 C-7.39 20.34 -8.51 18.64 -9.19 14.84 C-9.18 5.91 -9.18 5.91 -6.56 1.62 C-3.62 0 -3.62 0 0 0 Z " fill="#080606" transform="translate(278.625,283)"/>
<path d="M0 0 C2.38 1.5 2.38 1.5 4 4 C4.83 8.54 4.58 11.93 2.38 16 C-0.58 18.49 -2.13 19.16 -6 19 C-8.88 17.25 -8.88 17.25 -11 14 C-11.7 10.2 -11.72 6.79 -11 3 C-7.7 -1.27 -5.03 -1.71 0 0 Z " fill="#0A0803" transform="translate(127,316)"/>
<path d="M0 0 C2.82 0.17 4.05 0.49 6.56 1.94 C8.76 5.69 8.71 9.25 8.06 13.5 C6.54 17.26 6.54 17.26 4.06 18.5 C-1.79 18.96 -1.79 18.96 -3.94 18.5 C-6.07 16.4 -6.85 15.02 -7.34 12.06 C-7.33 11.22 -7.32 10.37 -7.31 9.5 C-7.32 8.65 -7.33 7.81 -7.34 6.94 C-6.53 2.01 -4.9 0.62 0 0 Z " fill="#060502" transform="translate(29.9375,315.5)"/>
<path d="M0 0 C4.94 4.43 8.26 9.68 11.81 15.25 C12.41 16.17 13.01 17.1 13.62 18.05 C18 24.85 18 24.85 18 26 C14.04 26 10.08 26 6 26 C2.64 17.85 -0.35 8.9 0 0 Z " fill="#AFD6FA" transform="translate(291,75)"/>
<path d="M0 0 C3.63 0 7.26 0 11 0 C8.13 4.56 4.94 8.45 1.25 12.38 C0.74 12.92 0.24 13.47 -0.29 14.03 C-1.52 15.36 -2.76 16.68 -4 18 C-5.72 13.92 -4.07 10.63 -2.56 6.75 C-2.32 6.1 -2.08 5.45 -1.83 4.78 C-1.23 3.18 -0.61 1.59 0 0 Z " fill="#ADD4F8" transform="translate(296,117)"/>
<path d="M0 0 C0.66 0.33 1.32 0.66 2 1 C0.35 5.62 -1.3 10.24 -3 15 C-3.66 15 -4.32 15 -5 15 C-7.03 10.77 -7.03 10.77 -7 8 C-5.05 4.93 -2.64 2.48 0 0 Z " fill="#84C0F2" transform="translate(260,170)"/>
</svg>
