<?xml version="1.0" encoding="UTF-8"?>
<!-- Generator: visioncortex VTracer 0.6.3 -->
<svg version="1.1" xmlns="http://www.w3.org/2000/svg" width="225" height="225">
<path d="M0 0 C74.25 0 148.5 0 225 0 C225 74.25 225 148.5 225 225 C150.75 225 76.5 225 0 225 C0 150.75 0 76.5 0 0 Z " fill="#FEFEFE" transform="translate(0,0)"/>
<path d="M0 0 C0.66 0.49 1.32 0.98 2 1.49 C3.69 2.81 3.69 2.81 6 5 C6 5.66 6 6.32 6 7 C6.66 7 7.32 7 8 7 C20.19 21.66 23.13 37.41 22 56 C20.16 69.61 13.65 80.47 4 90 C3.37 90.65 2.75 91.3 2.1 91.96 C-8.76 102.44 -24.4 106.53 -39.14 106.35 C-56.31 105.74 -70.55 97.25 -82 85 C-93.5 71.97 -96.13 57.4 -95.45 40.53 C-95.03 34.16 -93.92 28.71 -91 23 C-90.49 21.99 -89.98 20.98 -89.46 19.94 C-81.31 5.01 -69.62 -4.9 -53.5 -10.34 C-34.51 -15.33 -15.67 -11.71 0 0 Z " fill="#2F3343" transform="translate(149,53)"/>
<path d="M0 0 C0.98 0.01 1.95 0.02 2.96 0.03 C4.06 0.04 4.06 0.04 5.19 0.06 C5.19 2.37 5.19 4.68 5.19 7.06 C6.45 7.14 7.7 7.23 9 7.31 C21.78 8.81 32.28 15.1 40.56 24.88 C49.69 37 51.54 49.31 50.19 64.06 C48.56 73.05 44.34 80.44 38.19 87.06 C37.58 87.73 36.98 88.4 36.36 89.09 C33.25 92.4 30.69 94.83 26.19 96.06 C27.18 98.37 28.17 100.68 29.19 103.06 C15.42 110.59 1.54 112.09 -13.72 108.09 C-27.39 103.54 -39.66 93.09 -46.5 80.38 C-50.02 72.95 -52.04 65.29 -51.81 57.06 C-48.18 57.06 -44.55 57.06 -40.81 57.06 C-40.48 58.51 -40.48 58.51 -40.15 59.99 C-37.46 71.28 -33.51 81.91 -23.81 89.06 C-15.29 93.93 -8.15 97.26 1.81 97.25 C2.87 97.25 2.87 97.25 3.96 97.25 C9.56 97.2 14.76 96.44 20.19 95.06 C19.63 94.02 19.07 92.98 18.5 91.91 C14.53 84.45 10.6 76.99 6.81 69.44 C6.49 68.8 6.17 68.16 5.84 67.51 C4.94 65.7 4.06 63.88 3.19 62.06 C2.66 61.04 2.14 60.02 1.6 58.97 C-0.35 54.36 -0.19 49.9 -0.11 44.97 C-0.1 44.03 -0.1 43.08 -0.09 42.11 C-0.08 39.12 -0.04 36.12 0 33.12 C0.02 31.09 0.03 29.05 0.04 27.01 C0.07 22.02 0.13 17.04 0.19 12.06 C-10.67 13.75 -20.33 16.59 -27.81 25.06 C-28.47 25.06 -29.13 25.06 -29.81 25.06 C-30.09 25.64 -30.37 26.21 -30.66 26.8 C-31.78 29 -33 31.12 -34.25 33.25 C-37.75 39.53 -39.9 45.91 -40.81 53.06 C-44.44 53.06 -48.07 53.06 -51.81 53.06 C-52.71 41.67 -48.27 31.25 -41.81 22.06 C-41.38 21.45 -40.96 20.84 -40.52 20.21 C-30.98 7.95 -15.56 -0.19 0 0 Z " fill="#F2F4F6" transform="translate(109.8125,44.9375)"/>
<path d="M0 0 C10.76 -0.17 19.67 3.73 27.78 10.78 C36.69 19.7 41.1 29.9 41.5 42.5 C41.07 56.42 35.45 67.02 25.61 76.59 C22.97 78.9 21.57 80 18 80 C1.04 53.25 -2.59 31.39 0 0 Z " fill="#2E3142" transform="translate(115,57)"/>
<path d="M0 0 C0.99 0 1.98 0 3 0 C2.69 3.57 1.74 5.54 -0.56 8.19 C-3.22 10.63 -3.22 10.63 -3 13 C-0.83 12.17 -0.83 12.17 0 10 C0.99 11.48 0.99 11.48 2 13 C1.67 13.99 1.34 14.98 1 16 C2.65 15.67 4.3 15.34 6 15 C6.33 13.02 6.66 11.04 7 9 C7.99 8.67 8.98 8.34 10 8 C10.48 9.04 10.97 10.08 11.47 11.16 C15 18.73 18.58 26.27 22.31 33.75 C22.8 34.73 22.8 34.73 23.3 35.73 C24.68 38.5 26.11 41.19 27.73 43.83 C29 46 29 46 29 48 C19 52.04 7.36 52.83 -2.94 49.38 C-14.1 44.61 -23.36 37.4 -28 26 C-27.67 25.34 -27.34 24.68 -27 24 C-26.67 24.99 -26.34 25.98 -26 27 C-25.34 27 -24.68 27 -24 27 C-24.33 25.68 -24.66 24.36 -25 23 C-24.01 22.34 -23.02 21.68 -22 21 C-22.33 22.32 -22.66 23.64 -23 25 C-22.01 25 -21.02 25 -20 25 C-19.73 24.41 -19.46 23.82 -19.18 23.21 C-18 21 -16.75 19.42 -15.06 17.56 C-12.71 14.95 -10.42 12.31 -8.2 9.59 C-7.71 9 -7.23 8.41 -6.72 7.8 C-5.75 6.61 -4.78 5.42 -3.82 4.22 C-2.61 2.75 -1.31 1.37 0 0 Z " fill="#303445" transform="translate(101,92)"/>
<path d="M0 0 C10.76 5.81 18 13.05 22.44 24.69 C25.8 36.03 24.88 47.28 20 58 C18.79 60.18 17.54 62.03 16 64 C14.68 63.34 13.36 62.68 12 62 C12.99 61.5 12.99 61.5 14 61 C13.34 61 12.68 61 12 61 C12 60.01 12 59.02 12 58 C13.49 57.5 13.49 57.5 15 57 C16.71 54 16.71 54 18 51 C17.34 51 16.68 51 16 51 C15.67 51.99 15.34 52.98 15 54 C14.34 53.34 13.68 52.68 13 52 C12.34 51.67 11.68 51.34 11 51 C11 50.34 11 49.68 11 49 C9.93 49 8.85 49 7.75 49 C5.17 49 2.58 49 0 49 C0 47.35 0 45.7 0 44 C-1.7 44.03 -1.7 44.03 -3.44 44.06 C-7 44 -7 44 -8 43 C-8.04 41 -8.04 39 -8 37 C-6.02 36.5 -6.02 36.5 -4 36 C-3.67 37.32 -3.34 38.64 -3 40 C-2.01 40 -1.02 40 0 40 C0 37.69 0 35.38 0 33 C-0.78 32.73 -1.57 32.46 -2.38 32.19 C-5 31 -5 31 -7 28 C-7.51 24.12 -7.29 22.47 -5.19 19.12 C-3 17 -3 17 0 17 C0 15.35 0 13.7 0 12 C-1.32 11.67 -2.64 11.34 -4 11 C-4 10.34 -4 9.68 -4 9 C-3.34 9 -2.68 9 -2 9 C-1.34 6.03 -0.68 3.06 0 0 Z " fill="#323446" transform="translate(132,61)"/>
<path d="M0 0 C1.61 1.69 1.61 1.69 3 4 C2.49 6.34 2.49 6.34 1.31 8.94 C-1.24 15.18 -2.19 21.33 -3 28 C0.63 28 4.26 28 8 28 C8.12 26.41 8.25 24.82 8.38 23.19 C8.66 19.51 8.89 18.16 11 15 C11.99 15 12.98 15 14 15 C14.33 15.66 14.66 16.32 15 17 C14.67 17.99 14.34 18.98 14 20 C14.99 19.67 15.98 19.34 17 19 C19.45 19.27 19.45 19.27 22.12 19.81 C23.01 19.98 23.9 20.16 24.82 20.33 C25.54 20.55 26.26 20.77 27 21 C28.4 23.8 28.25 25.9 28 29 C26.86 30.7 26.86 30.7 25 32 C22.22 32.14 22.22 32.14 19.06 31.81 C18.02 31.72 16.98 31.62 15.91 31.52 C13.21 31.04 11.35 30.37 9 29 C9.33 29.99 9.66 30.98 10 32 C9.56 34.69 9.56 34.69 9 37 C8.67 37 8.34 37 8 37 C8 35.35 8 33.7 8 32 C4.37 32 0.74 32 -3 32 C-0.19 48.18 4.75 62.26 18 73 C30.49 81.56 43.66 85.77 59 84 C68.78 82.01 68.78 82.01 77 77 C76.34 75.02 75.68 73.04 75 71 C76.32 70.34 77.64 69.68 79 69 C79.33 69.66 79.66 70.32 80 71 C80.99 70.34 81.98 69.68 83 69 C82.96 69.95 82.92 70.9 82.88 71.88 C82.65 75.1 82.65 75.1 85 77 C84 80 84 80 81.48 81.5 C66.64 88.26 50.82 92.31 34.77 87.09 C17.48 80.29 4.41 70.02 -3.61 52.82 C-8.99 40.15 -9.38 23.97 -5.19 10.88 C-4.51 9.23 -3.78 7.6 -3 6 C-2.69 5.33 -2.38 4.65 -2.07 3.96 C-1.43 2.62 -0.72 1.3 0 0 Z " fill="#353744" transform="translate(61,70)"/>
<path d="M0 0 C1.4 0.26 2.79 0.53 4.19 0.81 C4.96 0.96 5.74 1.11 6.54 1.27 C11.14 2.64 13.83 4.35 16.24 8.5 C16.94 9.85 17.63 11.2 18.31 12.56 C18.67 13.25 19.03 13.93 19.4 14.64 C22 19.68 22 19.68 22 22 C10.84 26.51 -1.52 26.75 -12.67 22.17 C-15.2 20.9 -17.6 19.49 -20 18 C-19.67 17.34 -19.34 16.68 -19 16 C-19.66 15.34 -20.32 14.68 -21 14 C-20.62 11.88 -20.62 11.88 -20 10 C-18.68 10 -17.36 10 -16 10 C-16 8.68 -16 7.36 -16 6 C-15.01 6 -14.02 6 -13 6 C-12.67 6.99 -12.34 7.98 -12 9 C-11.01 8.67 -10.02 8.34 -9 8 C-9 8.66 -9 9.32 -9 10 C-8.34 10 -7.68 10 -7 10 C-7 9.34 -7 8.68 -7 8 C-8.65 8 -10.3 8 -12 8 C-11.67 6.68 -11.34 5.36 -11 4 C-9 4 -9 4 -6.06 4.25 C-2.89 4.34 -2.89 4.34 -1.12 2 C-0.75 1.34 -0.38 0.68 0 0 Z " fill="#2D3243" transform="translate(108,118)"/>
<path d="M0 0 C1.61 1.69 1.61 1.69 3 4 C2.49 6.34 2.49 6.34 1.31 8.94 C-1.24 15.18 -2.19 21.33 -3 28 C0.63 28 4.26 28 8 28 C8.12 26.41 8.25 24.82 8.38 23.19 C8.66 19.51 8.89 18.16 11 15 C11.99 15 12.98 15 14 15 C14.33 15.66 14.66 16.32 15 17 C14.67 17.99 14.34 18.98 14 20 C14.99 19.67 15.98 19.34 17 19 C19.45 19.27 19.45 19.27 22.12 19.81 C23.01 19.98 23.9 20.16 24.82 20.33 C25.54 20.55 26.26 20.77 27 21 C28.4 23.8 28.25 25.9 28 29 C26.86 30.7 26.86 30.7 25 32 C22.22 32.14 22.22 32.14 19.06 31.81 C18.02 31.72 16.98 31.62 15.91 31.52 C13.21 31.04 11.35 30.37 9 29 C9.33 29.99 9.66 30.98 10 32 C9.56 34.69 9.56 34.69 9 37 C8.67 37 8.34 37 8 37 C8 35.35 8 33.7 8 32 C4.37 32 0.74 32 -3 32 C-2.91 33.89 -2.91 33.89 -2.81 35.81 C-2.79 39.72 -2.79 39.72 -4.5 42 C-5.24 42.5 -5.24 42.5 -6 43 C-8.88 40.12 -7.31 31.25 -7.32 27.37 C-7.24 19.48 -6.5 13.16 -3 6 C-2.69 5.33 -2.38 4.65 -2.07 3.96 C-1.43 2.62 -0.72 1.3 0 0 Z " fill="#353846" transform="translate(61,70)"/>
<path d="M0 0 C1.32 0 2.64 0 4 0 C4 1.65 4 3.3 4 5 C6.64 5 9.28 5 12 5 C12 7.31 12 9.62 12 12 C10.68 12 9.36 12 8 12 C8 11.01 8 10.02 8 9 C6.68 9 5.36 9 4 9 C4 11.64 4 14.28 4 17 C4.76 17.1 5.53 17.21 6.31 17.31 C9.3 18.08 10.36 18.41 12 21 C12.51 25 12.64 27.11 10.25 30.44 C8 32 8 32 4 32 C4 33.65 4 35.3 4 37 C2.68 37 1.36 37 0 37 C0 35.35 0 33.7 0 32 C-1.7 32.03 -1.7 32.03 -3.44 32.06 C-7 32 -7 32 -8 31 C-8.04 29 -8.04 27 -8 25 C-6.68 24.67 -5.36 24.34 -4 24 C-3.67 25.32 -3.34 26.64 -3 28 C-2.01 28 -1.02 28 0 28 C0 25.69 0 23.38 0 21 C-0.78 20.73 -1.57 20.46 -2.38 20.19 C-5 19 -5 19 -7 16 C-7.51 12.12 -7.29 10.47 -5.19 7.12 C-3 5 -3 5 0 5 C0 3.35 0 1.7 0 0 Z " fill="#F2F4F7" transform="translate(132,73)"/>
<path d="M0 0 C1.88 1.88 2.74 3.21 3.91 5.55 C4.26 6.25 4.61 6.95 4.97 7.67 C5.33 8.4 5.69 9.12 6.06 9.88 C6.43 10.6 6.79 11.32 7.17 12.06 C7.51 12.76 7.86 13.46 8.22 14.18 C8.54 14.82 8.86 15.45 9.18 16.11 C10.04 18.1 10.7 19.85 11 22 C10.34 22.66 9.68 23.32 9 24 C8.63 23.53 8.26 23.05 7.88 22.56 C5.37 20.48 3.18 20.35 0 20 C0 19.34 0 18.68 0 18 C-0.7 18.5 -1.4 18.99 -2.12 19.5 C-5.45 21.24 -7.3 21.56 -11 21 C-12.94 19.38 -12.94 19.38 -14 17 C-13.88 13.88 -13.88 13.88 -13 11 C-9.77 8.85 -8.72 8.8 -5 9 C-5 8.34 -5 7.68 -5 7 C-4.34 7 -3.68 7 -3 7 C-2.88 6.03 -2.75 5.06 -2.62 4.06 C-2.42 3.05 -2.21 2.04 -2 1 C-1.34 0.67 -0.68 0.34 0 0 Z " fill="#363748" transform="translate(110,100)"/>
<path d="M0 0 C0.99 0 1.98 0 3 0 C2.22 6.82 -2.66 11 -7 16 C-7.81 16.97 -8.62 17.94 -9.46 18.94 C-10.23 19.84 -11.01 20.75 -11.81 21.69 C-12.52 22.52 -13.23 23.35 -13.96 24.2 C-16 26 -16 26 -20 26 C-19.43 22.12 -17.66 20.24 -15 17.44 C-10.72 12.82 -6.71 8.05 -2.75 3.15 C-1 1 -1 1 0 0 Z " fill="#E9EDF1" transform="translate(101,92)"/>
<path d="M0 0 C3 2 3 2 3.4 3.88 C3.39 4.58 3.38 5.28 3.38 6 C3.38 6.7 3.39 7.4 3.4 8.12 C3 10 3 10 0 12 C-3 12.38 -3 12.38 -6 12 C-7.94 10.38 -7.94 10.38 -9 8 C-8.88 4.88 -8.88 4.88 -8 2 C-4.75 -0.16 -3.76 -0.38 0 0 Z " fill="#F0F3F6" transform="translate(105,109)"/>
<path d="M0 0 C1.88 1.12 1.88 1.12 3 3 C3.39 6.14 3.48 8.13 1.94 10.94 C-1.18 12.65 -3.65 11.79 -7 11 C-9 9 -9 9 -9.31 6.06 C-9 3 -9 3 -7.88 1.12 C-5.12 -0.53 -3.15 -0.39 0 0 Z " fill="#EBEFF3" transform="translate(86,90)"/>
<path d="M0 0 C2.56 2.56 2.28 3.63 2.38 7.19 C2.41 8.22 2.45 9.24 2.48 10.3 C2.51 11.38 2.54 12.45 2.56 13.56 C2.62 15.69 2.69 17.82 2.75 19.94 C2.79 21.36 2.79 21.36 2.83 22.81 C2.76 24.98 2.76 24.98 4 26 C4.04 27.67 4.04 29.33 4 31 C3.67 30.34 3.34 29.68 3 29 C2.34 29.33 1.68 29.66 1 30 C1.33 32.31 1.66 34.62 2 37 C1.01 37 0.02 37 -1 37 C-1.5 39.47 -1.5 39.47 -2 42 C-2.99 41.01 -3.98 40.02 -5 39 C-4.72 38.28 -4.45 37.55 -4.16 36.8 C-3.8 35.84 -3.44 34.87 -3.06 33.88 C-2.7 32.92 -2.34 31.97 -1.97 30.99 C0.23 24.22 0.12 17.68 0.06 10.62 C0.06 9.6 0.05 8.58 0.05 7.53 C0.04 5.02 0.02 2.51 0 0 Z " fill="#E5E8EB" transform="translate(170,87)"/>
<path d="M0 0 C0.99 0 1.98 0 3 0 C3 1.65 3 3.3 3 5 C5.64 5 8.28 5 11 5 C11 7.31 11 9.62 11 12 C9.68 12 8.36 12 7 12 C7 11.01 7 10.02 7 9 C5.68 9 4.36 9 3 9 C3 11.64 3 14.28 3 17 C2.01 17 1.02 17 0 17 C0 11.39 0 5.78 0 0 Z " fill="#F5F7FB" transform="translate(133,73)"/>
<path d="M0 0 C2.64 0 5.28 0 8 0 C8 0.66 8 1.32 8 2 C8.66 2 9.32 2 10 2 C10.66 3.98 11.32 5.96 12 8 C9.36 8 6.72 8 4 8 C3.67 7.34 3.34 6.68 3 6 C2.34 6 1.68 6 1 6 C0.34 6.66 -0.32 7.32 -1 8 C-1.12 2.25 -1.12 2.25 0 0 Z " fill="#B3B3B6" transform="translate(96,182)"/>
<path d="M0 0 C4.62 0 9.24 0 14 0 C14 1.98 14 3.96 14 6 C9.22 6.09 5.3 6.15 1 4 C0.67 4.66 0.34 5.32 0 6 C0 4.02 0 2.04 0 0 Z " fill="#99989D" transform="translate(109,184)"/>
<path d="M0 0 C0.66 0.33 1.32 0.66 2 1 C1.99 2.13 1.99 2.13 1.98 3.29 C1.96 6.74 1.95 10.18 1.94 13.62 C1.93 14.81 1.92 16 1.91 17.23 C1.91 18.96 1.91 18.96 1.9 20.73 C1.89 22.31 1.89 22.31 1.89 23.93 C1.92 27.05 1.92 27.05 2.63 30.27 C2.75 31.17 2.87 32.07 3 33 C2.34 33.66 1.68 34.32 1 35 C0.69 33.87 0.38 32.73 0.06 31.56 C-0.63 28.21 -0.63 28.21 -2 27 C-2.24 19.48 -2.24 19.48 -1 17 C-0.93 13.42 -1 9.86 -1.06 6.29 C-1 3 -1 3 0 0 Z " fill="#E6E6ED" transform="translate(53,85)"/>
<path d="M0 0 C0.33 0 0.66 0 1 0 C1.89 5.94 1.97 11.07 1 17 C-0.32 16.34 -1.64 15.68 -3 15 C-3 13.02 -3 11.04 -3 9 C-3.99 8.67 -4.98 8.34 -6 8 C-4.69 6.5 -4.69 6.5 -3 5 C-2.01 5 -1.02 5 0 5 C0 3.35 0 1.7 0 0 Z " fill="#B5B7BB" transform="translate(132,73)"/>
<path d="M0 0 C3 1 3 1 4 3 C4.04 5.33 4.04 7.67 4 10 C1.36 10 -1.28 10 -4 10 C-4 7.69 -4 5.38 -4 3 C-2.35 3 -0.7 3 1 3 C0.67 2.01 0.34 1.02 0 0 Z " fill="#E8E9ED" transform="translate(140,91)"/>
<path d="M0 0 C0.66 0 1.32 0 2 0 C1.34 1.98 0.68 3.96 0 6 C0.66 6 1.32 6 2 6 C2.33 5.01 2.66 4.02 3 3 C3.99 3 4.98 3 6 3 C5.12 8.75 5.12 8.75 4 11 C2.12 10.69 2.12 10.69 0 10 C-2 7 -2 7 -1.69 3.88 C-1 1 -1 1 0 0 Z " fill="#C1C4C6" transform="translate(98,110)"/>
<path d="M0 0 C3.06 0.12 3.06 0.12 5.06 1.12 C5.06 3.44 5.06 5.75 5.06 8.12 C4.07 7.8 3.08 7.47 2.06 7.12 C1.73 6.47 1.4 5.81 1.06 5.12 C-0.92 5.12 -2.9 5.12 -4.94 5.12 C-3.82 0.16 -3.82 0.16 0 0 Z " fill="#EFF5F8" transform="translate(82.9375,89.875)"/>
<path d="M0 0 C2.06 -0.34 2.06 -0.34 4.57 -0.29 C5.47 -0.28 6.36 -0.27 7.29 -0.26 C8.69 -0.23 8.69 -0.23 10.12 -0.19 C11.07 -0.17 12.01 -0.16 12.99 -0.15 C15.33 -0.11 17.66 -0.06 20 0 C20 0.33 20 0.66 20 1 C12.66 3.35 5.66 3.19 -2 3 C-1.34 2.01 -0.68 1.02 0 0 Z " fill="#DADCE4" transform="translate(108,152)"/>
<path d="M0 0 C0.99 0.16 1.98 0.32 3 0.49 C7 1.06 10.97 1.15 15 1.12 C16.01 1.13 16.01 1.13 17.04 1.14 C21.47 1.13 25.64 0.71 30 0 C29.01 1.49 29.01 1.49 28 3 C25.29 3.34 25.29 3.34 21.9 3.29 C20.08 3.28 20.08 3.28 18.23 3.26 C16.96 3.24 15.68 3.21 14.38 3.19 C13.1 3.17 11.82 3.16 10.5 3.15 C7.33 3.11 4.17 3.06 1 3 C0.67 2.01 0.34 1.02 0 0 Z " fill="#DEE3EA" transform="translate(97,141)"/>
<path d="M0 0 C2.56 2.56 2.28 3.63 2.38 7.19 C2.41 8.22 2.45 9.24 2.48 10.3 C2.51 11.38 2.54 12.45 2.56 13.56 C2.62 15.69 2.69 17.82 2.75 19.94 C2.78 20.89 2.8 21.83 2.83 22.81 C2.76 24.98 2.76 24.98 4 26 C4.04 27.67 4.04 29.33 4 31 C3.67 30.34 3.34 29.68 3 29 C2.34 29 1.68 29 1 29 C0.67 19.43 0.34 9.86 0 0 Z " fill="#CCCED5" transform="translate(170,87)"/>
<path d="M0 0 C0.33 0 0.66 0 1 0 C1.33 1.65 1.66 3.3 2 5 C3.65 5.33 5.3 5.66 7 6 C7.33 5.01 7.66 4.02 8 3 C8.66 4.98 9.32 6.96 10 9 C6.37 9.2 4.13 8.86 1 7 C1.33 7.99 1.66 8.98 2 10 C1.56 12.69 1.56 12.69 1 15 C0.67 15 0.34 15 0 15 C-1.21 9.77 -0.76 5.23 0 0 Z " fill="#373B4C" transform="translate(69,92)"/>
<path d="M0 0 C2.97 -0.07 5.65 -0.08 8.56 0.56 C11.33 1.06 13.3 0.69 16 0 C15.67 3.3 15.34 6.6 15 10 C14.67 10 14.34 10 14 10 C14 7.69 14 5.38 14 3 C10.37 3 6.74 3 3 3 C3 2.34 3 1.68 3 1 C2.01 0.67 1.02 0.34 0 0 Z " fill="#1D202E" transform="translate(101,42)"/>
<path d="M0 0 C0.66 0 1.32 0 2 0 C2.66 0.99 3.32 1.98 4 3 C4.99 3 5.98 3 7 3 C6.67 4.65 6.34 6.3 6 8 C4.02 8 2.04 8 0 8 C0 5.36 0 2.72 0 0 Z " fill="#282A3C" transform="translate(70,90)"/>
<path d="M0 0 C1.98 0 3.96 0 6 0 C6 1.98 6 3.96 6 6 C3.69 6 1.38 6 -1 6 C-1.33 4.68 -1.66 3.36 -2 2 C-0.52 2.99 -0.52 2.99 1 4 C0.67 2.68 0.34 1.36 0 0 Z " fill="#7E7D82" transform="translate(117,184)"/>
<path d="M0 0 C4.75 1.88 4.75 1.88 7 3 C7 3.66 7 4.32 7 5 C4.5 6.62 4.5 6.62 2 8 C2 7.34 2 6.68 2 6 C1.01 6 0.02 6 -1 6 C-1.33 5.01 -1.66 4.02 -2 3 C-1.34 3 -0.68 3 0 3 C0 2.01 0 1.02 0 0 Z " fill="#C5C5C6" transform="translate(129,184)"/>
<path d="M0 0 C5.45 1.49 5.45 1.49 11 3 C11 3.66 11 4.32 11 5 C11.66 5.33 12.32 5.66 13 6 C7.34 5.5 3.12 4.45 -2 2 C-1.34 1.34 -0.68 0.68 0 0 Z " fill="#DCDDE4" transform="translate(91,148)"/>
<path d="M0 0 C0.33 0 0.66 0 1 0 C1.19 2.88 1.19 2.88 1 6 C0.01 6.66 -0.98 7.32 -2 8 C-2.33 7.01 -2.66 6.02 -3 5 C-5.02 4.27 -5.02 4.27 -7 4 C-7 3.01 -7 2.02 -7 1 C-5.68 1.33 -4.36 1.66 -3 2 C-3 2.66 -3 3.32 -3 4 C-2.34 4 -1.68 4 -1 4 C-0.67 2.68 -0.34 1.36 0 0 Z " fill="#9A9EA5" transform="translate(88,93)"/>
<path d="M0 0 C3.96 0 7.92 0 12 0 C11.67 1.32 11.34 2.64 11 4 C4.25 3.25 4.25 3.25 2 1 C1.67 1.66 1.34 2.32 1 3 C0.67 2.01 0.34 1.02 0 0 Z " fill="#2C2B38" transform="translate(57,98)"/>
<path d="M0 0 C2.15 2.62 3.4 4.64 4 8 C3.01 7.67 2.02 7.34 1 7 C-0.22 6.93 -0.22 6.93 -2 8 C-3.12 4.25 -3.12 4.25 -2 2 C-1.34 2 -0.68 2 0 2 C0 1.34 0 0.68 0 0 Z " fill="#E9EAED" transform="translate(71,114)"/>
<path d="M0 0 C0.99 0.99 1.98 1.98 3 3 C1.68 4.32 0.36 5.64 -1 7 C-1.99 5.68 -2.98 4.36 -4 3 C-2.68 2.01 -1.36 1.02 0 0 Z " fill="#454454" transform="translate(76,53)"/>
<path d="M0 0 C3.63 0 7.26 0 11 0 C11 2.31 11 4.62 11 7 C10.48 6.2 9.97 5.39 9.44 4.56 C6.37 1.34 4.35 1.25 0 1 C0 0.67 0 0.34 0 0 Z " fill="#D1D5DE" transform="translate(104,45)"/>
<path d="M0 0 C0.99 0 1.98 0 3 0 C4 3 4 3 3.06 5.19 C2.54 6.08 2.54 6.08 2 7 C2.66 7.33 3.32 7.66 4 8 C3.34 8.66 2.68 9.32 2 10 C-1 4.25 -1 4.25 -1 2 C-0.67 1.67 -0.34 1.34 0 1 C0 0.67 0 0.34 0 0 Z " fill="#DDE1E7" transform="translate(123,121)"/>
<path d="M0 0 C1.98 0.99 1.98 0.99 4 2 C3.69 3.94 3.69 3.94 3 6 C2.01 6.33 1.02 6.66 0 7 C0 4.69 0 2.38 0 0 Z " fill="#47484B" transform="translate(136,94)"/>
<path d="M0 0 C0.66 0 1.32 0 2 0 C2.66 1.98 3.32 3.96 4 6 C2.02 6 0.04 6 -2 6 C-1.34 4.02 -0.68 2.04 0 0 Z " fill="#727177" transform="translate(104,184)"/>
<path d="M0 0 C2.06 0.44 2.06 0.44 4 1 C4 1.99 4 2.98 4 4 C3.01 3.67 2.02 3.34 1 3 C0.34 4.32 -0.32 5.64 -1 7 C-1.04 5 -1.04 3 -1 1 C-0.67 0.67 -0.34 0.34 0 0 Z " fill="#C9CBD4" transform="translate(125,97)"/>
<path d="M0 0 C1.98 0.66 3.96 1.32 6 2 C5.01 3.49 5.01 3.49 4 5 C2.68 5 1.36 5 0 5 C0 3.35 0 1.7 0 0 Z " fill="#E4E9EE" transform="translate(91,138)"/>
<path d="M0 0 C0.33 0 0.66 0 1 0 C2.33 10.56 2.33 10.56 1 15 C0.67 15 0.34 15 0 15 C-1.21 9.77 -0.76 5.23 0 0 Z " fill="#5F6170" transform="translate(69,92)"/>
<path d="M0 0 C2.92 1.07 4.78 1.78 7 4 C4.69 4 2.38 4 0 4 C0 2.68 0 1.36 0 0 Z " fill="#292B38" transform="translate(137,74)"/>
</svg>
