<svg width="32" height="24" viewBox="0 0 32 24" fill="none" xmlns="http://www.w3.org/2000/svg">
<g clip-path="url(#clip0_4_26812)">
<rect width="32" height="24" fill="white"/>
<path fill-rule="evenodd" clip-rule="evenodd" d="M0 0V24H32V0H0Z" fill="#F7FCFF"/>
<mask id="mask0_4_26812" style="mask-type:luminance" maskUnits="userSpaceOnUse" x="0" y="0" width="32" height="24">
<path fill-rule="evenodd" clip-rule="evenodd" d="M0 0V24H32V0H0Z" fill="white"/>
</mask>
<g mask="url(#mask0_4_26812)">
<path fill-rule="evenodd" clip-rule="evenodd" d="M0 0V8H32V0H0Z" fill="#E31D1C"/>
<path fill-rule="evenodd" clip-rule="evenodd" d="M0 16V24H32V16H0Z" fill="#3D58DB"/>
<rect x="10.0766" y="6.39746" width="11.4" height="4" fill="#E31D1C"/>
<path d="M10.6523 8.95996H20.7808C20.7979 9.72892 20.8031 11.0703 20.803 12.3617C20.8029 13.1956 20.8007 13.9984 20.7985 14.5929C20.7974 14.8901 20.7963 15.1351 20.7955 15.3058L20.7945 15.5034L20.7944 15.532C20.7942 15.533 20.794 15.534 20.7939 15.5351C20.7894 15.5617 20.7819 15.6036 20.7704 15.6586C20.7474 15.7687 20.7086 15.9303 20.647 16.1261C20.5231 16.5194 20.3102 17.0409 19.9553 17.5591C19.2608 18.573 17.9999 19.6154 15.6498 19.6154C13.3029 19.6154 12.103 18.5744 11.4643 17.5702C11.1364 17.0546 10.9491 16.5349 10.8443 16.1418C10.7921 15.9463 10.7611 15.7849 10.7434 15.6749C10.7346 15.62 10.7291 15.5781 10.7259 15.5516C10.7251 15.5451 10.7245 15.5396 10.724 15.535L10.7235 15.4903L10.7211 15.294L10.7126 14.5854C10.7056 13.9946 10.6962 13.1959 10.6868 12.3649C10.6725 11.0951 10.6582 9.75349 10.6523 8.95996ZM10.7223 15.5187C10.7223 15.5184 10.7223 15.5184 10.7223 15.5186L10.7223 15.5187Z" fill="#F7FCFF" stroke="#E31D1C" stroke-width="1.125"/>
<mask id="mask1_4_26812" style="mask-type:luminance" maskUnits="userSpaceOnUse" x="10" y="8" width="12" height="13">
<path d="M10.6523 8.95996H20.7808C20.7979 9.72892 20.8031 11.0703 20.803 12.3617C20.8029 13.1956 20.8007 13.9984 20.7985 14.5929C20.7974 14.8901 20.7963 15.1351 20.7955 15.3058L20.7945 15.5034L20.7944 15.532C20.7942 15.533 20.794 15.534 20.7939 15.5351C20.7894 15.5617 20.7819 15.6036 20.7704 15.6586C20.7474 15.7687 20.7086 15.9303 20.647 16.1261C20.5231 16.5194 20.3102 17.0409 19.9553 17.5591C19.2608 18.573 17.9999 19.6154 15.6498 19.6154C13.3029 19.6154 12.103 18.5744 11.4643 17.5702C11.1364 17.0546 10.9491 16.5349 10.8443 16.1418C10.7921 15.9463 10.7611 15.7849 10.7434 15.6749C10.7346 15.62 10.7291 15.5781 10.7259 15.5516C10.7251 15.5451 10.7245 15.5396 10.724 15.535L10.7235 15.4903L10.7211 15.294L10.7126 14.5854C10.7056 13.9946 10.6962 13.1959 10.6868 12.3649C10.6725 11.0951 10.6582 9.75349 10.6523 8.95996ZM10.7223 15.5187C10.7223 15.5184 10.7223 15.5184 10.7223 15.5186L10.7223 15.5187Z" fill="white" stroke="white" stroke-width="1.125"/>
</mask>
<g mask="url(#mask1_4_26812)">
<path fill-rule="evenodd" clip-rule="evenodd" d="M10.4984 9.04004H12.6078V11.1819H10.4984V9.04004ZM14.7172 11.1819H12.6078V13.3238H10.4984V15.4657H12.6078V17.6076H10.4984V19.7495H12.6078V17.6076H14.7172V19.7495H16.8266V17.6076H18.9359V19.7495H21.0453V17.6076H18.9359V15.4657H21.0453V13.3238H18.9359V11.1819H21.0453V9.04004H18.9359V11.1819H16.8266V9.04004H14.7172V11.1819ZM14.7172 13.3238V11.1819H16.8266V13.3238H14.7172ZM14.7172 15.4657V13.3238H12.6078V15.4657H14.7172ZM16.8266 15.4657V17.6076H14.7172V15.4657H16.8266ZM16.8266 15.4657V13.3238H18.9359V15.4657H16.8266Z" fill="#F50100"/>
</g>
<path fill-rule="evenodd" clip-rule="evenodd" d="M10.4531 8.16279C10.4531 8.16279 11.1055 7.8143 11.662 7.6347C12.2185 7.4551 12.6583 7.35697 12.6583 7.35697L11.8304 4.30488L10.172 3.6853L9.23282 5.2334L10.4531 8.16279Z" fill="#56C6F5" stroke="white" stroke-width="0.5"/>
<path d="M10.1811 6.49094L10.3716 6.39909C10.5684 6.82001 10.8278 6.95002 11.1833 6.81733C11.5465 6.6818 11.6946 6.4255 11.6423 6.01919L11.8515 5.99146C11.9163 6.49582 11.713 6.84788 11.2561 7.01837C10.7916 7.19171 10.4221 7.0065 10.1811 6.49094Z" fill="white"/>
<path fill-rule="evenodd" clip-rule="evenodd" d="M10.6323 5.54213L10.4502 5.65249C10.4099 5.67691 10.3597 5.64181 10.3689 5.59558L10.4103 5.38664L10.2236 5.28405C10.1823 5.26135 10.1876 5.2004 10.2323 5.18521L10.4339 5.11659L10.4294 4.90364C10.4284 4.85652 10.4839 4.83066 10.5193 4.86171L10.6796 5.00203L10.8618 4.89167C10.9021 4.86725 10.9522 4.90234 10.943 4.94858L10.9017 5.15751L11.0883 5.26011C11.1296 5.28281 11.1243 5.34376 11.0797 5.35895L10.878 5.42757L10.8825 5.64052C10.8835 5.68764 10.828 5.71349 10.7926 5.68245L10.6323 5.54213Z" fill="#FECA00"/>
<path fill-rule="evenodd" clip-rule="evenodd" d="M14.5408 7.07588C14.5408 7.07588 15.0972 7.02622 15.6818 7.03758C16.2665 7.04894 16.7611 7.05309 16.7611 7.05309L17.0466 4.04361L15.7943 2.91222L14.4022 4.0702L14.5408 7.07588Z" fill="#56C6F5" stroke="white" stroke-width="0.5"/>
<path fill-rule="evenodd" clip-rule="evenodd" d="M15.7502 6.58487C16.2326 6.58487 16.2788 6.06391 16.2788 5.70903C16.1554 5.51219 16.1803 5.37134 15.7849 5.37134C15.3896 5.37134 15.3445 5.4908 15.2291 5.70903C15.2291 6.06391 15.2679 6.58487 15.7502 6.58487Z" fill="#FECA00"/>
<path fill-rule="evenodd" clip-rule="evenodd" d="M16.293 5.11295C16.7753 5.11295 16.8215 4.59198 16.8215 4.2371C16.6982 4.04027 16.723 3.89941 16.3277 3.89941C15.9324 3.89941 15.8872 4.01888 15.7719 4.2371C15.7719 4.59198 15.8106 5.11295 16.293 5.11295Z" fill="#FECA00"/>
<path fill-rule="evenodd" clip-rule="evenodd" d="M15.2383 5.11295C15.7206 5.11295 15.7668 4.59198 15.7668 4.2371C15.6435 4.04027 15.6684 3.89941 15.273 3.89941C14.8777 3.89941 14.8325 4.01888 14.7172 4.2371C14.7172 4.59198 14.756 5.11295 15.2383 5.11295Z" fill="#FECA00"/>
<path d="M12.4446 7.60496L12.3726 7.36026L11.506 4.41652L11.4649 4.27702L11.5659 4.17236L12.8044 2.88845L12.9537 2.73364L13.1291 2.85819L14.4918 3.82599L14.5862 3.89301L14.5961 4.00833L14.8484 6.93275L14.8709 7.19329L14.6096 7.20402L14.6096 7.20402L14.6095 7.20403L14.6093 7.20404L14.6082 7.20408L14.6037 7.20427L14.5857 7.20507L14.5179 7.20837C14.4599 7.21134 14.3786 7.21585 14.2853 7.22202C14.0973 7.23446 13.8664 7.2533 13.6811 7.27904C13.5042 7.30362 13.2591 7.3643 13.0501 7.42183C12.9474 7.45011 12.8565 7.47677 12.7912 7.49635C12.7586 7.50614 12.7325 7.51413 12.7147 7.51964L12.6944 7.52595L12.6893 7.52755L12.6881 7.52793L12.6878 7.52801L12.6878 7.52802L12.4446 7.60496ZM12.4446 7.60496L12.6878 7.52803L12.4446 7.60496Z" fill="#2E42A5" stroke="white" stroke-width="0.5"/>
<mask id="mask2_4_26812" style="mask-type:luminance" maskUnits="userSpaceOnUse" x="11" y="2" width="5" height="6">
<path d="M12.4446 7.60496L12.3726 7.36026L11.506 4.41652L11.4649 4.27702L11.5659 4.17236L12.8044 2.88845L12.9537 2.73364L13.1291 2.85819L14.4918 3.82599L14.5862 3.89301L14.5961 4.00833L14.8484 6.93275L14.8709 7.19329L14.6096 7.20402L14.6096 7.20402L14.6095 7.20403L14.6093 7.20404L14.6082 7.20408L14.6037 7.20427L14.5857 7.20507L14.5179 7.20837C14.4599 7.21134 14.3786 7.21585 14.2853 7.22202C14.0973 7.23446 13.8664 7.2533 13.6811 7.27904C13.5042 7.30362 13.2591 7.3643 13.0501 7.42183C12.9474 7.45011 12.8565 7.47677 12.7912 7.49635C12.7586 7.50614 12.7325 7.51413 12.7147 7.51964L12.6944 7.52595L12.6893 7.52755L12.6881 7.52793L12.6878 7.52801L12.6878 7.52802L12.4446 7.60496ZM12.4446 7.60496L12.6878 7.52803L12.4446 7.60496Z" fill="white" stroke="white" stroke-width="0.5"/>
</mask>
<g mask="url(#mask2_4_26812)">
<path d="M12.4364 6.6379L12.1859 6.04782C12.724 5.81233 13.6328 5.66783 14.5892 5.61133L14.6259 6.25281C13.7368 6.30534 12.8958 6.43682 12.4364 6.6379Z" fill="#C51918"/>
<path d="M12.0137 5.21066L11.7632 4.62058C12.3012 4.38509 13.4576 4.19444 14.414 4.13794L14.4507 4.77942C13.5617 4.83195 12.4731 5.00958 12.0137 5.21066Z" fill="#C51918"/>
</g>
<path d="M18.9686 7.60672L19.0366 7.3548L19.8324 4.40622L19.8681 4.27381L19.7757 4.17252L18.608 2.89346L18.4589 2.73014L18.2786 2.85819L16.9159 3.82599L16.8215 3.89301L16.8115 4.00833L16.5593 6.93275L16.5368 7.19329L16.7981 7.20402L16.7981 7.20402L16.7981 7.20403L16.7984 7.20404L16.7994 7.20408L16.804 7.20427L16.8219 7.20507L16.8897 7.20837C16.9477 7.21134 17.0291 7.21585 17.1224 7.22202C17.3104 7.23446 17.5413 7.2533 17.7265 7.27904C17.9035 7.30362 18.1485 7.3643 18.3575 7.42183C18.4602 7.45011 18.5512 7.47677 18.6164 7.49635C18.649 7.50614 18.6751 7.51413 18.6929 7.51964L18.7133 7.52595L18.7184 7.52755L18.7196 7.52793L18.7198 7.52801L18.7199 7.52802L18.9686 7.60672ZM18.9686 7.60672L18.7199 7.52803L18.9686 7.60672Z" fill="#2E42A5" stroke="white" stroke-width="0.5"/>
<mask id="mask3_4_26812" style="mask-type:luminance" maskUnits="userSpaceOnUse" x="16" y="2" width="5" height="6">
<path d="M18.9686 7.60672L19.0366 7.3548L19.8324 4.40622L19.8681 4.27381L19.7757 4.17252L18.608 2.89346L18.4589 2.73014L18.2786 2.85819L16.9159 3.82599L16.8215 3.89301L16.8115 4.00833L16.5593 6.93275L16.5368 7.19329L16.7981 7.20402L16.7981 7.20402L16.7981 7.20403L16.7984 7.20404L16.7994 7.20408L16.804 7.20427L16.8219 7.20507L16.8897 7.20837C16.9477 7.21134 17.0291 7.21585 17.1224 7.22202C17.3104 7.23446 17.5413 7.2533 17.7265 7.27904C17.9035 7.30362 18.1485 7.3643 18.3575 7.42183C18.4602 7.45011 18.5512 7.47677 18.6164 7.49635C18.649 7.50614 18.6751 7.51413 18.6929 7.51964L18.7133 7.52595L18.7184 7.52755L18.7196 7.52793L18.7198 7.52801L18.7199 7.52802L18.9686 7.60672ZM18.9686 7.60672L18.7199 7.52803L18.9686 7.60672Z" fill="white" stroke="white" stroke-width="0.5"/>
</mask>
<g mask="url(#mask3_4_26812)">
<path fill-rule="evenodd" clip-rule="evenodd" d="M18.3978 6.4666C18.3978 6.4666 18.6918 6.30298 18.7342 6.02709C18.7765 5.75121 19.2313 5.41141 19.0039 5.45186C18.7765 5.4923 18.9065 5.52389 18.5773 5.45186C18.2481 5.37983 17.822 5.33218 17.822 5.12979C17.822 4.92741 18.0338 4.76677 17.8607 4.76677C17.6875 4.76677 17.3181 4.57522 17.3923 4.72163C17.4665 4.86804 17.2216 4.70249 17.3441 5.00646C17.4665 5.31042 17.3181 5.61664 17.3923 5.69722C17.4665 5.77779 17.3441 6.17298 17.3441 6.17298C17.3441 6.17298 17.389 6.31976 17.4677 6.09992C17.5464 5.88007 17.7185 5.72597 17.6324 5.91294C17.5464 6.09992 17.4366 6.54464 17.5345 6.4666C17.6324 6.38856 17.7298 6.17274 17.7298 6.09992C17.7298 6.02709 17.9769 5.74123 17.9769 5.95711C17.9769 6.17298 17.7444 6.34299 17.8607 6.34299C17.9769 6.34299 18.042 6.38886 18.1151 6.17298C18.1882 5.95711 18.3657 5.8143 18.4385 5.95711C18.5113 6.09992 18.4952 6.09229 18.3978 6.27944C18.3005 6.4666 18.3978 6.4666 18.3978 6.4666Z" fill="#FECA00"/>
<path fill-rule="evenodd" clip-rule="evenodd" d="M17.7072 4.86656L17.5978 4.68346C17.7942 4.56244 17.9745 4.53019 18.1329 4.59766C18.2049 4.62834 18.2591 4.66329 18.4005 4.76274L18.419 4.77572C18.5662 4.87897 18.6442 4.92103 18.6921 4.92103V5.13522C18.5823 5.13522 18.4873 5.08396 18.2991 4.95196L18.2804 4.93881C18.1531 4.8493 18.104 4.81764 18.0513 4.79517C17.9637 4.75785 17.851 4.778 17.7072 4.86656ZM17.3609 6.2635C17.4231 6.2635 17.4734 6.21376 17.4734 6.15239C17.4734 6.09103 17.4231 6.04128 17.3609 6.04128C17.2988 6.04128 17.2484 6.09103 17.2484 6.15239C17.2484 6.21376 17.2988 6.2635 17.3609 6.2635ZM17.6844 6.36658C17.6844 6.42795 17.634 6.47769 17.5719 6.47769C17.5097 6.47769 17.4594 6.42795 17.4594 6.36658C17.4594 6.30522 17.5097 6.25547 17.5719 6.25547C17.634 6.25547 17.6844 6.30522 17.6844 6.36658ZM17.9508 6.46943C18.0129 6.46943 18.0633 6.41969 18.0633 6.35832C18.0633 6.29696 18.0129 6.24721 17.9508 6.24721C17.8887 6.24721 17.8383 6.29696 17.8383 6.35832C17.8383 6.41969 17.8887 6.46943 17.9508 6.46943ZM18.4158 6.53614C18.4158 6.5975 18.3654 6.64725 18.3033 6.64725C18.2411 6.64725 18.1908 6.5975 18.1908 6.53614C18.1908 6.47477 18.2411 6.42503 18.3033 6.42503C18.3654 6.42503 18.4158 6.47477 18.4158 6.53614Z" fill="#C51918"/>
</g>
<path d="M21.3525 8.18612L21.2445 8.43485L21.0054 8.30712L21.0054 8.30711L21.0053 8.3071L21.0051 8.30698L21.0039 8.30636L20.9989 8.30368L20.9783 8.29288C20.9601 8.2834 20.9333 8.26951 20.8993 8.25223C20.8312 8.21764 20.7345 8.16959 20.6208 8.11606C20.3918 8.00818 20.1007 7.88137 19.8374 7.79641C19.5646 7.70837 19.3202 7.64023 19.1441 7.59414C19.0561 7.57111 18.9853 7.55364 18.9369 7.54198L18.8815 7.5289L18.8676 7.5257L18.8643 7.52495L18.8635 7.52479L18.8635 7.52477L18.8634 7.52476L18.8634 7.52476L18.8634 7.52476L18.605 7.46711L18.6774 7.21241L19.5234 4.23652L19.558 4.11493L19.6764 4.07069L21.3347 3.45111L21.5286 3.37868L21.6359 3.55563L22.5752 5.10373L22.6422 5.2143L22.5908 5.33293L21.3525 8.18612Z" fill="#56C6F5" stroke="white" stroke-width="0.5"/>
<mask id="mask4_4_26812" style="mask-type:luminance" maskUnits="userSpaceOnUse" x="18" y="3" width="5" height="6">
<path d="M21.3525 8.18612L21.2445 8.43485L21.0054 8.30712L21.0054 8.30711L21.0053 8.3071L21.0051 8.30698L21.0039 8.30636L20.9989 8.30368L20.9783 8.29288C20.9601 8.2834 20.9333 8.26951 20.8993 8.25223C20.8312 8.21764 20.7345 8.16959 20.6208 8.11606C20.3918 8.00818 20.1007 7.88137 19.8374 7.79641C19.5646 7.70837 19.3202 7.64023 19.1441 7.59414C19.0561 7.57111 18.9853 7.55364 18.9369 7.54198L18.8815 7.5289L18.8676 7.5257L18.8643 7.52495L18.8635 7.52479L18.8635 7.52477L18.8634 7.52476L18.8634 7.52476L18.8634 7.52476L18.605 7.46711L18.6774 7.21241L19.5234 4.23652L19.558 4.11493L19.6764 4.07069L21.3347 3.45111L21.5286 3.37868L21.6359 3.55563L22.5752 5.10373L22.6422 5.2143L22.5908 5.33293L21.3525 8.18612Z" fill="white" stroke="white" stroke-width="0.5"/>
</mask>
<g mask="url(#mask4_4_26812)">
<path fill-rule="evenodd" clip-rule="evenodd" d="M21.1274 5.0893L20.9855 5.2481C20.9541 5.28324 20.8959 5.26433 20.8911 5.21744L20.8696 5.00553L20.6611 4.962C20.615 4.95236 20.6023 4.89251 20.6405 4.86495L20.8133 4.74037L20.7467 4.53804C20.732 4.49327 20.7775 4.45232 20.8205 4.47165L21.0147 4.55898L21.1567 4.40018C21.1881 4.36504 21.2463 4.38395 21.251 4.43084L21.2725 4.64275L21.481 4.68629C21.5272 4.69592 21.5399 4.75577 21.5017 4.78333L21.3289 4.90791L21.3955 5.11025C21.4102 5.15502 21.3647 5.19596 21.3217 5.17663L21.1274 5.0893Z" fill="#FECA00"/>
<path d="M18.9951 6.48786L19.2076 5.65869C20.1483 5.90719 21.129 6.22568 21.8485 6.53365L21.5207 7.32312C20.841 7.03219 19.8985 6.72648 18.9951 6.48786Z" fill="#E31D1C"/>
<path d="M19.2831 5.72223L19.3332 5.51416C20.2351 5.73798 21.1937 6.0951 21.8903 6.42772L21.8006 6.62155C21.1174 6.29532 20.172 5.9428 19.2831 5.72223Z" fill="white"/>
<path d="M19.0158 6.57672L19.0659 6.36865C19.9678 6.59247 20.8014 6.89616 21.498 7.22879L21.4083 7.42262C20.7251 7.09639 19.9047 6.79729 19.0158 6.57672Z" fill="white"/>
<path d="M19.4229 6.1751L19.6161 6.08789C19.6974 6.2782 19.7978 6.32013 19.9657 6.23856C20.3622 6.0459 21.3458 6.31514 21.3458 6.67817C21.3458 6.8198 21.2637 6.90566 21.1384 6.90069C21.0676 6.89788 20.9921 6.86993 20.8814 6.81517C20.8679 6.80853 20.8591 6.80408 20.8373 6.79301C20.7148 6.73054 20.7056 6.72598 20.673 6.71424L20.7428 6.50959C20.7879 6.52586 20.795 6.52935 20.9311 6.59873C20.952 6.60939 20.9602 6.61352 20.9728 6.61972C21.0577 6.6617 21.1144 6.68271 21.1465 6.68398C21.1495 6.6841 21.1349 6.6994 21.1349 6.67817C21.1349 6.51844 20.3343 6.29931 20.0558 6.43464C19.778 6.56959 19.551 6.47478 19.4229 6.1751Z" fill="#272727"/>
</g>
</g>
</g>
<defs>
<clipPath id="clip0_4_26812">
<rect width="32" height="24" fill="white"/>
</clipPath>
</defs>
</svg>
