<?xml version="1.0" encoding="UTF-8"?>
<!-- Generator: visioncortex VTracer 0.6.3 -->
<svg version="1.1" xmlns="http://www.w3.org/2000/svg" width="500" height="500">
<path d="M0 0 C165 0 330 0 500 0 C500 165 500 330 500 500 C335 500 170 500 0 500 C0 335 0 170 0 0 Z " fill="#FEFEFE" transform="translate(0,0)"/>
<path d="M0 0 C0.06 0.88 0.11 1.76 0.17 2.67 C0.86 6.84 1.62 9.47 4 13 C9.34 15.87 15.67 16.55 21.59 17.56 C24.59 18.11 27.42 18.97 30.31 19.94 C36.1 21.78 41.94 23.31 47.81 24.81 C56.93 27.15 65.97 29.71 75 32.39 C81.97 34.44 88.96 36.33 96 38.12 C102.84 39.88 109.63 41.71 116.38 43.81 C117.37 44.12 117.37 44.12 118.39 44.44 C122.87 45.87 122.87 45.87 124 47 C123.53 53.91 122.05 60.33 120.25 67 C119.98 68.01 119.71 69.03 119.44 70.07 C117.69 76.58 115.84 83.05 113.9 89.51 C112.12 95.47 110.55 101.48 109 107.5 C107.1 114.88 105.1 122.21 102.89 129.51 C100.82 136.45 99.04 143.45 97.24 150.46 C95.36 157.74 93.29 164.93 91.08 172.11 C90.82 173.05 90.82 173.05 90.56 174 C90.16 175.44 89.69 176.86 89.19 178.26 C88.37 180.97 87.93 183.16 88 186 C89.95 189.55 92.73 191.99 95.71 194.68 C96.92 195.84 96.92 195.84 98.15 197.02 C100.72 199.48 103.33 201.9 105.94 204.31 C108.54 206.75 111.13 209.2 113.71 211.66 C115.32 213.19 116.94 214.71 118.57 216.2 C119.3 216.89 120.03 217.58 120.78 218.29 C121.42 218.88 122.07 219.48 122.74 220.1 C124 222 124 222 123.84 224.33 C122.8 227.65 121.34 229.16 118.89 231.63 C118 232.52 117.12 233.42 116.2 234.35 C115.21 235.33 114.23 236.32 113.24 237.3 C112.2 238.34 111.16 239.39 110.13 240.43 C107.31 243.27 104.49 246.09 101.66 248.91 C99.3 251.27 96.95 253.63 94.59 255.99 C89.04 261.56 83.48 267.11 77.91 272.67 C72.16 278.4 66.43 284.14 60.71 289.9 C55.8 294.83 50.88 299.76 45.95 304.69 C43 307.63 40.06 310.57 37.13 313.52 C34.37 316.3 31.6 319.06 28.83 321.81 C27.81 322.83 26.79 323.84 25.78 324.87 C24.41 326.26 23.01 327.63 21.62 329.01 C20.84 329.78 20.07 330.56 19.27 331.36 C16.58 333.3 15.25 333.45 12 333 C10.35 331.89 10.35 331.89 8.9 330.32 C8.34 329.74 7.79 329.15 7.22 328.55 C6.63 327.92 6.05 327.28 5.45 326.62 C4.18 325.29 2.91 323.97 1.64 322.64 C-0.34 320.54 -2.32 318.43 -4.28 316.31 C-6.18 314.27 -8.12 312.26 -10.05 310.25 C-10.63 309.61 -11.21 308.97 -11.8 308.31 C-14.89 305.04 -14.89 305.04 -19.05 303.8 C-21.46 304.02 -21.46 304.02 -25 305 C-25.83 305.2 -26.66 305.4 -27.52 305.6 C-28.23 305.82 -28.94 306.04 -29.66 306.27 C-30.47 306.52 -31.28 306.76 -32.11 307.02 C-32.94 307.28 -33.77 307.54 -34.62 307.81 C-36.39 308.35 -38.15 308.89 -39.92 309.43 C-42.35 310.18 -44.78 310.93 -47.21 311.69 C-49.11 312.28 -51.03 312.86 -52.94 313.44 C-54 313.77 -55.06 314.09 -56.15 314.43 C-59.15 315.03 -61.08 314.82 -64 314 C-64.36 312.78 -64.73 311.55 -65.1 310.29 C-67.43 302.48 -69.77 294.68 -72.26 286.92 C-74.96 278.54 -77.4 270.12 -79.64 261.61 C-80.1 259.88 -80.59 258.16 -81.1 256.44 C-81.77 253.88 -82.23 251.54 -82.6 248.95 C-85.8 231.22 -98.65 220.6 -111.06 208.69 C-114.18 205.67 -117.26 202.61 -120.35 199.55 C-126.18 193.79 -132.05 188.06 -137.93 182.35 C-148.48 172.08 -158.99 161.76 -169.48 151.43 C-173.15 147.8 -176.85 144.2 -180.56 140.6 C-182.85 138.37 -185.13 136.14 -187.41 133.9 C-188.47 132.86 -189.54 131.83 -190.61 130.8 C-192.07 129.4 -193.51 127.98 -194.95 126.56 C-195.76 125.77 -196.57 124.98 -197.41 124.17 C-199 122 -199 122 -198.9 119.88 C-197.43 116.8 -194.98 114.66 -192.55 112.33 C-191.98 111.78 -191.41 111.22 -190.83 110.65 C-189.6 109.45 -188.36 108.25 -187.12 107.05 C-185.16 105.15 -183.22 103.25 -181.28 101.33 C-175.75 95.9 -170.21 90.48 -164.65 85.09 C-161.25 81.79 -157.86 78.47 -154.49 75.13 C-153.2 73.87 -151.91 72.61 -150.61 71.36 C-148.78 69.61 -146.99 67.84 -145.19 66.06 C-144.65 65.54 -144.11 65.03 -143.55 64.51 C-141.84 62.87 -141.84 62.87 -140 60 C-140 56.3 -140 56.3 -141 53 C-141.18 52.25 -141.35 51.51 -141.54 50.74 C-141.71 50.13 -141.88 49.51 -142.06 48.88 C-142.83 45.69 -143.2 43.24 -143 40 C-138.49 38.14 -134.25 36.78 -129.45 35.88 C-111.42 32.21 -101.66 23.97 -90 10 C-86.45 11.63 -85.05 13.22 -82.75 16.38 C-80.71 18.64 -80.71 18.64 -78 20 C-73.19 19.82 -68.9 18.39 -64.39 16.83 C-61.88 15.96 -59.37 15.15 -56.84 14.36 C-54.09 13.48 -51.33 12.61 -48.58 11.72 C-40.98 9.25 -33.31 7.12 -25.58 5.07 C-19.74 3.52 -14.08 1.76 -8.44 -0.43 C-5.38 -1.14 -3.04 -0.68 0 0 Z " fill="#F24260" transform="translate(287,84)"/>
<path d="M0 0 C1.76 0.94 1.76 0.94 4.01 2.5 C7.6 4.38 10.82 4.69 14.76 3.94 C16.78 2.64 18.78 1.31 20.76 -0.06 C25.3 -0.07 27.55 2.26 30.61 5.26 C31.22 5.88 31.83 6.5 32.46 7.13 C33.13 7.79 33.79 8.44 34.47 9.12 C36.68 11.31 38.89 13.53 41.09 15.74 C42.67 17.32 44.26 18.89 45.84 20.47 C50.15 24.76 54.45 29.05 58.74 33.36 C62.32 36.94 65.91 40.53 69.5 44.11 C78.45 53.04 87.39 61.98 96.32 70.93 C104.07 78.7 111.84 86.45 119.62 94.2 C127.61 102.16 135.59 110.13 143.55 118.1 C148.03 122.58 152.5 127.06 156.99 131.52 C161.21 135.72 165.41 139.93 169.61 144.15 C171.15 145.7 172.7 147.24 174.25 148.78 C176.36 150.88 178.46 153 180.56 155.12 C181.18 155.72 181.8 156.33 182.44 156.96 C185.84 160.44 187.71 162.83 187.76 167.94 C186.34 170.01 186.34 170.01 184.76 171.94 C183.79 177.75 184.42 182.08 187.76 186.94 C188.2 189.19 188.2 189.19 187.76 191.94 C185.95 194.24 184.2 196.18 182.13 198.22 C181.53 198.82 180.93 199.43 180.32 200.06 C178.34 202.06 176.34 204.04 174.34 206.03 C172.95 207.41 171.57 208.8 170.19 210.18 C167.3 213.09 164.4 215.98 161.49 218.86 C157.75 222.57 154.04 226.3 150.34 230.03 C147.49 232.9 144.63 235.75 141.77 238.6 C140.4 239.97 139.03 241.34 137.66 242.72 C135.75 244.64 133.83 246.54 131.9 248.44 C131.34 249.02 130.77 249.59 130.19 250.19 C128.59 251.74 128.59 251.74 125.76 253.94 C123.03 253.58 121.44 252.76 119.01 251.38 C114.81 249.52 112.32 249.57 107.76 249.94 C106.41 250.58 105.07 251.24 103.76 251.94 C100.6 251.49 98.95 250.52 96.72 248.29 C95.85 247.44 95.85 247.44 94.97 246.57 C94.35 245.95 93.72 245.32 93.08 244.67 C92.41 244.01 91.74 243.35 91.05 242.67 C88.8 240.44 86.56 238.2 84.32 235.96 C82.72 234.36 81.11 232.77 79.5 231.17 C75.13 226.83 70.76 222.48 66.4 218.12 C63.68 215.41 60.96 212.69 58.23 209.98 C50.69 202.46 43.15 194.94 35.62 187.41 C35.14 186.93 34.66 186.45 34.16 185.95 C33.18 184.98 32.21 184 31.23 183.02 C30.74 182.54 30.26 182.05 29.76 181.56 C29.27 181.07 28.79 180.58 28.29 180.08 C20.42 172.22 12.53 164.36 4.63 156.52 C-3.48 148.46 -11.57 140.4 -19.65 132.32 C-24.18 127.78 -28.73 123.25 -33.28 118.73 C-37.57 114.49 -41.83 110.22 -46.09 105.95 C-47.65 104.38 -49.22 102.81 -50.8 101.26 C-52.95 99.13 -55.08 96.99 -57.2 94.85 C-57.84 94.23 -58.47 93.61 -59.12 92.98 C-60.7 91.35 -62.07 89.88 -63.24 87.94 C-63.18 84.69 -62.68 82.82 -61.24 79.94 C-60.71 73.59 -61.51 71.24 -65.24 65.94 C-64.73 61.38 -61.61 58.87 -58.5 55.78 C-57.9 55.17 -57.3 54.57 -56.69 53.94 C-54.71 51.94 -52.72 49.95 -50.72 47.95 C-49.34 46.57 -47.96 45.18 -46.59 43.79 C-43.69 40.89 -40.8 37.99 -37.9 35.1 C-34.17 31.38 -30.47 27.64 -26.77 23.9 C-23.93 21.04 -21.08 18.18 -18.22 15.33 C-16.85 13.95 -15.48 12.58 -14.12 11.2 C-12.21 9.27 -10.3 7.36 -8.37 5.46 C-7.81 4.88 -7.24 4.3 -6.66 3.71 C-2.8 -0.07 -2.8 -0.07 0 0 Z " fill="#F23F5D" transform="translate(187.2424774169922,130.0576934814453)"/>
<path d="M0 0 C3.14 1.39 5.26 3.01 7.68 5.43 C8.4 6.15 9.12 6.86 9.86 7.6 C10.64 8.39 11.42 9.17 12.23 9.99 C13.06 10.82 13.9 11.65 14.76 12.51 C17.08 14.83 19.4 17.15 21.71 19.48 C24.21 21.98 26.71 24.48 29.21 26.98 C33.55 31.32 37.88 35.65 42.2 39.99 C48.46 46.26 54.72 52.53 60.99 58.8 C71.15 68.96 81.31 79.14 91.46 89.31 C101.32 99.19 111.19 109.07 121.06 118.95 C121.67 119.56 122.28 120.17 122.9 120.8 C125.96 123.85 129.01 126.91 132.06 129.96 C157.38 155.3 182.69 180.65 208 206 C204.65 209.97 201.27 213.85 197.6 217.52 C196.36 218.76 196.36 218.76 195.1 220.03 C194.21 220.91 193.33 221.79 192.41 222.7 C191.46 223.66 190.5 224.61 189.54 225.57 C186.97 228.15 184.39 230.72 181.8 233.3 C179.1 235.99 176.4 238.7 173.7 241.4 C168.59 246.5 163.48 251.6 158.37 256.71 C152.54 262.52 146.72 268.33 140.9 274.15 C128.94 286.1 116.97 298.05 105 310 C99.58 305.48 94.55 300.69 89.57 295.69 C88.74 294.86 87.92 294.04 87.07 293.2 C84.81 290.93 82.54 288.66 80.28 286.4 C77.83 283.94 75.38 281.49 72.93 279.05 C68.69 274.81 64.46 270.57 60.22 266.33 C54.1 260.19 47.97 254.07 41.84 247.94 C31.9 237.99 21.96 228.05 12.02 218.1 C2.37 208.44 -7.28 198.78 -16.94 189.12 C-17.53 188.52 -18.13 187.93 -18.74 187.31 C-21.73 184.32 -24.72 181.34 -27.7 178.35 C-52.47 153.57 -77.24 128.78 -102 104 C-100.39 100.61 -98.63 98.38 -95.96 95.72 C-95.12 94.88 -94.27 94.03 -93.41 93.16 C-92.48 92.24 -91.55 91.31 -90.59 90.37 C-89.61 89.38 -88.62 88.4 -87.64 87.41 C-84.96 84.74 -82.28 82.07 -79.6 79.4 C-76.8 76.61 -74.01 73.82 -71.21 71.03 C-65.92 65.74 -60.62 60.45 -55.32 55.17 C-49.28 49.16 -43.25 43.14 -37.22 37.12 C-24.82 24.74 -12.41 12.37 0 0 Z M-16.38 32.95 C-16.96 33.54 -17.54 34.12 -18.14 34.72 C-18.76 35.33 -19.37 35.94 -20.01 36.56 C-22.05 38.58 -24.08 40.61 -26.11 42.64 C-27.52 44.04 -28.93 45.45 -30.34 46.85 C-33.3 49.79 -36.25 52.74 -39.2 55.7 C-42.98 59.49 -46.79 63.26 -50.6 67.03 C-53.51 69.92 -56.42 72.83 -59.32 75.73 C-60.72 77.13 -62.12 78.52 -63.53 79.91 C-65.49 81.85 -67.44 83.8 -69.38 85.76 C-69.97 86.34 -70.55 86.91 -71.16 87.5 C-72.94 89.26 -72.94 89.26 -75 92 C-74.66 94.69 -74 96 -72.44 98.25 C-70.41 102.14 -70.65 104.63 -71 109 C-71.65 110.34 -72.32 111.68 -73 113 C-72.88 118.44 -69.36 121.2 -65.73 124.8 C-65.06 125.47 -64.4 126.14 -63.72 126.83 C-61.49 129.08 -59.25 131.31 -57 133.55 C-55.4 135.15 -53.81 136.76 -52.21 138.37 C-47.87 142.74 -43.51 147.1 -39.15 151.45 C-35.51 155.09 -31.89 158.73 -28.26 162.36 C-19.21 171.43 -10.15 180.49 -1.09 189.54 C6.79 197.41 14.65 205.29 22.5 213.18 C30.56 221.28 38.63 229.37 46.72 237.45 C51.26 241.98 55.79 246.52 60.31 251.07 C64.57 255.35 68.83 259.61 73.11 263.86 C74.68 265.43 76.25 267 77.81 268.57 C79.93 270.72 82.07 272.84 84.22 274.97 C85.15 275.92 85.15 275.92 86.09 276.89 C87.99 278.81 87.99 278.81 91 281 C93.95 280.94 95.41 280.3 98 279 C103.77 278.62 106.88 279.09 112 282 C113.96 282.81 113.96 282.81 116 283 C118.26 281.24 120.15 279.53 122.15 277.5 C122.75 276.9 123.36 276.31 123.98 275.69 C125.98 273.71 127.97 271.71 129.95 269.71 C131.34 268.33 132.72 266.95 134.11 265.57 C137.01 262.68 139.9 259.77 142.79 256.86 C146.5 253.13 150.22 249.42 153.96 245.71 C156.82 242.87 159.67 240.01 162.52 237.15 C163.89 235.78 165.26 234.41 166.64 233.04 C168.56 231.13 170.47 229.21 172.37 227.27 C172.95 226.71 173.52 226.15 174.11 225.57 C176.44 223.17 177.9 221.6 178.45 218.24 C178.13 215.88 178.13 215.88 176.5 213.81 C174.32 209.72 174.24 205.56 175 201 C175.52 200.36 176.05 199.72 176.59 199.07 C178.26 197.05 178.26 197.05 177.98 194.3 C176.63 189.76 174.13 187.44 170.8 184.17 C170.15 183.51 169.49 182.85 168.82 182.17 C166.62 179.95 164.4 177.75 162.19 175.56 C160.61 173.97 159.03 172.39 157.45 170.8 C153.16 166.49 148.86 162.2 144.55 157.91 C140.05 153.43 135.56 148.93 131.07 144.43 C123.53 136.89 115.97 129.35 108.41 121.82 C100.63 114.07 92.87 106.3 85.11 98.53 C75.76 89.17 66.4 79.81 57.04 70.46 C53.46 66.89 49.89 63.32 46.31 59.74 C42.11 55.53 37.9 51.33 33.68 47.13 C32.13 45.59 30.58 44.05 29.04 42.5 C26.94 40.39 24.82 38.29 22.71 36.19 C22.1 35.57 21.48 34.95 20.85 34.31 C16.67 30.15 16.67 30.15 11 29 C10.07 29.64 9.14 30.28 8.19 30.94 C4.28 33.47 1.54 33.94 -3 33 C-6.31 31 -6.31 31 -9 29 C-12.79 29 -13.77 30.4 -16.38 32.95 Z " fill="#FEFCFC" transform="translate(197,101)"/>
<path d="M0 0 C10.46 8.84 16.12 18.25 17.46 31.8 C17.97 43.29 14.66 54.07 7.11 62.87 C-2.46 72.52 -12.5 77.04 -25.96 77.14 C-39.74 77.14 -47.65 72.57 -57.62 63.14 C-66.08 54.14 -68.18 43.08 -68.05 31.14 C-67.31 19.59 -61.43 9.5 -53.1 1.65 C-37.39 -10.98 -16.5 -11.88 0 0 Z " fill="#FEFCFD" transform="translate(277.8359375,226.171875)"/>
<path d="M0 0 C9.19 2.06 18.27 4.29 27.28 7 C40.7 11.03 54.25 14.56 67.81 18.06 C76.56 20.33 85.24 22.76 93.9 25.37 C97.78 26.53 101.67 27.67 105.56 28.81 C107 29.24 108.44 29.66 109.88 30.08 C110.91 30.38 111.94 30.69 113 31 C112.44 37.98 110.94 44.2 108.88 50.88 C105.82 61.01 103.07 71.2 100.49 81.47 C98.84 87.97 96.98 94.36 94.98 100.76 C93.37 106.07 92.04 111.44 90.69 116.81 C87.62 128.83 84.25 140.73 80.71 152.61 C79.78 155.73 78.89 158.86 78 162 C76.84 161.12 75.7 160.22 74.56 159.31 C73.92 158.81 73.29 158.31 72.63 157.8 C70.51 155.46 70.2 154.14 70 151 C70.6 147.64 70.6 147.64 71.62 143.81 C71.81 143.11 71.99 142.41 72.18 141.69 C72.78 139.46 73.39 137.23 74 135 C74.38 133.6 74.76 132.2 75.14 130.79 C76.92 124.25 78.78 117.73 80.7 111.23 C83.78 100.81 86.74 90.4 89.29 79.83 C90.45 75.04 91.79 70.37 93.31 65.69 C94.74 61.23 95.43 57.66 95 53 C93.91 52.46 92.81 51.93 91.69 51.38 C87.91 49.19 86.39 47.24 85 43 C84.78 40.28 84.86 37.74 85 35 C78.58 32.78 72.12 30.88 65.56 29.12 C63.61 28.6 61.65 28.07 59.69 27.54 C58.73 27.28 57.76 27.02 56.77 26.75 C52.84 25.69 48.92 24.59 45 23.5 C42.8 22.89 40.61 22.28 38.41 21.67 C36.69 21.19 34.97 20.71 33.25 20.23 C30.33 19.42 27.42 18.62 24.5 17.81 C23.6 17.56 22.71 17.31 21.79 17.05 C17.36 15.84 13.04 14.84 8.51 14.13 C4.25 13.31 4.25 13.31 2.15 10.72 C1.89 9.84 1.64 8.97 1.38 8.06 C1.09 7.19 0.81 6.31 0.52 5.41 C0 3 0 3 0 0 Z " fill="#FEFAFA" transform="translate(292,103)"/>
<path d="M0 0 C0.21 0.73 0.42 1.46 0.63 2.22 C5.64 19.84 10.82 37.42 16 55 C19.15 65.7 22.29 76.4 25.4 87.1 C26.75 91.73 28.1 96.35 29.49 100.96 C31.68 108.26 33.69 115.48 35 123 C27.96 119.87 21.95 114.57 18.91 107.44 C16.84 101.38 15.3 95.19 13.77 88.98 C12.67 84.72 11.32 80.55 9.94 76.38 C7.73 69.53 5.75 62.63 3.88 55.69 C3.5 54.3 3.5 54.3 3.12 52.89 C2.01 48.77 0.91 44.66 -0.16 40.53 C-0.5 39.26 -0.84 37.99 -1.19 36.69 C-1.47 35.6 -1.75 34.51 -2.04 33.39 C-2.36 32.6 -2.67 31.81 -3 31 C-5.99 29.8 -5.99 29.8 -9.25 30.19 C-13.78 29.96 -16.57 28.95 -20 26 C-21.65 23.73 -22.77 21.55 -24 19 C-31.77 20.4 -39.16 22.48 -46.68 24.88 C-51.8 26.47 -56.62 27.85 -62 28 C-64.31 26.57 -64.31 26.57 -66 24.56 C-66.58 23.9 -67.16 23.25 -67.75 22.57 C-68.16 22.05 -68.57 21.53 -69 21 C-68 19 -68 19 -66.06 18.29 C-65.22 18.07 -64.38 17.85 -63.51 17.63 C-62.58 17.39 -61.66 17.15 -60.7 16.89 C-59.71 16.64 -58.71 16.39 -57.69 16.12 C-50.63 14.27 -43.66 12.32 -36.76 9.93 C-32.49 8.49 -28.15 7.3 -23.81 6.08 C-21.01 5.29 -18.22 4.47 -15.44 3.64 C-14.28 3.29 -14.28 3.29 -13.11 2.94 C-11.6 2.49 -10.1 2.03 -8.6 1.57 C-5.63 0.69 -3.12 0 0 0 Z " fill="#FEF9FA" transform="translate(283,89)"/>
<path d="M0 0 C6.51 5.37 12.44 11.28 18.4 17.23 C19.49 18.32 20.58 19.4 21.67 20.49 C23.93 22.75 26.2 25.01 28.46 27.28 C31.37 30.18 34.28 33.08 37.2 35.98 C39.44 38.21 41.68 40.45 43.92 42.69 C44.99 43.76 46.06 44.83 47.14 45.9 C48.64 47.38 50.12 48.88 51.61 50.37 C52.46 51.22 53.31 52.07 54.19 52.94 C56 55 56 55 56 57 C51.21 58.43 46.43 59.85 41.64 61.27 C40.01 61.76 38.38 62.24 36.75 62.73 C34.41 63.43 32.07 64.12 29.73 64.81 C29 65.03 28.27 65.25 27.52 65.48 C24.58 66.34 22.09 67 19 67 C16.93 60.03 14.87 53.06 12.81 46.09 C12.11 43.72 11.41 41.36 10.71 39 C6.87 26.06 3.08 13.14 0 0 Z " fill="#FEFDFD" transform="translate(208,326)"/>
<path d="M0 0 C2.25 0.25 2.25 0.25 4 1 C3.37 5.68 3.37 5.68 1.46 7.33 C-1.07 10.23 -0.05 13.66 0.19 17.31 C-0.04 20.53 -0.66 21.79 -3 24 C-4.32 24 -5.64 24 -7 24 C-6.89 23.24 -6.79 22.48 -6.68 21.7 C-6.56 20.71 -6.44 19.71 -6.31 18.69 C-6.18 17.7 -6.06 16.72 -5.93 15.7 C-5.75 12.99 -5.75 12.99 -7.32 11.16 C-9.66 9.54 -11.22 9.64 -14 10 C-16.33 11.92 -16.33 11.92 -16.38 15.25 C-15.94 19.62 -14.43 21.43 -12 25 C-11.34 28.96 -11.8 30.62 -13.69 34.19 C-16.13 37.16 -17.43 38.6 -21 40 C-23.57 40.04 -26.13 39.94 -28.7 39.84 C-31.23 39.79 -31.23 39.79 -33.38 42.06 C-33.91 42.7 -34.45 43.34 -35 44 C-37.25 43.75 -37.25 43.75 -39 43 C-38.37 38.31 -38.37 38.31 -36.46 36.7 C-33.84 33.64 -34.96 29.74 -35.19 25.91 C-34.97 22.61 -34.21 21.39 -32 19 C-30.68 19.33 -29.36 19.66 -28 20 C-28.08 20.77 -28.17 21.54 -28.25 22.34 C-28.36 23.34 -28.46 24.34 -28.56 25.38 C-28.67 26.37 -28.77 27.37 -28.88 28.4 C-29.21 30.98 -29.21 30.98 -28 33 C-25.36 33 -22.72 33 -20 33 C-18.56 30.12 -18.7 28.21 -19 25 C-19.88 23.23 -19.88 23.23 -21 21.5 C-23.05 18.16 -23.68 15.98 -23 12 C-20.96 8.34 -19.5 6.33 -16 4 C-12.95 3.94 -9.95 4.13 -6.91 4.32 C-3.27 3.92 -2.37 2.66 0 0 Z " fill="#F24966" transform="translate(270,239)"/>
<path d="M0 0 C-2.28 2.34 -4.58 4.67 -6.88 7 C-7.53 7.67 -8.18 8.34 -8.85 9.02 C-9.47 9.66 -10.1 10.29 -10.74 10.94 C-11.32 11.52 -11.89 12.11 -12.49 12.71 C-14 14 -14 14 -16 14 C-16.66 10.37 -17.32 6.74 -18 3 C-15.75 2.3 -13.5 1.62 -11.25 0.94 C-10 0.55 -8.74 0.17 -7.45 -0.22 C-4.15 -0.97 -3.07 -0.94 0 0 Z " fill="#FEF1F3" transform="translate(168,124)"/>
</svg>
