<?xml version="1.0" encoding="UTF-8"?>
<!-- Generator: visioncortex VTracer 0.6.3 -->
<svg version="1.1" xmlns="http://www.w3.org/2000/svg" width="217" height="232">
<path d="M0 0 C71.61 0 143.22 0 217 0 C217 76.56 217 153.12 217 232 C145.39 232 73.78 232 0 232 C0 155.44 0 78.88 0 0 Z " fill="#FDFDFE" transform="translate(0,0)"/>
<path d="M0 0 C8.61 6.44 13.04 14.75 16.39 24.79 C16.61 27.01 16.79 29.24 16.95 31.47 C17.03 32.65 17.12 33.83 17.2 35.05 C17.26 35.95 17.32 36.85 17.39 37.79 C17.87 37.28 18.35 36.77 18.85 36.25 C19.8 35.28 19.8 35.28 20.76 34.29 C21.39 33.64 22.01 32.99 22.66 32.32 C24.39 30.79 24.39 30.79 26.39 30.79 C26.5 29.89 26.5 29.89 26.62 28.98 C27.65 26.04 29.03 25.31 31.64 23.66 C32.41 23.16 33.17 22.66 33.96 22.15 C38.2 19.76 41.49 18.51 46.39 18.79 C46.39 18.13 46.39 17.47 46.39 16.79 C44.9 16.29 44.9 16.29 43.39 15.79 C39.6 12.07 35.95 8.03 35.7 2.54 C36.45 -1.57 37.42 -3.34 40.39 -6.21 C43.61 -7.83 46.89 -7.66 50.39 -7.21 C54.76 -5.17 57.36 -2.23 60.57 1.35 C61.35 2.21 62.13 3.08 62.93 3.97 C64.6 5.89 66.23 7.85 67.81 9.85 C71.63 14.3 74.69 17.84 80.69 18.59 C83.67 18.79 86.59 18.75 89.57 18.66 C94.53 18.82 96.72 20.15 100.18 23.55 C101.86 26.67 101.71 29 101.64 32.54 C101.62 33.56 101.62 33.56 101.59 34.6 C101.56 36.13 101.52 37.67 101.46 39.2 C101.38 42.04 101.34 44.88 101.29 47.72 C100.89 66.8 98.4 79.26 84.42 92.89 C81.49 95.62 78.47 98.22 75.39 100.79 C76.38 101.45 77.37 102.11 78.39 102.79 C77.67 106.66 75.91 109.94 74.11 113.39 C73.78 114.03 73.45 114.67 73.11 115.33 C72.04 117.4 70.96 119.47 69.89 121.54 C69.34 122.58 69.34 122.58 68.78 123.65 C66.64 127.77 64.49 131.89 62.33 136 C61.5 137.58 60.67 139.16 59.85 140.74 C58.67 142.99 57.47 145.24 56.26 147.47 C55.64 148.63 55.02 149.79 54.38 150.98 C51.46 155.09 48.13 157.21 43.39 158.79 C37.21 159.39 33.62 157.79 28.45 154.79 C27.77 154.4 27.08 154.02 26.38 153.63 C24.71 152.69 23.05 151.74 21.39 150.79 C21.39 150.13 21.39 149.47 21.39 148.79 C20.69 149.29 19.98 149.8 19.26 150.32 C9.42 157.05 9.42 157.05 2.39 155.79 C-5.21 152.77 -10.04 147.86 -15.68 142.04 C-16.53 141.17 -17.39 140.3 -18.28 139.4 C-22.67 134.93 -26.89 130.37 -30.98 125.62 C-34.13 122.08 -37.61 118.86 -41.07 115.63 C-45.77 111.08 -48.15 106.95 -49.11 100.35 C-47.89 91.62 -41.96 87.03 -35.33 81.77 C-32.83 79.94 -30.27 78.37 -27.61 76.79 C-26.95 76.13 -26.29 75.47 -25.61 74.79 C-26.27 74.64 -26.92 74.49 -27.6 74.34 C-40.49 71.17 -50.86 66.07 -58.36 54.91 C-64.44 44.37 -65.56 32.23 -62.55 20.41 C-58.87 10.16 -51.15 1.53 -41.55 -3.53 C-27.36 -9.91 -12.98 -8.29 0 0 Z " fill="#FCD945" transform="translate(89.61328125,33.21484375)"/>
<path d="M0 0 C4.84 0.58 7.8 2.27 11.33 5.56 C14.85 10.72 14.03 17 13.91 23.02 C13.91 24.58 13.91 26.13 13.91 27.68 C13.91 31.83 13.87 35.97 13.81 40.12 C13.76 44.01 13.76 47.91 13.76 51.8 C13.71 63.18 13.6 74.56 13.5 85.94 C13.34 111.37 13.17 136.8 13 163 C-58.61 163 -130.22 163 -204 163 C-204 158.05 -204 153.1 -204 148 C-192.78 148 -181.56 148 -170 148 C-173.35 143.81 -175.82 141.43 -180.06 138.38 C-182.05 136.93 -184.03 135.48 -186 134 C-186.62 133.56 -187.23 133.12 -187.87 132.66 C-189.84 129.76 -189.44 127.38 -189 124 C-186.22 120.11 -182.6 117.13 -179 114 C-178.26 113.35 -177.53 112.7 -176.77 112.03 C-173.52 109.37 -171.75 108.08 -167.5 107.62 C-166.26 107.81 -166.26 107.81 -165 108 C-165.08 107.09 -165.16 106.19 -165.25 105.25 C-165 102 -165 102 -163.38 99.75 C-160.68 97.76 -158.22 96.88 -155 96 C-155 95.34 -155 94.68 -155 94 C-153.01 92.65 -151.01 91.31 -149 90 C-148.67 89.34 -148.34 88.68 -148 88 C-145.04 89.32 -143.1 90.69 -140.93 93.09 C-140.37 93.7 -139.81 94.32 -139.23 94.95 C-138.64 95.61 -138.05 96.26 -137.44 96.94 C-136.19 98.3 -134.93 99.65 -133.68 101.01 C-132.75 102.02 -132.75 102.02 -131.8 103.05 C-129.25 105.81 -126.68 108.55 -124.06 111.25 C-123.25 112.1 -122.44 112.95 -121.6 113.83 C-117.1 117.59 -112.06 119.68 -106.12 119.5 C-102.51 118.65 -99.81 116.52 -96.88 114.31 C-95 113 -95 113 -93 113 C-92.58 113.43 -92.16 113.86 -91.73 114.3 C-87.21 118.73 -80.42 121.6 -74.25 122.62 C-68.73 121.56 -64.6 120.18 -61.23 115.59 C-59.46 112.48 -57.84 109.33 -56.25 106.12 C-55.04 103.78 -53.84 101.44 -52.63 99.1 C-52.02 97.9 -51.42 96.71 -50.81 95.52 C-48.04 90.14 -45.12 84.85 -42.19 79.56 C-41.2 77.77 -40.21 75.98 -39.23 74.19 C-38.62 73.08 -38.62 73.08 -37.99 71.95 C-36.88 69.88 -36.88 69.88 -36 67 C-37.32 66.67 -38.64 66.34 -40 66 C-36.87 62.16 -33.78 58.7 -30 55.5 C-21.42 48.1 -15.77 39.51 -14.83 27.85 C-14.79 26.72 -14.79 26.72 -14.75 25.56 C-14.7 24.31 -14.7 24.31 -14.65 23.04 C-14.59 21.3 -14.54 19.56 -14.48 17.82 C-14.45 16.99 -14.41 16.16 -14.38 15.31 C-14.34 14.18 -14.34 14.18 -14.3 13.02 C-14 11 -14 11 -12 8 C-10.18 6.73 -8.32 5.53 -6.44 4.38 C-3.04 2.43 -3.04 2.43 0 0 Z " fill="#FBFBFC" transform="translate(204,69)"/>
<path d="M0 0 C8.06 5.87 14.26 13.61 16.53 23.46 C18.01 35.07 16.65 45.31 9.7 55.02 C2.75 63.36 -5.87 68.72 -16.77 69.78 C-28.43 70.16 -37.79 67.37 -46.47 59.46 C-53.84 52.51 -57.63 44.47 -58.01 34.36 C-58.07 26.72 -57.89 19.95 -53.47 13.46 C-52.83 12.44 -52.83 12.44 -52.18 11.4 C-40.37 -6 -18.01 -11.25 0 0 Z " fill="#F8F8FA" transform="translate(86.46875,34.54296875)"/>
<path d="M0 0 C4.38 2.05 6.98 4.98 10.19 8.56 C10.96 9.43 11.74 10.3 12.54 11.19 C14.22 13.11 15.84 15.07 17.43 17.06 C21.25 21.52 24.31 25.05 30.3 25.81 C33.28 26.01 36.2 25.97 39.18 25.88 C44.14 26.04 46.33 27.36 49.8 30.77 C51.47 33.88 51.32 36.22 51.25 39.75 C51.23 40.77 51.23 40.77 51.21 41.81 C51.17 43.35 51.13 44.88 51.08 46.41 C50.99 49.25 50.95 52.09 50.91 54.93 C50.5 74.01 48.01 86.48 34.04 100.1 C31.1 102.84 28.08 105.43 25 108 C26.49 108.99 26.49 108.99 28 110 C27.28 113.87 25.52 117.15 23.72 120.61 C23.39 121.25 23.06 121.89 22.72 122.55 C21.65 124.62 20.58 126.68 19.5 128.75 C18.95 129.8 18.95 129.8 18.4 130.87 C16.25 134.99 14.1 139.1 11.94 143.21 C11.11 144.79 10.28 146.37 9.46 147.96 C8.28 150.21 7.08 152.45 5.88 154.69 C5.25 155.85 4.63 157.01 3.99 158.2 C1.08 162.3 -2.26 164.42 -7 166 C-13.17 166.6 -16.77 165 -21.94 162 C-22.62 161.62 -23.31 161.24 -24.01 160.84 C-25.68 159.91 -27.34 158.96 -29 158 C-29 157.34 -29 156.68 -29 156 C-29.7 156.51 -30.4 157.01 -31.12 157.53 C-40.96 164.27 -40.96 164.27 -48 163 C-55.6 159.98 -60.43 155.07 -66.06 149.25 C-67.35 147.95 -67.35 147.95 -68.67 146.62 C-73.06 142.15 -77.28 137.58 -81.37 132.83 C-84.52 129.3 -88 126.07 -91.46 122.85 C-96.15 118.3 -98.54 114.16 -99.5 107.56 C-98.26 98.7 -92.12 94.05 -85.43 88.69 C-83 87 -83 87 -81 87 C-82.86 91.52 -86.12 93.85 -89.81 96.9 C-93.34 100.28 -94.85 102.97 -95.56 107.81 C-95.2 116.29 -86.23 123 -80.56 128.5 C-75.72 133.22 -71.06 137.99 -66.65 143.12 C-64.14 145.98 -61.5 148.69 -58.81 151.38 C-58.31 151.89 -57.8 152.41 -57.28 152.95 C-53.34 156.9 -50.38 159.26 -44.75 159.5 C-39.07 159.34 -36.08 156.71 -32 153 C-31.19 152.29 -30.39 151.58 -29.56 150.84 C-27.02 148.58 -24.51 146.29 -22 144 C-18.3 140.7 -14.55 137.47 -10.78 134.25 C-4.23 128.67 2.22 123.03 8.57 117.22 C13.08 113.1 17.7 109.1 22.36 105.15 C39.41 91.02 39.41 91.02 46.41 70.44 C46.89 61.67 47.15 52.91 47.25 44.12 C47.28 42.55 47.28 42.55 47.31 40.94 C47.32 39.95 47.32 38.96 47.33 37.95 C47.34 36.62 47.34 36.62 47.36 35.27 C47.15 32.99 47.15 32.99 45.93 31.23 C42.96 29.34 40.26 29.47 36.77 29.3 C35.71 29.25 35.71 29.25 34.62 29.19 C32.35 29.07 30.08 28.97 27.81 28.88 C25.56 28.77 23.31 28.65 21.06 28.54 C19.66 28.47 18.26 28.4 16.86 28.34 C12.19 28.12 7.63 27.62 3 27 C4.08 28.25 5.17 29.5 6.25 30.75 C6.85 31.45 7.46 32.14 8.08 32.86 C8.71 33.57 9.35 34.27 10 35 C10.6 35.76 11.19 36.52 11.8 37.3 C13.96 39.33 13.96 39.33 17.24 39.03 C18.44 38.86 19.64 38.68 20.88 38.5 C27.59 37.82 27.59 37.82 31.62 39.62 C32.41 40.41 33.19 41.19 34 42 C35.18 43.05 35.18 43.05 36.38 44.12 C38.78 48.38 38.64 52.22 38 57 C36.2 61.61 33.43 63.86 29 66 C23.7 66.78 19.41 66.63 14.5 64.44 C10.74 60.77 9.27 57.18 8.62 52 C9.09 48.3 10.49 45.39 12 42 C10.03 39.78 8.03 37.61 6 35.44 C5.17 34.49 5.17 34.49 4.32 33.53 C1.19 30.16 1.19 30.16 -3.03 28.74 C-7.15 29.15 -10.72 30.49 -14.38 32.44 C-15.21 32.87 -16.04 33.3 -16.9 33.75 C-19.12 34.95 -19.12 34.95 -21 37 C-21.99 37 -22.98 37 -24 37 C-21.85 31.54 -17.1 29.4 -12 27 C-9.23 26.31 -6.87 26.11 -4 26 C-4 25.34 -4 24.68 -4 24 C-5.49 23.51 -5.49 23.51 -7 23 C-10.79 19.29 -14.44 15.24 -14.69 9.75 C-13.94 5.65 -12.97 3.88 -10 1 C-6.77 -0.61 -3.5 -0.44 0 0 Z " fill="#100F56" transform="translate(140,26)"/>
<path d="M0 0 C0 24.09 0 48.18 0 73 C-28.05 73 -56.1 73 -85 73 C-85 72.67 -85 72.34 -85 72 C-82.36 71.67 -79.72 71.34 -77 71 C-77.33 70.01 -77.66 69.02 -78 68 C-77.44 67.94 -76.89 67.88 -76.31 67.81 C-73.05 66.67 -71.31 64.51 -69 62 C-69.66 61.67 -70.32 61.34 -71 61 C-69.71 58.42 -68.58 58.22 -66 57 C-65.18 56.46 -64.35 55.93 -63.5 55.38 C-61 54 -61 54 -57 54 C-57.1 53.1 -57.21 52.2 -57.31 51.28 C-57 48 -57 48 -54.88 45.69 C-53.93 44.99 -52.98 44.29 -52 43.56 C-47.69 40.29 -43.67 36.94 -39.75 33.21 C-38 32 -38 32 -34 32 C-34.5 30.02 -34.5 30.02 -35 28 C-34.48 27.6 -33.96 27.2 -33.42 26.79 C-32.68 26.22 -31.95 25.65 -31.19 25.06 C-30.37 24.43 -29.55 23.8 -28.71 23.16 C-26.83 21.66 -24.98 20.11 -23.16 18.53 C-22.22 17.72 -21.28 16.9 -20.31 16.06 C-19.44 15.29 -18.57 14.52 -17.68 13.72 C-14.52 11.69 -12.68 11.65 -9 12 C-9.22 10.98 -9.22 10.98 -9.44 9.94 C-8.81 5.72 -4.66 0 0 0 Z " fill="#FEFEFE" transform="translate(217,144)"/>
<path d="M0 0 C71.61 0 143.22 0 217 0 C217 4.62 217 9.24 217 14 C145.39 14 73.78 14 0 14 C0 9.38 0 4.76 0 0 Z " fill="#262D38" transform="translate(0,218)"/>
<path d="M0 0 C5.43 4.47 10.23 9.27 15 14.44 C19.91 19.73 24.86 24.94 30 30 C29.5 31.48 29.5 31.48 29 33 C28.34 33 27.68 33 27 33 C27 33.66 27 34.32 27 35 C25.42 36.38 25.42 36.38 23.19 38 C19.49 40.79 16.03 43.73 12.62 46.88 C8.07 51.08 3.36 55.03 -1.49 58.89 C-4.12 61.01 -4.12 61.01 -6.57 63.82 C-7.37 64.54 -8.17 65.26 -9 66 C-12.29 65.7 -13.84 64.49 -16 62.08 C-16.55 61.47 -17.1 60.86 -17.67 60.24 C-18.25 59.58 -18.84 58.93 -19.44 58.25 C-20.68 56.88 -21.92 55.52 -23.16 54.16 C-23.79 53.47 -24.42 52.78 -25.07 52.06 C-28.62 48.26 -32.35 44.64 -36.09 41.04 C-37.43 39.73 -38.72 38.37 -40 37 C-40 35 -40 35 -38.74 33.7 C-37.82 32.92 -37.82 32.92 -36.88 32.12 C-36.15 31.5 -35.42 30.88 -34.67 30.25 C-33.35 29.13 -33.35 29.13 -32 28 C-29.73 26.07 -27.46 24.13 -25.19 22.19 C-24.59 21.67 -23.98 21.16 -23.36 20.63 C-18.63 16.57 -14.01 12.41 -9.42 8.2 C-6.34 5.4 -3.18 2.69 0 0 Z " fill="#F7F7F9" transform="translate(110,95)"/>
<path d="M0 0 C1.02 0.43 1.02 0.43 2.06 0.88 C1.34 4.74 -0.42 8.03 -2.22 11.48 C-2.71 12.44 -2.71 12.44 -3.22 13.42 C-4.29 15.49 -5.36 17.56 -6.44 19.62 C-6.8 20.32 -7.17 21.02 -7.54 21.74 C-9.68 25.86 -11.84 29.98 -14 34.09 C-14.83 35.67 -15.65 37.25 -16.48 38.83 C-17.66 41.08 -18.85 43.33 -20.06 45.56 C-20.68 46.72 -21.31 47.88 -21.95 49.07 C-24.86 53.18 -28.2 55.3 -32.94 56.88 C-39.02 57.45 -42.67 55.97 -47.81 53.06 C-48.49 52.71 -49.16 52.35 -49.86 51.98 C-54.8 49.28 -54.8 49.28 -55.94 45.88 C-50.97 41.31 -45.96 36.84 -40.69 32.62 C-36.26 29.05 -32.08 25.27 -27.94 21.38 C-22.9 16.63 -17.76 12.13 -12.34 7.82 C-10.15 6.05 -8.12 4.18 -6.06 2.25 C-2.94 -0.12 -2.94 -0.12 0 0 Z " fill="#9E8CFA" transform="translate(165.9375,135.125)"/>
<path d="M0 0 C4.4 2.57 8.35 5.96 9.96 10.95 C11.03 17.01 10.34 21.57 7.31 26.94 C2.92 31.56 -0.83 34.04 -7.31 34.38 C-13.36 34.3 -17.35 32.06 -21.69 27.94 C-25.05 22.64 -25.7 17.07 -24.69 10.94 C-22.71 5.82 -19.6 1.99 -14.64 -0.44 C-9.56 -2.06 -5.05 -1.45 0 0 Z " fill="#65D076" transform="translate(111.6875,112.0625)"/>
<path d="M0 0 C7.9 0.27 15.8 0.56 23.7 0.87 C26.39 0.98 29.08 1.07 31.77 1.15 C32.98 1.2 34.19 1.26 35.44 1.31 C36.45 1.35 37.46 1.39 38.5 1.43 C42.02 2.23 43.05 2.91 45 6 C45.53 9.74 45.42 13.42 45.31 17.19 C45.3 18.25 45.28 19.32 45.27 20.42 C45.11 29.29 44.67 38.15 44 47 C43.67 47 43.34 47 43 47 C42.67 42.71 42.34 38.42 42 34 C41.67 35.32 41.34 36.64 41 38 C39.02 38 37.04 38 35 38 C34.33 33.5 34 29.42 34.25 24.88 C34.29 21.31 34 19.31 31.75 16.5 C28.12 13.2 26.6 12.09 21.69 11.81 C18.02 11.88 18.02 11.88 14.64 12.84 C11 13 11 13 7.91 10.76 C6.94 9.76 5.99 8.73 5.06 7.69 C4.32 6.92 4.32 6.92 3.57 6.13 C0 2.34 0 2.34 0 0 Z " fill="#F4D346" transform="translate(143,53)"/>
<path d="M0 0 C8.61 6.44 13.04 14.75 16.39 24.79 C17.28 37.88 15.46 49.19 7.39 59.79 C2.17 65.48 -3.31 69.29 -10.61 71.79 C-11.25 72.01 -11.88 72.23 -12.54 72.46 C-23.51 75.78 -33.52 73.81 -43.61 68.79 C-53.99 62.61 -60.38 53.31 -63.61 41.79 C-64.74 27.74 -62.86 16.79 -53.61 5.79 C-38.92 -9.58 -17.77 -11.35 0 0 Z M-52.36 8.7 C-53.93 10.66 -55.29 12.66 -56.61 14.79 C-57.03 15.39 -57.44 16 -57.87 16.62 C-62.2 24.26 -61.93 34.32 -60.61 42.79 C-57.96 52.31 -52.21 60.56 -43.64 65.5 C-33.72 70.63 -24.78 72.52 -13.57 70.14 C-2.59 66.51 4.87 59.46 10.64 49.65 C14.85 41 14.81 30.56 12.54 21.34 C8.37 10.29 0.87 2.85 -9.62 -2.18 C-25.09 -8.38 -41.46 -3.23 -52.36 8.7 Z " fill="#0D0C55" transform="translate(89.61328125,33.21484375)"/>
<path d="M0 0 C1.94 1.06 1.94 1.06 3 3 C2.79 8.87 0.98 11.91 -3.1 15.9 C-3.87 16.68 -3.87 16.68 -4.66 17.48 C-5.75 18.57 -6.84 19.65 -7.94 20.73 C-9.62 22.37 -11.26 24.04 -12.9 25.72 C-13.97 26.78 -15.03 27.84 -16.1 28.9 C-16.59 29.4 -17.07 29.89 -17.57 30.41 C-21.19 33.88 -24.02 34.84 -29 35 C-31.22 33.81 -31.22 33.81 -33.06 32 C-33.72 31.35 -34.38 30.7 -35.06 30.03 C-35.7 29.36 -36.34 28.69 -37 28 C-37.62 27.41 -38.24 26.82 -38.88 26.22 C-40.52 24.54 -41.85 23.06 -43 21 C-42.9 14.9 -42.9 14.9 -41 13 C-37.48 12.51 -35.01 12.33 -31.98 14.34 C-30.25 15.84 -28.6 17.37 -27 19 C-23.64 17.56 -21.58 15.75 -19.1 13.09 C-18.01 11.95 -18.01 11.95 -16.9 10.78 C-15.38 9.18 -13.87 7.56 -12.38 5.95 C-11.65 5.19 -10.92 4.43 -10.16 3.65 C-9.18 2.6 -9.18 2.6 -8.18 1.53 C-5.3 -0.49 -3.44 -0.35 0 0 Z " fill="#66D177" transform="translate(90,47)"/>
<path d="M0 0 C3.24 1.55 5.5 4.03 7.95 6.59 C8.49 7.13 9.02 7.68 9.58 8.24 C12.94 11.7 16.16 15.25 19.27 18.95 C20.81 20.66 22.38 22.23 24.04 23.82 C24.81 24.55 24.81 24.55 25.59 25.3 C26.61 26.27 27.64 27.22 28.67 28.17 C30.08 29.51 30.08 29.51 32.14 32.02 C32.13 34.61 31.46 35.61 29.9 37.63 C25.53 41.86 20.91 45.69 16.16 49.5 C12.88 52.24 9.76 55.1 6.64 58.02 C1.01 63.3 -4.81 68.23 -10.86 73.02 C-13.98 71.65 -15.96 70.11 -18.26 67.6 C-18.9 66.91 -19.53 66.22 -20.19 65.51 C-20.87 64.77 -21.54 64.03 -22.23 63.27 C-29.59 55.33 -37.15 47.63 -44.86 40.02 C-43.52 36.98 -42.15 35.15 -39.61 33.02 C-38.9 32.42 -38.19 31.82 -37.46 31.2 C-36.6 30.48 -35.74 29.76 -34.86 29.02 C-32.58 27.09 -30.32 25.15 -28.05 23.21 C-27.44 22.7 -26.84 22.18 -26.22 21.65 C-22.42 18.39 -18.68 15.08 -14.98 11.71 C-14.11 10.91 -13.23 10.12 -12.33 9.3 C-10.72 7.82 -9.12 6.32 -7.54 4.81 C-6.84 4.16 -6.14 3.51 -5.42 2.84 C-4.83 2.26 -4.23 1.69 -3.61 1.11 C-1.86 0.02 -1.86 0.02 0 0 Z M-0.86 3.02 C-1.67 3.79 -2.48 4.55 -3.32 5.33 C-8.53 10.2 -13.73 15.01 -19.3 19.46 C-24.53 23.65 -29.4 28.16 -34.27 32.77 C-38.66 36.93 -38.66 36.93 -40.86 38.02 C-39.35 41.59 -37.26 43.84 -34.5 46.54 C-33.63 47.4 -32.76 48.26 -31.87 49.14 C-30.96 50.03 -30.05 50.92 -29.11 51.84 C-23.45 57.39 -17.91 62.9 -12.86 69.02 C-8.39 68.17 -5.97 65.61 -2.8 62.52 C2.15 57.82 7.23 53.41 12.56 49.13 C15.93 46.38 19.15 43.48 22.36 40.55 C24.14 39.02 24.14 39.02 26.14 38.02 C26.14 37.36 26.14 36.7 26.14 36.02 C26.8 36.02 27.46 36.02 28.14 36.02 C28.47 35.03 28.8 34.04 29.14 33.02 C28.69 32.58 28.24 32.14 27.78 31.68 C25.71 29.63 23.65 27.58 21.58 25.52 C20.87 24.83 20.17 24.13 19.44 23.41 C15.37 19.35 11.47 15.21 7.76 10.82 C5.13 7.91 2.17 5.5 -0.86 3.02 Z " fill="#100F55" transform="translate(110.859375,91.9765625)"/>
<path d="M0 0 C-1.86 4.52 -5.12 6.85 -8.81 9.9 C-12.34 13.28 -13.85 15.97 -14.56 20.81 C-14.2 29.29 -5.23 36 0.44 41.5 C5.28 46.22 9.94 50.99 14.35 56.12 C16.86 58.98 19.5 61.69 22.19 64.38 C22.69 64.89 23.2 65.41 23.72 65.95 C27.66 69.9 30.62 72.26 36.25 72.5 C41.93 72.34 44.92 69.71 49 66 C50.21 64.93 50.21 64.93 51.44 63.84 C53.98 61.58 56.49 59.29 59 57 C62.7 53.7 66.45 50.47 70.22 47.25 C71.42 46.23 72.62 45.21 73.81 44.19 C74.41 43.67 75.02 43.16 75.64 42.63 C80.37 38.58 84.96 34.41 89.5 30.16 C93.64 26.58 97.83 23.82 103 22 C99.14 26.76 95.1 30.86 90.38 34.75 C85.75 38.63 81.23 42.57 76.81 46.69 C72.29 50.89 67.61 54.81 62.8 58.67 C58.67 62.11 54.8 65.81 50.92 69.52 C46.14 73.58 41.59 76.79 35.01 76.37 C26.34 74.78 20.78 68.29 14.94 62.25 C14.08 61.38 13.22 60.51 12.33 59.62 C7.94 55.15 3.72 50.58 -0.37 45.83 C-3.52 42.3 -7 39.07 -10.46 35.85 C-15.15 31.3 -17.54 27.16 -18.5 20.56 C-17.26 11.7 -11.12 7.05 -4.43 1.69 C-2 0 -2 0 0 0 Z " fill="#0F0E57" transform="translate(59,113)"/>
<path d="M0 0 C2.07 1.44 3.8 2.78 5.44 4.69 C4.12 7.62 2.69 9.67 0.4 11.92 C-0.47 12.78 -0.47 12.78 -1.36 13.66 C-1.96 14.25 -2.57 14.83 -3.19 15.44 C-3.8 16.04 -4.41 16.64 -5.04 17.26 C-6.54 18.74 -8.05 20.22 -9.56 21.69 C-12.06 20.51 -13.82 19.46 -15.94 17.62 C-18.45 15.46 -18.45 15.46 -21.69 15.19 C-24.56 14.69 -24.56 14.69 -26.44 12.62 C-26.81 11.99 -27.18 11.35 -27.56 10.69 C-25.63 6.13 -22.75 1.79 -18.27 -0.47 C-12.31 -2.32 -5.82 -2.14 0 0 Z " fill="#FAFAFB" transform="translate(74.5625,45.3125)"/>
<path d="M0 0 C3.32 2.09 6.23 4.46 8 8 C8.44 11.85 8.14 13.73 6.31 17.19 C3.89 20.13 2.56 21.66 -1 23 C-5.97 23.3 -9.09 22.74 -13 19.56 C-16.17 15.5 -16.27 13.16 -16 8 C-15.1 4.86 -13.89 3.91 -11.38 1.75 C-7.45 -0.28 -4.28 -1.12 0 0 Z " fill="#0A0A56" transform="translate(168,67)"/>
<path d="M0 0 C4.11 2.47 6.94 6.15 10.02 9.77 C12.95 13.07 16.11 16.13 19.28 19.21 C21 21 21 21 21 22 C0.77 23.9 0.77 23.9 -4.65 19.76 C-8.86 15.2 -11.67 11.34 -12 5 C-8.61 0.12 -5.83 -0.94 0 0 Z " fill="#F9F9FA" transform="translate(140,29)"/>
<path d="M0 0 C1.07 0.66 2.15 1.32 3.25 2 C3.25 2.66 3.25 3.32 3.25 4 C0.49 3.48 -2.08 2.89 -4.75 2 C-12.06 1.34 -18.83 1.23 -24.75 6 C-30.84 12.74 -32.17 17.36 -32.09 26.44 C-31.47 32.87 -28.43 36.67 -23.75 40.88 C-18.5 44.59 -14.18 45.74 -7.75 45 C-1.71 43.71 2.23 41.85 6.25 37 C6.76 36.41 7.28 35.81 7.81 35.2 C9.55 32.54 9.95 30.38 10.44 27.25 C10.6 26.27 10.75 25.28 10.92 24.27 C11.03 23.52 11.14 22.77 11.25 22 C12.24 22 13.23 22 14.25 22 C14.78 28.19 13.35 32.63 10.25 38 C5.66 43.43 0.24 47.62 -6.97 48.31 C-15.64 48.6 -21.99 47.94 -28.75 42 C-34.76 35.64 -36.3 28.71 -36.12 20.1 C-35.32 13.44 -32.29 8.08 -27.38 3.56 C-19.32 -2.52 -9.33 -4.66 0 0 Z " fill="#111158" transform="translate(75.75,43)"/>
<path d="M0 0 C2.59 0.59 2.59 0.59 4.52 1.65 C6.26 4.82 5.4 7.14 4.59 10.59 C2.93 12.82 1.45 14.57 -0.52 16.48 C-1.29 17.27 -1.29 17.27 -2.08 18.06 C-3.16 19.15 -4.26 20.24 -5.36 21.31 C-7.03 22.96 -8.68 24.63 -10.32 26.31 C-11.38 27.37 -12.45 28.43 -13.52 29.48 C-14 29.98 -14.49 30.48 -14.99 30.99 C-18.6 34.47 -21.44 35.42 -26.41 35.59 C-28.64 34.4 -28.64 34.4 -30.48 32.59 C-31.14 31.94 -31.8 31.29 -32.48 30.62 C-33.12 29.95 -33.76 29.28 -34.41 28.59 C-35.03 28 -35.65 27.41 -36.29 26.8 C-37.94 25.12 -39.26 23.64 -40.41 21.59 C-40.32 15.49 -40.32 15.49 -38.41 13.59 C-32.08 13.12 -32.08 13.12 -29.48 14.96 C-28.41 16.59 -28.41 16.59 -28.41 18.59 C-31.08 17.92 -33.75 17.25 -36.41 16.59 C-35.96 21.39 -34.01 23.59 -30.66 26.96 C-29.8 27.86 -28.94 28.75 -28.05 29.67 C-25.64 31.83 -25.64 31.83 -23.08 31.5 C-19.56 30.29 -17.75 28.44 -15.11 25.82 C-14.63 25.34 -14.15 24.86 -13.65 24.37 C-12.64 23.36 -11.64 22.35 -10.64 21.33 C-9.1 19.77 -7.55 18.24 -5.99 16.71 C-5.01 15.73 -4.03 14.74 -3.05 13.75 C-2.16 12.86 -1.27 11.97 -0.35 11.04 C2 8.58 2 8.58 1.59 4.59 C-2.97 5.06 -4.83 6.57 -7.92 9.88 C-8.74 10.73 -9.56 11.59 -10.41 12.48 C-12.13 14.31 -13.84 16.14 -15.55 17.97 C-16.79 19.25 -16.79 19.25 -18.04 20.56 C-19.16 21.75 -19.16 21.75 -20.3 22.97 C-22.41 24.59 -22.41 24.59 -24.69 24.34 C-25.26 24.09 -25.83 23.84 -26.41 23.59 C-25.14 19.77 -23.81 19.56 -20.41 17.59 C-19.04 16.3 -17.7 14.96 -16.42 13.57 C-15.33 12.44 -15.33 12.44 -14.22 11.28 C-12.72 9.69 -11.23 8.09 -9.74 6.48 C-4.19 0.72 -4.19 0.72 0 0 Z " fill="#0E1057" transform="translate(87.4140625,46.4140625)"/>
<path d="M0 0 C4.4 2.57 8.35 5.96 9.96 10.95 C11.03 17.01 10.34 21.57 7.31 26.94 C2.92 31.56 -0.83 34.04 -7.31 34.38 C-13.36 34.3 -17.35 32.06 -21.69 27.94 C-25.05 22.64 -25.7 17.07 -24.69 10.94 C-22.71 5.82 -19.6 1.99 -14.64 -0.44 C-9.56 -2.06 -5.05 -1.45 0 0 Z M-20.56 8 C-22.33 12.63 -22.33 17.05 -21.69 21.94 C-19.55 26.37 -17.3 29.13 -12.69 30.94 C-8.1 31.48 -4.11 31.52 0.19 29.75 C3.56 26.88 6.99 23.54 7.55 18.98 C7.73 13.42 7.14 10.27 3.31 5.94 C-1.04 2 -4.6 1.3 -10.29 1.55 C-14.9 2.29 -17.51 4.64 -20.56 8 Z " fill="#0C1056" transform="translate(111.6875,112.0625)"/>
<path d="M0 0 C0.99 0 1.98 0 3 0 C2.28 3.87 0.52 7.15 -1.28 10.61 C-1.78 11.57 -1.78 11.57 -2.28 12.55 C-3.35 14.62 -4.42 16.68 -5.5 18.75 C-5.86 19.45 -6.23 20.15 -6.6 20.87 C-8.75 24.99 -10.9 29.1 -13.06 33.21 C-13.89 34.79 -14.72 36.37 -15.54 37.96 C-16.72 40.21 -17.92 42.45 -19.12 44.69 C-19.75 45.85 -20.37 47.01 -21.01 48.2 C-23.92 52.3 -27.26 54.42 -32 56 C-38.17 56.6 -41.77 55 -46.94 52 C-47.96 51.43 -47.96 51.43 -49.01 50.84 C-50.68 49.91 -52.34 48.96 -54 48 C-53.67 47.34 -53.34 46.68 -53 46 C-49.46 47.06 -46.34 48.33 -43.12 50.12 C-38.8 52.33 -35.82 52.55 -31 52 C-26.52 49.93 -24.83 47.58 -22.58 43.25 C-21.97 42.09 -21.36 40.93 -20.73 39.74 C-20.09 38.49 -19.45 37.25 -18.81 36 C-18.15 34.73 -17.49 33.47 -16.82 32.2 C-15.49 29.67 -14.17 27.13 -12.86 24.59 C-10.74 20.49 -8.59 16.42 -6.43 12.34 C-3.17 6.19 -3.17 6.19 0 0 Z " fill="#0B0A55" transform="translate(165,136)"/>
<path d="M0 0 C-0.33 0.66 -0.66 1.32 -1 2 C-1.99 2 -2.98 2 -4 2 C-4 2.99 -4 3.98 -4 5 C-6.5 6.69 -6.5 6.69 -9 8 C-8.73 10.44 -8.73 10.44 -8 13 C-7.01 13.66 -6.02 14.32 -5 15 C-4.81 18.12 -4.81 18.12 -5 21 C-5.66 20.67 -6.32 20.34 -7 20 C-7 19.34 -7 18.68 -7 18 C-7.99 18 -8.98 18 -10 18 C-8.2 21.26 -7.17 22.89 -4 25 C-4 25.66 -4 26.32 -4 27 C-2.68 27.33 -1.36 27.66 0 28 C0 28.33 0 28.66 0 29 C-6.06 29.42 -9.2 29.13 -14 25 C-17.63 21.01 -17.45 16.75 -17.28 11.59 C-16.75 6.74 -14.92 4.79 -11.31 1.69 C-7.12 -0.45 -4.65 -0.32 0 0 Z " fill="#65D076" transform="translate(107,114)"/>
<path d="M0 0 C2 0 2 0 3.44 1.38 C3.95 1.91 4.47 2.45 5 3 C5.99 3.66 6.98 4.32 8 5 C8 6.32 8 7.64 8 9 C6 9 6 9 3.88 7 C3.26 6.34 2.64 5.68 2 5 C2 7.31 2 9.62 2 12 C2.62 12.12 3.24 12.25 3.88 12.38 C6 13 6 13 8 15 C8.44 17.44 8.44 17.44 8 20 C5.56 21.69 5.56 21.69 3 23 C2.67 23.66 2.34 24.32 2 25 C0 25 0 25 -2.56 22.75 C-4.77 20.26 -5.64 19.2 -6 16 C-5.01 16 -4.02 16 -3 16 C-2.67 16.66 -2.34 17.32 -2 18 C-1.67 15.63 -1.67 15.63 -2 13 C-3.9 11.16 -3.9 11.16 -6 10 C-5.25 5.25 -5.25 5.25 -3 3 C-2.01 3 -1.02 3 0 3 C0 2.01 0 1.02 0 0 Z " fill="#0C1957" transform="translate(103,116)"/>
<path d="M0 0 C3.33 2.06 6.24 4.47 8 8 C8.44 11.85 8.14 13.73 6.31 17.19 C3.89 20.13 2.56 21.66 -1 23 C-5.97 23.3 -9.09 22.74 -13 19.56 C-16.17 15.5 -16.27 13.16 -16 8 C-15 5.56 -15 5.56 -14 4 C-13.01 4.33 -12.02 4.66 -11 5 C-11.11 5.6 -11.21 6.21 -11.32 6.83 C-12.1 11.74 -12.1 11.74 -11.06 16.5 C-7.91 18.79 -4.85 19.16 -1 19 C1.65 18.34 1.65 18.34 3 16 C3.55 12.9 3.55 10.1 3 7 C1.64 4.73 1.64 4.73 -1 4 C-3.72 3.78 -6.26 3.86 -9 4 C-9.33 3.01 -9.66 2.02 -10 1 C-6.74 -0.63 -3.51 -0.69 0 0 Z " fill="#9382ED" transform="translate(168,67)"/>
<path d="M0 0 C-0.33 0.66 -0.66 1.32 -1 2 C-1.87 1.84 -2.73 1.67 -3.62 1.5 C-16.5 -0.25 -26.93 1.11 -38 8 C-38 5.75 -38 5.75 -37 3 C-26.16 -4.8 -11.95 -4.86 0 0 Z " fill="#090953" transform="translate(81,29)"/>
<path d="M0 0 C1.88 1.19 1.88 1.19 3 3 C3.43 5.85 3.41 7.34 1.88 9.81 C-0.87 11.55 -2.82 11.4 -6 11 C-7.88 9.88 -7.88 9.88 -9 8 C-9.38 4.94 -9.38 4.94 -9 2 C-5.53 -0.31 -4.08 -0.42 0 0 Z " fill="#F4F4F6" transform="translate(167,73)"/>
<path d="M0 0 C3.9 1.11 6.54 2.86 9.05 6.09 C10.95 9.91 10.62 13.87 10 18 C8.2 22.6 5.41 24.84 1 27 C-2.36 27.32 -5.63 27.24 -9 27 C-9.33 26.01 -9.66 25.02 -10 24 C-9.42 24.05 -8.84 24.09 -8.24 24.14 C-2.61 24.4 0.59 23.87 5 20 C7.35 16.8 7.55 13.9 7 10 C5.17 7.08 3.13 4.57 0 3 C0 2.01 0 1.02 0 0 Z " fill="#070655" transform="translate(168,65)"/>
<path d="M0 0 C3.64 0.49 6.18 0.14 9.75 -0.5 C12.12 -0.06 12.12 -0.06 13.75 0.5 C13.75 2.15 13.75 3.8 13.75 5.5 C7.15 5.5 0.55 5.5 -6.25 5.5 C-5.92 3.85 -5.59 2.2 -5.25 0.5 C-3.25 -0.5 -3.25 -0.5 0 0 Z " fill="#C2C3C5" transform="translate(14.25,222.5)"/>
<path d="M0 0 C0.33 0 0.66 0 1 0 C1 0.87 1.01 1.74 1.01 2.64 C1.27 10.84 2.65 16.44 6.92 23.48 C8 26 8 26 7.18 28.34 C6.79 28.89 6.4 29.43 6 30 C1.21 23.39 -2.44 16.21 -1.73 7.85 C-1.26 5.2 -0.7 2.61 0 0 Z " fill="#202061" transform="translate(28,62)"/>
<path d="M0 0 C2.97 0 5.94 0 9 0 C8.67 0.99 8.34 1.98 8 3 C12.95 3.33 17.9 3.66 23 4 C22.67 4.66 22.34 5.32 22 6 C15.4 6 8.8 6 2 6 C2 5.34 2 4.68 2 4 C3.32 4 4.64 4 6 4 C6 3.34 6 2.68 6 2 C4.02 2 2.04 2 0 2 C0 1.34 0 0.68 0 0 Z " fill="#54595F" transform="translate(187,222)"/>
<path d="M0 0 C0.99 0 1.98 0 3 0 C2.27 4.09 0.31 7.59 -1.56 11.25 C-1.89 11.9 -2.22 12.55 -2.56 13.22 C-3.37 14.81 -4.18 16.41 -5 18 C-5.66 18 -6.32 18 -7 18 C-7.66 18.66 -8.32 19.32 -9 20 C-8.4 15.13 -6.28 11.41 -3.94 7.19 C-3.56 6.49 -3.18 5.8 -2.79 5.09 C-1.87 3.39 -0.94 1.69 0 0 Z " fill="#48477F" transform="translate(165,136)"/>
<path d="M0 0 C0 0.99 0 1.98 0 3 C-1.01 3.18 -1.01 3.18 -2.05 3.37 C-3.38 3.62 -3.38 3.62 -4.75 3.88 C-5.63 4.04 -6.51 4.2 -7.42 4.37 C-9.9 4.97 -11.83 5.68 -14 7 C-14.33 7.66 -14.66 8.32 -15 9 C-15.62 7.19 -15.62 7.19 -16 5 C-12.31 -0.54 -6.22 -0.25 0 0 Z " fill="#1E1B56" transform="translate(168,64)"/>
<path d="M0 0 C2.87 0.57 3.86 0.86 6 3 C6.44 5.44 6.44 5.44 6 8 C3.5 9.81 3.5 9.81 1 11 C-0.28 7.15 -0.07 4.05 0 0 Z " fill="#1C385D" transform="translate(105,128)"/>
<path d="M0 0 C0.66 0.33 1.32 0.66 2 1 C0.52 6.67 0.52 6.67 -2.06 8.31 C-3.02 8.65 -3.02 8.65 -4 9 C-5.29 10.23 -5.29 10.23 -7 13 C-7.66 12.67 -8.32 12.34 -9 12 C-9 10 -9 8 -9 6 C-7.68 6 -6.36 6 -5 6 C-4.67 5.34 -4.34 4.68 -4 4 C-2.69 2.65 -1.36 1.31 0 0 Z " fill="#F4DE83" transform="translate(150,68)"/>
<path d="M0 0 C9.32 7.81 9.32 7.81 12 11 C11.81 13.31 11.81 13.31 11 15 C9.83 13.83 8.67 12.67 7.51 11.5 C6.47 10.47 5.41 9.46 4.33 8.47 C2.81 7.06 1.4 5.53 0 4 C0 2.68 0 1.36 0 0 Z " fill="#29275F" transform="translate(56,152)"/>
<path d="M0 0 C0.99 0.33 1.98 0.66 3 1 C0.66 6.66 0.66 6.66 -2.69 8.38 C-3.45 8.58 -4.21 8.79 -5 9 C-5 9.99 -5 10.98 -5 12 C-7 11 -7 11 -7.81 9.12 C-8 7 -8 7 -6.88 5.38 C-4.7 3.78 -2.54 2.89 0 2 C0 1.34 0 0.68 0 0 Z " fill="#B7ACF7" transform="translate(155,150)"/>
<path d="M0 0 C0.33 0.99 0.66 1.98 1 3 C0.34 3 -0.32 3 -1 3 C-1 3.66 -1 4.32 -1 5 C-0.34 5.33 0.32 5.66 1 6 C-1.47 7.49 -1.47 7.49 -4 9 C-4.33 8.67 -4.66 8.34 -5 8 C-5.33 8.99 -5.66 9.98 -6 11 C-7.32 9.68 -8.64 8.36 -10 7 C-6.25 4 -6.25 4 -4 4 C-3.67 3.01 -3.34 2.02 -3 1 C-2.01 0.67 -1.02 0.34 0 0 Z " fill="#FAE17A" transform="translate(66,144)"/>
<path d="M0 0 C0 0.66 0 1.32 0 2 C-1.83 2.65 -1.83 2.65 -3.69 3.31 C-7.04 4.56 -10 6.03 -13 8 C-13 5.75 -13 5.75 -12 3 C-8.09 0.12 -4.75 -1.65 0 0 Z " fill="#535384" transform="translate(56,29)"/>
<path d="M0 0 C1.98 0 3.96 0 6 0 C6 1.98 6 3.96 6 6 C4.02 6 2.04 6 0 6 C0 4.02 0 2.04 0 0 Z " fill="#E1E1E2" transform="translate(9,193)"/>
<path d="M0 0 C1.98 0 3.96 0 6 0 C6 1.98 6 3.96 6 6 C4.02 6 2.04 6 0 6 C0 4.02 0 2.04 0 0 Z " fill="#DDDDDD" transform="translate(202,150)"/>
<path d="M0 0 C1.98 0 3.96 0 6 0 C6 1.98 6 3.96 6 6 C4.02 6 2.04 6 0 6 C0 4.02 0 2.04 0 0 Z " fill="#E0E0E1" transform="translate(33,128)"/>
<path d="M0 0 C1.98 0 3.96 0 6 0 C6 1.98 6 3.96 6 6 C4.02 6 2.04 6 0 6 C0 4.02 0 2.04 0 0 Z " fill="#E0E0E0" transform="translate(8,64)"/>
<path d="M0 0 C1.98 0 3.96 0 6 0 C6 1.98 6 3.96 6 6 C4.02 6 2.04 6 0 6 C0 4.02 0 2.04 0 0 Z " fill="#DDDDDD" transform="translate(178,42)"/>
<path d="M0 0 C1.74 0.03 1.74 0.03 3.52 0.05 C4.4 0.08 5.28 0.1 6.19 0.12 C4.3 2.64 3.28 3.11 0.12 3.71 C-1.61 3.82 -1.61 3.82 -3.38 3.94 C-5.11 4.07 -5.11 4.07 -6.88 4.21 C-9.81 4.12 -9.81 4.12 -11.81 2.12 C-7.74 0.17 -4.5 -0.09 0 0 Z " fill="#232361" transform="translate(65.8125,25.875)"/>
<path d="M0 0 C1.98 0 3.96 0 6 0 C6.04 1.67 6.04 3.33 6 5 C5 6 5 6 2.44 6.06 C1.23 6.03 1.23 6.03 0 6 C0 4.02 0 2.04 0 0 Z " fill="#DCC04A" transform="translate(154,107)"/>
<path d="M0 0 C1.65 0 3.3 0 5 0 C5.31 2.25 5.31 2.25 5 5 C2.5 7.31 2.5 7.31 0 9 C0 6.03 0 3.06 0 0 Z " fill="#E0DEDB" transform="translate(106,63)"/>
<path d="M0 0 C1.98 0 3.96 0 6 0 C6 1.98 6 3.96 6 6 C4.33 6.04 2.67 6.04 1 6 C0 5 0 5 -0.06 2.44 C-0.04 1.63 -0.02 0.83 0 0 Z " fill="#E0E0E1" transform="translate(8,21)"/>
<path d="M0 0 C1.68 0.29 3.34 0.62 5 1 C5 2.65 5 4.3 5 6 C3.02 6 1.04 6 -1 6 C-1.04 4.33 -1.04 2.67 -1 1 C-0.67 0.67 -0.34 0.34 0 0 Z " fill="#DDDDDD" transform="translate(107,192)"/>
<path d="M0 0 C2.97 0.5 2.97 0.5 6 1 C6 2.65 6 4.3 6 6 C3.69 5.67 1.38 5.34 -1 5 C-0.67 3.35 -0.34 1.7 0 0 Z " fill="#AAABAE" transform="translate(22,222)"/>
<path d="M0 0 C0.66 1.98 1.32 3.96 2 6 C0.68 5.67 -0.64 5.34 -2 5 C-2 4.34 -2 3.68 -2 3 C-2.66 3 -3.32 3 -4 3 C-3.67 3.99 -3.34 4.98 -3 6 C-4.65 6 -6.3 6 -8 6 C-4.77 0 -4.77 0 0 0 Z " fill="#BEBFC1" transform="translate(47,222)"/>
<path d="M0 0 C1.98 0 3.96 0 6 0 C6 1.65 6 3.3 6 5 C4.02 5.33 2.04 5.66 0 6 C0 4.02 0 2.04 0 0 Z " fill="#DDDDDD" transform="translate(154,193)"/>
<path d="M0 0 C1.65 0 3.3 0 5 0 C5.33 1.98 5.66 3.96 6 6 C4.02 6 2.04 6 0 6 C0 4.02 0 2.04 0 0 Z " fill="#DDDDDE" transform="translate(33,171)"/>
<path d="M0 0 C1.98 0 3.96 0 6 0 C6 1.65 6 3.3 6 5 C4.02 5.33 2.04 5.66 0 6 C0 4.02 0 2.04 0 0 Z " fill="#DDDDDD" transform="translate(154,21)"/>
<path d="M0 0 C1.98 0.99 1.98 0.99 4 2 C4 2.66 4 3.32 4 4 C4.66 4.33 5.32 4.66 6 5 C5.34 6.32 4.68 7.64 4 9 C2.68 8.34 1.36 7.68 0 7 C0 4.69 0 2.38 0 0 Z " fill="#55AF70" transform="translate(105,121)"/>
<path d="M0 0 C1.65 0 3.3 0 5 0 C5 1.98 5 3.96 5 6 C2.36 5.67 -0.28 5.34 -3 5 C-2.01 4.67 -1.02 4.34 0 4 C0 2.68 0 1.36 0 0 Z " fill="#D7D7DB" transform="translate(106,106)"/>
<path d="M0 0 C0.66 0 1.32 0 2 0 C1.67 1.98 1.34 3.96 1 6 C-1.64 6.66 -4.28 7.32 -7 8 C-5.68 5.69 -4.36 3.38 -3 1 C-2.01 1.33 -1.02 1.66 0 2 C0 1.34 0 0.68 0 0 Z " fill="#F5DD78" transform="translate(162,58)"/>
<path d="M0 0 C1.98 0 3.96 0 6 0 C6 1.65 6 3.3 6 5 C4.02 5 2.04 5 0 5 C0 3.35 0 1.7 0 0 Z " fill="#DFDFE0" transform="translate(81,0)"/>
<path d="M0 0 C2.62 0.38 2.62 0.38 5 1 C4 4 4 4 0.94 5.69 C-0.03 6.12 -1 6.55 -2 7 C-2.12 4.62 -2.12 4.62 -2 2 C-1.34 1.34 -0.68 0.68 0 0 Z " fill="#FAE27D" transform="translate(167,55)"/>
<path d="M0 0 C1.98 0 3.96 0 6 0 C6 1.65 6 3.3 6 5 C3.03 4.5 3.03 4.5 0 4 C0 2.68 0 1.36 0 0 Z " fill="#DDDDDE" transform="translate(178,0)"/>
<path d="M0 0 C5.5 -0.37 5.5 -0.37 7.88 1.38 C9 3 9 3 9 5 C7.67 4.67 6.33 4.33 5 4 C3.95 3.75 3.95 3.75 2.88 3.5 C1 3 1 3 -1 2 C-0.67 1.34 -0.34 0.68 0 0 Z " fill="#050A4F" transform="translate(50,60)"/>
<path d="M0 0 C1.65 0 3.3 0 5 0 C5 1.65 5 3.3 5 5 C3.35 5 1.7 5 0 5 C0 3.35 0 1.7 0 0 Z " fill="#DCC150" transform="translate(82,172)"/>
<path d="M0 0 C0.99 0 1.98 0 3 0 C2.37 2.93 1.41 5.36 0 8 C-0.99 8 -1.98 8 -3 8 C-1.12 2.25 -1.12 2.25 0 0 Z " fill="#17175C" transform="translate(165,136)"/>
<path d="M0 0 C0.66 0 1.32 0 2 0 C2 4.62 2 9.24 2 14 C1.67 14 1.34 14 1 14 C0.64 11.86 0.29 9.71 -0.06 7.56 C-0.26 6.37 -0.46 5.17 -0.66 3.94 C-0.77 2.97 -0.88 2 -1 1 C-0.67 0.67 -0.34 0.34 0 0 Z " fill="#30306F" transform="translate(188,85)"/>
<path d="M0 0 C1.32 0.33 2.64 0.66 4 1 C3.34 2.32 2.68 3.64 2 5 C1.34 5 0.68 5 0 5 C-0.33 5.66 -0.66 6.32 -1 7 C-1.62 5.19 -1.62 5.19 -2 3 C-1.34 2.01 -0.68 1.02 0 0 Z " fill="#565484" transform="translate(154,66)"/>
<path d="M0 0 C0.99 0 1.98 0 3 0 C1.12 4.75 1.12 4.75 0 7 C-1.32 6.67 -2.64 6.34 -4 6 C-2.19 3 -2.19 3 0 0 Z " fill="#1D1D5F" transform="translate(33,43)"/>
<path d="M0 0 C1.32 0.33 2.64 0.66 4 1 C3.34 1 2.68 1 2 1 C1.75 1.62 1.5 2.24 1.25 2.88 C-0.21 5.35 -1.38 5.95 -4 7 C-4 5.35 -4 3.7 -4 2 C-3.34 1.67 -2.68 1.34 -2 1 C-1.67 1.66 -1.34 2.32 -1 3 C-0.67 2.01 -0.34 1.02 0 0 Z " fill="#FAE589" transform="translate(72,141)"/>
<path d="M0 0 C-1.39 3.37 -2.98 4.99 -6 7 C-6.33 6.01 -6.66 5.02 -7 4 C-2.25 0 -2.25 0 0 0 Z " fill="#070755" transform="translate(59,113)"/>
<path d="M0 0 C2.99 0.5 4.39 1.26 7 3 C3.04 3 -0.92 3 -5 3 C-3.68 2.34 -2.36 1.68 -1 1 C-0.67 0.67 -0.34 0.34 0 0 Z " fill="#666484" transform="translate(64,104)"/>
<path d="M0 0 C1.65 0 3.3 0 5 0 C5 1.65 5 3.3 5 5 C4.01 4.67 3.02 4.34 2 4 C1.01 4.5 1.01 4.5 0 5 C0 3.35 0 1.7 0 0 Z " fill="#C8C8CB" transform="translate(29,223)"/>
<path d="M0 0 C2.64 0 5.28 0 8 0 C8 0.66 8 1.32 8 2 C6.35 2 4.7 2 3 2 C2.67 2.66 2.34 3.32 2 4 C1.34 2.68 0.68 1.36 0 0 Z " fill="#BDA749" transform="translate(143,53)"/>
<path d="M0 0 C-0.66 1.32 -1.32 2.64 -2 4 C-2.66 4 -3.32 4 -4 4 C-4.66 2.68 -5.32 1.36 -6 0 C-3.51 -1.25 -2.59 -0.78 0 0 Z " fill="#BBAFFC" transform="translate(148,160)"/>
<path d="M0 0 C3.19 0.88 3.19 0.88 6 2 C6 2.33 6 2.66 6 3 C2.62 3.62 2.62 3.62 -1 4 C-1.66 3.34 -2.32 2.68 -3 2 C-2.01 1.34 -1.02 0.68 0 0 Z " fill="#252565" transform="translate(132,26)"/>
<path d="M0 0 C2.48 0.5 2.48 0.5 5 1 C4.67 1.99 4.34 2.98 4 4 C3.34 4 2.68 4 2 4 C1.67 4.66 1.34 5.32 1 6 C0 5 0 5 -0.06 2.44 C-0.04 1.63 -0.02 0.83 0 0 Z " fill="#B6B8BA" transform="translate(35,222)"/>
<path d="M0 0 C1.98 0 3.96 0 6 0 C5.67 0.99 5.34 1.98 5 3 C3.35 3 1.7 3 0 3 C0 2.01 0 1.02 0 0 Z " fill="#DFDFE0" transform="translate(82,214)"/>
<path d="M0 0 C2.64 0.99 5.28 1.98 8 3 C8 3.33 8 3.66 8 4 C5.69 4 3.38 4 1 4 C0.67 2.68 0.34 1.36 0 0 Z " fill="#242466" transform="translate(125,188)"/>
<path d="M0 0 C1.32 1.32 2.64 2.64 4 4 C3.01 4.66 2.02 5.32 1 6 C0.01 4.68 -0.98 3.36 -2 2 C-1.34 2 -0.68 2 0 2 C0 1.34 0 0.68 0 0 Z " fill="#4D577B" transform="translate(59,63)"/>
</svg>
