<svg width="80" height="80" viewBox="0 0 80 80" fill="none" xmlns="http://www.w3.org/2000/svg">
<path d="M80 14C79.8333 7.33333 76.3167 4 69.45 4H10.5C3.66667 4 0.166667 7.33333 0 14V69.95C0.166667 76.65 3.66667 80 10.5 80H69.45C76.3167 80 79.8333 76.65 80 69.95V14Z" fill="url(#paint0_linear_1_976)"/>
<path d="M80 10.5C80 3.5 76.4833 0 69.45 0H10.5C3.5 0 0 3.5 0 10.5V14C0.166667 7.33333 3.66667 4 10.5 4H69.45C76.3167 4 79.8333 7.33333 80 14V10.5Z" fill="url(#paint1_linear_1_976)"/>
<path d="M32.1667 35.9615C30.2333 33.9949 27.8833 33.0115 25.1167 33.0115C22.35 33.0115 20 33.9949 18.0667 35.9615C16.1 37.8949 15.1167 40.2449 15.1167 43.0115H35.1167C35.1167 40.2449 34.1333 37.8949 32.1667 35.9615Z" fill="white"/>
<path d="M29.3667 38.7615C28.2 37.5949 26.7833 37.0115 25.1167 37.0115C23.4833 37.0115 22.0833 37.5949 20.9167 38.7615C19.7167 39.9282 19.1167 41.3449 19.1167 43.0115H31.1167C31.1167 41.3449 30.5333 39.9282 29.3667 38.7615Z" fill="#3D465D"/>
<path d="M62.1667 35.9615C60.2333 33.9949 57.8833 33.0115 55.1167 33.0115C52.35 33.0115 50 33.9949 48.0667 35.9615C46.1 37.8949 45.1167 40.2449 45.1167 43.0115H65.1167C65.1167 40.2449 64.1333 37.8949 62.1667 35.9615Z" fill="white"/>
<path d="M59.3667 38.7615C58.2 37.5949 56.7833 37.0115 55.1167 37.0115C53.4833 37.0115 52.0833 37.5949 50.9167 38.7615C49.7167 39.9282 49.1167 41.3449 49.1167 43.0115H61.1167C61.1167 41.3449 60.5333 39.9282 59.3667 38.7615Z" fill="#3D465D"/>
<path d="M14.0667 35.6116L14.8667 38.5116C15 39.0782 15.3 39.4949 15.7667 39.7616C16.2333 40.0282 16.7333 40.0949 17.2667 39.9616L32.7167 35.8116C33.2833 35.6782 33.7 35.3616 33.9667 34.8616C34.2333 34.4282 34.3 33.9282 34.1667 33.3616L33.3667 30.4616C33.2333 29.9282 32.9333 29.5116 32.4667 29.2116C32 28.9782 31.4833 28.9282 30.9167 29.0616L15.4667 33.2116C14.9333 33.3449 14.5333 33.6449 14.2667 34.1116C14 34.5782 13.9333 35.0782 14.0667 35.6116Z" fill="#3D465D"/>
<path d="M46.3167 29.9615C46.55 30.3949 46.95 30.6782 47.5167 30.8115L62.9667 34.9615C63.5 35.1282 64.0167 35.0949 64.5167 34.8615C64.95 34.5615 65.2333 34.1449 65.3667 33.6115L66.1667 30.7115C66.3 30.1449 66.25 29.6449 66.0167 29.2115C65.7167 28.7115 65.3 28.3782 64.7667 28.2115L49.3167 24.0615C48.75 23.9282 48.25 24.0115 47.8167 24.3115C47.3167 24.5449 47 24.9449 46.8667 25.5115L46.0667 28.4115C45.9333 28.9449 46.0167 29.4615 46.3167 29.9615Z" fill="#3D465D"/>
<path d="M50.0667 49.9115C49.6 49.6115 49.0833 49.5449 48.5167 49.7115C47.9833 49.8449 47.5667 50.1282 47.2667 50.5615C47 50.9282 46.6167 51.2782 46.1167 51.6115C44.8833 52.3782 43.4333 52.7615 41.7667 52.7615C41 52.7615 40.2833 52.6949 39.6167 52.5615C39.05 52.4615 38.5333 52.5615 38.0667 52.8615C37.6 53.0949 37.3 53.4949 37.1667 54.0615C37.0333 54.5615 37.1333 55.0449 37.4667 55.5115C37.7333 55.9115 38.1667 56.1782 38.7667 56.3115C39.6667 56.5115 40.6667 56.6115 41.7667 56.6115C44.3333 56.6115 46.55 56.0115 48.4167 54.8115L48.3667 54.8615C49.5 54.1615 50.3333 53.3782 50.8667 52.5115C51.1333 52.0449 51.2 51.5615 51.0667 51.0615C50.9 50.5282 50.5667 50.1449 50.0667 49.9115Z" fill="#3D465D"/>
<defs>
<linearGradient id="paint0_linear_1_976" x1="40" y1="-1.09798e-07" x2="40" y2="80" gradientUnits="userSpaceOnUse">
<stop stop-color="#71CF93"/>
<stop offset="1" stop-color="#59B15C"/>
</linearGradient>
<linearGradient id="paint1_linear_1_976" x1="39.75" y1="-0.25" x2="39.75" y2="43.25" gradientUnits="userSpaceOnUse">
<stop stop-color="#85DFAF"/>
<stop offset="1" stop-color="#69C581"/>
</linearGradient>
</defs>
</svg>
