<?xml version="1.0" encoding="UTF-8"?>
<!-- Generator: visioncortex VTracer 0.6.3 -->
<svg version="1.1" xmlns="http://www.w3.org/2000/svg" width="1920" height="1080">
<path d="M0 0 C633.6 0 1267.2 0 1920 0 C1920 356.4 1920 712.8 1920 1080 C1286.4 1080 652.8 1080 0 1080 C0 723.6 0 367.2 0 0 Z " fill="#FEFEFE" transform="translate(0,0)"/>
<path d="M0 0 C3.27 0.01 6.54 0 9.8 -0.01 C59.83 -0.05 108.56 11.34 154.7 30.26 C155.45 30.57 156.2 30.87 156.97 31.19 C169.19 36.24 180.72 42.41 192.24 48.88 C194.38 50.08 196.53 51.27 198.68 52.46 C221.11 64.97 242.18 80.61 261.12 97.92 C262.54 99.21 263.97 100.49 265.42 101.73 C271.25 106.74 276.71 112.08 282.14 117.51 C283.03 118.39 283.92 119.27 284.84 120.17 C290.9 126.22 296.37 132.57 301.7 139.26 C302.57 140.29 303.44 141.31 304.31 142.33 C311.67 150.9 318.22 160.01 324.7 169.26 C325.15 169.9 325.6 170.54 326.06 171.19 C336.66 186.36 345.73 202.58 353.73 219.25 C354.75 221.35 355.79 223.44 356.84 225.52 C366.6 245.2 373.96 266.08 379.7 287.26 C379.96 288.18 380.21 289.11 380.47 290.06 C384.23 303.98 387.23 317.93 389.27 332.21 C389.55 334.19 389.85 336.16 390.16 338.14 C395.65 373.13 395.68 412.36 389.7 447.26 C389.48 448.62 389.26 449.97 389.04 451.33 C378.07 517.22 351.77 578.43 310.7 631.26 C309.98 632.2 309.25 633.15 308.5 634.12 C304.55 639.14 300.39 643.93 296.08 648.64 C294.79 650.06 293.51 651.49 292.26 652.94 C287.41 658.61 282.23 663.92 276.95 669.2 C275.47 670.69 273.99 672.19 272.51 673.68 C266.23 679.99 259.68 685.72 252.7 691.26 C251.68 692.12 250.65 692.99 249.64 693.87 C231.34 709.56 210.84 722.73 189.7 734.26 C188.91 734.7 188.12 735.14 187.3 735.59 C172.83 743.54 158.04 750.14 142.64 756.12 C140.16 757.08 137.68 758.07 135.21 759.07 C124.32 763.4 113.05 766.36 101.7 769.26 C100.74 769.51 99.78 769.76 98.78 770.02 C84.1 773.76 69.18 776.68 54.2 779.01 C53.13 779.18 53.13 779.18 52.04 779.36 C36.48 781.66 20.62 781.45 4.93 781.45 C1.47 781.45 -1.98 781.47 -5.44 781.49 C-19.18 781.52 -32.66 780.93 -46.3 779.26 C-48.1 779.04 -48.1 779.04 -49.94 778.82 C-139.45 767.08 -229.68 721.72 -288.64 652.2 C-290.57 649.94 -292.59 647.76 -294.61 645.57 C-326.55 610.07 -350.47 565.82 -366.3 521.06 C-366.94 519.26 -367.59 517.46 -368.24 515.66 C-377.89 489.19 -383.64 461.01 -386.48 433.01 C-386.57 432.16 -386.66 431.32 -386.74 430.45 C-389.78 399.8 -389.66 368.77 -385.3 338.26 C-385.18 337.44 -385.07 336.61 -384.96 335.77 C-384.23 330.56 -383.31 325.41 -382.3 320.26 C-382.1 319.26 -381.91 318.26 -381.71 317.22 C-369.13 253.15 -341.67 192.23 -299.3 142.26 C-298.47 141.26 -297.64 140.26 -296.79 139.23 C-285.6 125.75 -273.71 112.5 -260.39 101.08 C-258.96 99.84 -257.55 98.57 -256.17 97.28 C-248.33 90 -239.86 83.64 -231.3 77.26 C-230.19 76.43 -230.19 76.43 -229.06 75.59 C-175.34 35.52 -110.9 9.8 -44.3 2.26 C-43.54 2.17 -42.78 2.09 -41.99 2 C-27.98 0.45 -14.09 -0.05 0 0 Z " fill="#E9B940" transform="translate(920.295654296875,141.7392578125)"/>
<path d="M0 0 C0.79 0 1.58 0 2.4 0 C30.79 0.09 59.51 3.56 86.38 13.19 C87.98 13.73 89.6 14.27 91.21 14.81 C101.85 18.4 112.21 22.4 122.38 27.19 C123.01 27.49 123.65 27.79 124.31 28.1 C147.99 39.34 170.39 53.11 189.81 70.77 C191.16 71.99 192.52 73.18 193.89 74.37 C206.33 85.23 218.36 97.04 228.38 110.19 C229.17 111.19 229.96 112.19 230.78 113.21 C261.82 152.48 283.46 200.58 290.1 250.29 C290.47 252.86 290.98 255.39 291.5 257.94 C293.76 270.18 293.58 282.9 293.56 295.31 C293.56 296.46 293.56 296.46 293.56 297.63 C293.53 309.92 293.07 322 291.38 334.19 C291.25 335.15 291.12 336.12 290.98 337.11 C286.28 371.61 275.26 403.25 259.38 434.19 C258.95 435.02 258.53 435.84 258.09 436.7 C240.48 470.85 213 503.93 182.38 527.19 C181.44 527.94 180.5 528.7 179.53 529.48 C132.08 567.21 69.88 590.64 9.04 591.46 C7.74 591.48 7.74 591.48 6.42 591.5 C-66.88 592.35 -140.38 570.09 -195.11 519.49 C-197.18 517.6 -199.27 515.76 -201.39 513.93 C-212.39 504.33 -222.76 493.79 -231.62 482.19 C-232.64 480.9 -233.65 479.62 -234.66 478.34 C-267.55 436.42 -288.08 386.88 -295.22 334.17 C-295.56 331.65 -295.93 329.15 -296.32 326.64 C-300.62 296 -298.84 262.45 -291.22 232.54 C-290.56 229.92 -289.92 227.3 -289.28 224.68 C-279.1 183.59 -260.49 146.58 -234.62 113.19 C-233.58 111.82 -233.58 111.82 -232.51 110.42 C-224.7 100.4 -215.82 91.31 -206.88 82.31 C-206.27 81.71 -205.67 81.1 -205.05 80.48 C-151.25 26.86 -75 -0.12 0 0 Z M-44.62 34.19 C-45.66 34.38 -46.7 34.56 -47.77 34.76 C-81.67 41.13 -114.75 53.09 -143.62 72.19 C-144.28 72.62 -144.94 73.05 -145.61 73.49 C-154.35 79.27 -162.65 85.38 -170.62 92.19 C-171.75 93.12 -172.87 94.06 -173.99 94.99 C-184.66 103.93 -194.74 113.44 -203.62 124.19 C-204.04 124.67 -204.45 125.16 -204.87 125.66 C-218.17 141.45 -229.12 158.88 -238.62 177.19 C-239.15 178.19 -239.15 178.19 -239.68 179.22 C-249.85 199.05 -256.76 220.49 -261.62 242.19 C-261.84 243.07 -262.05 243.94 -262.26 244.85 C-265.86 260.3 -265.99 275.71 -266 291.5 C-266 292.52 -266 293.54 -266.01 294.59 C-266 312.75 -264.89 330.6 -261.31 348.44 C-261.09 349.54 -260.88 350.65 -260.65 351.79 C-259.03 359.75 -257.09 367.44 -254.36 375.1 C-253.53 377.45 -252.74 379.81 -251.95 382.17 C-242.51 409.75 -228.86 435.4 -210.62 458.19 C-209.56 459.54 -209.56 459.54 -208.46 460.93 C-196.36 476.02 -182.94 490.33 -167.62 502.19 C-167.06 502.63 -166.5 503.07 -165.92 503.53 C-132.07 530.2 -92.13 548.74 -49.62 556.19 C-48.21 556.46 -46.79 556.73 -45.37 557 C-34.46 559.02 -23.71 559.94 -12.62 560.19 C-11.66 560.21 -10.7 560.23 -9.71 560.25 C19.91 560.82 49.19 557.7 77.38 548.19 C78.18 547.92 78.99 547.66 79.82 547.38 C128.12 531.31 173.04 501.65 204.38 461.19 C205.16 460.21 205.95 459.23 206.76 458.21 C229.62 429.49 244.38 396.29 254.38 361.19 C254.85 359.57 254.85 359.57 255.34 357.91 C257.2 351.08 258.31 344.1 259.5 337.12 C259.67 336.12 259.84 335.11 260.02 334.08 C261.98 322.11 262.61 310.31 262.62 298.19 C262.63 297.45 262.63 296.71 262.63 295.95 C262.61 276.14 260.86 256.54 255.92 237.32 C255.35 235.1 254.82 232.87 254.29 230.64 C245.25 193.52 227.56 158.72 203.38 129.19 C202.89 128.59 202.4 127.99 201.9 127.37 C190.75 113.67 178.33 101.03 164.38 90.19 C163.31 89.28 163.31 89.28 162.22 88.36 C106.91 41.92 26.31 21.28 -44.62 34.19 Z " fill="#DA8C2C" transform="translate(924.625,236.8125)"/>
<path d="M0 0 C5 2.84 8.92 6.96 10.75 12.44 C10.83 15.1 10.87 17.73 10.85 20.39 C10.85 21.55 10.85 21.55 10.84 22.73 C10.84 25.19 10.83 27.66 10.81 30.12 C10.81 31.8 10.8 33.47 10.8 35.14 C10.79 39.24 10.77 43.34 10.75 47.44 C11.45 47.43 12.15 47.42 12.87 47.41 C19.49 47.33 26.11 47.27 32.73 47.23 C36.14 47.21 39.54 47.18 42.94 47.14 C46.86 47.08 50.78 47.06 54.7 47.05 C56.52 47.02 56.52 47.02 58.38 46.98 C66.09 46.98 69.76 47.65 75.36 52.96 C79.74 58.38 81.46 62.42 80.75 69.44 C78.7 76.01 74.4 80.63 68.75 84.44 C65.91 85.32 63.35 85.57 60.39 85.58 C59.09 85.58 59.09 85.58 57.76 85.59 C56.82 85.59 55.88 85.59 54.91 85.6 C53.41 85.6 53.41 85.6 51.88 85.61 C49.71 85.62 47.54 85.63 45.37 85.64 C41.93 85.65 38.49 85.67 35.05 85.69 C25.28 85.75 15.5 85.81 5.72 85.84 C-0.26 85.86 -6.25 85.9 -12.23 85.94 C-14.5 85.95 -16.78 85.96 -19.05 85.97 C-22.25 85.97 -25.44 85.99 -28.63 86.02 C-30.03 86.02 -30.03 86.02 -31.45 86.01 C-46.25 86.2 -59.3 92.7 -69.84 102.88 C-80.84 114.58 -84.61 128.8 -84.46 144.56 C-83.65 159.45 -77.07 172.32 -66.25 182.44 C-59.47 188.24 -52.8 191.94 -44.25 194.44 C-43.22 194.78 -42.18 195.12 -41.12 195.47 C-36.82 196.54 -33.03 196.72 -28.63 196.71 C-26.96 196.73 -25.28 196.75 -23.6 196.77 C-21 196.8 -18.41 196.81 -15.81 196.82 C12.16 196.93 35.23 204.86 55.75 224.44 C56.43 225.03 57.1 225.62 57.8 226.22 C72.14 239.27 78.9 257.99 82.75 276.44 C82.95 277.26 83.14 278.08 83.34 278.93 C87.28 303.27 78.81 328.63 64.71 348.29 C62.79 350.74 60.81 353.1 58.75 355.44 C57.97 356.34 57.97 356.34 57.18 357.25 C45.76 369.6 27.73 381 10.75 382.44 C10.8 383.72 10.84 385 10.89 386.31 C10.93 388.02 10.96 389.73 11 391.44 C11.03 392.28 11.07 393.12 11.1 393.98 C11.19 400 10.14 404.41 6.75 409.44 C2.12 414.07 -2.69 415.52 -9.12 415.81 C-14.25 415.7 -18.08 414.42 -22.25 411.44 C-24.62 408.94 -24.62 408.94 -26.25 406.44 C-26.61 405.91 -26.97 405.38 -27.34 404.83 C-28.74 401.16 -28.46 397.58 -28.38 393.69 C-28.37 392.89 -28.36 392.1 -28.35 391.29 C-28.32 389.34 -28.29 387.39 -28.25 385.44 C-29.66 385.45 -29.66 385.45 -31.09 385.46 C-39.95 385.52 -48.81 385.56 -57.67 385.59 C-62.22 385.61 -66.77 385.63 -71.33 385.66 C-75.72 385.7 -80.12 385.71 -84.51 385.72 C-86.19 385.73 -87.87 385.74 -89.54 385.75 C-91.89 385.78 -94.24 385.78 -96.59 385.78 C-97.63 385.79 -97.63 385.79 -98.68 385.81 C-104.64 385.77 -108.47 383.97 -112.94 380.12 C-117.8 374.47 -118.93 369.79 -118.73 362.41 C-117.97 357.67 -115.86 354.55 -112.25 351.44 C-106.5 347.47 -102.32 346.87 -95.42 346.96 C-94.46 346.95 -93.5 346.95 -92.51 346.94 C-90.43 346.94 -88.34 346.94 -86.26 346.95 C-82.96 346.97 -79.65 346.96 -76.34 346.95 C-68.13 346.92 -59.91 346.93 -51.69 346.94 C-44.75 346.95 -37.81 346.94 -30.87 346.91 C-27.64 346.91 -24.4 346.92 -21.17 346.94 C-1.7 346.94 14.8 343.81 29.46 329.92 C41.8 316.54 44.44 301.17 43.88 283.69 C43.15 271.22 36.41 260.11 27.75 251.44 C26.97 250.64 26.97 250.64 26.17 249.82 C12.17 236.67 -5.33 235.99 -23.34 236 C-52.36 235.96 -76.6 226.41 -97.81 206.31 C-115.71 187.96 -123.7 163.48 -123.41 138.19 C-123.37 135.94 -123.31 133.69 -123.25 131.44 C-123.24 130.51 -123.24 129.59 -123.23 128.64 C-122.21 106.84 -108.03 85.19 -92.7 70.55 C-80.06 59.64 -64.75 51.44 -48.25 48.44 C-47.12 48.21 -45.98 47.98 -44.81 47.75 C-41.36 47.45 -38 47.41 -34.53 47.42 C-33.35 47.42 -32.18 47.42 -30.97 47.43 C-30.07 47.43 -29.17 47.43 -28.25 47.44 C-28.28 46.39 -28.3 45.34 -28.33 44.26 C-28.42 40.34 -28.48 36.42 -28.52 32.5 C-28.55 30.8 -28.58 29.11 -28.63 27.42 C-29.06 10.26 -29.06 10.26 -24.61 4.76 C-17.7 -1.95 -8.94 -3.92 0 0 Z " fill="#DA8C2C" transform="translate(946.25,325.5625)"/>
<path d="M0 0 C0.33 0 0.66 0 1 0 C1.13 0.96 1.26 1.92 1.4 2.91 C6.12 50.42 6.12 50.42 31.4 89.03 C35.36 92.03 39.43 94.11 44 96 C45.14 96.5 45.14 96.5 46.3 97.01 C62.64 103.61 80.53 105.71 97.92 107.66 C99.84 107.88 99.84 107.88 101.8 108.11 C102.95 108.23 104.09 108.36 105.28 108.49 C108 109 108 109 110 111 C109.16 111.1 108.32 111.2 107.46 111.3 C67.73 114.95 67.73 114.95 32 131 C31.24 131.56 30.47 132.12 29.68 132.7 C9.7 148.83 6.36 178.17 3.25 202.06 C3.03 203.72 2.81 205.38 2.58 207.03 C2.05 211.02 1.52 215.01 1 219 C-1.61 216.39 -1.48 214.81 -1.93 211.16 C-2.08 209.96 -2.24 208.76 -2.39 207.53 C-2.55 206.24 -2.71 204.95 -2.88 203.62 C-6.56 168.37 -6.56 168.37 -23.71 138.34 C-25 137 -25 137 -25 135 C-25.58 134.73 -26.15 134.46 -26.75 134.18 C-29 133 -30.94 131.66 -33 130.19 C-54.94 115.54 -84.59 114.02 -110 111 C-107.06 109.35 -104.69 108.68 -101.34 108.36 C-100.42 108.26 -99.49 108.16 -98.54 108.06 C-97.54 107.96 -96.53 107.86 -95.5 107.75 C-69.81 104.78 -39.43 101.07 -21.62 80.19 C-11.29 66.34 -7.57 48.72 -4.81 32 C-4.56 30.56 -4.31 29.11 -4.06 27.67 C-2.49 18.47 -1.17 9.26 0 0 Z " fill="#EABA42" transform="translate(574,94)"/>
<path d="M0 0 C0.33 0 0.66 0 1 0 C1.1 0.95 1.1 0.95 1.2 1.91 C5.2 47.86 5.2 47.86 27.98 86.45 C50.35 103.59 80.95 105.76 108 109 C107.67 109.66 107.34 110.32 107 111 C104.67 111.47 102.41 111.8 100.05 112.08 C98.58 112.27 97.11 112.46 95.63 112.65 C94.47 112.79 94.47 112.79 93.28 112.94 C53.09 118.06 53.09 118.06 21.25 141.33 C14.36 150.54 10.71 161.72 8.44 172.85 C7.98 175.1 7.48 177.34 6.98 179.57 C4.07 192.94 2.46 206.41 1 220 C-1.08 216.48 -1.56 213.19 -2.11 209.16 C-2.31 207.79 -2.5 206.41 -2.7 205.03 C-2.8 204.31 -2.9 203.59 -3 202.85 C-7.09 168.7 -7.09 168.7 -23 139 C-23.61 138.18 -24.22 137.36 -24.85 136.51 C-27.13 133.85 -29.28 132.27 -32.25 130.44 C-33.14 129.88 -34.03 129.32 -34.95 128.75 C-42.43 124.46 -49.59 121.71 -57.94 119.5 C-59.07 119.2 -60.19 118.9 -61.36 118.59 C-76.68 114.63 -92.24 112.27 -108 111 C-108 110.34 -108 109.68 -108 109 C-107.24 108.91 -106.48 108.81 -105.7 108.71 C-65.94 104.31 -65.94 104.31 -30 88 C-28.95 87.28 -27.9 86.56 -26.81 85.81 C-7.45 66.45 -3.89 33.45 -1.39 7.55 C-1.1 4.91 -0.76 2.54 0 0 Z " fill="#EABA42" transform="translate(1278,751)"/>
<path d="M0 0 C0.33 0 0.66 0 1 0 C1.33 3.63 1.66 7.26 2 11 C1.01 10.67 0.02 10.34 -1 10 C-0.67 6.7 -0.34 3.4 0 0 Z " fill="#EFCA6D" transform="translate(574,94)"/>
</svg>
