<?xml version="1.0" encoding="UTF-8"?>
<!-- Generator: visioncortex VTracer 0.6.3 -->
<svg version="1.1" xmlns="http://www.w3.org/2000/svg" width="360" height="360">
<path d="M0 0 C118.8 0 237.6 0 360 0 C360 118.8 360 237.6 360 360 C241.2 360 122.4 360 0 360 C0 241.2 0 122.4 0 0 Z " fill="#FEFEFE" transform="translate(0,0)"/>
<path d="M0 0 C0.31 11.13 -0.64 22.16 -1.5 33.25 C-1.64 35.17 -1.79 37.09 -1.93 39.01 C-2.28 43.67 -2.64 48.34 -3 53 C-2.01 53 -1.02 53 0 53 C0.33 53.99 0.66 54.98 1 56 C1.97 55.73 2.94 55.45 3.93 55.17 C7.54 54.16 11.16 53.16 14.77 52.15 C16.33 51.72 17.89 51.28 19.45 50.85 C21.7 50.21 23.94 49.59 26.2 48.97 C26.89 48.77 27.58 48.58 28.29 48.37 C32.29 47.28 35.85 46.8 40 47 C40.84 49.1 41.67 51.21 42.5 53.31 C42.96 54.48 43.43 55.66 43.91 56.86 C45 60 45 60 45 63 C36.42 63 27.84 63 19 63 C23.62 63.99 28.24 64.98 33 66 C31.17 69.67 29.75 71.47 26.88 74.25 C26.15 74.96 25.43 75.66 24.68 76.39 C23.85 77.19 23.85 77.19 23 78 C17.88 76.3 13.65 73.32 9.19 70.38 C8.01 69.6 8.01 69.6 6.8 68.81 C4.86 67.55 2.93 66.27 1 65 C4.67 68.06 8.52 70.67 12.56 73.19 C22.28 79.36 31.32 86.13 39.77 93.96 C41.63 95.66 43.52 97.2 45.5 98.75 C75.47 124.42 78.66 169.44 83.31 205.74 C83.55 207.59 83.79 209.43 84.03 211.28 C84.56 215.36 85.06 219.44 85.43 223.55 C85.5 224.24 85.57 224.93 85.65 225.64 C85.83 227.44 85.99 229.25 86.14 231.05 C87.56 235.92 91.11 237.78 95.29 240.3 C99.14 242.71 100.83 245.04 103 249 C103.54 251.95 103.53 253.17 101.94 255.69 C96.45 259.4 90.07 259.29 83.7 259.25 C82.79 259.26 81.87 259.26 80.93 259.26 C77.87 259.27 74.81 259.27 71.75 259.26 C69.56 259.26 67.36 259.27 65.16 259.27 C59.21 259.28 53.25 259.27 47.29 259.27 C41.05 259.26 34.81 259.27 28.58 259.27 C17.43 259.28 6.29 259.27 -4.86 259.26 C-14.96 259.25 -25.06 259.25 -35.15 259.26 C-46.89 259.27 -58.63 259.28 -70.36 259.27 C-76.57 259.27 -82.78 259.27 -88.99 259.27 C-94.83 259.28 -100.66 259.27 -106.5 259.26 C-108.64 259.26 -110.79 259.26 -112.93 259.27 C-115.85 259.27 -118.78 259.26 -121.7 259.25 C-122.55 259.26 -123.39 259.26 -124.27 259.27 C-129.9 259.23 -135.05 258.75 -140 255.81 C-141.72 252.7 -140.86 250.33 -140 247 C-137.28 242.99 -134.54 241.01 -130.38 238.62 C-127.06 236.24 -125.26 234.91 -124.12 230.93 C-124.02 229.76 -123.91 228.59 -123.81 227.39 C-123.67 226.04 -123.54 224.7 -123.4 223.35 C-123.34 222.64 -123.27 221.93 -123.21 221.2 C-122.85 217.42 -122.36 213.65 -121.89 209.88 C-121.69 208.28 -121.5 206.68 -121.3 205.08 C-119.22 188.22 -116.85 171.57 -113 155 C-112.83 154.24 -112.65 153.49 -112.47 152.71 C-108.48 135.67 -101.45 119.38 -90 106 C-89.36 105.24 -88.72 104.48 -88.06 103.7 C-74.27 87.69 -55.88 75.95 -38 65 C-38.07 64.37 -38.14 63.75 -38.22 63.1 C-38.31 62.28 -38.4 61.47 -38.5 60.62 C-38.59 59.81 -38.69 59 -38.78 58.16 C-39 56 -39 56 -39 54 C-40.36 52.63 -41.79 51.33 -43.25 50.06 C-47.18 46.6 -51.08 43.11 -54.94 39.56 C-60.61 34.35 -66.3 29.17 -72 24 C-68.91 20.62 -65.34 19.33 -61.12 17.75 C-60.33 17.45 -59.53 17.15 -58.71 16.83 C-44.64 11.56 -30.44 7 -15.94 3.06 C-14.25 2.6 -14.25 2.6 -12.53 2.13 C-11.48 1.85 -10.42 1.57 -9.34 1.29 C-8.41 1.04 -7.47 0.79 -6.51 0.53 C-4 0 -4 0 0 0 Z " fill="#FDFDFD" transform="translate(199,39)"/>
<path d="M0 0 C0.31 11.13 -0.64 22.16 -1.5 33.25 C-1.64 35.17 -1.79 37.09 -1.93 39.01 C-2.28 43.67 -2.64 48.34 -3 53 C-2.01 53 -1.02 53 0 53 C0.33 53.99 0.66 54.98 1 56 C1.97 55.73 2.94 55.45 3.93 55.17 C7.54 54.16 11.16 53.16 14.77 52.15 C16.33 51.72 17.89 51.28 19.45 50.85 C21.7 50.21 23.94 49.59 26.2 48.97 C26.89 48.77 27.58 48.58 28.29 48.37 C32.29 47.28 35.85 46.8 40 47 C40.84 49.1 41.67 51.21 42.5 53.31 C42.96 54.48 43.43 55.66 43.91 56.86 C45 60 45 60 45 63 C36.42 63 27.84 63 19 63 C23.62 63.99 28.24 64.98 33 66 C31.17 69.67 29.75 71.47 26.88 74.25 C26.15 74.96 25.43 75.66 24.68 76.39 C23.85 77.19 23.85 77.19 23 78 C17.88 76.3 13.65 73.32 9.19 70.38 C8.01 69.6 8.01 69.6 6.8 68.81 C4.86 67.55 2.93 66.27 1 65 C4.67 68.06 8.52 70.67 12.56 73.19 C22.28 79.36 31.32 86.13 39.77 93.96 C41.63 95.66 43.52 97.2 45.5 98.75 C75.47 124.42 78.66 169.44 83.31 205.74 C83.55 207.59 83.79 209.43 84.03 211.28 C84.56 215.36 85.06 219.44 85.43 223.55 C85.5 224.24 85.57 224.93 85.65 225.64 C85.83 227.44 85.99 229.25 86.14 231.05 C87.56 235.92 91.11 237.78 95.29 240.3 C99.14 242.71 100.83 245.04 103 249 C103.54 251.95 103.53 253.17 101.94 255.69 C96.45 259.4 90.07 259.29 83.7 259.25 C82.79 259.26 81.87 259.26 80.93 259.26 C77.87 259.27 74.81 259.27 71.75 259.26 C69.56 259.26 67.36 259.27 65.16 259.27 C59.21 259.28 53.25 259.27 47.29 259.27 C41.05 259.26 34.81 259.27 28.58 259.27 C17.43 259.28 6.29 259.27 -4.86 259.26 C-14.96 259.25 -25.06 259.25 -35.15 259.26 C-46.89 259.27 -58.63 259.28 -70.36 259.27 C-76.57 259.27 -82.78 259.27 -88.99 259.27 C-94.83 259.28 -100.66 259.27 -106.5 259.26 C-108.64 259.26 -110.79 259.26 -112.93 259.27 C-115.85 259.27 -118.78 259.26 -121.7 259.25 C-122.55 259.26 -123.39 259.26 -124.27 259.27 C-129.9 259.23 -135.05 258.75 -140 255.81 C-141.72 252.7 -140.86 250.33 -140 247 C-137.28 242.99 -134.54 241.01 -130.38 238.62 C-127.06 236.24 -125.26 234.91 -124.12 230.93 C-124.02 229.76 -123.91 228.59 -123.81 227.39 C-123.67 226.04 -123.54 224.7 -123.4 223.35 C-123.34 222.64 -123.27 221.93 -123.21 221.2 C-122.85 217.42 -122.36 213.65 -121.89 209.88 C-121.69 208.28 -121.5 206.68 -121.3 205.08 C-119.22 188.22 -116.85 171.57 -113 155 C-112.83 154.24 -112.65 153.49 -112.47 152.71 C-108.48 135.67 -101.45 119.38 -90 106 C-89.36 105.24 -88.72 104.48 -88.06 103.7 C-74.27 87.69 -55.88 75.95 -38 65 C-38.07 64.37 -38.14 63.75 -38.22 63.1 C-38.31 62.28 -38.4 61.47 -38.5 60.62 C-38.59 59.81 -38.69 59 -38.78 58.16 C-39 56 -39 56 -39 54 C-40.36 52.63 -41.79 51.33 -43.25 50.06 C-47.18 46.6 -51.08 43.11 -54.94 39.56 C-60.61 34.35 -66.3 29.17 -72 24 C-68.91 20.62 -65.34 19.33 -61.12 17.75 C-60.33 17.45 -59.53 17.15 -58.71 16.83 C-44.64 11.56 -30.44 7 -15.94 3.06 C-14.25 2.6 -14.25 2.6 -12.53 2.13 C-11.48 1.85 -10.42 1.57 -9.34 1.29 C-8.41 1.04 -7.47 0.79 -6.51 0.53 C-4 0 -4 0 0 0 Z M-59 85 C-60.35 85.97 -61.7 86.94 -63.06 87.89 C-89.49 106.88 -104.09 133.03 -109.98 164.7 C-110.15 165.6 -110.32 166.5 -110.5 167.42 C-112.4 177.84 -113.78 188.31 -115.12 198.81 C-115.38 200.75 -115.63 202.69 -115.89 204.62 C-116.01 205.57 -116.13 206.52 -116.26 207.5 C-116.51 209.37 -116.75 211.24 -117 213.11 C-117.56 217.33 -118.07 221.54 -118.44 225.78 C-118.54 226.88 -118.54 226.88 -118.65 228 C-118.83 229.94 -118.99 231.88 -119.14 233.82 C-120.51 238.89 -123.88 240.89 -128.27 243.42 C-131.06 245.03 -132.98 246.5 -135 249 C-135 250.32 -135 251.64 -135 253 C-129.22 253.83 -123.63 254.14 -117.8 254.13 C-116.91 254.14 -116.02 254.14 -115.1 254.14 C-112.12 254.15 -109.15 254.15 -106.18 254.15 C-104.04 254.15 -101.9 254.15 -99.76 254.16 C-93.96 254.16 -88.16 254.17 -82.37 254.17 C-78.74 254.17 -75.12 254.17 -71.5 254.17 C-58.86 254.18 -46.22 254.19 -33.59 254.19 C-21.81 254.18 -10.02 254.2 1.76 254.21 C11.88 254.22 21.99 254.23 32.11 254.23 C38.15 254.23 44.2 254.23 50.24 254.24 C55.92 254.25 61.59 254.25 67.27 254.24 C69.36 254.24 71.44 254.25 73.52 254.25 C76.37 254.26 79.21 254.25 82.06 254.25 C83.29 254.25 83.29 254.25 84.56 254.26 C89.1 254.24 92.72 253.73 97 252 C96.44 248.32 95.13 246.86 92.31 244.5 C91.65 243.93 90.98 243.37 90.3 242.78 C87.96 240.88 87.96 240.88 84.94 239.29 C82 237 82 237 80.98 234.05 C80.86 232.91 80.74 231.78 80.61 230.61 C80.46 229.35 80.31 228.09 80.15 226.8 C80.02 225.45 79.88 224.1 79.75 222.75 C79.59 221.37 79.43 219.98 79.27 218.6 C78.82 214.74 78.41 210.87 78 207 C77.68 204.25 77.34 201.5 77 198.75 C76.85 197.57 76.71 196.39 76.55 195.17 C74.52 179.6 72.35 164.11 68 149 C67.82 148.35 67.65 147.7 67.47 147.03 C57.99 112.04 31.48 90.56 1.79 72.16 C-0 71 -0 71 -2.76 68.77 C-23.46 57.44 -43.34 72.76 -59 85 Z " fill="#474747" transform="translate(199,39)"/>
<path d="M0 0 C4.62 0 9.24 0 14 0 C14 3.63 14 7.26 14 11 C14.82 11.08 15.65 11.16 16.5 11.25 C20.77 12.16 24.19 13.92 28 16 C27.01 20.84 26.04 25.48 24 30 C20.63 29.45 18.92 28.95 16 27 C12.87 26.68 12.87 26.68 9.44 26.75 C7.7 26.74 7.7 26.74 5.93 26.73 C2.88 26.7 2.88 26.7 1 29 C0.86 31.47 0.86 31.47 2 34 C6.09 37.05 10.37 39.19 15 41.31 C22.06 44.7 26.99 48.65 30 56 C30.9 63.33 30.58 70 26 76 C22.25 79.98 19.15 81.94 14 84 C13.67 87.96 13.34 91.92 13 96 C8.38 96 3.76 96 -1 96 C-1 92.37 -1 88.74 -1 85 C-3.26 84.63 -3.26 84.63 -5.56 84.25 C-10.43 83.29 -13.86 81.7 -18 79 C-16.97 73.55 -15.75 68.88 -13 64 C-12.24 64.36 -11.48 64.72 -10.69 65.09 C-4.47 67.89 1.11 70.32 8 69 C10.19 68.03 10.19 68.03 12 67 C12.67 63.71 12.67 63.71 12 60 C8.98 56.97 4.88 55.4 1.04 53.64 C-5.76 50.46 -10.8 47.37 -15 41 C-17.06 34.83 -17.13 27.49 -14.44 21.56 C-6.6 13.32 -6.6 13.32 0 12 C0 8.04 0 4.08 0 0 Z " fill="#444444" transform="translate(174,133)"/>
<path d="M0 0 C5.53 -0 11.07 -0.01 16.6 -0.02 C64.36 -0.12 112.02 0.49 159.71 3.19 C159.71 3.52 159.71 3.85 159.71 4.19 C155.28 4.46 150.84 4.72 146.41 4.98 C144.92 5.07 143.42 5.16 141.93 5.26 C114.12 6.96 86.34 7.35 58.48 7.35 C55.76 7.35 53.03 7.36 50.3 7.36 C40.69 7.37 31.07 7.37 21.45 7.37 C13.63 7.37 5.8 7.38 -2.02 7.39 C-105.59 7.57 -105.59 7.57 -144.29 4.19 C-144.29 3.86 -144.29 3.53 -144.29 3.19 C-125.84 2.05 -107.4 1.06 -88.93 0.63 C-88.05 0.61 -87.18 0.59 -86.28 0.57 C-57.52 -0.09 -28.76 -0 0 0 Z " fill="#CDCDCD" transform="translate(171.28506356477737,320.81488877534866)"/>
<path d="M0 0 C0.33 0 0.66 0 1 0 C1.33 2.31 1.66 4.62 2 7 C2.99 7 3.98 7 5 7 C6.52 10.05 6.56 13.33 6.9 16.68 C7.07 18.24 7.24 19.81 7.41 21.37 C7.68 23.84 7.94 26.31 8.2 28.78 C8.45 31.16 8.7 33.54 8.96 35.93 C9.04 36.66 9.11 37.39 9.19 38.15 C9.94 45.34 9.94 45.34 14.21 50.77 C15.07 51.3 15.93 51.83 16.81 52.38 C21.48 55.48 24.27 58.09 27 63 C27.54 65.95 27.53 67.17 25.94 69.69 C20.44 73.41 14.04 73.28 7.65 73.24 C6.73 73.24 5.81 73.24 4.86 73.25 C1.79 73.25 -1.28 73.24 -4.36 73.23 C-6.57 73.23 -8.77 73.23 -10.98 73.23 C-16.97 73.23 -22.95 73.22 -28.94 73.2 C-35.2 73.19 -41.46 73.19 -47.72 73.19 C-58.22 73.18 -68.73 73.17 -79.23 73.15 C-90.05 73.13 -100.86 73.12 -111.68 73.11 C-112.35 73.11 -113.02 73.11 -113.7 73.11 C-117.05 73.11 -120.4 73.1 -123.75 73.1 C-151.5 73.08 -179.25 73.04 -207 73 C-207 71.68 -207 70.36 -207 69 C-203.71 67.36 -200.06 67.85 -196.45 67.85 C-195.1 67.84 -195.1 67.84 -193.73 67.84 C-190.71 67.82 -187.69 67.82 -184.67 67.81 C-182.51 67.8 -180.36 67.79 -178.2 67.79 C-173.54 67.77 -168.89 67.75 -164.23 67.74 C-156.87 67.72 -149.51 67.69 -142.14 67.66 C-126.51 67.6 -110.88 67.55 -95.25 67.5 C-78.39 67.44 -61.53 67.39 -44.67 67.32 C-37.35 67.29 -30.03 67.27 -22.71 67.25 C-18.16 67.24 -13.6 67.22 -9.05 67.2 C-6.94 67.19 -4.82 67.19 -2.71 67.18 C0.17 67.18 3.06 67.17 5.94 67.15 C6.78 67.15 7.61 67.15 8.48 67.15 C12.76 67.12 16.78 66.85 21 66 C18.27 59.99 12.5 56.07 6.94 52.78 C4.25 50.31 4.22 48.47 3.77 44.88 C3.53 43.03 3.53 43.03 3.28 41.13 C3.12 39.8 2.97 38.46 2.81 37.12 C2.64 35.77 2.48 34.41 2.31 33.06 C0.97 22.06 0.24 11.07 0 0 Z " fill="#454545" transform="translate(275,225)"/>
<path d="M0 0 C0.28 9.59 -0.2 19.06 -0.94 28.62 C-1.02 29.76 -1.11 30.9 -1.2 32.07 C-1.58 36.79 -1.99 41.37 -3 46 C-10.12 47.95 -20.79 49.25 -27.46 45.68 C-29.17 43.89 -30.56 42.02 -32 40 C-33.18 38.9 -34.39 37.84 -35.62 36.81 C-39.43 33.52 -43.16 30.15 -46.88 26.75 C-47.73 25.97 -47.73 25.97 -48.61 25.18 C-51.09 22.89 -53.12 20.82 -55 18 C-54.08 17.98 -54.08 17.98 -53.14 17.96 C-50.3 17.88 -47.46 17.78 -44.62 17.69 C-43.66 17.66 -42.69 17.64 -41.7 17.62 C-33.19 17.31 -25.35 15.87 -18.06 11.25 C-15.91 9.89 -15.91 9.89 -14 9 C-11 10 -11 10 -9.83 11.85 C-9.5 12.58 -9.16 13.31 -8.81 14.06 C-8.47 14.8 -8.12 15.53 -7.77 16.29 C-7.52 16.85 -7.26 17.42 -7 18 C-6.99 16.95 -6.97 15.9 -6.96 14.82 C-6.91 13.45 -6.86 12.07 -6.81 10.69 C-6.81 10 -6.8 9.31 -6.79 8.6 C-6.71 6.57 -6.71 6.57 -6 3 C-2.23 0 -2.23 0 0 0 Z " fill="#FAFAFA" transform="translate(193,47)"/>
<path d="M0 0 C3.88 0.08 4.94 0.26 8.19 2.62 C12.33 8.45 12.88 13.4 12.19 20.44 C11.27 24.36 9.75 27.53 7.62 30.94 C3.67 33.37 -0.32 33.43 -4.81 32.44 C-7.67 30.31 -9.22 27.61 -10.81 24.44 C-10.99 21.84 -11.09 19.29 -11.12 16.69 C-11.15 15.98 -11.18 15.28 -11.21 14.55 C-11.28 9.38 -10.15 6.58 -6.81 2.44 C-4.34 -0.03 -3.42 0.09 0 0 Z " fill="#484848" transform="translate(176.8125,239.5625)"/>
<path d="M0 0 C12.54 0 12.54 0 17 4 C19.12 7.18 19.25 7.55 18.75 11.06 C18.66 11.75 18.57 12.45 18.48 13.16 C18 15 18 15 16 17 C16.38 22.23 18.27 27.09 20 32 C17.36 32 14.72 32 12 32 C10.68 28.37 9.36 24.74 8 21 C7.67 24.63 7.34 28.26 7 32 C4.69 32 2.38 32 0 32 C0 21.44 0 10.88 0 0 Z " fill="#454545" transform="translate(143,240)"/>
<path d="M0 0 C1.58 0.01 3.16 0.02 4.75 0.04 C5.55 0.04 6.36 0.04 7.19 0.05 C9.19 0.06 11.19 0.08 13.18 0.1 C13.18 2.74 13.18 5.38 13.18 8.1 C11.53 8.1 9.88 8.1 8.18 8.1 C8.18 16.02 8.18 23.94 8.18 32.1 C5.54 32.1 2.9 32.1 0.18 32.1 C0.18 24.18 0.18 16.26 0.18 8.1 C-1.47 8.1 -3.12 8.1 -4.82 8.1 C-4.86 5.76 -4.86 3.43 -4.82 1.1 C-3.82 0.1 -3.82 0.1 0 0 Z " fill="#7E7E7E" transform="translate(228.81640625,239.90234375)"/>
<path d="M0 0 C13 0 13 0 16.31 2 C18.49 5.86 18.93 8.67 18 13 C16.44 16 16.44 16 14 18 C10.25 18.31 10.25 18.31 7 18 C7.31 17.11 7.62 16.23 7.94 15.31 C8.83 12.53 9.49 9.87 10 7 C8.68 6.34 7.36 5.68 6 5 C6.33 8.63 6.66 12.26 7 16 C6.34 16 5.68 16 5 16 C5.33 16.66 5.66 17.32 6 18 C6.07 20.04 6.08 22.08 6.06 24.12 C6.05 25.22 6.04 26.32 6.04 27.45 C6.02 28.29 6.01 29.13 6 30 C4.02 30 2.04 30 0 30 C0 20.1 0 10.2 0 0 Z " fill="#404040" transform="translate(119,241)"/>
<path d="M0 0 C4.62 0 9.24 0 14 0 C14 1.98 14 3.96 14 6 C11.69 6 9.38 6 7 6 C7 7.98 7 9.96 7 12 C8.98 12 10.96 12 13 12 C13 13.98 13 15.96 13 18 C11.02 18 9.04 18 7 18 C7 22.29 7 26.58 7 31 C4.69 31 2.38 31 0 31 C0 20.77 0 10.54 0 0 Z " fill="#424242" transform="translate(194,241)"/>
<path d="M0 0 C3.91 0.08 4.99 0.3 8.31 2.62 C10.31 5.62 10.69 6.93 10.19 10.44 C9.53 10.11 8.87 9.78 8.19 9.44 C8.52 11.42 8.85 13.4 9.19 15.44 C7.87 15.44 6.55 15.44 5.19 15.44 C4.2 13.13 3.21 10.82 2.19 8.44 C0.87 8.44 -0.45 8.44 -1.81 8.44 C-3.16 11.14 -3.15 13.56 -3.38 16.56 C-3.46 17.66 -3.54 18.75 -3.63 19.88 C-3.69 20.73 -3.75 21.57 -3.81 22.44 C-4.47 22.11 -5.13 21.78 -5.81 21.44 C-5.81 20.78 -5.81 20.12 -5.81 19.44 C-7.46 19.44 -9.11 19.44 -10.81 19.44 C-11.26 12.47 -11.51 7.83 -6.81 2.44 C-4.34 -0.03 -3.42 0.09 0 0 Z " fill="#434343" transform="translate(176.8125,239.5625)"/>
<path d="M0 0 C2.31 0 4.62 0 7 0 C7 10.56 7 21.12 7 32 C4.69 32 2.38 32 0 32 C0 21.44 0 10.88 0 0 Z " fill="#474747" transform="translate(213,240)"/>
<path d="M0 0 C2.44 0.38 2.44 0.38 5 1 C6.36 3.71 6.17 5.91 6.19 8.94 C6.2 10 6.22 11.06 6.23 12.15 C6 15 6 15 4 18 C1.56 17.62 1.56 17.62 -1 17 C-2.36 14.29 -2.17 12.09 -2.19 9.06 C-2.2 8 -2.22 6.94 -2.23 5.85 C-2 3 -2 3 0 0 Z " fill="#FBFBFB" transform="translate(175,247)"/>
<path d="M0 0 C1.65 0.33 3.3 0.66 5 1 C5 8.59 5 16.18 5 24 C3.02 24 1.04 24 -1 24 C-1.03 20.19 -1.05 16.38 -1.06 12.56 C-1.07 11.47 -1.08 10.39 -1.09 9.26 C-1.09 8.23 -1.09 7.19 -1.1 6.13 C-1.1 5.17 -1.11 4.21 -1.11 3.22 C-1 1 -1 1 0 0 Z " fill="#3C3C3C" transform="translate(231,247)"/>
<path d="M0 0 C0.33 0 0.66 0 1 0 C1 2.31 1 4.62 1 7 C1.66 7 2.32 7 3 7 C3 8.32 3 9.64 3 11 C3.66 11 4.32 11 5 11 C6.5 14 6.09 16.79 6.06 20.12 C6.05 21.41 6.04 22.69 6.04 24.01 C6.02 25 6.01 25.98 6 27 C4.02 27 2.04 27 0 27 C0 18.09 0 9.18 0 0 Z " fill="#3E3E3E" transform="translate(143,244)"/>
<path d="M0 0 C3.96 0 7.92 0 12 0 C12 0.33 12 0.66 12 1 C8.37 1 4.74 1 1 1 C1 10.9 1 20.8 1 31 C2.98 31 4.96 31 7 31 C6.67 26.38 6.34 21.76 6 17 C6.66 17 7.32 17 8 17 C7.67 16.01 7.34 15.02 7 14 C6.87 11.33 6.96 8.68 7 6 C8.32 6.33 9.64 6.66 11 7 C11.62 9.38 11.62 9.38 12 12 C11.34 12.66 10.68 13.32 10 14 C10 15.32 10 16.64 10 18 C10.99 18.66 11.98 19.32 13 20 C11.35 20 9.7 20 8 20 C8 23.96 8 27.92 8 32 C5.36 32 2.72 32 0 32 C0 21.44 0 10.88 0 0 Z " fill="#929292" transform="translate(118,240)"/>
<path d="M0 0 C0.08 2.4 0.14 4.79 0.19 7.19 C0.21 7.86 0.24 8.53 0.26 9.23 C0.33 13.67 -0.11 16.56 -3 20 C-5.11 20.63 -5.11 20.63 -7 21 C-6.97 18.06 -6.9 15.13 -6.81 12.19 C-6.81 11.35 -6.8 10.52 -6.79 9.66 C-6.71 7.34 -6.59 5.25 -6 3 C-2.4 0 -2.4 0 0 0 Z " fill="#F8F8F8" transform="translate(193,47)"/>
<path d="M0 0 C0 0.99 0 1.98 0 3 C-0.66 3 -1.32 3 -2 3 C-3.07 6.46 -3.1 9.64 -3.06 13.25 C-3.05 14.33 -3.04 15.41 -3.04 16.52 C-3.02 17.34 -3.01 18.16 -3 19 C-3.66 19.33 -4.32 19.66 -5 20 C-5.33 16.37 -5.66 12.74 -6 9 C-7.98 9.99 -7.98 9.99 -10 11 C-10 9 -10 7 -10 5 C-10.99 6.48 -10.99 6.48 -12 8 C-14.47 6.85 -16.05 5.95 -18 4 C-15.56 3.33 -13.13 2.66 -10.69 2 C-9.65 1.71 -9.65 1.71 -8.6 1.42 C-5.64 0.62 -3.07 0 0 0 Z " fill="#535353" transform="translate(198,39)"/>
<path d="M0 0 C2.06 1.5 2.06 1.5 4 4 C4 8.69 3.92 10.88 0.94 14.5 C-0.02 15.24 -0.02 15.24 -1 16 C-1 14.68 -1 13.36 -1 12 C-0.34 12 0.32 12 1 12 C0.67 9.69 0.34 7.38 0 5 C-2.26 5.89 -2.26 5.89 -3.38 8.56 C-3.91 9.37 -4.45 10.17 -5 11 C-6.32 11 -7.64 11 -9 11 C-9 7.7 -9 4.4 -9 1 C-8.67 1.66 -8.34 2.32 -8 3 C-7.34 3 -6.68 3 -6 3 C-6 2.34 -6 1.68 -6 1 C-5.34 1 -4.68 1 -4 1 C-4 1.66 -4 2.32 -4 3 C-2.68 3 -1.36 3 0 3 C0 2.01 0 1.02 0 0 Z " fill="#535353" transform="translate(158,243)"/>
<path d="M0 0 C5.28 0 10.56 0 16 0 C16 1.98 16 3.96 16 6 C8.57 6.29 8.57 6.29 5 4 C5 4.66 5 5.32 5 6 C3.35 6 1.7 6 0 6 C0 4.02 0 2.04 0 0 Z " fill="#3D3D3D" transform="translate(225,241)"/>
<path d="M0 0 C5.92 1.93 10.81 5.81 15.85 9.36 C16.58 9.86 17.31 10.35 18.07 10.86 C18.73 11.32 19.39 11.78 20.06 12.25 C22.03 13.25 22.03 13.25 24.15 12.24 C26.07 11.07 26.07 11.07 27.5 9.31 C28 8.88 28.49 8.45 29 8 C31.19 8.31 31.19 8.31 33 9 C33 9.99 33 10.98 33 12 C30.69 12.66 28.38 13.32 26 14 C26.33 14.99 26.66 15.98 27 17 C23.46 17 22.4 16.21 19.47 14.3 C18.6 13.73 17.72 13.16 16.82 12.57 C15.91 11.97 15 11.37 14.06 10.75 C13.16 10.16 12.25 9.58 11.31 8.97 C7.14 6.24 3.45 3.63 0 0 Z " fill="#E3E3E3" transform="translate(198,103)"/>
<path d="M0 0 C4.95 0 9.9 0 15 0 C16.28 6.76 15.49 12.31 14 19 C13.67 19 13.34 19 13 19 C13 17.02 13 15.04 13 13 C11.02 13 9.04 13 7 13 C7 11.02 7 9.04 7 7 C9.31 7 11.62 7 14 7 C14 5.02 14 3.04 14 1 C9.38 1 4.76 1 0 1 C0 0.67 0 0.34 0 0 Z " fill="#CFCFCF" transform="translate(194,240)"/>
<path d="M0 0 C0.33 0 0.66 0 1 0 C1 9.9 1 19.8 1 30 C0.01 29.67 -0.98 29.34 -2 29 C-3.19 26.44 -3.19 26.44 -4 24 C-4.66 24.33 -5.32 24.66 -6 25 C-5.67 23.02 -5.34 21.04 -5 19 C-4.01 19 -3.02 19 -2 19 C-1.07 14.9 -0.71 10.88 -0.44 6.69 C-0.35 5.43 -0.27 4.18 -0.18 2.89 C-0.12 1.93 -0.06 0.98 0 0 Z " fill="#ECECEC" transform="translate(193,241)"/>
<path d="M0 0 C0.33 0 0.66 0 1 0 C1.33 3.3 1.66 6.6 2 10 C3.32 9.67 4.64 9.34 6 9 C5.67 7.35 5.34 5.7 5 4 C5.66 4 6.32 4 7 4 C7.33 2.68 7.66 1.36 8 0 C8.05 1.94 8.09 3.87 8.12 5.81 C8.15 6.89 8.17 7.97 8.2 9.08 C8 12 8 12 6 15 C3.56 14.62 3.56 14.62 1 14 C-0.38 11.24 -0.1 8.95 -0.06 5.88 C-0.05 4.78 -0.04 3.68 -0.04 2.55 C-0.02 1.71 -0.01 0.87 0 0 Z " fill="#E6E6E6" transform="translate(173,250)"/>
<path d="M0 0 C0 0.99 0 1.98 0 3 C-9.73 3.11 -19.3 2.93 -29 2 C-29 1.67 -29 1.34 -29 1 C-19.3 0.07 -9.73 -0.11 0 0 Z " fill="#DADADA" transform="translate(56,323)"/>
<path d="M0 0 C1.98 0.5 1.98 0.5 4 1 C4.62 3.38 4.62 3.38 5 6 C4.34 6.66 3.68 7.32 3 8 C3 9.32 3 10.64 3 12 C3.99 12.66 4.98 13.32 6 14 C4.02 14 2.04 14 0 14 C-0.33 13.01 -0.66 12.02 -1 11 C-0.34 11 0.32 11 1 11 C0.67 10.01 0.34 9.02 0 8 C-0.13 5.33 -0.04 2.68 0 0 Z " fill="#7A7A7A" transform="translate(125,246)"/>
<path d="M0 0 C1.98 0 3.96 0 6 0 C6.12 2.88 6.12 2.88 6 6 C5.34 6.66 4.68 7.32 4 8 C3.67 7.34 3.34 6.68 3 6 C2.67 9.63 2.34 13.26 2 17 C-0.31 17 -2.62 17 -5 17 C-5 16.67 -5 16.34 -5 16 C-3.02 16 -1.04 16 1 16 C0.67 10.72 0.34 5.44 0 0 Z " fill="#595959" transform="translate(148,255)"/>
<path d="M0 0 C0 2.62 -0.31 4.51 -1 7 C-1.66 7 -2.32 7 -3 7 C-2.98 8.2 -2.96 9.39 -2.94 10.62 C-2.93 14.18 -3.3 17.51 -4 21 C-4.66 20.67 -5.32 20.34 -6 20 C-5.97 17.23 -5.9 14.46 -5.81 11.69 C-5.8 10.51 -5.8 10.51 -5.79 9.31 C-5.71 7.09 -5.59 5.14 -5 3 C-2.45 0.96 -2.45 0.96 0 0 Z " fill="#D9D9D9" transform="translate(192,47)"/>
<path d="M0 0 C0.33 0 0.66 0 1 0 C1 2.31 1 4.62 1 7 C1.66 7 2.32 7 3 7 C3.75 9.75 3.75 9.75 4 13 C2.19 15 2.19 15 0 17 C-1.27 20.13 -1.27 20.13 -2 23 C-3.08 19.77 -2.9 19.11 -2 16 C-1.62 13.25 -1.27 10.51 -0.94 7.75 C-0.85 7 -0.76 6.26 -0.66 5.49 C-0.44 3.66 -0.22 1.83 0 0 Z " fill="#EAEAEA" transform="translate(81,260)"/>
<path d="M0 0 C0.66 0.99 1.32 1.98 2 3 C1.67 3.66 1.34 4.32 1 5 C0.77 6.7 0.59 8.41 0.44 10.12 C0.35 11.04 0.27 11.95 0.18 12.88 C0.12 13.58 0.06 14.28 0 15 C-0.33 15 -0.66 15 -1 15 C-1.12 14.24 -1.25 13.47 -1.38 12.69 C-1.88 9.8 -1.88 9.8 -4 7 C-4 6.34 -4 5.68 -4 5 C-3.34 5 -2.68 5 -2 5 C-2 4.01 -2 3.02 -2 2 C-1.34 2 -0.68 2 0 2 C0 1.34 0 0.68 0 0 Z " fill="#EBEBEB" transform="translate(158,153)"/>
<path d="M0 0 C1.92 -0.05 3.83 -0.09 5.75 -0.12 C7.35 -0.16 7.35 -0.16 8.98 -0.2 C11.92 -0 13.52 0.47 16 2 C16 2.66 16 3.32 16 4 C10.72 3.01 5.44 2.02 0 1 C0 0.67 0 0.34 0 0 Z " fill="#D3D3D3" transform="translate(214,101)"/>
<path d="M0 0 C0.99 0 1.98 0 3 0 C3.25 2.31 3.25 2.31 3 5 C1 6.81 1 6.81 -1 8 C-2.32 6.68 -3.64 5.36 -5 4 C-4.34 3.67 -3.68 3.34 -3 3 C-2.67 2.34 -2.34 1.68 -2 1 C-2 2.32 -2 3.64 -2 5 C-1.01 5 -0.02 5 1 5 C0.67 3.35 0.34 1.7 0 0 Z " fill="#575757" transform="translate(299,288)"/>
<path d="M0 0 C2.47 0.99 2.47 0.99 5 2 C4.01 2.5 4.01 2.5 3 3 C2.35 5.02 2.35 5.02 2 7 C0.35 7 -1.3 7 -3 7 C-3 6.01 -3 5.02 -3 4 C-2.01 3.67 -1.02 3.34 0 3 C0 2.01 0 1.02 0 0 Z " fill="#B5B5B5" transform="translate(109,178)"/>
<path d="M0 0 C1.32 0.33 2.64 0.66 4 1 C4 2.65 4 4.3 4 6 C2.68 6.33 1.36 6.66 0 7 C0 4.69 0 2.38 0 0 Z " fill="#F3F3F3" transform="translate(150,247)"/>
<path d="M0 0 C0.99 0.33 1.98 0.66 3 1 C3.33 2.98 3.66 4.96 4 7 C2.68 7.33 1.36 7.66 0 8 C0 5.36 0 2.72 0 0 Z " fill="#3E3E3E" transform="translate(81,223)"/>
<path d="M0 0 C0.99 0 1.98 0 3 0 C1.61 3.37 0.02 4.99 -3 7 C-3.66 5.68 -4.32 4.36 -5 3 C-3.68 3 -2.36 3 -1 3 C-0.67 2.01 -0.34 1.02 0 0 Z " fill="#565656" transform="translate(229,105)"/>
<path d="M0 0 C-1 2 -1 2 -3 3.12 C-7.04 4.3 -10.82 4.16 -15 4 C-10.11 1.45 -5.55 0 0 0 Z " fill="#5F5F5F" transform="translate(225,89)"/>
<path d="M0 0 C2.87 0.57 3.86 0.86 6 3 C6 3.66 6 4.32 6 5 C4.02 5 2.04 5 0 5 C0 3.35 0 1.7 0 0 Z " fill="#F0F0F0" transform="translate(201,248)"/>
<path d="M0 0 C2.15 3.23 2.2 4.28 2 8 C1.01 8.33 0.02 8.66 -1 9 C-1.33 9.99 -1.66 10.98 -2 12 C-1 3.43 -1 3.43 0 0 Z " fill="#DEDEDE" transform="translate(92,190)"/>
<path d="M0 0 C1.32 0.33 2.64 0.66 4 1 C3.67 2.65 3.34 4.3 3 6 C2.01 6 1.02 6 0 6 C0 4.02 0 2.04 0 0 Z " fill="#F9F9F9" transform="translate(126,247)"/>
<path d="M0 0 C1.32 0 2.64 0 4 0 C4.33 1.65 4.66 3.3 5 5 C2.36 5 -0.28 5 -3 5 C-2.01 4.34 -1.02 3.68 0 3 C0 2.01 0 1.02 0 0 Z " fill="#646464" transform="translate(158,267)"/>
<path d="M0 0 C2.5 2.94 3.47 5.18 4 9 C2.68 8.67 1.36 8.34 0 8 C0 5.36 0 2.72 0 0 Z " fill="#E7E7E7" transform="translate(150,259)"/>
<path d="M0 0 C1.98 0 3.96 0 6 0 C6 0.99 6 1.98 6 3 C3.69 3 1.38 3 -1 3 C-0.67 2.01 -0.34 1.02 0 0 Z " fill="#484848" transform="translate(255,218)"/>
<path d="M0 0 C1.98 0 3.96 0 6 0 C6 0.99 6 1.98 6 3 C3.69 3 1.38 3 -1 3 C-0.67 2.01 -0.34 1.02 0 0 Z " fill="#494949" transform="translate(114,175)"/>
<path d="M0 0 C1.56 1.25 1.56 1.25 3 3 C2.69 5.19 2.69 5.19 2 7 C0.35 5.35 -1.3 3.7 -3 2 C-2.01 1.34 -1.02 0.68 0 0 Z " fill="#E9E9E9" transform="translate(293,274)"/>
<path d="M0 0 C0.99 0.33 1.98 0.66 3 1 C1.38 2.71 -0.29 4.37 -2 6 C-2.66 6 -3.32 6 -4 6 C-3.69 4.12 -3.69 4.12 -3 2 C-2.01 1.34 -1.02 0.68 0 0 Z " fill="#EDEDED" transform="translate(130,122)"/>
<path d="M0 0 C0.66 0 1.32 0 2 0 C2 0.66 2 1.32 2 2 C2.78 1.79 3.57 1.59 4.38 1.38 C5.67 1.19 5.67 1.19 7 1 C7.66 1.66 8.32 2.32 9 3 C6.36 3.66 3.72 4.32 1 5 C0.67 3.35 0.34 1.7 0 0 Z " fill="#EDEDED" transform="translate(143,50)"/>
<path d="M0 0 C-1 3 -1 3 -3 4 C-5 4.04 -7 4.04 -9 4 C-6.43 1.43 -3.69 0 0 0 Z " fill="#585858" transform="translate(139,57)"/>
<path d="M0 0 C0.66 0.66 1.32 1.32 2 2 C1.62 5.12 1.62 5.12 1 8 C0.01 8 -0.98 8 -2 8 C-1.34 5.36 -0.68 2.72 0 0 Z " fill="#EAEAEA" transform="translate(98,172)"/>
</svg>
