<?xml version="1.0" encoding="UTF-8"?>
<!-- Generator: visioncortex VTracer 0.6.3 -->
<svg version="1.1" xmlns="http://www.w3.org/2000/svg" width="512" height="512">
<path d="M0 0 C0.88 0 1.75 0 2.65 0 C60.66 0.19 111.98 24.18 152.57 64.95 C158.84 71.38 164.45 78.09 169.69 85.38 C170.29 86.2 170.29 86.2 170.91 87.03 C188.29 110.87 199.71 138.59 205.69 167.38 C205.85 168.12 206.01 168.87 206.18 169.64 C211.78 196.23 210.76 227.02 204.69 253.38 C204.48 254.29 204.28 255.21 204.07 256.16 C192.15 308.48 158.74 353.63 113.64 382.17 C89.03 397.38 89.03 397.38 82.69 397.38 C83 398.49 83.32 399.6 83.64 400.75 C85.84 408.56 88 416.38 90 424.25 C90.33 425.53 90.65 426.8 90.99 428.12 C91.69 431.37 91.69 431.37 91.69 435.38 C85.51 434.73 79.66 433.5 73.65 431.97 C72.19 431.6 72.19 431.6 70.7 431.23 C68.61 430.7 66.51 430.17 64.41 429.64 C61.1 428.8 57.78 427.96 54.47 427.13 C48.63 425.66 42.79 424.19 36.96 422.72 C27.6 420.35 18.24 417.99 8.88 415.64 C5.61 414.82 2.34 413.99 -0.93 413.16 C-2.93 412.66 -4.92 412.16 -6.92 411.65 C-7.83 411.42 -8.74 411.19 -9.68 410.95 C-10.52 410.74 -11.35 410.53 -12.21 410.32 C-12.93 410.13 -13.66 409.95 -14.4 409.76 C-16.48 409.28 -16.48 409.28 -19.31 409.38 C-19.65 410.36 -19.99 411.34 -20.34 412.35 C-32.2 445.69 -54.74 471.39 -86.75 486.81 C-106.74 495.59 -125.71 496.88 -147.28 496.77 C-150.64 496.75 -154 496.76 -157.36 496.78 C-195.04 496.94 -226.11 487.24 -253.31 460.38 C-268.34 445.37 -278.56 426.8 -284.31 406.38 C-284.63 405.25 -284.95 404.12 -285.29 402.96 C-289.9 383.28 -289.32 359.67 -283.31 340.38 C-283.1 339.7 -282.89 339.02 -282.68 338.31 C-277.71 322.71 -269.94 308.58 -259.58 295.94 C-257.43 293.29 -255.38 290.58 -253.31 287.88 C-252.48 286.79 -251.65 285.71 -250.81 284.62 C-250.19 283.82 -250.19 283.82 -249.56 283 C-225.81 252.12 -225.81 252.12 -224.56 250.5 C-223.73 249.42 -222.9 248.32 -222.08 247.22 C-220 244.44 -217.97 242.05 -215.46 239.62 C-207.97 231.88 -206.71 224.25 -206.68 213.61 C-207.42 201.39 -212.77 191.4 -218.71 180.91 C-219.26 179.92 -219.26 179.92 -219.83 178.92 C-220.53 177.68 -221.25 176.46 -221.99 175.24 C-223.71 172.27 -224.33 170.57 -224.09 167.1 C-221.74 158.88 -215.56 152.63 -208.31 148.38 C-207.52 148.12 -206.74 147.87 -205.92 147.61 C-200.76 146.05 -200.76 146.05 -196.95 142.46 C-195.93 140.02 -195.16 137.6 -194.44 135.06 C-186.77 112.11 -174.11 91.62 -158.31 73.38 C-157.61 72.56 -156.9 71.74 -156.18 70.9 C-126.78 37.6 -88.45 14.67 -45.12 4.62 C-44.27 4.43 -43.42 4.23 -42.54 4.02 C-28.35 0.89 -14.47 -0.04 0 0 Z M-113.82 96.84 C-122.56 105.82 -129.63 115.8 -136.31 126.38 C-136.9 127.3 -137.49 128.23 -138.09 129.19 C-139.47 131.25 -139.47 131.25 -139.31 133.38 C-138.76 133.6 -138.2 133.83 -137.63 134.06 C-135.11 135.1 -132.58 136.14 -130.06 137.19 C-129.19 137.54 -128.32 137.9 -127.42 138.27 C-126.57 138.62 -125.73 138.97 -124.86 139.33 C-123.7 139.81 -123.7 139.81 -122.51 140.3 C-120.31 141.38 -120.31 141.38 -118.25 142.97 C-115.34 145.08 -112.22 144.95 -108.75 145.19 C-99.21 146.14 -91.93 149.2 -85.31 156.38 C-79.14 164.19 -79.14 164.19 -79.54 169.17 C-80.41 172.79 -81.8 175.37 -83.69 178.57 C-92.88 194.71 -100.26 210.29 -95.31 229.38 C-93.15 234.45 -89.79 238.12 -85.82 241.88 C-83.34 244.34 -81.33 247.13 -79.25 249.94 C-78.44 251 -77.62 252.06 -76.81 253.12 C-76.4 253.65 -76 254.18 -75.58 254.72 C-74.24 256.47 -72.89 258.22 -71.54 259.97 C-71.08 260.56 -70.62 261.15 -70.15 261.76 C-69.28 262.89 -68.41 264.02 -67.53 265.15 C-65.71 267.52 -63.97 269.89 -62.31 272.38 C-59.57 272.81 -59.57 272.81 -56.3 272.72 C-54.41 272.72 -54.41 272.72 -52.48 272.71 C-51.1 272.7 -49.72 272.68 -48.34 272.67 C-46.93 272.66 -45.52 272.66 -44.11 272.66 C-40.39 272.64 -36.68 272.61 -32.97 272.58 C-29.18 272.55 -25.4 272.54 -21.61 272.52 C-14.18 272.49 -6.74 272.44 0.69 272.38 C0.71 266.7 0.73 261.02 0.74 255.34 C0.75 253.41 0.75 251.47 0.76 249.54 C0.78 246.77 0.78 244 0.79 241.22 C0.79 240.35 0.8 239.48 0.8 238.59 C0.8 236.52 0.75 234.45 0.69 232.38 C-1.08 230.6 -3.71 230.87 -6.11 230.58 C-7.92 230.35 -7.92 230.35 -9.77 230.11 C-12.29 229.79 -14.82 229.48 -17.35 229.19 C-31.76 227.3 -43.65 222.47 -53.06 211.12 C-58.17 204.2 -62.45 195.91 -62.43 187.16 C-62.43 185.93 -62.43 185.93 -62.43 184.67 C-62.42 183.79 -62.42 182.92 -62.41 182.02 C-62.41 181.11 -62.41 180.21 -62.41 179.28 C-62.4 176.39 -62.39 173.51 -62.38 170.62 C-62.37 168.67 -62.37 166.71 -62.36 164.75 C-62.35 159.96 -62.33 155.17 -62.31 150.38 C-55.83 151.95 -49.36 153.56 -42.89 155.17 C-40.69 155.72 -38.5 156.26 -36.3 156.8 C-13.42 162.38 -13.42 162.38 -3.31 168.38 C-1.98 169.05 -0.65 169.72 0.69 170.38 C3.04 154.18 3.04 154.18 -0.82 139.08 C-4.74 135.56 -9.42 133.5 -14.21 131.4 C-25.58 125.87 -32.54 111.76 -36.81 100.44 C-40.6 86.66 -39.89 70.52 -34.31 57.38 C-33.75 55.97 -33.75 55.97 -33.18 54.54 C-32.89 53.82 -32.61 53.11 -32.31 52.38 C-60.99 52.38 -94.55 77.67 -113.82 96.84 Z M52.69 58.38 C52.9 58.97 53.12 59.57 53.34 60.19 C57.79 74.67 57.97 92.46 51.69 106.38 C51.05 107.8 51.05 107.8 50.4 109.25 C45.65 118.79 36.88 130.95 26.36 134.5 C20.56 136.78 20.56 136.78 16.69 141.38 C14.96 150.83 15.91 160.85 16.69 170.38 C17.3 170 17.9 169.62 18.53 169.24 C32.08 161.33 47.59 158.26 62.69 154.56 C64.35 154.15 66.01 153.74 67.67 153.33 C71.68 152.34 75.68 151.36 79.69 150.38 C79.79 156.01 79.86 161.65 79.91 167.29 C79.93 169.2 79.95 171.11 79.99 173.03 C80.35 193.42 80.35 193.42 75.69 202.38 C75 203.72 75 203.72 74.31 205.1 C68.72 215.63 59.71 222.2 48.69 226.38 C40.18 228.69 31.45 229.78 22.7 230.73 C19.41 230.85 19.41 230.85 16.69 232.38 C16.69 245.57 16.69 258.77 16.69 272.38 C48.37 272.38 80.05 272.38 112.69 272.38 C112.69 277.65 112.69 282.94 112.69 288.38 C59.23 288.38 5.77 288.38 -49.31 288.38 C-47.33 291.01 -45.35 293.65 -43.31 296.38 C-32.7 310.62 -23.87 326.11 -19.31 343.38 C-19.01 344.53 -18.7 345.69 -18.39 346.88 C-15.42 360.16 -15.57 373.82 -15.31 387.38 C-10.42 383.27 -5.81 379 -1.31 374.47 C-0.32 373.47 -0.32 373.47 0.7 372.46 C2.12 371.03 3.54 369.61 4.96 368.18 C7.21 365.92 9.46 363.66 11.71 361.41 C16.47 356.63 21.24 351.85 26 347.06 C31.54 341.5 37.08 335.94 42.62 330.38 C44.84 328.16 47.06 325.93 49.27 323.7 C50.62 322.35 51.98 320.99 53.33 319.64 C54.26 318.7 54.26 318.7 55.2 317.75 C59.46 313.49 59.46 313.49 61.69 312.38 C61.8 313.02 61.91 313.67 62.02 314.34 C63.3 321.63 64.9 328.81 66.69 336 C67.08 337.63 67.08 337.63 67.48 339.29 C67.73 340.32 67.99 341.35 68.25 342.41 C68.48 343.34 68.71 344.27 68.94 345.23 C69.47 347.56 69.47 347.56 71.69 348.38 C74.03 347.36 76.2 346.28 78.44 345.06 C79.11 344.7 79.78 344.34 80.46 343.96 C105.56 330.03 126.65 309.39 140.69 284.38 C141.02 283.79 141.35 283.2 141.69 282.59 C159.38 250.57 166.03 209.13 156.69 173.38 C156.48 172.58 156.28 171.79 156.07 170.97 C149.17 144.78 137.17 121.54 118.73 101.61 C117.01 99.73 115.41 97.8 113.81 95.81 C109.71 91 104.65 87.25 99.69 83.38 C98.76 82.63 97.83 81.88 96.87 81.12 C86.4 72.94 75 66.68 62.88 61.31 C62.2 61.01 61.52 60.71 60.83 60.41 C57.94 59.17 55.86 58.38 52.69 58.38 Z " fill="#010100" transform="translate(295.3125,7.625)"/>
<path d="M0 0 C0.85 -0.01 1.69 -0.03 2.57 -0.04 C5.38 -0.08 8.19 -0.1 11.01 -0.12 C12.45 -0.13 12.45 -0.13 13.92 -0.15 C19 -0.19 24.08 -0.22 29.17 -0.24 C34.42 -0.26 39.67 -0.33 44.91 -0.41 C48.95 -0.46 52.99 -0.48 57.03 -0.48 C58.96 -0.49 60.9 -0.52 62.83 -0.55 C77.96 -0.83 77.96 -0.83 82.49 2.06 C84.29 4.09 85.54 5.97 86.81 8.35 C87.73 9.58 88.66 10.8 89.62 12 C90.54 13.24 91.46 14.48 92.37 15.73 C96.82 21.73 101.34 27.66 105.93 33.54 C106.52 34.3 107.12 35.06 107.73 35.84 C108.88 37.32 110.04 38.8 111.2 40.29 C114.29 44.27 117.37 48.27 120.43 52.27 C122.08 54.41 123.74 56.55 125.4 58.69 C127.89 61.9 130.35 65.12 132.81 68.35 C133.42 69.16 134.04 69.97 134.67 70.8 C143.71 83.1 150.07 96.59 153.81 111.35 C154.05 112.31 154.3 113.26 154.55 114.25 C160.24 141.49 153.18 170.02 138.81 193.35 C136.34 196.89 133.67 200.13 130.81 203.35 C130.22 204.08 129.63 204.82 129.02 205.57 C112.5 225.53 87.12 237.04 61.81 240.35 C57.86 240.63 53.92 240.68 49.96 240.69 C48.87 240.7 47.78 240.7 46.66 240.71 C44.37 240.72 42.07 240.72 39.78 240.72 C36.34 240.73 32.9 240.77 29.46 240.8 C9.36 240.91 -8.16 238.42 -26.19 229.35 C-27.21 228.86 -28.23 228.36 -29.28 227.85 C-35.92 224.44 -41.54 220.21 -47.19 215.35 C-48.43 214.34 -48.43 214.34 -49.69 213.3 C-61.79 202.99 -69.35 190.51 -76.19 176.35 C-76.63 175.48 -77.06 174.61 -77.5 173.72 C-87.66 151.07 -86.97 122.2 -78.51 99.17 C-77.47 96.53 -76.35 93.94 -75.19 91.35 C-74.78 90.43 -74.78 90.43 -74.36 89.49 C-69.42 78.73 -62.41 69.8 -55.01 60.63 C-52.09 56.98 -49.27 53.26 -46.44 49.54 C-45.37 48.13 -44.3 46.73 -43.22 45.32 C-42.71 44.65 -42.2 43.98 -41.67 43.29 C-37.86 38.3 -34.03 33.33 -30.19 28.35 C-28.95 26.73 -27.7 25.11 -26.45 23.49 C-25.62 22.41 -24.79 21.33 -23.96 20.25 C-21.77 17.41 -19.59 14.57 -17.41 11.72 C-16.96 11.12 -16.5 10.53 -16.03 9.92 C-15.16 8.78 -14.29 7.63 -13.42 6.49 C-9.08 0.83 -7.03 0.05 0 0 Z " fill="#CE9D75" transform="translate(108.194091796875,247.64599609375)"/>
<path d="M0 0 C46.49 3.17 90.83 30.12 121.18 64.62 C131.45 76.71 139.79 89.92 147 104 C147.49 104.94 147.49 104.94 147.99 105.91 C155.33 120.19 160.94 136.22 164 152 C164.13 152.66 164.27 153.32 164.41 154.01 C173.66 201.42 163.82 253.77 137 294 C130.1 304.05 122.45 313.23 114 322 C112.86 323.24 112.86 323.24 111.69 324.5 C91.75 345.49 65.55 358.48 39 369 C40.16 375.92 41.61 382.69 43.41 389.47 C44 392 44 392 44 395 C36.73 393.87 29.79 392.15 22.73 390.07 C16.88 388.39 10.96 386.96 5.05 385.5 C1.61 384.66 -1.82 383.8 -5.25 382.94 C-6.57 382.61 -7.89 382.28 -9.2 381.95 C-14.47 380.63 -19.73 379.32 -25 378 C-19.87 371.8 -14.27 366.14 -8.57 360.47 C-7.57 359.47 -6.57 358.48 -5.57 357.48 C-2.96 354.87 -0.34 352.26 2.27 349.66 C4.95 346.99 7.62 344.32 10.3 341.65 C15.53 336.43 20.76 331.22 26 326 C28.26 328.26 28.53 329.38 29.29 332.43 C29.51 333.31 29.73 334.19 29.95 335.09 C30.17 336.01 30.4 336.93 30.62 337.88 C30.85 338.79 31.08 339.7 31.32 340.64 C32.3 344.6 33 347.89 33 352 C57.96 343.63 80.18 330.41 99 312 C100 311.06 101.01 310.11 102.02 309.17 C126.71 285.72 142.45 252.34 148 219 C148.21 217.86 148.41 216.73 148.62 215.55 C155.39 172.02 144.7 125.44 119 89.5 C117.38 87.3 115.7 85.14 114 83 C113.57 82.45 113.13 81.91 112.69 81.35 C89.26 52.13 59.21 32.72 23.61 21.41 C22.42 21.03 22.42 21.03 21.22 20.64 C18.78 19.89 18.78 19.89 15.29 19.34 C10.38 17.34 8.39 13.79 5.56 9.44 C5.02 8.64 4.48 7.85 3.92 7.03 C0 1.22 0 1.22 0 0 Z " fill="#FBE6A4" transform="translate(321,26)"/>
<path d="M0 0 C5.28 0 10.56 0 16 0 C16 5.61 16 11.22 16 17 C18.2 17.56 18.2 17.56 20.44 18.12 C29.48 20.87 36.65 26.2 42 34 C45.76 41.12 48.16 47.22 48.1 55.29 C48.1 56 48.09 56.71 48.09 57.43 C48.09 59.68 48.08 61.94 48.06 64.19 C48.06 65.72 48.05 67.24 48.05 68.77 C48.04 72.51 48.02 76.26 48 80 C42.72 80 37.44 80 32 80 C31.97 77.93 31.95 75.85 31.92 73.72 C31.88 71.69 31.84 69.65 31.79 67.62 C31.76 66.22 31.74 64.82 31.73 63.42 C31.63 54.15 31.31 47.11 25.11 39.76 C24.16 38.95 24.16 38.95 23.19 38.12 C22.56 37.57 21.94 37.02 21.29 36.45 C14.12 31.93 5.76 32.57 -2.44 32.38 C-3.74 32.34 -5.05 32.3 -6.39 32.26 C-9.59 32.16 -12.8 32.08 -16 32 C-15.96 35.97 -15.89 39.93 -15.79 43.9 C-15.75 45.9 -15.73 47.9 -15.71 49.9 C-15.49 58.6 -14.75 65.53 -9.04 72.34 C-8.38 72.87 -7.73 73.39 -7.06 73.94 C-6.09 74.76 -6.09 74.76 -5.1 75.59 C-0.4 78.75 4.16 79.36 9.69 79.88 C22.46 81.3 32.47 86.03 40.69 96.14 C42.88 99.24 44.56 102.5 46 106 C46.34 106.8 46.69 107.61 47.04 108.44 C48.37 113.36 48.25 118.01 48.2 123.09 C48.19 124.14 48.19 125.2 48.19 126.29 C48.18 129.65 48.15 133.01 48.12 136.38 C48.11 138.66 48.11 140.95 48.1 143.23 C48.08 148.82 48.04 154.41 48 160 C37.44 160 26.88 160 16 160 C16 165.28 16 170.56 16 176 C10.72 176 5.44 176 0 176 C0 170.39 0 164.78 0 159 C-2.64 158.34 -5.28 157.68 -8 157 C-17.53 152.78 -24.68 145.56 -29.21 136.21 C-32.27 127.63 -32.24 119.51 -32.12 110.5 C-32.11 109.09 -32.11 107.68 -32.1 106.27 C-32.07 102.85 -32.04 99.42 -32 96 C-26.72 96 -21.44 96 -16 96 C-15.97 97.99 -15.95 99.98 -15.92 102.03 C-15.88 103.98 -15.84 105.94 -15.79 107.9 C-15.75 109.9 -15.73 111.9 -15.71 113.9 C-15.49 122.6 -14.75 129.53 -9.04 136.34 C-8.38 136.87 -7.73 137.39 -7.06 137.94 C-6.41 138.48 -5.77 139.03 -5.1 139.59 C-0.49 142.69 3.54 143.27 9.05 143.41 C9.71 143.43 10.37 143.45 11.05 143.47 C13.14 143.53 15.22 143.58 17.31 143.62 C18.74 143.66 20.16 143.7 21.58 143.74 C25.05 143.84 28.53 143.92 32 144 C31.96 139.87 31.89 135.75 31.79 131.62 C31.76 130.22 31.74 128.82 31.73 127.42 C31.63 118.15 31.31 111.11 25.11 103.76 C19.06 98.61 14.23 97.11 6.31 96.69 C-5.35 95.84 -15.2 90.21 -23.19 81.88 C-28.93 74.85 -32.14 65.33 -32.11 56.3 C-32.11 55.4 -32.11 54.5 -32.11 53.57 C-32.11 52.61 -32.1 51.66 -32.1 50.67 C-32.1 49.68 -32.09 48.68 -32.09 47.66 C-32.09 44.5 -32.08 41.35 -32.06 38.19 C-32.06 36.04 -32.05 33.9 -32.05 31.75 C-32.04 26.5 -32.02 21.25 -32 16 C-21.44 16 -10.88 16 0 16 C0 10.72 0 5.44 0 0 Z " fill="#010100" transform="translate(136,280)"/>
<path d="M0 0 C0.66 0 1.32 0 2 0 C3.25 1.51 3.25 1.51 4.65 3.63 C5.18 4.41 5.7 5.19 6.24 5.99 C6.8 6.84 7.36 7.69 7.94 8.56 C12.15 14.85 16.45 21.02 21 27.06 C30.13 39.31 34.22 50.49 33 66 C30.52 79.23 23.84 90.01 13 98 C11.02 98.99 11.02 98.99 9 100 C9 80.86 9 61.72 9 42 C3.72 42 -1.56 42 -7 42 C-7 61.14 -7 80.28 -7 100 C-19.88 91.42 -27.4 82.19 -31 67 C-32.43 51.01 -28.42 39.92 -19 27 C-17.93 25.52 -16.87 24.04 -15.8 22.56 C-14.12 20.23 -12.44 17.9 -10.74 15.58 C-7.43 11.03 -4.28 6.42 -1.28 1.66 C-0.86 1.11 -0.44 0.56 0 0 Z " fill="#9ED166" transform="translate(303,30)"/>
<path d="M0 0 C1.03 0.01 2.07 0.02 3.13 0.03 C4.27 0.04 4.27 0.04 5.44 0.06 C4.79 1.74 4.12 3.4 3.44 5.06 C3.09 5.96 2.73 6.86 2.37 7.78 C-0.03 12.24 -2.19 15.22 -7 16.92 C-12.2 18.19 -17.48 18.98 -22.76 19.84 C-46.63 23.82 -69.13 34.89 -88.56 49.06 C-89.14 49.48 -89.71 49.89 -90.3 50.31 C-112.7 66.59 -130.57 88.1 -142.56 113.06 C-145.02 112.92 -147.48 112.78 -149.94 112.62 C-150.64 112.59 -151.33 112.55 -152.05 112.51 C-157.34 112.18 -157.34 112.18 -159.56 111.06 C-155.19 96.17 -145.19 82.98 -135.56 71.06 C-135.08 70.45 -134.59 69.85 -134.09 69.22 C-106.71 35.32 -67.32 11.97 -24.81 2.88 C-24.03 2.71 -23.25 2.54 -22.45 2.37 C-14.98 0.83 -7.63 -0.09 0 0 Z " fill="#FAE5A4" transform="translate(281.5625,24.9375)"/>
<path d="M0 0 C5.97 -0.11 11.61 0.14 17.5 1.12 C18.26 1.25 19.03 1.38 19.81 1.51 C41.8 5.52 41.8 5.52 48 12 C49.19 18.53 46.36 25.57 44.25 31.69 C44.01 32.39 43.77 33.09 43.52 33.81 C42.76 35.91 41.9 37.95 41 40 C40.7 40.75 40.4 41.51 40.1 42.28 C38.94 44.68 38 46.24 36 48 C32.02 48.98 28.25 48.76 24.19 48.5 C23.11 48.46 22.04 48.43 20.93 48.39 C18.28 48.3 15.64 48.17 13 48 C10.2 42.62 7.85 37.32 5.94 31.56 C5.68 30.79 5.43 30.02 5.16 29.23 C2.19 19.95 -0.34 9.8 0 0 Z " fill="#D09E6A" transform="translate(120,152)"/>
<path d="M0 0 C26.4 0 52.8 0 80 0 C80 5.28 80 10.56 80 16 C53.6 16 27.2 16 0 16 C0 10.72 0 5.44 0 0 Z " fill="#E6E9ED" transform="translate(104,216)"/>
<path d="M0 0 C0.62 11.66 0.66 21.67 -6.83 31.37 C-10.98 35.83 -15.36 38.77 -21 41 C-22.03 41.41 -23.06 41.82 -24.12 42.25 C-27.2 43.05 -29.84 43.15 -33 43 C-29.33 38.61 -25.58 34.51 -21.42 30.58 C-19.76 28.94 -19.76 28.94 -19 26 C-19.54 25.79 -20.07 25.59 -20.62 25.38 C-24 23.42 -26.3 20.82 -29 18 C-32.04 19.36 -34.12 20.88 -36.45 23.26 C-37.07 23.88 -37.69 24.51 -38.33 25.15 C-38.96 25.8 -39.6 26.45 -40.25 27.12 C-40.9 27.78 -41.55 28.44 -42.22 29.12 C-43.82 30.74 -45.41 32.37 -47 34 C-48.4 29.79 -47.05 27.61 -45.37 23.64 C-40.7 14.66 -33.43 9.17 -24 6 C-20.23 4.87 -16.43 3.83 -12.62 2.81 C-11.13 2.4 -11.13 2.4 -9.61 1.99 C-2.27 0 -2.27 0 0 0 Z " fill="#AFD77B" transform="translate(360,178)"/>
<path d="M0 0 C35.34 7.38 35.34 7.38 44.33 21.02 C46.55 25.12 47.47 28.25 47 33 C41.99 28.84 37.51 24.46 33.11 19.66 C31.18 17.78 31.18 17.78 28.97 18.04 C26.63 19.18 25.04 20.49 23.19 22.31 C22.25 23.2 22.25 23.2 21.29 24.11 C19.77 25.89 19.77 25.89 20.25 27.93 C21.08 30.23 21.96 31.3 23.72 32.98 C24.26 33.5 24.8 34.03 25.35 34.57 C25.92 35.1 26.48 35.64 27.06 36.19 C29.06 38.11 31.04 40.04 33 42 C33 42.33 33 42.66 33 43 C23.33 42.77 15.91 39.94 8.69 33.44 C0.46 24.46 -0.61 14.93 -0.18 3.3 C-0.12 2.21 -0.06 1.12 0 0 Z " fill="#B0D87C" transform="translate(248,178)"/>
<path d="M0 0 C1.39 3.85 2.43 7.71 3.38 11.69 C4.63 16.87 6.29 21.76 8.23 26.72 C9 29 9 29 9 32 C4.38 32 -0.24 32 -5 32 C-6.63 28.94 -8.25 25.88 -9.88 22.81 C-10.57 21.52 -10.57 21.52 -11.27 20.19 C-11.94 18.93 -11.94 18.93 -12.62 17.64 C-13.03 16.87 -13.43 16.1 -13.85 15.31 C-15.04 12.92 -16.04 10.49 -17 8 C-15.92 7.04 -14.84 6.08 -13.75 5.12 C-12.85 4.32 -12.85 4.32 -11.92 3.51 C-7.9 0.35 -5.11 -0.23 0 0 Z " fill="#CA9A73" transform="translate(106,168)"/>
<path d="M0 0 C5.16 0.09 7.92 0.55 11.77 4.06 C12.38 4.61 12.99 5.16 13.62 5.72 C14.08 6.14 14.53 6.56 15 7 C13.57 10.06 12.13 13.13 10.69 16.19 C10.28 17.05 9.88 17.92 9.46 18.81 C8.67 20.48 7.88 22.15 7.07 23.81 C6.22 25.55 5.41 27.32 4.62 29.09 C3 31 3 31 -0.14 31.49 C-1.31 31.43 -2.48 31.37 -3.69 31.31 C-5.46 31.24 -5.46 31.24 -7.26 31.18 C-8.17 31.12 -9.07 31.06 -10 31 C-9.6 30.09 -9.2 29.18 -8.79 28.25 C-5.36 20.18 -3.02 12.5 -1.54 3.85 C-1 1 -1 1 0 0 Z " fill="#CB9B73" transform="translate(184,169)"/>
<path d="M0 0 C5.28 0 10.56 0 16 0 C16 5.28 16 10.56 16 16 C10.72 16 5.44 16 0 16 C0 10.72 0 5.44 0 0 Z " fill="#000000" transform="translate(472,408)"/>
<path d="M0 0 C5.28 0 10.56 0 16 0 C16 5.28 16 10.56 16 16 C10.72 16 5.44 16 0 16 C0 10.72 0 5.44 0 0 Z " fill="#000000" transform="translate(440,408)"/>
<path d="M0 0 C5.28 0 10.56 0 16 0 C16 5.28 16 10.56 16 16 C10.72 16 5.44 16 0 16 C0 10.72 0 5.44 0 0 Z " fill="#000000" transform="translate(408,408)"/>
</svg>
