<?xml version="1.0" encoding="UTF-8"?>
<!-- Generator: visioncortex VTracer 0.6.3 -->
<svg version="1.1" xmlns="http://www.w3.org/2000/svg" width="216" height="233">
<path d="M0 0 C71.28 0 142.56 0 216 0 C216 76.89 216 153.78 216 233 C144.72 233 73.44 233 0 233 C0 156.11 0 79.22 0 0 Z " fill="#FEFEFE" transform="translate(0,0)"/>
<path d="M0 0 C4 1 4 1 5.48 2.85 C5.9 3.58 6.32 4.31 6.75 5.06 C7.18 5.8 7.61 6.53 8.05 7.29 C8.36 7.85 8.68 8.42 9 9 C9.72 8.86 10.44 8.71 11.19 8.56 C12.58 8.28 12.58 8.28 14 8 C14.89 7.77 15.77 7.55 16.69 7.31 C17.45 7.21 18.21 7.11 19 7 C19.66 7.66 20.32 8.32 21 9 C20.62 14.64 17.18 19.18 14.4 23.94 C12.87 27.28 12.81 27.73 14 31 C15.18 33.09 15.18 33.09 16.66 35.2 C17.47 36.42 17.47 36.42 18.31 37.65 C18.89 38.51 19.47 39.37 20.06 40.25 C25.8 48.88 30.62 57.63 35 67 C35.66 68.34 36.33 69.67 37 71 C38.07 70.94 39.15 70.88 40.25 70.82 C53.21 70.33 53.21 70.33 57.31 73.19 C62.79 78.92 64.34 83.85 64.21 91.62 C63.73 97.09 62.16 101.34 57.94 104.94 C53.27 108.22 49.94 108.12 44.38 108.06 C43.17 108.06 43.17 108.06 41.95 108.05 C39.96 108.04 37.98 108.02 36 108 C36.99 106.51 36.99 106.51 38 105 C36.51 103.02 36.51 103.02 35 101 C31.53 101.5 31.53 101.5 28 102 C27.67 100.02 27.34 98.04 27 96 C18.59 96.99 18.59 96.99 10 98 C10 98.33 10 98.66 10 99 C15.28 99.66 20.56 100.32 26 101 C26 101.33 26 101.66 26 102 C22.37 102 18.74 102 15 102 C15 103.32 15 104.64 15 106 C17.97 106.5 17.97 106.5 21 107 C21.5 105.02 21.5 105.02 22 103 C22 104.32 22 105.64 22 107 C23.98 107 25.96 107 28 107 C28.5 105.02 28.5 105.02 29 103 C29 104.32 29 105.64 29 107 C30.98 107 32.96 107 35 107 C35 107.33 35 107.66 35 108 C29.77 108.22 24.54 108.42 19.31 108.59 C17.54 108.66 15.76 108.72 13.99 108.8 C-9.27 109.77 -9.27 109.77 -19.12 101.74 C-25.78 95.58 -31.1 89.33 -32 80 C-32.08 79.28 -32.15 78.56 -32.23 77.82 C-33.02 64.44 -24.12 50.97 -16.45 40.43 C-16.03 39.86 -15.61 39.28 -15.18 38.69 C-14 37.09 -12.8 35.51 -11.59 33.94 C-9.76 31.12 -9.76 31.12 -10.03 28.04 C-11.54 23.33 -14.08 19.35 -16.6 15.12 C-18.11 11.75 -18.17 10.44 -17 7 C-16.28 7.14 -15.56 7.29 -14.81 7.44 C-13.88 7.62 -12.96 7.81 -12 8 C-9.53 8.5 -9.53 8.5 -7 9 C-4.69 6.03 -2.38 3.06 0 0 Z " fill="#FAFBFB" transform="translate(92,37)"/>
<path d="M0 0 C71.28 0 142.56 0 216 0 C216 5.61 216 11.22 216 17 C144.72 17 73.44 17 0 17 C0 11.39 0 5.78 0 0 Z " fill="#101122" transform="translate(0,216)"/>
<path d="M0 0 C4 1 4 1 5.48 2.85 C5.9 3.58 6.32 4.31 6.75 5.06 C7.18 5.8 7.61 6.53 8.05 7.29 C8.36 7.85 8.68 8.42 9 9 C9.72 8.86 10.44 8.71 11.19 8.56 C12.58 8.28 12.58 8.28 14 8 C14.89 7.77 15.77 7.55 16.69 7.31 C17.45 7.21 18.21 7.11 19 7 C19.66 7.66 20.32 8.32 21 9 C20.62 14.64 17.18 19.18 14.4 23.94 C12.87 27.28 12.81 27.73 14 31 C15.18 33.09 15.18 33.09 16.66 35.2 C17.47 36.42 17.47 36.42 18.31 37.65 C18.89 38.51 19.47 39.37 20.06 40.25 C25.8 48.88 30.62 57.63 35 67 C35.66 68.34 36.33 69.67 37 71 C38.07 70.94 39.15 70.88 40.25 70.82 C53.21 70.33 53.21 70.33 57.31 73.19 C62.79 78.92 64.34 83.85 64.21 91.62 C63.73 97.09 62.16 101.34 57.94 104.94 C53.27 108.22 49.94 108.12 44.38 108.06 C43.17 108.06 43.17 108.06 41.95 108.05 C39.96 108.04 37.98 108.02 36 108 C36.99 106.51 36.99 106.51 38 105 C36.51 103.02 36.51 103.02 35 101 C31.53 101.5 31.53 101.5 28 102 C27.67 100.02 27.34 98.04 27 96 C18.59 96.99 18.59 96.99 10 98 C10 98.33 10 98.66 10 99 C15.28 99.66 20.56 100.32 26 101 C26 101.33 26 101.66 26 102 C22.37 102 18.74 102 15 102 C15 103.32 15 104.64 15 106 C17.97 106.5 17.97 106.5 21 107 C21.5 105.02 21.5 105.02 22 103 C22 104.32 22 105.64 22 107 C23.98 107 25.96 107 28 107 C28.5 105.02 28.5 105.02 29 103 C29 104.32 29 105.64 29 107 C30.98 107 32.96 107 35 107 C35 107.33 35 107.66 35 108 C29.77 108.22 24.54 108.42 19.31 108.59 C17.54 108.66 15.76 108.72 13.99 108.8 C-9.27 109.77 -9.27 109.77 -19.12 101.74 C-25.78 95.58 -31.1 89.33 -32 80 C-32.08 79.28 -32.15 78.56 -32.23 77.82 C-33.02 64.44 -24.12 50.97 -16.45 40.43 C-16.03 39.86 -15.61 39.28 -15.18 38.69 C-14 37.09 -12.8 35.51 -11.59 33.94 C-9.76 31.12 -9.76 31.12 -10.03 28.04 C-11.54 23.33 -14.08 19.35 -16.6 15.12 C-18.11 11.75 -18.17 10.44 -17 7 C-16.28 7.14 -15.56 7.29 -14.81 7.44 C-13.88 7.62 -12.96 7.81 -12 8 C-9.53 8.5 -9.53 8.5 -7 9 C-4.69 6.03 -2.38 3.06 0 0 Z M1 2 C-0.81 4.02 -0.81 4.02 -2.62 6.5 C-3.26 7.34 -3.89 8.17 -4.54 9.03 C-5.26 10.01 -5.26 10.01 -6 11 C-9.38 10.46 -12.7 9.89 -16 9 C-14.94 13.98 -12.22 18.1 -9.62 22.42 C-6.86 27.32 -6.86 27.32 -7.57 30.7 C-8.99 32.99 -10.45 35.16 -12.06 37.31 C-16.99 44.2 -21 51.55 -25 59 C-25.83 60.51 -25.83 60.51 -26.68 62.05 C-30.43 69.38 -31.57 76.44 -29.3 84.48 C-28.36 86.79 -27.28 88.86 -26 91 C-25.59 91.7 -25.17 92.4 -24.75 93.12 C-20.14 100.05 -13.43 104.37 -5.38 106.38 C-1.22 107.12 2.79 107.15 7 107 C7 104.03 7 101.06 7 98 C11.07 96.15 14.89 95.45 19.31 94.88 C20.57 94.71 21.82 94.54 23.11 94.37 C24.07 94.25 25.02 94.12 26 94 C26 93.23 26.01 92.45 26.01 91.66 C26.26 84.92 26.97 80.82 31.62 75.82 C33.37 73.5 33.68 71.88 34 69 C33.33 66.7 33.33 66.7 32.08 64.48 C31.63 63.63 31.19 62.78 30.73 61.9 C30.24 61.01 29.75 60.11 29.25 59.19 C28.76 58.26 28.26 57.34 27.75 56.38 C24.08 49.63 20.01 43.24 15.44 37.06 C10.92 30.88 10.92 30.88 11 27 C12.06 24.13 13.47 21.49 14.94 18.81 C17.8 14.14 17.8 14.14 19 9 C17.39 9.5 17.39 9.5 15.75 10 C12 11 12 11 8 11 C6.35 8.03 4.7 5.06 3 2 C2.34 2 1.68 2 1 2 Z " fill="#223745" transform="translate(92,37)"/>
<path d="M0 0 C4.25 2.04 7.14 4.56 9.3 8.82 C11.06 14.29 11.37 20.27 8.75 25.48 C6.09 29.13 3.43 32.6 -1.27 33.37 C-8.99 33.57 -8.99 33.57 -12.44 30.88 C-17.32 25.39 -18.63 21.02 -18.42 13.76 C-17.58 8.26 -14.82 4.57 -10.69 1 C-7.05 -0.35 -3.79 -0.66 0 0 Z " fill="#F7F7F7" transform="translate(144,110)"/>
<path d="M0 0 C0.66 0 1.32 0 2 0 C2.66 0.99 3.32 1.98 4 3 C6.62 3.09 9.08 3.04 11.69 2.88 C20.6 2.6 20.6 2.6 24.31 5.19 C29.79 10.92 31.34 15.85 31.21 23.62 C30.73 29.09 29.16 33.34 24.94 36.94 C20.27 40.22 16.94 40.12 11.38 40.06 C10.57 40.06 9.77 40.05 8.95 40.05 C6.96 40.04 4.98 40.02 3 40 C3.66 39.01 4.32 38.02 5 37 C4.01 35.68 3.02 34.36 2 33 C-1.47 33.5 -1.47 33.5 -5 34 C-5.66 32.02 -6.32 30.04 -7 28 C-9.31 27.67 -11.62 27.34 -14 27 C-14 26.67 -14 26.34 -14 26 C-11.69 26 -9.38 26 -7 26 C-7.1 24.84 -7.1 24.84 -7.21 23.66 C-7.57 16.66 -7.07 12.96 -2.4 7.69 C-0.42 5.3 0 3.04 0 0 Z M2.62 12.06 C0.2 16.84 0.12 21.79 1 27 C2.96 31.72 5.62 35.3 10 38 C14.01 38.79 18.17 38.92 21.88 37.05 C25.86 33.89 28.67 30.18 29.43 25.13 C29.44 18.51 29.16 14.26 25 9 C21.12 5.56 18.04 4.32 12.95 4.62 C8.11 5.56 5.55 8.29 2.62 12.06 Z " fill="#293E4A" transform="translate(125,105)"/>
<path d="M0 0 C0.66 1.65 1.32 3.3 2 5 C3.98 4.67 5.96 4.34 8 4 C9.98 6.97 9.98 6.97 12 10 C11.01 10.5 11.01 10.5 10 11 C16.93 11.5 16.93 11.5 24 12 C24 12.33 24 12.66 24 13 C12.45 13 0.9 13 -11 13 C-11 12.67 -11 12.34 -11 12 C-5.06 11.5 -5.06 11.5 1 11 C-0.77 11.02 -2.55 11.04 -4.38 11.06 C-9.75 11.12 -9.75 11.12 -12 10 C-11.67 8.35 -11.34 6.7 -11 5 C-13.31 4.34 -15.62 3.68 -18 3 C-17.67 2.34 -17.34 1.68 -17 1 C-11.46 -0.46 -5.69 -0.09 0 0 Z " fill="#5E6D75" transform="translate(119,133)"/>
<path d="M0 0 C0.66 0 1.32 0 2 0 C2 1.65 2 3.3 2 5 C3.11 5.09 3.11 5.09 4.25 5.19 C7.89 6.26 9 7.82 11 11 C11 12.32 11 13.64 11 15 C10.34 15 9.68 15 9 15 C8.71 14.22 8.42 13.43 8.12 12.62 C7.15 9.9 7.15 9.9 5 8 C-0.2 7.49 -0.2 7.49 -5 9.06 C-6.61 12.18 -6.42 14.56 -6 18 C-4.35 20.54 -3.07 21.71 -0.13 22.51 C0.89 22.72 0.89 22.72 1.94 22.94 C6.23 23.88 8.43 25.3 11 29 C11.7 31.83 11.72 34.17 11 37 C8.6 40.22 7.06 41.69 3.19 42.81 C2.1 42.91 2.1 42.91 1 43 C0.67 44.32 0.34 45.64 0 47 C0 45.68 0 44.36 0 43 C-1.11 42.91 -1.11 42.91 -2.25 42.81 C-5.92 41.73 -7.02 40.23 -9 37 C-9.25 34.19 -9.25 34.19 -9 32 C-8.34 32 -7.68 32 -7 32 C-6.71 32.95 -6.42 33.9 -6.12 34.88 C-5.23 38.05 -5.23 38.05 -3 40 C0.89 40.43 3.13 40.58 6.44 38.38 C8.47 35.28 8.61 33.64 8 30 C5.32 25.98 2.35 25.49 -2.1 24.56 C-4.86 23.75 -6.26 22.23 -8 20 C-9.61 16.78 -9.6 13.48 -9 10 C-6.75 7 -6.75 7 -4 5 C-2.68 5 -1.36 5 0 5 C0 3.35 0 1.7 0 0 Z " fill="#1D3341" transform="translate(93,86)"/>
<path d="M0 0 C4.02 0.08 7.13 0.26 10.47 2.58 C15.95 8.31 17.5 13.24 17.37 21.01 C16.89 26.48 15.32 30.72 11.1 34.33 C6.43 37.61 3.1 37.51 -2.47 37.45 C-3.67 37.45 -3.67 37.45 -4.9 37.44 C-6.88 37.43 -8.86 37.41 -10.84 37.39 C-10.18 36.4 -9.52 35.41 -8.84 34.39 C-9.83 32.74 -10.82 31.09 -11.84 29.39 C-9.65 30.41 -7.86 31.37 -6.01 32.94 C-2.24 35.46 1.79 35.03 6.16 34.39 C10.14 32.1 12.09 29.43 14.16 25.39 C14.98 19.96 15.07 14.28 12.47 9.33 C10.09 6.3 8.74 4.77 5.16 3.39 C0.13 2.83 -1.84 2.83 -6.28 5.33 C-8.12 6.8 -8.12 6.8 -9.84 8.39 C-11.51 8.43 -13.17 8.43 -14.84 8.39 C-14.24 8.12 -13.64 7.85 -13.03 7.58 C-10.87 6.4 -9.48 5.2 -7.84 3.39 C-8.83 2.73 -9.82 2.07 -10.84 1.39 C-8.59 -0.86 -3.12 0.02 0 0 Z " fill="#172F3D" transform="translate(138.840576171875,107.610595703125)"/>
<path d="M0 0 C0.33 0.99 0.66 1.98 1 3 C3.31 3 5.62 3 8 3 C8.13 3.61 8.27 4.23 8.4 4.86 C8.67 6.08 8.67 6.08 8.94 7.31 C9.11 8.11 9.29 8.91 9.46 9.74 C10 12.15 10 12.15 11 15 C8.03 15.66 5.06 16.32 2 17 C1.34 15.02 0.68 13.04 0 11 C-2.31 10.67 -4.62 10.34 -7 10 C-7 9.67 -7 9.34 -7 9 C-4.69 9 -2.38 9 0 9 C0 6.03 0 3.06 0 0 Z " fill="#283F4B" transform="translate(118,122)"/>
<path d="M0 0 C1.89 0.01 1.89 0.01 3.83 0.03 C4.79 0.04 5.76 0.05 6.75 0.06 C6.75 0.39 6.75 0.72 6.75 1.06 C1.47 1.72 -3.81 2.38 -9.25 3.06 C-9.25 3.39 -9.25 3.72 -9.25 4.06 C-3.97 4.72 1.31 5.38 6.75 6.06 C6.75 6.39 6.75 6.72 6.75 7.06 C3.12 7.06 -0.51 7.06 -4.25 7.06 C-4.25 8.38 -4.25 9.7 -4.25 11.06 C-1.28 11.56 -1.28 11.56 1.75 12.06 C2.08 10.74 2.41 9.42 2.75 8.06 C2.75 9.38 2.75 10.7 2.75 12.06 C4.73 12.06 6.71 12.06 8.75 12.06 C9.08 10.74 9.41 9.42 9.75 8.06 C9.75 9.38 9.75 10.7 9.75 12.06 C11.73 12.06 13.71 12.06 15.75 12.06 C15.75 12.39 15.75 12.72 15.75 13.06 C12.13 13.12 8.5 13.16 4.88 13.19 C3.84 13.2 2.81 13.22 1.75 13.24 C0.76 13.24 -0.23 13.25 -1.24 13.26 C-2.61 13.27 -2.61 13.27 -4 13.29 C-6.25 13.06 -6.25 13.06 -8.25 11.06 C-7.59 11.06 -6.93 11.06 -6.25 11.06 C-6.25 9.74 -6.25 8.42 -6.25 7.06 C-7.9 6.73 -9.55 6.4 -11.25 6.06 C-11.25 4.41 -11.25 2.76 -11.25 1.06 C-7.5 -0.14 -3.92 -0.04 0 0 Z " fill="#0F2736" transform="translate(111.25,131.9375)"/>
<path d="M0 0 C0.66 0 1.32 0 2 0 C2 0.66 2 1.32 2 2 C3.32 2.66 4.64 3.32 6 4 C6 5.32 6 6.64 6 8 C5.34 8 4.68 8 4 8 C3.67 7.01 3.34 6.02 3 5 C1.68 5 0.36 5 -1 5 C-0.89 7.45 -0.89 7.45 0 10 C2.44 11.31 2.44 11.31 5 12 C6 13 6 13 6.06 16.06 C6.04 17.03 6.02 18 6 19 C4.02 19.99 4.02 19.99 2 21 C2 21.66 2 22.32 2 23 C1.34 23 0.68 23 0 23 C0 22.34 0 21.68 0 21 C-1.32 20.34 -2.64 19.68 -4 19 C-4 17.68 -4 16.36 -4 15 C-3.34 15 -2.68 15 -2 15 C-1.67 15.99 -1.34 16.98 -1 18 C0.32 18 1.64 18 3 18 C2.89 15.55 2.89 15.55 2 13 C-0.44 11.69 -0.44 11.69 -3 11 C-4 10 -4 10 -4.06 6.94 C-4.04 5.97 -4.02 5 -4 4 C-2.68 3.34 -1.36 2.68 0 2 C0 1.34 0 0.68 0 0 Z " fill="#273B48" transform="translate(139,116)"/>
<path d="M0 0 C0.33 1.65 0.66 3.3 1 5 C-5.71 5.2 -11.65 5.31 -18 3 C-17.67 2.34 -17.34 1.68 -17 1 C-11.46 -0.46 -5.69 -0.09 0 0 Z " fill="#E2E5E6" transform="translate(119,133)"/>
<path d="M0 0 C3.88 3.75 3.88 3.75 5 6 C5.33 4.02 5.66 2.04 6 0 C6.66 0 7.32 0 8 0 C8 3.3 8 6.6 8 10 C7.01 10 6.02 10 5 10 C3.31 7.5 3.31 7.5 2 5 C1.67 6.98 1.34 8.96 1 11 C0.34 11 -0.32 11 -1 11 C-1.03 9.35 -1.05 7.71 -1.06 6.06 C-1.07 5.15 -1.09 4.23 -1.1 3.29 C-1 1 -1 1 0 0 Z " fill="#2A404B" transform="translate(114,178)"/>
<path d="M0 0 C2.31 0 4.62 0 7 0 C7 0.66 7 1.32 7 2 C5.35 2 3.7 2 2 2 C2 2.66 2 3.32 2 4 C3.65 4 5.3 4 7 4 C7 4.66 7 5.32 7 6 C5.35 6 3.7 6 2 6 C2 6.99 2 7.98 2 9 C3.65 9 5.3 9 7 9 C7 9.66 7 10.32 7 11 C4.69 11 2.38 11 0 11 C0 7.37 0 3.74 0 0 Z " fill="#3E525D" transform="translate(104,178)"/>
<path d="M0 0 C2.64 0 5.28 0 8 0 C8 0.66 8 1.32 8 2 C6.02 2 4.04 2 2 2 C2 2.99 2 3.98 2 5 C3.65 5 5.3 5 7 5 C7 5.33 7 5.66 7 6 C5.35 6 3.7 6 2 6 C2 6.99 2 7.98 2 9 C3.98 9 5.96 9 8 9 C8 9.66 8 10.32 8 11 C5.36 11 2.72 11 0 11 C0 7.37 0 3.74 0 0 Z " fill="#324A54" transform="translate(135,178)"/>
<path d="M0 0 C2.64 0 5.28 0 8 0 C8 0.66 8 1.32 8 2 C6.02 2 4.04 2 2 2 C2 2.99 2 3.98 2 5 C3.65 5 5.3 5 7 5 C7 5.33 7 5.66 7 6 C5.35 6 3.7 6 2 6 C2 6.99 2 7.98 2 9 C3.98 9 5.96 9 8 9 C8 9.66 8 10.32 8 11 C5.36 11 2.72 11 0 11 C0 7.37 0 3.74 0 0 Z " fill="#304853" transform="translate(84,178)"/>
<path d="M0 0 C0.66 0 1.32 0 2 0 C2.33 2.64 2.66 5.28 3 8 C3.99 8 4.98 8 6 8 C6.33 5.36 6.66 2.72 7 0 C7.66 0 8.32 0 9 0 C9.05 1.46 9.09 2.92 9.12 4.38 C9.15 5.19 9.17 6 9.2 6.84 C9 9 9 9 7 11 C4.5 11.25 4.5 11.25 2 11 C0 9 0 9 -0.2 6.84 C-0.17 6.02 -0.15 5.21 -0.12 4.38 C-0.11 3.56 -0.09 2.74 -0.07 1.9 C-0.05 1.27 -0.02 0.65 0 0 Z " fill="#3C4C57" transform="translate(124,178)"/>
<path d="M0 0 C7.26 0 14.52 0 22 0 C22.33 0.99 22.66 1.98 23 3 C20.29 3.22 17.58 3.43 14.88 3.62 C14.11 3.69 13.35 3.75 12.57 3.82 C7.89 4.14 4.42 3.85 0 2 C0 1.34 0 0.68 0 0 Z " fill="#75767E" transform="translate(156,224)"/>
<path d="M0 0 C0.33 1.32 0.66 2.64 1 4 C2.65 4.33 4.3 4.66 6 5 C6 6.98 6 8.96 6 11 C4.02 11 2.04 11 0 11 C-1.16 7.51 -1.14 4.66 -1 1 C-0.67 0.67 -0.34 0.34 0 0 Z " fill="#2D424E" transform="translate(99,134)"/>
<path d="M0 0 C1.06 1.88 1.06 1.88 2 4 C1.67 4.66 1.34 5.32 1 6 C-1.64 6 -4.28 6 -7 6 C-7.33 4.35 -7.66 2.7 -8 1 C-5.36 0.67 -2.72 0.34 0 0 Z " fill="#8D8F94" transform="translate(42,222)"/>
<path d="M0 0 C0.66 0 1.32 0 2 0 C2.33 1.65 2.66 3.3 3 5 C4.32 5.33 5.64 5.66 7 6 C6.01 6.33 5.02 6.66 4 7 C3.67 7.99 3.34 8.98 3 10 C0.69 10 -1.62 10 -4 10 C-3.34 9.28 -2.68 8.56 -2 7.81 C0.15 4.78 0.41 3.6 0 0 Z " fill="#1D3441" transform="translate(125,105)"/>
<path d="M0 0 C0.66 0 1.32 0 2 0 C2.66 1.65 3.32 3.3 4 5 C5.94 2.23 5.94 2.23 7 0 C7.66 0 8.32 0 9 0 C8.74 1.46 8.47 2.92 8.19 4.38 C8.04 5.19 7.89 6 7.73 6.84 C7 9 7 9 4 11 C0 4.5 0 4.5 0 0 Z " fill="#344551" transform="translate(93,178)"/>
<path d="M0 0 C1.51 0.02 1.51 0.02 3.06 0.04 C4.07 0.04 5.08 0.05 6.12 0.06 C7.3 0.08 7.3 0.08 8.5 0.1 C7.22 2.65 6.11 2.92 3.56 4.1 C1.01 5.28 -0.49 6.09 -2.5 8.1 C-5.13 8.22 -5.13 8.22 -7.5 8.1 C-6.91 7.83 -6.31 7.56 -5.69 7.29 C-3.53 6.11 -2.15 4.9 -0.5 3.1 C-1.49 2.44 -2.48 1.78 -3.5 1.1 C-2.5 0.1 -2.5 0.1 0 0 Z " fill="#0F2635" transform="translate(131.50390625,107.90234375)"/>
<path d="M0 0 C0.33 1.32 0.66 2.64 1 4 C2.32 3.67 3.64 3.34 5 3 C5 2.01 5 1.02 5 0 C5.99 0.33 6.98 0.66 8 1 C7.81 1.74 7.63 2.49 7.44 3.25 C7.01 5.95 7.15 7.45 8 10 C7.34 10 6.68 10 6 10 C5.71 9.36 5.42 8.72 5.12 8.06 C4.17 5.85 4.17 5.85 2 5 C1.67 6.65 1.34 8.3 1 10 C0.67 10 0.34 10 0 10 C0 6.7 0 3.4 0 0 Z " fill="#1C2F3D" transform="translate(74,179)"/>
<path d="M0 0 C0.99 0.99 1.98 1.98 3 3 C3.66 2.34 4.32 1.68 5 1 C6.34 1.31 7.67 1.65 9 2 C11.19 1.62 11.19 1.62 13 1 C13.33 1.66 13.66 2.32 14 3 C13.34 3.66 12.68 4.32 12 5 C12 4.34 12 3.68 12 3 C11.34 3 10.68 3 10 3 C9.67 3.99 9.34 4.98 9 6 C8.01 6 7.02 6 6 6 C4.66 6.31 3.32 6.63 2 7 C1.34 4.69 0.68 2.38 0 0 Z " fill="#797981" transform="translate(6,221)"/>
<path d="M0 0 C1.65 0 3.3 0 5 0 C5.33 2.64 5.66 5.28 6 8 C4.68 8 3.36 8 2 8 C0.74 5.09 0 3.2 0 0 Z " fill="#EBECED" transform="translate(119,127)"/>
<path d="M0 0 C0.33 0.99 0.66 1.98 1 3 C3.31 3 5.62 3 8 3 C8.33 6.3 8.66 9.6 9 13 C8.34 12.67 7.68 12.34 7 12 C6.59 9.68 6.26 7.34 6 5 C4.35 5 2.7 5 1 5 C0.67 6.32 0.34 7.64 0 9 C0 6.03 0 3.06 0 0 Z " fill="#0F2635" transform="translate(118,122)"/>
<path d="M0 0 C0.66 0.33 1.32 0.66 2 1 C-0.72 5.6 -3.04 8.62 -8 11 C-10.84 11.03 -13.19 10.58 -16 10 C-16 9.67 -16 9.34 -16 9 C-15.35 8.94 -14.7 8.87 -14.02 8.81 C-8.94 8.1 -5.76 7.4 -2.38 3.38 C-1.56 2.27 -0.76 1.15 0 0 Z " fill="#2D424E" transform="translate(153,134)"/>
<path d="M0 0 C2.06 0.44 2.06 0.44 4 1 C3.34 3.31 2.68 5.62 2 8 C0.68 8 -0.64 8 -2 8 C-1.12 1.12 -1.12 1.12 0 0 Z " fill="#F6F7F7" transform="translate(122,117)"/>
<path d="M0 0 C3.63 0 7.26 0 11 0 C10.67 0.99 10.34 1.98 10 3 C7 4 5.83 4.01 2.81 3.56 C1.55 3.38 0.3 3.19 -1 3 C-0.67 2.01 -0.34 1.02 0 0 Z " fill="#73747C" transform="translate(199,224)"/>
<path d="M0 0 C1.07 0.25 2.14 0.5 3.25 0.75 C3.25 1.08 3.25 1.41 3.25 1.75 C0.61 2.41 -2.03 3.07 -4.75 3.75 C-5.41 6.06 -6.07 8.37 -6.75 10.75 C-8.75 7.75 -8.75 7.75 -8.62 5.81 C-6.69 1.24 -5.06 -0.34 0 0 Z " fill="#314551" transform="translate(92.75,91.25)"/>
<path d="M0 0 C1.98 0 3.96 0 6 0 C5.67 1.65 5.34 3.3 5 5 C3.68 5 2.36 5 1 5 C0.67 3.35 0.34 1.7 0 0 Z " fill="#96A0A4" transform="translate(74,178)"/>
<path d="M0 0 C1.98 0 3.96 0 6 0 C6 1.32 6 2.64 6 4 C4.02 4 2.04 4 0 4 C0 2.68 0 1.36 0 0 Z " fill="#E4E7E7" transform="translate(114,140)"/>
<path d="M0 0 C2.31 0.19 2.31 0.19 5 1 C6.81 3.56 6.81 3.56 8 6 C2.34 4.52 2.34 4.52 0.62 1.88 C0.42 1.26 0.21 0.64 0 0 Z " fill="#DEE1E2" transform="translate(123,137)"/>
<path d="M0 0 C0.66 0 1.32 0 2 0 C2.33 3.3 2.66 6.6 3 10 C2.01 9.67 1.02 9.34 0 9 C0 6.03 0 3.06 0 0 Z " fill="#182F3E" transform="translate(124,178)"/>
<path d="M0 0 C2.31 0 4.62 0 7 0 C7 0.99 7 1.98 7 3 C4.69 3 2.38 3 0 3 C0 2.01 0 1.02 0 0 Z " fill="#E4E6E7" transform="translate(86,180)"/>
<path d="M0 0 C2.31 0 4.62 0 7 0 C7 0.99 7 1.98 7 3 C4 4 4 4 1.81 3.06 C1.21 2.71 0.62 2.36 0 2 C0 1.34 0 0.68 0 0 Z " fill="#70727A" transform="translate(190,224)"/>
<path d="M0 0 C-1.65 0.33 -3.3 0.66 -5 1 C-5 1.99 -5 2.98 -5 4 C-5.99 4 -6.98 4 -8 4 C-8 3.01 -8 2.02 -8 1 C-8.66 0.67 -9.32 0.34 -10 0 C-6.34 -0.75 -3.58 -1.24 0 0 Z " fill="#7E8087" transform="translate(31,223)"/>
<path d="M0 0 C1.06 1.88 1.06 1.88 2 4 C1.67 4.66 1.34 5.32 1 6 C0.34 6 -0.32 6 -1 6 C-1 5.34 -1 4.68 -1 4 C-1.66 4 -2.32 4 -3 4 C-3 3.01 -3 2.02 -3 1 C-2.01 0.67 -1.02 0.34 0 0 Z " fill="#7B7D83" transform="translate(42,222)"/>
<path d="M0 0 C6.75 0.75 6.75 0.75 9 3 C8.62 5.12 8.62 5.12 8 7 C7.61 6.38 7.22 5.76 6.81 5.12 C4.72 2.68 3.03 1.98 0 1 C0 0.67 0 0.34 0 0 Z " fill="#122938" transform="translate(136,126)"/>
<path d="M0 0 C2.64 0 5.28 0 8 0 C8 0.66 8 1.32 8 2 C7.01 2 6.02 2 5 2 C4.67 3.32 4.34 4.64 4 6 C4 4.68 4 3.36 4 2 C2.68 1.67 1.36 1.34 0 1 C0 0.67 0 0.34 0 0 Z " fill="#122735" transform="translate(89,127)"/>
<path d="M0 0 C2.64 0 5.28 0 8 0 C8.33 0.66 8.66 1.32 9 2 C6.36 2.33 3.72 2.66 1 3 C0.67 2.01 0.34 1.02 0 0 Z " fill="#777880" transform="translate(181,225)"/>
<path d="M0 0 C0.33 1.32 0.66 2.64 1 4 C-0.98 4.33 -2.96 4.66 -5 5 C-4.67 3.68 -4.34 2.36 -4 1 C-2.68 0.67 -1.36 0.34 0 0 Z " fill="#9A9BA0" transform="translate(32,223)"/>
<path d="M0 0 C2.47 0.5 2.47 0.5 5 1 C5 2.32 5 3.64 5 5 C2.53 4.01 2.53 4.01 0 3 C0 2.01 0 1.02 0 0 Z " fill="#E5E7E8" transform="translate(100,138)"/>
<path d="M0 0 C0.99 0.33 1.98 0.66 3 1 C2.01 1.33 1.02 1.66 0 2 C-0.33 2.99 -0.66 3.98 -1 5 C-2.32 4.67 -3.64 4.34 -5 4 C-2.69 1.94 -2.69 1.94 0 0 Z " fill="#D4D7D8" transform="translate(129,110)"/>
<path d="M0 0 C2.47 0.5 2.47 0.5 5 1 C5 1.99 5 2.98 5 4 C3.35 4 1.7 4 0 4 C0 2.68 0 1.36 0 0 Z " fill="#ECEDEE" transform="translate(107,139)"/>
</svg>
