<?xml version="1.0" encoding="UTF-8"?>
<!-- Generator: visioncortex VTracer 0.6.3 -->
<svg version="1.1" xmlns="http://www.w3.org/2000/svg" width="224" height="225">
<path d="M0 0 C73.92 0 147.84 0 224 0 C224 74.25 224 148.5 224 225 C150.08 225 76.16 225 0 225 C0 150.75 0 76.5 0 0 Z " fill="#FDFDFD" transform="translate(0,0)"/>
<path d="M0 0 C4.85 3.35 7.9 7.11 9.69 12.75 C9.83 15.56 9.88 18.26 9.81 21.06 C9.8 21.8 9.79 22.54 9.79 23.31 C9.76 25.12 9.73 26.94 9.69 28.75 C10.35 28.75 11.01 28.75 11.69 28.75 C12.04 34.59 11.85 38.6 8.69 43.75 C7.7 43.75 6.71 43.75 5.69 43.75 C5.71 45.05 5.73 46.35 5.75 47.69 C5.77 49.04 5.76 50.4 5.69 51.75 C5.36 52.08 5.03 52.41 4.69 52.75 C4.66 54.29 4.64 55.83 4.62 57.38 C4.24 61.87 3.22 63.79 -0.19 66.75 C-2.5 68.53 -4.88 70.13 -7.31 71.75 C-6.32 72.41 -5.33 73.07 -4.31 73.75 C-4.41 74.39 -4.5 75.03 -4.6 75.69 C-4.71 76.56 -4.82 77.42 -4.94 78.31 C-5.11 79.58 -5.11 79.58 -5.29 80.88 C-5.31 83.75 -4.67 85.83 -3.81 88.54 C-2.66 93.64 -2.82 98.98 -2.69 104.19 C-2.65 105.4 -2.61 106.6 -2.57 107.85 C-2.48 110.82 -2.39 113.78 -2.31 116.75 C-2.06 115.54 -2.06 115.54 -1.81 114.31 C-1.18 111.28 -0.55 108.25 0.09 105.23 C0.49 103.29 0.89 101.35 1.29 99.41 C3.52 88.82 3.52 88.82 5.34 84.5 C7.07 79.7 7.25 75.31 7.38 70.25 C7.41 69.33 7.44 68.41 7.48 67.47 C7.56 65.23 7.63 62.99 7.69 60.75 C8.31 61.07 8.93 61.39 9.56 61.73 C17.1 65.58 24.97 67.59 33.16 69.61 C34.08 69.84 35.01 70.08 35.97 70.32 C36.8 70.52 37.64 70.73 38.5 70.94 C40.93 71.84 42.1 72.72 43.69 74.75 C43.93 77.14 43.93 77.14 42.69 79.75 C39.19 82.21 35.25 83.91 31.39 85.74 C26.28 88.33 23.64 90.39 21.53 95.79 C20.69 97.75 20.69 97.75 19.12 99.63 C17.25 102.39 17.26 104.29 17.18 107.61 C17.12 109.28 17.12 109.28 17.07 110.99 C17.05 112.15 17.02 113.31 17 114.5 C16.97 115.67 16.93 116.85 16.9 118.06 C16.81 120.96 16.74 123.85 16.69 126.75 C8.24 127.69 -0.13 127.94 -8.62 127.94 C-9.62 127.94 -9.62 127.94 -10.63 127.94 C-20.99 127.92 -31.29 127.55 -41.62 126.88 C-42.85 126.8 -44.08 126.72 -45.34 126.64 C-50.55 126.26 -55.75 125.8 -60.92 124.99 C-62.06 124.82 -62.06 124.82 -63.22 124.64 C-66.41 123.29 -67.57 121.74 -69.31 118.75 C-69.49 115.81 -69.45 113.35 -69.15 110.45 C-69.05 109.26 -69.05 109.26 -68.95 108.04 C-68.81 106.36 -68.66 104.68 -68.5 103 C-68.25 100.46 -68.04 97.91 -67.84 95.36 C-67.69 93.72 -67.55 92.09 -67.4 90.45 C-67.34 89.7 -67.28 88.94 -67.21 88.17 C-66.64 82.45 -65.58 76.35 -61.7 71.9 C-57.99 70.11 -54.12 69.26 -50.12 68.31 C-43.49 66.67 -37.45 64.82 -31.31 61.75 C-30.32 61.42 -29.33 61.09 -28.31 60.75 C-28.3 61.32 -28.28 61.89 -28.27 62.47 C-28.19 65.09 -28.1 67.7 -28 70.31 C-27.97 71.66 -27.97 71.66 -27.93 73.03 C-27.9 73.91 -27.86 74.78 -27.82 75.69 C-27.8 76.49 -27.77 77.29 -27.74 78.12 C-27.17 81.61 -25.71 84.51 -24.31 87.75 C-23.71 90.15 -23.18 92.57 -22.71 95 C-22.51 95.98 -22.51 95.98 -22.32 96.98 C-21.91 99.05 -21.52 101.12 -21.12 103.19 C-20.85 104.6 -20.57 106.01 -20.3 107.43 C-19.63 110.87 -18.97 114.31 -18.31 117.75 C-18.29 116.97 -18.27 116.19 -18.25 115.38 C-18.16 111.82 -18.05 108.25 -17.94 104.69 C-17.91 103.46 -17.88 102.23 -17.84 100.96 C-17.65 94.82 -17.16 89.59 -15.31 83.75 C-15.27 80.92 -15.27 80.92 -15.69 78.31 C-15.8 77.45 -15.91 76.58 -16.02 75.69 C-16.12 75.05 -16.21 74.41 -16.31 73.75 C-15.65 73.42 -14.99 73.09 -14.31 72.75 C-14.31 72.09 -14.31 71.43 -14.31 70.75 C-15.93 69.53 -17.58 68.34 -19.25 67.19 C-24.07 63.48 -24.07 63.48 -25.13 60.29 C-25.31 57.87 -25.31 57.87 -25.25 55.63 C-25.11 53.5 -25.11 53.5 -27.31 51.75 C-27.58 49.06 -27.4 46.46 -27.31 43.75 C-28.24 43.47 -28.24 43.47 -29.19 43.19 C-32.43 41 -32.55 38.48 -33.31 34.75 C-33.5 31.88 -33.5 31.88 -33.31 29.75 C-32.98 29.42 -32.65 29.09 -32.31 28.75 C-32.11 25.44 -31.97 22.14 -31.88 18.83 C-31.68 14.34 -31.11 11.31 -28.31 7.75 C-26.12 6.94 -26.12 6.94 -24.31 6.75 C-24.27 6.01 -24.23 5.27 -24.19 4.5 C-22.94 0.59 -20.83 -0.32 -17.31 -2.25 C-11.28 -4.17 -5.39 -3.21 0 0 Z " fill="#161616" transform="translate(95.3125,41.25)"/>
<path d="M0 0 C6.21 5.05 11.76 12.14 12.99 20.24 C13.12 22.36 13.16 24.44 13.12 26.56 C13.12 27.31 13.11 28.06 13.1 28.83 C12.77 38.99 9.27 45.68 2.26 53.05 C-5.19 59.43 -14.03 61.53 -23.62 61.49 C-26.47 61.24 -28.85 60.58 -31.56 59.69 C-37.02 57.89 -40.25 58.22 -45.44 60.81 C-48.31 62.25 -48.31 62.25 -52.31 62.25 C-51.86 59.15 -51.2 57.04 -49.69 54.25 C-48.1 50.78 -48.02 49.79 -49.31 46.25 C-50.59 43.88 -51.96 41.58 -53.31 39.25 C-56.21 30.95 -55.52 19.56 -51.88 11.69 C-47.18 3.64 -40.13 -2.58 -31.31 -5.75 C-20.04 -8.45 -9.55 -6.65 0 0 Z " fill="#E2311D" transform="translate(183.3125,33.75)"/>
<path d="M0 0 C4.13 1.29 7.93 2.84 11.8 4.79 C12.86 5.32 13.92 5.85 15.01 6.39 C16.1 6.94 17.19 7.49 18.31 8.06 C19.42 8.62 20.53 9.17 21.67 9.74 C29.86 13.86 29.86 13.86 31 15 C31.09 17.88 31.12 20.74 31.1 23.63 C31.1 24.49 31.09 25.36 31.09 26.25 C31.09 29.02 31.08 31.79 31.06 34.56 C31.06 36.44 31.05 38.31 31.05 40.19 C31.04 44.79 31.02 49.4 31 54 C25.39 51.86 20.26 49 15 46.12 C14.02 45.6 13.03 45.07 12.02 44.52 C11.06 44 10.11 43.48 9.12 42.95 C8.26 42.48 7.4 42.01 6.51 41.52 C5.68 41.02 4.85 40.52 4 40 C2.62 39.17 2.62 39.17 1.21 38.32 C-1.37 35.61 -1.58 33.92 -1.59 30.24 C-1.57 29.49 -1.55 28.75 -1.52 27.99 C-1.52 27.22 -1.51 26.45 -1.51 25.66 C-1.49 23.21 -1.43 20.76 -1.38 18.31 C-1.36 16.65 -1.34 14.99 -1.33 13.33 C-1.2 1.2 -1.2 1.2 0 0 Z " fill="#161616" transform="translate(120,143)"/>
<path d="M0 0 C0.22 4.87 0.39 9.75 0.49 14.62 C0.54 16.28 0.6 17.94 0.68 19.59 C1.31 33.24 1.31 33.24 -1.66 37.23 C-4.03 38.84 -6.36 39.9 -9 41 C-10.81 42.05 -12.61 43.12 -14.4 44.21 C-16.25 45.27 -18.09 46.32 -19.94 47.38 C-20.88 47.92 -21.83 48.47 -22.8 49.03 C-23.7 49.54 -24.6 50.06 -25.53 50.59 C-26.75 51.28 -26.75 51.28 -27.99 51.99 C-30 53 -30 53 -32 53 C-32 40.13 -32 27.26 -32 14 C-22.16 8.8 -22.16 8.8 -17.88 6.56 C-15.12 5.12 -12.37 3.66 -9.62 2.19 C-8.75 1.73 -7.89 1.28 -7 0.81 C-5.92 0.23 -5.92 0.23 -4.81 -0.36 C-3 -1 -3 -1 0 0 Z " fill="#151515" transform="translate(190,144)"/>
<path d="M0 0 C2.97 1.03 5.47 2.37 8.17 3.97 C9.23 4.59 10.28 5.21 11.36 5.85 C12.45 6.5 13.54 7.15 14.66 7.82 C15.76 8.46 16.86 9.11 17.99 9.78 C25.86 14.43 25.86 14.43 29.54 16.88 C29.54 17.54 29.54 18.2 29.54 18.88 C29.02 19.13 28.49 19.37 27.95 19.63 C26.4 20.36 24.84 21.09 23.29 21.83 C21.54 22.66 19.78 23.48 18.03 24.31 C12.8 26.77 7.66 29.32 2.65 32.2 C-2.45 33.85 -7.23 31.23 -11.73 28.94 C-12.89 28.36 -14.04 27.77 -15.23 27.17 C-16.43 26.55 -17.63 25.94 -18.84 25.32 C-20.06 24.7 -21.29 24.07 -22.51 23.45 C-25.5 21.94 -28.48 20.41 -31.46 18.88 C-30 15.07 -28.2 13.85 -24.63 11.97 C-23.66 11.46 -22.7 10.94 -21.71 10.41 C-20.19 9.62 -20.19 9.62 -18.65 8.82 C-16.66 7.77 -14.68 6.71 -12.69 5.66 C-11.81 5.2 -10.93 4.73 -10.02 4.26 C-7.41 2.91 -7.41 2.91 -4.95 1.14 C-2.46 -0.12 -2.46 -0.12 0 0 Z " fill="#161616" transform="translate(155.46044921875,119.119384765625)"/>
<path d="M0 0 C2.31 0 4.62 0 7 0 C7.06 0.93 7.12 1.86 7.19 2.81 C7.67 6.16 7.67 6.16 10.38 7.62 C11.24 8.08 12.11 8.53 13 9 C15.3 11.37 15.96 12.43 16.19 15.75 C16.09 16.86 16.09 16.86 16 18 C13.25 18.25 13.25 18.25 10 18 C9.36 17.32 8.72 16.64 8.06 15.94 C7.38 15.3 6.7 14.66 6 14 C2.31 14.15 2.31 14.15 -1 15 C-1 16.65 -1 18.3 -1 20 C0.45 20.67 0.45 20.67 1.92 21.36 C3.2 21.97 4.47 22.58 5.75 23.19 C6.38 23.48 7.02 23.77 7.67 24.07 C11.81 26.08 14.46 28.02 17 32 C17.62 36.28 17.31 38.4 15.31 42.25 C13 45 13 45 10.31 46.5 C7.65 47.85 7.65 47.85 7.19 51.19 C7.09 52.58 7.09 52.58 7 54 C4.69 54 2.38 54 0 54 C0 52.02 0 50.04 0 48 C-0.74 47.77 -1.49 47.55 -2.25 47.31 C-5.61 45.71 -7.03 44.14 -9 41 C-9.25 38.19 -9.25 38.19 -9 36 C-5.69 35.75 -5.69 35.75 -2 36 C-0.38 38 -0.38 38 1 40 C3.54 40.5 3.54 40.5 6 40 C8.29 38.16 8.29 38.16 8.12 35.38 C8.08 34.59 8.04 33.81 8 33 C7.42 32.83 6.84 32.66 6.24 32.48 C0.34 30.65 -4.23 28.41 -8.94 24.31 C-10.68 20.52 -10.05 16.96 -9 13 C-7.17 10.04 -6.02 8.44 -2.81 7.06 C-2.21 6.71 -1.62 6.36 -1 6 C-0.18 2.94 -0.18 2.94 0 0 Z " fill="#FCF8F7" transform="translate(159,34)"/>
<path d="M0 0 C0.66 0 1.32 0 2 0 C2 3.3 2 6.6 2 10 C-1.27 10 -3.85 9.7 -7 9 C-7 7.35 -7 5.7 -7 4 C-5.34 3.62 -3.68 3.29 -2 3 C-1.67 3.33 -1.34 3.66 -1 4 C-0.67 2.68 -0.34 1.36 0 0 Z " fill="#B3B3B3" transform="translate(110,209)"/>
<path d="M0 0 C4.71 0.71 4.71 0.71 6 2 C6.33 1.34 6.66 0.68 7 0 C8.32 0.33 9.64 0.66 11 1 C10.01 1.5 10.01 1.5 9 2 C8.34 4.53 8.34 4.53 8 7 C5.16 7 2.76 6.6 0 6 C-0.38 4.34 -0.71 2.68 -1 1 C-0.67 0.67 -0.34 0.34 0 0 Z " fill="#AEAEAE" transform="translate(117,212)"/>
<path d="M0 0 C1.68 0.29 3.34 0.62 5 1 C4.67 1.66 4.34 2.32 4 3 C3.01 2.67 2.02 2.34 1 2 C0.67 2.66 0.34 3.32 0 4 C1.65 4.33 3.3 4.66 5 5 C5 6.32 5 7.64 5 9 C3.35 9.33 1.7 9.66 0 10 C-0.66 9.01 -1.32 8.02 -2 7 C-1.34 6.67 -0.68 6.34 0 6 C-0.28 4.79 -0.28 4.79 -0.56 3.56 C-0.71 2.72 -0.85 1.87 -1 1 C-0.67 0.67 -0.34 0.34 0 0 Z " fill="#AAAAAA" transform="translate(96,209)"/>
<path d="M0 0 C0.33 0 0.66 0 1 0 C1.06 3.46 1.09 6.92 1.12 10.38 C1.14 11.36 1.16 12.34 1.18 13.36 C1.18 14.3 1.19 15.24 1.2 16.21 C1.21 17.08 1.22 17.95 1.23 18.85 C1 21 1 21 -1 23 C-1.8 19.71 -2.1 18.29 -1 15 C-0.77 12.43 -0.58 9.88 -0.44 7.31 C-0.39 6.61 -0.35 5.91 -0.31 5.19 C-0.2 3.46 -0.1 1.73 0 0 Z " fill="#444444" transform="translate(91,132)"/>
<path d="M0 0 C0.66 0 1.32 0 2 0 C2 3.3 2 6.6 2 10 C1.34 10 0.68 10 0 10 C0 9.34 0 8.68 0 8 C-1.65 8.33 -3.3 8.66 -5 9 C-5.33 8.34 -5.66 7.68 -6 7 C-4.35 7 -2.7 7 -1 7 C-0.67 4.69 -0.34 2.38 0 0 Z " fill="#D2D2D2" transform="translate(110,209)"/>
<path d="M0 0 C1.32 0 2.64 0 4 0 C4 1.98 4 3.96 4 6 C2.35 5.67 0.7 5.34 -1 5 C-0.67 3.35 -0.34 1.7 0 0 Z " fill="#D0D0D0" transform="translate(117,212)"/>
<path d="M0 0 C0 1.32 0 2.64 0 4 C-2.44 3.62 -2.44 3.62 -5 3 C-5.33 2.34 -5.66 1.68 -6 1 C-4 0 -4 0 0 0 Z " fill="#D3D3D3" transform="translate(100,215)"/>
</svg>
