<?xml version="1.0" encoding="UTF-8"?>
<!-- Generator: visioncortex VTracer 0.6.3 -->
<svg version="1.1" xmlns="http://www.w3.org/2000/svg" width="512" height="512">
<path d="M0 0 C1.16 -0.01 2.33 -0.02 3.53 -0.03 C5.43 -0.04 5.43 -0.04 7.36 -0.04 C8.66 -0.05 9.95 -0.05 11.29 -0.06 C14.03 -0.07 16.78 -0.08 19.52 -0.08 C23.03 -0.08 26.54 -0.11 30.05 -0.14 C33.4 -0.16 36.76 -0.16 40.11 -0.17 C41.37 -0.18 42.63 -0.19 43.93 -0.2 C45.1 -0.2 46.27 -0.2 47.48 -0.2 C48.52 -0.2 49.55 -0.2 50.61 -0.21 C53.9 0.22 55.78 1.21 58.44 3.16 C65.22 16.72 55.47 42.93 51.13 56.34 C46.32 70.44 39.71 84.75 31.44 97.16 C32.22 97.59 33.01 98.01 33.82 98.45 C45.83 105.15 54.08 112.97 58.31 126.41 C60.93 137.56 60.19 148.71 55.44 159.16 C53.45 162.26 51.35 165.15 49.05 168.02 C47.24 169.98 47.24 169.98 47.44 172.16 C48.22 172.54 49.01 172.92 49.82 173.31 C69.69 183.35 83.04 198.66 90.76 219.77 C92.87 226.54 95.07 234.07 93.44 241.16 C91.29 243.9 90.11 245.04 86.64 245.67 C85.56 245.67 84.48 245.67 83.36 245.68 C82.12 245.69 80.87 245.7 79.59 245.71 C78.21 245.71 76.84 245.7 75.46 245.69 C74.01 245.7 72.56 245.71 71.1 245.72 C67.16 245.74 63.22 245.74 59.28 245.73 C55.99 245.73 52.7 245.73 49.41 245.74 C41.64 245.76 33.88 245.75 26.12 245.74 C18.11 245.72 10.1 245.74 2.09 245.77 C-4.78 245.8 -11.66 245.8 -18.53 245.79 C-22.64 245.79 -26.75 245.79 -30.85 245.81 C-34.72 245.83 -38.58 245.82 -42.44 245.8 C-43.85 245.79 -45.27 245.8 -46.69 245.81 C-48.62 245.83 -50.56 245.81 -52.49 245.79 C-54.11 245.79 -54.11 245.79 -55.77 245.79 C-58.56 245.16 -58.56 245.16 -60.91 242.83 C-64.43 237.14 -62.52 231.32 -61.06 225.16 C-57.82 213.09 -52 201.42 -43.56 192.16 C-42.47 190.93 -42.47 190.93 -41.36 189.68 C-35.1 183.01 -28.46 178.64 -20.56 174.16 C-18.89 173.17 -17.23 172.17 -15.56 171.16 C-16.11 170.44 -16.65 169.71 -17.21 168.97 C-17.92 168 -18.64 167.03 -19.38 166.04 C-20.44 164.61 -20.44 164.61 -21.52 163.15 C-23.5 160.25 -25.07 157.34 -26.56 154.16 C-27.5 154.72 -28.43 155.27 -29.4 155.85 C-72.75 181.23 -124.1 188.39 -172.79 175.84 C-202.19 167.81 -228.4 152.94 -251.13 132.72 C-251.66 132.26 -252.19 131.8 -252.73 131.33 C-256.35 127.97 -257.81 125.03 -258.56 120.16 C-257.62 115.38 -254.46 112.96 -250.81 110.04 C-250.24 109.56 -249.66 109.09 -249.07 108.6 C-244.38 104.76 -239.6 101.02 -234.81 97.3 C-230.09 93.62 -225.52 89.79 -221 85.86 C-212.41 78.46 -212.41 78.46 -207.09 77.6 C-202.69 78.3 -200.29 80.23 -197.06 83.1 C-172.74 103.34 -143.97 110.97 -112.56 109.16 C-89.66 106.71 -67.89 97.32 -50.56 82.16 C-49.82 81.56 -49.08 80.96 -48.31 80.34 C-27.39 62.95 -14.92 34.4 -12.25 7.87 C-11.41 4.57 -10.16 3.3 -7.56 1.16 C-4.93 -0.16 -2.95 0.02 0 0 Z " fill="#242323" transform="translate(372.563720703125,258.8388671875)"/>
<path d="M0 0 C0.88 0.01 1.75 0.02 2.66 0.02 C13.29 0.29 21.14 3.42 29.12 10.44 C29.73 10.94 30.34 11.44 30.96 11.96 C39.26 19.41 43.44 30.11 44.34 41.05 C44.82 54.56 39.66 66.15 31.12 76.44 C31.95 76.85 32.77 77.26 33.62 77.69 C41.15 81.59 47.68 85.84 54.12 91.44 C54.7 91.11 55.27 90.78 55.86 90.44 C81.55 76.06 113.87 61.29 144.12 63.44 C148.74 65.66 148.74 65.66 150.12 68.44 C150.24 70.39 150.28 72.34 150.3 74.29 C150.32 76.13 150.32 76.13 150.34 78.01 C150.35 79.36 150.36 80.71 150.36 82.05 C150.37 83.07 150.37 83.07 150.38 84.11 C150.4 87.69 150.41 91.27 150.42 94.86 C150.43 98.56 150.47 102.26 150.51 105.96 C150.53 108.81 150.54 111.65 150.54 114.5 C150.55 115.86 150.56 117.23 150.58 118.59 C150.6 120.5 150.6 122.41 150.59 124.32 C150.6 125.41 150.61 126.5 150.61 127.62 C150 131.14 148.94 132.29 146.12 134.44 C143.11 135.26 140.19 135.86 137.12 136.44 C105.85 143.09 78.19 157.71 60.22 184.96 C53.77 195.44 48.66 206.65 45.12 218.44 C44.65 220.02 44.65 220.02 44.16 221.62 C37.82 246.99 41.5 275.19 53.12 298.44 C53.57 301.69 53.81 304.24 52.14 307.17 C48.68 311.42 44.46 314.73 40.16 318.07 C36.46 320.96 32.82 323.91 29.19 326.88 C28.16 327.71 28.16 327.71 27.11 328.57 C22.18 332.57 17.26 336.6 12.36 340.63 C11.62 341.23 10.88 341.82 10.12 342.44 C9.45 343 8.77 343.57 8.07 344.15 C5.55 345.82 3.2 345.89 0.22 346.03 C-3.94 344.85 -6.08 341.78 -8.19 338.21 C-9.61 335.48 -10.95 332.73 -12.25 329.94 C-12.73 328.92 -13.21 327.9 -13.7 326.85 C-34.51 281.65 -36.42 230.53 -19.87 183.68 C-15.67 172.32 -10.35 161.65 -3.88 151.44 C-4.72 151.43 -5.56 151.43 -6.42 151.42 C-14.35 151.36 -22.28 151.29 -30.21 151.2 C-34.29 151.16 -38.37 151.12 -42.45 151.09 C-46.38 151.07 -50.32 151.02 -54.25 150.97 C-55.75 150.96 -57.25 150.95 -58.75 150.94 C-60.86 150.93 -62.96 150.9 -65.07 150.87 C-66.86 150.85 -66.86 150.85 -68.69 150.84 C-72.18 150.4 -74.08 149.53 -76.88 147.44 C-80.59 140.01 -76.98 129.77 -74.56 122.37 C-71.07 112.59 -65.83 104.11 -58.88 96.44 C-58.18 95.66 -57.48 94.88 -56.75 94.07 C-49.34 86.22 -40.58 81.02 -30.88 76.44 C-31.25 75.98 -31.63 75.51 -32.01 75.04 C-41.4 63.07 -44.97 51.62 -43.88 36.44 C-41.96 25.67 -36.16 15.15 -27.36 8.55 C-18.51 2.65 -10.65 -0.13 0 0 Z " fill="#242323" transform="translate(93.875,7.5625)"/>
<path d="M0 0 C28.71 -0.68 53.93 10.39 74.52 29.93 C94.75 50.96 101.86 76.69 101.54 105.18 C100.87 129.71 90.04 150.57 73.27 168.12 C72.36 169.13 72.36 169.13 71.45 170.16 C56.74 186.08 33.38 196.1 11.89 197.24 C-0.02 197.6 -11.18 197.28 -22.73 194.12 C-24.26 193.7 -24.26 193.7 -25.82 193.27 C-51.91 185.32 -72.6 166.99 -85.32 143.14 C-97.16 118.21 -98.37 90.13 -89.38 64.14 C-80.1 38.65 -60.35 19.29 -36.06 7.91 C-24.66 2.94 -12.36 0.53 0 0 Z " fill="#FCC137" transform="translate(244.734375,156.8828125)"/>
<path d="M0 0 C1.32 0.01 1.32 0.01 2.66 0.03 C14.51 0.34 23.3 4.48 32.12 12.44 C40.87 22.37 44.52 33.6 44.4 46.63 C43.68 56.53 40.12 64.65 34.12 72.44 C33.57 73.18 33.01 73.92 32.44 74.68 C32.01 75.26 31.57 75.84 31.12 76.44 C32.07 76.89 33.01 77.34 33.98 77.8 C43.46 82.49 50.75 87.89 58.12 95.44 C58.78 96.06 59.43 96.68 60.11 97.32 C71.47 108.92 78.59 127.28 78.56 143.39 C78 146.04 76.96 147.46 75.12 149.44 C71.41 150.68 67.94 150.61 64.07 150.64 C63.25 150.65 62.43 150.66 61.59 150.67 C58.88 150.7 56.17 150.73 53.46 150.75 C51.58 150.77 49.7 150.8 47.82 150.82 C42.87 150.87 37.93 150.92 32.98 150.97 C27.93 151.02 22.89 151.08 17.84 151.13 C7.93 151.24 -1.97 151.34 -11.88 151.44 C-11.25 152.53 -10.63 153.63 -9.99 154.75 C-9.17 156.21 -8.35 157.66 -7.53 159.11 C-7.12 159.83 -6.71 160.55 -6.29 161.29 C-3.38 166.44 -0.8 171.6 1.31 177.12 C1.63 177.95 1.95 178.77 2.29 179.61 C14.79 212.41 14.79 212.41 13.12 226.44 C11.48 229.1 10.82 230.02 8.12 231.44 C3.51 232.2 -1.08 232.14 -5.75 232.1 C-7.12 232.1 -8.49 232.11 -9.86 232.12 C-12.73 232.12 -15.6 232.11 -18.47 232.09 C-22.14 232.06 -25.8 232.08 -29.47 232.11 C-32.3 232.13 -35.13 232.12 -37.96 232.11 C-39.97 232.1 -41.98 232.12 -43.98 232.13 C-54.1 232 -54.1 232 -57.16 229.12 C-59.3 225.77 -60.33 222.45 -61.25 218.62 C-69.12 189.3 -87.49 165.82 -113.48 150.24 C-121.53 145.62 -129.83 142.5 -138.68 139.76 C-139.38 139.54 -140.07 139.32 -140.78 139.1 C-142.21 138.65 -143.65 138.21 -145.08 137.78 C-146.14 137.43 -146.14 137.43 -147.22 137.08 C-147.85 136.89 -148.48 136.69 -149.13 136.49 C-151.7 134.94 -152.53 133.09 -153.88 130.44 C-154.26 127.63 -154.26 127.63 -154.26 124.53 C-154.27 123.37 -154.28 122.2 -154.29 121 C-154.29 119.75 -154.28 118.51 -154.27 117.22 C-154.28 115.93 -154.28 114.64 -154.28 113.31 C-154.29 110.58 -154.28 107.85 -154.27 105.13 C-154.25 101.64 -154.26 98.15 -154.28 94.67 C-154.29 91.33 -154.28 87.99 -154.27 84.66 C-154.28 83.41 -154.29 82.16 -154.29 80.87 C-154.28 79.71 -154.27 78.54 -154.26 77.34 C-154.26 76.32 -154.26 75.3 -154.26 74.24 C-153.81 70.98 -152.81 69.09 -150.88 66.44 C-144.34 63.17 -135.04 65.95 -128.31 67.56 C-127.35 67.79 -126.39 68.02 -125.4 68.25 C-103.62 73.56 -83.56 82.75 -65.05 95.38 C-62.23 97.62 -62.23 97.62 -59.88 97.44 C-58.59 96.16 -57.34 94.84 -56.12 93.5 C-48.94 86.13 -40.11 80.89 -30.88 76.44 C-31.25 75.98 -31.63 75.51 -32.01 75.04 C-40.73 63.93 -45.08 52.64 -43.88 38.44 C-41.83 25.2 -35.55 15.03 -24.9 6.94 C-17.14 1.75 -9.25 -0.11 0 0 Z " fill="#252323" transform="translate(417.875,7.5625)"/>
<path d="M0 0 C12.87 0 25.74 0 39 0 C36.2 25.22 27.75 48.87 14.44 70.44 C14 71.17 13.57 71.89 13.12 72.65 C10.8 76.25 9.64 77.75 5.53 79.34 C4.36 79.56 3.2 79.77 2 80 C-10.45 84.34 -19.47 90.32 -26 102 C-27.93 106.36 -29.83 110.76 -30.19 115.55 C-31.43 119.29 -34.29 120.51 -37.56 122.31 C-38.24 122.7 -38.91 123.08 -39.61 123.48 C-41.73 124.67 -43.86 125.84 -46 127 C-46.62 127.35 -47.25 127.7 -47.89 128.06 C-63.52 136.79 -81.38 142.89 -99 146 C-100.04 146.2 -101.09 146.4 -102.16 146.61 C-145.64 153.82 -190.34 142.26 -226 117 C-231.4 113 -236.29 108.8 -241 104 C-234.24 98.19 -227.43 92.47 -220.44 86.94 C-219.85 86.47 -219.27 86.01 -218.67 85.53 C-215.9 83.35 -213.24 81.4 -210 80 C-208.75 80.94 -208.75 80.94 -207.46 81.91 C-186.63 97.33 -162.28 108.14 -136 109 C-134.77 109.05 -133.53 109.1 -132.26 109.16 C-97.3 110.17 -63.84 97.1 -38.33 73.31 C-17.54 53.27 -5.62 28.11 0 0 Z " fill="#89C8FC" transform="translate(376,276)"/>
<path d="M0 0 C28.71 -0.68 53.93 10.39 74.52 29.93 C94.75 50.96 101.86 76.69 101.54 105.18 C100.87 129.71 90.04 150.57 73.27 168.12 C72.36 169.13 72.36 169.13 71.45 170.16 C56.74 186.08 33.38 196.1 11.89 197.24 C-0.02 197.6 -11.18 197.28 -22.73 194.12 C-24.26 193.7 -24.26 193.7 -25.82 193.27 C-51.91 185.32 -72.6 166.99 -85.32 143.14 C-97.16 118.21 -98.37 90.13 -89.38 64.14 C-80.1 38.65 -60.35 19.29 -36.06 7.91 C-24.66 2.94 -12.36 0.53 0 0 Z M-8.38 17.17 C-27.52 18.45 -46.75 30.67 -59.2 44.78 C-74.33 63.23 -80.92 85.43 -78.73 109.12 C-75.67 130.54 -64.38 149.96 -47.67 163.62 C-27.55 178.19 -5.34 183.26 19.35 179.61 C41.35 174.96 60.13 162.07 72.33 143.35 C84.26 123.4 88.83 101.22 83.24 78.39 C81.66 73.09 79.65 68.11 77.27 63.12 C76.85 62.21 76.43 61.31 76 60.38 C65.84 40.13 47.88 27.1 26.76 19.98 C15.24 16.31 3.58 16.94 -8.38 17.17 Z " fill="#252222" transform="translate(244.734375,156.8828125)"/>
<path d="M0 0 C2.18 0 4.36 0.03 6.54 0.1 C7.69 0.1 8.84 0.11 10.02 0.12 C13.69 0.15 17.35 0.23 21.02 0.31 C23.51 0.34 26 0.36 28.48 0.39 C34.58 0.45 40.68 0.55 46.77 0.68 C46 1.46 45.22 2.23 44.42 3.03 C25.51 21.97 13.04 42.87 5.77 68.68 C5.58 69.36 5.39 70.05 5.19 70.75 C-1.21 94.58 2.22 121.14 10.47 144.02 C11.39 146.6 12.15 149.03 12.77 151.68 C2.92 159.88 -7 167.96 -17.23 175.68 C-19.69 173.48 -20.91 171.53 -22.13 168.47 C-22.46 167.64 -22.79 166.82 -23.13 165.97 C-23.64 164.65 -23.64 164.65 -24.17 163.31 C-24.52 162.4 -24.87 161.49 -25.24 160.55 C-26.25 157.93 -27.24 155.31 -28.23 152.68 C-28.65 151.58 -29.07 150.48 -29.5 149.35 C-43.38 108.91 -37.96 61.99 -19.44 24.05 C-16.38 18.06 -12.88 12.34 -9.23 6.68 C-8.77 5.64 -8.31 4.59 -7.84 3.52 C-4.83 0.25 -4.24 0.23 0 0 Z " fill="#6BF3C1" transform="translate(116.2275390625,156.31884765625)"/>
<path d="M0 0 C4.94 0.45 9.6 0.94 14.31 2.57 C15.23 2.88 16.16 3.2 17.11 3.53 C18.06 3.87 19.02 4.21 20 4.56 C21.01 4.92 22.01 5.28 23.05 5.64 C38.96 11.41 53.53 18.66 67 29 C66.5 33.08 65.44 36.35 63.77 40.1 C61.04 46.87 59.9 54.77 61 62 C62.24 63.71 62.24 63.71 64 65 C66.97 65.14 69.74 65.11 72.69 64.95 C74.46 64.91 76.23 64.87 77.99 64.84 C80.77 64.77 83.54 64.69 86.32 64.53 C101.29 63.73 101.29 63.73 105.79 67.5 C108.94 71.25 111.08 75.42 113.05 79.87 C114.32 82.72 115.79 85.45 117.27 88.2 C124.09 101.16 132 117.16 132 132 C118.8 132 105.6 132 92 132 C90.35 126.39 88.7 120.78 87 115 C85.52 111.6 84.1 108.51 82.31 105.31 C81.88 104.52 81.45 103.74 81.01 102.92 C64.78 73.75 38.83 51.42 6.62 41.62 C5.57 41.33 4.51 41.03 3.41 40.73 C1 40 1 40 0 39 C-0.09 36.12 -0.12 33.26 -0.1 30.37 C-0.1 29.51 -0.09 28.64 -0.09 27.75 C-0.09 24.98 -0.08 22.21 -0.06 19.44 C-0.06 17.56 -0.05 15.69 -0.05 13.81 C-0.04 9.21 -0.02 4.6 0 0 Z " fill="#FDDD74" transform="translate(281,91)"/>
<path d="M0 0 C4.18 0.87 5.57 2.12 8 5.62 C8.4 8.67 8.3 11.57 8 14.62 C8.95 14.67 9.9 14.71 10.88 14.75 C18.57 15.87 25.17 20.95 29.82 26.98 C30.21 27.52 30.6 28.06 31 28.62 C31.62 29.43 32.24 30.23 32.88 31.06 C34.56 34.89 34.47 37.44 34 41.62 C32.44 44.12 32.44 44.12 30 45.62 C26.13 46.18 24 46.37 20.81 44 C19 41.62 19 41.62 17.06 38.62 C14.09 34.31 11.18 31.59 6 30.62 C-1.36 29.94 -7.31 29.84 -13.51 34.14 C-16.27 36.89 -16.95 39.21 -17.38 43.06 C-16.92 47.4 -16.23 48.71 -13 51.62 C-7.63 55.01 -1.61 56.26 4.5 57.62 C14.86 59.94 25.31 63.1 31.8 72.13 C36.27 79.44 37.82 85.03 37 93.62 C34.94 101.07 30.78 107.3 24.19 111.36 C18.84 114.17 14.07 116.35 8 116.62 C8.08 117.84 8.17 119.06 8.25 120.31 C8.23 123.46 7.96 124.71 6.5 127.62 C3.47 130.05 1.71 130.37 -2.09 130.1 C-4 129.62 -4 129.62 -6.5 127.62 C-8.49 123.64 -8.3 121.04 -8 116.62 C-9.3 116.42 -10.6 116.21 -11.94 116 C-21.43 113.84 -28.39 107.35 -34 99.62 C-36.23 95.71 -37.01 92.37 -36.94 87.81 C-36 84.62 -36 84.62 -34.31 82.69 C-31.25 81.28 -29.34 81.15 -26 81.62 C-22.07 83.78 -20.73 86.02 -19.19 90.06 C-17.11 95.23 -13.96 97.34 -9 99.62 C-1.34 102.18 6.34 100.82 13.67 97.82 C16.82 96.2 18.44 94.82 20 91.62 C20.71 87.28 20.37 85.27 18.19 81.44 C12.93 75.95 4.86 74.78 -2.29 73.23 C-14 70.68 -24.07 67.05 -31 56.62 C-34.98 49.55 -35.08 41.72 -32.94 34 C-29.96 26.02 -23.21 20.08 -16 15.88 C-13.03 14.64 -11.17 14.35 -8 14.62 C-8.06 14.03 -8.12 13.44 -8.18 12.83 C-8.43 8.43 -8.46 6.29 -5.88 2.56 C-3 0.62 -3 0.62 0 0 Z " fill="#272422" transform="translate(248,190.375)"/>
<path d="M0 0 C10.96 8.46 20.17 19.45 24 33 C24 33.99 24 34.98 24 36 C-15.6 36 -55.2 36 -96 36 C-93.71 22.24 -84.86 9.77 -73.74 1.5 C-51.91 -13.82 -22.47 -15.47 0 0 Z " fill="#89C8FD" transform="translate(424,452)"/>
<path d="M0 0 C0.84 0.01 1.68 0.02 2.54 0.03 C18.81 0.34 32.82 5.46 44.59 17.05 C45.28 17.78 45.97 18.5 46.69 19.25 C47.32 19.86 47.95 20.47 48.6 21.11 C54.96 27.67 60.69 37.04 60.69 46.25 C21.42 46.25 -17.85 46.25 -58.31 46.25 C-56.06 32.72 -47.26 20.9 -36.62 12.5 C-25.42 4.5 -13.77 -0.17 0 0 Z " fill="#89C8FD" transform="translate(92.3125,94.75)"/>
<path d="M0 0 C0.83 0.37 1.67 0.75 2.53 1.13 C17.94 8.9 28.02 22.05 34 38 C34 38.99 34 39.98 34 41 C-5.27 41 -44.54 41 -85 41 C-83.43 28.45 -77.78 20.82 -69 12 C-68.41 11.37 -67.82 10.75 -67.21 10.1 C-62.99 5.98 -58.22 3.34 -53 0.69 C-52.34 0.35 -51.67 0.01 -50.99 -0.34 C-35.1 -8.05 -15.9 -7.18 0 0 Z " fill="#89C8FD" transform="translate(444,100)"/>
<path d="M0 0 C0.02 5.39 0.04 10.79 0.05 16.18 C0.06 18.02 0.07 19.85 0.08 21.69 C0.09 24.32 0.09 26.96 0.1 29.59 C0.1 30.42 0.11 31.24 0.11 32.09 C0.11 34.06 0.06 36.03 0 38 C-1.84 39.84 -4.96 39.71 -7.44 40.12 C-23.24 43.09 -40.44 50.07 -53.35 59.77 C-55 61 -55 61 -57 61 C-57.16 59.91 -57.32 58.82 -57.48 57.7 C-59.27 46.17 -61.86 35.52 -69 26 C-67.64 22.72 -66.44 21.33 -63.32 19.67 C-62.19 19.06 -62.19 19.06 -61.03 18.45 C-60.22 18.03 -59.4 17.62 -58.56 17.19 C-57.72 16.75 -56.87 16.31 -56 15.86 C-41.92 8.78 -27.41 4.16 -12 1 C-10.74 0.7 -10.74 0.7 -9.46 0.4 C-6.29 -0.11 -3.21 -0.02 0 0 Z " fill="#6AF3C0" transform="translate(228,89)"/>
<path d="M0 0 C6.34 4.07 12.17 8.77 14.06 16.32 C15.22 27.18 13.82 34.58 7.94 43.57 C1.57 49.67 -6.43 52.73 -15.18 52.59 C-23.01 51.83 -28.99 48.35 -34.24 42.58 C-39.95 35 -41.24 26.64 -39.94 17.32 C-37.76 10.31 -34 5.39 -27.94 1.32 C-27.35 0.91 -26.77 0.5 -26.17 0.07 C-18.32 -4.68 -7.99 -4.19 0 0 Z " fill="#F3D9CA" transform="translate(430.9375,26.67578125)"/>
<path d="M0 0 C5.58 3.8 10.11 9.03 11.6 15.77 C12.58 24.96 11.83 33.34 6.02 40.8 C0.97 46.18 -4.95 50.23 -12.44 50.98 C-21.02 51.16 -27.88 48.9 -34.61 43.52 C-40.9 37.39 -42.55 31.15 -42.77 22.59 C-42.8 14.57 -40.99 9.61 -35.53 3.78 C-24.95 -6.14 -12.56 -7.06 0 0 Z " fill="#F3D9CA" transform="translate(109.3984375,28.2265625)"/>
<path d="M0 0 C5.87 4.04 11.1 9.29 12.93 16.32 C13.81 24.37 14.27 32.45 9.54 39.43 C3.69 46.3 -2.06 50.64 -11.12 51.67 C-19.93 52.07 -26.52 50.44 -33.14 44.46 C-39.63 37.49 -41.68 31.09 -41.42 21.61 C-40.61 13.91 -37.76 7.95 -31.96 2.8 C-22.91 -4.26 -10.36 -5.56 0 0 Z " fill="#F4DACB" transform="translate(402.07421875,373.67578125)"/>
<path d="M0 0 C2.18 0 4.36 0.03 6.54 0.1 C7.69 0.1 8.84 0.11 10.02 0.12 C13.69 0.15 17.35 0.23 21.02 0.31 C23.51 0.34 26 0.36 28.48 0.39 C34.58 0.45 40.68 0.55 46.77 0.68 C46.11 1.34 45.45 2 44.77 2.68 C42.16 2.67 39.65 2.55 37.05 2.35 C19.83 0.32 19.83 0.32 4.44 5.45 C2.09 8.51 0.72 11.88 -0.48 15.53 C-1.48 18.4 -2.9 20.94 -4.36 23.59 C-6.13 26.89 -7.68 30.28 -9.23 33.68 C-9.54 34.36 -9.85 35.05 -10.17 35.75 C-13.65 43.54 -16.63 51.41 -18.98 59.62 C-19.16 60.26 -19.35 60.9 -19.54 61.56 C-23.36 75.72 -24.75 89.84 -24.67 104.46 C-24.67 107.05 -24.69 109.64 -24.73 112.23 C-24.79 128.21 -21.98 143.42 -17.04 158.62 C-16.52 160.25 -16.01 161.89 -15.5 163.52 C-15.27 164.25 -15.04 164.97 -14.81 165.72 C-14.13 168.01 -13.62 170.32 -13.23 172.68 C-14.88 173.67 -16.53 174.66 -18.23 175.68 C-39.55 138.85 -41.01 92.31 -30.62 51.93 C-26.1 35.78 -18.29 20.71 -9.23 6.68 C-8.77 5.64 -8.31 4.59 -7.84 3.52 C-4.83 0.25 -4.24 0.23 0 0 Z " fill="#03E097" transform="translate(116.2275390625,156.31884765625)"/>
<path d="M0 0 C0.33 1.32 0.66 2.64 1 4 C-20.17 17.14 -42.23 27.62 -67 32 C-68.04 32.2 -69.09 32.4 -70.16 32.61 C-98.41 37.29 -128.23 33.78 -155 24 C-155 23.67 -155 23.34 -155 23 C-149.43 23.31 -144.17 23.83 -138.81 25.44 C-125.73 29.25 -111.97 29.41 -98.44 29.38 C-97.19 29.37 -97.19 29.37 -95.93 29.37 C-82.29 29.34 -69.27 28.36 -56 25 C-55.2 24.8 -54.41 24.6 -53.59 24.4 C-44.66 22.12 -36.24 19.14 -28 15 C-26.73 14.38 -25.46 13.77 -24.2 13.15 C-15.91 9.11 -7.89 4.78 0 0 Z " fill="#5FB1F6" transform="translate(344,390)"/>
<path d="M0 0 C5.23 -0.4 10.45 -0.69 15.69 -0.88 C17.46 -0.96 19.24 -1.07 21.01 -1.21 C35.29 -2.3 35.29 -2.3 39.76 1.49 C42.89 5.25 45.05 9.42 47.04 13.87 C48.32 16.72 49.8 19.45 51.27 22.2 C58.09 35.16 66 51.15 66 66 C52.8 66 39.6 66 26 66 C26.33 65.34 26.66 64.68 27 64 C38.22 64.33 49.44 64.66 61 65 C55.15 45.66 47.28 26.22 35 10 C34.49 8.99 34.49 8.99 33.96 7.95 C32.51 5.42 31.31 3.81 29 2 C24.06 0.87 19.17 0.92 14.12 1 C12.76 0.99 11.39 0.98 10.02 0.96 C6.68 0.94 3.34 0.95 0 1 C0 0.67 0 0.34 0 0 Z " fill="#EFC561" transform="translate(347,157)"/>
<path d="M0 0 C-0.33 0.99 -0.66 1.98 -1 3 C-2.76 3.76 -2.76 3.76 -5.06 4.32 C-5.91 4.54 -6.76 4.76 -7.64 4.99 C-8.56 5.22 -9.49 5.45 -10.44 5.69 C-30.11 10.97 -48.39 20.23 -65 32 C-66.32 30.02 -67.64 28.04 -69 26 C-67.64 22.72 -66.44 21.33 -63.32 19.67 C-62.19 19.06 -62.19 19.06 -61.03 18.45 C-60.22 18.03 -59.4 17.62 -58.56 17.19 C-57.72 16.75 -56.87 16.31 -56 15.86 C-41.92 8.78 -27.41 4.16 -12 1 C-11.1 0.8 -10.19 0.61 -9.26 0.4 C-6.16 -0.15 -3.14 -0.06 0 0 Z " fill="#03DE95" transform="translate(228,89)"/>
<path d="M0 0 C12.49 6.11 20.97 17.86 26 30.62 C27 34 27 34 27 37 C-12.6 37 -52.2 37 -93 37 C-92.67 36.01 -92.34 35.02 -92 34 C-92 34.66 -92 35.32 -92 36 C-54.05 36 -16.1 36 23 36 C15.03 18.13 15.03 18.13 2.2 3.77 C1.47 3.19 0.75 2.6 0 2 C0 1.34 0 0.68 0 0 Z " fill="#6BB0EA" transform="translate(421,451)"/>
<path d="M0 0 C12.04 5.62 20.91 16.95 26 29 C26.52 31.68 26.78 34.27 27 37 C26.01 37 25.02 37 24 37 C23.52 35.9 23.03 34.8 22.53 33.67 C17.26 21.93 11.78 11.45 1.47 3.34 C0.98 2.9 0.5 2.46 0 2 C0 1.34 0 0.68 0 0 Z " fill="#5EB1F5" transform="translate(126,104)"/>
<path d="M0 0 C12.77 8.21 20.62 18.66 26 33 C26 33.99 26 34.98 26 36 C23.62 35.81 23.62 35.81 21 35 C19.85 32.85 19.85 32.85 19.06 30.06 C15.93 20.46 10.91 13.49 3.95 6.23 C2.18 4.2 1.06 2.46 0 0 Z " fill="#5EB0F5" transform="translate(452,105)"/>
</svg>
