<?xml version="1.0" encoding="UTF-8"?>
<!-- Generator: visioncortex VTracer 0.6.3 -->
<svg version="1.1" xmlns="http://www.w3.org/2000/svg" width="128" height="128">
<path d="M0 0 C3.59 2.54 6.16 5.04 8.49 8.77 C8.9 9.39 9.31 10.01 9.73 10.65 C13.55 17.57 13.82 26.08 12.49 33.77 C10.87 38.27 8.95 43.31 5.49 46.77 C5.37 49.03 5.31 51.31 5.29 53.58 C5.28 54.3 5.27 55.03 5.26 55.77 C5.22 58.13 5.2 60.48 5.18 62.83 C5.16 64.28 5.14 65.73 5.12 67.18 C5.05 72.56 4.99 77.94 4.93 83.33 C4.79 95.35 4.64 107.38 4.49 119.77 C-33.79 119.77 -72.07 119.77 -111.51 119.77 C-111.51 113.2 -110.28 111.55 -106.13 107.08 C-105.59 106.47 -105.05 105.86 -104.49 105.24 C-102.84 103.4 -101.18 101.58 -99.51 99.77 C-98.57 98.73 -97.63 97.69 -96.7 96.66 C-95.09 94.89 -93.48 93.12 -91.86 91.36 C-89.57 88.99 -89.57 88.99 -88.34 86.91 C-86.12 83.65 -84.66 81.99 -80.69 81.21 C-77.31 81.08 -74.01 81.15 -70.63 81.33 C-68.88 81.38 -68.88 81.38 -67.1 81.42 C-64.23 81.51 -61.37 81.62 -58.51 81.77 C-58.21 81.17 -57.91 80.57 -57.6 79.95 C-51.97 68.69 -51.97 68.69 -47.51 65.77 C-43.5 64.8 -39.51 64.98 -35.41 65.08 C-31.31 65.11 -29.1 65.12 -25.5 62.96 C-23.59 60.99 -21.97 59.09 -20.51 56.77 C-23.73 57.12 -25.13 57.33 -27.31 59.82 C-30.52 62.66 -33.65 61.98 -37.7 61.83 C-42.6 61.85 -45.55 62.01 -49.48 65.12 C-51.69 67.92 -53.6 70.77 -55.51 73.77 C-57.65 76.39 -58.71 77.65 -62.11 78.15 C-63.08 78.11 -64.05 78.07 -65.05 78.02 C-66.12 78 -67.19 77.98 -68.29 77.96 C-69.98 77.93 -69.98 77.93 -71.7 77.89 C-80 77.84 -80 77.84 -87.66 80.52 C-89.9 83.13 -91.64 85.87 -93.51 88.77 C-95.94 91.56 -98.51 94.22 -101.07 96.89 C-102.3 98.2 -103.53 99.52 -104.76 100.84 C-105.68 101.81 -106.59 102.79 -107.51 103.77 C-108.83 103.11 -110.15 102.45 -111.51 101.77 C-110.13 98.72 -108.53 96.5 -106.28 94.04 C-103.81 91.3 -101.57 88.52 -99.42 85.52 C-91.07 74.53 -91.07 74.53 -84.52 73.12 C-80.1 72.82 -75.74 72.91 -71.32 73.07 C-64.69 73.41 -64.69 73.41 -59.04 70.45 C-56.85 67.65 -55.19 64.9 -53.51 61.77 C-51.77 59.34 -50.62 57.97 -47.63 57.41 C-45.37 57.26 -43.14 57.21 -40.88 57.2 C-38.04 57.19 -35.35 57.05 -32.51 56.77 C-31.85 55.78 -31.19 54.79 -30.51 53.77 C-31.09 53.44 -31.67 53.11 -32.27 52.77 C-39.84 48.16 -44.76 42.28 -47.51 33.77 C-48.72 23.13 -47.84 14.7 -41.51 5.77 C-39.39 3.28 -37.27 1.49 -34.51 -0.23 C-33.89 -0.64 -33.27 -1.05 -32.62 -1.48 C-22.46 -7.08 -9.72 -5.64 0 0 Z " fill="#010000" transform="translate(113.5078125,6.234375)"/>
<path d="M0 0 C7.1 4.04 12.41 10.09 14.69 18 C15.74 26.53 14.29 34.01 9.21 41.04 C3.6 47.28 -3.5 50.12 -11.81 50.56 C-19.73 50.22 -25.86 46.91 -31.25 41.19 C-36.25 34.87 -37.99 28.87 -37.72 20.8 C-36.59 12.99 -32.44 7.22 -26.34 2.41 C-18.32 -3.17 -8.94 -4.04 0 0 Z " fill="#F4D06C" transform="translate(107.3125,8)"/>
<path d="M0 0 C7.1 4.04 12.41 10.09 14.69 18 C15.74 26.53 14.29 34.01 9.21 41.04 C3.6 47.28 -3.5 50.12 -11.81 50.56 C-19.73 50.22 -25.86 46.91 -31.25 41.19 C-36.25 34.87 -37.99 28.87 -37.72 20.8 C-36.59 12.99 -32.44 7.22 -26.34 2.41 C-18.32 -3.17 -8.94 -4.04 0 0 Z M-28.31 9 C-32.7 15.34 -34.21 21.38 -33.31 29 C-31.07 35.83 -26.84 40.72 -20.62 44.31 C-15.23 46.8 -9.74 47.12 -4.07 45.27 C2.49 42.24 6.93 37.72 9.96 31.17 C11.94 25.25 11.07 19.44 8.66 13.78 C5.57 8.13 -0.29 4.01 -6.31 2 C-14.7 1.14 -22.23 2.92 -28.31 9 Z " fill="#EEBA26" transform="translate(107.3125,8)"/>
<path d="M0 0 C0 21.78 0 43.56 0 66 C-2.64 66 -5.28 66 -8 66 C-8 45.54 -8 25.08 -8 4 C-1 0 -1 0 0 0 Z " fill="#FE816D" transform="translate(114,56)"/>
<path d="M0 0 C5.55 3.74 9.41 8.63 10.79 15.2 C11.54 21.81 10.49 26.67 6.79 32.2 C2.69 37.21 -2.24 40.58 -8.67 41.59 C-16.19 41.92 -21.22 39.65 -26.96 34.95 C-31.42 29.51 -33.9 24.59 -33.54 17.44 C-32.68 11.51 -30.48 6.47 -26.21 2.2 C-17.99 -3.48 -8.9 -5.03 0 0 Z M-27.21 9.89 C-29.82 14.59 -30.23 18.96 -29.21 24.2 C-27.13 29.69 -23.57 33.52 -18.45 36.35 C-13.55 38.22 -8.88 38.22 -3.98 36.35 C1.14 33.52 4.7 29.69 6.79 24.2 C7.8 18.96 7.39 14.59 4.79 9.89 C1.3 5.08 -2.77 1.87 -8.67 0.73 C-16.77 0.25 -22.49 3.37 -27.21 9.89 Z " fill="#0C0902" transform="translate(107.21484375,12.796875)"/>
<path d="M0 0 C0 19.8 0 39.6 0 60 C-2.64 60 -5.28 60 -8 60 C-8.15 52.42 -8.26 44.84 -8.33 37.26 C-8.36 34.68 -8.4 32.1 -8.45 29.52 C-8.53 25.82 -8.56 22.11 -8.59 18.4 C-8.62 17.25 -8.65 16.1 -8.68 14.91 C-8.68 5.97 -8.68 5.97 -5.09 2.23 C-2 0 -2 0 0 0 Z " fill="#FD816D" transform="translate(102,62)"/>
<path d="M0 0 C0.33 0 0.66 0 1 0 C1 16.17 1 32.34 1 49 C-1.64 49 -4.28 49 -7 49 C-7 33.82 -7 18.64 -7 3 C-5.02 2.34 -3.04 1.68 -1 1 C-0.67 0.67 -0.34 0.34 0 0 Z " fill="#FE816D" transform="translate(89,73)"/>
<path d="M0 0 C2.64 0 5.28 0 8 0 C8 15.18 8 30.36 8 46 C5.36 46 2.72 46 0 46 C0 30.82 0 15.64 0 0 Z " fill="#FF826E" transform="translate(70,76)"/>
<path d="M0 0 C1.32 0 2.64 0 4 0 C4 2.64 4 5.28 4 8 C5.32 8 6.64 8 8 8 C8 15.92 8 23.84 8 32 C6.68 32 5.36 32 4 32 C4 34.64 4 37.28 4 40 C2.68 40 1.36 40 0 40 C0 37.36 0 34.72 0 32 C-1.32 32 -2.64 32 -4 32 C-4 24.08 -4 16.16 -4 8 C-2.68 8 -1.36 8 0 8 C0 5.36 0 2.72 0 0 Z " fill="#000000" transform="translate(14,36)"/>
<path d="M0 0 C1.32 0 2.64 0 4 0 C4 2.64 4 5.28 4 8 C5.32 8 6.64 8 8 8 C8 14.6 8 21.2 8 28 C6.68 28 5.36 28 4 28 C4 30.64 4 33.28 4 36 C2.68 36 1.36 36 0 36 C0 33.36 0 30.72 0 28 C-1.32 28 -2.64 28 -4 28 C-4 21.4 -4 14.8 -4 8 C-2.68 8 -1.36 8 0 8 C0 5.36 0 2.72 0 0 Z " fill="#000000" transform="translate(30,30)"/>
<path d="M0 0 C0 13.53 0 27.06 0 41 C-2.64 41 -5.28 41 -8 41 C-8.17 36.61 -8.3 32.22 -8.38 27.82 C-8.42 26.33 -8.47 24.84 -8.53 23.35 C-9.08 9.4 -9.08 9.4 -4.54 3.46 C-1.33 0 -1.33 0 0 0 Z " fill="#FD816D" transform="translate(66,81)"/>
<path d="M0 0 C1.32 0 2.64 0 4 0 C4 2.64 4 5.28 4 8 C5.32 8 6.64 8 8 8 C8 13.28 8 18.56 8 24 C6.68 24 5.36 24 4 24 C4 26.64 4 29.28 4 32 C2.68 32 1.36 32 0 32 C0 29.36 0 26.72 0 24 C-1.32 24 -2.64 24 -4 24 C-4 18.72 -4 13.44 -4 8 C-2.68 8 -1.36 8 0 8 C0 5.36 0 2.72 0 0 Z " fill="#000000" transform="translate(46,20)"/>
<path d="M0 0 C1.32 0 2.64 0 4 0 C4 1.32 4 2.64 4 4 C5.98 4 7.96 4 10 4 C10 5.98 10 7.96 10 10 C8.68 10 7.36 10 6 10 C6 9.34 6 8.68 6 8 C3.69 8.33 1.38 8.66 -1 9 C-1 9.66 -1 10.32 -1 11 C-0.37 11.12 0.25 11.24 0.9 11.37 C2.12 11.62 2.12 11.62 3.38 11.88 C4.19 12.04 5 12.2 5.84 12.37 C8 13 8 13 10 15 C9.62 18.62 9.62 18.62 9 22 C7.35 22.66 5.7 23.32 4 24 C4 25.32 4 26.64 4 28 C2.68 28 1.36 28 0 28 C0 26.68 0 25.36 0 24 C-1.98 24 -3.96 24 -6 24 C-6 22.02 -6 20.04 -6 18 C-4.68 18 -3.36 18 -2 18 C-2 18.66 -2 19.32 -2 20 C1.47 19.51 1.47 19.51 5 19 C5 18.34 5 17.68 5 17 C3.74 16.92 2.48 16.84 1.19 16.75 C-1.73 16.38 -2.74 16.23 -5 14.25 C-6.2 11.56 -6.45 9.92 -6 7 C-4.69 5.19 -4.69 5.19 -3 4 C-2.01 4 -1.02 4 0 4 C0 2.68 0 1.36 0 0 Z " fill="#070603" transform="translate(94,18)"/>
<path d="M0 0 C2.64 0 5.28 0 8 0 C8 9.9 8 19.8 8 30 C5.36 30 2.72 30 0 30 C0 20.1 0 10.2 0 0 Z " fill="#FF826E" transform="translate(46,92)"/>
<path d="M0 0 C2.64 0 5.28 0 8 0 C8 9.9 8 19.8 8 30 C5.36 30 2.72 30 0 30 C0 20.1 0 10.2 0 0 Z " fill="#FF826E" transform="translate(34,92)"/>
<path d="M0 0 C0 8.58 0 17.16 0 26 C-2.64 26 -5.28 26 -8 26 C-9.07 10.09 -9.07 10.09 -6.48 5.02 C-2 0 -2 0 0 0 Z " fill="#FC806D" transform="translate(30,96)"/>
<path d="M0 0 C0 3.96 0 7.92 0 12 C-3.63 12 -7.26 12 -11 12 C-2.2 0 -2.2 0 0 0 Z " fill="#F87E6B" transform="translate(18,110)"/>
<path d="M0 0 C1.32 0 2.64 0 4 0 C4 5.28 4 10.56 4 16 C2.68 16 1.36 16 0 16 C0 10.72 0 5.44 0 0 Z " fill="#B4DD7F" transform="translate(14,48)"/>
<path d="M0 0 C1.32 0 2.64 0 4 0 C4 3.96 4 7.92 4 12 C2.68 12 1.36 12 0 12 C0 8.04 0 4.08 0 0 Z " fill="#B4DD7F" transform="translate(30,42)"/>
<path d="M0 0 C1.32 0 2.64 0 4 0 C4 2.64 4 5.28 4 8 C2.68 8 1.36 8 0 8 C0 5.36 0 2.72 0 0 Z " fill="#B4DD7F" transform="translate(46,32)"/>
</svg>
