<?xml version="1.0" encoding="UTF-8"?>
<!-- Generator: visioncortex VTracer 0.6.3 -->
<svg version="1.1" xmlns="http://www.w3.org/2000/svg" width="512" height="512">
<path d="M0 0 C1.02 0 2.04 0 3.09 0.01 C17.71 0.06 32 0.37 46.38 3.31 C47.37 3.51 48.37 3.7 49.4 3.9 C88.01 11.53 124.14 27.25 155.38 51.31 C156.19 51.93 157 52.55 157.84 53.19 C174.9 66.52 191.26 82.13 204.1 99.59 C205.4 101.34 206.73 103.06 208.07 104.78 C215.93 114.99 222.32 125.95 228.38 137.31 C229.04 138.55 229.04 138.55 229.72 139.82 C241.23 161.72 248.9 186.01 253.38 210.31 C253.54 211.11 253.7 211.91 253.86 212.74 C259.35 240.82 259.11 274.3 253.38 302.31 C253.18 303.31 252.99 304.31 252.79 305.33 C244.67 346.42 227.3 383.52 201.38 416.31 C200.56 417.35 199.75 418.39 198.91 419.46 C186.24 435.02 171.69 449.59 155.38 461.31 C154.21 462.18 153.04 463.04 151.87 463.91 C121.46 486.23 87.03 500.97 50.12 508.56 C49.39 508.71 48.66 508.86 47.91 509.02 C32.32 512.03 16.85 512.72 1 512.69 C-0.01 512.69 -1.02 512.69 -2.06 512.69 C-18.25 512.65 -33.75 511.69 -49.62 508.31 C-50.55 508.13 -51.47 507.94 -52.42 507.75 C-89.7 500.08 -124.14 483.94 -154.62 461.31 C-155.36 460.78 -156.09 460.25 -156.85 459.7 C-157.57 459.17 -158.3 458.63 -159.04 458.09 C-160.04 457.36 -160.04 457.36 -161.05 456.62 C-162.62 455.31 -162.62 455.31 -163.62 453.31 C-163.25 451.39 -163.25 451.39 -162.88 449.44 C-162.81 445.71 -163.82 443.79 -166.2 441.05 C-171.88 435.05 -171.88 435.05 -179.21 431.8 C-180.67 431.93 -182.13 432.1 -183.59 432.3 C-187.19 432.32 -189.01 430.17 -191.47 427.75 C-196.13 422.48 -200.42 416.95 -204.62 411.31 C-205.06 410.73 -205.5 410.15 -205.95 409.55 C-212.45 400.82 -218.24 391.77 -223.62 382.31 C-223.99 381.68 -224.35 381.05 -224.73 380.4 C-239.66 354.31 -249.13 324.98 -253.62 295.31 C-253.8 294.19 -253.98 293.07 -254.16 291.92 C-255.84 280.2 -255.98 268.58 -255.94 256.75 C-255.94 255.73 -255.93 254.71 -255.93 253.66 C-255.88 239.01 -255.57 224.7 -252.62 210.31 C-252.33 208.82 -252.33 208.82 -252.04 207.29 C-244.41 168.68 -228.7 132.53 -204.62 101.31 C-203.66 100.06 -203.66 100.06 -202.68 98.78 C-188.57 80.83 -172.22 63.64 -153.62 50.31 C-153.08 49.92 -152.54 49.53 -151.98 49.12 C-130.96 33.97 -108.2 21.6 -83.62 13.31 C-82.4 12.9 -82.4 12.9 -81.16 12.48 C-71.38 9.24 -61.5 6.71 -51.44 4.56 C-50.51 4.36 -49.59 4.16 -48.64 3.96 C-32.43 0.67 -16.49 -0.06 0 0 Z " fill="#25D091" transform="translate(255.625,-0.3125)"/>
<path d="M0 0 C1.02 0 2.04 0 3.09 0.01 C17.71 0.06 32 0.37 46.38 3.31 C47.37 3.51 48.37 3.7 49.4 3.9 C88.01 11.53 124.14 27.25 155.38 51.31 C156.19 51.93 157 52.55 157.84 53.19 C174.9 66.52 191.26 82.13 204.1 99.59 C205.4 101.34 206.73 103.06 208.07 104.78 C215.93 114.99 222.32 125.95 228.38 137.31 C229.04 138.55 229.04 138.55 229.72 139.82 C241.23 161.72 248.9 186.01 253.38 210.31 C253.54 211.11 253.7 211.91 253.86 212.74 C259.35 240.82 259.11 274.3 253.38 302.31 C253.18 303.31 252.99 304.31 252.79 305.33 C244.67 346.42 227.3 383.52 201.38 416.31 C200.56 417.35 199.75 418.39 198.91 419.46 C186.24 435.02 171.69 449.59 155.38 461.31 C154.21 462.18 153.04 463.04 151.87 463.91 C121.46 486.23 87.03 500.97 50.12 508.56 C49.39 508.71 48.66 508.86 47.91 509.02 C32.32 512.03 16.85 512.72 1 512.69 C-0.01 512.69 -1.02 512.69 -2.06 512.69 C-18.25 512.65 -33.75 511.69 -49.62 508.31 C-50.55 508.13 -51.47 507.94 -52.42 507.75 C-89.7 500.08 -124.14 483.94 -154.62 461.31 C-155.36 460.78 -156.09 460.25 -156.85 459.7 C-157.57 459.17 -158.3 458.63 -159.04 458.09 C-160.04 457.36 -160.04 457.36 -161.05 456.62 C-162.62 455.31 -162.62 455.31 -163.62 453.31 C-163.25 451.39 -163.25 451.39 -162.88 449.44 C-162.81 445.71 -163.82 443.79 -166.2 441.05 C-171.88 435.05 -171.88 435.05 -179.21 431.8 C-180.67 431.93 -182.13 432.1 -183.59 432.3 C-187.19 432.32 -189.01 430.17 -191.47 427.75 C-196.13 422.48 -200.42 416.95 -204.62 411.31 C-205.06 410.73 -205.5 410.15 -205.95 409.55 C-212.45 400.82 -218.24 391.77 -223.62 382.31 C-223.99 381.68 -224.35 381.05 -224.73 380.4 C-239.66 354.31 -249.13 324.98 -253.62 295.31 C-253.8 294.19 -253.98 293.07 -254.16 291.92 C-255.84 280.2 -255.98 268.58 -255.94 256.75 C-255.94 255.73 -255.93 254.71 -255.93 253.66 C-255.88 239.01 -255.57 224.7 -252.62 210.31 C-252.33 208.82 -252.33 208.82 -252.04 207.29 C-244.41 168.68 -228.7 132.53 -204.62 101.31 C-203.66 100.06 -203.66 100.06 -202.68 98.78 C-188.57 80.83 -172.22 63.64 -153.62 50.31 C-153.08 49.92 -152.54 49.53 -151.98 49.12 C-130.96 33.97 -108.2 21.6 -83.62 13.31 C-82.4 12.9 -82.4 12.9 -81.16 12.48 C-71.38 9.24 -61.5 6.71 -51.44 4.56 C-50.51 4.36 -49.59 4.16 -48.64 3.96 C-32.43 0.67 -16.49 -0.06 0 0 Z M-82.62 85.31 C-83.29 85.64 -83.96 85.98 -84.65 86.32 C-109.03 98.54 -132.2 116.39 -148.62 138.31 C-149.5 139.44 -150.38 140.57 -151.26 141.69 C-180.42 179.66 -194.23 228.96 -188.88 276.56 C-188.59 278.46 -188.3 280.36 -187.98 282.25 C-187.73 283.72 -187.49 285.18 -187.27 286.65 C-180.66 329.57 -157.81 372.82 -123.62 400.31 C-123.14 400.71 -122.65 401.11 -122.15 401.52 C-82.5 433.97 -33.36 450.72 18.03 445.79 C21.49 445.4 24.93 444.87 28.38 444.31 C29.18 444.19 29.98 444.07 30.81 443.94 C66.63 438.32 100.67 422.05 127.21 397.32 C129.24 395.44 131.32 393.66 133.44 391.88 C160.84 367.75 179.13 330.67 186.38 295.31 C186.52 294.62 186.67 293.92 186.82 293.2 C196.98 244.09 186.39 193.55 159.19 151.62 C157.93 149.84 156.66 148.07 155.38 146.31 C154.8 145.49 154.23 144.66 153.64 143.81 C151.99 141.64 150.59 139.9 148.38 138.31 C146.03 138.1 143.92 138.31 141.58 138.54 C138.49 138.22 137.61 136.95 135.62 134.62 C135.07 133.89 134.52 133.15 133.95 132.39 C132.33 130.08 132.33 130.08 129.44 127.88 C127.09 124.96 127.18 124.43 127.38 120.88 C127.48 120.15 127.58 119.43 127.69 118.69 C127.05 113.82 122.86 110.57 119.17 107.67 C117.97 106.79 116.77 105.92 115.56 105.06 C114.91 104.59 114.25 104.12 113.58 103.64 C86.2 84.19 55.9 71.25 22.38 67.31 C21.5 67.2 20.63 67.09 19.73 66.98 C-15.37 63.26 -51.06 69.57 -82.62 85.31 Z " fill="#9CF3CF" transform="translate(255.625,-0.3125)"/>
<path d="M0 0 C12.45 -0.61 22.96 -0.16 34.42 5.15 C35.27 5.54 36.12 5.93 37 6.34 C47.99 11.48 58.65 16.9 68.42 24.15 C69.47 24.92 70.52 25.69 71.6 26.48 C79.33 32.22 86.44 38.52 93.42 45.15 C94.37 46.02 94.37 46.02 95.33 46.91 C101.54 52.77 108.59 60.5 112.42 68.15 C110.95 68.15 110.95 68.15 109.45 68.15 C85.64 68.19 61.83 68.25 38.02 68.33 C26.5 68.37 14.99 68.41 3.47 68.42 C-6.56 68.43 -16.6 68.46 -26.63 68.5 C-31.95 68.53 -37.26 68.54 -42.58 68.54 C-47.58 68.54 -52.58 68.56 -57.58 68.59 C-59.42 68.6 -61.25 68.6 -63.09 68.59 C-65.6 68.59 -68.1 68.61 -70.61 68.63 C-71.34 68.62 -72.06 68.61 -72.81 68.61 C-77.85 68.69 -80.69 70.02 -84.58 73.15 C-88.26 77.49 -88.02 81.79 -87.98 87.21 C-87.98 88.08 -87.99 88.95 -87.99 89.84 C-87.99 91.68 -87.99 93.51 -87.97 95.34 C-87.96 98.14 -87.97 100.94 -87.99 103.73 C-87.99 105.52 -87.99 107.3 -87.98 109.09 C-87.99 109.92 -87.99 110.75 -88 111.61 C-87.94 116.37 -87.43 119.17 -84.58 123.15 C-84.58 123.81 -84.58 124.47 -84.58 125.15 C-83.41 125.61 -83.41 125.61 -82.21 126.09 C-79.58 127.15 -79.58 127.15 -77.58 128.15 C-75.58 128.27 -73.58 128.33 -71.57 128.35 C-70.31 128.37 -69.05 128.39 -67.75 128.41 C-66.37 128.43 -64.99 128.45 -63.61 128.47 C-62.2 128.49 -60.79 128.51 -59.38 128.53 C-55.67 128.58 -51.95 128.63 -48.24 128.68 C-44.45 128.73 -40.67 128.79 -36.88 128.84 C-29.45 128.95 -22.02 129.05 -14.58 129.15 C-14.58 131.46 -14.58 133.77 -14.58 136.15 C-15.67 136.25 -15.67 136.25 -16.78 136.34 C-71.31 138.42 -71.31 138.42 -118.4 160.52 C-120.88 163.87 -121.36 166.83 -121.02 170.95 C-120.05 175.81 -118.38 178.75 -114.55 181.74 C-90.76 196.94 -59.26 198.51 -31.87 200.73 C-30.19 200.87 -28.51 201.01 -26.82 201.15 C-22.74 201.49 -18.66 201.82 -14.58 202.15 C-14.58 204.06 -14.58 204.06 -14.57 206.01 C-14.53 218.01 -14.48 230.02 -14.4 242.02 C-14.36 248.2 -14.33 254.37 -14.31 260.54 C-14.3 266.5 -14.26 272.46 -14.21 278.42 C-14.2 280.69 -14.19 282.96 -14.19 285.23 C-14.19 288.41 -14.16 291.6 -14.13 294.79 C-14.13 295.72 -14.14 296.65 -14.14 297.62 C-14.05 303.58 -13 308.18 -9.58 313.15 C-4.84 317.5 -0.8 317.73 5.32 317.65 C6.59 317.65 6.59 317.65 7.88 317.65 C9.65 317.65 11.43 317.64 13.2 317.62 C15.91 317.59 18.61 317.59 21.32 317.61 C23.05 317.6 24.78 317.59 26.51 317.58 C27.72 317.59 27.72 317.59 28.94 317.59 C33.82 317.51 37.2 316.85 41.42 314.15 C45.86 308.39 46.58 303.99 46.62 296.9 C46.63 296.1 46.63 295.29 46.64 294.46 C46.65 292.75 46.65 291.04 46.66 289.33 C46.67 286.72 46.7 284.12 46.73 281.51 C46.74 279.85 46.74 278.19 46.75 276.53 C46.76 275.75 46.77 274.97 46.78 274.17 C46.77 270.88 46.64 268.55 45.02 265.65 C43.53 264 43.53 264 41.44 263.69 C36.96 263.7 36.96 263.7 33.42 266.15 C33.17 268.94 33.04 271.64 33 274.44 C32.97 275.67 32.97 275.67 32.94 276.92 C32.88 279.54 32.84 282.16 32.79 284.77 C32.75 286.55 32.71 288.32 32.67 290.09 C32.58 294.45 32.5 298.8 32.42 303.15 C21.86 303.15 11.3 303.15 0.42 303.15 C0.42 270.15 0.42 237.15 0.42 203.15 C10.98 203.15 21.54 203.15 32.42 203.15 C32.47 206.78 32.47 206.78 32.53 210.48 C32.58 212.82 32.63 215.17 32.68 217.51 C32.71 219.14 32.74 220.77 32.76 222.4 C32.8 224.74 32.85 227.08 32.91 229.42 C32.91 230.51 32.91 230.51 32.92 231.63 C33.01 234.56 33.07 236.65 34.77 239.1 C37.42 240.78 39.36 240.59 42.42 240.15 C44.77 238.85 44.77 238.85 46.42 236.15 C47.06 232.57 47.11 229.02 47.17 225.4 C47.2 224.42 47.23 223.43 47.26 222.42 C47.33 220 47.38 217.57 47.42 215.15 C48.5 215.05 49.59 214.95 50.71 214.85 C96.58 211.39 96.58 211.39 140.26 198.07 C142.42 197.15 142.42 197.15 144.42 197.15 C144.22 208.48 141.87 218.43 138.42 229.15 C138.17 229.91 137.93 230.68 137.67 231.47 C125.77 267.85 102.18 299.5 71.42 322.15 C70.86 322.56 70.31 322.98 69.73 323.41 C61.56 329.46 52.87 334.1 43.73 338.52 C42.18 339.27 42.18 339.27 40.6 340.04 C30 345.03 20.38 348.87 8.54 348.52 C7.59 348.51 6.63 348.49 5.65 348.48 C-1.88 348.3 -9.19 347.64 -16.58 346.15 C-17.22 346.03 -17.86 345.9 -18.51 345.77 C-50.87 339.36 -80.3 323.33 -104.08 300.58 C-105.08 299.63 -106.08 298.69 -107.08 297.75 C-119.77 285.88 -129.59 272.3 -137.64 256.93 C-138.47 255.36 -139.33 253.8 -140.19 252.25 C-148.71 236.3 -153.82 218.95 -156.58 201.15 C-156.7 200.44 -156.81 199.73 -156.93 199 C-163.82 155.65 -152.7 109.2 -127.04 73.56 C-121.98 66.73 -116.44 60.31 -110.58 54.15 C-110.09 53.62 -109.59 53.09 -109.08 52.55 C-80.99 22.77 -41.19 2.37 0 0 Z " fill="#26DF9B" transform="translate(239.5830078125,81.85107421875)"/>
<path d="M0 0 C1.16 -0.01 1.16 -0.01 2.34 -0.02 C4.92 -0.03 7.5 -0.02 10.08 -0 C11.93 -0 13.79 -0.01 15.64 -0.02 C20.67 -0.03 25.69 -0.02 30.72 -0 C35.98 0.01 41.24 0 46.51 0 C55.34 -0 64.18 0.01 73.02 0.03 C83.23 0.06 93.45 0.06 103.66 0.05 C113.49 0.04 123.32 0.05 133.15 0.06 C137.33 0.07 141.51 0.07 145.69 0.06 C150.62 0.06 155.54 0.07 160.46 0.09 C162.27 0.09 164.08 0.09 165.89 0.09 C168.35 0.08 170.82 0.1 173.29 0.11 C174 0.11 174.71 0.1 175.45 0.1 C180.07 0.15 183.22 1.08 187.14 3.5 C191.91 8.78 192.32 12.27 192.38 19.2 C192.39 20.07 192.4 20.94 192.41 21.83 C192.42 23.67 192.43 25.52 192.44 27.36 C192.46 30.16 192.5 32.96 192.54 35.76 C192.55 37.56 192.56 39.35 192.57 41.14 C192.59 41.97 192.6 42.8 192.62 43.66 C192.6 49.44 191.68 52.86 188.14 57.5 C181.81 62.88 174.63 62.02 166.68 61.89 C165.28 61.88 163.87 61.88 162.47 61.87 C158.8 61.86 155.13 61.82 151.46 61.78 C147.7 61.73 143.95 61.72 140.2 61.7 C132.85 61.65 125.49 61.59 118.14 61.5 C118.14 63.81 118.14 66.12 118.14 68.5 C119.2 68.54 120.26 68.58 121.35 68.61 C201.89 71.91 201.89 71.91 222.33 92.31 C225.2 95.93 226.05 98.75 225.62 103.34 C224.37 109.01 221.91 112.23 217.33 115.56 C203.31 124.05 188.07 126.72 172.14 129.5 C171.27 129.66 170.39 129.81 169.48 129.97 C160.66 131.52 151.8 132.74 142.89 133.69 C142.14 133.77 141.38 133.86 140.61 133.94 C133.13 134.68 125.65 134.57 118.14 134.5 C118.17 135.5 118.2 136.51 118.22 137.54 C118.31 141.28 118.37 145.02 118.42 148.75 C118.44 150.37 118.48 151.98 118.52 153.6 C118.58 155.92 118.61 158.25 118.63 160.58 C118.66 161.29 118.68 162.01 118.71 162.75 C118.71 166.68 118.27 168.34 115.8 171.46 C113.14 173.5 113.14 173.5 110.08 174.06 C106.38 173.36 105.4 172.5 103.14 169.5 C102.79 166.75 102.67 164.41 102.75 161.67 C102.76 160.92 102.76 160.18 102.77 159.4 C102.79 157.02 102.84 154.64 102.89 152.25 C102.91 150.63 102.93 149.01 102.95 147.39 C102.99 143.43 103.07 139.47 103.14 135.5 C92.58 135.5 82.02 135.5 71.14 135.5 C71.14 168.5 71.14 201.5 71.14 235.5 C81.7 235.5 92.26 235.5 103.14 235.5 C103.11 232.87 103.07 230.23 103.04 227.51 C103.01 224.96 103 222.41 102.98 219.86 C102.96 218.08 102.94 216.31 102.92 214.54 C102.88 211.99 102.86 209.44 102.85 206.89 C102.84 206.09 102.82 205.3 102.8 204.48 C102.8 199.04 102.8 199.04 104.42 196.51 C106.86 195.08 109.32 195.04 112.11 194.91 C115.37 195.86 116.34 197.68 118.14 200.5 C118.53 203.4 118.71 205.91 118.67 208.8 C118.68 209.6 118.68 210.39 118.69 211.21 C118.69 212.89 118.68 214.57 118.67 216.25 C118.64 218.8 118.66 221.34 118.69 223.89 C118.69 225.53 118.68 227.16 118.67 228.8 C118.68 229.55 118.69 230.31 118.7 231.08 C118.6 236.62 117.2 240.86 114.14 245.5 C108.93 250.46 104.46 250.68 97.53 250.74 C96.68 250.75 95.84 250.76 94.96 250.76 C93.17 250.78 91.38 250.79 89.58 250.8 C86.85 250.81 84.12 250.86 81.39 250.9 C79.64 250.91 77.9 250.92 76.16 250.93 C75.34 250.94 74.53 250.96 73.69 250.98 C68.37 250.96 65.36 250.04 61.14 246.5 C57.83 242.11 56.02 238.73 56.02 233.23 C56.02 231.92 56.02 231.92 56.02 230.59 C56.02 229.16 56.02 229.16 56.03 227.71 C56.03 226.7 56.03 225.7 56.03 224.66 C56.03 221.33 56.04 218 56.05 214.68 C56.05 212.37 56.05 210.07 56.05 207.76 C56.05 201.69 56.06 195.62 56.08 189.55 C56.09 183.35 56.09 177.16 56.09 170.97 C56.11 158.81 56.12 146.66 56.14 134.5 C55.19 134.5 54.25 134.51 53.27 134.51 C52.02 134.51 50.76 134.52 49.47 134.52 C48.24 134.52 47 134.53 45.72 134.53 C41.06 134.49 36.47 134.2 31.83 133.75 C30.45 133.62 30.45 133.62 29.04 133.49 C-33.85 127.13 -33.85 127.13 -48.3 110.88 C-50.81 107.09 -51.68 103.22 -51.4 98.76 C-49.95 92.75 -45.67 89.68 -40.67 86.43 C-15.47 72.02 22.6 68.06 51.39 68.44 C52.31 68.45 53.22 68.46 54.16 68.47 C54.81 68.48 55.47 68.49 56.14 68.5 C56.14 66.19 56.14 63.88 56.14 61.5 C55.37 61.51 54.6 61.52 53.8 61.53 C46.49 61.61 39.18 61.67 31.86 61.71 C28.11 61.73 24.35 61.76 20.59 61.8 C16.96 61.85 13.33 61.87 9.7 61.88 C8.31 61.89 6.93 61.9 5.55 61.92 C-8.39 62.13 -8.39 62.13 -13.86 57.5 C-17.92 52.14 -18.45 47.88 -18.39 41.28 C-18.39 40.41 -18.4 39.55 -18.4 38.66 C-18.4 36.85 -18.39 35.03 -18.38 33.21 C-18.36 30.44 -18.38 27.68 -18.4 24.91 C-18.4 23.13 -18.4 21.36 -18.39 19.59 C-18.4 18.77 -18.4 17.95 -18.41 17.1 C-18.33 11.78 -17.48 8.65 -13.86 4.5 C-9.27 0.81 -5.74 -0.08 0 0 Z " fill="#010403" transform="translate(168.8563232421875,149.49879455566406)"/>
<path d="M0 0 C1.19 0.5 1.19 0.5 2.4 1.01 C18.91 8.08 34.17 17.55 48 29 C48.57 29.47 49.14 29.94 49.73 30.43 C61.65 40.28 72.52 50.73 82 63 C82.42 63.53 82.83 64.06 83.26 64.61 C100.3 86.36 112.65 111.41 120 138 C120.29 139.04 120.29 139.04 120.59 140.09 C130.77 177.04 129.58 217.54 118 254 C117.75 254.8 117.5 255.6 117.24 256.43 C104.64 296.01 80.1 332.6 47 358 C46.38 358.48 45.76 358.96 45.12 359.46 C27.91 372.7 9.41 382.72 -10.95 390.24 C-12.67 390.88 -14.38 391.55 -16.09 392.23 C-46.02 403.95 -82.54 406.01 -114 401 C-115.86 400.73 -115.86 400.73 -117.75 400.45 C-161.97 393.11 -199.72 371.38 -232 341 C-232.66 340.38 -233.32 339.77 -234 339.13 C-262.37 311.74 -280.87 273.16 -289 235 C-289.2 234.14 -289.41 233.27 -289.62 232.38 C-301.14 181.26 -288.44 125.36 -261.16 81.36 C-256.83 74.56 -252.11 68.23 -247 62 C-246.57 61.47 -246.13 60.93 -245.69 60.38 C-235.91 48.33 -225.31 37.49 -213 28 C-212.47 27.58 -211.94 27.17 -211.4 26.74 C-151.29 -20.34 -69.81 -29.47 0 0 Z M-166 22 C-166.67 22.33 -167.34 22.66 -168.03 23 C-192.41 35.23 -215.58 53.07 -232 75 C-232.88 76.13 -233.75 77.25 -234.63 78.38 C-263.8 116.34 -277.61 165.65 -272.25 213.25 C-271.96 215.15 -271.67 217.05 -271.35 218.94 C-271.1 220.4 -270.87 221.87 -270.64 223.34 C-264.04 266.25 -241.18 309.51 -207 337 C-206.51 337.4 -206.03 337.8 -205.53 338.21 C-165.88 370.66 -116.73 387.41 -65.35 382.48 C-61.88 382.09 -58.44 381.56 -55 381 C-54.2 380.88 -53.39 380.75 -52.56 380.63 C-16.74 375.01 17.29 358.74 43.84 334.01 C45.87 332.13 47.95 330.34 50.06 328.56 C77.46 304.44 95.75 267.36 103 232 C103.15 231.3 103.29 230.61 103.44 229.89 C113.6 180.78 103.01 130.24 75.81 88.31 C74.56 86.53 73.29 84.76 72 83 C71.43 82.17 70.86 81.35 70.27 80.5 C68.62 78.32 67.21 76.59 65 75 C62.65 74.78 60.54 75 58.2 75.23 C55.12 74.91 54.23 73.64 52.25 71.31 C51.7 70.58 51.14 69.84 50.57 69.08 C48.95 66.77 48.95 66.77 46.06 64.56 C43.71 61.64 43.8 61.12 44 57.56 C44.1 56.84 44.21 56.12 44.31 55.38 C43.67 50.51 39.48 47.26 35.79 44.36 C34.6 43.48 33.4 42.61 32.19 41.75 C31.53 41.28 30.88 40.81 30.2 40.32 C2.83 20.88 -27.48 7.93 -61 4 C-61.87 3.89 -62.75 3.78 -63.64 3.66 C-98.75 -0.05 -134.44 6.26 -166 22 Z " fill="#D8F7E9" transform="translate(339,63)"/>
<path d="M0 0 C1.02 0 2.04 0 3.09 0.01 C17.71 0.06 32 0.37 46.38 3.31 C47.37 3.51 48.37 3.7 49.4 3.9 C88.01 11.53 124.14 27.25 155.38 51.31 C156.19 51.93 157 52.55 157.84 53.19 C174.9 66.52 191.26 82.13 204.1 99.59 C205.4 101.34 206.73 103.06 208.07 104.78 C215.93 114.99 222.32 125.95 228.38 137.31 C229.04 138.55 229.04 138.55 229.72 139.82 C241.23 161.72 248.9 186.01 253.38 210.31 C253.54 211.11 253.7 211.91 253.86 212.74 C259.35 240.82 259.11 274.3 253.38 302.31 C253.18 303.31 252.99 304.31 252.79 305.33 C244.67 346.42 227.3 383.52 201.38 416.31 C200.56 417.35 199.75 418.39 198.91 419.46 C186.24 435.02 171.69 449.59 155.38 461.31 C154.21 462.18 153.04 463.04 151.87 463.91 C121.46 486.23 87.03 500.97 50.12 508.56 C49.39 508.71 48.66 508.86 47.91 509.02 C32.32 512.03 16.85 512.72 1 512.69 C-0.01 512.69 -1.02 512.69 -2.06 512.69 C-18.25 512.65 -33.75 511.69 -49.62 508.31 C-50.55 508.13 -51.47 507.94 -52.42 507.75 C-89.7 500.08 -124.14 483.94 -154.62 461.31 C-155.36 460.78 -156.09 460.25 -156.85 459.7 C-157.57 459.17 -158.3 458.63 -159.04 458.09 C-160.04 457.36 -160.04 457.36 -161.05 456.62 C-162.62 455.31 -162.62 455.31 -163.62 453.31 C-164.2 446.05 -164.2 446.05 -162.06 443.31 C-158.57 441.88 -156.41 441.87 -152.62 442.31 C-149.45 444.08 -146.7 446.34 -143.88 448.62 C-135.24 455.29 -126.34 460.89 -116.78 466.12 C-114.84 467.19 -112.92 468.3 -111.01 469.42 C-59.17 498.83 6.48 503.64 63.38 488.31 C111.79 474.52 157.54 446.74 188.38 406.31 C188.79 405.77 189.21 405.23 189.64 404.67 C200.96 389.94 210.61 374.19 218.38 357.31 C218.71 356.6 219.04 355.88 219.38 355.14 C233.53 324.07 240.83 290.06 240.75 255.94 C240.75 255.17 240.75 254.39 240.75 253.6 C240.72 238.88 239.18 224.78 236.38 210.31 C236.15 209.07 236.15 209.07 235.92 207.81 C227.54 161.79 203.19 120.93 171.38 87.31 C170.5 86.38 169.62 85.45 168.72 84.5 C161.8 77.35 154.34 71.25 146.38 65.31 C145.8 64.88 145.22 64.45 144.63 64 C135.89 57.49 126.83 51.72 117.38 46.31 C116.8 45.98 116.22 45.64 115.62 45.29 C91.85 31.47 63.56 22.16 36.38 18.31 C35.14 18.11 33.91 17.91 32.64 17.7 C-10.14 11.31 -55.1 18.51 -94.62 35.31 C-95.82 35.82 -95.82 35.82 -97.03 36.33 C-114.32 43.81 -130.8 53.68 -145.62 65.31 C-146.95 66.35 -146.95 66.35 -148.3 67.41 C-155.36 73.07 -162.06 79.1 -168.62 85.31 C-170.02 86.63 -170.02 86.63 -171.44 87.96 C-178.59 94.89 -184.69 102.35 -190.62 110.31 C-191.06 110.89 -191.49 111.47 -191.93 112.06 C-198.44 120.8 -204.22 129.86 -209.62 139.31 C-210.28 140.44 -210.94 141.56 -211.61 142.71 C-220.8 159.09 -227.62 176.95 -232.08 195.18 C-232.47 196.71 -232.9 198.24 -233.34 199.77 C-250 257.14 -237.58 322.87 -209.38 374.27 C-202.35 386.74 -194.54 398.85 -184.91 409.48 C-184.31 410.15 -183.71 410.82 -183.09 411.51 C-181.94 412.75 -180.77 413.98 -179.59 415.19 C-176.71 418.28 -175.27 420.28 -175.2 424.59 C-175.62 428.31 -175.62 428.31 -176.69 430.81 C-178.62 432.31 -178.62 432.31 -181.81 433 C-192.08 431.15 -198.74 419.21 -204.62 411.31 C-205.06 410.73 -205.5 410.15 -205.95 409.55 C-212.45 400.82 -218.24 391.77 -223.62 382.31 C-223.99 381.68 -224.35 381.05 -224.73 380.4 C-239.66 354.31 -249.13 324.98 -253.62 295.31 C-253.8 294.19 -253.98 293.07 -254.16 291.92 C-255.84 280.2 -255.98 268.58 -255.94 256.75 C-255.94 255.73 -255.93 254.71 -255.93 253.66 C-255.88 239.01 -255.57 224.7 -252.62 210.31 C-252.33 208.82 -252.33 208.82 -252.04 207.29 C-244.41 168.68 -228.7 132.53 -204.62 101.31 C-203.66 100.06 -203.66 100.06 -202.68 98.78 C-188.57 80.83 -172.22 63.64 -153.62 50.31 C-153.08 49.92 -152.54 49.53 -151.98 49.12 C-130.96 33.97 -108.2 21.6 -83.62 13.31 C-82.4 12.9 -82.4 12.9 -81.16 12.48 C-71.38 9.24 -61.5 6.71 -51.44 4.56 C-50.51 4.36 -49.59 4.16 -48.64 3.96 C-32.43 0.67 -16.49 -0.06 0 0 Z " fill="#010101" transform="translate(255.625,-0.3125)"/>
<path d="M0 0 C1.29 0.34 1.29 0.34 2.6 0.69 C50.02 13.48 93.52 41.71 122.84 81.43 C123.92 82.89 125.03 84.34 126.13 85.79 C142.61 107.69 154.83 133.58 161.51 160.1 C162.15 162.57 162.89 165 163.62 167.44 C167 179.88 168.58 193.14 169 206 C169.03 206.83 169.05 207.66 169.08 208.52 C170.82 270.52 148.94 328.45 106.45 373.47 C72.37 409.3 26.18 433.97 -23 441 C-23.69 441.1 -24.38 441.2 -25.1 441.31 C-83.05 449.51 -143.15 433.95 -190 399 C-198.09 392.81 -205.62 386 -213 379 C-213.75 378.29 -213.75 378.29 -214.52 377.57 C-222.52 369.97 -229.39 361.82 -236 353 C-237.06 351.61 -237.06 351.61 -238.15 350.2 C-254.15 328.88 -266.02 303.68 -273 278 C-273.34 276.8 -273.67 275.59 -274.02 274.36 C-282.06 244.65 -283.62 212.66 -278.41 182.36 C-278.04 180.21 -277.7 178.06 -277.38 175.89 C-271.18 138.11 -252.96 101.85 -228 73 C-227.32 72.21 -226.64 71.41 -225.93 70.6 C-215.75 59.03 -204.97 48.4 -192.6 39.19 C-191.13 38.09 -189.66 36.98 -188.2 35.86 C-165.97 19.15 -139.8 7.12 -113 0 C-112 -0.28 -111 -0.57 -109.98 -0.86 C-74.57 -10.53 -35.29 -9.39 0 0 Z M-92 11 C-93.23 11.22 -94.47 11.43 -95.74 11.66 C-99.19 12.34 -102.59 13.14 -106 14 C-107.12 14.28 -107.12 14.28 -108.26 14.56 C-145.87 23.99 -177.01 43.66 -205 70 C-205.71 70.65 -206.42 71.31 -207.15 71.98 C-212.95 77.53 -217.8 83.8 -222.63 90.19 C-223.5 91.35 -224.39 92.5 -225.27 93.65 C-241.01 114.05 -252.21 138.2 -259 163 C-259.18 163.65 -259.36 164.29 -259.55 164.96 C-271.94 210.23 -267.09 258.05 -249 301 C-248.67 301.79 -248.35 302.57 -248.01 303.38 C-226.08 355.19 -181.38 393.83 -130.06 414.79 C-90.57 430.49 -47.09 431.58 -6 422 C-5.13 421.8 -4.25 421.6 -3.35 421.39 C25.28 414.17 52.25 400.82 75 382 C75.86 381.29 75.86 381.29 76.73 380.57 C119.91 344.86 146.26 295.6 153 240 C153.15 238.88 153.15 238.88 153.3 237.74 C159.65 187.73 143.57 133.07 113.06 93.25 C111.39 91.15 109.71 89.07 108 87 C107.29 86.14 107.29 86.14 106.57 85.27 C96.72 73.35 86.27 62.48 74 53 C73.47 52.58 72.94 52.17 72.39 51.74 C55.52 38.52 36.9 28.83 17 21 C16.34 20.74 15.68 20.47 15 20.2 C5.55 16.46 -4.1 14.14 -14 12 C-14.86 11.8 -15.71 11.59 -16.6 11.38 C-41.09 5.81 -67.44 6.64 -92 11 Z " fill="#020403" transform="translate(312,38)"/>
<path d="M0 0 C1.49 0.21 2.99 0.42 4.48 0.62 C38.51 5.59 72.65 21.69 98 45 C100 48 100 48 99.88 51.5 C99 55 99 55 97.31 56.94 C94.27 58.34 92.34 58.35 89 58 C86.39 56.2 86.39 56.2 83.69 53.69 C67.32 39.18 47.73 29.83 27.21 22.76 C25.78 22.27 24.35 21.76 22.92 21.23 C-17.32 6.77 -63.6 13.15 -101.76 30.46 C-142.46 49.72 -174.66 84.73 -190.25 126.98 C-203.37 164.11 -206.15 205.59 -192 243 C-191.54 244.32 -191.08 245.63 -190.63 246.95 C-175.38 290.36 -143.36 324.9 -102.2 345.17 C-81.66 354.91 -59.71 360.74 -37 362 C-36.2 362.05 -35.4 362.09 -34.58 362.14 C-2.9 363.64 30.53 356.16 58 340 C58.65 339.62 59.3 339.25 59.97 338.86 C88.65 322.13 111.7 298.55 127 269 C127.49 268.05 127.49 268.05 127.99 267.09 C138.9 245.82 146.3 222.02 147 198 C147.03 197.29 147.05 196.58 147.08 195.85 C148.4 155.36 137.35 114.14 111.4 82.39 C109.64 79.38 109.63 77.44 110 74 C112.12 70.78 113.51 70.12 117.25 69.19 C123.94 70.64 126.73 75.57 130.38 81.08 C156.34 121.45 168.81 168.18 161 216 C160.88 216.8 160.75 217.61 160.63 218.43 C154.85 255.29 137.68 289.97 112 317 C110.83 318.37 109.66 319.74 108.5 321.12 C89.51 342.73 63.35 356.57 37 367 C36.35 367.26 35.7 367.52 35.03 367.79 C-7.73 384.68 -59.42 381.06 -101.16 363.19 C-122.72 353.59 -141.32 340.82 -158.75 324.94 C-159.27 324.47 -159.79 324 -160.32 323.51 C-175.12 309.81 -186.61 292.71 -196 275 C-196.34 274.36 -196.67 273.73 -197.02 273.07 C-219.57 229.68 -222.94 177.92 -208.85 131.39 C-205.92 122.27 -202.27 113.57 -198 105 C-197.67 104.33 -197.34 103.66 -197 102.97 C-174.46 58.02 -134.43 23.28 -86.76 7.15 C-58.32 -1.57 -29.48 -4.48 0 0 Z " fill="#020403" transform="translate(283,68)"/>
<path d="M0 0 C22.41 0.08 44.56 7.37 65 16 C65.79 16.33 66.58 16.67 67.4 17.01 C83.91 24.08 99.17 33.55 113 45 C113.57 45.47 114.14 45.94 114.73 46.43 C126.65 56.28 137.52 66.73 147 79 C147.42 79.53 147.83 80.06 148.26 80.61 C165.3 102.36 177.65 127.41 185 154 C185.19 154.69 185.39 155.38 185.59 156.09 C195.77 193.04 194.58 233.54 183 270 C182.75 270.8 182.5 271.6 182.24 272.43 C169.64 312.01 145.1 348.6 112 374 C111.38 374.48 110.76 374.96 110.12 375.46 C92.91 388.7 74.41 398.72 54.05 406.24 C52.33 406.88 50.62 407.55 48.91 408.23 C37.46 412.72 25.29 414.93 13.19 416.81 C12.33 416.95 11.48 417.08 10.6 417.22 C9.8 417.34 8.99 417.46 8.17 417.58 C7.1 417.74 7.1 417.74 6.02 417.9 C3.82 418.01 2.1 417.64 0 417 C0.86 416.72 0.86 416.72 1.75 416.44 C31.63 406.74 58.41 392.91 82 372 C81.67 371.34 81.34 370.68 81 370 C81.63 369.62 82.26 369.24 82.91 368.86 C98.85 359.05 114.28 346.65 126 332 C126.73 331.11 127.46 330.21 128.22 329.29 C147.29 305.32 160.85 278.02 167 248 C167.22 246.95 167.22 246.95 167.44 245.89 C177.6 196.79 167.04 146.13 139.75 104.25 C138.51 102.49 137.26 100.74 136 99 C135.5 98.25 135 97.49 134.49 96.72 C133.09 94.79 131.97 93.34 130 92 C127.91 91.88 127.91 91.88 125.69 92.19 C123.38 92.4 123.38 92.4 121 92 C117.51 89.05 114.83 85.57 112 82 C110.88 80.98 110.88 80.98 109.74 79.95 C108 78 108 78 107.75 75.82 C107.92 74.32 108.08 72.82 108.25 71.32 C107.82 67.35 105.37 65.15 102.39 62.65 C100.54 61.23 98.66 59.86 96.75 58.5 C96.08 58.02 95.42 57.53 94.73 57.04 C91.26 54.53 87.76 52.17 84.06 50 C83.05 49.34 82.04 48.68 81 48 C81 47.01 81 46.02 81 45 C59.77 23.46 28.42 9.69 0 1 C0 0.67 0 0.34 0 0 Z " fill="#9DF3D0" transform="translate(274,47)"/>
<path d="M0 0 C51.13 4.96 99.34 30.79 136 66 C136.51 66.49 137.02 66.97 137.54 67.47 C153.56 82.89 167.05 100.87 177.99 120.22 C178.97 121.95 179.97 123.67 180.98 125.39 C190.64 142.34 197.48 161.06 202 180 C202.18 180.71 202.35 181.42 202.54 182.15 C203.84 187.41 204.98 192.68 206 198 C206.23 199.16 206.23 199.16 206.46 200.35 C211.19 225.51 210.75 252.89 206 278 C205.84 278.93 205.68 279.85 205.51 280.8 C194.29 345.09 157.51 400.3 104.55 437.86 C77.4 456.81 46.51 468.81 14.31 476 C12.85 476.33 12.85 476.33 11.36 476.67 C10.45 476.86 9.55 477.05 8.61 477.25 C7.42 477.51 7.42 477.51 6.2 477.77 C3.86 478.02 2.23 477.71 0 477 C0.63 476.77 1.27 476.54 1.92 476.3 C27.08 467.09 50.58 456.87 72.69 441.5 C73.4 441.01 74.11 440.52 74.85 440.01 C75.5 439.54 76.15 439.07 76.82 438.59 C77.68 437.99 77.68 437.99 78.55 437.37 C80.13 436.04 80.13 436.04 81 433.97 C82.69 430.64 86.11 429.26 89.25 427.44 C102.48 419.45 113.87 409.67 125 399 C125.95 398.11 126.89 397.21 127.87 396.29 C135.01 389.39 141.05 381.91 147 374 C147.71 373.07 148.42 372.15 149.15 371.19 C180.18 329.84 193.6 278.19 192 227 C191.95 225.12 191.95 225.12 191.91 223.2 C189.08 164.21 159.21 110.86 117 71 C106.15 61.42 94.31 53.13 81.8 45.87 C79.27 44.39 77.08 43.08 75 41 C75.66 41 76.32 41 77 41 C72.88 36.48 68.31 33.39 63.12 30.19 C62.28 29.66 61.43 29.13 60.55 28.59 C41.52 16.86 21.2 8.09 0 1 C0 0.67 0 0.34 0 0 Z " fill="#70F0C0" transform="translate(288,17)"/>
<path d="M0 0 C59.4 0 118.8 0 180 0 C180 10.23 180 20.46 180 31 C172.47 31.09 172.47 31.09 164.79 31.18 C161.62 31.22 158.44 31.26 155.26 31.31 C150.22 31.37 145.18 31.44 140.13 31.5 C136.07 31.55 132 31.6 127.94 31.65 C126.39 31.67 124.83 31.69 123.28 31.71 C121.11 31.73 118.94 31.76 116.77 31.79 C115.53 31.81 114.29 31.83 113.02 31.84 C109.95 31.87 109.95 31.87 107 33 C106.67 56.76 106.34 80.52 106 105 C95.44 105 84.88 105 74 105 C73.5 69.36 73.5 69.36 73 33 C69.57 31.86 66.86 31.84 63.23 31.79 C62.55 31.78 61.87 31.77 61.16 31.76 C58.91 31.73 56.65 31.71 54.39 31.68 C52.83 31.66 51.26 31.64 49.7 31.62 C45.58 31.57 41.46 31.52 37.34 31.47 C32.4 31.41 27.46 31.34 22.52 31.28 C15.01 31.18 7.51 31.09 0 31 C0 20.77 0 10.54 0 0 Z " fill="#DAF8EA" transform="translate(166,165)"/>
<path d="M0 0 C10.56 0 21.12 0 32 0 C32.06 3.63 32.06 3.63 32.11 7.33 C32.16 9.68 32.21 12.02 32.26 14.36 C32.3 15.99 32.32 17.62 32.35 19.25 C32.38 21.59 32.43 23.93 32.49 26.27 C32.49 27 32.5 27.73 32.51 28.48 C32.62 32.44 32.62 32.44 34.34 35.92 C36.13 37.18 36.13 37.18 39 38 C39.17 41.42 39.28 44.83 39.38 48.25 C39.43 49.22 39.48 50.19 39.53 51.18 C39.55 52.12 39.57 53.05 39.59 54.02 C39.62 54.87 39.65 55.73 39.68 56.62 C39 59 39 59 36.01 60.78 C32.6 62.78 32.6 62.78 32.23 66.85 C32.19 68.39 32.18 69.94 32.2 71.48 C32.18 72.3 32.17 73.12 32.15 73.96 C32.12 76.55 32.12 79.15 32.12 81.75 C32.11 83.51 32.09 85.28 32.06 87.04 C32.01 91.36 32 95.68 32 100 C21.44 100 10.88 100 0 100 C0 67 0 34 0 0 Z " fill="#DAF9EB" transform="translate(240,285)"/>
<path d="M0 0 C0 11.55 0 23.1 0 35 C-73.8 33.15 -73.8 33.15 -90.95 18.32 C-91.29 17.88 -91.64 17.45 -92 17 C-68.15 0.49 -28.18 -0.88 0 0 Z " fill="#26D796" transform="translate(225,234)"/>
<path d="M0 0 C28.29 -0.46 66.68 -0.21 91 16 C90.39 17.84 90.39 17.84 89 20 C86.27 21.34 86.27 21.34 82.81 22.5 C81.89 22.81 81.89 22.81 80.94 23.13 C67.72 27.49 54.24 30.76 40.37 32.07 C39.5 32.16 38.62 32.24 37.72 32.33 C35.89 32.51 34.06 32.69 32.22 32.86 C29.44 33.12 26.66 33.4 23.88 33.68 C22.08 33.85 20.29 34.02 18.5 34.2 C17.27 34.32 17.27 34.32 16.01 34.44 C15.23 34.52 14.44 34.59 13.63 34.66 C12.95 34.73 12.27 34.79 11.57 34.86 C7.72 35.07 3.86 35 0 35 C0 23.45 0 11.9 0 0 Z " fill="#26D796" transform="translate(287,234)"/>
<path d="M0 0 C10.56 0 21.12 0 32 0 C32 10.56 32 21.12 32 32 C31.67 32 31.34 32 31 32 C31 25.4 31 18.8 31 12 C21.1 12 11.2 12 1 12 C1 41.04 1 70.08 1 100 C0.67 100 0.34 100 0 100 C0 67 0 34 0 0 Z " fill="#96DDC0" transform="translate(240,285)"/>
<path d="M0 0 C0.99 0.33 1.98 0.66 3 1 C5.9 1.1 8.78 1.14 11.68 1.13 C12.54 1.13 13.39 1.13 14.27 1.14 C16.07 1.14 17.87 1.13 19.67 1.13 C22.42 1.13 25.18 1.13 27.93 1.14 C29.68 1.14 31.43 1.13 33.18 1.13 C34.01 1.13 34.83 1.14 35.68 1.14 C39.29 1.12 42.53 0.98 46 0 C44.75 3.65 44.33 4.78 41 7 C38.3 7.23 35.71 7.35 33.01 7.37 C32.22 7.38 31.44 7.39 30.64 7.4 C28.98 7.41 27.32 7.42 25.67 7.43 C23.14 7.44 20.62 7.49 18.09 7.54 C16.48 7.55 14.87 7.55 13.26 7.56 C12.51 7.58 11.75 7.6 10.98 7.62 C6.93 7.58 5.19 7.15 1.98 4.59 C0 2 0 2 0 0 Z " fill="#23C489" transform="translate(233,398)"/>
<path d="M0 0 C3.94 1.31 4.83 3.2 7.19 6.56 C7.9 7.57 8.62 8.59 9.36 9.63 C9.9 10.41 10.44 11.19 11 12 C10.67 12.66 10.34 13.32 10 14 C8.32 12.43 6.66 10.84 5 9.25 C4.07 8.37 3.14 7.49 2.19 6.58 C0 4 0 4 0 0 Z " fill="#C7F5E2" transform="translate(382,121)"/>
</svg>
